# Blender 4.5.1 LTS
# www.blender.org
mtllib BigTankTree.mtl
o 13mm_Gun_1
v 49.885246 2.130484 0.044721
v 49.885246 2.136800 0.044721
v 49.885246 2.130484 -0.044730
v 49.885246 2.136800 -0.044730
v 50.147984 2.151784 0.044721
v 50.147984 2.163678 0.044721
v 50.147984 2.151784 -0.044730
v 50.147984 2.163678 -0.044730
v 50.093231 2.151784 -0.044730
v 50.093231 2.163678 -0.044730
v 50.093231 2.151784 0.044721
v 50.093231 2.163678 0.044721
v 49.835148 2.093729 -0.044730
v 49.835148 2.093729 0.044721
v 50.006325 2.093729 -0.044730
v 50.006325 2.093729 0.044721
v 49.949532 2.136800 -0.044730
v 50.162918 2.179090 -0.044730
v 50.162918 2.102058 -0.044730
v 50.162918 2.179090 0.044721
v 50.162918 2.102058 0.044721
v 49.949532 2.130484 0.044721
v 49.949532 2.130484 -0.044730
v 49.949532 2.136800 0.044721
v 49.835148 2.102058 0.044721
v 49.835148 2.179090 0.044721
v 49.835148 2.179090 -0.044730
v 49.835148 2.102058 -0.044730
v 50.006325 2.102058 -0.044730
v 50.006325 2.179090 0.044721
v 50.006325 2.179090 -0.044730
v 50.006325 2.102058 0.044721
v 50.093231 2.163678 -0.030065
v 50.093231 2.163678 0.030056
v 50.093231 2.151784 0.030056
v 50.093231 2.151784 -0.030065
v 50.147984 2.151784 0.030056
v 50.147984 2.151784 -0.030065
v 50.147984 2.163678 0.030056
v 50.147984 2.163678 -0.030065
v 50.064445 2.163678 -0.030065
v 50.064445 2.163678 0.030056
v 50.064445 2.151784 0.030056
v 50.064445 2.151784 -0.030065
v 49.817120 2.102058 -0.021945
v 49.910469 2.023181 -0.010959
v 49.817120 2.179090 0.021936
v 49.817120 2.179090 -0.021945
v 50.185482 2.102058 0.034894
v 50.185482 2.102058 -0.034903
v 50.185482 2.179090 -0.034903
v 50.185482 2.179090 0.034894
v 50.006325 2.179090 -0.021945
v 50.006325 2.179090 0.021936
v 50.006325 2.102058 -0.021945
v 50.006325 2.102058 0.021936
v 49.817120 2.093729 -0.021945
v 49.910469 2.023181 0.011091
v 50.006325 2.093729 -0.021945
v 50.006325 2.093729 0.021936
v 50.200798 2.127953 -0.024711
v 50.200798 2.138187 -0.026747
v 50.276619 2.138187 -0.024215
v 50.409576 2.138187 -0.024215
v 50.276619 2.128922 -0.022372
v 50.409576 2.128922 -0.022372
v 50.276619 2.121068 -0.017124
v 50.409576 2.121068 -0.017124
v 50.276619 2.115819 -0.009269
v 50.409576 2.115819 -0.009269
v 50.276619 2.113976 -0.000004
v 50.409576 2.113976 -0.000004
v 50.276619 2.115819 0.009261
v 50.409576 2.115819 0.009261
v 50.276619 2.121068 0.017115
v 50.409576 2.121068 0.017115
v 50.276619 2.128922 0.022363
v 50.409576 2.128922 0.022363
v 50.276619 2.138187 0.024206
v 50.409576 2.138187 0.024206
v 50.276619 2.147452 0.022363
v 50.409576 2.147452 0.022363
v 50.276619 2.155307 0.017115
v 50.409576 2.155307 0.017115
v 50.276619 2.160555 0.009261
v 50.409576 2.160555 0.009261
v 50.276619 2.162398 -0.000004
v 50.409576 2.162398 -0.000004
v 50.276619 2.160555 -0.009269
v 50.409576 2.160555 -0.009269
v 50.276619 2.155307 -0.017124
v 50.409576 2.155307 -0.017124
v 50.276619 2.147452 -0.022372
v 50.409576 2.147452 -0.022372
v 50.200798 2.119277 -0.018914
v 50.200798 2.113480 -0.010238
v 50.200798 2.111445 -0.000004
v 50.200798 2.113480 0.010230
v 50.200798 2.119277 0.018905
v 50.200798 2.127953 0.024703
v 50.200798 2.138187 0.026738
v 50.200798 2.148421 0.024703
v 50.200798 2.157097 0.018905
v 50.200798 2.162894 0.010230
v 50.200798 2.164930 -0.000004
v 50.200798 2.162894 -0.010238
v 50.200798 2.157097 -0.018914
v 50.200798 2.148421 -0.024711
v 50.198273 2.125147 -0.031486
v 50.198273 2.138187 -0.034080
v 50.198273 2.114092 -0.024100
v 50.198273 2.106705 -0.013045
v 50.198273 2.104112 -0.000004
v 50.198273 2.106705 0.013036
v 50.198273 2.114092 0.024091
v 50.198273 2.125147 0.031477
v 50.198273 2.138187 0.034071
v 50.198273 2.151227 0.031477
v 50.198273 2.162282 0.024091
v 50.198273 2.169669 0.013036
v 50.198273 2.172263 -0.000004
v 50.198273 2.169669 -0.013045
v 50.198273 2.162282 -0.024100
v 50.198273 2.151227 -0.031486
v 50.185482 2.125147 -0.031486
v 50.185482 2.138187 -0.034080
v 50.185482 2.114092 -0.024100
v 50.185482 2.106705 -0.013045
v 50.185482 2.104112 -0.000004
v 50.185482 2.106705 0.013036
v 50.185482 2.114092 0.024091
v 50.185482 2.125147 0.031477
v 50.185482 2.138187 0.034071
v 50.185482 2.151227 0.031477
v 50.185482 2.162282 0.024091
v 50.185482 2.169669 0.013036
v 50.185482 2.172263 -0.000004
v 50.185482 2.169669 -0.013045
v 50.185482 2.162282 -0.024100
v 50.185482 2.151227 -0.031486
v 50.409576 2.138187 -0.026000
v 50.409576 2.128239 -0.024021
v 50.409576 2.119806 -0.018386
v 50.409576 2.114171 -0.009953
v 50.409576 2.112192 -0.000004
v 50.409576 2.114171 0.009944
v 50.409576 2.119806 0.018377
v 50.409576 2.128239 0.024012
v 50.409576 2.138187 0.025991
v 50.409576 2.148135 0.024012
v 50.409576 2.156569 0.018377
v 50.409576 2.162204 0.009944
v 50.409576 2.164183 -0.000004
v 50.409576 2.162204 -0.009953
v 50.409576 2.156569 -0.018386
v 50.409576 2.148135 -0.024021
v 50.414124 2.138187 -0.017548
v 50.414124 2.131474 -0.016212
v 50.414124 2.125782 -0.012409
v 50.414124 2.121979 -0.006718
v 50.414124 2.120644 -0.000004
v 50.414124 2.121979 0.006709
v 50.414124 2.125782 0.012401
v 50.414124 2.131474 0.016203
v 50.414124 2.138187 0.017539
v 50.414124 2.144901 0.016203
v 50.414124 2.150592 0.012401
v 50.414124 2.154395 0.006709
v 50.414124 2.155730 -0.000004
v 50.414124 2.154395 -0.006718
v 50.414124 2.150592 -0.012409
v 50.414124 2.144901 -0.016212
v 50.414124 2.128407 -0.023617
v 50.414124 2.138187 -0.025562
v 50.414124 2.120115 -0.018077
v 50.414124 2.114575 -0.009785
v 50.414124 2.112629 -0.000004
v 50.414124 2.114575 0.009776
v 50.414124 2.120115 0.018068
v 50.414124 2.128407 0.023608
v 50.414124 2.138187 0.025554
v 50.414124 2.147968 0.023608
v 50.414124 2.156260 0.018068
v 50.414124 2.161800 0.009776
v 50.414124 2.163745 -0.000004
v 50.414124 2.161800 -0.009785
v 50.414124 2.156260 -0.018077
v 50.414124 2.147968 -0.023617
v 50.438389 2.138187 -0.014131
v 50.438389 2.132781 -0.013056
v 50.438389 2.128198 -0.009994
v 50.438389 2.125136 -0.005411
v 50.438389 2.124061 -0.000004
v 50.438389 2.125136 0.005402
v 50.438389 2.128198 0.009985
v 50.438389 2.132781 0.013047
v 50.438389 2.138187 0.014122
v 50.438389 2.143593 0.013047
v 50.438389 2.148176 0.009985
v 50.438389 2.151239 0.005402
v 50.438389 2.152314 -0.000004
v 50.438389 2.151239 -0.005410
v 50.438389 2.148176 -0.009994
v 50.438389 2.143593 -0.013056
v 50.438389 2.131474 -0.016212
v 50.438389 2.138187 -0.017548
v 50.438389 2.125782 -0.012409
v 50.438389 2.121979 -0.006718
v 50.438389 2.120644 -0.000004
v 50.438389 2.121979 0.006709
v 50.438389 2.125782 0.012401
v 50.438389 2.131474 0.016203
v 50.438389 2.138187 0.017539
v 50.438389 2.144901 0.016203
v 50.438389 2.150592 0.012401
v 50.438389 2.154395 0.006709
v 50.438389 2.155730 -0.000004
v 50.438389 2.154395 -0.006718
v 50.438389 2.150592 -0.012409
v 50.438389 2.144901 -0.016212
v 50.472614 2.138187 -0.011559
v 50.472614 2.133766 -0.010679
v 50.472614 2.130017 -0.008175
v 50.472614 2.127512 -0.004426
v 50.472614 2.126633 -0.000004
v 50.472614 2.127512 0.004417
v 50.472614 2.130017 0.008166
v 50.472614 2.133766 0.010670
v 50.472614 2.138187 0.011550
v 50.472614 2.142609 0.010670
v 50.472614 2.146358 0.008166
v 50.472614 2.148862 0.004417
v 50.472614 2.149742 -0.000004
v 50.472614 2.148862 -0.004426
v 50.472614 2.146358 -0.008175
v 50.472614 2.142609 -0.010679
v 50.472614 2.133145 -0.012178
v 50.472614 2.138187 -0.013181
v 50.472614 2.128870 -0.009322
v 50.472614 2.126014 -0.005047
v 50.472614 2.125011 -0.000004
v 50.472614 2.126014 0.005038
v 50.472614 2.128870 0.009313
v 50.472614 2.133145 0.012169
v 50.472614 2.138187 0.013172
v 50.472614 2.143230 0.012169
v 50.472614 2.147505 0.009313
v 50.472614 2.150361 0.005038
v 50.472614 2.151364 -0.000004
v 50.472614 2.150361 -0.005047
v 50.472614 2.147505 -0.009322
v 50.472614 2.143230 -0.012178
v 50.764286 2.138187 -0.008982
v 50.764286 2.134752 -0.008298
v 50.764286 2.131840 -0.006352
v 50.764286 2.129894 -0.003440
v 50.764286 2.129210 -0.000004
v 50.764286 2.129894 0.003431
v 50.764286 2.131840 0.006343
v 50.764286 2.134752 0.008289
v 50.764286 2.138187 0.008973
v 50.764286 2.141623 0.008289
v 50.764286 2.144535 0.006343
v 50.764286 2.146481 0.003431
v 50.764286 2.147164 -0.000004
v 50.764286 2.146481 -0.003440
v 50.764286 2.144535 -0.006352
v 50.764286 2.141623 -0.008298
v 50.764286 2.138187 -0.010968
v 50.764286 2.133991 -0.010134
v 50.764286 2.130435 -0.007757
v 50.764286 2.128058 -0.004200
v 50.764286 2.127223 -0.000004
v 50.764286 2.128058 0.004191
v 50.764286 2.130435 0.007748
v 50.764286 2.133991 0.010125
v 50.764286 2.138187 0.010959
v 50.764286 2.142383 0.010125
v 50.764286 2.145940 0.007748
v 50.764286 2.148316 0.004191
v 50.764286 2.149151 -0.000004
v 50.764286 2.148316 -0.004200
v 50.764286 2.145940 -0.007757
v 50.764286 2.142383 -0.010134
v 50.799900 2.138187 -0.006492
v 50.799900 2.135705 -0.005998
v 50.799900 2.133600 -0.004592
v 50.799900 2.132193 -0.002487
v 50.799900 2.131700 -0.000004
v 50.799900 2.132193 0.002478
v 50.799900 2.133600 0.004583
v 50.799900 2.135705 0.005989
v 50.799900 2.138187 0.006483
v 50.799900 2.140670 0.005989
v 50.799900 2.142775 0.004583
v 50.799900 2.144181 0.002478
v 50.799900 2.144675 -0.000004
v 50.799900 2.144181 -0.002487
v 50.799900 2.142775 -0.004592
v 50.799900 2.140670 -0.005998
v 50.799900 2.133991 -0.010134
v 50.799900 2.138187 -0.010968
v 50.799900 2.130435 -0.007757
v 50.799900 2.128058 -0.004200
v 50.799900 2.127223 -0.000004
v 50.799900 2.128058 0.004191
v 50.799900 2.130435 0.007748
v 50.799900 2.133991 0.010125
v 50.799900 2.138187 0.010959
v 50.799900 2.142383 0.010125
v 50.799900 2.145940 0.007748
v 50.799900 2.148316 0.004191
v 50.799900 2.149151 -0.000004
v 50.799900 2.148316 -0.004200
v 50.799900 2.145940 -0.007757
v 50.799900 2.142383 -0.010134
v 50.006325 2.093729 -0.048561
v 49.827778 2.093729 0.047221
v 50.006325 2.102058 0.048552
v 49.827778 2.102058 -0.047231
v 50.006325 2.102058 -0.048561
v 49.827778 2.102058 0.047221
v 49.827778 2.093729 -0.047231
v 50.006325 2.093729 0.048552
v 49.817562 2.093729 0.037969
v 49.817120 2.093729 0.021936
v 49.817120 2.102058 0.021936
v 49.817562 2.102058 0.037969
v 49.817562 2.102058 -0.037978
v 49.935829 2.017751 0.011091
v 49.935829 2.017751 -0.010959
v 49.817562 2.093729 -0.037978
v 49.856899 2.187269 0.005249
v 49.856899 2.179090 0.005249
v 49.856899 2.183884 0.015983
v 49.856899 2.179090 0.015983
v 49.818058 2.187269 0.005249
v 49.818058 2.179090 0.005249
v 49.818058 2.183884 0.015983
v 49.818058 2.179090 0.015983
v 49.883339 2.199170 -0.005258
v 49.887882 2.179090 -0.005258
v 49.883339 2.199170 0.005249
v 49.887882 2.179090 0.005249
v 49.853920 2.199170 -0.005258
v 49.833824 2.179090 -0.005258
v 49.853920 2.199170 0.005249
v 49.833824 2.179090 0.005249
v 49.887882 2.187269 -0.005258
v 49.887882 2.187269 0.005249
v 49.849045 2.187269 0.005249
v 49.849045 2.187269 -0.005258
v 49.914326 2.181660 -0.005258
v 49.914326 2.179090 -0.005258
v 49.914326 2.179090 0.005249
v 49.914326 2.181660 0.005249
v 49.818062 2.187269 -0.005258
v 49.818062 2.179090 -0.005258
v 49.818062 2.183884 -0.015986
v 49.818062 2.179090 -0.015986
v 49.856899 2.187269 -0.005258
v 49.856899 2.179090 -0.005258
v 49.856899 2.183884 -0.015986
v 49.856899 2.179090 -0.015986
v 50.162514 2.193977 -0.010477
v 50.185482 2.193977 -0.010477
v 50.162514 2.186572 -0.007410
v 50.185482 2.186572 -0.007410
v 50.162514 2.183505 -0.000004
v 50.185482 2.183505 -0.000004
v 50.162514 2.186572 0.007401
v 50.185482 2.186572 0.007401
v 50.162514 2.193977 0.010468
v 50.185482 2.193977 0.010468
v 50.162514 2.201383 0.007401
v 50.185482 2.201383 0.007401
v 50.162514 2.204450 -0.000004
v 50.185482 2.204450 -0.000004
v 50.162514 2.201383 -0.007410
v 50.185482 2.201383 -0.007410
v 50.162514 2.193977 -0.013898
v 50.162514 2.179090 -0.013551
v 50.185482 2.179090 -0.013551
v 50.185482 2.193977 -0.013898
v 50.162514 2.179090 -0.000004
v 50.185482 2.179090 -0.000004
v 50.162514 2.179090 0.013542
v 50.185482 2.179090 0.013542
v 50.162514 2.193977 0.013889
v 50.185482 2.193977 0.013889
v 50.162514 2.203802 0.009820
v 50.185482 2.203802 0.009820
v 50.162514 2.207871 -0.000004
v 50.185482 2.207871 -0.000004
v 50.162514 2.203802 -0.009829
v 50.185482 2.203802 -0.009829
v 50.276619 2.135705 -0.005997
v 50.276619 2.138187 -0.006491
v 50.276619 2.133600 -0.004591
v 50.276619 2.132193 -0.002486
v 50.276619 2.131700 -0.000003
v 50.276619 2.132193 0.002480
v 50.276619 2.133600 0.004585
v 50.276619 2.135705 0.005991
v 50.276619 2.138187 0.006485
v 50.276619 2.140670 0.005991
v 50.276619 2.142775 0.004585
v 50.276619 2.144181 0.002480
v 50.276619 2.144675 -0.000003
v 50.276619 2.144181 -0.002486
v 50.276619 2.142775 -0.004591
v 50.276619 2.140670 -0.005997
v 49.907997 2.093729 -0.010959
v 49.907997 2.080389 -0.010959
v 49.907997 2.093729 0.011091
v 49.907997 2.080389 0.011091
v 49.951900 2.061256 -0.001818
v 49.951900 2.061256 0.001950
v 49.974270 2.062033 -0.001818
v 49.974270 2.062033 0.001950
v 49.977062 2.080069 -0.001818
v 49.977062 2.080069 0.001950
v 49.979828 2.070740 -0.001818
v 49.979828 2.070740 0.001950
v 49.950836 2.062721 -0.001818
v 49.950836 2.062721 0.001950
v 49.973446 2.063462 -0.001818
v 49.973446 2.063462 0.001950
v 49.975494 2.079925 -0.001818
v 49.975494 2.079925 0.001950
v 49.978188 2.070940 -0.001818
v 49.978188 2.070940 0.001950
v 49.958908 2.071268 -0.001818
v 49.959538 2.068171 0.001950
v 49.962116 2.078694 -0.001818
v 49.962116 2.078694 0.001950
v 49.958019 2.070607 -0.001818
v 49.958649 2.067510 0.001950
v 49.956673 2.078193 -0.001818
v 49.956673 2.078193 0.001950
v 49.959015 2.075242 0.001950
v 49.959015 2.075242 -0.001818
v 49.956711 2.074152 0.001950
v 49.956711 2.074152 -0.001818
v 49.907997 2.083358 0.011091
v 49.907997 2.083358 -0.010959
v 49.906090 2.080389 0.011091
v 49.906090 2.080389 -0.010959
v 49.906090 2.083358 0.011091
v 49.906090 2.083358 -0.010959
v 49.978745 2.093729 -0.010959
v 49.980537 2.093729 -0.009168
v 49.980537 2.080389 -0.009168
v 49.978745 2.080389 -0.010959
v 49.978752 2.080225 -0.010959
v 49.980537 2.093729 0.009300
v 49.978745 2.093729 0.011091
v 49.978745 2.080389 0.011091
v 49.980537 2.080389 0.009300
v 49.978752 2.080225 0.011091
v 49.980537 2.083358 -0.009168
v 49.978745 2.083358 -0.010959
v 49.980537 2.083358 0.009300
v 49.978745 2.083358 0.011091
v 49.945641 2.077470 -0.010959
v 49.948814 2.077470 -0.008039
v 49.951721 2.077738 -0.010959
v 49.948814 2.077470 0.008172
v 49.945641 2.077470 0.011091
v 49.951721 2.077738 0.011091
v 49.948570 2.061430 -0.010959
v 49.951900 2.061256 -0.008039
v 49.948570 2.061430 0.011091
v 49.951900 2.061256 0.008172
v 49.938850 2.020360 -0.008039
v 49.935665 2.021053 -0.010959
v 49.936642 2.018452 -0.010959
v 49.935665 2.021053 0.011091
v 49.938850 2.020360 0.008172
v 49.936642 2.018452 0.011091
v 49.933643 2.030620 -0.010959
v 49.936794 2.030102 -0.008039
v 49.933643 2.030620 0.011091
v 49.936794 2.030102 0.008172
v 49.945953 2.069437 -0.008039
v 49.942764 2.069404 -0.010959
v 49.945953 2.069437 0.008172
v 49.942764 2.069404 0.011091
v 49.925770 2.077470 0.011091
v 49.921654 2.077470 0.007139
v 49.917789 2.078296 0.011091
v 49.921654 2.077470 -0.007007
v 49.925770 2.077470 -0.010959
v 49.917789 2.078296 -0.010959
v 49.923256 2.062749 0.011091
v 49.919216 2.062960 0.007139
v 49.923256 2.062749 -0.010959
v 49.919216 2.062960 -0.007007
v 49.907471 2.027185 0.007139
v 49.911316 2.026349 0.011091
v 49.909840 2.024021 0.011091
v 49.911316 2.026349 -0.010959
v 49.907471 2.027185 -0.007007
v 49.909840 2.024021 -0.010959
v 49.913681 2.033900 -0.010959
v 49.909779 2.034542 -0.007007
v 49.913681 2.033900 0.011091
v 49.909779 2.034542 0.007139
v 49.921535 2.069187 0.007139
v 49.925659 2.069229 0.011091
v 49.921535 2.069187 -0.007007
v 49.925659 2.069229 -0.010959
v 49.775673 2.140573 -0.015119
v 49.817120 2.140573 -0.015119
v 49.775673 2.129885 -0.010692
v 49.817120 2.129885 -0.010692
v 49.775673 2.125458 -0.000005
v 49.817120 2.125458 -0.000005
v 49.775673 2.129885 0.010683
v 49.817120 2.129885 0.010683
v 49.775673 2.140573 0.015110
v 49.817120 2.140573 0.015110
v 49.775673 2.151260 0.010683
v 49.817120 2.151260 0.010683
v 49.775673 2.155688 -0.000005
v 49.817120 2.155688 -0.000005
v 49.775673 2.151260 -0.010692
v 49.817120 2.151260 -0.010692
v 49.756756 2.085412 0.046686
v 49.756149 2.174035 0.046686
v 49.756756 2.085412 -0.046695
v 49.756149 2.174035 -0.046695
v 49.764435 2.087305 0.035401
v 49.765545 2.174035 0.046686
v 49.764435 2.087305 -0.035410
v 49.765545 2.174035 -0.035410
v 49.732883 2.223144 0.046686
v 49.732883 2.223144 -0.046695
v 49.745697 2.219993 -0.035410
v 49.745697 2.219993 0.035401
v 49.754898 2.203350 -0.035410
v 49.754898 2.203350 0.035401
v 49.747917 2.194357 0.046686
v 49.747917 2.194357 -0.046695
v 49.758900 2.149055 0.046686
v 49.758900 2.149055 -0.046695
v 49.765545 2.149171 -0.035410
v 49.765545 2.149171 0.035401
v 49.757751 2.117995 -0.046695
v 49.765545 2.115236 -0.035410
v 49.765545 2.115236 0.035401
v 49.757751 2.117995 0.046686
v 49.765545 2.115236 -0.046695
v 49.764328 2.084651 -0.046695
v 49.764328 2.084651 0.046686
v 49.765545 2.115236 0.046686
v 49.740292 2.229773 -0.046695
v 49.740292 2.229773 0.046686
v 49.754898 2.203350 -0.046695
v 49.754898 2.203350 0.046686
v 49.765545 2.174035 0.035401
v 49.765545 2.174035 -0.046695
v 49.765545 2.149171 -0.046695
v 49.765545 2.149171 0.046686
v 49.775673 2.180115 -0.035410
v 49.775673 2.180115 0.035401
v 49.765194 2.203879 -0.035410
v 49.765194 2.203879 0.035401
v 49.775673 2.149171 -0.035410
v 49.775673 2.149171 0.035401
v 49.775673 2.115236 -0.035410
v 49.775673 2.115236 0.035401
v 49.762161 2.110709 0.042999
v 49.762161 2.104713 0.042999
v 49.755596 2.219390 -0.035410
v 49.755596 2.219390 0.035401
v 49.775673 2.099589 -0.035410
v 49.770390 2.087305 -0.035410
v 49.770390 2.087305 0.035401
v 49.775673 2.099589 0.035401
v 49.762161 2.104713 0.036080
v 49.762161 2.110709 0.036080
v 49.833786 2.104713 0.042999
v 49.833786 2.110709 0.042999
v 49.828312 2.104713 0.036080
v 49.828312 2.110709 0.036080
v 49.762161 2.110709 -0.043008
v 49.762161 2.104713 -0.043008
v 49.762161 2.104713 -0.036089
v 49.762161 2.110709 -0.036089
v 49.833786 2.104713 -0.043008
v 49.833786 2.110709 -0.043008
v 49.828312 2.104713 -0.036089
v 49.828312 2.110709 -0.036089
v 49.762161 2.177764 0.042999
v 49.762161 2.171768 0.042999
v 49.762161 2.172006 0.036080
v 49.762161 2.177764 0.036080
v 49.833786 2.171768 0.042999
v 49.833786 2.177764 0.042999
v 49.828312 2.171768 0.036080
v 49.828312 2.177764 0.036080
v 49.762161 2.177764 -0.043008
v 49.762161 2.171768 -0.043008
v 49.762161 2.172006 -0.036089
v 49.762161 2.177764 -0.036089
v 49.833786 2.171768 -0.043008
v 49.833786 2.177764 -0.043008
v 49.828312 2.171768 -0.036089
v 49.828312 2.177764 -0.036089
v 49.786057 2.107789 -0.036089
v 49.786057 2.109772 -0.036089
v 49.786057 2.107789 0.036080
v 49.786057 2.109772 0.036080
v 49.806732 2.107789 -0.036089
v 49.806732 2.109772 -0.036089
v 49.806732 2.107789 0.036080
v 49.806732 2.109772 0.036080
vn -0.9856 -0.0000 -0.1688
vn -0.9445 -0.0000 -0.3285
vn -0.7842 -0.0000 -0.6205
vn -0.0000 1.0000 -0.0000
vn 0.3993 -0.0000 0.9168
vn 0.2039 -0.0000 0.9790
vn -1.0000 -0.0000 -0.0000
vn -0.0000 -1.0000 -0.0000
vn 1.0000 -0.0000 -0.0000
vn -0.0000 -0.0000 -1.0000
vn 0.2039 -0.0000 -0.9790
vn -0.0000 -0.0000 1.0000
vn -0.9856 -0.0000 0.1688
vn -0.9999 -0.0000 -0.0138
vn -0.9999 -0.0000 0.0138
vn 0.3993 -0.0000 -0.9168
vn -0.7842 -0.0000 0.6205
vn -0.9445 -0.0000 0.3285
vn 0.9454 -0.1247 0.3010
vn 0.9454 -0.0000 0.3258
vn 0.0167 0.7070 0.7070
vn 0.0167 0.9238 0.3826
vn 0.0334 0.9234 0.3825
vn 0.0334 0.7067 0.7067
vn 0.0167 -0.0000 -0.9999
vn -0.0000 -0.3827 -0.9239
vn 0.0167 -0.3826 -0.9238
vn 0.9454 -0.3258 -0.0000
vn 0.9454 -0.3010 0.1247
vn 0.0167 -0.3826 0.9238
vn 0.0167 -0.0000 0.9999
vn 0.0334 -0.0000 0.9994
vn 0.0334 -0.3825 0.9234
vn -0.0000 -0.7071 -0.7071
vn 0.0167 -0.7070 -0.7070
vn 0.9454 0.2304 0.2304
vn 0.9454 0.3010 0.1247
vn 0.0334 -0.3825 -0.9234
vn 0.0334 -0.0000 -0.9994
vn -0.0000 -0.9239 -0.3827
vn 0.0167 -0.9238 -0.3826
vn 0.9454 0.3010 -0.1247
vn 0.9454 0.2304 -0.2304
vn 0.0167 -0.9999 -0.0000
vn 0.0167 -0.9238 0.3826
vn 0.0334 -0.9234 0.3825
vn 0.0334 -0.9994 -0.0000
vn 0.9454 -0.0000 -0.3258
vn 0.9454 -0.1247 -0.3010
vn 0.0334 -0.7067 -0.7067
vn -0.0000 -0.9239 0.3827
vn 0.9454 -0.3010 -0.1247
vn 0.0167 0.7070 -0.7070
vn 0.0167 0.3826 -0.9238
vn 0.0334 0.3825 -0.9234
vn 0.0334 0.7067 -0.7067
vn -0.0000 -0.7071 0.7071
vn 0.0167 -0.7070 0.7070
vn 0.9454 -0.2304 0.2304
vn 0.0167 0.9999 -0.0000
vn 0.0334 0.9994 -0.0000
vn -0.0000 -0.3827 0.9239
vn 0.9454 0.1247 0.3010
vn 0.0167 0.3826 0.9237
vn 0.0334 0.3825 0.9234
vn 0.9454 0.3258 -0.0000
vn 0.0334 -0.7067 0.7067
vn -0.0000 0.3827 0.9239
vn 0.9454 -0.2304 -0.2304
vn 0.0334 -0.9234 -0.3825
vn -0.0000 0.7071 0.7071
vn 0.0167 0.9238 -0.3826
vn 0.0334 0.9234 -0.3825
vn -0.0000 0.9239 0.3827
vn -0.0000 0.9239 -0.3827
vn -0.0000 0.7071 -0.7071
vn 0.9454 0.1247 -0.3010
vn -0.0000 0.3827 -0.9239
vn 0.0957 -0.3809 0.9196
vn 0.0957 -0.7039 0.7039
vn 0.0957 0.3809 -0.9196
vn 0.0958 0.7039 -0.7039
vn 0.0957 -0.0000 0.9954
vn 0.0957 -0.3809 -0.9196
vn 0.0957 -0.0000 -0.9954
vn 0.0957 0.3809 0.9196
vn 0.0957 -0.7039 -0.7039
vn 0.0958 0.7039 0.7039
vn 0.0957 -0.9196 -0.3809
vn 0.0958 0.9196 0.3809
vn 0.0958 -0.9954 -0.0000
vn 0.0957 0.9954 -0.0000
vn 0.0957 -0.9196 0.3809
vn 0.0957 0.9196 -0.3809
vn 0.0277 -0.7068 -0.7068
vn 0.0277 -0.3825 -0.9235
vn 0.0088 1.0000 -0.0000
vn 0.0088 0.9238 0.3827
vn 0.0277 0.7068 0.7068
vn 0.0277 0.3825 0.9235
vn 0.0277 -0.9235 -0.3825
vn 0.0277 0.9235 0.3825
vn 0.0277 -0.9996 -0.0000
vn 0.0277 0.9996 -0.0000
vn 0.0277 -0.9235 0.3825
vn 0.0277 0.9235 -0.3825
vn 0.0277 -0.7068 0.7068
vn 0.0277 0.7068 -0.7068
vn 0.0277 -0.3825 0.9235
vn 0.0277 0.3825 -0.9235
vn 0.0277 -0.0000 0.9996
vn 0.0277 -0.0000 -0.9996
vn 0.0088 -0.9238 0.3827
vn 0.0088 -1.0000 -0.0000
vn 0.0088 0.9238 -0.3827
vn 0.0088 -0.7071 0.7071
vn 0.0088 0.7071 -0.7071
vn 0.0088 -0.3827 0.9238
vn 0.0088 0.3827 -0.9238
vn 0.0088 -0.0000 1.0000
vn 0.0088 -0.3827 -0.9238
vn 0.0088 -0.0000 -1.0000
vn 0.0088 0.3827 0.9238
vn 0.0088 -0.7071 -0.7071
vn 0.0088 0.7071 0.7071
vn 0.0088 -0.9238 -0.3827
vn -0.3632 -0.0000 -0.9317
vn -0.0075 -0.0000 -1.0000
vn -0.0075 -0.0000 1.0000
vn -0.3632 -0.0000 0.9317
vn -0.9085 -0.0000 0.4180
vn -0.9085 -0.0000 -0.4180
vn -0.5392 -0.8422 -0.0000
vn -0.2094 -0.9778 -0.0000
vn -0.0000 0.9537 0.3007
vn -0.7430 0.6693 -0.0000
vn -0.4734 0.8808 -0.0000
vn -0.9253 0.3793 -0.0000
vn 0.9343 0.3565 -0.0000
vn 0.2075 0.9782 -0.0000
vn -0.0000 0.9537 -0.3009
vn -0.0000 0.1837 -0.9830
vn -0.0000 -0.0233 -0.9997
vn -0.0000 -0.0233 0.9997
vn -0.0000 0.1837 0.9830
vn 0.0347 -0.9994 -0.0000
vn 0.9902 -0.1394 -0.0000
vn 0.9587 0.2843 -0.0000
vn 0.8430 -0.5379 -0.0000
vn -0.0327 0.9995 -0.0000
vn -0.9906 0.1366 -0.0000
vn -0.9579 -0.2870 -0.0000
vn -0.8445 0.5356 -0.0000
vn -0.0916 0.9958 -0.0000
vn -0.8088 -0.5881 -0.0000
vn 0.9396 -0.3403 -0.0365
vn 0.7438 -0.6684 -0.0000
vn 0.9970 0.0378 -0.0675
vn 0.4743 -0.6396 -0.6049
vn -0.9871 -0.1582 -0.0229
vn -0.9519 -0.3029 -0.0452
vn -1.0000 -0.0098 -0.0000
vn -0.1051 -0.9945 -0.0000
vn 0.9206 0.0007 -0.3904
vn 0.3731 0.0174 -0.9276
vn 0.3778 0.0087 -0.9259
vn 0.3778 0.0087 0.9259
vn 0.3731 0.0174 0.9276
vn 0.9206 0.0007 0.3904
vn 0.3827 -0.0000 -0.9239
vn 0.9239 -0.0000 -0.3827
vn 0.3827 -0.0000 0.9239
vn 0.9239 -0.0000 0.3827
vn 0.0439 -0.9979 -0.0477
vn 0.0797 -0.9967 -0.0120
vn 0.0723 -0.9972 -0.0194
vn 0.0723 -0.9972 0.0194
vn 0.0797 -0.9967 0.0120
vn 0.0439 -0.9979 0.0477
vn 0.8834 0.2095 -0.4191
vn 0.3023 0.1136 -0.9464
vn 0.3558 0.0973 -0.9295
vn 0.3558 0.0973 0.9295
vn 0.3023 0.1136 0.9464
vn 0.8834 0.2095 0.4191
vn 0.2573 0.0313 -0.9658
vn 0.8808 0.1452 -0.4507
vn 0.9268 0.0740 -0.3681
vn 0.4483 0.0646 -0.8915
vn 0.2573 0.0313 0.9658
vn 0.8808 0.1452 0.4507
vn 0.8807 -0.3140 0.3545
vn 0.2076 -0.0741 0.9754
vn 0.8929 -0.1059 -0.4376
vn 0.2902 -0.0369 -0.9563
vn 0.8929 -0.1059 0.4376
vn 0.2902 -0.0369 0.9563
vn 0.9268 0.0740 0.3681
vn 0.4483 0.0646 0.8915
vn 0.2076 -0.0741 -0.9754
vn 0.8807 -0.3140 -0.3545
vn 0.0916 -0.9958 -0.0000
vn 0.6534 -0.7570 -0.0000
vn -0.1023 -0.9890 0.1066
vn -0.1826 -0.9828 0.0269
vn -0.1666 -0.9851 0.0429
vn -0.1666 -0.9851 -0.0429
vn -0.1826 -0.9828 -0.0269
vn -0.1023 -0.9890 -0.1066
vn -0.8552 0.2981 0.4239
vn -0.2716 0.1721 0.9469
vn -0.3290 0.1480 0.9327
vn -0.3290 0.1480 -0.9327
vn -0.2716 0.1721 -0.9469
vn -0.8552 0.2981 -0.4239
vn -0.3354 0.0580 0.9403
vn -0.8982 0.1751 0.4033
vn -0.8739 0.3067 0.3772
vn -0.3682 0.1305 0.9205
vn -0.3354 0.0580 -0.9403
vn -0.8982 0.1751 -0.4033
vn -0.9192 0.0129 -0.3936
vn -0.1847 0.0025 -0.9828
vn -0.8805 0.2841 -0.3796
vn -0.3681 0.1191 -0.9221
vn -0.8805 0.2841 0.3796
vn -0.3681 0.1191 0.9221
vn -0.8739 0.3067 -0.3772
vn -0.3682 0.1305 -0.9205
vn -0.1847 0.0025 0.9828
vn -0.9192 0.0129 0.3936
vn -0.8005 -0.5994 -0.0000
vn -0.9993 -0.0364 -0.0000
vn -0.9696 -0.2448 -0.0000
vn -0.1001 -0.9950 -0.0000
vn -0.6668 0.7452 -0.0000
vn -0.9077 -0.4196 -0.0000
vn -0.8864 -0.4628 -0.0000
vn -0.9994 0.0337 -0.0000
vn -0.9995 0.0305 -0.0000
vn 0.9998 -0.0199 -0.0000
vn 0.9992 -0.0398 -0.0000
vn 0.8752 0.4838 -0.0000
vn 0.9103 0.4138 -0.0000
vn 0.9849 0.1733 -0.0000
vn 0.9785 0.2062 -0.0000
vn 0.8848 0.4659 -0.0000
vn 0.8504 0.5261 -0.0000
vn 0.0607 0.9982 -0.0000
vn 0.9187 -0.3949 -0.0000
vn 0.9795 -0.2016 -0.0000
vn -0.0017 -0.9999 -0.0165
vn -0.0017 -0.9999 0.0165
vt 0.370175 0.587599
vt 0.467782 0.587599
vt 0.467919 0.616486
vt 0.370313 0.616486
vt 0.396096 0.725803
vt 0.465474 0.725803
vt 0.465474 0.744385
vt 0.396096 0.744385
vt 0.135238 0.007286
vt 0.232845 0.007277
vt 0.232784 0.035998
vt 0.135177 0.036007
vt 0.928377 0.321561
vt 0.920375 0.321561
vt 0.920375 0.208216
vt 0.928377 0.208216
vt 0.388494 0.261573
vt 0.372074 0.488586
vt 0.359622 0.459995
vt 0.359622 0.261573
vt 0.036149 0.234291
vt 0.036149 0.474034
vt 0.007277 0.451190
vt 0.007277 0.234291
vt 0.019729 0.007277
vt 0.007277 0.035868
vt 0.590518 0.804329
vt 0.590518 0.775457
vt 0.601070 0.775457
vt 0.601070 0.804329
vt 0.042378 0.965740
vt 0.057446 0.965740
vt 0.057446 0.984322
vt 0.042378 0.984322
vt 0.341590 0.858324
vt 0.260129 0.858324
vt 0.260129 0.744979
vt 0.341590 0.744979
vt 0.393349 0.007277
vt 0.393349 0.247019
vt 0.364477 0.247019
vt 0.364477 0.030121
vt 0.266987 0.054923
vt 0.266977 0.124297
vt 0.247432 0.234410
vt 0.247461 0.035998
vt 0.282057 0.054925
vt 0.345068 0.036007
vt 0.213258 0.054923
vt 0.198188 0.054925
vt 0.198198 0.124299
vt 0.135206 0.234419
vt 0.282047 0.124299
vt 0.345038 0.234419
vt 0.213268 0.124297
vt 0.232813 0.234410
vt 0.591812 0.555253
vt 0.606882 0.555253
vt 0.606882 0.573835
vt 0.591812 0.573835
vt 0.487522 0.737466
vt 0.556899 0.737466
vt 0.556899 0.756048
vt 0.487522 0.756048
vt 0.171247 0.387827
vt 0.179250 0.387826
vt 0.232845 0.451297
vt 0.135238 0.451306
vt 0.300995 0.387826
vt 0.308997 0.387827
vt 0.345006 0.451306
vt 0.247400 0.451297
vt 0.309009 0.306370
vt 0.179238 0.306369
vt 0.301007 0.306369
vt 0.171235 0.306370
vt 0.711586 0.798237
vt 0.630125 0.798237
vt 0.630125 0.684892
vt 0.711586 0.684892
vt 0.928376 0.449461
vt 0.920374 0.449460
vt 0.920374 0.336115
vt 0.928376 0.336115
vt 0.487522 0.642703
vt 0.556899 0.642703
vt 0.556899 0.661285
vt 0.487522 0.661285
vt 0.591812 0.460490
vt 0.606882 0.460490
vt 0.606882 0.479072
vt 0.591812 0.479073
vt 0.417858 0.965706
vt 0.432926 0.965706
vt 0.432926 0.984288
vt 0.417858 0.984288
vt 0.396096 0.649622
vt 0.359622 0.725803
vt 0.359622 0.649622
vt 0.396096 0.631040
vt 0.465474 0.631040
vt 0.465474 0.649622
vt 0.130385 0.855904
vt 0.145454 0.855904
vt 0.145454 0.932084
vt 0.130385 0.932084
vt 0.593373 0.661285
vt 0.593373 0.737466
vt 0.606882 0.624862
vt 0.591812 0.624863
vt 0.591812 0.588391
vt 0.606882 0.588390
vt 0.467128 0.981862
vt 0.452058 0.981861
vt 0.452058 0.945389
vt 0.467128 0.945389
vt 0.370175 0.531998
vt 0.359622 0.587599
vt 0.359622 0.531998
vt 0.477822 0.030121
vt 0.477822 0.247019
vt 0.448950 0.247019
vt 0.448950 0.007277
vt 0.590518 0.888802
vt 0.590518 0.859930
vt 0.601069 0.859930
vt 0.601069 0.888802
vt 0.120622 0.035868
vt 0.120622 0.234291
vt 0.091750 0.234291
vt 0.108171 0.007277
vt 0.120622 0.451190
vt 0.091750 0.474034
vt 0.472967 0.261573
vt 0.472967 0.459995
vt 0.460515 0.488586
vt 0.444095 0.261573
vt 0.247400 0.007277
vt 0.345006 0.007286
vt 0.487522 0.868198
vt 0.487522 0.770603
vt 0.575963 0.770603
vt 0.575963 0.868197
vt 0.370314 0.503141
vt 0.467920 0.503141
vt 0.467782 0.531998
vt 0.866584 0.534679
vt 0.854371 0.529619
vt 0.856132 0.520497
vt 0.871694 0.526944
vt 0.052931 0.584662
vt 0.042978 0.584662
vt 0.044206 0.488589
vt 0.055199 0.488589
vt 0.159097 0.561962
vt 0.159088 0.730423
vt 0.147360 0.730448
vt 0.147370 0.561987
vt 0.880990 0.569464
vt 0.880991 0.556243
vt 0.890051 0.554421
vt 0.890050 0.571268
vt 0.233382 0.561987
vt 0.221654 0.561962
vt 0.221666 0.465860
vt 0.234620 0.465887
vt 0.137443 0.730518
vt 0.137452 0.562057
vt 0.828937 0.534679
vt 0.819589 0.544028
vt 0.811812 0.538857
vt 0.823724 0.526944
vt 0.146132 0.465887
vt 0.159086 0.465860
vt 0.305783 0.561926
vt 0.305783 0.730395
vt 0.295830 0.730417
vt 0.295830 0.561947
vt 0.814529 0.569465
vt 0.819588 0.581680
vt 0.811811 0.586833
vt 0.805365 0.571269
vt 0.284090 0.561955
vt 0.272350 0.561947
vt 0.271122 0.465884
vt 0.284090 0.465892
vt 0.284090 0.730424
vt 0.841148 0.596088
vt 0.854369 0.596088
vt 0.856128 0.605193
vt 0.839283 0.605193
vt 0.135177 0.465965
vt 0.272350 0.730417
vt 0.875931 0.581680
vt 0.883603 0.586833
vt 0.180837 0.562057
vt 0.170849 0.561987
vt 0.172066 0.465887
vt 0.183099 0.465965
vt 0.262398 0.730395
vt 0.262398 0.561926
vt 0.875932 0.544028
vt 0.883605 0.538857
vt 0.031238 0.584662
vt 0.031238 0.488589
vt 0.243300 0.562057
vt 0.243309 0.730517
vt 0.233391 0.730448
vt 0.841151 0.529619
vt 0.839287 0.520497
vt 0.209903 0.561987
vt 0.208685 0.465887
vt 0.221664 0.730423
vt 0.814529 0.556243
vt 0.805366 0.554422
vt 0.260129 0.465860
vt 0.209912 0.730448
vt 0.866582 0.591029
vt 0.871691 0.598746
vt 0.297058 0.465884
vt 0.308051 0.465860
vt 0.199924 0.730517
vt 0.199915 0.562057
vt 0.019498 0.584662
vt 0.018271 0.488589
vt 0.052931 0.753132
vt 0.042978 0.753132
vt 0.197653 0.465965
vt 0.031238 0.753132
vt 0.245575 0.465965
vt 0.019498 0.753132
vt 0.817112 0.874797
vt 0.817112 0.888805
vt 0.800906 0.888805
vt 0.800906 0.874797
vt 0.009546 0.753132
vt 0.009546 0.584662
vt 0.070894 0.800626
vt 0.068558 0.788886
vt 0.070648 0.788021
vt 0.073155 0.800626
vt 0.828935 0.591029
vt 0.823721 0.598746
vt 0.180827 0.730517
vt 0.170840 0.730448
vt 0.007277 0.488589
vt 0.820876 0.860242
vt 0.804029 0.860242
vt 0.788464 0.853795
vt 0.776552 0.841882
vt 0.770105 0.826317
vt 0.770105 0.809470
vt 0.776552 0.793906
vt 0.788465 0.781993
vt 0.804030 0.775546
vt 0.820876 0.775546
vt 0.836441 0.781994
vt 0.848353 0.793906
vt 0.854800 0.809471
vt 0.854800 0.826318
vt 0.848353 0.841883
vt 0.836440 0.853795
vt 0.770146 0.935859
vt 0.770116 0.921852
vt 0.786322 0.921852
vt 0.786352 0.935859
vt 0.894915 0.137891
vt 0.894817 0.123834
vt 0.911022 0.123833
vt 0.911120 0.137890
vt 0.468298 0.916876
vt 0.468396 0.930834
vt 0.452191 0.930833
vt 0.452093 0.916875
vt 0.894949 0.154431
vt 0.911155 0.154430
vt 0.468298 0.883829
vt 0.468263 0.900370
vt 0.452058 0.900369
vt 0.452093 0.883829
vt 0.894915 0.170937
vt 0.911120 0.170936
vt 0.468396 0.869772
vt 0.452191 0.869772
vt 0.894817 0.184895
vt 0.911022 0.184894
vt 0.817112 0.921852
vt 0.817112 0.935859
vt 0.800906 0.935859
vt 0.800906 0.921852
vt 0.770116 0.888805
vt 0.770146 0.874797
vt 0.786352 0.874797
vt 0.786322 0.888805
vt 0.817112 0.905328
vt 0.800906 0.905328
vt 0.770105 0.905328
vt 0.786311 0.905328
vt 0.980072 0.570864
vt 0.979997 0.581512
vt 0.974227 0.581118
vt 0.974301 0.570649
vt 0.051956 0.828969
vt 0.061908 0.822319
vt 0.063507 0.823918
vt 0.052821 0.831058
vt 0.018524 0.822319
vt 0.028476 0.828969
vt 0.027611 0.831058
vt 0.016925 0.823918
vt 0.011874 0.788886
vt 0.009539 0.800626
vt 0.007277 0.800626
vt 0.009785 0.788021
vt 0.040216 0.769948
vt 0.028477 0.772284
vt 0.027611 0.770194
vt 0.040216 0.767687
vt 0.061908 0.778934
vt 0.063508 0.777334
vt 0.068558 0.812366
vt 0.070648 0.813232
vt 0.040216 0.831304
vt 0.040216 0.833566
vt 0.011874 0.812366
vt 0.009785 0.813232
vt 0.018524 0.778934
vt 0.016925 0.777334
vt 0.051956 0.772284
vt 0.052822 0.770194
vt 0.085088 0.930189
vt 0.085088 0.922977
vt 0.115831 0.922977
vt 0.115831 0.930189
vt 0.980118 0.891579
vt 0.980193 0.880855
vt 0.985963 0.881245
vt 0.985889 0.891789
vt 0.980098 0.558272
vt 0.974327 0.558269
vt 0.980118 0.916789
vt 0.980092 0.904197
vt 0.985863 0.904195
vt 0.985889 0.916575
vt 0.980072 0.545653
vt 0.974301 0.545863
vt 0.980193 0.927438
vt 0.985963 0.927044
vt 0.979997 0.534929
vt 0.974227 0.535320
vt 0.987033 0.811444
vt 0.987056 0.822130
vt 0.981292 0.821738
vt 0.981269 0.811231
vt 0.980092 0.952679
vt 0.980092 0.941992
vt 0.985857 0.942384
vt 0.985857 0.952891
vt 0.987025 0.798838
vt 0.981261 0.798838
vt 0.980092 0.965284
vt 0.985857 0.965284
vt 0.987033 0.786233
vt 0.981269 0.786445
vt 0.980092 0.977889
vt 0.985857 0.977677
vt 0.987056 0.775546
vt 0.981292 0.775939
vt 0.980092 0.988576
vt 0.985857 0.988184
vt 0.832787 0.673312
vt 0.841459 0.673312
vt 0.843439 0.683272
vt 0.830805 0.683272
vt 0.849471 0.669993
vt 0.855112 0.678437
vt 0.855604 0.663860
vt 0.864046 0.669502
vt 0.858923 0.655847
vt 0.868882 0.657828
vt 0.858923 0.647173
vt 0.868882 0.645192
vt 0.855605 0.639160
vt 0.864048 0.633518
vt 0.849473 0.633027
vt 0.855114 0.624583
vt 0.841461 0.629708
vt 0.843442 0.619747
vt 0.832788 0.629708
vt 0.830808 0.619747
vt 0.824776 0.633027
vt 0.819135 0.624583
vt 0.818643 0.639160
vt 0.810201 0.633518
vt 0.815325 0.647173
vt 0.805365 0.645192
vt 0.815324 0.655847
vt 0.805365 0.657828
vt 0.818643 0.663860
vt 0.810199 0.669502
vt 0.824775 0.669993
vt 0.819133 0.678437
vt 0.487522 0.882808
vt 0.493309 0.882767
vt 0.493773 0.926147
vt 0.488375 0.926185
vt 0.290872 0.938540
vt 0.290877 0.947047
vt 0.260135 0.947047
vt 0.260129 0.938540
vt 0.085088 0.938695
vt 0.115831 0.938695
vt 0.290877 0.930034
vt 0.260135 0.930034
vt 0.085088 0.947202
vt 0.115831 0.947202
vt 0.290893 0.922822
vt 0.260150 0.922822
vt 0.085088 0.954414
vt 0.115831 0.954414
vt 0.656303 0.943043
vt 0.656252 0.950229
vt 0.625511 0.950229
vt 0.625562 0.943043
vt 0.402133 0.926951
vt 0.402183 0.919714
vt 0.432924 0.919714
vt 0.432874 0.926951
vt 0.656321 0.934545
vt 0.625580 0.934545
vt 0.402134 0.943965
vt 0.402116 0.935467
vt 0.432857 0.935467
vt 0.432875 0.943965
vt 0.656304 0.926029
vt 0.625563 0.926029
vt 0.402185 0.951151
vt 0.432926 0.951151
vt 0.656254 0.918792
vt 0.625513 0.918792
vt 0.290893 0.954259
vt 0.260150 0.954259
vt 0.515539 0.235535
vt 0.522522 0.235535
vt 0.523367 0.239781
vt 0.514694 0.239781
vt 0.528974 0.232862
vt 0.531379 0.236461
vt 0.533912 0.227923
vt 0.537511 0.230328
vt 0.536584 0.221470
vt 0.540830 0.222315
vt 0.536584 0.214486
vt 0.540830 0.213641
vt 0.533912 0.208033
vt 0.537511 0.205628
vt 0.528974 0.203095
vt 0.531379 0.199495
vt 0.522522 0.200423
vt 0.523366 0.196177
vt 0.515539 0.200423
vt 0.514694 0.196177
vt 0.509087 0.203096
vt 0.506682 0.199497
vt 0.504149 0.208035
vt 0.500550 0.205630
vt 0.501476 0.214488
vt 0.497231 0.213643
vt 0.501477 0.221472
vt 0.497231 0.222317
vt 0.504149 0.227924
vt 0.500550 0.230330
vt 0.509087 0.232863
vt 0.506682 0.236463
vt 0.780458 0.391413
vt 0.786061 0.391413
vt 0.784811 0.760992
vt 0.780458 0.760992
vt 0.869354 0.882071
vt 0.875182 0.882030
vt 0.875639 0.925410
vt 0.870203 0.925448
vt 0.546898 0.882765
vt 0.552706 0.882753
vt 0.551854 0.926120
vt 0.546438 0.926132
vt 0.749743 0.892193
vt 0.755551 0.892193
vt 0.754699 0.935564
vt 0.749283 0.935564
vt 0.540048 0.882770
vt 0.540048 0.926136
vt 0.742893 0.892193
vt 0.742893 0.935564
vt 0.533198 0.882765
vt 0.533659 0.926132
vt 0.736043 0.892193
vt 0.736504 0.935564
vt 0.527391 0.882753
vt 0.528242 0.926120
vt 0.730236 0.892193
vt 0.731087 0.935564
vt 0.888882 0.882030
vt 0.894669 0.882071
vt 0.893815 0.925448
vt 0.888418 0.925410
vt 0.507009 0.882767
vt 0.512836 0.882808
vt 0.511987 0.926185
vt 0.506552 0.926147
vt 0.882039 0.882016
vt 0.882035 0.925397
vt 0.500152 0.882753
vt 0.500156 0.926133
vt 0.902160 0.758976
vt 0.907872 0.758976
vt 0.908273 0.760992
vt 0.901759 0.760992
vt 0.913149 0.756790
vt 0.914291 0.758499
vt 0.917188 0.752750
vt 0.918897 0.753892
vt 0.919374 0.747472
vt 0.921390 0.747873
vt 0.919374 0.741760
vt 0.921390 0.741359
vt 0.917188 0.736482
vt 0.918898 0.735340
vt 0.913150 0.732443
vt 0.914292 0.730734
vt 0.907873 0.730257
vt 0.908274 0.728241
vt 0.902161 0.730257
vt 0.901760 0.728241
vt 0.896884 0.732443
vt 0.895742 0.730734
vt 0.892845 0.736483
vt 0.891136 0.735341
vt 0.890659 0.741760
vt 0.888643 0.741359
vt 0.890659 0.747473
vt 0.888643 0.747874
vt 0.892845 0.752751
vt 0.891136 0.753893
vt 0.896883 0.756790
vt 0.895741 0.758499
vt 0.492892 0.963823
vt 0.496992 0.965521
vt 0.496501 0.967990
vt 0.491493 0.965916
vt 0.774855 0.007287
vt 0.780458 0.007291
vt 0.780457 0.376858
vt 0.776104 0.376855
vt 0.774855 0.391413
vt 0.776105 0.760992
vt 0.770105 0.007277
vt 0.772414 0.376847
vt 0.770105 0.391413
vt 0.772415 0.760992
vt 0.750818 0.007289
vt 0.755551 0.007322
vt 0.753250 0.376906
vt 0.749573 0.376880
vt 0.750785 0.391472
vt 0.755551 0.391505
vt 0.753233 0.761088
vt 0.749530 0.761063
vt 0.745221 0.007277
vt 0.745224 0.376871
vt 0.739579 0.391472
vt 0.745176 0.391460
vt 0.745173 0.761053
vt 0.740824 0.761063
vt 0.739613 0.007289
vt 0.740867 0.376880
vt 0.734846 0.391505
vt 0.737147 0.761088
vt 0.734846 0.007322
vt 0.737164 0.376906
vt 0.786061 0.007287
vt 0.790810 0.007277
vt 0.788501 0.376847
vt 0.784810 0.376855
vt 0.790810 0.391413
vt 0.788501 0.760992
vt 0.940865 0.123844
vt 0.945356 0.123876
vt 0.945356 0.169000
vt 0.940865 0.168968
vt 0.505531 0.944907
vt 0.501430 0.943209
vt 0.501921 0.940740
vt 0.506929 0.942814
vt 0.489753 0.960685
vt 0.487660 0.962083
vt 0.508669 0.948045
vt 0.510762 0.946647
vt 0.488055 0.956584
vt 0.485586 0.957075
vt 0.510368 0.952146
vt 0.512836 0.951655
vt 0.488055 0.952146
vt 0.485586 0.951655
vt 0.510368 0.956584
vt 0.512836 0.957075
vt 0.489754 0.948045
vt 0.487660 0.946647
vt 0.508669 0.960685
vt 0.510762 0.962083
vt 0.492892 0.944907
vt 0.491493 0.942814
vt 0.505531 0.963823
vt 0.506929 0.965916
vt 0.496992 0.943209
vt 0.496501 0.940740
vt 0.501431 0.965521
vt 0.501922 0.967990
vt 0.632792 0.670331
vt 0.630125 0.670337
vt 0.630125 0.007285
vt 0.632792 0.007279
vt 0.605641 0.908222
vt 0.610164 0.908254
vt 0.610164 0.953378
vt 0.605641 0.953347
vt 0.935554 0.123833
vt 0.935554 0.168957
vt 0.595009 0.908223
vt 0.600320 0.908211
vt 0.600320 0.953336
vt 0.595009 0.953347
vt 0.930232 0.123843
vt 0.930232 0.168968
vt 0.590518 0.908255
vt 0.590518 0.953379
vt 0.925709 0.123875
vt 0.925709 0.168999
vt 0.374762 0.928538
vt 0.379269 0.928528
vt 0.379269 0.973655
vt 0.374762 0.973665
vt 0.213053 0.975606
vt 0.208546 0.975606
vt 0.208546 0.930479
vt 0.213053 0.930479
vt 0.369445 0.928542
vt 0.369445 0.973668
vt 0.218369 0.975606
vt 0.218369 0.930479
vt 0.364129 0.928538
vt 0.364129 0.973665
vt 0.223685 0.975606
vt 0.223685 0.930479
vt 0.359622 0.928528
vt 0.359622 0.973655
vt 0.228192 0.975606
vt 0.228192 0.930479
vt 0.954951 0.335212
vt 0.958159 0.335212
vt 0.959265 0.340775
vt 0.953845 0.340775
vt 0.961122 0.333985
vt 0.964272 0.338701
vt 0.963390 0.331717
vt 0.968105 0.334868
vt 0.964617 0.328753
vt 0.970179 0.329860
vt 0.964617 0.325546
vt 0.970179 0.324439
vt 0.963390 0.322582
vt 0.968105 0.319431
vt 0.961122 0.320314
vt 0.964273 0.315598
vt 0.958159 0.319087
vt 0.959265 0.313524
vt 0.954952 0.319087
vt 0.953846 0.313524
vt 0.951989 0.320315
vt 0.948838 0.315599
vt 0.949721 0.322583
vt 0.945006 0.319432
vt 0.948494 0.325546
vt 0.942932 0.324440
vt 0.948494 0.328754
vt 0.942932 0.329860
vt 0.949721 0.331717
vt 0.945006 0.334868
vt 0.951989 0.333985
vt 0.948838 0.338701
vt 0.905762 0.221034
vt 0.905820 0.447242
vt 0.895267 0.447245
vt 0.895209 0.221037
vt 0.590518 0.770603
vt 0.601070 0.770603
vt 0.334457 0.704886
vt 0.334515 0.478678
vt 0.345068 0.478682
vt 0.345010 0.704890
vt 0.835560 0.264468
vt 0.809627 0.479811
vt 0.805365 0.488704
vt 0.830741 0.263887
vt 0.480990 0.020782
vt 0.482676 0.247019
vt 0.809627 0.033409
vt 0.835560 0.248752
vt 0.830741 0.249333
vt 0.805365 0.024516
vt 0.601069 0.893657
vt 0.590518 0.893657
vt 0.359622 0.247019
vt 0.361309 0.020782
vt 0.359626 0.511682
vt 0.370179 0.511682
vt 0.370179 0.607915
vt 0.359626 0.607915
vt 0.334457 0.465860
vt 0.345010 0.465864
vt 0.373032 0.007840
vt 0.835560 0.505943
vt 0.815457 0.502955
vt 0.835560 0.007277
vt 0.815457 0.010265
vt 0.905820 0.208216
vt 0.895267 0.208219
vt 0.042378 0.915211
vt 0.070318 0.915211
vt 0.070317 0.947366
vt 0.042378 0.947366
vt 0.469266 0.007840
vt 0.115831 0.968968
vt 0.111543 0.982570
vt 0.105469 0.982570
vt 0.105468 0.968968
vt 0.114548 0.643800
vt 0.114548 0.594590
vt 0.120622 0.594590
vt 0.120622 0.643800
vt 0.258736 0.968813
vt 0.263025 0.982415
vt 0.252661 0.982415
vt 0.252661 0.968813
vt 0.615512 0.196177
vt 0.615512 0.245387
vt 0.605148 0.245388
vt 0.605148 0.196177
vt 0.959910 0.123833
vt 0.973512 0.123833
vt 0.973512 0.173046
vt 0.959910 0.173046
vt 0.966252 0.358706
vt 0.979853 0.358706
vt 0.979853 0.407919
vt 0.966252 0.407919
vt 0.908130 0.075772
vt 0.908130 0.109278
vt 0.894817 0.109278
vt 0.894817 0.075772
vt 0.745187 0.844134
vt 0.745187 0.794923
vt 0.755551 0.775643
vt 0.755551 0.844134
vt 0.670876 0.967678
vt 0.684189 0.967678
vt 0.684189 0.986960
vt 0.670876 0.986960
vt 0.860479 0.412903
vt 0.860479 0.462114
vt 0.850115 0.462114
vt 0.850115 0.393623
vt 0.973103 0.050933
vt 0.986416 0.050933
vt 0.986416 0.088210
vt 0.973103 0.088210
vt 0.894817 0.007277
vt 0.908130 0.007277
vt 0.875558 0.419084
vt 0.875558 0.456359
vt 0.277579 0.968817
vt 0.290893 0.968813
vt 0.290893 0.983930
vt 0.277579 0.983934
vt 0.730108 0.838379
vt 0.730108 0.801104
vt 0.596851 0.967934
vt 0.610164 0.967936
vt 0.610164 0.983109
vt 0.596851 0.983106
vt 0.711627 0.866854
vt 0.711627 0.853541
vt 0.714883 0.853541
vt 0.714883 0.866854
vt 0.755551 0.877639
vt 0.752294 0.877638
vt 0.853372 0.495618
vt 0.850115 0.495619
vt 0.974227 0.520375
vt 0.974227 0.486869
vt 0.987540 0.486869
vt 0.987540 0.520375
vt 0.090914 0.968968
vt 0.086625 0.982562
vt 0.080550 0.982562
vt 0.080550 0.968968
vt 0.921234 0.908425
vt 0.921234 0.957635
vt 0.915159 0.957635
vt 0.915159 0.908426
vt 0.985550 0.850278
vt 0.981261 0.836684
vt 0.991624 0.836684
vt 0.991624 0.850278
vt 0.183628 0.979689
vt 0.183628 0.930479
vt 0.193991 0.930480
vt 0.193991 0.979690
vt 0.979845 0.471686
vt 0.966252 0.471686
vt 0.966252 0.422474
vt 0.979845 0.422474
vt 0.979846 0.257428
vt 0.966253 0.257428
vt 0.966253 0.208216
vt 0.979846 0.208216
vt 0.869354 0.952478
vt 0.898454 0.952478
vt 0.898459 0.971339
vt 0.869360 0.971339
vt 0.699976 0.953123
vt 0.670876 0.953123
vt 0.670876 0.935958
vt 0.699976 0.935958
vt 0.670876 0.918792
vt 0.699976 0.918792
vt 0.965092 0.760992
vt 0.935992 0.760992
vt 0.935998 0.742130
vt 0.965097 0.742130
vt 0.935944 0.729655
vt 0.965044 0.729655
vt 0.730236 0.979219
vt 0.730236 0.950118
vt 0.742684 0.950118
vt 0.742684 0.979219
vt 0.991340 0.710501
vt 0.981957 0.710488
vt 0.981957 0.681388
vt 0.991340 0.681400
vt 0.755133 0.950118
vt 0.755133 0.979219
vt 0.869408 0.940002
vt 0.898507 0.940002
vt 0.981936 0.648888
vt 0.972573 0.648847
vt 0.972573 0.619747
vt 0.981936 0.619789
vt 0.582372 0.223164
vt 0.586259 0.213781
vt 0.590593 0.213781
vt 0.590154 0.232645
vt 0.074088 0.707129
vt 0.077975 0.716512
vt 0.070193 0.725991
vt 0.069754 0.707129
vt 0.572989 0.227051
vt 0.572989 0.232645
vt 0.087358 0.720398
vt 0.087358 0.725991
vt 0.563605 0.223164
vt 0.555823 0.232645
vt 0.096742 0.716511
vt 0.104524 0.725991
vt 0.559718 0.213781
vt 0.555384 0.213781
vt 0.100629 0.707129
vt 0.104963 0.707129
vt 0.563605 0.204398
vt 0.560540 0.201333
vt 0.096742 0.697747
vt 0.099807 0.694682
vt 0.572989 0.200511
vt 0.572989 0.196177
vt 0.087358 0.693861
vt 0.087358 0.689527
vt 0.582372 0.204398
vt 0.585437 0.201333
vt 0.077975 0.697747
vt 0.074910 0.694683
vt 0.972573 0.710501
vt 0.972573 0.681400
vt 0.168775 0.990312
vt 0.159412 0.990353
vt 0.159412 0.961254
vt 0.168775 0.961212
vt 0.150008 0.990313
vt 0.150008 0.961213
vt 0.973103 0.007277
vt 0.982487 0.007277
vt 0.982487 0.036378
vt 0.973103 0.036378
vt 0.991870 0.007277
vt 0.991870 0.036378
vt 0.991340 0.648848
vt 0.991340 0.619748
vt 0.708408 0.983803
vt 0.705201 0.983803
vt 0.702238 0.982576
vt 0.699970 0.980307
vt 0.698743 0.977344
vt 0.698743 0.974136
vt 0.699971 0.971173
vt 0.702239 0.968905
vt 0.705202 0.967678
vt 0.708409 0.967678
vt 0.711372 0.968905
vt 0.713640 0.971173
vt 0.714867 0.974137
vt 0.714867 0.977344
vt 0.713639 0.980308
vt 0.711371 0.982576
vt 0.662118 0.670333
vt 0.658972 0.670333
vt 0.658972 0.007277
vt 0.662118 0.007277
vt 0.635938 0.670329
vt 0.635938 0.007277
vt 0.665264 0.670333
vt 0.665264 0.007277
vt 0.639084 0.670331
vt 0.639084 0.007279
vt 0.667931 0.670333
vt 0.667931 0.007277
vt 0.641751 0.670337
vt 0.641751 0.007285
vt 0.685162 0.670315
vt 0.682485 0.670297
vt 0.682485 0.007278
vt 0.685162 0.007296
vt 0.711323 0.670315
vt 0.708666 0.670296
vt 0.708666 0.007277
vt 0.711323 0.007296
vt 0.688311 0.670322
vt 0.688311 0.007303
vt 0.717615 0.670315
vt 0.714466 0.670322
vt 0.714466 0.007303
vt 0.717615 0.007296
vt 0.691454 0.670315
vt 0.691454 0.007296
vt 0.720292 0.670297
vt 0.720292 0.007278
vt 0.694111 0.670296
vt 0.694111 0.007277
vt 0.656305 0.670333
vt 0.656305 0.007277
vt 0.451557 0.772081
vt 0.453975 0.772081
vt 0.453975 0.775844
vt 0.451557 0.775844
vt 0.770105 0.950414
vt 0.774879 0.950414
vt 0.774879 0.978757
vt 0.770105 0.978757
vt 0.984429 0.741533
vt 0.979655 0.741533
vt 0.979652 0.729656
vt 0.984426 0.729655
vt 0.984426 0.752447
vt 0.979652 0.752448
vt 0.130385 0.975289
vt 0.130385 0.946639
vt 0.135160 0.946639
vt 0.135160 0.975289
vt 0.398529 0.977069
vt 0.398526 0.965706
vt 0.403300 0.965706
vt 0.403303 0.977069
vt 0.398526 0.986582
vt 0.403300 0.986581
vt 0.010118 0.950799
vt 0.012202 0.950621
vt 0.027824 0.974653
vt 0.025529 0.974608
vt 0.026839 0.934825
vt 0.027824 0.936555
vt 0.016535 0.940270
vt 0.015138 0.938713
vt 0.336439 0.724219
vt 0.334457 0.724219
vt 0.334457 0.719444
vt 0.336439 0.719444
vt 0.529686 0.980474
vt 0.527391 0.980519
vt 0.543013 0.956487
vt 0.545096 0.956665
vt 0.069754 0.740546
vt 0.071602 0.740545
vt 0.071602 0.745319
vt 0.069754 0.745320
vt 0.538679 0.946136
vt 0.540076 0.944579
vt 0.527391 0.942421
vt 0.528375 0.940690
vt 0.989508 0.317833
vt 0.984734 0.317833
vt 0.984735 0.313525
vt 0.989509 0.313524
vt 0.917462 0.977373
vt 0.919967 0.979408
vt 0.915583 0.987000
vt 0.914685 0.985918
vt 0.932961 0.599301
vt 0.930830 0.601725
vt 0.928754 0.597045
vt 0.934836 0.593728
vt 0.934836 0.603976
vt 0.934131 0.605193
vt 0.914685 0.972190
vt 0.921234 0.974447
vt 0.989509 0.326802
vt 0.984734 0.322866
vt 0.609039 0.748195
vt 0.609039 0.753037
vt 0.607928 0.752849
vt 0.607928 0.748007
vt 0.115848 0.663474
vt 0.120622 0.663475
vt 0.120622 0.667957
vt 0.115848 0.671876
vt 0.115848 0.658355
vt 0.120622 0.658355
vt 0.638652 0.964783
vt 0.638652 0.992723
vt 0.625511 0.992723
vt 0.625511 0.964784
vt 0.472292 0.758940
vt 0.472292 0.786879
vt 0.468529 0.786879
vt 0.468529 0.758940
vt 0.472292 0.829373
vt 0.469874 0.829373
vt 0.469874 0.801434
vt 0.472292 0.801434
vt 0.091164 0.761976
vt 0.088746 0.761976
vt 0.088746 0.758213
vt 0.091164 0.758213
vt 0.814694 0.950414
vt 0.817112 0.950414
vt 0.817112 0.978353
vt 0.814694 0.978353
vt 0.183097 0.761976
vt 0.180814 0.762196
vt 0.180804 0.761988
vt 0.361917 0.775856
vt 0.361907 0.776064
vt 0.359623 0.775844
vt 0.180804 0.758225
vt 0.183098 0.758213
vt 0.361916 0.772093
vt 0.359623 0.772081
vt 0.359622 0.758940
vt 0.361915 0.758952
vt 0.180805 0.745084
vt 0.183099 0.745072
vt 0.966253 0.298970
vt 0.966253 0.275569
vt 0.979392 0.275569
vt 0.979392 0.298970
vt 0.871624 0.775546
vt 0.895024 0.775546
vt 0.897294 0.777816
vt 0.897294 0.867461
vt 0.869354 0.867461
vt 0.869354 0.777816
vt 0.091165 0.745072
vt 0.983155 0.275569
vt 0.983155 0.298970
vt 0.451556 0.758940
vt 0.387561 0.869771
vt 0.387561 0.877475
vt 0.383862 0.873792
vt 0.363321 0.873792
vt 0.359622 0.877475
vt 0.359622 0.869771
vt 0.130289 0.838024
vt 0.127450 0.840460
vt 0.126212 0.837165
vt 0.416509 0.851033
vt 0.415271 0.854328
vt 0.412432 0.851892
vt 0.135212 0.775900
vt 0.139291 0.775840
vt 0.146827 0.786206
vt 0.142568 0.786005
vt 0.407508 0.789768
vt 0.403429 0.789708
vt 0.399800 0.779529
vt 0.403860 0.779548
vt 0.127686 0.825680
vt 0.123653 0.825042
vt 0.415035 0.839548
vt 0.419068 0.838910
vt 0.395894 0.800074
vt 0.400153 0.799873
vt 0.138861 0.765680
vt 0.142921 0.765661
vt 0.359622 0.911715
vt 0.387561 0.911715
vt 0.385292 0.913974
vt 0.361892 0.913974
vt 0.027819 0.848120
vt 0.027819 0.858238
vt 0.007277 0.858241
vt 0.007278 0.848123
vt 0.027824 0.868727
vt 0.027819 0.907882
vt 0.007277 0.907885
vt 0.007282 0.868729
vt 0.042378 0.948393
vt 0.070317 0.948393
vt 0.066619 0.951185
vt 0.046077 0.951185
vt 0.027821 0.920268
vt 0.007280 0.920270
vt 0.792163 0.950414
vt 0.802280 0.950414
vt 0.797380 0.955422
vt 0.797380 0.973345
vt 0.802280 0.978353
vt 0.792163 0.978353
vt 0.452178 0.843232
vt 0.449229 0.847267
vt 0.447360 0.844318
vt 0.095361 0.830450
vt 0.093492 0.833399
vt 0.090543 0.829364
vt 0.429179 0.789987
vt 0.434352 0.790013
vt 0.437293 0.797903
vt 0.432225 0.798197
vt 0.113542 0.776119
vt 0.108368 0.776145
vt 0.108518 0.765650
vt 0.113682 0.765677
vt 0.093469 0.820042
vt 0.098362 0.820882
vt 0.449252 0.833910
vt 0.444358 0.834750
vt 0.105428 0.784036
vt 0.110496 0.784329
vt 0.429039 0.779545
vt 0.434203 0.779518
vt 0.906378 0.619747
vt 0.906378 0.630244
vt 0.888454 0.630244
vt 0.888454 0.619747
vt 0.439152 0.778497
vt 0.396156 0.779210
vt 0.146565 0.765342
vt 0.103568 0.764629
vt 0.906376 0.638152
vt 0.906368 0.674232
vt 0.888444 0.674232
vt 0.888452 0.638152
vt 0.448432 0.848332
vt 0.416301 0.855217
vt 0.911376 0.687562
vt 0.911377 0.688623
vt 0.883437 0.688623
vt 0.883437 0.687562
vt 0.888443 0.683572
vt 0.906366 0.683572
vt 0.126420 0.841349
vt 0.094289 0.834464
vt 0.860517 0.708416
vt 0.860517 0.760932
vt 0.847004 0.760992
vt 0.847004 0.708476
vt 0.069463 0.848120
vt 0.069463 0.900639
vt 0.055921 0.900657
vt 0.055921 0.848138
vt 0.042378 0.900639
vt 0.042378 0.848120
vt 0.832450 0.708476
vt 0.832450 0.760992
vt 0.818937 0.760932
vt 0.818937 0.708416
vt 0.805365 0.760990
vt 0.805365 0.708474
vt 0.088746 0.908422
vt 0.088746 0.855904
vt 0.102288 0.855904
vt 0.102288 0.908422
vt 0.285149 0.908266
vt 0.270493 0.908267
vt 0.260129 0.897903
vt 0.260129 0.883245
vt 0.270493 0.872880
vt 0.285150 0.872878
vt 0.295513 0.883242
vt 0.295513 0.897900
vt 0.115831 0.855904
vt 0.115831 0.908422
vt 0.874089 0.708474
vt 0.874089 0.760990
vt 0.427139 0.905160
vt 0.412481 0.905160
vt 0.402116 0.894795
vt 0.402116 0.880136
vt 0.412481 0.869772
vt 0.427139 0.869772
vt 0.437504 0.880137
vt 0.437504 0.894795
vt 0.497246 0.100955
vt 0.497246 0.069324
vt 0.615570 0.069333
vt 0.615570 0.100964
vt 0.086200 0.593390
vt 0.088170 0.561607
vt 0.099901 0.563641
vt 0.094521 0.594684
vt 0.957940 0.880856
vt 0.965537 0.880855
vt 0.965537 0.964669
vt 0.957940 0.964669
vt 0.855495 0.113372
vt 0.850115 0.082330
vt 0.861846 0.080296
vt 0.863816 0.112079
vt 0.914200 0.605193
vt 0.904605 0.605193
vt 0.904605 0.486869
vt 0.914200 0.486869
vt 0.868300 0.300589
vt 0.874312 0.343165
vt 0.861607 0.344959
vt 0.855596 0.302383
vt 0.921234 0.893871
vt 0.911848 0.893871
vt 0.911848 0.775546
vt 0.921234 0.775546
vt 0.615565 0.043647
vt 0.497241 0.043638
vt 0.497231 0.007277
vt 0.615555 0.007286
vt 0.867727 0.053143
vt 0.857064 0.043426
vt 0.869581 0.007277
vt 0.880262 0.013949
vt 0.092952 0.524737
vt 0.082289 0.534454
vt 0.069754 0.495261
vt 0.080435 0.488589
vt 0.206246 0.767582
vt 0.197653 0.745072
vt 0.209966 0.747582
vt 0.219256 0.768743
vt 0.862838 0.155739
vt 0.871969 0.150608
vt 0.880654 0.208216
vt 0.872061 0.230726
vt 0.859051 0.231887
vt 0.868342 0.210725
vt 0.078047 0.631920
vt 0.087178 0.637051
vt 0.497242 0.140320
vt 0.615566 0.140329
vt 0.497238 0.181613
vt 0.615562 0.181622
vt 0.069754 0.672383
vt 0.079039 0.674972
vt 0.310068 0.963628
vt 0.310068 0.872879
vt 0.317665 0.872878
vt 0.317665 0.963627
vt 0.870977 0.193661
vt 0.880262 0.191072
vt 0.501837 0.407211
vt 0.501836 0.442576
vt 0.487536 0.445936
vt 0.487537 0.407211
vt 0.591561 0.442576
vt 0.605860 0.445936
vt 0.591562 0.407211
vt 0.605862 0.407211
vt 0.591550 0.274077
vt 0.501825 0.274077
vt 0.487522 0.261573
vt 0.605846 0.261573
vt 0.501831 0.295354
vt 0.487531 0.295354
vt 0.591563 0.332716
vt 0.591556 0.295354
vt 0.605856 0.295354
vt 0.605862 0.332716
vt 0.501838 0.332716
vt 0.487538 0.332716
vt 0.501837 0.364218
vt 0.487538 0.364218
vt 0.591562 0.364218
vt 0.605862 0.364218
vt 0.487530 0.549873
vt 0.487532 0.510669
vt 0.577257 0.510673
vt 0.577255 0.549878
vt 0.577252 0.480347
vt 0.487527 0.480343
vt 0.487522 0.460490
vt 0.577247 0.460495
vt 0.487527 0.592867
vt 0.577253 0.592871
vt 0.959673 0.577618
vt 0.952075 0.577618
vt 0.952075 0.486869
vt 0.959673 0.486869
vt 0.210007 0.837445
vt 0.214411 0.806249
vt 0.228193 0.800415
vt 0.222711 0.839239
vt 0.863896 0.269393
vt 0.850115 0.263559
vt 0.574857 0.882753
vt 0.574857 0.966567
vt 0.567260 0.966567
vt 0.567260 0.882753
vt 0.922684 0.097002
vt 0.922684 0.007277
vt 0.935228 0.007277
vt 0.935228 0.097002
vt 0.203996 0.880021
vt 0.216700 0.881816
vt 0.577247 0.628148
vt 0.487522 0.628144
vt 0.487526 0.612691
vt 0.577251 0.612696
vt 0.197653 0.914869
vt 0.213928 0.901448
vt 0.205127 0.915925
vt 0.839216 0.874797
vt 0.839216 0.964522
vt 0.831667 0.964522
vt 0.831667 0.874797
vt 0.880654 0.378013
vt 0.873180 0.379068
vt 0.864379 0.364592
vt 0.958019 0.619747
vt 0.958019 0.703565
vt 0.949252 0.710501
vt 0.949252 0.619747
vt 0.168775 0.862839
vt 0.168775 0.946658
vt 0.160008 0.946658
vt 0.160008 0.855904
vt 0.949782 0.007277
vt 0.958549 0.007277
vt 0.958549 0.098031
vt 0.949782 0.091095
vt 0.951697 0.442525
vt 0.942931 0.449461
vt 0.942931 0.358706
vt 0.951697 0.358706
vt 0.959411 0.775547
vt 0.966707 0.775546
vt 0.966707 0.859360
vt 0.959109 0.859361
vt 0.615525 0.733452
vt 0.607928 0.733452
vt 0.607928 0.642703
vt 0.615525 0.642703
vt 0.934698 0.619747
vt 0.934698 0.703566
vt 0.925931 0.710502
vt 0.925931 0.619748
vt 0.951698 0.215151
vt 0.951698 0.298970
vt 0.942932 0.298970
vt 0.942932 0.208216
vt 0.943084 0.880855
vt 0.943386 0.964669
vt 0.935788 0.964669
vt 0.935788 0.880855
vt 0.333993 0.963628
vt 0.333993 0.872879
vt 0.341590 0.872878
vt 0.341590 0.963627
vt 0.928754 0.486869
vt 0.937521 0.486870
vt 0.937521 0.577623
vt 0.928754 0.570688
vt 0.935788 0.782482
vt 0.944555 0.775546
vt 0.944555 0.866300
vt 0.935788 0.866300
vt 0.118110 0.580035
vt 0.118110 0.488589
vt 0.120622 0.488589
vt 0.120622 0.580035
vt 0.714139 0.812791
vt 0.714139 0.838986
vt 0.711626 0.838986
vt 0.711626 0.812791
vt 0.245259 0.745072
vt 0.245259 0.836519
vt 0.242747 0.836519
vt 0.242747 0.745072
vt 0.242747 0.877268
vt 0.242747 0.851073
vt 0.245259 0.851073
vt 0.245259 0.877268
vt 0.697072 0.812791
vt 0.697072 0.904238
vt 0.670876 0.904238
vt 0.670876 0.812791
vt 0.656321 0.812791
vt 0.656321 0.904238
vt 0.630125 0.904238
vt 0.630125 0.812791
s 1
usemtl Material
f 45/1/1 48/2/2 27/3/3 28/4/3
f 36/5/4 38/6/4 7/7/4 9/8/4
f 49/9/5 52/10/5 20/11/6 21/12/6
f 17/13/7 23/14/7 22/15/7 24/16/7
f 56/17/8 49/18/8 21/19/8 32/20/8
f 54/21/4 47/22/4 26/23/4 30/24/4
f 52/25/4 54/21/4 30/24/4 20/26/4
f 56/27/9 32/28/9 16/29/9 60/30/9
f 33/31/9 36/32/9 9/33/9 10/34/9
f 4/35/8 17/36/8 24/37/8 2/38/8
f 326/39/8 60/40/8 16/41/8 14/42/8
f 8/43/10 10/44/10 31/45/10 18/46/11
f 7/47/10 8/43/10 18/46/11 19/48/11
f 6/49/12 5/50/12 21/12/6 20/11/6
f 5/50/12 11/51/12 32/52/12 21/12/6
f 9/53/10 7/47/10 19/48/11 29/54/10
f 12/55/12 6/49/12 20/11/6 30/56/12
f 11/51/12 12/55/12 30/56/12 32/52/12
f 10/44/10 9/53/10 29/54/10 31/45/10
f 38/57/7 40/58/7 8/59/7 7/60/7
f 40/61/8 33/62/8 10/63/8 8/64/8
f 1/65/12 2/66/12 26/67/12 25/68/12
f 4/69/10 3/70/10 28/71/10 27/72/10
f 3/70/10 23/73/10 29/54/10 28/71/10
f 2/66/12 24/74/12 30/56/12 26/67/12
f 17/75/10 4/69/10 27/72/10 31/45/10
f 22/76/12 1/65/12 25/68/12 32/52/12
f 24/74/12 22/76/12 32/52/12 30/56/12
f 23/73/10 17/75/10 31/45/10 29/54/10
f 23/77/4 3/78/4 1/79/4 22/80/4
f 3/81/9 4/82/9 2/83/9 1/84/9
f 6/85/8 12/86/8 34/87/8 39/88/8
f 39/88/8 34/87/8 33/62/8 40/61/8
f 5/89/7 6/90/7 39/91/7 37/92/7
f 37/92/7 39/91/7 40/58/7 38/57/7
f 12/93/9 11/94/9 35/95/9 34/96/9
f 35/97/4 36/5/4 44/98/4 43/99/4
f 11/100/4 5/101/4 37/102/4 35/97/4
f 35/97/4 37/102/4 38/6/4 36/5/4
f 42/103/9 43/104/9 44/105/9 41/106/9
f 33/62/8 34/87/8 42/107/8 41/108/8
f 34/109/10 35/110/10 43/111/10 42/112/10
f 36/113/12 33/114/12 41/115/12 44/116/12
f 327/117/13 45/1/1 57/118/14 326/119/15
f 13/120/8 15/121/8 59/122/8 57/123/8
f 57/123/8 59/122/8 60/40/8 326/39/8
f 29/124/9 55/125/9 59/126/9 15/127/9
f 55/125/9 56/27/9 60/30/9 59/126/9
f 18/128/4 31/129/4 53/130/4 51/131/4
f 51/131/4 53/130/4 54/21/4 52/25/4
f 31/129/4 27/132/4 48/133/4 53/130/4
f 53/130/4 48/133/4 47/22/4 54/21/4
f 29/134/8 19/135/8 50/136/8 55/137/8
f 55/137/8 50/136/8 49/18/8 56/17/8
f 19/48/11 18/46/11 51/138/16 50/139/16
f 50/140/9 51/141/9 52/142/9 49/143/9
f 25/144/17 26/145/17 47/146/18 327/117/13
f 327/117/13 47/146/18 48/2/2 45/1/1
f 100/147/19 101/148/20 117/149/20 116/150/19
f 83/151/21 85/152/22 104/153/23 103/154/24
f 63/155/25 64/156/10 66/157/26 65/158/27
f 97/159/28 98/160/29 114/161/29 113/162/28
f 77/163/30 79/164/31 101/165/32 100/166/33
f 65/158/27 66/157/26 68/167/34 67/168/35
f 103/169/36 104/170/37 120/171/37 119/172/36
f 63/155/25 65/158/27 61/173/38 62/174/39
f 67/175/35 68/176/34 70/177/40 69/178/41
f 106/179/42 107/180/43 123/181/43 122/182/42
f 71/183/44 73/184/45 98/185/46 97/186/47
f 69/178/41 70/177/40 72/187/8 71/183/44
f 62/188/48 61/189/49 109/190/49 110/191/48
f 65/158/27 67/168/35 95/192/50 61/173/38
f 71/183/44 72/187/8 74/193/51 73/184/45
f 96/194/52 97/159/28 113/162/28 112/195/52
f 91/196/53 93/197/54 108/198/55 107/199/56
f 73/184/45 74/193/51 76/200/57 75/201/58
f 99/202/59 100/147/19 116/150/19 115/203/59
f 85/152/22 87/204/60 105/205/61 104/153/23
f 75/206/58 76/207/57 78/208/62 77/163/30
f 102/209/63 103/169/36 119/172/36 118/210/63
f 79/164/31 81/211/64 102/212/65 101/165/32
f 77/163/30 78/208/62 80/213/12 79/164/31
f 105/214/66 106/179/42 122/182/42 121/215/66
f 73/184/45 75/201/58 99/216/67 98/185/46
f 79/164/31 80/213/12 82/217/68 81/211/64
f 95/218/69 96/194/52 112/195/52 111/219/69
f 67/175/35 69/178/41 96/220/70 95/221/50
f 81/211/64 82/217/68 84/222/71 83/223/21
f 98/160/29 99/202/59 115/203/59 114/161/29
f 87/204/60 89/224/72 106/225/73 105/205/61
f 83/151/21 84/226/71 86/227/74 85/152/22
f 101/148/20 102/209/63 118/210/63 117/149/20
f 81/211/64 83/223/21 103/228/24 102/212/65
f 85/152/22 86/227/74 88/229/4 87/204/60
f 104/170/37 105/214/66 121/215/66 120/171/37
f 75/206/58 77/163/30 100/166/33 99/230/67
f 87/204/60 88/229/4 90/231/75 89/224/72
f 119/232/71 120/233/74 136/234/74 135/235/71
f 69/178/41 71/183/44 97/186/47 96/220/70
f 89/224/72 90/231/75 92/236/76 91/237/53
f 88/238/7 86/239/7 152/240/7 153/241/7
f 107/180/43 108/242/77 124/243/77 123/181/43
f 91/196/53 92/244/76 94/245/78 93/197/54
f 108/242/77 62/188/48 110/191/48 124/243/77
f 89/224/72 91/237/53 107/246/56 106/225/73
f 93/197/54 94/245/78 64/156/10 63/155/25
f 93/197/54 63/155/25 62/174/39 108/198/55
f 61/189/49 95/218/69 111/219/69 109/190/49
f 126/247/7 125/248/7 127/249/7 128/250/7 129/251/7 130/252/7 131/253/7 132/254/7 133/255/7 134/256/7 135/257/7 136/258/7 137/259/7 138/260/7 139/261/7 140/262/7
f 111/263/34 112/264/40 128/265/40 127/266/34
f 118/267/68 119/268/71 135/269/71 134/270/68
f 109/271/26 111/272/34 127/273/34 125/274/26
f 117/275/12 118/267/68 134/270/68 133/276/12
f 124/277/78 110/278/10 126/279/10 140/280/78
f 110/278/10 109/271/26 125/274/26 126/279/10
f 116/281/62 117/275/12 133/276/12 132/282/62
f 123/283/76 124/277/78 140/280/78 139/284/76
f 115/285/57 116/281/62 132/282/62 131/286/57
f 122/287/75 123/288/76 139/289/76 138/290/75
f 114/291/51 115/292/57 131/293/57 130/294/51
f 121/295/4 122/287/75 138/290/75 137/296/4
f 113/297/8 114/291/51 130/294/51 129/298/8
f 120/233/74 121/295/4 137/296/4 136/234/74
f 112/264/40 113/297/8 129/298/8 128/265/40
f 148/299/79 147/300/80 179/301/80 180/302/79
f 94/303/7 92/304/7 155/305/7 156/306/7
f 68/307/7 66/308/7 142/309/7 143/310/7
f 74/311/7 72/312/7 145/313/7 146/314/7
f 80/315/7 78/316/7 148/317/7 149/318/7
f 86/239/7 84/319/7 151/320/7 152/240/7
f 92/304/7 90/321/7 154/322/7 155/305/7
f 64/323/7 94/303/7 156/306/7 141/324/7
f 66/308/7 64/323/7 141/324/7 142/309/7
f 72/312/7 70/325/7 144/326/7 145/313/7
f 78/316/7 76/327/7 147/328/7 148/317/7
f 84/319/7 82/329/7 150/330/7 151/320/7
f 90/321/7 88/238/7 153/241/7 154/322/7
f 70/325/7 68/307/7 143/310/7 144/326/7
f 76/327/7 74/311/7 146/314/7 147/328/7
f 82/329/7 80/315/7 149/318/7 150/330/7
f 168/331/74 167/332/71 215/333/71 216/334/74
f 156/335/81 155/336/82 187/337/82 188/338/81
f 149/339/83 148/299/79 180/302/79 181/340/83
f 142/341/84 141/342/85 174/343/85 173/344/84
f 141/342/85 156/335/81 188/338/81 174/343/85
f 150/345/86 149/339/83 181/340/83 182/346/86
f 143/347/87 142/341/84 173/344/84 175/348/87
f 151/349/88 150/345/86 182/346/86 183/350/88
f 144/351/89 143/352/87 175/353/87 176/354/89
f 152/355/90 151/356/88 183/357/88 184/358/90
f 145/359/91 144/351/89 176/354/89 177/360/91
f 153/361/92 152/355/90 184/358/90 185/362/92
f 146/363/93 145/359/91 177/360/91 178/364/93
f 154/365/94 153/361/92 185/362/92 186/366/94
f 147/367/80 146/363/93 178/364/93 179/368/80
f 155/369/82 154/365/94 186/366/94 187/370/82
f 157/371/9 158/372/9 173/373/9 174/374/9
f 158/372/9 159/375/9 175/376/9 173/373/9
f 159/375/9 160/377/9 176/378/9 175/376/9
f 160/377/9 161/379/9 177/380/9 176/378/9
f 161/379/9 162/381/9 178/382/9 177/380/9
f 162/381/9 163/383/9 179/384/9 178/382/9
f 163/383/9 164/385/9 180/386/9 179/384/9
f 164/385/9 165/387/9 181/388/9 180/386/9
f 165/387/9 166/389/9 182/390/9 181/388/9
f 166/389/9 167/391/9 183/392/9 182/390/9
f 167/391/9 168/393/9 184/394/9 183/392/9
f 168/393/9 169/395/9 185/396/9 184/394/9
f 169/395/9 170/397/9 186/398/9 185/396/9
f 170/397/9 171/399/9 187/400/9 186/398/9
f 171/399/9 172/401/9 188/402/9 187/400/9
f 172/401/9 157/371/9 174/374/9 188/402/9
f 191/403/95 190/404/96 237/405/96 239/406/95
f 161/407/8 160/408/40 208/409/40 209/410/8
f 169/411/4 168/331/74 216/334/74 217/412/4
f 162/413/51 161/407/8 209/410/8 210/414/51
f 170/415/75 169/411/4 217/412/4 218/416/75
f 163/417/57 162/413/51 210/414/51 211/418/57
f 171/419/76 170/415/75 218/416/75 219/420/76
f 164/421/62 163/422/57 211/423/57 212/424/62
f 172/425/78 171/426/76 219/427/76 220/428/78
f 165/429/12 164/421/62 212/424/62 213/430/12
f 158/431/26 157/432/10 206/433/10 205/434/26
f 157/432/10 172/425/78 220/428/78 206/433/10
f 166/435/68 165/429/12 213/430/12 214/436/68
f 159/437/34 158/431/26 205/434/26 207/438/34
f 167/439/71 166/435/68 214/436/68 215/440/71
f 160/408/40 159/441/34 207/442/34 208/409/40
f 189/443/9 190/444/9 205/445/9 206/446/9
f 190/444/9 191/447/9 207/448/9 205/445/9
f 191/447/9 192/449/9 208/450/9 207/448/9
f 192/449/9 193/451/9 209/452/9 208/450/9
f 193/451/9 194/453/9 210/454/9 209/452/9
f 194/453/9 195/455/9 211/456/9 210/454/9
f 195/455/9 196/457/9 212/458/9 211/456/9
f 196/457/9 197/459/9 213/460/9 212/458/9
f 197/459/9 198/461/9 214/462/9 213/460/9
f 198/461/9 199/463/9 215/464/9 214/462/9
f 199/463/9 200/465/9 216/466/9 215/464/9
f 200/465/9 201/467/9 217/468/9 216/466/9
f 201/467/9 202/469/9 218/470/9 217/468/9
f 202/469/9 203/471/9 219/472/9 218/470/9
f 203/471/9 204/473/9 220/474/9 219/472/9
f 204/473/9 189/443/9 206/446/9 220/474/9
f 233/475/97 232/476/98 264/477/98 265/478/97
f 199/479/99 198/480/100 246/481/100 247/482/99
f 192/483/101 191/484/95 239/485/95 240/486/101
f 200/487/102 199/488/99 247/489/99 248/490/102
f 193/491/103 192/483/101 240/486/101 241/492/103
f 201/493/104 200/487/102 248/490/102 249/494/104
f 194/495/105 193/491/103 241/492/103 242/496/105
f 202/497/106 201/493/104 249/494/104 250/498/106
f 195/499/107 194/495/105 242/496/105 243/500/107
f 203/501/108 202/497/106 250/498/106 251/502/108
f 196/503/109 195/504/107 243/505/107 244/506/109
f 204/507/110 203/508/108 251/509/108 252/510/110
f 197/511/111 196/503/109 244/506/109 245/512/111
f 190/404/96 189/513/112 238/514/112 237/405/96
f 189/513/112 204/507/110 252/510/110 238/514/112
f 198/480/100 197/511/111 245/512/111 246/481/100
f 221/515/9 222/516/9 237/517/9 238/518/9
f 222/516/9 223/519/9 239/520/9 237/517/9
f 223/519/9 224/521/9 240/522/9 239/520/9
f 224/521/9 225/523/9 241/524/9 240/522/9
f 225/523/9 226/525/9 242/526/9 241/524/9
f 226/525/9 227/527/9 243/528/9 242/526/9
f 227/527/9 228/529/9 244/530/9 243/528/9
f 228/529/9 229/531/9 245/532/9 244/530/9
f 229/531/9 230/533/9 246/534/9 245/532/9
f 230/533/9 231/535/9 247/536/9 246/534/9
f 231/535/9 232/537/9 248/538/9 247/536/9
f 232/537/9 233/539/9 249/540/9 248/538/9
f 233/539/9 234/541/9 250/542/9 249/540/9
f 234/541/9 235/543/9 251/544/9 250/542/9
f 235/543/9 236/545/9 252/546/9 251/544/9
f 236/545/9 221/515/9 238/518/9 252/546/9
f 255/547/7 254/548/7 270/549/7 271/550/7
f 226/551/113 225/552/114 257/553/114 258/554/113
f 234/555/115 233/475/97 265/478/97 266/556/115
f 227/557/116 226/551/113 258/554/113 259/558/116
f 235/559/117 234/555/115 266/556/115 267/560/117
f 228/561/118 227/562/116 259/563/116 260/564/118
f 236/565/119 235/566/117 267/567/117 268/568/119
f 229/569/120 228/561/118 260/564/118 261/570/120
f 222/571/121 221/572/122 253/573/122 254/574/121
f 221/572/122 236/565/119 268/568/119 253/573/122
f 230/575/123 229/569/120 261/570/120 262/576/123
f 223/577/124 222/571/121 254/574/121 255/578/124
f 231/579/125 230/575/123 262/576/123 263/580/125
f 224/581/126 223/582/124 255/583/124 256/584/126
f 232/476/98 231/585/125 263/586/125 264/477/98
f 225/552/114 224/581/126 256/584/126 257/553/114
f 276/587/62 275/588/57 307/589/57 308/590/62
f 263/591/7 262/592/7 278/593/7 279/594/7
f 256/595/7 255/547/7 271/550/7 272/596/7
f 264/597/7 263/591/7 279/594/7 280/598/7
f 257/599/7 256/595/7 272/596/7 273/600/7
f 265/601/7 264/597/7 280/598/7 281/602/7
f 258/603/7 257/599/7 273/600/7 274/604/7
f 266/605/7 265/601/7 281/602/7 282/606/7
f 259/607/7 258/603/7 274/604/7 275/608/7
f 267/609/7 266/605/7 282/606/7 283/610/7
f 260/611/7 259/607/7 275/608/7 276/612/7
f 268/613/7 267/609/7 283/610/7 284/614/7
f 261/615/7 260/611/7 276/612/7 277/616/7
f 254/548/7 253/617/7 269/618/7 270/549/7
f 253/617/7 268/613/7 284/614/7 269/618/7
f 262/592/7 261/615/7 277/616/7 278/593/7
f 296/619/40 295/620/34 407/621/34 408/622/40
f 284/623/78 283/624/76 315/625/76 316/626/78
f 277/627/12 276/587/62 308/590/62 309/628/12
f 270/629/26 269/630/10 302/631/10 301/632/26
f 269/630/10 284/623/78 316/626/78 302/631/10
f 278/633/68 277/627/12 309/628/12 310/634/68
f 271/635/34 270/629/26 301/632/26 303/636/34
f 279/637/71 278/633/68 310/634/68 311/638/71
f 272/639/40 271/640/34 303/641/34 304/642/40
f 280/643/74 279/644/71 311/645/71 312/646/74
f 273/647/8 272/639/40 304/642/40 305/648/8
f 281/649/4 280/643/74 312/646/74 313/650/4
f 274/651/51 273/647/8 305/648/8 306/652/51
f 282/653/75 281/649/4 313/650/4 314/654/75
f 275/655/57 274/651/51 306/652/51 307/656/57
f 283/657/76 282/653/75 314/654/75 315/658/76
f 285/659/9 286/660/9 301/661/9 302/662/9
f 286/660/9 287/663/9 303/664/9 301/661/9
f 287/663/9 288/665/9 304/666/9 303/664/9
f 288/665/9 289/667/9 305/668/9 304/666/9
f 289/667/9 290/669/9 306/670/9 305/668/9
f 290/669/9 291/671/9 307/672/9 306/670/9
f 291/671/9 292/673/9 308/674/9 307/672/9
f 292/673/9 293/675/9 309/676/9 308/674/9
f 293/675/9 294/677/9 310/678/9 309/676/9
f 294/677/9 295/679/9 311/680/9 310/678/9
f 295/679/9 296/681/9 312/682/9 311/680/9
f 296/681/9 297/683/9 313/684/9 312/682/9
f 297/683/9 298/685/9 314/686/9 313/684/9
f 298/685/9 299/687/9 315/688/9 314/686/9
f 299/687/9 300/689/9 316/690/9 315/688/9
f 300/689/9 285/659/9 302/662/9 316/690/9
f 320/691/127 321/692/128 317/693/128 323/694/127
f 16/29/9 32/28/9 319/695/9 324/696/9
f 319/697/129 322/698/130 318/699/130 324/700/129
f 32/701/4 25/702/4 322/703/4 319/704/4
f 15/121/8 13/120/8 323/705/8 317/706/8
f 28/707/4 29/708/4 321/709/4 320/710/4
f 29/124/9 15/127/9 317/711/9 321/712/9
f 14/42/8 16/41/8 324/713/8 318/714/8
f 327/117/13 326/119/15 325/715/131 328/716/131
f 329/717/132 332/718/132 57/118/14 45/1/1
f 322/698/130 328/719/131 325/720/131 318/699/130
f 326/39/8 14/42/8 318/714/8 325/721/8
f 25/702/4 327/722/4 328/723/4 322/703/4
f 45/724/4 28/707/4 320/710/4 329/725/4
f 329/726/132 320/691/127 323/694/127 332/727/132
f 58/728/133 46/729/133 331/730/134 330/731/134
f 13/120/8 57/123/8 332/732/8 323/705/8
f 333/733/9 335/734/9 336/735/9 334/736/9
f 335/737/12 339/738/12 340/739/12 336/740/12
f 339/741/7 337/742/7 338/743/7 340/744/7
f 337/745/10 333/746/10 334/747/10 338/748/10
f 335/749/135 333/750/135 337/751/135 339/752/135
f 340/753/8 338/754/8 334/755/8 336/756/8
f 342/757/8 354/758/8 355/759/8 344/760/8
f 350/761/12 351/762/12 348/763/12 344/764/12
f 351/765/136 352/766/136 346/767/137 348/768/137
f 352/769/10 349/770/10 342/771/10 346/772/10
f 343/773/4 341/774/4 345/775/4 347/776/4
f 348/777/8 346/778/8 342/757/8 344/760/8
f 345/779/10 341/780/10 349/770/10 352/769/10
f 347/781/138 345/782/138 352/783/136 351/784/136
f 343/785/12 347/786/12 351/762/12 350/761/12
f 341/787/139 343/788/139 350/789/139 349/790/139
f 353/791/9 356/792/9 355/793/9 354/794/9
f 344/764/12 355/795/12 356/796/12 350/761/12
f 349/770/10 353/797/10 354/798/10 342/771/10
f 350/799/140 356/800/140 353/801/140 349/802/140
f 357/803/7 359/804/7 360/805/7 358/806/7
f 359/807/10 363/808/10 364/809/10 360/810/10
f 363/811/9 361/812/9 362/813/9 364/814/9
f 361/815/12 357/816/12 358/817/12 362/818/12
f 359/819/141 357/820/141 361/821/141 363/822/141
f 364/823/8 362/824/8 358/825/8 360/826/8
f 381/827/142 384/828/142 383/829/143 382/830/143
f 382/831/8 383/832/8 386/833/8 385/834/8
f 385/834/8 386/833/8 388/835/8 387/836/8
f 387/837/144 388/838/144 390/839/145 389/840/145
f 389/840/145 390/839/145 392/841/71 391/842/71
f 391/843/71 392/844/71 394/845/4 393/846/4
f 380/847/57 378/848/8 377/849/8 379/850/57
f 393/846/4 394/845/4 396/851/76 395/852/76
f 395/853/76 396/854/76 384/828/142 381/827/142
f 366/855/12 380/856/57 379/857/57 365/858/12
f 367/859/7 365/860/7 381/861/7 382/862/7
f 366/863/9 368/864/9 383/865/9 384/866/9
f 369/867/7 367/859/7 382/862/7 385/868/7
f 368/864/9 370/869/9 386/870/9 383/865/9
f 371/871/7 369/867/7 385/868/7 387/872/7
f 370/869/9 372/873/9 388/874/9 386/870/9
f 373/875/7 371/871/7 387/872/7 389/876/7
f 372/873/9 374/877/9 390/878/9 388/874/9
f 375/879/7 373/875/7 389/876/7 391/880/7
f 374/877/9 376/881/9 392/882/9 390/878/9
f 377/883/7 375/879/7 391/880/7 393/884/7
f 376/881/9 378/885/9 394/886/9 392/882/9
f 379/887/7 377/883/7 393/884/7 395/888/7
f 378/885/9 380/889/9 396/890/9 394/886/9
f 365/860/7 379/887/7 395/888/7 381/861/7
f 380/889/9 366/863/9 384/866/9 396/890/9
f 378/848/8 376/891/34 375/892/34 377/849/8
f 376/893/34 374/894/10 373/895/10 375/896/34
f 374/894/10 372/897/76 371/898/76 373/895/10
f 372/899/76 370/900/4 369/901/4 371/902/76
f 370/900/4 368/903/71 367/904/71 369/901/4
f 368/905/71 366/855/12 365/858/12 367/906/71
f 397/907/9 398/908/9 412/909/9 411/910/9 410/911/9 409/912/9 408/913/9 407/914/9 406/915/9 405/916/9 404/917/9 403/918/9 402/919/9 401/920/9 400/921/9 399/922/9
f 289/923/4 288/924/74 400/925/74 401/926/4
f 297/927/8 296/619/40 408/622/40 409/928/8
f 290/929/75 289/923/4 401/926/4 402/930/75
f 298/931/51 297/927/8 409/928/8 410/932/51
f 291/933/76 290/929/75 402/930/75 403/934/76
f 299/935/57 298/931/51 410/932/51 411/936/57
f 292/937/78 291/938/76 403/939/76 404/940/78
f 300/941/62 299/942/57 411/943/57 412/944/62
f 293/945/10 292/937/78 404/940/78 405/946/10
f 286/947/68 285/948/12 398/949/12 397/950/68
f 285/948/12 300/941/62 412/944/62 398/949/12
f 294/951/26 293/945/10 405/946/10 406/952/26
f 287/953/71 286/947/68 397/950/68 399/954/71
f 295/955/34 294/951/26 406/952/26 407/956/34
f 288/924/74 287/957/71 399/958/71 400/925/74
f 445/959/12 449/960/12 447/961/12 416/962/12
f 418/963/146 417/964/146 419/965/146 420/966/146
f 424/967/147 423/968/147 421/969/148 422/970/148
f 420/971/149 419/972/149 423/968/147 424/967/147
f 426/973/150 428/974/150 427/975/150 425/976/150
f 432/977/151 430/978/152 429/979/152 431/980/151
f 428/981/153 432/977/151 431/980/151 427/982/153
f 420/983/12 428/984/12 426/985/12 418/986/12
f 422/987/12 430/988/12 432/989/12 424/990/12
f 424/990/12 432/989/12 428/984/12 420/983/12
f 421/991/154 429/992/154 430/993/154 422/994/154
f 417/995/10 425/996/10 427/997/10 419/998/10
f 418/999/155 426/1000/155 425/1001/155 417/1002/155
f 419/998/10 427/997/10 431/1003/10 423/1004/10
f 423/1004/10 431/1003/10 429/1005/10 421/1006/10
f 441/1007/156 442/1008/156 435/1009/157 436/1010/157
f 441/1011/12 443/1012/12 438/1013/12 434/1014/12
f 442/1015/10 444/1016/10 439/1017/10 435/1018/10
f 433/1019/10 437/1020/10 444/1016/10 442/1015/10
f 436/1021/12 440/1022/12 443/1012/12 441/1011/12
f 434/1023/158 433/1024/158 442/1008/156 441/1007/156
f 433/1025/159 434/1026/159 438/1027/159 437/1028/159
f 443/1029/160 444/1030/160 437/1031/161 438/1032/161
f 444/1030/160 443/1029/160 440/1033/162 439/1034/162
f 415/1035/7 413/1036/7 446/1037/7 445/1038/7
f 449/1039/7 450/1040/7 448/1041/7 447/1042/7
f 446/1043/4 450/1044/4 449/1045/4 445/1046/4
f 414/1047/10 448/1048/10 450/1049/10 446/1050/10
f 416/1051/163 447/1052/8 448/1053/8 414/1054/163
f 453/1055/164 455/1056/165 454/1057/166
f 458/1058/167 460/1059/168 459/1060/169
f 462/1061/170 461/1062/171 453/1055/164 454/1057/166
f 464/1063/172 463/1064/173 456/1065/173 457/1066/172
f 451/1067/170 452/1068/171 461/1062/171 462/1061/170
f 458/1058/167 459/1060/169 463/1064/173 464/1063/172
f 452/1069/171 456/1070/173 463/1071/173 461/1072/171
f 456/1073/4 452/1074/4 451/1075/4 413/1076/4 415/1077/4 457/1078/4
f 413/1079/10 451/1067/170 462/1061/170 446/1050/10
f 446/1050/10 462/1061/170 454/1057/166 414/1047/10
f 461/1072/171 463/1071/173 459/1080/169 453/1081/164
f 457/1066/172 415/1082/12 445/959/12 464/1063/172
f 464/1063/172 445/959/12 416/962/12 458/1058/167
f 465/1083/174 467/1084/175 466/1085/176
f 468/1086/177 470/1087/178 469/1088/179
f 475/1089/180 477/1090/181 476/1091/182
f 478/1092/183 480/1093/184 479/1094/185
f 486/1095/186 485/1096/187 472/1097/188 471/1098/189
f 488/1099/190 487/1100/191 468/1101/192 469/1102/193
f 482/1103/194 481/1104/195 471/1098/189 472/1097/188
f 484/1105/196 483/1106/197 478/1092/183 479/1094/185
f 475/1089/180 476/1091/182 481/1104/195 482/1103/194
f 474/1107/198 473/1108/199 483/1106/197 484/1105/196
f 465/1109/200 466/1110/201 485/1096/187 486/1095/186
f 473/1108/199 474/1107/198 487/1100/191 488/1099/190
f 460/1111/202 470/1087/178 468/1086/177 466/1085/176 467/1084/175 455/1112/202 453/1113/202 459/1114/202
f 468/1115/192 487/1116/191 485/1117/187 466/1118/201
f 474/1119/198 484/1120/196 482/1121/194 472/1122/188
f 487/1116/191 474/1119/198 472/1122/188 485/1117/187
f 480/1123/203 330/731/203 331/730/203 477/1124/203 475/1125/203 479/1126/203
f 484/1120/196 479/1127/185 475/1128/180 482/1121/194
f 489/1129/204 491/1130/205 490/1131/206
f 492/1132/207 494/1133/208 493/1134/209
f 499/1135/210 501/1136/211 500/1137/212
f 502/1138/213 504/1139/214 503/1140/215
f 510/1141/216 509/1142/217 496/1143/218 495/1144/219
f 512/1145/220 511/1146/221 492/1147/222 493/1148/223
f 506/1149/224 505/1150/225 502/1138/213 503/1140/215
f 508/1151/226 507/1152/227 495/1144/219 496/1143/218
f 498/1153/228 497/1154/229 505/1150/225 506/1149/224
f 499/1135/210 500/1137/212 507/1152/227 508/1151/226
f 489/1155/230 490/1156/231 509/1142/217 510/1141/216
f 497/1154/229 498/1153/228 511/1146/221 512/1145/220
f 492/1157/222 511/1158/221 509/1159/217 490/1160/231
f 489/1155/230 510/1141/216 488/1099/190 469/1102/193
f 414/1054/163 494/1133/208 492/1132/207 490/1131/206 491/1130/205 416/1051/163
f 416/962/12 491/1161/12 489/1155/230 469/1102/193 470/1162/12 460/1059/168 458/1058/167
f 465/1109/200 486/1095/186 512/1145/220 493/1148/223
f 455/1056/165 467/1163/10 465/1109/200 493/1148/223 494/1164/10 414/1047/10 454/1057/166
f 498/1165/228 506/1166/224 508/1167/226 496/1168/218
f 495/1144/219 507/1152/227 483/1106/197 473/1108/199
f 511/1158/221 498/1165/228 496/1168/218 509/1159/217
f 510/1141/216 495/1144/219 473/1108/199 488/1099/190
f 471/1098/189 481/1104/195 505/1150/225 497/1154/229
f 486/1095/186 471/1098/189 497/1154/229 512/1145/220
f 501/1136/211 58/1169/12 330/1170/12 480/1093/184 478/1092/183 500/1137/212
f 504/1171/232 46/1172/133 58/1173/133 501/1174/232 499/1175/232 503/1176/232
f 506/1166/224 503/1176/215 499/1175/210 508/1167/226
f 507/1152/227 500/1137/212 478/1092/183 483/1106/197
f 477/1090/181 331/1177/10 46/1178/10 504/1139/214 502/1138/213 476/1091/182
f 481/1104/195 476/1091/182 502/1138/213 505/1150/225
f 513/1179/10 514/1180/10 516/1181/34 515/1182/34
f 515/1183/34 516/1184/34 518/1185/8 517/1186/8
f 517/1186/8 518/1185/8 520/1187/57 519/1188/57
f 519/1189/57 520/1190/57 522/1191/12 521/1192/12
f 521/1192/12 522/1191/12 524/1193/71 523/1194/71
f 523/1195/71 524/1196/71 526/1197/4 525/1198/4
f 516/1199/9 514/1200/9 528/1201/9 526/1202/9 524/1203/9 522/1204/9 520/1205/9 518/1206/9
f 525/1198/4 526/1197/4 528/1207/76 527/1208/76
f 527/1209/76 528/1210/76 514/1180/10 513/1179/10
f 513/1211/7 515/1212/7 517/1213/7 519/1214/7 521/1215/7 523/1216/7 525/1217/7 527/1218/7
f 545/1219/233 530/1220/234 532/1221/234 546/1222/233
f 546/1223/10 532/1224/10 562/1225/10 563/1226/10
f 581/1227/10 582/1228/10 586/1229/10 585/1230/10
f 564/1231/12 534/1232/12 530/1233/12 545/1234/12
f 531/1235/235 554/1236/235 555/1237/235 529/1238/235
f 548/1239/12 551/1240/12 572/1241/12 570/1242/12
f 557/1243/236 538/1244/236 537/1245/236 558/1246/236
f 544/1247/237 543/1248/237 537/1249/238 538/1250/238
f 543/1251/12 560/1252/12 558/1253/12 537/1254/12
f 559/1255/10 544/1256/10 538/1257/10 557/1258/10
f 562/1225/10 532/1224/10 544/1256/10 559/1255/10
f 530/1233/12 534/1232/12 560/1252/12 543/1251/12
f 532/1221/234 530/1220/234 543/1248/237 544/1247/237
f 541/1259/10 539/1260/10 575/1261/10 567/1262/10
f 556/1263/12 564/1231/12 545/1234/12 552/1264/12
f 540/1265/12 542/1266/12 568/1267/12 576/1268/12
f 549/1269/10 546/1223/10 563/1226/10 553/1270/10
f 552/1271/239 545/1219/233 546/1222/233 549/1272/239
f 529/1273/240 552/1271/239 549/1272/239 531/1274/240
f 531/1275/10 549/1269/10 553/1270/10 554/1276/10
f 591/1277/10 588/1278/10 587/1279/10 592/1280/10
f 555/1281/12 556/1263/12 552/1264/12 529/1282/12
f 550/1283/241 535/1284/242 554/1285/242 553/1286/241
f 535/1284/242 533/1287/242 555/1288/242 554/1285/242
f 533/1287/242 551/1289/241 556/1290/241 555/1288/242
f 540/1291/243 539/1292/243 557/1293/243 558/1294/243
f 539/1292/243 541/1295/244 559/1296/244 557/1293/243
f 561/1297/245 542/1298/244 560/1299/244 534/1300/245
f 541/1295/244 536/1301/245 562/1302/245 559/1296/244
f 542/1298/244 540/1291/243 558/1294/243 560/1299/244
f 536/1301/245 547/1303/9 563/1304/9 562/1302/245
f 548/1305/9 561/1297/245 534/1300/245 564/1306/9
f 547/1303/9 550/1283/241 553/1286/241 563/1304/9
f 551/1289/241 548/1305/9 564/1306/9 556/1290/241
f 569/1307/9 565/1308/246 566/1309/246 570/1310/9
f 568/1311/247 567/1312/247 575/1313/248 576/1314/248
f 566/1309/246 565/1308/246 567/1312/247 568/1311/247
f 571/1315/9 569/1307/9 570/1310/9 572/1316/9
f 583/1317/12 584/1318/12 573/1319/12 574/1320/12
f 547/1321/10 536/1322/10 565/1323/10 569/1324/10
f 542/1266/12 561/1325/12 566/1326/12 568/1267/12
f 589/1327/12 593/1328/12 594/1329/12 590/1330/12
f 561/1325/12 548/1239/12 570/1242/12 566/1326/12
f 536/1322/10 541/1259/10 567/1262/10 565/1323/10
f 539/1331/249 540/1332/249 576/1333/249 575/1334/249
f 550/1335/10 547/1321/10 569/1324/10 571/1336/10
f 579/1337/250 578/1338/250 577/1339/251 580/1340/251
f 535/1341/10 550/1335/10 571/1336/10 577/1342/10 578/1343/10
f 577/1339/251 571/1315/9 572/1316/9 580/1340/251
f 533/1344/8 535/1345/8 578/1346/8 579/1347/8
f 551/1240/12 533/1348/12 579/1349/12 580/1350/12 572/1241/12
f 581/1351/8 585/1352/8 583/1353/8 574/1354/8
f 586/1355/4 582/1356/4 573/1357/4 584/1358/4
f 589/1359/8 588/1360/8 591/1361/8 593/1362/8
f 594/1363/4 592/1364/4 587/1365/4 590/1366/4
f 597/1367/10 598/1368/10 602/1369/10 601/1370/10
f 599/1371/12 600/1372/12 595/1373/12 596/1374/12
f 597/1375/252 601/1376/252 599/1377/252 596/1378/252
f 602/1379/4 598/1380/4 595/1381/4 600/1382/4
f 605/1383/12 609/1384/12 610/1385/12 606/1386/12
f 607/1387/10 604/1388/10 603/1389/10 608/1390/10
f 605/1391/253 604/1392/253 607/1393/253 609/1394/253
f 610/1395/4 608/1396/4 603/1397/4 606/1398/4
f 611/1399/7 613/1400/7 614/1401/7 612/1402/7
f 613/1403/12 617/1404/12 618/1405/12 614/1406/12
f 617/1407/9 615/1408/9 616/1409/9 618/1410/9
f 615/1411/10 611/1412/10 612/1413/10 616/1414/10
f 613/1415/8 611/1416/8 615/1417/8 617/1418/8
f 618/1419/4 616/1420/4 612/1421/4 614/1422/4
