# Blender 4.5.1 LTS
# www.blender.org
o 47mm_Gun
v 0.220837 0.129610 -0.082391
v 0.220837 0.141706 -0.074308
v 0.220837 0.149789 -0.062212
v 0.220837 0.152627 -0.047944
v 0.220837 0.149789 -0.033675
v 0.220837 0.141706 -0.021579
v 0.220837 0.129610 -0.013496
v 0.220837 0.115342 -0.010658
v 0.220837 0.101073 -0.013496
v 0.220837 0.088977 -0.021579
v 0.220837 0.080895 -0.033675
v 0.220837 0.078056 -0.047944
v 0.220837 0.080895 -0.062212
v 0.220837 0.088977 -0.074308
v 0.220837 0.101073 -0.082391
v 0.220837 0.115342 -0.085229
v 0.203990 0.115342 -0.085229
v 0.203990 0.101073 -0.082391
v 0.203990 0.088977 -0.074308
v 0.203990 0.080895 -0.062212
v 0.203990 0.078056 -0.047944
v 0.203990 0.080895 -0.033675
v 0.203990 0.088977 -0.021579
v 0.203990 0.101073 -0.013496
v 0.203990 0.115342 -0.010658
v 0.203990 0.129610 -0.013496
v 0.203990 0.141706 -0.021579
v 0.203990 0.149789 -0.033675
v 0.203990 0.152627 -0.047944
v 0.203990 0.149789 -0.062212
v 0.203990 0.141706 -0.074308
v 0.203990 0.129610 -0.082391
v 0.203993 0.134013 -0.093021
v 0.203993 0.149842 -0.082444
v 0.203993 0.160419 -0.066615
v 0.203993 0.164133 -0.047943
v 0.203993 0.160419 -0.029272
v 0.203993 0.149842 -0.013443
v 0.203993 0.134013 -0.002866
v 0.203993 0.115342 0.000848
v 0.203993 0.096670 -0.002866
v 0.203993 0.080841 -0.013443
v 0.203993 0.070265 -0.029272
v 0.203993 0.066551 -0.047944
v 0.203993 0.070265 -0.066615
v 0.203993 0.080841 -0.082444
v 0.203993 0.096670 -0.093021
v 0.203993 0.115342 -0.096735
v 0.156040 0.130380 -0.084249
v 0.156040 0.143129 -0.075731
v 0.156040 0.151647 -0.062982
v 0.156040 0.154639 -0.047944
v 0.156040 0.151647 -0.032905
v 0.156040 0.143129 -0.020156
v 0.156040 0.130380 -0.011638
v 0.156040 0.115342 -0.008646
v 0.156040 0.100303 -0.011638
v 0.156040 0.087554 -0.020156
v 0.156040 0.079036 -0.032905
v 0.156040 0.076044 -0.047944
v 0.156040 0.079036 -0.062982
v 0.156040 0.087554 -0.075731
v 0.156040 0.100303 -0.084249
v 0.156040 0.115342 -0.087241
v -0.415613 0.102362 -0.041401
v -0.415613 0.099179 -0.040768
v -0.415613 0.096481 -0.038965
v -0.415613 0.094679 -0.036267
v -0.415613 0.094046 -0.033085
v -0.415613 0.094679 -0.029902
v -0.415613 0.096481 -0.027204
v -0.415613 0.099179 -0.025402
v -0.415613 0.102362 -0.024769
v -0.415613 0.105544 -0.025402
v -0.415613 0.108242 -0.027204
v -0.415613 0.110045 -0.029902
v -0.415613 0.110678 -0.033085
v -0.415613 0.110045 -0.036267
v -0.415613 0.108242 -0.038965
v -0.415613 0.105544 -0.040768
v -0.399805 0.105544 -0.040768
v -0.399805 0.108242 -0.038965
v -0.399805 0.110045 -0.036267
v -0.399805 0.110678 -0.033085
v -0.399805 0.110045 -0.029902
v -0.399805 0.108242 -0.027204
v -0.399805 0.105544 -0.025402
v -0.399805 0.102362 -0.024769
v -0.399805 0.099179 -0.025402
v -0.399805 0.096481 -0.027204
v -0.399805 0.094679 -0.029902
v -0.399805 0.094046 -0.033085
v -0.399805 0.094679 -0.036267
v -0.399805 0.096481 -0.038965
v -0.399805 0.099179 -0.040768
v -0.399805 0.102362 -0.041401
v -0.399803 0.115342 -0.082107
v -0.399803 0.102268 -0.079507
v -0.399803 0.091184 -0.072101
v -0.399803 0.083779 -0.061017
v -0.399803 0.081178 -0.047944
v -0.399803 0.083778 -0.034870
v -0.399803 0.091184 -0.023786
v -0.399803 0.102268 -0.016380
v -0.399803 0.115342 -0.013780
v -0.399803 0.128415 -0.016380
v -0.399803 0.139499 -0.023786
v -0.399803 0.146905 -0.034870
v -0.399803 0.149505 -0.047944
v -0.399803 0.146905 -0.061017
v -0.399803 0.139499 -0.072101
v -0.399803 0.128415 -0.079507
v 0.129014 0.128415 -0.079507
v 0.129014 0.139499 -0.072101
v 0.129014 0.146905 -0.061017
v 0.129014 0.149505 -0.047944
v 0.129014 0.146905 -0.034870
v 0.129014 0.139499 -0.023786
v 0.129014 0.128415 -0.016380
v 0.129014 0.115342 -0.013780
v 0.129014 0.102268 -0.016380
v 0.129014 0.091184 -0.023786
v 0.129014 0.083778 -0.034870
v 0.129014 0.081178 -0.047944
v 0.129014 0.083779 -0.061017
v 0.129014 0.091184 -0.072101
v 0.156041 0.115342 -0.096735
v 0.129014 0.102268 -0.079507
v 0.156041 0.096670 -0.093021
v 0.129014 0.115342 -0.082107
v 0.156041 0.080841 -0.082444
v 0.129012 0.115342 -0.087241
v 0.156041 0.070265 -0.066615
v 0.129012 0.100303 -0.084249
v 0.156041 0.066551 -0.047944
v 0.129012 0.087554 -0.075731
v 0.156041 0.070265 -0.029272
v 0.129012 0.079036 -0.062982
v 0.156041 0.080841 -0.013443
v 0.129012 0.076044 -0.047944
v 0.156041 0.096670 -0.002866
v 0.129012 0.079036 -0.032905
v 0.156041 0.115342 0.000848
v 0.129012 0.087554 -0.020156
v 0.156041 0.134013 -0.002866
v 0.129012 0.100303 -0.011638
v 0.156041 0.149842 -0.013443
v 0.129012 0.115342 -0.008646
v 0.156041 0.160419 -0.029272
v 0.129012 0.130380 -0.011638
v 0.156041 0.164133 -0.047943
v 0.129012 0.143129 -0.020156
v 0.156041 0.160419 -0.066615
v 0.129012 0.151647 -0.032905
v 0.156041 0.149842 -0.082444
v 0.129012 0.154639 -0.047944
v 0.156041 0.134013 -0.093021
v 0.129012 0.151647 -0.062982
v 0.129012 0.143129 -0.075731
v 0.129012 0.130380 -0.084249
v 0.220837 0.113686 0.010105
v 0.220837 0.122592 0.016055
v 0.220837 0.128542 0.024960
v 0.220837 0.130631 0.035464
v 0.220837 0.128542 0.045968
v 0.220837 0.122591 0.054873
v 0.220837 0.113686 0.060823
v 0.220837 0.103182 0.062913
v 0.220837 0.092678 0.060823
v 0.220837 0.083773 0.054873
v 0.220837 0.077823 0.045968
v 0.220837 0.075734 0.035464
v 0.220837 0.077823 0.024960
v 0.220837 0.083773 0.016055
v 0.220837 0.092678 0.010105
v 0.220837 0.103182 0.008015
v 0.215659 0.103182 0.008015
v 0.215659 0.092678 0.010105
v 0.215659 0.083773 0.016055
v 0.215659 0.077823 0.024960
v 0.215659 0.075734 0.035464
v 0.215659 0.077823 0.045968
v 0.215659 0.083773 0.054873
v 0.215659 0.092678 0.060823
v 0.215659 0.103182 0.062913
v 0.215659 0.113686 0.060823
v 0.215659 0.122591 0.054873
v 0.215659 0.128542 0.045968
v 0.215659 0.130631 0.035464
v 0.215659 0.128542 0.024960
v 0.215659 0.122592 0.016055
v 0.215659 0.113686 0.010105
v 0.215658 0.116241 0.003937
v 0.215658 0.127312 0.011334
v 0.215658 0.134710 0.022405
v 0.215658 0.137307 0.035464
v 0.215658 0.134710 0.048523
v 0.215658 0.127312 0.059594
v 0.215658 0.116241 0.066991
v 0.215658 0.103182 0.069589
v 0.215658 0.090124 0.066991
v 0.215658 0.079053 0.059594
v 0.215658 0.071655 0.048523
v 0.215658 0.069058 0.035464
v 0.215658 0.071655 0.022405
v 0.215658 0.079053 0.011334
v 0.215658 0.090124 0.003937
v 0.215658 0.103182 0.001339
v 0.187064 0.103182 0.001339
v 0.187064 0.090124 0.003937
v 0.187064 0.079053 0.011334
v 0.187064 0.071655 0.022405
v 0.187064 0.069058 0.035464
v 0.187064 0.071655 0.048523
v 0.187064 0.079053 0.059594
v 0.187064 0.090124 0.066991
v 0.187064 0.103182 0.069589
v 0.187064 0.116241 0.066991
v 0.187064 0.127312 0.059594
v 0.187064 0.134710 0.048523
v 0.187064 0.137307 0.035464
v 0.187064 0.134710 0.022405
v 0.187064 0.127312 0.011334
v 0.187064 0.116241 0.003937
v -0.369579 0.103182 0.028855
v -0.369579 0.100653 0.029358
v -0.369579 0.098509 0.030791
v -0.369579 0.097076 0.032935
v -0.369579 0.096573 0.035464
v -0.369579 0.097076 0.037993
v -0.369579 0.098509 0.040137
v -0.369579 0.100653 0.041570
v -0.369579 0.103182 0.042073
v -0.369579 0.105711 0.041570
v -0.369579 0.107856 0.040137
v -0.369579 0.109288 0.037993
v -0.369579 0.109791 0.035464
v -0.369579 0.109288 0.032935
v -0.369579 0.105711 0.029358
v -0.369579 0.107856 0.030791
v -0.367418 0.113465 0.025181
v -0.367418 0.108747 0.022029
v -0.367418 0.116617 0.029899
v -0.367418 0.117724 0.035464
v -0.367418 0.116617 0.041029
v -0.367418 0.113465 0.045746
v -0.367418 0.108747 0.048899
v -0.367418 0.103182 0.050006
v -0.367418 0.097618 0.048899
v -0.367418 0.092900 0.045746
v -0.367418 0.089748 0.041029
v -0.367418 0.088641 0.035464
v -0.367418 0.089748 0.029899
v -0.367418 0.092900 0.025181
v -0.367418 0.097618 0.022029
v -0.367418 0.103182 0.020922
v -0.355331 0.103182 0.020922
v -0.355331 0.097618 0.022029
v -0.355331 0.092900 0.025182
v -0.355331 0.089748 0.029899
v -0.355331 0.088641 0.035464
v -0.355331 0.089748 0.041029
v -0.355331 0.092900 0.045746
v -0.355331 0.097618 0.048899
v -0.355331 0.103182 0.050006
v -0.355331 0.108747 0.048899
v -0.355331 0.113465 0.045746
v -0.355331 0.116617 0.041029
v -0.355331 0.117724 0.035464
v -0.355331 0.116617 0.029899
v -0.355331 0.108747 0.022029
v -0.355331 0.113465 0.025182
v -0.351881 0.122396 0.016250
v -0.351881 0.113581 0.010360
v -0.351881 0.128287 0.025065
v -0.351881 0.130355 0.035464
v -0.351881 0.128287 0.045862
v -0.351881 0.122396 0.054678
v -0.351881 0.113581 0.060568
v -0.351881 0.103182 0.062637
v -0.351881 0.092784 0.060568
v -0.351881 0.083968 0.054678
v -0.351881 0.078078 0.045862
v -0.351881 0.076010 0.035464
v -0.351881 0.078078 0.025065
v -0.351881 0.083968 0.016250
v -0.351881 0.092784 0.010360
v -0.351881 0.103182 0.008291
v -0.328881 0.103182 0.008291
v -0.328881 0.092784 0.010360
v -0.328881 0.083968 0.016250
v -0.328881 0.078078 0.025065
v -0.328881 0.076010 0.035464
v -0.328881 0.078078 0.045862
v -0.328881 0.083968 0.054678
v -0.328881 0.092784 0.060568
v -0.328881 0.103182 0.062637
v -0.328881 0.113581 0.060568
v -0.328881 0.122396 0.054678
v -0.328881 0.128287 0.045862
v -0.328881 0.130355 0.035464
v -0.328881 0.128287 0.025065
v 0.186441 0.112640 0.012630
v -0.323285 0.112640 0.012630
v 0.186441 0.120658 0.017988
v -0.323285 0.120658 0.017988
v 0.186441 0.126016 0.026006
v -0.323285 0.126016 0.026006
v 0.186441 0.127897 0.035464
v -0.323285 0.127897 0.035464
v 0.186441 0.126016 0.044922
v -0.323285 0.126016 0.044922
v 0.186441 0.120658 0.052940
v -0.323285 0.120658 0.052940
v 0.186441 0.112640 0.058297
v -0.323285 0.112640 0.058297
v 0.186441 0.103182 0.060179
v -0.323285 0.103182 0.060179
v 0.186441 0.093724 0.058297
v -0.323285 0.093725 0.058297
v 0.186441 0.085706 0.052940
v -0.323285 0.085706 0.052940
v 0.186441 0.080349 0.044922
v -0.323285 0.080349 0.044922
v 0.186441 0.078468 0.035464
v -0.323285 0.078468 0.035464
v 0.186441 0.080349 0.026006
v -0.323285 0.080349 0.026006
v 0.186441 0.085706 0.017988
v -0.323285 0.085706 0.017988
v 0.186441 0.093725 0.012630
v -0.323285 0.093725 0.012630
v 0.186441 0.103182 0.010749
v -0.323285 0.103182 0.010749
v -0.328881 0.113581 0.010360
v -0.328881 0.122396 0.016250
v -0.204215 0.007294 -0.017608
v -1.160791 0.008992 -0.021710
v -0.204215 -0.000000 -0.019059
v -0.204215 0.013478 -0.013476
v -0.204215 0.017610 -0.007292
v -1.160791 0.016616 -0.016616
v -1.160788 0.024278 -0.024278
v -1.160791 0.021710 -0.008992
v -1.160791 0.023498 0.000000
v -1.160788 0.031721 -0.013139
v -1.160788 0.034334 0.000000
v -1.084954 0.031721 -0.013139
v -1.084954 0.034334 0.000000
v -1.084954 0.024278 -0.024278
v -1.084956 0.027823 -0.011524
v -0.354566 0.044512 -0.018437
v -1.084956 0.021294 -0.021294
v -1.084956 0.030115 0.000000
v -1.084956 0.027823 0.011525
v -0.354566 0.048179 0.000000
v -0.345242 0.051516 0.000000
v -0.354566 0.044512 0.018437
v -0.345242 0.047594 0.019714
v -0.354566 0.034068 0.034068
v -0.345242 0.036427 0.036427
v -0.354566 0.018437 0.044512
v -1.084956 0.021294 0.021295
v -1.084954 0.024278 0.024279
v -1.084956 0.011524 0.027823
v -1.084956 -0.000000 0.030115
v -1.084954 0.013139 0.031721
v -1.084954 -0.000000 0.034335
v -1.160788 0.013139 0.031721
v -1.160788 0.024278 0.024279
v -1.160791 0.008992 0.021710
v -1.160788 -0.000000 0.034335
v -1.160791 -0.000000 0.023499
v -1.160788 -0.013140 0.031721
v -1.084954 -0.013140 0.031721
v -1.160788 -0.024279 0.024279
v -1.160791 -0.008993 0.021710
v -1.160791 -0.016616 0.016616
v -0.204215 -0.007294 0.017612
v -0.204215 -0.013478 0.013480
v -0.204215 -0.000000 0.019063
v -0.204215 0.007294 0.017612
v -0.204215 0.013478 0.013480
v -1.160791 0.016616 0.016616
v -0.204215 0.017610 0.007296
v -0.204215 0.019061 0.000002
v -1.160791 0.021710 0.008993
v -1.160788 0.031721 0.013140
v -1.084954 0.031721 0.013140
v -0.204215 -0.017610 0.007296
v -1.160791 -0.021710 0.008993
v -0.204215 -0.019061 0.000002
v -1.160791 -0.023499 0.000000
v -0.204215 -0.017610 -0.007292
v -0.204215 -0.013478 -0.013476
v -1.160791 -0.021710 -0.008992
v -1.160788 -0.031721 -0.013139
v -1.160791 -0.016616 -0.016616
v -1.160791 -0.008993 -0.021710
v -1.160788 -0.024279 -0.024278
v -1.084954 -0.024279 -0.024278
v -1.160788 -0.013140 -0.031721
v -1.084954 -0.013140 -0.031721
v -1.160788 -0.000000 -0.034334
v -1.160791 -0.000000 -0.023499
v -1.084954 -0.000000 -0.034334
v -1.160788 0.013139 -0.031721
v -1.084954 0.013139 -0.031721
v -1.084956 0.011524 -0.027822
v -1.084956 -0.000000 -0.030115
v -0.354566 0.018437 -0.044512
v -0.354566 -0.000000 -0.048179
v -0.354566 0.034068 -0.034068
v -0.345242 0.019714 -0.047594
v -0.345241 0.021618 -0.052191
v -0.345242 0.036427 -0.036427
v -0.345242 -0.000000 -0.051516
v -0.345241 -0.000000 -0.056491
v -0.345242 -0.019714 -0.047594
v -0.354566 -0.018437 -0.044512
v -0.345241 -0.021618 -0.052191
v -0.345242 -0.036427 -0.036427
v -0.354566 -0.034068 -0.034068
v -0.345241 -0.039945 -0.039945
v -0.345242 -0.047594 -0.019714
v -0.354566 -0.044512 -0.018437
v -0.345241 -0.052191 -0.021618
v -0.345242 -0.051516 0.000000
v -0.345242 -0.047594 0.019714
v -0.354566 -0.048179 0.000000
v -0.345241 -0.056491 0.000000
v -0.345241 -0.052191 0.021618
v -0.325970 -0.056491 0.000000
v -0.325970 -0.052191 0.021618
v -0.325970 -0.052191 -0.021618
v -0.325968 -0.069420 0.000000
v -0.325968 -0.064136 -0.026566
v -0.325968 -0.064136 0.026566
v -0.285564 -0.069420 0.000000
v -0.285567 -0.054318 0.000000
v -0.285564 -0.064136 0.026566
v -0.285564 -0.064136 -0.026566
v -0.285567 -0.050183 -0.020787
v -0.285564 -0.049087 -0.049087
v -0.285567 -0.038409 -0.038409
v -0.285564 -0.026566 -0.064136
v -0.325968 -0.049087 -0.049087
v -0.325968 -0.026566 -0.064136
v -0.325970 -0.039945 -0.039945
v -0.325970 -0.021618 -0.052191
v -0.325970 -0.000000 -0.056491
v -0.325968 0.000000 -0.069420
v -0.325970 0.021618 -0.052191
v -0.325968 0.026566 -0.064136
v -0.325970 0.039945 -0.039945
v -0.345241 0.039945 -0.039945
v -0.325970 0.052191 -0.021618
v -0.325968 0.049087 -0.049087
v -0.325968 0.064136 -0.026566
v -0.285564 0.049087 -0.049087
v -0.285564 0.026566 -0.064136
v -0.285564 0.064136 -0.026566
v -0.285567 0.038409 -0.038409
v -0.285567 0.050183 -0.020787
v -0.000004 0.038409 -0.038409
v -0.285567 0.020787 -0.050183
v -0.000004 0.020787 -0.050183
v -0.285567 -0.000000 -0.054318
v -0.285564 0.000000 -0.069420
v -0.285567 -0.020787 -0.050183
v -0.000004 -0.000000 -0.054318
v -0.000004 -0.020787 -0.050183
v -0.000004 -0.038409 -0.038409
v -0.000004 -0.050183 -0.020787
v -0.000004 -0.054318 -0.000000
v -0.000004 -0.050183 0.020787
v -0.285567 -0.050183 0.020787
v -0.000004 -0.038409 0.038409
v -0.285567 -0.038409 0.038409
v -0.000004 -0.020787 0.050183
v -0.285567 -0.020787 0.050183
v -0.000004 -0.000000 0.054318
v -0.285567 -0.000000 0.054318
v -0.000004 0.020787 0.050183
v -0.285567 0.020787 0.050183
v -0.000004 0.038409 0.038409
v -0.285567 0.038409 0.038409
v -0.000004 0.050183 0.020787
v -0.285567 0.050183 0.020787
v -0.000004 0.054318 0.000000
v -0.285567 0.054318 0.000000
v -0.000004 0.050183 -0.020787
v -0.285564 0.069420 0.000000
v -0.325968 0.069420 0.000000
v -0.285564 0.064136 0.026566
v -0.325968 0.064136 0.026566
v -0.285564 0.049087 0.049087
v -0.325968 0.049087 0.049087
v -0.285564 0.026566 0.064136
v -0.325968 0.026566 0.064136
v -0.285564 -0.000000 0.069420
v -0.325968 -0.000000 0.069420
v -0.285564 -0.026566 0.064136
v -0.325968 -0.026566 0.064136
v -0.285564 -0.049087 0.049087
v -0.325968 -0.049087 0.049087
v -0.325970 -0.039945 0.039945
v -0.345241 -0.039945 0.039945
v -0.325970 -0.021618 0.052191
v -0.345241 -0.021618 0.052191
v -0.325970 -0.000000 0.056491
v -0.345241 -0.000000 0.056491
v -0.325970 0.021618 0.052191
v -0.345241 0.021618 0.052191
v -0.325970 0.039945 0.039945
v -0.345241 0.039945 0.039945
v -0.325970 0.052191 0.021618
v -0.345241 0.052191 0.021618
v -0.325970 0.056491 0.000000
v -0.345241 0.056491 0.000000
v -0.345241 0.052191 -0.021618
v -0.345242 0.047594 -0.019714
v -0.345242 0.019714 0.047594
v -0.345242 -0.000000 0.051516
v -0.354566 -0.000000 0.048179
v -0.345242 -0.019714 0.047594
v -0.354566 -0.018437 0.044512
v -0.345242 -0.036427 0.036427
v -0.354566 -0.034068 0.034068
v -1.084956 -0.021295 0.021295
v -0.354566 -0.044512 0.018437
v -1.084956 -0.027823 0.011525
v -1.084954 -0.031721 0.013140
v -1.084956 -0.030115 0.000000
v -1.084954 -0.034335 0.000000
v -1.084956 -0.027823 -0.011524
v -1.084954 -0.031721 -0.013139
v -1.084956 -0.021295 -0.021294
v -1.084956 -0.011525 -0.027822
v -1.160788 -0.034335 0.000000
v -1.160788 -0.031721 0.013140
v -1.084954 -0.024279 0.024279
v -1.084956 -0.011525 0.027823
v -0.204215 -0.007294 -0.017608
v 0.025252 -0.115867 0.053726
v 0.422636 -0.024916 -0.049453
v 0.025252 -0.115867 -0.053726
v -0.000006 0.060514 0.070209
v 0.422636 -0.059884 -0.034968
v 0.140105 -0.115867 0.053726
v 0.140105 -0.115867 -0.053726
v 0.422636 -0.074368 -0.000000
v 0.332811 0.060514 0.070209
v 0.332811 0.060514 -0.070208
v 0.422636 -0.059884 0.034968
v -0.000006 0.060514 -0.070208
v 0.422636 -0.024916 0.049453
v 0.339545 -0.107580 0.070209
v 0.339545 -0.107580 -0.070208
v 0.339545 0.069518 0.070209
v 0.339545 0.069518 -0.070208
v 0.531989 0.081663 0.078732
v 0.531989 0.081663 -0.078732
v 0.531989 -0.116935 -0.078732
v 0.531989 -0.116935 0.078732
v 0.531989 -0.056288 -0.078732
v 0.531989 -0.056288 0.078732
v -0.053656 -0.064327 0.070209
v 0.332811 -0.064327 0.070209
v 0.332811 -0.064327 -0.070208
v -0.053656 -0.064327 -0.070208
v 0.339545 -0.053498 0.070209
v 0.339545 -0.053498 -0.070208
v 0.356384 -0.116935 0.078732
v 0.356384 -0.056288 0.078732
v 0.356384 -0.116935 -0.078732
v 0.356384 0.081663 0.078732
v 0.356384 -0.056288 -0.078732
v 0.356384 0.081663 -0.078732
v 0.356384 -0.053498 -0.070208
v 0.356384 0.069518 0.070209
v 0.356384 0.069518 -0.070208
v 0.356384 -0.053498 0.070209
v 0.356384 -0.107580 -0.070208
v 0.356384 -0.107580 0.070209
v 0.531989 -0.074368 -0.000000
v 0.531989 -0.059884 0.034968
v 0.531989 -0.056288 0.036458
v 0.531989 -0.059884 -0.034968
v 0.531989 -0.056288 -0.036458
v 0.422636 0.081663 0.049453
v 0.422636 0.081663 -0.049453
v 0.531989 0.081663 0.049453
v 0.531989 0.081663 -0.049453
v 0.531989 -0.024916 0.049453
v 0.531989 -0.024916 -0.049453
v 0.220836 0.060514 0.064092
v 0.220836 0.157251 0.064092
v 0.220836 0.060514 -0.066734
v 0.220836 0.157251 -0.066734
v 0.332813 0.060514 0.064092
v 0.332813 0.089072 0.064092
v 0.332813 0.060514 -0.066734
v 0.332813 0.089072 -0.066734
v 0.312214 0.060514 -0.066734
v 0.312214 0.060514 0.064092
v 0.220836 0.144446 -0.086802
v 0.220836 0.074861 -0.086802
v 0.288465 0.060514 -0.066734
v 0.288465 0.157251 0.064092
v 0.288465 0.157251 -0.066734
v 0.288465 0.060514 0.064092
v 0.288465 0.074861 -0.086802
v 0.312214 0.144446 0.064092
v 0.312214 0.144446 -0.066734
v 0.288465 0.144446 -0.086802
v -0.280101 -0.054317 0.016978
v -0.280101 -0.080967 -0.011751
v -0.280101 -0.054317 -0.016978
v -0.026951 -0.080967 0.011751
v -0.026951 -0.054317 0.016978
v -0.026951 -0.054317 -0.016978
v -0.280101 -0.080967 0.011751
v -0.026951 -0.080967 -0.011751
v -0.174321 0.058994 -0.054641
v -0.174321 0.023720 -0.060220
v -0.174321 -0.001224 -0.065182
v -0.174321 -0.026168 -0.060220
v -0.174321 -0.047315 -0.046090
v -0.174321 -0.054318 -0.024944
v -0.174321 -0.054318 0.000000
v -0.174321 -0.054318 0.024944
v -0.174321 -0.047315 0.046090
v -0.174321 -0.026168 0.060220
v -0.174321 -0.001224 0.065182
v -0.174321 0.023720 0.060220
v -0.174321 0.059712 0.046452
v -0.149529 0.059712 0.046452
v -0.149529 0.023720 0.060220
v -0.149529 -0.001224 0.065182
v -0.174321 0.131687 0.002212
v -0.174321 0.122930 0.056435
v -0.174321 0.101959 0.065122
v -0.174321 0.080987 0.056435
v -0.149529 -0.026168 0.060220
v -0.149529 -0.047315 0.046090
v -0.149529 -0.054318 0.024944
v -0.174321 0.131616 0.035464
v -0.174321 0.129359 0.024114
v -0.149529 -0.054318 0.000000
v -0.149529 0.122930 0.056435
v -0.174321 0.113308 0.062864
v -0.149529 -0.054318 -0.024944
v -0.174321 0.090609 0.062864
v -0.149529 -0.047315 -0.046090
v -0.174321 0.129359 0.046813
v -0.174321 0.114118 -0.088940
v -0.149529 0.131687 0.002212
v -0.174321 0.155114 -0.047944
v -0.174321 0.151994 -0.063632
v -0.174321 0.143107 -0.076932
v -0.174321 0.143107 -0.018955
v -0.149529 -0.026168 -0.060220
v -0.174321 0.098429 -0.085819
v -0.149529 -0.001224 -0.065182
v -0.174321 0.076242 -0.063632
v -0.174321 0.129807 -0.085819
v -0.174321 0.151994 -0.032255
v -0.174321 0.085129 -0.076932
v -0.149529 0.023720 -0.060220
v -0.149529 0.058994 -0.054641
v -0.149529 0.101959 0.065122
v -0.149529 0.080987 0.056435
v -0.149529 0.131616 0.035464
v -0.149529 0.129359 0.024114
v -0.149529 0.113308 0.062864
v -0.149529 0.090609 0.062864
v -0.149529 0.129359 0.046813
v -0.149529 0.114118 -0.088940
v -0.149529 0.155114 -0.047944
v -0.149529 0.151994 -0.063632
v -0.149529 0.143107 -0.076932
v -0.149529 0.143107 -0.018955
v -0.149529 0.098429 -0.085819
v -0.149529 0.076242 -0.063632
v -0.149529 0.129807 -0.085819
v -0.149529 0.151994 -0.032255
v -0.149529 0.085129 -0.076932
v 0.369661 -0.116935 0.086843
v 0.369661 0.062503 0.086843
v 0.369661 -0.116935 0.078732
v 0.369661 0.062503 0.078732
v 0.531987 -0.116935 0.086843
v 0.531987 0.062503 0.086843
v 0.531987 -0.116935 0.078732
v 0.531987 0.062503 0.078732
v 0.717223 -0.020233 0.078732
v 0.717223 -0.116935 0.078732
v 0.717223 -0.116935 0.086843
v 0.717223 -0.020233 0.086843
v -0.009013 -0.115867 0.070209
v -0.009013 -0.115867 -0.070208
v 0.332811 -0.115867 -0.070208
v 0.332811 -0.115867 0.070209
v 0.025252 -0.094993 0.053726
v 0.025252 -0.094993 -0.053726
v 0.140105 -0.094993 -0.053726
v 0.140105 -0.094993 0.053726
vn -0.0000 -0.7071 -0.7071
vn -0.0000 -0.3827 -0.9239
vn -1.0000 -0.0000 -0.0002
vn -1.0000 -0.0001 -0.0001
vn -0.0000 -0.0000 -1.0000
vn -0.0000 0.7071 0.7071
vn -0.0000 0.3827 0.9239
vn 1.0000 -0.0000 -0.0000
vn -0.0000 -0.0000 1.0000
vn -0.0000 -0.3827 0.9239
vn 1.0000 -0.0002 -0.0002
vn 1.0000 -0.0002 -0.0001
vn -0.0000 -1.0000 -0.0000
vn -0.0000 -0.9239 -0.3827
vn -0.0000 0.3827 -0.9239
vn -0.0000 0.7071 -0.7071
vn -0.0000 -0.9239 0.3827
vn -0.0000 0.9239 -0.3827
vn -0.0000 -0.7071 0.7071
vn -0.0000 1.0000 -0.0000
vn -0.0000 0.9239 0.3827
vn 1.0000 -0.0001 0.0002
vn 1.0000 -0.0000 0.0002
vn 1.0000 0.0001 0.0002
vn 1.0000 0.0002 0.0002
vn 1.0000 -0.0002 0.0002
vn -1.0000 0.0001 -0.0001
vn 1.0000 -0.0002 -0.0000
vn 1.0000 -0.0002 0.0001
vn -1.0000 -0.0000 0.0002
vn -1.0000 0.0001 0.0001
vn 1.0000 -0.0001 -0.0002
vn -1.0000 0.0002 -0.0000
vn 1.0000 0.0001 -0.0002
vn 1.0000 -0.0000 -0.0002
vn 1.0000 0.0002 -0.0001
vn 1.0000 0.0002 -0.0002
vn -1.0000 -0.0001 0.0001
vn -1.0000 -0.0002 -0.0000
vn 1.0000 0.0002 0.0001
vn 1.0000 0.0002 -0.0000
vn -1.0000 -0.0001 0.0003
vn -1.0000 -0.0000 0.0003
vn -1.0000 -0.0002 0.0003
vn -1.0000 -0.0000 -0.0000
vn -1.0000 0.0001 -0.0000
vn -1.0000 -0.0001 -0.0000
vn -1.0000 -0.0000 -0.0001
vn -1.0000 -0.0003 0.0001
vn -1.0000 -0.0003 0.0002
vn -1.0000 -0.0003 0.0003
vn -1.0000 0.0001 0.0003
vn -1.0000 -0.0000 -0.0003
vn -1.0000 -0.0001 -0.0003
vn -1.0000 -0.0002 0.0002
vn -1.0000 -0.0003 -0.0001
vn -1.0000 -0.0003 -0.0000
vn -1.0000 0.0002 0.0002
vn -1.0000 0.0003 0.0001
vn -1.0000 -0.0002 -0.0002
vn -1.0000 0.0001 -0.0003
vn -1.0000 0.0003 -0.0001
vn -1.0000 0.0002 -0.0002
vn -1.0000 0.0003 -0.0000
vn 1.0000 -0.0001 -0.0001
vn 1.0000 -0.0000 -0.0001
vn -0.9648 -0.1858 0.1858
vn -0.9648 -0.1006 0.2428
vn -0.9889 -0.0569 0.1375
vn -0.9889 -0.1052 0.1052
vn 1.0000 -0.0001 0.0001
vn 1.0000 0.0001 -0.0000
vn 1.0000 0.0001 0.0001
vn 1.0000 -0.0000 0.0001
vn 1.0000 -0.0001 -0.0000
vn 1.0000 0.0001 -0.0001
vn -0.9978 -0.0466 0.0466
vn -0.9978 -0.0609 0.0252
vn -0.9647 0.1863 -0.1863
vn -0.9647 0.1008 -0.2434
vn -0.9978 0.0609 0.0252
vn -0.9978 0.0466 0.0466
vn -0.9648 0.1006 -0.2428
vn -0.9648 -0.0000 -0.2628
vn -0.9889 -0.0000 -0.1488
vn -0.9889 0.0569 -0.1375
vn -0.9978 0.0609 -0.0252
vn -0.9978 0.0660 -0.0000
vn -0.9648 -0.2628 -0.0000
vn -0.9648 -0.2428 0.1006
vn -0.9889 -0.1375 0.0569
vn -0.9889 -0.1488 -0.0000
vn -0.9978 0.0466 -0.0466
vn -0.9648 0.2428 -0.1006
vn -0.9648 0.1858 -0.1858
vn -0.9889 0.1052 -0.1052
vn -0.9889 0.1375 -0.0569
vn -0.9978 -0.0609 -0.0252
vn -0.9978 -0.0466 -0.0466
vn -0.9648 0.2428 0.1006
vn -0.9648 0.2628 -0.0000
vn -0.9889 0.1488 -0.0000
vn -0.9889 0.1375 0.0569
vn -0.9978 0.0252 0.0609
vn -0.9978 -0.0000 0.0660
vn -0.9648 -0.1006 -0.2428
vn -0.9889 -0.0569 -0.1375
vn -0.9978 -0.0252 -0.0609
vn -0.9648 -0.1858 -0.1858
vn -0.9648 -0.2428 -0.1006
vn -0.9889 -0.1375 -0.0569
vn -0.9889 -0.1052 -0.1052
vn -0.9978 -0.0000 -0.0660
vn -0.9978 0.0252 -0.0609
vn -0.9648 -0.0000 0.2628
vn -0.9889 -0.0000 0.1488
vn -0.9978 -0.0252 0.0609
vn -0.9889 0.0569 0.1375
vn -0.9889 0.1052 0.1052
vn -0.9648 0.1858 0.1858
vn -0.9978 -0.0660 -0.0000
vn -0.9648 0.1006 0.2428
vn 0.2005 -0.9051 -0.3749
vn 0.2005 -0.9797 -0.0000
vn -0.9647 -0.2635 -0.0000
vn -0.9647 -0.2434 0.1008
vn -0.9647 -0.0000 -0.2635
vn -0.9647 -0.1008 -0.2434
vn -0.9647 0.2434 -0.1008
vn -0.9647 0.2635 -0.0000
vn -0.9647 0.1008 0.2434
vn -0.9647 0.1863 0.1863
vn -0.9647 -0.1863 0.1863
vn -0.9647 -0.1008 0.2434
vn -0.9647 0.2434 0.1008
vn 0.2005 -0.6927 -0.6928
vn -0.9647 -0.1863 -0.1863
vn -0.9647 -0.2434 -0.1008
vn -0.9647 -0.0000 0.2635
vn 0.2108 -0.0000 0.9775
vn 0.2108 0.3741 0.9031
vn 0.2005 0.3749 0.9051
vn 0.2005 -0.0000 0.9797
vn 0.2108 -0.0000 -0.9775
vn 0.2108 -0.3741 -0.9031
vn 0.2005 -0.3749 -0.9051
vn 0.2005 -0.0000 -0.9797
vn 0.2108 -0.6912 0.6912
vn 0.2108 -0.3741 0.9031
vn 0.2005 -0.3749 0.9051
vn 0.2005 -0.6927 0.6927
vn 0.2108 0.6912 0.6912
vn 0.2108 0.9031 0.3741
vn 0.2005 0.9051 0.3749
vn 0.2005 0.6927 0.6927
vn 0.2108 -0.6912 -0.6912
vn 0.2108 -0.9031 -0.3741
vn 0.2108 0.6912 -0.6912
vn 0.2108 0.3741 -0.9031
vn 0.2108 -0.9031 0.3741
vn 0.2005 0.9797 -0.0000
vn 0.2005 0.9051 -0.3749
vn 0.2108 0.9775 -0.0000
vn 0.2108 0.9031 -0.3741
vn 0.2005 0.6928 -0.6927
vn 0.2005 -0.9051 0.3749
vn 0.2005 0.3749 -0.9051
vn 0.2108 -0.9775 -0.0000
vn -0.0046 -0.3827 0.9239
vn -0.0046 -0.0000 1.0000
vn -0.0046 -0.7071 0.7071
vn -0.0046 -0.9239 0.3827
vn -1.0000 0.0001 -0.0002
vn -1.0000 0.0002 -0.0001
vn -0.0046 -1.0000 -0.0000
vn 1.0000 -0.0005 -0.0000
vn 1.0000 -0.0004 0.0002
vn 1.0000 -0.0003 0.0003
vn -0.1868 0.9076 -0.3759
vn -0.1868 0.6947 -0.6947
vn -0.0247 0.7069 -0.7069
vn -0.0247 0.9236 -0.3826
vn -0.1868 0.9824 -0.0000
vn -0.0247 0.9997 -0.0000
vn 1.0000 -0.0004 -0.0002
vn -0.1868 0.9076 0.3759
vn -0.0247 0.9236 0.3826
vn -0.3370 0.9415 -0.0000
vn -0.3370 0.8699 -0.3603
vn -0.3370 0.8699 0.3603
vn -0.1868 0.6947 0.6947
vn -0.0247 0.7069 0.7069
vn -0.3370 0.6658 0.6658
vn -0.3369 0.3603 0.8699
vn -0.1868 0.3759 0.9076
vn -0.0247 0.3826 0.9236
vn 1.0000 -0.0002 -0.0004
vn 1.0000 -0.0003 -0.0003
vn -0.1868 -0.0000 0.9824
vn -0.0247 -0.0000 0.9997
vn 1.0000 -0.0000 -0.0004
vn -1.0000 0.0001 0.0002
vn -1.0000 -0.0001 0.0002
vn -0.0046 0.7071 -0.7071
vn -0.0046 0.3827 -0.9239
vn -0.0046 -0.0000 -1.0000
vn -0.0046 -0.3827 -0.9239
vn -0.0046 -0.7071 -0.7071
vn -0.0046 -0.9239 -0.3827
vn -1.0000 0.0002 0.0001
vn -0.0046 0.9239 -0.3827
vn -0.0046 1.0000 -0.0000
vn -0.0046 0.9239 0.3827
vn -0.0046 0.7071 0.7071
vn -1.0000 -0.0002 -0.0001
vn -0.0046 0.3827 0.9239
vn -1.0000 -0.0001 -0.0002
vn 1.0000 -0.0002 0.0004
vn 1.0000 -0.0000 0.0005
vn -0.1868 0.3759 -0.9076
vn -0.0247 0.3826 -0.9236
vn -0.1868 -0.0000 -0.9824
vn -0.0247 -0.0000 -0.9997
vn -0.3369 0.3603 -0.8699
vn -0.3369 -0.0000 -0.9415
vn -0.3370 0.6658 -0.6658
vn -0.3369 -0.3603 -0.8699
vn -0.1868 -0.3759 -0.9076
vn -0.3369 -0.6658 -0.6658
vn -0.1868 -0.6947 -0.6947
vn -0.3369 -0.8699 -0.3603
vn -0.1868 -0.9076 -0.3759
vn -0.3369 -0.9415 -0.0000
vn -0.1868 -0.9824 -0.0000
vn -0.3369 -0.8699 0.3603
vn -0.1868 -0.9076 0.3759
vn -1.0000 -0.0002 0.0001
vn -1.0000 -0.0000 0.0001
vn -0.3369 -0.0000 0.9415
vn -0.3369 -0.3603 0.8699
vn -0.1868 -0.3759 0.9076
vn -0.3369 -0.6658 0.6658
vn -0.1868 -0.6947 0.6947
vn -0.0247 -0.3826 0.9236
vn -0.0247 -0.7069 0.7069
vn -0.0247 -0.9236 0.3826
vn -0.0247 -0.9997 -0.0000
vn 1.0000 0.0005 -0.0000
vn 1.0000 0.0004 -0.0002
vn 1.0000 0.0003 -0.0003
vn -0.0247 -0.9236 -0.3826
vn 1.0000 0.0004 0.0002
vn 1.0000 0.0003 0.0003
vn -0.0247 -0.7069 -0.7069
vn 1.0000 0.0002 0.0004
vn -0.0247 -0.3826 -0.9236
vn 1.0000 0.0002 -0.0004
vn -0.9188 0.3948 -0.0000
vn -0.8009 0.5989 -0.0000
vn 0.7761 -0.6306 -0.0000
vn -0.7559 -0.6547 -0.0000
vn -0.0000 0.1951 0.9808
vn -0.0000 0.1951 -0.9808
vn 0.2285 0.9371 -0.2638
vn 0.2447 0.9696 -0.0000
vn 0.9842 0.1771 -0.0000
vn 0.9372 0.3487 -0.0000
vn -0.0000 -0.8135 -0.5816
vn 0.4673 0.8666 -0.1749
vn 0.1640 0.8316 -0.5306
vn -0.0000 0.8430 -0.5379
vn 0.4746 0.8802 -0.0000
vn 0.6454 -0.0000 -0.7638
vn -0.0000 -0.1925 -0.9813
vn -0.0000 -0.1925 0.9813
vn -0.0000 -0.9872 0.1592
vn -0.0000 -0.6677 -0.7444
vn -0.0000 0.1757 -0.9844
vn -0.0000 0.1562 -0.9877
vn -0.0000 -0.9872 -0.1592
vn -0.0000 0.3573 0.9340
vn -0.0000 0.2772 0.9608
vn -0.0000 -0.4623 -0.8867
vn -0.0000 -0.9493 -0.3144
vn -0.0000 -0.5556 -0.8315
vn -0.0000 -0.4916 0.8708
vn -0.0000 -0.4248 0.9053
vn -0.0000 -0.5556 0.8315
vn -0.0000 0.8567 0.5158
vn -0.0000 0.9552 0.2958
vn -0.0000 0.9990 -0.0452
vn -0.0000 -0.9493 0.3144
vn 0.2085 0.9780 -0.0000
vn 0.4078 0.9131 -0.0000
vt 0.125000 1.000000
vt 0.187500 1.000000
vt 0.062500 1.000000
vt 0.625000 1.000000
vt 0.687500 1.000000
vt 0.010000 0.250000
vt 0.028269 0.158156
vt 0.080294 0.080294
vt 0.158156 0.028269
vt 0.250000 0.010000
vt 0.341844 0.028269
vt 0.419706 0.080294
vt 0.471731 0.158156
vt 0.490000 0.250000
vt 0.471731 0.341844
vt 0.419706 0.419706
vt 0.341844 0.471731
vt 0.250000 0.490000
vt 0.158156 0.471731
vt 0.080294 0.419706
vt 0.028269 0.341844
vt 0.375000 1.000000
vt 0.437500 1.000000
vt 0.937500 1.000000
vt 0.875000 1.000000
vt 0.250000 1.000000
vt 0.312500 1.000000
vt 0.500000 1.000000
vt 0.562500 1.000000
vt 0.812500 1.000000
vt 0.750000 1.000000
vt 0.000000 1.000000
vt 1.000000 1.000000
vt 1.000000 0.500000
vt 0.937500 0.500000
vt 0.875000 0.500000
vt 0.812500 0.500000
vt 0.750000 0.500000
vt 0.687500 0.500000
vt 0.062500 0.500000
vt 0.000000 0.500000
vt 0.625000 0.500000
vt 0.562500 0.500000
vt 0.375000 0.500000
vt 0.312500 0.500000
vt 0.125000 0.500000
vt 0.250000 0.500000
vt 0.187500 0.500000
vt 0.437500 0.500000
vt 0.841844 0.028269
vt 0.750000 0.010000
vt 0.658156 0.028269
vt 0.580294 0.080294
vt 0.528269 0.158156
vt 0.510000 0.250000
vt 0.528269 0.341844
vt 0.580294 0.419706
vt 0.658156 0.471731
vt 0.750000 0.490000
vt 0.841844 0.471731
vt 0.919706 0.419706
vt 0.971731 0.341844
vt 0.990000 0.250000
vt 0.971731 0.158156
vt 0.919706 0.080294
vt 0.500000 0.500000
vt 0.366287 0.521210
vt 0.366287 0.728790
vt 0.448053 0.000000
vt 0.625000 0.000000
vt 0.625000 0.250000
vt 0.448053 0.250000
vt 0.448237 0.750000
vt 0.625000 0.750000
vt 0.448053 1.000000
vt 0.875000 0.750000
vt 0.448237 0.500000
vt 0.375000 0.750000
vt 0.446249 0.500000
vt 0.446249 0.750000
vt 0.446249 0.682883
vt 0.446249 0.567117
vt 0.442024 0.569482
vt 0.425008 0.625000
vt 0.442024 0.680518
vt 0.625000 0.546486
vt 0.625000 0.703514
vt 0.625000 0.703514
vt 0.486899 0.703514
vt 0.486899 0.546486
vt 0.375000 0.250000
vt 0.375000 0.000000
vt 0.875000 0.844300
vt 0.887856 0.844300
vt 1.000000 0.844300
vt 0.750000 0.844300
vt 0.625000 0.844300
vt 0.500000 0.844300
vt 0.612144 0.844300
vt 0.414839 0.844300
vt 0.414839 0.500000
vt 0.085161 0.844300
vt 0.085161 0.500000
vt 0.000000 0.844300
vt 0.299375 0.500000
vt 0.299375 0.750000
vt 0.787812 0.500000
vt 0.787812 0.750000
vt 0.700625 0.500000
vt 0.700625 0.750000
vt 0.212187 0.500000
vt 0.212187 0.750000
vt 0.125000 0.750000
vt 0.591909 0.424375
vt 0.412076 0.424375
vt 0.412076 0.424375
vt 0.591909 0.424375
vt 0.412076 0.825625
vt 0.591909 0.825625
vt 0.591909 0.912812
vt 0.412076 0.912812
vt 0.412076 0.250000
vt 0.591909 0.250000
vt 0.591909 0.337188
vt 0.412076 0.337187
vt 0.412076 0.750000
vt 0.591909 0.750000
vt 0.591909 1.000000
vt 0.412076 1.000000
vt 0.412076 0.500000
vt 0.591909 0.500000
vt 0.412076 0.000000
vt 0.591909 0.000000
vt 0.000000 0.000000
vt 0.133713 0.521210
vt 0.133713 0.728790
s 1
f 19/1/1 18/2/2 15/2/2 14/1/1
f 127/1/3 129/3/4 63/3/4 64/1/3
f 18/3/2 17/1/5 16/1/5 15/3/2
f 27/4/6 26/5/7 7/5/7 6/4/6
f 4/6/8 5/7/8 6/8/8 7/9/8 8/10/8 9/11/8 10/12/8 11/13/8 12/14/8 13/15/8 14/16/8 15/17/8 16/18/8 1/19/8 2/20/8 3/21/8
f 25/22/9 24/23/10 9/23/10 8/22/9
f 27/24/11 28/25/12 37/25/12 38/24/11
f 21/26/13 20/27/14 13/27/14 12/26/13
f 26/28/7 25/29/9 8/29/9 7/28/7
f 32/30/15 31/25/16 2/25/16 1/30/15
f 17/5/5 32/31/15 1/31/15 16/5/5
f 22/32/17 21/3/13 12/3/13 11/32/17
f 31/29/16 30/4/18 3/4/18 2/29/16
f 20/2/14 19/26/1 14/26/1 13/2/14
f 23/31/19 22/30/17 11/30/17 10/31/19
f 30/23/18 29/28/20 4/28/20 3/23/18
f 24/24/10 23/33/19 10/33/19 9/24/10
f 28/25/21 27/24/6 6/24/6 5/25/21
f 32/31/22 17/5/23 48/5/23 33/31/22
f 18/2/24 19/1/25 46/1/25 47/2/24
f 46/26/1 45/2/14 133/2/14 131/26/1
f 31/25/26 32/30/22 33/30/22 34/25/26
f 157/31/27 127/5/3 64/5/3 49/31/27
f 29/28/28 30/23/29 35/23/29 36/28/28
f 143/29/30 145/28/31 55/28/31 56/29/30
f 26/5/32 27/4/11 38/4/11 39/5/32
f 151/28/33 153/23/27 51/23/27 52/28/33
f 24/23/34 25/22/35 40/22/35 41/23/34
f 36/28/20 35/23/18 153/23/18 151/28/20
f 25/29/35 26/28/32 39/28/32 40/29/35
f 34/25/16 33/30/15 157/30/15 155/25/16
f 22/30/36 23/31/37 42/31/37 43/30/36
f 155/25/27 157/30/27 49/30/27 50/25/27
f 30/4/29 31/29/26 34/29/26 35/4/29
f 40/29/9 39/28/7 145/28/7 143/29/9
f 28/22/12 29/27/28 36/27/28 37/22/12
f 137/30/38 139/31/38 58/31/38 59/30/38
f 29/27/20 28/22/21 5/22/21 4/27/20
f 23/33/37 24/24/34 41/24/34 42/33/37
f 133/27/4 135/26/39 60/26/39 61/27/4
f 48/1/5 47/3/2 129/3/2 127/1/5
f 19/26/25 20/2/40 45/2/40 46/26/25
f 47/2/2 46/1/1 131/1/1 129/2/2
f 45/27/14 44/26/13 135/26/13 133/27/14
f 21/3/41 22/32/36 43/32/36 44/3/41
f 17/1/23 18/3/24 47/3/24 48/1/23
f 141/23/38 143/22/30 56/22/30 57/23/38
f 20/27/40 21/26/41 44/26/41 45/27/40
f 147/24/31 149/25/31 53/25/31 54/24/31
f 104/23/42 105/22/30 88/22/43 89/23/44
f 37/22/21 36/27/20 151/27/20 149/22/21
f 38/24/6 37/25/21 149/25/21 147/24/6
f 41/23/10 40/22/9 143/22/9 141/23/10
f 43/30/17 42/31/19 139/31/19 137/30/17
f 129/2/4 131/1/4 62/1/4 63/2/4
f 42/33/19 41/24/10 141/24/10 139/33/19
f 44/3/13 43/32/17 137/32/17 135/3/13
f 131/26/4 133/2/4 61/2/4 62/26/4
f 73/29/45 74/28/45 75/4/45 76/25/45 77/27/45 78/23/45 79/29/45 80/30/45 65/5/45 66/3/45 67/1/45 68/2/45 69/26/45 70/32/45 71/31/45 72/24/45
f 145/5/31 147/4/31 54/4/31 55/5/31
f 153/4/27 155/29/27 50/29/27 51/4/27
f 33/31/15 48/5/5 127/5/5 157/31/15
f 83/4/18 82/29/16 79/29/16 78/4/18
f 139/33/38 141/24/38 57/24/38 58/33/38
f 135/3/39 137/32/38 59/32/38 60/3/39
f 35/4/18 34/29/16 155/29/16 153/4/18
f 149/22/31 151/27/33 52/27/33 53/22/31
f 125/27/14 124/26/13 101/26/13 100/27/14
f 96/1/5 95/3/2 66/3/2 65/1/5
f 107/24/31 108/25/46 85/25/46 86/24/31
f 87/5/7 86/4/6 75/4/6 74/5/7
f 100/27/4 101/26/39 92/26/39 93/27/47
f 81/31/15 96/5/5 65/5/5 80/31/15
f 111/25/45 112/30/48 81/30/48 82/25/45
f 89/23/10 88/22/9 73/22/9 72/23/10
f 99/26/4 100/2/4 93/2/47 94/26/4
f 106/5/31 107/4/31 86/4/31 87/5/30
f 88/29/9 87/28/7 74/28/7 73/29/9
f 97/1/48 98/3/48 95/3/48 96/1/48
f 105/29/30 106/28/31 87/28/30 88/29/43
f 93/27/14 92/26/13 69/26/13 68/27/14
f 82/25/16 81/30/15 80/30/15 79/25/16
f 108/22/46 109/27/46 84/27/46 85/22/46
f 85/22/21 84/27/20 77/27/20 76/22/21
f 124/3/13 123/32/17 102/32/17 101/3/13
f 101/3/39 102/32/49 91/32/50 92/3/39
f 95/2/2 94/1/1 67/1/1 66/2/2
f 94/26/1 93/2/14 68/2/14 67/26/1
f 103/33/51 104/24/42 89/24/44 90/33/51
f 84/28/20 83/23/18 78/23/18 77/28/20
f 98/2/48 99/1/4 94/1/4 95/2/48
f 91/30/17 90/31/19 71/31/19 70/30/17
f 109/28/46 110/23/46 83/23/46 84/28/46
f 92/3/13 91/32/17 70/32/17 69/3/13
f 112/31/48 97/5/48 96/5/48 81/31/48
f 86/24/6 85/25/21 76/25/21 75/24/6
f 110/4/46 111/29/45 82/29/45 83/4/46
f 90/33/19 89/24/10 72/24/10 71/33/19
f 132/1/43 134/3/52 128/3/52 130/1/43
f 148/29/53 150/28/54 119/28/54 120/29/53
f 57/23/10 56/22/9 148/22/9 146/23/10
f 117/22/21 116/27/20 109/27/20 108/22/21
f 158/4/49 159/29/55 114/29/55 115/4/49
f 154/22/56 156/27/57 116/27/57 117/22/56
f 54/24/6 53/25/21 154/25/21 152/24/6
f 120/29/9 119/28/7 106/28/7 105/29/9
f 123/30/17 122/31/19 103/31/19 102/30/17
f 136/26/58 138/2/59 125/2/59 126/26/58
f 56/29/9 55/28/7 150/28/7 148/29/9
f 60/3/13 59/32/17 142/32/17 140/3/13
f 116/28/20 115/23/18 110/23/18 109/28/20
f 121/23/10 120/22/9 105/22/9 104/23/10
f 152/24/60 154/25/56 117/25/56 118/24/60
f 55/5/7 54/4/6 152/4/6 150/5/7
f 39/5/7 38/4/6 147/4/6 145/5/7
f 160/31/42 132/5/43 130/5/43 113/31/42
f 64/1/5 63/3/2 134/3/2 132/1/5
f 122/33/19 121/24/10 104/24/10 103/33/19
f 150/5/54 152/4/60 118/4/60 119/5/54
f 59/30/17 58/31/19 144/31/19 142/30/17
f 102/30/49 103/31/51 90/31/51 91/30/50
f 134/2/52 136/1/58 126/1/58 128/2/52
f 49/31/15 64/5/5 132/5/5 160/31/15
f 118/24/6 117/25/21 108/25/21 107/24/6
f 146/23/61 148/22/53 120/22/53 121/23/61
f 51/4/18 50/29/16 159/29/16 158/4/18
f 114/25/16 113/30/15 112/30/15 111/25/16
f 142/30/62 144/31/63 122/31/63 123/30/62
f 58/33/19 57/24/10 146/24/10 144/33/19
f 130/1/5 128/3/2 98/3/2 97/1/5
f 61/27/14 60/26/13 140/26/13 138/27/14
f 128/2/2 126/1/1 99/1/1 98/2/2
f 144/33/63 146/24/61 121/24/61 122/33/63
f 119/5/7 118/4/6 107/4/6 106/5/7
f 52/28/20 51/23/18 158/23/18 156/28/20
f 156/28/57 158/23/49 115/23/49 116/28/57
f 126/26/1 125/2/14 100/2/14 99/26/1
f 50/25/16 49/30/15 160/30/15 159/25/16
f 138/27/59 140/26/64 124/26/64 125/27/59
f 113/31/15 130/5/5 97/5/5 112/31/15
f 63/2/2 62/1/1 136/1/1 134/2/2
f 140/3/64 142/32/62 123/32/62 124/3/64
f 62/26/1 61/2/14 138/2/14 136/26/1
f 53/22/21 52/27/20 156/27/20 154/22/21
f 115/4/18 114/29/16 111/29/16 110/4/18
f 159/25/55 160/30/42 113/30/42 114/25/55
f 179/1/1 178/2/2 175/2/2 174/1/1
f 216/24/10 215/33/19 202/33/19 201/24/10
f 178/3/2 177/1/5 176/1/5 175/3/2
f 187/4/6 186/5/7 167/5/7 166/4/6
f 164/6/8 165/7/8 166/8/8 167/9/8 168/10/8 169/11/8 170/12/8 171/13/8 172/14/8 173/15/8 174/16/8 175/17/8 176/18/8 161/19/8 162/20/8 163/21/8
f 185/22/9 184/23/10 169/23/10 168/22/9
f 207/3/65 208/1/66 177/1/66 178/3/65
f 181/26/13 180/27/14 173/27/14 172/26/13
f 186/28/7 185/29/9 168/29/9 167/28/7
f 192/30/15 191/25/16 162/25/16 161/30/15
f 177/5/5 192/31/15 161/31/15 176/5/5
f 182/32/17 181/3/13 172/3/13 171/32/17
f 191/29/16 190/4/18 163/4/18 162/29/16
f 180/2/14 179/26/1 174/26/1 173/2/14
f 183/31/19 182/30/17 171/30/17 170/31/19
f 190/23/18 189/28/20 164/28/20 163/23/18
f 184/24/10 183/33/19 170/33/19 169/24/10
f 188/25/21 187/24/6 166/24/6 165/25/21
f 250/34/67 249/35/68 232/35/69 231/34/70
f 201/24/71 202/33/71 183/33/71 184/24/71
f 196/27/72 197/22/73 188/22/73 189/27/72
f 219/4/6 218/5/7 199/5/7 198/4/6
f 199/28/73 200/29/74 185/29/74 186/28/73
f 212/2/14 211/26/1 206/26/1 205/2/14
f 204/26/75 205/27/65 180/27/65 181/26/75
f 209/5/5 224/31/15 193/31/15 208/5/5
f 195/23/76 196/28/72 189/28/72 190/23/76
f 215/31/19 214/30/17 203/30/17 202/31/19
f 198/4/73 199/5/73 186/5/73 187/4/73
f 222/23/18 221/28/20 196/28/20 195/23/18
f 200/22/74 201/23/71 184/23/71 185/22/74
f 221/27/20 220/22/21 197/22/21 196/27/20
f 206/1/65 207/2/65 178/2/65 179/1/65
f 213/26/13 212/27/14 205/27/14 204/26/13
f 202/31/71 203/30/71 182/30/71 183/31/71
f 217/22/9 216/23/10 201/23/10 200/22/9
f 193/30/76 194/25/76 191/25/76 192/30/76
f 210/3/2 209/1/5 208/1/5 207/3/2
f 189/27/20 188/22/21 165/22/21 164/27/20
f 208/5/66 193/31/76 192/31/76 177/5/66
f 214/32/17 213/3/13 204/3/13 203/32/17
f 218/28/7 217/29/9 200/29/9 199/28/7
f 205/2/65 206/26/65 179/26/65 180/2/65
f 224/30/15 223/25/16 194/25/16 193/30/15
f 220/25/21 219/24/6 198/24/6 197/25/21
f 203/32/71 204/3/75 181/3/75 182/32/71
f 194/29/76 195/4/76 190/4/76 191/29/76
f 211/1/1 210/2/2 207/2/2 206/1/1
f 197/25/73 198/24/73 187/24/73 188/25/73
f 321/31/77 323/30/78 214/30/78 215/31/77
f 273/36/79 274/37/80 271/37/80 272/36/79
f 311/25/81 313/24/82 219/24/82 220/25/81
f 242/38/83 256/39/84 225/39/85 239/38/86
f 307/23/87 309/28/88 221/28/88 222/23/87
f 252/40/89 251/41/90 230/41/91 229/40/92
f 305/29/93 307/4/87 222/4/87 223/29/93
f 243/42/94 241/43/95 240/43/96 238/42/97
f 309/27/88 311/22/81 220/22/81 221/27/88
f 251/37/90 250/38/67 231/38/70 230/37/91
f 327/2/98 329/26/99 211/26/99 212/2/98
f 245/44/100 244/45/101 237/45/102 236/44/103
f 315/28/104 317/29/105 217/29/105 218/28/104
f 256/46/84 255/40/106 226/40/107 225/46/85
f 223/29/16 222/4/18 195/4/18 194/29/16
f 329/1/99 331/2/108 210/2/108 211/1/99
f 254/47/109 253/48/110 228/48/111 227/47/112
f 241/36/95 242/37/83 239/37/86 240/36/96
f 333/5/113 303/31/114 224/31/114 209/5/113
f 249/49/68 248/44/115 233/44/116 232/49/69
f 253/45/110 252/47/89 229/47/92 228/45/111
f 319/24/117 321/33/77 215/33/77 216/24/117
f 232/50/69 233/51/116 234/52/118 235/53/119 236/54/103 237/55/102 238/56/97 240/57/96 239/58/86 225/59/85 226/60/107 227/61/112 228/62/111 229/63/92 230/64/91 231/65/70
f 246/35/120 245/36/100 236/36/103 235/35/119
f 303/30/114 305/25/93 223/25/93 224/30/114
f 264/49/10 265/44/9 248/44/9 249/49/10
f 244/66/101 243/49/94 238/49/97 237/66/102
f 325/26/121 327/27/98 212/27/98 213/26/121
f 331/3/108 333/1/113 209/1/113 210/3/108
f 248/43/115 247/66/122 234/66/118 233/43/116
f 317/22/105 319/23/117 216/23/117 217/22/105
f 255/48/106 254/46/109 227/46/112 226/48/107
f 323/32/78 325/3/121 213/3/121 214/32/78
f 292/45/123 293/47/124 284/47/13 285/45/14
f 265/43/9 266/66/7 247/66/7 248/43/9
f 284/40/125 283/41/126 262/41/126 261/40/125
f 260/45/14 261/47/13 252/47/13 253/45/14
f 288/46/127 287/40/128 258/40/128 257/46/127
f 269/66/20 270/49/18 243/49/18 244/66/20
f 275/42/129 273/43/79 272/43/79 270/42/129
f 247/39/122 246/42/120 235/42/119 234/39/118
f 266/39/7 267/42/6 246/42/6 247/39/7
f 276/66/130 275/49/129 270/49/129 269/66/130
f 279/39/131 278/42/132 267/42/132 266/39/131
f 262/37/17 263/38/19 250/38/19 251/37/17
f 282/34/133 281/35/134 264/35/134 263/34/133
f 278/35/132 277/36/135 268/36/135 267/35/132
f 271/38/15 257/39/5 256/39/5 242/38/15
f 268/44/21 269/45/20 244/45/20 245/44/21
f 277/44/135 276/45/130 269/45/130 268/44/135
f 272/36/16 271/37/15 242/37/15 241/36/16
f 291/47/136 292/48/123 285/48/14 286/47/1
f 287/48/128 286/46/137 259/46/137 258/48/128
f 270/42/18 272/43/16 241/43/16 243/42/18
f 261/40/13 262/41/17 251/41/17 252/40/13
f 286/47/137 285/48/138 260/48/138 259/47/137
f 263/34/19 264/35/10 249/35/10 250/34/19
f 283/37/126 282/38/133 263/38/133 262/37/126
f 267/35/6 268/36/21 245/36/21 246/35/6
f 280/43/139 279/66/131 266/66/131 265/43/139
f 257/46/5 258/40/2 255/40/2 256/46/5
f 285/45/138 284/47/125 261/47/125 260/45/138
f 258/48/2 259/46/1 254/46/1 255/48/2
f 274/38/80 288/39/127 257/39/127 271/38/80
f 259/47/1 260/48/14 253/48/14 254/47/1
f 318/43/140 316/66/141 298/66/142 297/43/143
f 334/46/144 332/40/145 290/40/146 289/46/147
f 322/34/148 321/33/19 319/24/10 320/35/149
f 297/43/143 298/66/142 279/66/7 280/43/9
f 322/34/148 320/35/149 296/35/150 295/34/151
f 314/35/152 312/36/153 300/36/154 299/35/155
f 314/35/152 313/24/6 311/25/21 312/36/153
f 290/48/146 291/46/136 286/46/1 287/48/2
f 289/46/147 290/40/146 287/40/2 288/46/5
f 330/47/156 328/48/157 292/48/123 291/47/136
f 306/36/158 305/25/16 303/30/15 304/37/159
f 324/37/160 323/30/17 321/31/19 322/38/148
f 301/66/161 302/49/162 275/49/18 276/66/20
f 300/44/154 301/45/161 276/45/20 277/44/21
f 304/38/159 303/31/15 333/5/5 334/39/144
f 316/39/141 315/5/7 313/4/6 314/42/152
f 313/4/82 315/5/104 218/5/104 219/4/82
f 310/66/163 308/49/164 302/49/162 301/66/161
f 308/42/164 307/4/18 305/29/16 306/43/158
f 302/42/162 336/43/165 273/43/16 275/42/18
f 308/42/164 306/43/158 336/43/165 302/42/162
f 318/43/140 317/29/9 315/28/7 316/66/141
f 281/49/134 280/44/139 265/44/139 264/49/134
f 324/37/160 322/38/148 295/38/151 294/37/166
f 310/66/163 309/28/20 307/23/18 308/49/164
f 335/38/167 289/39/147 288/39/5 274/38/15
f 332/48/145 330/46/156 291/46/136 290/48/146
f 320/49/149 319/23/10 317/22/9 318/44/140
f 336/36/165 335/37/167 274/37/15 273/36/16
f 316/39/141 314/42/152 299/42/155 298/39/142
f 312/44/153 311/22/21 309/27/20 310/45/163
f 295/34/151 296/35/150 281/35/10 282/34/19
f 328/45/157 327/27/14 325/26/13 326/47/168
f 296/49/150 297/44/143 280/44/9 281/49/10
f 312/44/153 310/45/163 301/45/161 300/44/154
f 293/40/124 294/41/166 283/41/17 284/40/13
f 330/47/156 329/26/1 327/2/14 328/48/157
f 320/49/149 318/44/140 297/44/143 296/49/150
f 298/39/142 299/42/155 278/42/6 279/39/7
f 332/48/145 331/2/2 329/1/1 330/46/156
f 328/45/157 326/47/168 293/47/124 292/45/123
f 299/35/155 300/36/154 277/36/21 278/35/6
f 334/46/144 333/1/5 331/3/2 332/40/145
f 326/40/168 324/41/160 294/41/166 293/40/124
f 306/36/158 304/37/159 335/37/167 336/36/165
f 326/40/168 325/3/13 323/32/17 324/41/160
f 294/37/166 295/38/151 282/38/19 283/37/17
f 304/38/159 334/39/144 289/39/147 335/38/167
f 338/40/169 405/41/170 339/41/170 337/40/169
f 342/46/171 338/40/169 337/40/169 340/46/171
f 339/59/45 544/60/45 395/61/45 394/62/45 392/63/45 390/64/45 380/65/45 379/50/45 381/51/45 382/52/45 383/53/45 385/54/45 386/55/45 341/56/45 340/57/45 337/58/45
f 344/48/172 342/46/171 340/46/171 341/48/172
f 343/46/63 407/40/173 338/40/173 342/46/63
f 346/48/174 343/46/63 342/46/63 344/48/174
f 345/47/175 344/48/172 341/48/172 386/47/175
f 347/47/64 346/48/174 344/48/174 345/47/64
f 348/48/18 350/46/16 343/46/16 346/48/18
f 349/47/20 348/48/18 346/48/18 347/47/20
f 354/47/176 351/48/177 348/48/177 349/47/176
f 351/48/177 353/46/178 350/46/178 348/48/177
f 352/48/179 413/46/180 353/46/181 351/48/182
f 356/47/183 352/48/179 351/48/182 354/47/184
f 355/45/185 354/47/176 349/47/176 389/45/185
f 358/45/186 356/47/183 354/47/184 355/45/187
f 357/47/188 522/48/189 352/48/179 356/47/183
f 359/45/190 357/47/188 356/47/183 358/45/186
f 360/44/191 358/45/186 355/45/187 363/44/192
f 361/44/193 359/45/190 358/45/186 360/44/191
f 523/49/194 361/44/193 360/44/191 362/49/195
f 362/49/195 360/44/191 363/44/192 365/49/196
f 365/49/197 363/44/198 364/44/198 367/49/197
f 363/44/198 355/45/185 389/45/185 364/44/198
f 525/66/199 362/49/195 365/49/196 366/66/200
f 366/66/201 365/49/197 367/49/197 368/66/201
f 367/49/7 364/44/6 370/44/6 369/49/7
f 368/66/9 367/49/7 369/49/7 372/66/9
f 369/49/202 370/44/58 384/44/58 371/49/202
f 372/66/30 369/49/202 371/49/202 373/66/30
f 374/43/203 372/66/30 373/66/30 377/43/203
f 375/43/10 368/66/9 372/66/9 374/43/10
f 542/42/19 375/43/10 374/43/10 376/42/19
f 376/42/55 374/43/203 377/43/203 378/42/55
f 378/42/204 377/43/205 379/43/205 380/42/204
f 377/43/205 373/66/206 381/66/206 379/43/205
f 373/66/206 371/49/207 382/49/207 381/66/206
f 371/49/207 384/44/208 383/44/208 382/49/207
f 384/44/208 387/45/209 385/45/209 383/44/208
f 387/45/209 345/47/175 386/47/175 385/45/209
f 388/45/210 347/47/64 345/47/64 387/45/210
f 370/44/58 388/45/210 387/45/210 384/44/58
f 389/45/21 349/47/20 347/47/20 388/45/21
f 364/44/6 389/45/21 388/45/21 370/44/6
f 391/39/211 378/42/204 380/42/204 390/39/211
f 393/38/212 391/39/211 390/39/211 392/38/212
f 396/37/213 393/38/212 392/38/212 394/37/213
f 398/36/214 396/37/213 394/37/213 395/36/214
f 400/36/60 397/37/215 396/37/215 398/36/60
f 397/37/215 540/38/57 393/38/57 396/37/215
f 399/35/216 398/36/214 395/36/214 544/35/216
f 402/35/217 400/36/60 398/36/60 399/35/217
f 403/35/2 401/36/1 400/36/1 402/35/2
f 401/36/1 537/37/14 397/37/14 400/36/1
f 406/34/5 403/35/2 402/35/2 404/34/5
f 404/34/53 402/35/217 399/35/217 405/34/53
f 407/40/173 404/41/53 405/41/53 338/40/173
f 408/40/15 406/41/5 404/41/5 407/40/15
f 350/46/16 408/40/15 407/40/15 343/46/16
f 353/46/178 409/40/218 408/40/218 350/46/178
f 409/40/218 410/41/219 406/41/219 408/40/218
f 413/46/180 411/40/220 409/40/221 353/46/181
f 411/40/220 412/41/222 410/41/223 409/40/221
f 414/40/224 417/41/225 412/41/222 411/40/220
f 416/46/226 414/40/224 411/40/220 413/46/180
f 415/40/173 418/41/3 417/41/3 414/40/173
f 456/46/27 415/40/173 414/40/173 416/46/27
f 417/34/225 419/35/227 420/35/228 412/34/222
f 418/34/3 421/35/217 419/35/217 417/34/3
f 419/35/227 422/36/229 423/36/230 420/35/228
f 421/35/217 424/36/4 422/36/4 419/35/217
f 422/36/229 425/37/231 426/37/232 423/36/230
f 424/36/4 427/37/215 425/37/215 422/36/4
f 425/37/231 428/38/233 430/38/234 426/37/232
f 427/37/215 431/38/39 428/38/39 425/37/215
f 428/38/233 429/39/235 531/39/236 430/38/234
f 431/38/39 432/39/237 429/39/237 428/38/39
f 435/37/14 433/38/13 431/38/13 427/37/14
f 433/38/13 434/39/17 432/39/17 431/38/13
f 436/38/47 438/39/38 434/39/38 433/38/47
f 437/37/4 436/38/47 433/38/47 435/37/4
f 442/37/14 439/38/13 436/38/13 437/37/14
f 439/38/13 441/39/17 438/39/17 436/38/13
f 440/38/41 477/39/36 441/39/36 439/38/41
f 443/37/40 440/38/41 439/38/41 442/37/40
f 445/36/73 443/37/40 442/37/40 444/36/73
f 444/36/1 442/37/14 437/37/14 447/36/1
f 470/35/24 445/36/73 444/36/73 446/35/24
f 446/35/2 444/36/1 447/36/1 448/35/2
f 448/35/4 447/36/4 449/36/4 450/35/4
f 447/36/4 437/37/4 435/37/4 449/36/4
f 450/35/2 449/36/1 424/36/1 421/35/2
f 449/36/1 435/37/14 427/37/14 424/36/1
f 452/34/48 448/35/4 450/35/4 451/34/48
f 451/34/5 450/35/2 421/35/2 418/34/5
f 453/40/15 451/41/5 418/41/5 415/40/15
f 454/40/27 452/41/48 451/41/48 453/40/27
f 458/46/27 454/40/27 453/40/27 455/46/27
f 455/46/16 453/40/15 415/40/15 456/46/16
f 457/48/18 455/46/16 456/46/16 521/48/18
f 459/48/27 458/46/27 455/46/27 457/48/27
f 462/48/18 460/46/16 458/46/16 459/48/18
f 460/46/16 461/40/15 454/40/15 458/46/16
f 463/46/71 466/40/22 461/40/22 460/46/71
f 464/48/29 463/46/71 460/46/71 462/48/29
f 464/48/18 492/2/18 465/1/16 463/46/16
f 463/46/16 465/1/16 467/3/15 466/40/15
f 466/40/22 468/41/23 469/41/23 461/40/22
f 466/40/15 467/3/15 471/32/5 468/41/5
f 468/34/23 470/35/24 446/35/24 469/34/23
f 468/34/5 471/33/5 472/24/2 470/35/2
f 472/17/8 471/18/8 467/19/8 465/20/8 492/21/8 490/6/8 488/7/8 486/8/8 484/9/8 482/10/8 480/11/8 478/12/8 476/13/8 475/14/8 474/15/8 473/16/8
f 470/35/2 472/24/2 473/25/1 445/36/1
f 445/36/1 473/25/1 474/30/14 443/37/14
f 443/37/14 474/30/14 475/31/13 440/38/13
f 440/38/13 475/31/13 476/5/17 477/39/17
f 477/39/17 476/5/17 478/4/19 479/42/19
f 479/42/19 478/4/19 480/29/10 481/43/10
f 481/43/10 480/29/10 482/28/9 483/66/9
f 483/66/9 482/28/9 484/23/7 485/49/7
f 485/49/7 484/23/7 486/22/6 487/44/6
f 487/44/6 486/22/6 488/27/21 489/45/21
f 489/45/21 488/27/21 490/26/20 491/47/20
f 491/47/20 490/26/20 492/2/18 464/48/18
f 491/47/28 464/48/29 462/48/29 493/47/28
f 489/45/12 491/47/28 493/47/28 495/45/12
f 493/47/20 462/48/18 459/48/18 494/47/20
f 495/45/21 493/47/20 494/47/20 496/45/21
f 497/44/6 495/45/21 496/45/21 498/44/6
f 487/44/65 489/45/12 495/45/12 497/44/65
f 499/49/7 497/44/6 498/44/6 500/49/7
f 485/49/32 487/44/65 497/44/65 499/49/32
f 501/66/9 499/49/7 500/49/7 502/66/9
f 483/66/35 485/49/32 499/49/32 501/66/35
f 503/43/10 501/66/9 502/66/9 504/43/10
f 481/43/34 483/66/35 501/66/35 503/43/34
f 505/42/19 503/43/10 504/43/10 506/42/19
f 479/42/76 481/43/34 503/43/34 505/42/76
f 477/39/36 479/42/76 505/42/76 441/39/36
f 441/39/17 505/42/19 506/42/19 438/39/17
f 438/39/38 506/42/38 507/42/38 434/39/38
f 506/42/38 504/43/38 509/43/38 507/42/38
f 434/39/17 507/42/19 508/42/19 432/39/17
f 507/42/19 509/43/10 510/43/10 508/42/19
f 504/43/38 502/66/238 511/66/238 509/43/38
f 509/43/10 511/66/9 512/66/9 510/43/10
f 502/66/238 500/49/31 513/49/31 511/66/238
f 511/66/9 513/49/7 514/49/7 512/66/9
f 513/49/7 515/44/6 516/44/6 514/49/7
f 500/49/31 498/44/31 515/44/31 513/49/31
f 515/44/6 517/45/21 518/45/21 516/44/6
f 498/44/31 496/45/31 517/45/31 515/44/31
f 517/45/21 519/47/20 520/47/20 518/45/21
f 496/45/31 494/47/46 519/47/46 517/45/31
f 519/47/20 457/48/18 521/48/18 520/47/20
f 494/47/46 459/48/27 457/48/27 519/47/46
f 518/45/210 520/47/33 357/47/33 359/45/210
f 520/47/33 521/48/174 522/48/174 357/47/33
f 521/48/174 456/46/27 416/46/27 522/48/174
f 522/48/189 416/46/226 413/46/180 352/48/179
f 516/44/31 518/45/210 359/45/210 361/44/31
f 514/49/202 516/44/31 361/44/31 523/49/202
f 512/66/30 514/49/202 523/49/202 524/66/30
f 524/66/239 523/49/194 362/49/195 525/66/199
f 526/43/240 524/66/239 525/66/199 527/43/241
f 510/43/203 512/66/30 524/66/30 526/43/203
f 528/42/242 526/43/240 527/43/241 529/42/243
f 508/42/38 510/43/203 526/43/203 528/42/38
f 432/39/237 508/42/38 528/42/38 429/39/237
f 429/39/235 528/42/242 529/42/243 531/39/236
f 529/42/243 527/43/241 543/43/244 530/42/245
f 531/39/236 529/42/243 530/42/245 532/39/246
f 430/38/234 531/39/236 532/39/246 534/38/247
f 534/38/248 532/39/249 533/39/249 535/38/248
f 532/39/249 530/42/250 542/42/250 533/39/249
f 426/37/232 430/38/234 534/38/247 536/37/251
f 536/37/252 534/38/248 535/38/248 537/37/252
f 538/36/253 536/37/252 537/37/252 401/36/253
f 423/36/230 426/37/232 536/37/251 538/36/254
f 539/35/255 538/36/253 401/36/253 403/35/255
f 420/35/228 423/36/230 538/36/254 539/35/256
f 410/34/219 539/35/255 403/35/255 406/34/219
f 412/34/222 420/35/228 539/35/256 410/34/223
f 537/37/14 535/38/13 540/38/13 397/37/14
f 535/38/13 533/39/17 541/39/17 540/38/13
f 540/38/57 541/39/237 391/39/237 393/38/57
f 541/39/237 376/42/55 378/42/55 391/39/237
f 533/39/17 542/42/19 376/42/19 541/39/17
f 530/42/250 543/43/257 375/43/257 542/42/250
f 527/43/241 525/66/199 366/66/200 543/43/244
f 543/43/257 366/66/201 368/66/201 375/43/257
f 461/40/15 469/41/5 452/41/5 454/40/15
f 469/34/5 446/35/2 448/35/2 452/34/5
f 405/34/170 399/35/216 544/35/216 339/34/170
f 551/67/45 550/68/45 708/68/45 707/67/45
f 568/69/258 548/70/258 556/71/258 571/72/258
f 569/73/9 553/74/9 548/4/9 568/75/9
f 554/42/259 553/74/259 560/74/259 561/42/259
f 554/42/20 556/36/20 548/76/20 553/74/20
f 571/72/5 556/71/5 554/42/5 570/77/5
f 704/78/260 703/44/260 559/44/260 558/78/260
f 570/77/5 554/42/5 561/42/5 573/79/5
f 569/73/9 704/78/9 558/78/9 572/80/9
f 574/78/13 576/44/13 564/44/13 565/78/13
f 576/44/5 578/79/5 566/79/5 564/44/5
f 588/81/8 567/80/8 565/78/8 564/44/8 566/79/8 590/82/8 589/83/8 586/84/8 587/85/8
f 594/86/20 563/42/20 579/42/20 577/74/20 562/74/20 593/87/20 591/88/20 592/86/20
f 595/89/8 593/87/8 562/74/8 567/80/8 588/81/8
f 566/79/8 563/42/8 594/86/8 596/90/8 590/82/8
f 584/44/45 580/79/45 578/79/45 576/44/45
f 582/42/45 581/74/45 577/74/45 579/42/45
f 575/80/9 574/78/9 565/78/9 567/80/9
f 580/79/45 582/42/45 579/42/45 578/79/45
f 553/74/9 569/73/9 572/80/9 560/74/9
f 703/44/5 570/77/5 573/79/5 559/44/5
f 577/74/9 575/80/9 567/80/9 562/74/9
f 702/91/5 571/72/5 570/77/5 703/44/5
f 704/78/9 569/73/9 568/75/9 701/22/9
f 701/92/261 568/69/261 571/72/261 702/91/261
f 583/80/45 585/78/45 574/78/45 575/80/45
f 581/74/45 583/80/45 575/80/45 577/74/45
f 578/79/5 579/42/5 563/42/5 566/79/5
f 572/80/9 558/78/9 585/78/9 583/80/9
f 559/44/5 573/79/5 580/79/5 584/44/5
f 573/79/5 561/42/5 582/42/5 580/79/5
f 560/74/9 572/80/9 583/80/9 581/74/9
f 558/78/13 559/44/13 584/44/13 585/78/13
f 585/78/45 584/44/45 576/44/45 574/78/45
f 561/42/20 560/74/20 581/74/20 582/42/20
f 546/34/262 549/36/7 589/93/7 590/94/7 596/95/262
f 549/36/21 552/38/21 586/96/21 589/93/21
f 552/38/18 555/42/18 587/97/18 586/96/18
f 555/42/15 557/66/263 595/98/263 588/99/15 587/97/15
f 593/100/5 595/98/263 557/66/263 591/101/5
f 594/102/9 592/103/9 546/41/262 596/104/262
f 555/65/8 552/63/8 549/61/8 546/57/8 592/57/8 591/51/8 557/51/8
f 605/105/13 603/44/13 601/78/13 606/106/13
f 611/107/264 600/36/20 598/76/20 610/108/265
f 604/42/266 615/109/267 614/110/267 602/74/266
f 609/111/13 605/105/13 606/106/13 612/112/13
f 609/111/268 599/46/268 608/46/268 613/111/268
f 611/107/264 615/109/269 616/107/270
f 600/36/271 611/107/264 616/107/270 607/36/271
f 605/105/268 609/111/268 613/105/268
f 599/46/13 609/111/13 612/112/13 597/113/13
f 615/109/269 611/107/264 610/108/265 614/110/272
f 615/114/273 605/115/273 613/116/273 616/117/273
f 606/118/9 614/119/9 610/120/9 612/121/9
f 608/122/5 607/123/5 616/124/5 613/125/5
f 599/122/45 600/123/45 607/123/45 608/122/45
f 601/126/9 602/127/9 614/119/9 606/118/9
f 612/121/9 610/120/9 598/128/9 597/129/9
f 603/130/8 604/131/266 602/127/266 601/126/8
f 605/115/5 615/114/5 604/131/5 603/130/5
f 597/132/45 598/133/45 600/123/45 599/122/45
f 623/92/45 617/70/45 619/71/45 618/91/45
f 618/91/274 619/71/274 622/42/274 624/44/274
f 624/44/8 622/42/8 621/74/8 620/78/8
f 620/78/275 621/74/275 617/4/275 623/22/275
f 622/42/20 619/36/20 617/76/20 621/74/20
f 618/46/13 624/44/13 620/78/13 623/113/13
f 664/134/2 657/134/5 679/134/5 684/134/2
f 652/134/45 642/134/45 656/134/45 648/134/45 649/134/45 641/134/45 662/134/45 668/134/45 659/134/45 660/134/45 661/134/45 667/134/45 657/134/45 664/134/45 669/134/45 666/134/45 625/134/45 626/134/45 627/134/45 628/134/45 629/134/45 630/134/45 631/134/45 632/134/45 633/134/45 634/134/45 635/134/45 636/134/45 637/134/45 644/134/45 654/134/45 643/134/45
f 676/134/8 672/134/8 677/134/8 673/134/8 638/134/8 639/134/8 640/134/8 645/134/8 646/134/8 647/134/8 650/134/8 653/134/8 655/134/8 663/134/8 665/134/8 670/134/8 671/134/8 685/134/8 688/134/8 684/134/8 679/134/8 686/134/8 682/134/8 681/134/8 680/134/8 687/134/8 683/134/8 658/134/8 675/134/8 674/134/8 678/134/8 651/134/8
f 628/134/2 627/134/5 665/134/5 663/134/2
f 657/134/5 667/134/15 686/134/15 679/134/5
f 632/134/276 631/134/13 650/134/13 647/134/276
f 666/134/277 669/134/1 688/134/1 685/134/277
f 669/134/1 664/134/2 684/134/2 688/134/1
f 635/134/9 634/134/10 645/134/10 640/134/9
f 626/134/278 625/134/279 671/134/279 670/134/278
f 660/134/18 659/134/20 680/134/20 681/134/18
f 631/134/13 630/134/280 653/134/280 650/134/13
f 637/134/281 636/134/282 639/134/282 638/134/281
f 625/134/283 666/134/277 685/134/277 671/134/283
f 630/134/280 629/134/284 655/134/284 653/134/280
f 629/134/285 628/134/2 663/134/2 655/134/285
f 644/134/286 637/134/287 638/134/287 673/134/286
f 634/134/10 633/134/288 646/134/288 645/134/10
f 668/134/21 662/134/289 683/134/289 687/134/21
f 636/134/282 635/134/9 640/134/9 639/134/282
f 656/134/21 642/134/6 651/134/6 678/134/21
f 643/134/9 654/134/10 677/134/10 672/134/9
f 641/134/290 649/134/291 675/134/291 658/134/290
f 662/134/289 641/134/290 658/134/290 683/134/289
f 659/134/20 668/134/21 687/134/21 680/134/20
f 633/134/292 632/134/276 647/134/276 646/134/292
f 649/134/291 648/134/20 674/134/20 675/134/291
f 667/134/15 661/134/16 682/134/16 686/134/15
f 648/134/20 656/134/21 678/134/21 674/134/20
f 627/134/5 626/134/278 670/134/278 665/134/5
f 652/134/7 643/134/9 672/134/9 676/134/7
f 654/134/10 644/134/286 673/134/286 677/134/10
f 642/134/6 652/134/7 676/134/7 651/134/6
f 661/134/16 660/134/18 681/134/18 682/134/16
f 689/92/45 690/70/45 692/71/45 691/91/45
f 691/91/5 692/71/5 696/42/5 695/44/5
f 694/74/9 693/78/9 699/78/9 700/74/9
f 693/78/9 694/74/9 690/4/9 689/22/9
f 691/46/13 695/44/13 693/78/13 689/113/13
f 696/42/293 692/36/20 690/76/20 694/74/293
f 698/44/8 697/42/8 700/74/8 699/78/8
f 693/78/13 695/44/13 698/44/13 699/78/13
f 696/42/293 694/74/293 700/74/294 697/42/294
f 695/44/5 696/42/5 697/42/5 698/44/5
f 547/135/13 545/136/13 701/113/13 702/46/13
f 551/67/13 547/135/13 702/46/13 703/44/13
f 550/68/13 551/67/13 703/44/13 704/78/13
f 545/136/13 550/68/13 704/78/13 701/113/13
f 706/135/13 707/67/13 708/68/13 705/136/13
f 545/136/8 547/135/8 706/135/8 705/136/8
f 550/68/5 545/136/5 705/136/5 708/68/5
f 547/135/9 551/67/9 707/67/9 706/135/9
