{
	"asset":{
		"generator":"Khronos glTF Blender I/O v4.2.57",
		"version":"2.0"
	},
	"scene":0,
	"scenes":[
		{
			"extras":{
				"vs":{
					"export_list":[
						{
							"name":"Collection.dmx",
							"collection":{
								"name":"Collection",
								"type":"Collection"
							},
							"ob_type":"COLLECTION",
							"icon":"GROUP"
						}
					]
				}
			},
			"name":"Scene",
			"nodes":[
				0
			]
		}
	],
	"nodes":[
		{
			"mesh":0,
			"name":"Plane"
		}
	],
	"materials":[
		{
			"doubleSided":true,
			"name":"Material.001",
			"pbrMetallicRoughness":{
				"metallicFactor":0,
				"roughnessFactor":0.5
			}
		}
	],
	"meshes":[
		{
			"name":"Plane",
			"primitives":[
				{
					"attributes":{
						"POSITION":0,
						"NORMAL":1,
						"TEXCOORD_0":2,
						"TANGENT":3
					},
					"indices":4,
					"material":0
				}
			]
		}
	],
	"accessors":[
		{
			"bufferView":0,
			"componentType":5126,
			"count":354509,
			"max":[
				1,
				0.38901567459106445,
				1
			],
			"min":[
				-1,
				-0.19995743036270142,
				-1
			],
			"type":"VEC3"
		},
		{
			"bufferView":1,
			"componentType":5126,
			"count":354509,
			"type":"VEC3"
		},
		{
			"bufferView":2,
			"componentType":5126,
			"count":354509,
			"type":"VEC2"
		},
		{
			"bufferView":3,
			"componentType":5126,
			"count":354509,
			"type":"VEC4"
		},
		{
			"bufferView":4,
			"componentType":5125,
			"count":792576,
			"type":"SCALAR"
		}
	],
	"bufferViews":[
		{
			"buffer":0,
			"byteLength":4254108,
			"byteOffset":0,
			"target":34962
		},
		{
			"buffer":0,
			"byteLength":4254108,
			"byteOffset":4254108,
			"target":34962
		},
		{
			"buffer":0,
			"byteLength":2836072,
			"byteOffset":8508216,
			"target":34962
		},
		{
			"buffer":0,
			"byteLength":5672144,
			"byteOffset":11344288,
			"target":34962
		},
		{
			"buffer":0,
			"byteLength":3170304,
			"byteOffset":17016432,
			"target":34963
		}
	],
	"buffers":[
		{
			"byteLength":20186736,
			"uri":"terrainz-04007d021a4947c2dd76a359a481d40b.bin"
		}
	]
}
