{
	"asset":{
		"generator":"Khronos glTF Blender I/O v4.5.47",
		"version":"2.0"
	},
	"extensionsUsed":[
		"KHR_materials_unlit"
	],
	"scene":0,
	"scenes":[
		{
			"extras":{
				"ypui":{
					"expand_channels":0,
					"expand_mask_channels":0,
					"show_bake_targets":0,
					"show_channels":1,
					"show_layers":1,
					"show_materials":0,
					"show_object":0,
					"show_stats":0,
					"show_support":0,
					"show_test":0,
					"tree_name":""
				}
			},
			"name":"Scene",
			"nodes":[
				0
			]
		}
	],
	"nodes":[
		{
			"mesh":0,
			"name":"Track T-49",
			"rotation":[
				-1,
				0,
				0,
				1.6292068494294654e-07
			]
		}
	],
	"materials":[
		{
			"doubleSided":true,
			"extensions":{
				"KHR_materials_unlit":{}
			},
			"extras":{
				"yp":{
					"active_ypaint_node":""
				}
			},
			"name":"BatteredMetal",
			"pbrMetallicRoughness":{
				"metallicFactor":0,
				"roughnessFactor":0.9
			}
		}
	],
	"meshes":[
		{
			"name":"Cube.001",
			"primitives":[
				{
					"attributes":{
						"POSITION":0,
						"NORMAL":1,
						"TEXCOORD_0":2
					},
					"indices":3,
					"material":0
				}
			]
		}
	],
	"accessors":[
		{
			"bufferView":0,
			"componentType":5126,
			"count":2288,
			"max":[
				0.6800000071525574,
				0.47999998927116394,
				0.23999999463558197
			],
			"min":[
				-0.6800000071525574,
				-0.08999999612569809,
				-0.46001842617988586
			],
			"type":"VEC3"
		},
		{
			"bufferView":1,
			"componentType":5126,
			"count":2288,
			"type":"VEC3"
		},
		{
			"bufferView":2,
			"componentType":5126,
			"count":2288,
			"type":"VEC2"
		},
		{
			"bufferView":3,
			"componentType":5123,
			"count":5814,
			"type":"SCALAR"
		}
	],
	"bufferViews":[
		{
			"buffer":0,
			"byteLength":27456,
			"byteOffset":0,
			"target":34962
		},
		{
			"buffer":0,
			"byteLength":27456,
			"byteOffset":27456,
			"target":34962
		},
		{
			"buffer":0,
			"byteLength":18304,
			"byteOffset":54912,
			"target":34962
		},
		{
			"buffer":0,
			"byteLength":11628,
			"byteOffset":73216,
			"target":34963
		}
	],
	"buffers":[
		{
			"byteLength":84844,
			"uri":"track-b602fcf396f16f67de527b7b52620a62.bin"
		}
	]
}
