# Blender 4.5.1 LTS
# www.blender.org
o AP
v 0.000000 0.120000 -0.100000
v 0.000000 0.193000 -0.100000
v 0.019509 0.120000 -0.098079
v 0.019509 0.193000 -0.098079
v 0.038269 0.120000 -0.092388
v 0.038269 0.193000 -0.092388
v 0.055557 0.120000 -0.083147
v 0.055557 0.193000 -0.083147
v 0.070711 0.120000 -0.070711
v 0.070711 0.193000 -0.070711
v 0.083147 0.120000 -0.055557
v 0.083147 0.193000 -0.055557
v 0.092388 0.120000 -0.038268
v 0.092388 0.193000 -0.038268
v 0.098079 0.120000 -0.019509
v 0.098079 0.193000 -0.019509
v 0.100000 0.120000 -0.000000
v 0.100000 0.193000 -0.000000
v 0.098079 0.120000 0.019509
v 0.098079 0.193000 0.019509
v 0.092388 0.120000 0.038268
v 0.092388 0.193000 0.038268
v 0.083147 0.120000 0.055557
v 0.083147 0.193000 0.055557
v 0.070711 0.120000 0.070711
v 0.070711 0.193000 0.070711
v 0.055557 0.120000 0.083147
v 0.055557 0.193000 0.083147
v 0.038269 0.120000 0.092388
v 0.038269 0.193000 0.092388
v 0.019509 0.120000 0.098079
v 0.019509 0.193000 0.098079
v 0.000000 0.120000 0.100000
v 0.000000 0.193000 0.100000
v -0.019509 0.120000 0.098079
v -0.019509 0.193000 0.098079
v -0.038268 0.120000 0.092388
v -0.038268 0.193000 0.092388
v -0.055557 0.120000 0.083147
v -0.055557 0.193000 0.083147
v -0.070710 0.120000 0.070711
v -0.070710 0.193000 0.070711
v -0.083147 0.120000 0.055557
v -0.083147 0.193000 0.055557
v -0.092388 0.120000 0.038268
v -0.092388 0.193000 0.038268
v -0.098078 0.120000 0.019509
v -0.098078 0.193000 0.019509
v -0.100000 0.120000 -0.000000
v -0.100000 0.193000 -0.000000
v -0.098078 0.120000 -0.019509
v -0.098078 0.193000 -0.019509
v -0.092388 0.120000 -0.038268
v -0.092388 0.193000 -0.038268
v -0.083147 0.120000 -0.055557
v -0.083147 0.193000 -0.055557
v -0.070710 0.120000 -0.070711
v -0.070710 0.193000 -0.070711
v -0.055557 0.120000 -0.083147
v -0.055557 0.193000 -0.083147
v -0.038268 0.120000 -0.092388
v -0.038268 0.193000 -0.092388
v -0.019509 0.120000 -0.098079
v -0.019509 0.193000 -0.098079
v 0.000000 0.193000 -0.084751
v 0.016534 0.193000 -0.083122
v 0.032433 0.193000 -0.078299
v 0.047085 0.193000 -0.070468
v 0.059928 0.193000 -0.059928
v 0.070468 0.193000 -0.047085
v 0.078300 0.193000 -0.032433
v 0.083122 0.193000 -0.016534
v 0.084751 0.193000 -0.000000
v 0.083122 0.193000 0.016534
v 0.078300 0.193000 0.032433
v 0.070468 0.193000 0.047085
v 0.059928 0.193000 0.059928
v 0.047085 0.193000 0.070468
v 0.032433 0.193000 0.078299
v 0.016534 0.193000 0.083122
v 0.000000 0.193000 0.084751
v -0.016534 0.193000 0.083122
v -0.032432 0.193000 0.078299
v -0.047085 0.193000 0.070468
v -0.059927 0.193000 0.059928
v -0.070467 0.193000 0.047085
v -0.078299 0.193000 0.032433
v -0.083122 0.193000 0.016534
v -0.084750 0.193000 -0.000000
v -0.083122 0.193000 -0.016534
v -0.078299 0.193000 -0.032433
v -0.070467 0.193000 -0.047085
v -0.059927 0.193000 -0.059928
v -0.047085 0.193000 -0.070468
v -0.032432 0.193000 -0.078299
v -0.016534 0.193000 -0.083122
v 0.000000 0.284000 -0.084751
v 0.016534 0.284000 -0.083122
v 0.032433 0.284000 -0.078299
v 0.047085 0.284000 -0.070468
v 0.059928 0.284000 -0.059928
v 0.070468 0.284000 -0.047085
v 0.078300 0.284000 -0.032433
v 0.083122 0.284000 -0.016534
v 0.084751 0.284000 -0.000000
v 0.083122 0.284000 0.016534
v 0.078300 0.284000 0.032433
v 0.070468 0.284000 0.047085
v 0.059928 0.284000 0.059928
v 0.047085 0.284000 0.070468
v 0.032433 0.284000 0.078299
v 0.016534 0.284000 0.083122
v 0.000000 0.284000 0.084751
v -0.016534 0.284000 0.083122
v -0.032432 0.284000 0.078299
v -0.047085 0.284000 0.070468
v -0.059927 0.284000 0.059928
v -0.070467 0.284000 0.047085
v -0.078299 0.284000 0.032433
v -0.083122 0.284000 0.016534
v -0.084750 0.284000 -0.000000
v -0.083122 0.284000 -0.016534
v -0.078299 0.284000 -0.032433
v -0.070467 0.284000 -0.047085
v -0.059927 0.284000 -0.059928
v -0.047085 0.284000 -0.070468
v -0.032432 0.284000 -0.078299
v -0.016534 0.284000 -0.083122
v 0.000000 0.284000 -0.099436
v 0.019399 0.284000 -0.097525
v 0.038053 0.284000 -0.091867
v 0.055244 0.284000 -0.082678
v 0.070312 0.284000 -0.070312
v 0.082678 0.284000 -0.055244
v 0.091867 0.284000 -0.038053
v 0.097526 0.284000 -0.019399
v 0.099436 0.284000 -0.000000
v 0.097526 0.284000 0.019399
v 0.091867 0.284000 0.038053
v 0.082678 0.284000 0.055244
v 0.070312 0.284000 0.070312
v 0.055244 0.284000 0.082678
v 0.038053 0.284000 0.091867
v 0.019399 0.284000 0.097525
v 0.000000 0.284000 0.099436
v -0.019399 0.284000 0.097525
v -0.038052 0.284000 0.091867
v -0.055243 0.284000 0.082678
v -0.070312 0.284000 0.070312
v -0.082678 0.284000 0.055244
v -0.091867 0.284000 0.038053
v -0.097525 0.284000 0.019399
v -0.099436 0.284000 -0.000000
v -0.097525 0.284000 -0.019399
v -0.091867 0.284000 -0.038053
v -0.082678 0.284000 -0.055244
v -0.070312 0.284000 -0.070312
v -0.055243 0.284000 -0.082678
v -0.038052 0.284000 -0.091867
v -0.019399 0.284000 -0.097525
v 0.000000 0.510000 -0.000994
v 0.000194 0.510000 -0.000975
v 0.000381 0.510000 -0.000919
v 0.000553 0.510000 -0.000827
v 0.000704 0.510000 -0.000703
v 0.000827 0.510000 -0.000552
v 0.000919 0.510000 -0.000381
v 0.000976 0.510000 -0.000194
v 0.000995 0.510000 -0.000000
v 0.000976 0.510000 0.000194
v 0.000919 0.510000 0.000381
v 0.000827 0.510000 0.000552
v 0.000704 0.510000 0.000703
v 0.000553 0.510000 0.000827
v 0.000381 0.510000 0.000919
v 0.000194 0.510000 0.000975
v 0.000000 0.510000 0.000994
v -0.000194 0.510000 0.000975
v -0.000380 0.510000 0.000919
v -0.000552 0.510000 0.000827
v -0.000703 0.510000 0.000703
v -0.000826 0.510000 0.000552
v -0.000918 0.510000 0.000381
v -0.000975 0.510000 0.000194
v -0.000994 0.510000 -0.000000
v -0.000975 0.510000 -0.000194
v -0.000918 0.510000 -0.000381
v -0.000826 0.510000 -0.000552
v -0.000703 0.510000 -0.000703
v -0.000552 0.510000 -0.000827
v -0.000380 0.510000 -0.000919
v -0.000194 0.510000 -0.000975
v -0.078736 0.309111 0.052610
v -0.073792 0.334222 0.049307
v -0.068241 0.359333 0.045597
v -0.062381 0.384444 0.041682
v -0.055869 0.409556 0.037330
v -0.048323 0.434667 0.032289
v -0.039843 0.459778 0.026623
v -0.028025 0.484889 0.018726
v -0.031140 0.484889 0.012899
v -0.044271 0.459778 0.018338
v -0.053694 0.434667 0.022241
v -0.062078 0.409556 0.025714
v -0.069314 0.384444 0.028711
v -0.075825 0.359333 0.031408
v -0.081994 0.334222 0.033963
v -0.087487 0.309111 0.036238
v 0.094696 0.309111 -0.000000
v 0.088750 0.334222 -0.000000
v 0.082073 0.359333 -0.000000
v 0.075026 0.384444 -0.000000
v 0.067193 0.409556 -0.000000
v 0.058118 0.434667 -0.000000
v 0.047920 0.459778 -0.000000
v 0.033707 0.484889 -0.000000
v 0.033059 0.484889 0.006576
v 0.046999 0.459778 0.009349
v 0.057002 0.434667 0.011338
v 0.065902 0.409556 0.013109
v 0.073584 0.384444 0.014637
v 0.080496 0.359333 0.016012
v 0.087045 0.334222 0.017314
v 0.092876 0.309111 0.018474
v -0.033058 0.484889 0.006576
v -0.046998 0.459778 0.009349
v -0.057001 0.434667 0.011338
v -0.065902 0.409556 0.013109
v -0.073584 0.384444 0.014637
v -0.080495 0.359333 0.016012
v -0.087044 0.334222 0.017314
v -0.092876 0.309111 0.018474
v 0.031141 0.484889 0.012899
v 0.044272 0.459778 0.018338
v 0.053695 0.434667 0.022241
v 0.062078 0.409556 0.025714
v 0.069315 0.384444 0.028711
v 0.075826 0.359333 0.031408
v 0.081994 0.334222 0.033963
v 0.087488 0.309111 0.036238
v -0.033706 0.484889 -0.000000
v -0.047919 0.459778 -0.000000
v -0.058118 0.434667 -0.000000
v -0.067193 0.409556 -0.000000
v -0.075025 0.384444 -0.000000
v -0.082072 0.359333 -0.000000
v -0.088749 0.334222 -0.000000
v -0.094695 0.309111 -0.000000
v 0.028026 0.484889 0.018726
v 0.039844 0.459778 0.026623
v 0.048324 0.434667 0.032289
v 0.055869 0.409556 0.037330
v 0.062382 0.384444 0.041682
v 0.068241 0.359333 0.045597
v 0.073793 0.334222 0.049307
v 0.078737 0.309111 0.052610
v -0.033058 0.484889 -0.006576
v -0.046998 0.459778 -0.009349
v -0.057001 0.434667 -0.011338
v -0.065902 0.409556 -0.013109
v -0.073584 0.384444 -0.014637
v -0.080495 0.359333 -0.016012
v -0.087044 0.334222 -0.017314
v -0.092876 0.309111 -0.018474
v 0.023834 0.484889 0.023834
v 0.033884 0.459778 0.033884
v 0.041096 0.434667 0.041096
v 0.047513 0.409556 0.047513
v 0.053051 0.384444 0.053051
v 0.058034 0.359333 0.058034
v 0.062756 0.334222 0.062755
v 0.066960 0.309111 0.066960
v -0.031140 0.484889 -0.012899
v -0.044271 0.459778 -0.018338
v -0.053694 0.434667 -0.022241
v -0.062078 0.409556 -0.025714
v -0.069314 0.384444 -0.028711
v -0.075825 0.359333 -0.031408
v -0.081994 0.334222 -0.033963
v -0.087487 0.309111 -0.036238
v 0.018727 0.484889 0.028026
v 0.026623 0.459778 0.039843
v 0.032289 0.434667 0.048324
v 0.037331 0.409556 0.055869
v 0.041682 0.384444 0.062381
v 0.045597 0.359333 0.068241
v 0.049307 0.334222 0.073793
v 0.052610 0.309111 0.078736
v -0.028025 0.484889 -0.018726
v -0.039843 0.459778 -0.026623
v -0.048323 0.434667 -0.032289
v -0.055869 0.409556 -0.037330
v -0.062381 0.384444 -0.041682
v -0.068241 0.359333 -0.045597
v -0.073792 0.334222 -0.049307
v -0.078736 0.309111 -0.052610
v 0.012899 0.484889 0.031140
v 0.018338 0.459778 0.044272
v 0.022241 0.434667 0.053694
v 0.025714 0.409556 0.062078
v 0.028711 0.384444 0.069314
v 0.031408 0.359333 0.075825
v 0.033963 0.334222 0.081994
v 0.036239 0.309111 0.087487
v 0.000000 0.309111 -0.094696
v 0.000000 0.334222 -0.088750
v 0.000000 0.359333 -0.082073
v 0.000000 0.384444 -0.075025
v 0.000000 0.409556 -0.067193
v 0.000000 0.434667 -0.058118
v 0.000000 0.459778 -0.047919
v 0.000000 0.484889 -0.033706
v 0.006576 0.484889 -0.033059
v 0.009349 0.459778 -0.046999
v 0.011339 0.434667 -0.057001
v 0.013109 0.409556 -0.065902
v 0.014637 0.384444 -0.073584
v 0.016012 0.359333 -0.080496
v 0.017314 0.334222 -0.087044
v 0.018474 0.309111 -0.092876
v -0.023834 0.484889 -0.023834
v -0.033884 0.459778 -0.033884
v -0.041095 0.434667 -0.041096
v -0.047512 0.409556 -0.047513
v -0.053051 0.384444 -0.053051
v -0.058034 0.359333 -0.058034
v -0.062755 0.334222 -0.062755
v -0.066960 0.309111 -0.066960
v 0.006576 0.484889 0.033059
v 0.009349 0.459778 0.046999
v 0.011339 0.434667 0.057001
v 0.013109 0.409556 0.065902
v 0.014637 0.384444 0.073584
v 0.016012 0.359333 0.080496
v 0.017314 0.334222 0.087044
v 0.018474 0.309111 0.092876
v 0.012899 0.484889 -0.031140
v 0.018338 0.459778 -0.044272
v 0.022241 0.434667 -0.053694
v 0.025714 0.409556 -0.062078
v 0.028711 0.384444 -0.069314
v 0.031408 0.359333 -0.075825
v 0.033963 0.334222 -0.081994
v 0.036239 0.309111 -0.087487
v -0.018726 0.484889 -0.028026
v -0.026622 0.459778 -0.039843
v -0.032288 0.434667 -0.048324
v -0.037330 0.409556 -0.055869
v -0.041682 0.384444 -0.062381
v -0.045597 0.359333 -0.068241
v -0.049306 0.334222 -0.073793
v -0.052610 0.309111 -0.078736
v 0.000000 0.484889 0.033706
v 0.000000 0.459778 0.047919
v 0.000000 0.434667 0.058118
v 0.000000 0.409556 0.067193
v 0.000000 0.384444 0.075025
v 0.000000 0.359333 0.082073
v 0.000000 0.334222 0.088750
v 0.000000 0.309111 0.094696
v 0.018727 0.484889 -0.028026
v 0.026623 0.459778 -0.039843
v 0.032289 0.434667 -0.048324
v 0.037331 0.409556 -0.055869
v 0.041682 0.384444 -0.062381
v 0.045597 0.359333 -0.068241
v 0.049307 0.334222 -0.073793
v 0.052610 0.309111 -0.078736
v -0.012898 0.484889 -0.031140
v -0.018338 0.459778 -0.044272
v -0.022241 0.434667 -0.053694
v -0.025713 0.409556 -0.062078
v -0.028711 0.384444 -0.069314
v -0.031408 0.359333 -0.075825
v -0.033963 0.334222 -0.081994
v -0.036238 0.309111 -0.087487
v -0.006575 0.484889 0.033059
v -0.009348 0.459778 0.046999
v -0.011338 0.434667 0.057001
v -0.013108 0.409556 0.065902
v -0.014636 0.384444 0.073584
v -0.016011 0.359333 0.080496
v -0.017314 0.334222 0.087044
v -0.018474 0.309111 0.092876
v 0.023834 0.484889 -0.023834
v 0.033884 0.459778 -0.033884
v 0.041096 0.434667 -0.041096
v 0.047513 0.409556 -0.047513
v 0.053051 0.384444 -0.053051
v 0.058034 0.359333 -0.058034
v 0.062756 0.334222 -0.062755
v 0.066960 0.309111 -0.066960
v -0.006575 0.484889 -0.033059
v -0.009348 0.459778 -0.046999
v -0.011338 0.434667 -0.057001
v -0.013108 0.409556 -0.065902
v -0.014636 0.384444 -0.073584
v -0.016011 0.359333 -0.080496
v -0.017314 0.334222 -0.087044
v -0.018474 0.309111 -0.092876
v -0.012898 0.484889 0.031140
v -0.018338 0.459778 0.044272
v -0.022241 0.434667 0.053694
v -0.025713 0.409556 0.062078
v -0.028711 0.384444 0.069314
v -0.031408 0.359333 0.075825
v -0.033963 0.334222 0.081994
v -0.036238 0.309111 0.087487
v 0.028026 0.484889 -0.018726
v 0.039844 0.459778 -0.026623
v 0.048324 0.434667 -0.032289
v 0.055869 0.409556 -0.037330
v 0.062382 0.384444 -0.041682
v 0.068241 0.359333 -0.045597
v 0.073793 0.334222 -0.049307
v 0.078737 0.309111 -0.052610
v -0.018726 0.484889 0.028026
v -0.026622 0.459778 0.039843
v -0.032288 0.434667 0.048324
v -0.037330 0.409556 0.055869
v -0.041682 0.384444 0.062381
v -0.045597 0.359333 0.068241
v -0.049306 0.334222 0.073793
v -0.052610 0.309111 0.078736
v 0.031141 0.484889 -0.012899
v 0.044272 0.459778 -0.018338
v 0.053695 0.434667 -0.022241
v 0.062078 0.409556 -0.025714
v 0.069315 0.384444 -0.028711
v 0.075826 0.359333 -0.031408
v 0.081994 0.334222 -0.033963
v 0.087488 0.309111 -0.036238
v -0.023834 0.484889 0.023834
v -0.033884 0.459778 0.033884
v -0.041095 0.434667 0.041096
v -0.047512 0.409556 0.047513
v -0.053051 0.384444 0.053051
v -0.058034 0.359333 0.058034
v -0.062755 0.334222 0.062755
v -0.066960 0.309111 0.066960
v 0.033059 0.484889 -0.006576
v 0.046999 0.459778 -0.009349
v 0.057002 0.434667 -0.011338
v 0.065902 0.409556 -0.013109
v 0.073584 0.384444 -0.014637
v 0.080496 0.359333 -0.016012
v 0.087045 0.334222 -0.017314
v 0.092876 0.309111 -0.018474
v -0.023077 0.493259 0.015420
v -0.016114 0.501630 0.010767
v 0.027755 0.493259 -0.000000
v 0.019381 0.501630 -0.000000
v 0.000000 0.493259 -0.027755
v 0.000000 0.501630 -0.019381
v -0.017905 0.501630 0.007417
v -0.025642 0.493259 0.010621
v 0.019009 0.501630 0.003781
v 0.027222 0.493259 0.005415
v -0.019008 0.501630 0.003781
v -0.027221 0.493259 0.005415
v 0.017906 0.501630 0.007417
v 0.025643 0.493259 0.010621
v -0.019380 0.501630 -0.000000
v -0.027755 0.493259 -0.000000
v 0.016115 0.501630 0.010767
v 0.023078 0.493259 0.015420
v -0.019008 0.501630 -0.003781
v -0.027221 0.493259 -0.005415
v 0.013705 0.501630 0.013704
v 0.019626 0.493259 0.019626
v -0.017905 0.501630 -0.007417
v -0.025642 0.493259 -0.010621
v 0.010768 0.501630 0.016114
v 0.015420 0.493259 0.023077
v -0.016114 0.501630 -0.010767
v -0.023077 0.493259 -0.015420
v 0.007417 0.501630 0.017905
v 0.010622 0.493259 0.025642
v 0.003781 0.501630 -0.019008
v 0.005415 0.493259 -0.027222
v -0.013704 0.501630 -0.013704
v -0.019625 0.493259 -0.019626
v 0.003781 0.501630 0.019008
v 0.005415 0.493259 0.027222
v 0.007417 0.501630 -0.017905
v 0.010622 0.493259 -0.025642
v -0.010767 0.501630 -0.016114
v -0.015420 0.493259 -0.023077
v 0.000000 0.501630 0.019381
v 0.000000 0.493259 0.027755
v 0.010768 0.501630 -0.016114
v 0.015420 0.493259 -0.023077
v -0.007416 0.501630 -0.017905
v -0.010621 0.493259 -0.025642
v -0.003781 0.501630 0.019008
v -0.005414 0.493259 0.027222
v 0.013705 0.501630 -0.013704
v 0.019626 0.493259 -0.019626
v -0.003781 0.501630 -0.019008
v -0.005414 0.493259 -0.027222
v -0.007416 0.501630 0.017905
v -0.010621 0.493259 0.025642
v 0.016115 0.501630 -0.010767
v 0.023078 0.493259 -0.015420
v -0.010767 0.501630 0.016114
v -0.015420 0.493259 0.023077
v 0.017906 0.501630 -0.007417
v 0.025643 0.493259 -0.010621
v -0.013704 0.501630 0.013704
v -0.019625 0.493259 0.019626
v 0.019009 0.501630 -0.003781
v 0.027222 0.493259 -0.005415
v -0.011561 0.505815 0.007725
v 0.013905 0.505815 -0.000000
v 0.000000 0.505815 -0.013904
v -0.012846 0.505815 0.005321
v 0.013638 0.505815 0.002713
v -0.013637 0.505815 0.002713
v 0.012846 0.505815 0.005321
v -0.013904 0.505815 -0.000000
v 0.011561 0.505815 0.007725
v -0.013637 0.505815 -0.002713
v 0.009832 0.505815 0.009832
v -0.012846 0.505815 -0.005321
v 0.007725 0.505815 0.011561
v -0.011561 0.505815 -0.007725
v 0.005321 0.505815 0.012846
v 0.002713 0.505815 -0.013637
v -0.009832 0.505815 -0.009832
v 0.002713 0.505815 0.013637
v 0.005321 0.505815 -0.012846
v -0.007725 0.505815 -0.011561
v 0.000000 0.505815 0.013904
v 0.007725 0.505815 -0.011561
v -0.005321 0.505815 -0.012846
v -0.002712 0.505815 0.013637
v 0.009832 0.505815 -0.009832
v -0.002712 0.505815 -0.013637
v -0.005321 0.505815 0.012846
v 0.011561 0.505815 -0.007725
v -0.007725 0.505815 0.011561
v 0.012846 0.505815 -0.005321
v -0.009832 0.505815 0.009832
v 0.013638 0.505815 -0.002713
v -0.005823 0.508776 0.003891
v 0.007004 0.508776 -0.000000
v 0.000001 0.508776 -0.007004
v -0.006470 0.508776 0.002680
v 0.006870 0.508776 0.001366
v -0.006869 0.508776 0.001366
v 0.006471 0.508776 0.002680
v -0.007003 0.508776 -0.000000
v 0.005824 0.508776 0.003891
v -0.006869 0.508776 -0.001366
v 0.004953 0.508776 0.004952
v -0.006470 0.508776 -0.002680
v 0.003892 0.508776 0.005824
v -0.005823 0.508776 -0.003891
v 0.002681 0.508776 0.006471
v 0.001367 0.508776 -0.006869
v -0.004952 0.508776 -0.004952
v 0.001367 0.508776 0.006869
v 0.002681 0.508776 -0.006471
v -0.003891 0.508776 -0.005824
v 0.000001 0.508776 0.007004
v 0.003892 0.508776 -0.005824
v -0.002680 0.508776 -0.006471
v -0.001366 0.508776 0.006869
v 0.004953 0.508776 -0.004952
v -0.001366 0.508776 -0.006869
v -0.002680 0.508776 0.006471
v 0.005824 0.508776 -0.003891
v -0.003891 0.508776 0.005824
v 0.006471 0.508776 -0.002680
v -0.004952 0.508776 0.004952
v 0.006870 0.508776 -0.001366
v 0.000000 0.120000 -0.094588
v 0.018453 0.120000 -0.092770
v 0.036197 0.120000 -0.087387
v 0.052550 0.120000 -0.078647
v 0.066884 0.120000 -0.066883
v 0.078647 0.120000 -0.052550
v 0.087388 0.120000 -0.036197
v 0.092770 0.120000 -0.018453
v 0.094588 0.120000 -0.000000
v 0.092770 0.120000 0.018453
v 0.087388 0.120000 0.036197
v 0.078647 0.120000 0.052550
v 0.066884 0.120000 0.066883
v 0.052550 0.120000 0.078647
v 0.036197 0.120000 0.087387
v 0.018453 0.120000 0.092770
v 0.000000 0.120000 0.094588
v -0.018453 0.120000 0.092770
v -0.036197 0.120000 0.087387
v -0.052550 0.120000 0.078647
v -0.066883 0.120000 0.066883
v -0.078646 0.120000 0.052550
v -0.087387 0.120000 0.036197
v -0.092770 0.120000 0.018453
v -0.094587 0.120000 -0.000000
v -0.092770 0.120000 -0.018453
v -0.087387 0.120000 -0.036197
v -0.078646 0.120000 -0.052550
v -0.066883 0.120000 -0.066883
v -0.052550 0.120000 -0.078647
v -0.036197 0.120000 -0.087387
v -0.018453 0.120000 -0.092770
v 0.000000 0.070000 -0.094588
v 0.018453 0.070000 -0.092770
v 0.036197 0.070000 -0.087387
v 0.052550 0.070000 -0.078647
v 0.066884 0.070000 -0.066883
v 0.078647 0.070000 -0.052550
v 0.087388 0.070000 -0.036197
v 0.092770 0.070000 -0.018453
v 0.094588 0.070000 -0.000000
v 0.092770 0.070000 0.018453
v 0.087388 0.070000 0.036197
v 0.078647 0.070000 0.052550
v 0.066884 0.070000 0.066883
v 0.052550 0.070000 0.078647
v 0.036197 0.070000 0.087387
v 0.018453 0.070000 0.092770
v 0.000000 0.070000 0.094588
v -0.018453 0.070000 0.092770
v -0.036197 0.070000 0.087387
v -0.052550 0.070000 0.078647
v -0.066883 0.070000 0.066883
v -0.078646 0.070000 0.052550
v -0.087387 0.070000 0.036197
v -0.092770 0.070000 0.018453
v -0.094587 0.070000 -0.000000
v -0.092770 0.070000 -0.018453
v -0.087387 0.070000 -0.036197
v -0.078646 0.070000 -0.052550
v -0.066883 0.070000 -0.066883
v -0.052550 0.070000 -0.078647
v -0.036197 0.070000 -0.087387
v -0.018453 0.070000 -0.092770
v 0.000000 0.030000 -0.088101
v 0.017188 0.030000 -0.086409
v 0.033715 0.030000 -0.081395
v 0.048947 0.030000 -0.073254
v 0.062297 0.030000 -0.062297
v 0.073254 0.030000 -0.048947
v 0.081395 0.030000 -0.033715
v 0.086409 0.030000 -0.017188
v 0.088102 0.030000 -0.000000
v 0.086409 0.030000 0.017188
v 0.081395 0.030000 0.033715
v 0.073254 0.030000 0.048947
v 0.062297 0.030000 0.062297
v 0.048947 0.030000 0.073254
v 0.033715 0.030000 0.081395
v 0.017188 0.030000 0.086409
v 0.000000 0.030000 0.088101
v -0.017187 0.030000 0.086409
v -0.033715 0.030000 0.081395
v -0.048946 0.030000 0.073254
v -0.062297 0.030000 0.062297
v -0.073253 0.030000 0.048947
v -0.081395 0.030000 0.033715
v -0.086408 0.030000 0.017188
v -0.088101 0.030000 -0.000000
v -0.086408 0.030000 -0.017188
v -0.081395 0.030000 -0.033715
v -0.073253 0.030000 -0.048947
v -0.062297 0.030000 -0.062297
v -0.048946 0.030000 -0.073254
v -0.033715 0.030000 -0.081395
v -0.017187 0.030000 -0.086409
v 0.000000 0.030000 -0.035357
v 0.006898 0.030000 -0.034678
v 0.013531 0.030000 -0.032666
v 0.019644 0.030000 -0.029398
v 0.025002 0.030000 -0.025001
v 0.029399 0.030000 -0.019643
v 0.032666 0.030000 -0.013531
v 0.034678 0.030000 -0.006898
v 0.035358 0.030000 -0.000000
v 0.034678 0.030000 0.006898
v 0.032666 0.030000 0.013531
v 0.029399 0.030000 0.019643
v 0.025002 0.030000 0.025001
v 0.019644 0.030000 0.029398
v 0.013531 0.030000 0.032666
v 0.006898 0.030000 0.034678
v 0.000000 0.030000 0.035357
v -0.006897 0.030000 0.034678
v -0.013530 0.030000 0.032666
v -0.019643 0.030000 0.029398
v -0.025001 0.030000 0.025001
v -0.029398 0.030000 0.019643
v -0.032665 0.030000 0.013531
v -0.034677 0.030000 0.006898
v -0.035357 0.030000 -0.000000
v -0.034677 0.030000 -0.006898
v -0.032665 0.030000 -0.013531
v -0.029398 0.030000 -0.019643
v -0.025001 0.030000 -0.025001
v -0.019643 0.030000 -0.029398
v -0.013530 0.030000 -0.032666
v -0.006897 0.030000 -0.034678
v 0.000000 0.000000 -0.035357
v 0.006898 0.000000 -0.034678
v 0.013531 0.000000 -0.032666
v 0.019644 0.000000 -0.029398
v 0.025002 0.000000 -0.025001
v 0.029399 0.000000 -0.019643
v 0.032666 0.000000 -0.013531
v 0.034678 0.000000 -0.006898
v 0.035358 0.000000 -0.000000
v 0.034678 0.000000 0.006898
v 0.032666 0.000000 0.013531
v 0.029399 0.000000 0.019643
v 0.025002 0.000000 0.025001
v 0.019644 0.000000 0.029398
v 0.013531 0.000000 0.032666
v 0.006898 0.000000 0.034678
v 0.000000 0.000000 0.035357
v -0.006897 0.000000 0.034678
v -0.013530 0.000000 0.032666
v -0.019643 0.000000 0.029398
v -0.025001 0.000000 0.025001
v -0.029398 0.000000 0.019643
v -0.032665 0.000000 0.013531
v -0.034677 0.000000 0.006898
v -0.035357 0.000000 -0.000000
v -0.034677 0.000000 -0.006898
v -0.032665 0.000000 -0.013531
v -0.029398 0.000000 -0.019643
v -0.025001 0.000000 -0.025001
v -0.019643 0.000000 -0.029398
v -0.013530 0.000000 -0.032666
v -0.006897 0.000000 -0.034678
v 0.051399 0.050000 0.076923
v 0.065418 0.050000 0.065418
v -0.076923 0.050000 -0.051398
v -0.085472 0.050000 -0.035404
v 0.035404 0.050000 0.085473
v 0.018049 0.050000 -0.090737
v 0.000000 0.050000 -0.092515
v -0.065418 0.050000 -0.065418
v 0.018049 0.050000 0.090737
v 0.035404 0.050000 -0.085473
v -0.051398 0.050000 -0.076923
v 0.000000 0.050000 0.092515
v 0.051399 0.050000 -0.076923
v -0.035404 0.050000 -0.085473
v -0.018048 0.050000 0.090737
v 0.065418 0.050000 -0.065418
v -0.018048 0.050000 -0.090737
v -0.035404 0.050000 0.085473
v 0.076924 0.050000 -0.051398
v -0.051398 0.050000 0.076923
v 0.085473 0.050000 -0.035404
v -0.065418 0.050000 0.065418
v 0.090737 0.050000 -0.018049
v -0.076923 0.050000 0.051398
v 0.092515 0.050000 -0.000000
v -0.085472 0.050000 0.035404
v 0.090737 0.050000 0.018049
v -0.090737 0.050000 0.018049
v 0.085473 0.050000 0.035404
v -0.092514 0.050000 -0.000000
v 0.076924 0.050000 0.051398
v -0.090737 0.050000 -0.018049
vn -0.0000 -0.0000 -1.0000
vn 0.1951 -0.0000 -0.9808
vn 0.3827 -0.0000 -0.9239
vn 0.5556 -0.0000 -0.8315
vn 0.7071 -0.0000 -0.7071
vn 0.8315 -0.0000 -0.5556
vn 0.9239 -0.0000 -0.3827
vn 0.9808 -0.0000 -0.1951
vn 1.0000 -0.0000 -0.0000
vn 0.9808 -0.0000 0.1951
vn 0.9239 -0.0000 0.3827
vn 0.8315 -0.0000 0.5556
vn 0.7071 -0.0000 0.7071
vn 0.5556 -0.0000 0.8315
vn 0.3827 -0.0000 0.9239
vn 0.1951 -0.0000 0.9808
vn -0.0000 -0.0000 1.0000
vn -0.1951 -0.0000 0.9808
vn -0.3827 -0.0000 0.9239
vn -0.5556 -0.0000 0.8315
vn -0.7071 -0.0000 0.7071
vn -0.8315 -0.0000 0.5556
vn -0.9239 -0.0000 0.3827
vn -0.9808 -0.0000 0.1951
vn -1.0000 -0.0000 -0.0000
vn -0.9808 -0.0000 -0.1951
vn -0.9239 -0.0000 -0.3827
vn -0.8315 -0.0000 -0.5556
vn -0.7071 -0.0000 -0.7071
vn -0.5556 -0.0000 -0.8315
vn -0.3827 -0.0000 -0.9239
vn -0.0000 1.0000 -0.0000
vn -0.1951 -0.0000 -0.9808
vn -0.0000 -1.0000 -0.0000
vn -0.2811 0.9526 0.1164
vn -0.2530 0.9526 0.1691
vn -0.0885 0.9943 0.0591
vn -0.0983 0.9943 0.0407
vn 0.0208 0.9943 -0.1044
vn -0.0000 0.9943 -0.1064
vn -0.0208 0.9943 -0.1044
vn -0.0407 0.9943 -0.0983
vn -0.0591 0.9943 -0.0885
vn -0.0753 0.9943 -0.0753
vn -0.0885 0.9943 -0.0591
vn -0.0983 0.9943 -0.0407
vn -0.1044 0.9943 -0.0208
vn -0.1064 0.9943 -0.0000
vn -0.1044 0.9943 0.0208
vn -0.0753 0.9943 0.0753
vn -0.0591 0.9943 0.0885
vn -0.0407 0.9943 0.0983
vn -0.0208 0.9943 0.1044
vn -0.0000 0.9943 0.1064
vn 0.0208 0.9943 0.1044
vn 0.0407 0.9943 0.0983
vn 0.0591 0.9943 0.0885
vn 0.0753 0.9943 0.0753
vn 0.0885 0.9943 0.0591
vn 0.0983 0.9943 0.0407
vn 0.1044 0.9943 0.0208
vn 0.1064 0.9943 -0.0000
vn 0.1044 0.9943 -0.0208
vn 0.0983 0.9943 -0.0407
vn 0.0885 0.9943 -0.0591
vn 0.0752 0.9943 -0.0753
vn 0.0591 0.9943 -0.0885
vn 0.0407 0.9943 -0.0983
vn 0.2984 0.9526 0.0594
vn 0.3043 0.9526 -0.0000
vn -0.2984 0.9526 0.0594
vn 0.2811 0.9526 0.1164
vn -0.3043 0.9526 -0.0000
vn 0.2530 0.9526 0.1691
vn -0.2984 0.9526 -0.0594
vn 0.2152 0.9526 0.2152
vn -0.2811 0.9526 -0.1164
vn 0.1690 0.9526 0.2530
vn -0.2530 0.9526 -0.1691
vn 0.1164 0.9526 0.2811
vn 0.0594 0.9526 -0.2984
vn -0.0000 0.9526 -0.3043
vn -0.2152 0.9526 -0.2152
vn 0.0594 0.9526 0.2984
vn 0.1165 0.9526 -0.2811
vn -0.1691 0.9526 -0.2530
vn -0.0000 0.9526 0.3043
vn 0.1691 0.9526 -0.2530
vn -0.1165 0.9526 -0.2811
vn -0.0594 0.9526 0.2984
vn 0.2152 0.9526 -0.2152
vn -0.0594 0.9526 -0.2984
vn -0.1164 0.9526 0.2811
vn 0.2530 0.9526 -0.1691
vn -0.1690 0.9526 0.2530
vn 0.2811 0.9526 -0.1164
vn -0.2152 0.9526 0.2152
vn 0.2984 0.9526 -0.0594
vn 0.9826 0.1855 -0.0000
vn 0.9638 0.1855 -0.1917
vn 0.9594 0.2077 -0.1908
vn 0.9782 0.2077 -0.0000
vn 0.9513 0.2435 -0.1892
vn 0.9699 0.2435 -0.0000
vn 0.9461 0.2635 -0.1882
vn 0.9647 0.2635 -0.0000
vn 0.9405 0.2838 -0.1871
vn 0.9589 0.2838 -0.0000
vn 0.9297 0.3185 -0.1849
vn 0.9479 0.3185 -0.0000
vn 0.9159 0.3577 -0.1822
vn 0.9338 0.3577 -0.0000
vn 0.8837 0.4338 -0.1758
vn 0.9010 0.4338 -0.0000
vn 0.8284 0.5353 -0.1648
vn 0.8447 0.5353 -0.0000
vn -0.8170 0.1855 0.5459
vn -0.6948 0.1855 0.6948
vn -0.6917 0.2077 0.6917
vn -0.8133 0.2077 0.5435
vn -0.6858 0.2435 0.6858
vn -0.8064 0.2435 0.5388
vn -0.6821 0.2635 0.6821
vn -0.8021 0.2635 0.5359
vn -0.6780 0.2838 0.6780
vn -0.7973 0.2838 0.5327
vn -0.6703 0.3185 0.6703
vn -0.7882 0.3185 0.5266
vn -0.6603 0.3577 0.6603
vn -0.7764 0.3577 0.5188
vn -0.6371 0.4338 0.6371
vn -0.7492 0.4338 0.5006
vn -0.5973 0.5353 0.5973
vn -0.7023 0.5353 0.4693
vn 0.9078 0.1855 -0.3760
vn 0.9037 0.2077 -0.3743
vn 0.8961 0.2435 -0.3712
vn 0.8912 0.2635 -0.3692
vn 0.8859 0.2838 -0.3670
vn 0.8758 0.3185 -0.3628
vn 0.8627 0.3577 -0.3574
vn 0.8324 0.4338 -0.3448
vn 0.7804 0.5353 -0.3232
vn -0.5459 0.1855 0.8170
vn -0.5435 0.2077 0.8133
vn -0.5388 0.2435 0.8064
vn -0.5359 0.2635 0.8021
vn -0.5327 0.2838 0.7973
vn -0.5266 0.3185 0.7882
vn -0.5188 0.3577 0.7764
vn -0.5006 0.4338 0.7492
vn -0.4693 0.5353 0.7023
vn 0.8170 0.1855 -0.5459
vn 0.8133 0.2077 -0.5435
vn 0.8064 0.2435 -0.5388
vn 0.8021 0.2635 -0.5359
vn 0.7973 0.2838 -0.5327
vn 0.7882 0.3185 -0.5266
vn 0.7764 0.3577 -0.5188
vn 0.7492 0.4338 -0.5006
vn 0.7023 0.5353 -0.4693
vn -0.3760 0.1855 0.9078
vn -0.3743 0.2077 0.9037
vn -0.3712 0.2435 0.8961
vn -0.3692 0.2635 0.8912
vn -0.3670 0.2838 0.8859
vn -0.3628 0.3185 0.8758
vn -0.3574 0.3577 0.8627
vn -0.3448 0.4338 0.8324
vn -0.3232 0.5353 0.7804
vn -0.0000 0.1855 -0.9826
vn -0.1917 0.1855 -0.9638
vn -0.1908 0.2077 -0.9594
vn -0.0000 0.2077 -0.9782
vn -0.1892 0.2435 -0.9513
vn -0.0000 0.2435 -0.9699
vn -0.1882 0.2635 -0.9461
vn -0.0000 0.2635 -0.9647
vn -0.1871 0.2838 -0.9405
vn -0.0000 0.2838 -0.9589
vn -0.1849 0.3185 -0.9297
vn -0.0000 0.3185 -0.9479
vn -0.1822 0.3577 -0.9159
vn -0.0000 0.3577 -0.9338
vn -0.1758 0.4338 -0.8837
vn -0.0000 0.4338 -0.9010
vn -0.1648 0.5353 -0.8284
vn -0.0000 0.5353 -0.8447
vn 0.6948 0.1855 -0.6948
vn 0.6917 0.2077 -0.6917
vn 0.6858 0.2435 -0.6858
vn 0.6821 0.2635 -0.6821
vn 0.6780 0.2838 -0.6780
vn 0.6703 0.3185 -0.6703
vn 0.6603 0.3577 -0.6603
vn 0.6371 0.4338 -0.6371
vn 0.5973 0.5353 -0.5973
vn -0.1917 0.1855 0.9638
vn -0.1908 0.2077 0.9594
vn -0.1892 0.2435 0.9513
vn -0.1882 0.2635 0.9461
vn -0.1871 0.2838 0.9405
vn -0.1849 0.3185 0.9297
vn -0.1822 0.3577 0.9159
vn -0.1758 0.4338 0.8837
vn -0.1648 0.5353 0.8284
vn -0.3760 0.1855 -0.9078
vn -0.3743 0.2077 -0.9037
vn -0.3712 0.2435 -0.8961
vn -0.3692 0.2635 -0.8912
vn -0.3670 0.2838 -0.8859
vn -0.3628 0.3185 -0.8758
vn -0.3574 0.3577 -0.8627
vn -0.3448 0.4338 -0.8324
vn -0.3232 0.5353 -0.7804
vn 0.5459 0.1855 -0.8170
vn 0.5435 0.2077 -0.8133
vn 0.5388 0.2435 -0.8064
vn 0.5359 0.2635 -0.8021
vn 0.5327 0.2838 -0.7973
vn 0.5266 0.3185 -0.7882
vn 0.5188 0.3577 -0.7764
vn 0.5006 0.4338 -0.7492
vn 0.4693 0.5353 -0.7023
vn -0.0000 0.1855 0.9826
vn -0.0000 0.2077 0.9782
vn -0.0000 0.2435 0.9699
vn -0.0000 0.2635 0.9647
vn -0.0000 0.2838 0.9589
vn -0.0000 0.3185 0.9479
vn -0.0000 0.3577 0.9338
vn -0.0000 0.4338 0.9010
vn -0.0000 0.5353 0.8447
vn -0.5459 0.1855 -0.8170
vn -0.5435 0.2077 -0.8133
vn -0.5388 0.2435 -0.8064
vn -0.5359 0.2635 -0.8021
vn -0.5327 0.2838 -0.7973
vn -0.5266 0.3185 -0.7882
vn -0.5188 0.3577 -0.7764
vn -0.5006 0.4338 -0.7492
vn -0.4693 0.5353 -0.7023
vn 0.3760 0.1855 -0.9078
vn 0.3743 0.2077 -0.9037
vn 0.3712 0.2435 -0.8961
vn 0.3692 0.2635 -0.8912
vn 0.3670 0.2838 -0.8859
vn 0.3628 0.3185 -0.8758
vn 0.3574 0.3577 -0.8627
vn 0.3448 0.4338 -0.8324
vn 0.3232 0.5353 -0.7804
vn 0.1917 0.1855 0.9638
vn 0.1908 0.2077 0.9594
vn 0.1892 0.2435 0.9513
vn 0.1882 0.2635 0.9461
vn 0.1871 0.2838 0.9405
vn 0.1849 0.3185 0.9297
vn 0.1822 0.3577 0.9159
vn 0.1758 0.4338 0.8837
vn 0.1648 0.5353 0.8284
vn -0.6948 0.1855 -0.6948
vn -0.6917 0.2077 -0.6917
vn -0.6858 0.2435 -0.6858
vn -0.6821 0.2635 -0.6821
vn -0.6780 0.2838 -0.6780
vn -0.6703 0.3185 -0.6703
vn -0.6603 0.3577 -0.6603
vn -0.6371 0.4338 -0.6371
vn -0.5973 0.5353 -0.5973
vn 0.1917 0.1855 -0.9638
vn 0.1908 0.2077 -0.9594
vn 0.1892 0.2435 -0.9513
vn 0.1882 0.2635 -0.9461
vn 0.1871 0.2838 -0.9405
vn 0.1849 0.3185 -0.9297
vn 0.1822 0.3577 -0.9159
vn 0.1758 0.4338 -0.8837
vn 0.1648 0.5353 -0.8284
vn 0.3760 0.1855 0.9078
vn 0.3743 0.2077 0.9037
vn 0.3712 0.2435 0.8961
vn 0.3692 0.2635 0.8912
vn 0.3670 0.2838 0.8859
vn 0.3628 0.3185 0.8758
vn 0.3574 0.3577 0.8627
vn 0.3448 0.4338 0.8324
vn 0.3232 0.5353 0.7804
vn -0.8170 0.1855 -0.5459
vn -0.8133 0.2077 -0.5435
vn -0.8064 0.2435 -0.5388
vn -0.8021 0.2635 -0.5359
vn -0.7973 0.2838 -0.5327
vn -0.7882 0.3185 -0.5266
vn -0.7764 0.3577 -0.5188
vn -0.7492 0.4338 -0.5006
vn -0.7023 0.5353 -0.4693
vn 0.5459 0.1855 0.8170
vn 0.5435 0.2077 0.8133
vn 0.5388 0.2435 0.8064
vn 0.5359 0.2635 0.8021
vn 0.5327 0.2838 0.7973
vn 0.5266 0.3185 0.7882
vn 0.5188 0.3577 0.7764
vn 0.5006 0.4338 0.7492
vn 0.4693 0.5353 0.7023
vn -0.9078 0.1855 -0.3760
vn -0.9037 0.2077 -0.3743
vn -0.8961 0.2435 -0.3712
vn -0.8912 0.2635 -0.3692
vn -0.8859 0.2838 -0.3670
vn -0.8758 0.3185 -0.3628
vn -0.8627 0.3577 -0.3574
vn -0.8324 0.4338 -0.3448
vn -0.7804 0.5353 -0.3232
vn 0.6948 0.1855 0.6948
vn 0.6917 0.2077 0.6917
vn 0.6858 0.2435 0.6858
vn 0.6821 0.2635 0.6821
vn 0.6780 0.2838 0.6780
vn 0.6703 0.3185 0.6703
vn 0.6603 0.3577 0.6603
vn 0.6371 0.4338 0.6371
vn 0.5973 0.5353 0.5973
vn -0.9638 0.1855 -0.1917
vn -0.9594 0.2077 -0.1908
vn -0.9513 0.2435 -0.1892
vn -0.9461 0.2635 -0.1882
vn -0.9405 0.2838 -0.1871
vn -0.9297 0.3185 -0.1849
vn -0.9159 0.3577 -0.1822
vn -0.8837 0.4338 -0.1758
vn -0.8284 0.5353 -0.1648
vn 0.8170 0.1855 0.5459
vn 0.8133 0.2077 0.5435
vn 0.8064 0.2435 0.5388
vn 0.8021 0.2635 0.5359
vn 0.7973 0.2838 0.5327
vn 0.7882 0.3185 0.5266
vn 0.7764 0.3577 0.5188
vn 0.7492 0.4338 0.5006
vn 0.7023 0.5353 0.4693
vn -0.9826 0.1855 -0.0000
vn -0.9782 0.2077 -0.0000
vn -0.9699 0.2435 -0.0000
vn -0.9647 0.2635 -0.0000
vn -0.9589 0.2838 -0.0000
vn -0.9479 0.3185 -0.0000
vn -0.9338 0.3577 -0.0000
vn -0.9010 0.4338 -0.0000
vn -0.8447 0.5353 -0.0000
vn 0.9078 0.1855 0.3760
vn 0.9037 0.2077 0.3743
vn 0.8961 0.2435 0.3712
vn 0.8912 0.2635 0.3692
vn 0.8859 0.2838 0.3670
vn 0.8758 0.3185 0.3628
vn 0.8627 0.3577 0.3574
vn 0.8324 0.4338 0.3448
vn 0.7804 0.5353 0.3232
vn -0.9638 0.1855 0.1917
vn -0.9594 0.2077 0.1908
vn -0.9513 0.2435 0.1892
vn -0.9461 0.2635 0.1882
vn -0.9405 0.2838 0.1871
vn -0.9297 0.3185 0.1849
vn -0.9159 0.3577 0.1822
vn -0.8837 0.4338 0.1758
vn -0.8284 0.5353 0.1648
vn 0.9638 0.1855 0.1917
vn 0.9594 0.2077 0.1908
vn 0.9513 0.2435 0.1892
vn 0.9461 0.2635 0.1882
vn 0.9405 0.2838 0.1871
vn 0.9297 0.3185 0.1849
vn 0.9159 0.3577 0.1822
vn 0.8837 0.4338 0.1758
vn 0.8284 0.5353 0.1648
vn -0.9078 0.1855 0.3760
vn -0.9037 0.2077 0.3743
vn -0.8961 0.2435 0.3712
vn -0.8912 0.2635 0.3692
vn -0.8859 0.2838 0.3670
vn -0.8758 0.3185 0.3628
vn -0.8627 0.3577 0.3574
vn -0.8324 0.4338 0.3448
vn -0.7804 0.5353 0.3232
vn 0.7511 0.6431 -0.1494
vn 0.7658 0.6431 -0.0000
vn 0.6482 0.7505 -0.1289
vn 0.6609 0.7505 -0.0000
vn -0.5415 0.6431 0.5415
vn -0.6367 0.6431 0.4255
vn -0.4673 0.7505 0.4673
vn -0.5495 0.7505 0.3671
vn 0.7075 0.6431 -0.2931
vn 0.6105 0.7505 -0.2529
vn -0.4255 0.6431 0.6367
vn -0.3672 0.7505 0.5495
vn 0.6367 0.6431 -0.4255
vn 0.5495 0.7505 -0.3671
vn -0.2931 0.6431 0.7075
vn -0.2529 0.7505 0.6105
vn -0.1494 0.6431 -0.7511
vn -0.0000 0.6431 -0.7658
vn -0.1289 0.7505 -0.6482
vn -0.0000 0.7505 -0.6609
vn 0.5415 0.6431 -0.5415
vn 0.4673 0.7505 -0.4673
vn -0.1494 0.6431 0.7511
vn -0.1289 0.7505 0.6482
vn -0.2931 0.6431 -0.7075
vn -0.2529 0.7505 -0.6105
vn 0.4255 0.6431 -0.6367
vn 0.3671 0.7505 -0.5495
vn -0.0000 0.6431 0.7658
vn -0.0000 0.7505 0.6609
vn -0.4255 0.6431 -0.6367
vn -0.3671 0.7505 -0.5495
vn 0.2931 0.6431 -0.7075
vn 0.2529 0.7505 -0.6105
vn 0.1494 0.6431 0.7511
vn 0.1289 0.7505 0.6482
vn -0.5415 0.6431 -0.5415
vn -0.4673 0.7505 -0.4673
vn 0.1494 0.6431 -0.7511
vn 0.1289 0.7505 -0.6482
vn 0.2931 0.6431 0.7075
vn 0.2529 0.7505 0.6105
vn -0.6367 0.6431 -0.4255
vn -0.5495 0.7505 -0.3671
vn 0.4255 0.6431 0.6367
vn 0.3672 0.7505 0.5495
vn -0.7075 0.6431 -0.2931
vn -0.6105 0.7505 -0.2529
vn 0.5415 0.6431 0.5415
vn 0.4673 0.7505 0.4673
vn -0.7511 0.6431 -0.1494
vn -0.6482 0.7505 -0.1289
vn 0.6367 0.6431 0.4255
vn 0.5495 0.7505 0.3671
vn -0.7658 0.6431 -0.0000
vn -0.6609 0.7505 -0.0000
vn 0.7075 0.6431 0.2931
vn 0.6105 0.7505 0.2529
vn -0.7511 0.6431 0.1494
vn -0.6482 0.7505 0.1289
vn 0.7511 0.6431 0.1494
vn 0.6482 0.7505 0.1289
vn -0.7075 0.6431 0.2931
vn -0.6105 0.7505 0.2529
vn 0.5006 0.8600 -0.0996
vn 0.5104 0.8600 -0.0000
vn -0.3609 0.8600 0.3609
vn -0.4243 0.8600 0.2835
vn 0.4715 0.8600 -0.1953
vn -0.2835 0.8600 0.4243
vn 0.4243 0.8600 -0.2835
vn -0.1953 0.8600 0.4715
vn -0.0996 0.8600 -0.5005
vn -0.0000 0.8600 -0.5104
vn 0.3609 0.8600 -0.3609
vn -0.0996 0.8600 0.5005
vn -0.1953 0.8600 -0.4715
vn 0.2835 0.8600 -0.4243
vn -0.0000 0.8600 0.5104
vn -0.2835 0.8600 -0.4243
vn 0.1953 0.8600 -0.4715
vn 0.0996 0.8600 0.5005
vn -0.3609 0.8600 -0.3609
vn 0.0996 0.8600 -0.5005
vn 0.1953 0.8600 0.4715
vn -0.4243 0.8600 -0.2835
vn 0.2835 0.8600 0.4243
vn -0.4715 0.8600 -0.1953
vn 0.3609 0.8600 0.3609
vn -0.5005 0.8600 -0.0996
vn 0.4243 0.8600 0.2835
vn -0.5104 0.8600 -0.0000
vn 0.4715 0.8600 0.1953
vn -0.5005 0.8600 0.0996
vn 0.5005 0.8600 0.0996
vn -0.4715 0.8600 0.1953
vn 0.9227 -0.0514 0.3822
vn 0.9795 -0.0514 0.1948
vn 0.6981 -0.1590 0.6981
vn 0.5485 -0.1590 0.8209
vn 0.5425 -0.2155 0.8119
vn 0.6905 -0.2155 0.6905
vn -0.9987 -0.0514 -0.0000
vn -0.9795 -0.0514 0.1948
vn 0.8304 -0.0514 0.5548
vn -0.9795 -0.0514 -0.1948
vn 0.7062 -0.0514 0.7062
vn -0.9227 -0.0514 -0.3822
vn 0.5548 -0.0514 0.8304
vn -0.8304 -0.0514 -0.5548
vn 0.3822 -0.0514 0.9227
vn 0.1948 -0.0514 -0.9795
vn -0.0000 -0.0514 -0.9987
vn -0.7062 -0.0514 -0.7062
vn 0.1948 -0.0514 0.9795
vn 0.3822 -0.0514 -0.9227
vn -0.5548 -0.0514 -0.8304
vn -0.0000 -0.0514 0.9987
vn 0.5548 -0.0514 -0.8304
vn -0.3822 -0.0514 -0.9227
vn -0.1948 -0.0514 0.9795
vn 0.7062 -0.0514 -0.7062
vn -0.1948 -0.0514 -0.9795
vn -0.3822 -0.0514 0.9227
vn 0.8304 -0.0514 -0.5548
vn -0.5548 -0.0514 0.8304
vn 0.9227 -0.0514 -0.3822
vn -0.7062 -0.0514 0.7062
vn 0.9795 -0.0514 -0.1948
vn -0.8304 -0.0514 0.5548
vn 0.9987 -0.0514 -0.0000
vn -0.9227 -0.0514 0.3822
vn -0.9121 -0.1590 -0.3778
vn -0.8209 -0.1590 -0.5485
vn -0.8119 -0.2155 -0.5425
vn -0.9022 -0.2155 -0.3737
vn 0.3778 -0.1590 0.9121
vn 0.3737 -0.2155 0.9022
vn -0.0000 -0.1590 -0.9873
vn 0.1926 -0.1590 -0.9683
vn 0.1905 -0.2155 -0.9577
vn -0.0000 -0.2155 -0.9765
vn -0.6981 -0.1590 -0.6981
vn -0.6905 -0.2155 -0.6905
vn 0.1926 -0.1590 0.9683
vn 0.1905 -0.2155 0.9577
vn 0.3778 -0.1590 -0.9121
vn 0.3737 -0.2155 -0.9022
vn -0.5485 -0.1590 -0.8209
vn -0.5425 -0.2155 -0.8119
vn -0.0000 -0.1590 0.9873
vn -0.0000 -0.2155 0.9765
vn 0.5485 -0.1590 -0.8209
vn 0.5425 -0.2155 -0.8119
vn -0.3778 -0.1590 -0.9121
vn -0.3737 -0.2155 -0.9022
vn -0.1926 -0.1590 0.9683
vn -0.1905 -0.2155 0.9577
vn 0.6981 -0.1590 -0.6981
vn 0.6905 -0.2155 -0.6905
vn -0.1926 -0.1590 -0.9683
vn -0.1905 -0.2155 -0.9577
vn -0.3778 -0.1590 0.9121
vn -0.3737 -0.2155 0.9022
vn 0.8209 -0.1590 -0.5485
vn 0.8119 -0.2155 -0.5425
vn -0.5485 -0.1590 0.8209
vn -0.5425 -0.2155 0.8119
vn 0.9121 -0.1590 -0.3778
vn 0.9022 -0.2155 -0.3737
vn -0.6981 -0.1590 0.6981
vn -0.6905 -0.2155 0.6905
vn 0.9683 -0.1590 -0.1926
vn 0.9577 -0.2155 -0.1905
vn -0.8209 -0.1590 0.5485
vn -0.8119 -0.2155 0.5425
vn 0.9873 -0.1590 -0.0000
vn 0.9765 -0.2155 -0.0000
vn -0.9121 -0.1590 0.3778
vn -0.9022 -0.2155 0.3737
vn 0.9683 -0.1590 0.1926
vn 0.9577 -0.2155 0.1905
vn -0.9683 -0.1590 0.1926
vn -0.9577 -0.2155 0.1905
vn 0.9121 -0.1590 0.3778
vn 0.9022 -0.2155 0.3737
vn -0.9873 -0.1590 -0.0000
vn -0.9765 -0.2155 -0.0000
vn 0.8209 -0.1590 0.5485
vn 0.8119 -0.2155 0.5425
vn -0.9683 -0.1590 -0.1926
vn -0.9577 -0.2155 -0.1905
vt 1.000000 0.500000
vt 1.000000 1.000000
vt 0.968750 1.000000
vt 0.968750 0.500000
vt 0.937500 1.000000
vt 0.937500 0.500000
vt 0.906250 1.000000
vt 0.906250 0.500000
vt 0.875000 1.000000
vt 0.875000 0.500000
vt 0.843750 1.000000
vt 0.843750 0.500000
vt 0.812500 1.000000
vt 0.812500 0.500000
vt 0.781250 1.000000
vt 0.781250 0.500000
vt 0.750000 1.000000
vt 0.750000 0.500000
vt 0.718750 1.000000
vt 0.718750 0.500000
vt 0.687500 1.000000
vt 0.687500 0.500000
vt 0.656250 1.000000
vt 0.656250 0.500000
vt 0.625000 1.000000
vt 0.625000 0.500000
vt 0.593750 1.000000
vt 0.593750 0.500000
vt 0.562500 1.000000
vt 0.562500 0.500000
vt 0.531250 1.000000
vt 0.531250 0.500000
vt 0.500000 1.000000
vt 0.500000 0.500000
vt 0.468750 1.000000
vt 0.468750 0.500000
vt 0.437500 1.000000
vt 0.437500 0.500000
vt 0.406250 1.000000
vt 0.406250 0.500000
vt 0.375000 1.000000
vt 0.375000 0.500000
vt 0.343750 1.000000
vt 0.343750 0.500000
vt 0.312500 1.000000
vt 0.312500 0.500000
vt 0.281250 1.000000
vt 0.281250 0.500000
vt 0.250000 1.000000
vt 0.250000 0.500000
vt 0.218750 1.000000
vt 0.218750 0.500000
vt 0.187500 1.000000
vt 0.187500 0.500000
vt 0.156250 1.000000
vt 0.156250 0.500000
vt 0.125000 1.000000
vt 0.125000 0.500000
vt 0.093750 1.000000
vt 0.093750 0.500000
vt 0.062500 1.000000
vt 0.062500 0.500000
vt 0.031250 1.000000
vt 0.031250 0.500000
vt 0.000000 1.000000
vt 0.000000 0.500000
vt 0.343750 1.000000
vt 0.296822 0.485388
vt 0.250000 0.490000
vt 0.203178 0.485388
vt 0.158156 0.471731
vt 0.116663 0.449553
vt 0.080294 0.419706
vt 0.050447 0.383337
vt 0.028269 0.341844
vt 0.014612 0.296822
vt 0.010000 0.250000
vt 0.014612 0.203178
vt 0.028269 0.158156
vt 0.050447 0.116663
vt 0.080294 0.080294
vt 0.116663 0.050447
vt 0.158156 0.028269
vt 0.203178 0.014612
vt 0.250000 0.010000
vt 0.296822 0.014612
vt 0.341844 0.028269
vt 0.383337 0.050447
vt 0.419706 0.080294
vt 0.449553 0.116663
vt 0.471731 0.158156
vt 0.485388 0.203178
vt 0.490000 0.250000
vt 0.485388 0.296822
vt 0.471731 0.341844
vt 0.449553 0.383337
vt 0.419706 0.419706
vt 0.383337 0.449553
vt 0.341844 0.471731
vt 0.250000 1.000000
vt 0.624999 1.000000
vt 0.593750 1.000000
vt 0.562499 1.000000
vt 0.468750 1.000000
vt 0.875000 1.000000
vt 0.031250 1.000000
vt 0.843750 1.000000
vt 0.781250 1.000000
vt 0.343750 1.000000
vt 0.812500 1.000000
vt 0.406250 1.000000
vt 0.843750 1.000000
vt 0.937500 1.000000
vt 0.968750 1.000000
vt 0.656250 1.000000
vt 0.687500 1.000000
vt 0.718750 1.000000
vt 0.468750 1.000000
vt 0.937500 1.000000
vt 0.750000 0.490000
vt 0.796822 0.485388
vt 0.841844 0.471731
vt 0.883337 0.449553
vt 0.919706 0.419706
vt 0.949553 0.383337
vt 0.971731 0.341844
vt 0.985388 0.296822
vt 0.990000 0.250000
vt 0.985388 0.203178
vt 0.971731 0.158156
vt 0.949553 0.116663
vt 0.919706 0.080294
vt 0.883337 0.050447
vt 0.841844 0.028269
vt 0.796822 0.014612
vt 0.750000 0.010000
vt 0.703178 0.014612
vt 0.658156 0.028269
vt 0.616663 0.050447
vt 0.580294 0.080294
vt 0.550447 0.116663
vt 0.528269 0.158156
vt 0.514612 0.203178
vt 0.510000 0.250000
vt 0.514612 0.296822
vt 0.528269 0.341844
vt 0.550447 0.383337
vt 0.580294 0.419706
vt 0.616663 0.449553
vt 0.658156 0.471731
vt 0.703178 0.485388
s 1
f 1/1/1 2/2/1 4/3/2 3/4/2
f 3/4/2 4/3/2 6/5/3 5/6/3
f 5/6/3 6/5/3 8/7/4 7/8/4
f 7/8/4 8/7/4 10/9/5 9/10/5
f 9/10/5 10/9/5 12/11/6 11/12/6
f 11/12/6 12/11/6 14/13/7 13/14/7
f 13/14/7 14/13/7 16/15/8 15/16/8
f 15/16/8 16/15/8 18/17/9 17/18/9
f 17/18/9 18/17/9 20/19/10 19/20/10
f 19/20/10 20/19/10 22/21/11 21/22/11
f 21/22/11 22/21/11 24/23/12 23/24/12
f 23/24/12 24/23/12 26/25/13 25/26/13
f 25/26/13 26/25/13 28/27/14 27/28/14
f 27/28/14 28/27/14 30/29/15 29/30/15
f 29/30/15 30/29/15 32/31/16 31/32/16
f 31/32/16 32/31/16 34/33/17 33/34/17
f 33/34/17 34/33/17 36/35/18 35/36/18
f 35/36/18 36/35/18 38/37/19 37/38/19
f 37/38/19 38/37/19 40/39/20 39/40/20
f 39/40/20 40/39/20 42/41/21 41/42/21
f 41/42/21 42/41/21 44/43/22 43/44/22
f 43/44/22 44/43/22 46/45/23 45/46/23
f 45/46/23 46/45/23 48/47/24 47/48/24
f 47/48/24 48/47/24 50/49/25 49/50/25
f 49/50/25 50/49/25 52/51/26 51/52/26
f 51/52/26 52/51/26 54/53/27 53/54/27
f 53/54/27 54/53/27 56/55/28 55/56/28
f 55/56/28 56/55/28 58/57/29 57/58/29
f 57/58/29 58/57/29 60/59/30 59/60/30
f 59/60/30 60/59/30 62/61/31 61/62/31
f 14/13/32 12/11/32 70/11/32 71/13/32
f 61/62/31 62/61/31 64/63/33 63/64/33
f 63/64/33 64/63/33 2/65/1 1/66/1
f 3/4/34 5/6/34 579/6/34 578/4/34
f 94/59/30 93/57/29 125/57/29 126/59/30
f 32/31/32 30/29/32 79/29/32 80/31/32
f 50/49/32 48/47/32 88/47/32 89/49/32
f 6/5/32 4/3/32 66/3/32 67/5/32
f 24/23/32 22/21/32 75/21/32 76/23/32
f 42/41/32 40/39/32 84/39/32 85/41/32
f 60/59/32 58/57/32 93/57/32 94/59/32
f 16/15/32 14/13/32 71/13/32 72/15/32
f 34/33/32 32/31/32 80/31/32 81/33/32
f 52/51/32 50/49/32 89/49/32 90/51/32
f 8/7/32 6/5/32 67/5/32 68/7/32
f 26/25/32 24/23/32 76/23/32 77/25/32
f 44/43/32 42/41/32 85/41/32 86/43/32
f 62/61/32 60/59/32 94/59/32 95/61/32
f 18/17/32 16/15/32 72/15/32 73/17/32
f 36/35/32 34/33/32 81/33/32 82/35/32
f 54/53/32 52/51/32 90/51/32 91/53/32
f 10/9/32 8/7/32 68/7/32 69/9/32
f 28/27/32 26/25/32 77/25/32 78/27/32
f 46/45/32 44/43/32 86/43/32 87/45/32
f 64/63/32 62/61/32 95/61/32 96/63/32
f 20/19/32 18/17/32 73/17/32 74/19/32
f 38/37/32 36/35/32 82/35/32 83/37/32
f 56/55/32 54/53/32 91/53/32 92/55/32
f 12/11/32 10/9/32 69/9/32 70/11/32
f 30/29/32 28/27/32 78/27/32 79/29/32
f 48/47/32 46/45/32 87/45/32 88/47/32
f 4/3/32 2/2/32 65/2/32 66/3/32
f 2/65/32 64/63/32 96/63/32 65/65/32
f 22/21/32 20/19/32 74/19/32 75/21/32
f 40/39/32 38/37/32 83/37/32 84/39/32
f 58/57/32 56/55/32 92/55/32 93/57/32
f 97/65/34 128/63/34 160/63/34 129/65/34
f 81/33/17 80/31/16 112/31/16 113/33/17
f 68/7/4 67/5/3 99/5/3 100/7/4
f 95/61/31 94/59/30 126/59/30 127/61/31
f 82/35/18 81/33/17 113/33/17 114/35/18
f 69/9/5 68/7/4 100/7/4 101/9/5
f 96/63/33 95/61/31 127/61/31 128/63/33
f 83/37/19 82/35/18 114/35/18 115/37/19
f 70/11/6 69/9/5 101/9/5 102/11/6
f 65/65/1 96/63/33 128/63/33 97/65/1
f 84/39/20 83/37/19 115/37/19 116/39/20
f 71/13/7 70/11/6 102/11/6 103/13/7
f 85/41/21 84/39/20 116/39/20 117/41/21
f 72/15/8 71/13/7 103/13/7 104/15/8
f 86/43/22 85/41/21 117/41/21 118/43/22
f 73/17/9 72/15/8 104/15/8 105/17/9
f 87/45/23 86/43/22 118/43/22 119/45/23
f 74/19/10 73/17/9 105/17/9 106/19/10
f 88/47/24 87/45/23 119/45/23 120/47/24
f 75/21/11 74/19/10 106/19/10 107/21/11
f 89/49/25 88/47/24 120/47/24 121/49/25
f 76/23/12 75/21/11 107/21/11 108/23/12
f 90/51/26 89/49/25 121/49/25 122/51/26
f 77/25/13 76/23/12 108/23/12 109/25/13
f 91/53/27 90/51/26 122/51/26 123/53/27
f 78/27/14 77/25/13 109/25/13 110/27/14
f 92/55/28 91/53/27 123/53/27 124/55/28
f 79/29/15 78/27/14 110/27/14 111/29/15
f 66/3/2 65/2/1 97/2/1 98/3/2
f 93/57/29 92/55/28 124/55/28 125/57/29
f 80/31/16 79/29/15 111/29/15 112/31/16
f 67/5/3 66/3/2 98/3/2 99/5/3
f 548/45/35 545/67/36 182/43/37 183/45/38
f 116/39/34 115/37/34 147/37/34 148/39/34
f 103/13/34 102/11/34 134/11/34 135/13/34
f 117/41/34 116/39/34 148/39/34 149/41/34
f 104/15/34 103/13/34 135/13/34 136/15/34
f 118/43/34 117/41/34 149/41/34 150/43/34
f 105/17/34 104/15/34 136/15/34 137/17/34
f 119/45/34 118/43/34 150/43/34 151/45/34
f 106/19/34 105/17/34 137/17/34 138/19/34
f 120/47/34 119/45/34 151/45/34 152/47/34
f 107/21/34 106/19/34 138/19/34 139/21/34
f 121/49/34 120/47/34 152/47/34 153/49/34
f 108/23/34 107/21/34 139/21/34 140/23/34
f 122/51/34 121/49/34 153/49/34 154/51/34
f 109/25/34 108/23/34 140/23/34 141/25/34
f 123/53/34 122/51/34 154/51/34 155/53/34
f 110/27/34 109/25/34 141/25/34 142/27/34
f 124/55/34 123/53/34 155/53/34 156/55/34
f 111/29/34 110/27/34 142/27/34 143/29/34
f 98/3/34 97/2/34 129/2/34 130/3/34
f 125/57/34 124/55/34 156/55/34 157/57/34
f 112/31/34 111/29/34 143/29/34 144/31/34
f 99/5/34 98/3/34 130/3/34 131/5/34
f 126/59/34 125/57/34 157/57/34 158/59/34
f 113/33/34 112/31/34 144/31/34 145/33/34
f 100/7/34 99/5/34 131/5/34 132/7/34
f 127/61/34 126/59/34 158/59/34 159/61/34
f 114/35/34 113/33/34 145/33/34 146/35/34
f 101/9/34 100/7/34 132/7/34 133/9/34
f 128/63/34 127/61/34 159/61/34 160/63/34
f 115/37/34 114/35/34 146/35/34 147/37/34
f 102/11/34 101/9/34 133/9/34 134/11/34
f 162/68/39 161/69/40 192/70/41 191/71/42 190/72/43 189/73/44 188/74/45 187/75/46 186/76/47 185/77/48 184/78/49 183/79/38 182/80/37 181/81/50 180/82/51 179/83/52 178/84/53 177/85/54 176/86/55 175/87/56 174/88/57 173/89/58 172/90/59 171/91/60 170/92/61 169/93/62 168/94/63 167/95/64 166/96/65 165/97/66 164/98/67 163/99/68
f 549/19/69 546/17/70 169/17/62 170/19/61
f 550/47/71 548/45/35 183/45/38 184/47/49
f 551/21/72 549/19/69 170/19/61 171/21/60
f 552/100/73 550/47/71 184/47/49 185/49/48
f 553/23/74 551/21/72 171/21/60 172/23/59
f 554/51/75 552/100/73 185/49/48 186/51/47
f 555/101/76 553/23/74 172/23/59 173/25/58
f 556/53/77 554/51/75 186/51/47 187/53/46
f 557/102/78 555/101/76 173/25/58 174/27/57
f 558/55/79 556/53/77 187/53/46 188/55/45
f 559/103/80 557/102/78 174/27/57 175/29/56
f 560/3/81 547/2/82 161/2/40 162/3/39
f 561/57/83 558/55/79 188/55/45 189/57/44
f 562/31/84 559/103/80 175/29/56 176/31/55
f 563/5/85 560/3/81 162/3/39 163/5/68
f 564/59/86 561/57/83 189/57/44 190/59/43
f 565/33/87 562/31/84 176/31/55 177/33/54
f 566/7/88 563/5/85 163/5/68 164/7/67
f 567/61/89 564/59/86 190/59/43 191/61/42
f 568/104/90 565/33/87 177/33/54 178/35/53
f 569/105/91 566/7/88 164/7/67 165/9/66
f 570/106/92 567/61/89 191/61/42 192/63/41
f 571/37/93 568/104/90 178/35/53 179/37/52
f 572/107/94 569/105/91 165/9/66 166/11/65
f 547/65/82 570/106/92 192/63/41 161/65/40
f 573/39/95 571/37/93 179/37/52 180/39/51
f 574/13/96 572/107/94 166/11/65 167/13/64
f 575/41/97 573/39/95 180/39/51 181/41/50
f 576/15/98 574/13/96 167/13/64 168/15/63
f 545/67/36 575/41/97 181/41/50 182/43/37
f 546/17/70 576/15/98 168/15/63 169/17/62
f 137/17/99 136/15/100 448/15/101 209/17/102
f 209/17/102 448/15/101 447/15/103 210/17/104
f 210/17/104 447/15/103 446/15/105 211/17/106
f 211/17/106 446/15/105 445/15/107 212/17/108
f 212/17/108 445/15/107 444/15/109 213/17/110
f 213/17/110 444/15/109 443/108/111 214/17/112
f 214/17/112 443/108/111 442/108/113 215/17/114
f 215/17/114 442/108/113 441/108/115 216/17/116
f 150/43/117 149/41/118 440/41/119 193/43/120
f 193/43/120 440/41/119 439/41/121 194/43/122
f 194/43/122 439/41/121 438/41/123 195/43/124
f 195/43/124 438/41/123 437/41/125 196/109/126
f 196/109/126 437/41/125 436/41/127 197/109/128
f 197/109/128 436/41/127 435/41/129 198/109/130
f 198/109/130 435/41/129 434/41/131 199/109/132
f 199/109/132 434/41/131 433/41/133 200/43/134
f 136/15/100 135/13/135 432/13/136 448/15/101
f 448/15/101 432/13/136 431/13/137 447/15/103
f 447/15/103 431/13/137 430/110/138 446/15/105
f 446/15/105 430/110/138 429/110/139 445/15/107
f 445/15/107 429/110/139 428/13/140 444/15/109
f 444/15/109 428/13/140 427/13/141 443/108/111
f 443/108/111 427/13/141 426/13/142 442/108/113
f 442/108/113 426/13/142 425/13/143 441/108/115
f 149/41/118 148/39/144 424/39/145 440/41/119
f 440/41/119 424/39/145 423/39/146 439/41/121
f 439/41/121 423/39/146 422/111/147 438/41/123
f 438/41/123 422/111/147 421/111/148 437/41/125
f 437/41/125 421/111/148 420/39/149 436/41/127
f 436/41/127 420/39/149 419/39/150 435/41/129
f 435/41/129 419/39/150 418/39/151 434/41/131
f 434/41/131 418/39/151 417/39/152 433/41/133
f 135/13/135 134/11/153 416/11/154 432/13/136
f 432/13/136 416/11/154 415/112/155 431/13/137
f 431/13/137 415/112/155 414/11/156 430/110/138
f 430/110/138 414/11/156 413/11/157 429/110/139
f 429/110/139 413/11/157 412/11/158 428/13/140
f 428/13/140 412/11/158 411/11/159 427/13/141
f 427/13/141 411/11/159 410/11/160 426/13/142
f 426/13/142 410/11/160 409/11/161 425/13/143
f 148/39/144 147/37/162 408/37/163 424/39/145
f 424/39/145 408/37/163 407/37/164 423/39/146
f 423/39/146 407/37/164 406/37/165 422/111/147
f 422/111/147 406/37/165 405/37/166 421/111/148
f 421/111/148 405/37/166 404/37/167 420/39/149
f 420/39/149 404/37/167 403/37/168 419/39/150
f 419/39/150 403/37/168 402/37/169 418/39/151
f 418/39/151 402/37/169 401/37/170 417/39/152
f 129/65/171 160/63/172 400/63/173 305/65/174
f 305/65/174 400/63/173 399/63/175 306/65/176
f 306/65/176 399/63/175 398/63/177 307/65/178
f 307/65/178 398/63/177 397/63/179 308/65/180
f 308/65/180 397/63/179 396/63/181 309/65/182
f 309/65/182 396/63/181 395/63/183 310/65/184
f 310/65/184 395/63/183 394/63/185 311/65/186
f 311/65/186 394/63/185 393/63/187 312/65/188
f 134/11/153 133/9/189 392/9/190 416/11/154
f 416/11/154 392/9/190 391/9/191 415/112/155
f 415/112/155 391/9/191 390/9/192 414/11/156
f 414/11/156 390/9/192 389/9/193 413/11/157
f 413/11/157 389/9/193 388/9/194 412/11/158
f 412/11/158 388/9/194 387/9/195 411/11/159
f 411/11/159 387/9/195 386/9/196 410/11/160
f 410/11/160 386/9/196 385/9/197 409/11/161
f 147/37/162 146/35/198 384/35/199 408/37/163
f 408/37/163 384/35/199 383/35/200 407/37/164
f 407/37/164 383/35/200 382/104/201 406/37/165
f 406/37/165 382/104/201 381/104/202 405/37/166
f 405/37/166 381/104/202 380/104/203 404/37/167
f 404/37/167 380/104/203 379/104/204 403/37/168
f 403/37/168 379/104/204 378/35/205 402/37/169
f 402/37/169 378/35/205 377/35/206 401/37/170
f 160/63/172 159/61/207 376/61/208 400/63/173
f 400/63/173 376/61/208 375/61/209 399/63/175
f 399/63/175 375/61/209 374/61/210 398/63/177
f 398/63/177 374/61/210 373/61/211 397/63/179
f 397/63/179 373/61/211 372/61/212 396/63/181
f 396/63/181 372/61/212 371/61/213 395/63/183
f 395/63/183 371/61/213 370/61/214 394/63/185
f 394/63/185 370/61/214 369/61/215 393/63/187
f 133/9/189 132/7/216 368/7/217 392/9/190
f 392/9/190 368/7/217 367/7/218 391/9/191
f 391/9/191 367/7/218 366/7/219 390/9/192
f 390/9/192 366/7/219 365/7/220 389/9/193
f 389/9/193 365/7/220 364/7/221 388/9/194
f 388/9/194 364/7/221 363/7/222 387/9/195
f 387/9/195 363/7/222 362/7/223 386/9/196
f 386/9/196 362/7/223 361/7/224 385/9/197
f 146/35/198 145/33/225 360/33/226 384/35/199
f 384/35/199 360/33/226 359/33/227 383/35/200
f 383/35/200 359/33/227 358/33/228 382/104/201
f 382/104/201 358/33/228 357/33/229 381/104/202
f 381/104/202 357/33/229 356/33/230 380/104/203
f 380/104/203 356/33/230 355/33/231 379/104/204
f 379/104/204 355/33/231 354/33/232 378/35/205
f 378/35/205 354/33/232 353/33/233 377/35/206
f 159/61/207 158/59/234 352/59/235 376/61/208
f 376/61/208 352/59/235 351/59/236 375/61/209
f 375/61/209 351/59/236 350/59/237 374/61/210
f 374/61/210 350/59/237 349/59/238 373/61/211
f 373/61/211 349/59/238 348/59/239 372/61/212
f 372/61/212 348/59/239 347/59/240 371/61/213
f 371/61/213 347/59/240 346/59/241 370/61/214
f 370/61/214 346/59/241 345/59/242 369/61/215
f 132/7/216 131/5/243 344/5/244 368/7/217
f 368/7/217 344/5/244 343/5/245 367/7/218
f 367/7/218 343/5/245 342/113/246 366/7/219
f 366/7/219 342/113/246 341/113/247 365/7/220
f 365/7/220 341/113/247 340/113/248 364/7/221
f 364/7/221 340/113/248 339/113/249 363/7/222
f 363/7/222 339/113/249 338/5/250 362/7/223
f 362/7/223 338/5/250 337/5/251 361/7/224
f 145/33/225 144/31/252 336/31/253 360/33/226
f 360/33/226 336/31/253 335/31/254 359/33/227
f 359/33/227 335/31/254 334/31/255 358/33/228
f 358/33/228 334/31/255 333/31/256 357/33/229
f 357/33/229 333/31/256 332/31/257 356/33/230
f 356/33/230 332/31/257 331/31/258 355/33/231
f 355/33/231 331/31/258 330/31/259 354/33/232
f 354/33/232 330/31/259 329/31/260 353/33/233
f 158/59/234 157/57/261 328/57/262 352/59/235
f 352/59/235 328/57/262 327/57/263 351/59/236
f 351/59/236 327/57/263 326/57/264 350/59/237
f 350/59/237 326/57/264 325/57/265 349/59/238
f 349/59/238 325/57/265 324/57/266 348/59/239
f 348/59/239 324/57/266 323/57/267 347/59/240
f 347/59/240 323/57/267 322/57/268 346/59/241
f 346/59/241 322/57/268 321/57/269 345/59/242
f 131/5/243 130/3/270 320/3/271 344/5/244
f 344/5/244 320/3/271 319/3/272 343/5/245
f 343/5/245 319/3/272 318/114/273 342/113/246
f 342/113/246 318/114/273 317/114/274 341/113/247
f 341/113/247 317/114/274 316/3/275 340/113/248
f 340/113/248 316/3/275 315/3/276 339/113/249
f 339/113/249 315/3/276 314/3/277 338/5/250
f 338/5/250 314/3/277 313/3/278 337/5/251
f 144/31/252 143/29/279 304/29/280 336/31/253
f 336/31/253 304/29/280 303/29/281 335/31/254
f 335/31/254 303/29/281 302/29/282 334/31/255
f 334/31/255 302/29/282 301/29/283 333/31/256
f 333/31/256 301/29/283 300/29/284 332/31/257
f 332/31/257 300/29/284 299/29/285 331/31/258
f 331/31/258 299/29/285 298/29/286 330/31/259
f 330/31/259 298/29/286 297/29/287 329/31/260
f 157/57/261 156/55/288 296/55/289 328/57/262
f 328/57/262 296/55/289 295/55/290 327/57/263
f 327/57/263 295/55/290 294/55/291 326/57/264
f 326/57/264 294/55/291 293/55/292 325/57/265
f 325/57/265 293/55/292 292/55/293 324/57/266
f 324/57/266 292/55/293 291/55/294 323/57/267
f 323/57/267 291/55/294 290/55/295 322/57/268
f 322/57/268 290/55/295 289/55/296 321/57/269
f 130/3/270 129/2/171 305/2/174 320/3/271
f 320/3/271 305/2/174 306/2/176 319/3/272
f 319/3/272 306/2/176 307/2/178 318/114/273
f 318/114/273 307/2/178 308/2/180 317/114/274
f 317/114/274 308/2/180 309/2/182 316/3/275
f 316/3/275 309/2/182 310/2/184 315/3/276
f 315/3/276 310/2/184 311/2/186 314/3/277
f 314/3/277 311/2/186 312/2/188 313/3/278
f 143/29/279 142/27/297 288/27/298 304/29/280
f 304/29/280 288/27/298 287/27/299 303/29/281
f 303/29/281 287/27/299 286/27/300 302/29/282
f 302/29/282 286/27/300 285/27/301 301/29/283
f 301/29/283 285/27/301 284/27/302 300/29/284
f 300/29/284 284/27/302 283/27/303 299/29/285
f 299/29/285 283/27/303 282/27/304 298/29/286
f 298/29/286 282/27/304 281/27/305 297/29/287
f 156/55/288 155/53/306 280/53/307 296/55/289
f 296/55/289 280/53/307 279/53/308 295/55/290
f 295/55/290 279/53/308 278/53/309 294/55/291
f 294/55/291 278/53/309 277/53/310 293/55/292
f 293/55/292 277/53/310 276/53/311 292/55/293
f 292/55/293 276/53/311 275/53/312 291/55/294
f 291/55/294 275/53/312 274/53/313 290/55/295
f 290/55/295 274/53/313 273/53/314 289/55/296
f 142/27/297 141/25/315 272/25/316 288/27/298
f 288/27/298 272/25/316 271/25/317 287/27/299
f 287/27/299 271/25/317 270/25/318 286/27/300
f 286/27/300 270/25/318 269/25/319 285/27/301
f 285/27/301 269/25/319 268/25/320 284/27/302
f 284/27/302 268/25/320 267/25/321 283/27/303
f 283/27/303 267/25/321 266/25/322 282/27/304
f 282/27/304 266/25/322 265/25/323 281/27/305
f 155/53/306 154/51/324 264/51/325 280/53/307
f 280/53/307 264/51/325 263/51/326 279/53/308
f 279/53/308 263/51/326 262/51/327 278/53/309
f 278/53/309 262/51/327 261/51/328 277/53/310
f 277/53/310 261/51/328 260/51/329 276/53/311
f 276/53/311 260/51/329 259/51/330 275/53/312
f 275/53/312 259/51/330 258/51/331 274/53/313
f 274/53/313 258/51/331 257/51/332 273/53/314
f 141/25/315 140/23/333 256/23/334 272/25/316
f 272/25/316 256/23/334 255/23/335 271/25/317
f 271/25/317 255/23/335 254/115/336 270/25/318
f 270/25/318 254/115/336 253/115/337 269/25/319
f 269/25/319 253/115/337 252/23/338 268/25/320
f 268/25/320 252/23/338 251/23/339 267/25/321
f 267/25/321 251/23/339 250/23/340 266/25/322
f 266/25/322 250/23/340 249/23/341 265/25/323
f 154/51/324 153/49/342 248/49/343 264/51/325
f 264/51/325 248/49/343 247/49/344 263/51/326
f 263/51/326 247/49/344 246/49/345 262/51/327
f 262/51/327 246/49/345 245/49/346 261/51/328
f 261/51/328 245/49/346 244/49/347 260/51/329
f 260/51/329 244/49/347 243/49/348 259/51/330
f 259/51/330 243/49/348 242/49/349 258/51/331
f 258/51/331 242/49/349 241/49/350 257/51/332
f 140/23/333 139/21/351 240/21/352 256/23/334
f 256/23/334 240/21/352 239/116/353 255/23/335
f 255/23/335 239/116/353 238/116/354 254/115/336
f 254/115/336 238/116/354 237/116/355 253/115/337
f 253/115/337 237/116/355 236/116/356 252/23/338
f 252/23/338 236/116/356 235/21/357 251/23/339
f 251/23/339 235/21/357 234/21/358 250/23/340
f 250/23/340 234/21/358 233/21/359 249/23/341
f 153/49/342 152/47/360 232/47/361 248/49/343
f 248/49/343 232/47/361 231/47/362 247/49/344
f 247/49/344 231/47/362 230/47/363 246/49/345
f 246/49/345 230/47/363 229/47/364 245/49/346
f 245/49/346 229/47/364 228/47/365 244/49/347
f 244/49/347 228/47/365 227/47/366 243/49/348
f 243/49/348 227/47/366 226/47/367 242/49/349
f 242/49/349 226/47/367 225/47/368 241/49/350
f 139/21/351 138/19/369 224/19/370 240/21/352
f 240/21/352 224/19/370 223/19/371 239/116/353
f 239/116/353 223/19/371 222/117/372 238/116/354
f 238/116/354 222/117/372 221/117/373 237/116/355
f 237/116/355 221/117/373 220/117/374 236/116/356
f 236/116/356 220/117/374 219/117/375 235/21/357
f 235/21/357 219/117/375 218/19/376 234/21/358
f 234/21/358 218/19/376 217/19/377 233/21/359
f 152/47/360 151/45/378 208/45/379 232/47/361
f 232/47/361 208/45/379 207/45/380 231/47/362
f 231/47/362 207/45/380 206/45/381 230/47/363
f 230/47/363 206/45/381 205/45/382 229/47/364
f 229/47/364 205/45/382 204/45/383 228/47/365
f 228/47/365 204/45/383 203/45/384 227/47/366
f 227/47/366 203/45/384 202/45/385 226/47/367
f 226/47/367 202/45/385 201/45/386 225/47/368
f 138/19/369 137/17/99 209/17/102 224/19/370
f 224/19/370 209/17/102 210/17/104 223/19/371
f 223/19/371 210/17/104 211/17/106 222/117/372
f 222/117/372 211/17/106 212/17/108 221/117/373
f 221/117/373 212/17/108 213/17/110 220/117/374
f 220/117/374 213/17/110 214/17/112 219/117/375
f 219/117/375 214/17/112 215/17/114 218/19/376
f 218/19/376 215/17/114 216/17/116 217/19/377
f 151/45/378 150/43/117 193/43/120 208/45/379
f 208/45/379 193/43/120 194/43/122 207/45/380
f 207/45/380 194/43/122 195/43/124 206/45/381
f 206/45/381 195/43/124 196/109/126 205/45/382
f 205/45/382 196/109/126 197/109/128 204/45/383
f 204/45/383 197/109/128 198/109/130 203/45/384
f 203/45/384 198/109/130 199/109/132 202/45/385
f 202/45/385 199/109/132 200/43/134 201/45/386
f 216/17/116 441/108/115 512/15/387 451/17/388
f 451/17/388 512/15/387 511/15/389 452/17/390
f 200/43/134 433/41/133 510/41/391 449/43/392
f 449/43/392 510/41/391 509/41/393 450/43/394
f 441/108/115 425/13/143 508/13/395 512/15/387
f 512/15/387 508/13/395 507/13/396 511/15/389
f 433/41/133 417/39/152 506/39/397 510/41/391
f 510/41/391 506/39/397 505/39/398 509/41/393
f 425/13/143 409/11/161 504/11/399 508/13/395
f 508/13/395 504/11/399 503/112/400 507/13/396
f 417/39/152 401/37/170 502/37/401 506/39/397
f 506/39/397 502/37/401 501/37/402 505/39/398
f 312/65/188 393/63/187 500/63/403 453/65/404
f 453/65/404 500/63/403 499/63/405 454/65/406
f 409/11/161 385/9/197 498/9/407 504/11/399
f 504/11/399 498/9/407 497/9/408 503/112/400
f 401/37/170 377/35/206 496/35/409 502/37/401
f 502/37/401 496/35/409 495/118/410 501/37/402
f 393/63/187 369/61/215 494/61/411 500/63/403
f 500/63/403 494/61/411 493/61/412 499/63/405
f 385/9/197 361/7/224 492/7/413 498/9/407
f 498/9/407 492/7/413 491/7/414 497/9/408
f 377/35/206 353/33/233 490/33/415 496/35/409
f 496/35/409 490/33/415 489/33/416 495/118/410
f 369/61/215 345/59/242 488/59/417 494/61/411
f 494/61/411 488/59/417 487/59/418 493/61/412
f 361/7/224 337/5/251 486/5/419 492/7/413
f 492/7/413 486/5/419 485/119/420 491/7/414
f 353/33/233 329/31/260 484/31/421 490/33/415
f 490/33/415 484/31/421 483/31/422 489/33/416
f 345/59/242 321/57/269 482/57/423 488/59/417
f 488/59/417 482/57/423 481/57/424 487/59/418
f 337/5/251 313/3/278 480/3/425 486/5/419
f 486/5/419 480/3/425 479/3/426 485/119/420
f 329/31/260 297/29/287 478/29/427 484/31/421
f 484/31/421 478/29/427 477/29/428 483/31/422
f 321/57/269 289/55/296 476/55/429 482/57/423
f 482/57/423 476/55/429 475/55/430 481/57/424
f 313/3/278 312/2/188 453/2/404 480/3/425
f 480/3/425 453/2/404 454/2/406 479/3/426
f 297/29/287 281/27/305 474/27/431 478/29/427
f 478/29/427 474/27/431 473/27/432 477/29/428
f 289/55/296 273/53/314 472/53/433 476/55/429
f 476/55/429 472/53/433 471/53/434 475/55/430
f 281/27/305 265/25/323 470/25/435 474/27/431
f 474/27/431 470/25/435 469/25/436 473/27/432
f 273/53/314 257/51/332 468/51/437 472/53/433
f 472/53/433 468/51/437 467/51/438 471/53/434
f 265/25/323 249/23/341 466/23/439 470/25/435
f 470/25/435 466/23/439 465/23/440 469/25/436
f 257/51/332 241/49/350 464/49/441 468/51/437
f 468/51/437 464/49/441 463/49/442 467/51/438
f 249/23/341 233/21/359 462/21/443 466/23/439
f 466/23/439 462/21/443 461/21/444 465/23/440
f 241/49/350 225/47/368 460/47/445 464/49/441
f 464/49/441 460/47/445 459/47/446 463/49/442
f 233/21/359 217/19/377 458/19/447 462/21/443
f 462/21/443 458/19/447 457/19/448 461/21/444
f 225/47/368 201/45/386 456/45/449 460/47/445
f 460/47/445 456/45/449 455/45/450 459/47/446
f 217/19/377 216/17/116 451/17/388 458/19/447
f 458/19/447 451/17/388 452/17/390 457/19/448
f 201/45/386 200/43/134 449/43/392 456/45/449
f 456/45/449 449/43/392 450/43/394 455/45/450
f 452/17/390 511/15/389 544/15/451 514/17/452
f 450/43/394 509/41/393 543/41/453 513/43/454
f 511/15/389 507/13/396 542/13/455 544/15/451
f 509/41/393 505/39/398 541/39/456 543/41/453
f 507/13/396 503/112/400 540/11/457 542/13/455
f 505/39/398 501/37/402 539/37/458 541/39/456
f 454/65/406 499/63/405 538/63/459 515/65/460
f 503/112/400 497/9/408 537/9/461 540/11/457
f 501/37/402 495/118/410 536/35/462 539/37/458
f 499/63/405 493/61/412 535/61/463 538/63/459
f 497/9/408 491/7/414 534/7/464 537/9/461
f 495/118/410 489/33/416 533/33/465 536/35/462
f 493/61/412 487/59/418 532/59/466 535/61/463
f 491/7/414 485/119/420 531/5/467 534/7/464
f 489/33/416 483/31/422 530/31/468 533/33/465
f 487/59/418 481/57/424 529/57/469 532/59/466
f 485/119/420 479/3/426 528/3/470 531/5/467
f 483/31/422 477/29/428 527/29/471 530/31/468
f 481/57/424 475/55/430 526/55/472 529/57/469
f 479/3/426 454/2/406 515/2/460 528/3/470
f 477/29/428 473/27/432 525/27/473 527/29/471
f 475/55/430 471/53/434 524/53/474 526/55/472
f 473/27/432 469/25/436 523/25/475 525/27/473
f 471/53/434 467/51/438 522/51/476 524/53/474
f 469/25/436 465/23/440 521/23/477 523/25/475
f 467/51/438 463/49/442 520/49/478 522/51/476
f 465/23/440 461/21/444 519/21/479 521/23/477
f 463/49/442 459/47/446 518/47/480 520/49/478
f 461/21/444 457/19/448 517/19/481 519/21/479
f 459/47/446 455/45/450 516/45/482 518/47/480
f 457/19/448 452/17/390 514/17/452 517/19/481
f 455/45/450 450/43/394 513/43/454 516/45/482
f 514/17/452 544/15/451 576/15/98 546/17/70
f 513/43/454 543/41/453 575/41/97 545/67/36
f 544/15/451 542/13/455 574/13/96 576/15/98
f 543/41/453 541/39/456 573/39/95 575/41/97
f 542/13/455 540/11/457 572/107/94 574/13/96
f 541/39/456 539/37/458 571/37/93 573/39/95
f 515/65/460 538/63/459 570/106/92 547/65/82
f 540/11/457 537/9/461 569/105/91 572/107/94
f 539/37/458 536/35/462 568/104/90 571/37/93
f 538/63/459 535/61/463 567/61/89 570/106/92
f 537/9/461 534/7/464 566/7/88 569/105/91
f 536/35/462 533/33/465 565/33/87 568/104/90
f 535/61/463 532/59/466 564/59/86 567/61/89
f 534/7/464 531/5/467 563/5/85 566/7/88
f 533/33/465 530/31/468 562/31/84 565/33/87
f 532/59/466 529/57/469 561/57/83 564/59/86
f 531/5/467 528/3/470 560/3/81 563/5/85
f 530/31/468 527/29/471 559/103/80 562/31/84
f 529/57/469 526/55/472 558/55/79 561/57/83
f 528/3/470 515/2/460 547/2/82 560/3/81
f 527/29/471 525/27/473 557/102/78 559/103/80
f 526/55/472 524/53/474 556/53/77 558/55/79
f 525/27/473 523/25/475 555/101/76 557/102/78
f 524/53/474 522/51/476 554/51/75 556/53/77
f 523/25/475 521/23/477 553/23/74 555/101/76
f 522/51/476 520/49/478 552/100/73 554/51/75
f 521/23/477 519/21/479 551/21/72 553/23/74
f 520/49/478 518/47/480 550/47/71 552/100/73
f 519/21/479 517/19/481 549/19/69 551/21/72
f 518/47/480 516/45/482 548/45/35 550/47/71
f 517/19/481 514/17/452 546/17/70 549/19/69
f 516/45/482 513/43/454 545/67/36 548/45/35
f 586/20/10 587/22/11 619/22/483 618/20/484
f 21/22/34 23/24/34 588/24/34 587/22/34
f 39/40/34 41/42/34 597/42/34 596/40/34
f 57/58/34 59/60/34 606/60/34 605/58/34
f 13/14/34 15/16/34 584/16/34 583/14/34
f 31/32/34 33/34/34 593/34/34 592/32/34
f 49/50/34 51/52/34 602/52/34 601/50/34
f 5/6/34 7/8/34 580/8/34 579/6/34
f 23/24/34 25/26/34 589/26/34 588/24/34
f 41/42/34 43/44/34 598/44/34 597/42/34
f 59/60/34 61/62/34 607/62/34 606/60/34
f 15/16/34 17/18/34 585/18/34 584/16/34
f 33/34/34 35/36/34 594/36/34 593/34/34
f 51/52/34 53/54/34 603/54/34 602/52/34
f 7/8/34 9/10/34 581/10/34 580/8/34
f 25/26/34 27/28/34 590/28/34 589/26/34
f 43/44/34 45/46/34 599/46/34 598/44/34
f 61/62/34 63/64/34 608/64/34 607/62/34
f 17/18/34 19/20/34 586/20/34 585/18/34
f 35/36/34 37/38/34 595/38/34 594/36/34
f 53/54/34 55/56/34 604/56/34 603/54/34
f 9/10/34 11/12/34 582/12/34 581/10/34
f 27/28/34 29/30/34 591/30/34 590/28/34
f 45/46/34 47/48/34 600/48/34 599/46/34
f 1/1/34 3/4/34 578/4/34 577/1/34
f 63/64/34 1/66/34 577/66/34 608/64/34
f 19/20/34 21/22/34 587/22/34 586/20/34
f 37/38/34 39/40/34 596/40/34 595/38/34
f 55/56/34 57/58/34 605/58/34 604/56/34
f 11/12/34 13/14/34 583/14/34 582/12/34
f 29/30/34 31/32/34 592/32/34 591/30/34
f 47/48/34 49/50/34 601/50/34 600/48/34
f 738/26/485 737/28/486 654/28/487 653/26/488
f 600/48/24 601/50/25 633/50/489 632/48/490
f 587/22/11 588/24/12 620/24/491 619/22/483
f 601/50/25 602/52/26 634/52/492 633/50/489
f 588/24/12 589/26/13 621/26/493 620/24/491
f 602/52/26 603/54/27 635/54/494 634/52/492
f 589/26/13 590/28/14 622/28/495 621/26/493
f 603/54/27 604/56/28 636/56/496 635/54/494
f 590/28/14 591/30/15 623/30/497 622/28/495
f 577/1/1 578/4/2 610/4/498 609/1/499
f 604/56/28 605/58/29 637/58/500 636/56/496
f 591/30/15 592/32/16 624/32/501 623/30/497
f 578/4/2 579/6/3 611/6/502 610/4/498
f 605/58/29 606/60/30 638/60/503 637/58/500
f 592/32/16 593/34/17 625/34/504 624/32/501
f 579/6/3 580/8/4 612/8/505 611/6/502
f 606/60/30 607/62/31 639/62/506 638/60/503
f 593/34/17 594/36/18 626/36/507 625/34/504
f 580/8/4 581/10/5 613/10/508 612/8/505
f 607/62/31 608/64/33 640/64/509 639/62/506
f 594/36/18 595/38/19 627/38/510 626/36/507
f 581/10/5 582/12/6 614/12/511 613/10/508
f 608/64/33 577/66/1 609/66/499 640/64/509
f 595/38/19 596/40/20 628/40/512 627/38/510
f 582/12/6 583/14/7 615/14/513 614/12/511
f 596/40/20 597/42/21 629/42/514 628/40/512
f 583/14/7 584/16/8 616/16/515 615/14/513
f 597/42/21 598/44/22 630/44/516 629/42/514
f 584/16/8 585/18/9 617/18/517 616/16/515
f 598/44/22 599/46/23 631/46/518 630/44/516
f 585/18/9 586/20/10 618/20/484 617/18/517
f 599/46/23 600/48/24 632/48/490 631/46/518
f 656/32/34 657/34/34 689/34/34 688/32/34
f 740/54/519 739/56/520 668/56/521 667/54/522
f 737/28/486 741/30/523 655/30/524 654/28/487
f 743/1/525 742/4/526 642/4/527 641/1/528
f 739/56/520 744/58/529 669/58/530 668/56/521
f 741/30/523 745/32/531 656/32/532 655/30/524
f 742/4/526 746/6/533 643/6/534 642/4/527
f 744/58/529 747/60/535 670/60/536 669/58/530
f 745/32/531 748/34/537 657/34/538 656/32/532
f 746/6/533 749/8/539 644/8/540 643/6/534
f 747/60/535 750/62/541 671/62/542 670/60/536
f 748/34/537 751/36/543 658/36/544 657/34/538
f 749/8/539 752/10/545 645/10/546 644/8/540
f 750/62/541 753/64/547 672/64/548 671/62/542
f 751/36/543 754/38/549 659/38/550 658/36/544
f 752/10/545 755/12/551 646/12/552 645/10/546
f 753/64/547 743/66/525 641/66/528 672/64/548
f 754/38/549 756/40/553 660/40/554 659/38/550
f 755/12/551 757/14/555 647/14/556 646/12/552
f 756/40/553 758/42/557 661/42/558 660/40/554
f 757/14/555 759/16/559 648/16/560 647/14/556
f 758/42/557 760/44/561 662/44/562 661/42/558
f 759/16/559 761/18/563 649/18/564 648/16/560
f 760/44/561 762/46/565 663/46/566 662/44/562
f 761/18/563 763/20/567 650/20/568 649/18/564
f 762/46/565 764/48/569 664/48/570 663/46/566
f 763/20/567 765/22/571 651/22/572 650/20/568
f 764/48/569 766/50/573 665/50/574 664/48/570
f 765/22/571 767/24/575 652/24/576 651/22/572
f 766/50/573 768/52/577 666/52/578 665/50/574
f 767/24/575 738/26/485 653/26/488 652/24/576
f 768/52/577 740/54/519 667/54/522 666/52/578
f 691/38/19 692/40/20 724/40/20 723/38/19
f 643/6/34 644/8/34 676/8/34 675/6/34
f 670/60/34 671/62/34 703/62/34 702/60/34
f 657/34/34 658/36/34 690/36/34 689/34/34
f 644/8/34 645/10/34 677/10/34 676/8/34
f 671/62/34 672/64/34 704/64/34 703/62/34
f 658/36/34 659/38/34 691/38/34 690/36/34
f 645/10/34 646/12/34 678/12/34 677/10/34
f 672/64/34 641/66/34 673/66/34 704/64/34
f 659/38/34 660/40/34 692/40/34 691/38/34
f 646/12/34 647/14/34 679/14/34 678/12/34
f 660/40/34 661/42/34 693/42/34 692/40/34
f 647/14/34 648/16/34 680/16/34 679/14/34
f 661/42/34 662/44/34 694/44/34 693/42/34
f 648/16/34 649/18/34 681/18/34 680/16/34
f 662/44/34 663/46/34 695/46/34 694/44/34
f 649/18/34 650/20/34 682/20/34 681/18/34
f 663/46/34 664/48/34 696/48/34 695/46/34
f 650/20/34 651/22/34 683/22/34 682/20/34
f 664/48/34 665/50/34 697/50/34 696/48/34
f 651/22/34 652/24/34 684/24/34 683/22/34
f 665/50/34 666/52/34 698/52/34 697/50/34
f 652/24/34 653/26/34 685/26/34 684/24/34
f 666/52/34 667/54/34 699/54/34 698/52/34
f 653/26/34 654/28/34 686/28/34 685/26/34
f 667/54/34 668/56/34 700/56/34 699/54/34
f 654/28/34 655/30/34 687/30/34 686/28/34
f 641/1/34 642/4/34 674/4/34 673/1/34
f 668/56/34 669/58/34 701/58/34 700/56/34
f 655/30/34 656/32/34 688/32/34 687/30/34
f 642/4/34 643/6/34 675/6/34 674/4/34
f 669/58/34 670/60/34 702/60/34 701/58/34
f 705/120/34 706/121/34 707/122/34 708/123/34 709/124/34 710/125/34 711/126/34 712/127/34 713/128/34 714/129/34 715/130/34 716/131/34 717/132/34 718/133/34 719/134/34 720/135/34 721/136/34 722/137/34 723/138/34 724/139/34 725/140/34 726/141/34 727/142/34 728/143/34 729/144/34 730/145/34 731/146/34 732/147/34 733/148/34 734/149/34 735/150/34 736/151/34
f 678/12/6 679/14/7 711/14/7 710/12/6
f 692/40/20 693/42/21 725/42/21 724/40/20
f 679/14/7 680/16/8 712/16/8 711/14/7
f 693/42/21 694/44/22 726/44/22 725/42/21
f 680/16/8 681/18/9 713/18/9 712/16/8
f 694/44/22 695/46/23 727/46/23 726/44/22
f 681/18/9 682/20/10 714/20/10 713/18/9
f 695/46/23 696/48/24 728/48/24 727/46/23
f 682/20/10 683/22/11 715/22/11 714/20/10
f 696/48/24 697/50/25 729/50/25 728/48/24
f 683/22/11 684/24/12 716/24/12 715/22/11
f 697/50/25 698/52/26 730/52/26 729/50/25
f 684/24/12 685/26/13 717/26/13 716/24/12
f 698/52/26 699/54/27 731/54/27 730/52/26
f 685/26/13 686/28/14 718/28/14 717/26/13
f 699/54/27 700/56/28 732/56/28 731/54/27
f 686/28/14 687/30/15 719/30/15 718/28/14
f 673/1/1 674/4/2 706/4/2 705/1/1
f 700/56/28 701/58/29 733/58/29 732/56/28
f 687/30/15 688/32/16 720/32/16 719/30/15
f 674/4/2 675/6/3 707/6/3 706/4/2
f 701/58/29 702/60/30 734/60/30 733/58/29
f 688/32/16 689/34/17 721/34/17 720/32/16
f 675/6/3 676/8/4 708/8/4 707/6/3
f 702/60/30 703/62/31 735/62/31 734/60/30
f 689/34/17 690/36/18 722/36/18 721/34/17
f 676/8/4 677/10/5 709/10/5 708/8/4
f 703/62/31 704/64/33 736/64/33 735/62/31
f 690/36/18 691/38/19 723/38/19 722/36/18
f 677/10/5 678/12/6 710/12/6 709/10/5
f 704/64/33 673/66/1 705/66/1 736/64/33
f 634/52/492 635/54/494 740/54/519 768/52/577
f 620/24/491 621/26/493 738/26/485 767/24/575
f 633/50/489 634/52/492 768/52/577 766/50/573
f 619/22/483 620/24/491 767/24/575 765/22/571
f 632/48/490 633/50/489 766/50/573 764/48/569
f 618/20/484 619/22/483 765/22/571 763/20/567
f 631/46/518 632/48/490 764/48/569 762/46/565
f 617/18/517 618/20/484 763/20/567 761/18/563
f 630/44/516 631/46/518 762/46/565 760/44/561
f 616/16/515 617/18/517 761/18/563 759/16/559
f 629/42/514 630/44/516 760/44/561 758/42/557
f 615/14/513 616/16/515 759/16/559 757/14/555
f 628/40/512 629/42/514 758/42/557 756/40/553
f 614/12/511 615/14/513 757/14/555 755/12/551
f 627/38/510 628/40/512 756/40/553 754/38/549
f 640/64/509 609/66/499 743/66/525 753/64/547
f 613/10/508 614/12/511 755/12/551 752/10/545
f 626/36/507 627/38/510 754/38/549 751/36/543
f 639/62/506 640/64/509 753/64/547 750/62/541
f 612/8/505 613/10/508 752/10/545 749/8/539
f 625/34/504 626/36/507 751/36/543 748/34/537
f 638/60/503 639/62/506 750/62/541 747/60/535
f 611/6/502 612/8/505 749/8/539 746/6/533
f 624/32/501 625/34/504 748/34/537 745/32/531
f 637/58/500 638/60/503 747/60/535 744/58/529
f 610/4/498 611/6/502 746/6/533 742/4/526
f 623/30/497 624/32/501 745/32/531 741/30/523
f 636/56/496 637/58/500 744/58/529 739/56/520
f 609/1/499 610/4/498 742/4/526 743/1/525
f 622/28/495 623/30/497 741/30/523 737/28/486
f 635/54/494 636/56/496 739/56/520 740/54/519
f 621/26/493 622/28/495 737/28/486 738/26/485
