# Blender 4.5.1 LTS
# www.blender.org
o APBC
v 0.000000 0.100000 -0.100000
v 0.000000 0.390000 -0.100000
v 0.019509 0.100000 -0.098079
v 0.019509 0.390000 -0.098079
v 0.038268 0.100000 -0.092388
v 0.038268 0.390000 -0.092388
v 0.055557 0.100000 -0.083147
v 0.055557 0.390000 -0.083147
v 0.070711 0.100000 -0.070711
v 0.070711 0.390000 -0.070711
v 0.083147 0.100000 -0.055557
v 0.083147 0.390000 -0.055557
v 0.092388 0.100000 -0.038268
v 0.092388 0.390000 -0.038268
v 0.098079 0.100000 -0.019509
v 0.098079 0.390000 -0.019509
v 0.100000 0.100000 0.000000
v 0.100000 0.390000 0.000000
v 0.098079 0.100000 0.019509
v 0.098079 0.390000 0.019509
v 0.092388 0.100000 0.038268
v 0.092388 0.390000 0.038268
v 0.083147 0.100000 0.055557
v 0.083147 0.390000 0.055557
v 0.070711 0.100000 0.070711
v 0.070711 0.390000 0.070711
v 0.055557 0.100000 0.083147
v 0.055557 0.390000 0.083147
v 0.038268 0.100000 0.092388
v 0.038268 0.390000 0.092388
v 0.019509 0.100000 0.098079
v 0.019509 0.390000 0.098079
v 0.000000 0.100000 0.100000
v 0.000000 0.390000 0.100000
v -0.019509 0.100000 0.098079
v -0.019509 0.390000 0.098079
v -0.038268 0.100000 0.092388
v -0.038268 0.390000 0.092388
v -0.055557 0.100000 0.083147
v -0.055557 0.390000 0.083147
v -0.070711 0.100000 0.070711
v -0.070711 0.390000 0.070711
v -0.083147 0.100000 0.055557
v -0.083147 0.390000 0.055557
v -0.092388 0.100000 0.038268
v -0.092388 0.390000 0.038268
v -0.098079 0.100000 0.019509
v -0.098079 0.390000 0.019509
v -0.100000 0.100000 0.000000
v -0.100000 0.390000 0.000000
v -0.098079 0.100000 -0.019509
v -0.098079 0.390000 -0.019509
v -0.092388 0.100000 -0.038268
v -0.092388 0.390000 -0.038268
v -0.083147 0.100000 -0.055557
v -0.083147 0.390000 -0.055557
v -0.070711 0.100000 -0.070711
v -0.070711 0.390000 -0.070711
v -0.055557 0.100000 -0.083147
v -0.055557 0.390000 -0.083147
v -0.038268 0.100000 -0.092388
v -0.038268 0.390000 -0.092388
v -0.019509 0.100000 -0.098079
v -0.019509 0.390000 -0.098079
v 0.000001 0.639999 -0.000246
v 0.000049 0.639999 -0.000241
v 0.000095 0.639999 -0.000227
v 0.000137 0.639999 -0.000205
v 0.000175 0.639999 -0.000174
v 0.000205 0.639999 -0.000137
v 0.000228 0.639999 -0.000094
v 0.000242 0.639999 -0.000048
v 0.000247 0.639999 0.000000
v 0.000242 0.639999 0.000048
v 0.000228 0.639999 0.000094
v 0.000205 0.639999 0.000137
v 0.000175 0.639999 0.000174
v 0.000137 0.639999 0.000205
v 0.000095 0.639999 0.000227
v 0.000049 0.639999 0.000241
v 0.000001 0.639999 0.000246
v -0.000047 0.639999 0.000241
v -0.000094 0.639999 0.000227
v -0.000136 0.639999 0.000205
v -0.000174 0.639999 0.000174
v -0.000204 0.639999 0.000137
v -0.000227 0.639999 0.000094
v -0.000241 0.639999 0.000048
v -0.000246 0.639999 0.000000
v -0.000241 0.639999 -0.000048
v -0.000227 0.639999 -0.000094
v -0.000204 0.639999 -0.000137
v -0.000174 0.639999 -0.000174
v -0.000136 0.639999 -0.000205
v -0.000094 0.639999 -0.000227
v -0.000047 0.639999 -0.000241
v 0.018083 0.425714 -0.090910
v 0.016533 0.461429 -0.083119
v 0.014730 0.497143 -0.074055
v 0.012716 0.532857 -0.063927
v 0.010402 0.568571 -0.052293
v 0.007462 0.604286 -0.037513
v 0.014637 0.604286 -0.035337
v 0.020404 0.568571 -0.049259
v 0.024943 0.532857 -0.060218
v 0.028895 0.497143 -0.069758
v 0.032432 0.461428 -0.078297
v 0.035471 0.425714 -0.085635
v 0.085635 0.425714 0.035471
v 0.078297 0.461429 0.032432
v 0.069758 0.497143 0.028895
v 0.060218 0.532857 0.024943
v 0.049259 0.568571 0.020404
v 0.035337 0.604286 0.014637
v 0.031802 0.604286 0.021250
v 0.044332 0.568571 0.029622
v 0.054195 0.532857 0.036212
v 0.062781 0.497143 0.041949
v 0.070465 0.461428 0.047083
v 0.077070 0.425714 0.051496
v -0.051496 0.425714 0.077070
v -0.047083 0.461429 0.070465
v -0.041949 0.497143 0.062781
v -0.036212 0.532857 0.054195
v -0.029622 0.568571 0.044332
v -0.021250 0.604286 0.031802
v -0.027045 0.604286 0.027045
v -0.037701 0.568571 0.037701
v -0.046089 0.532857 0.046089
v -0.053390 0.497143 0.053390
v -0.059926 0.461428 0.059926
v -0.065543 0.425714 0.065543
v -0.065543 0.425714 -0.065543
v -0.059926 0.461429 -0.059926
v -0.053390 0.497143 -0.053390
v -0.046089 0.532857 -0.046089
v -0.037701 0.568571 -0.037701
v -0.027045 0.604286 -0.027045
v -0.021250 0.604286 -0.031802
v -0.029622 0.568571 -0.044332
v -0.036212 0.532857 -0.054195
v -0.041949 0.497143 -0.062781
v -0.047083 0.461428 -0.070465
v -0.051496 0.425714 -0.077070
v 0.085635 0.425714 -0.035471
v 0.078297 0.461429 -0.032432
v 0.069758 0.497143 -0.028895
v 0.060218 0.532857 -0.024943
v 0.049259 0.568571 -0.020404
v 0.035337 0.604286 -0.014637
v 0.037513 0.604286 -0.007462
v 0.052293 0.568571 -0.010402
v 0.063927 0.532857 -0.012716
v 0.074055 0.497143 -0.014730
v 0.083119 0.461428 -0.016533
v 0.090910 0.425714 -0.018083
v 0.018083 0.425714 0.090910
v 0.016533 0.461429 0.083119
v 0.014730 0.497143 0.074055
v 0.012716 0.532857 0.063927
v 0.010402 0.568571 0.052293
v 0.007462 0.604286 0.037513
v -0.000000 0.604286 0.038248
v -0.000000 0.568571 0.053317
v -0.000000 0.532857 0.065179
v -0.000000 0.497143 0.075505
v -0.000000 0.461428 0.084748
v -0.000000 0.425714 0.092691
v -0.092691 0.425714 0.000000
v -0.084748 0.461429 0.000000
v -0.075505 0.497143 0.000000
v -0.065179 0.532857 0.000000
v -0.053317 0.568571 0.000000
v -0.038248 0.604286 0.000000
v -0.037513 0.604286 -0.007462
v -0.052293 0.568571 -0.010402
v -0.063927 0.532857 -0.012716
v -0.074055 0.497143 -0.014730
v -0.083119 0.461428 -0.016533
v -0.090910 0.425714 -0.018083
v 0.021249 0.604286 -0.031802
v 0.029622 0.568571 -0.044332
v 0.036212 0.532857 -0.054195
v 0.041949 0.497143 -0.062781
v 0.047083 0.461428 -0.070465
v 0.051496 0.425714 -0.077070
v 0.027045 0.604286 0.027045
v 0.037701 0.568571 0.037701
v 0.046089 0.532857 0.046089
v 0.053390 0.497143 0.053390
v 0.059926 0.461428 0.059926
v 0.065543 0.425714 0.065543
v -0.031802 0.604286 0.021250
v -0.044332 0.568571 0.029622
v -0.054195 0.532857 0.036212
v -0.062781 0.497143 0.041949
v -0.070465 0.461428 0.047083
v -0.077070 0.425714 0.051496
v -0.014637 0.604286 -0.035337
v -0.020404 0.568571 -0.049259
v -0.024943 0.532857 -0.060218
v -0.028895 0.497143 -0.069758
v -0.032432 0.461428 -0.078297
v -0.035471 0.425714 -0.085635
v 0.038248 0.604286 0.000000
v 0.053317 0.568571 0.000000
v 0.065179 0.532857 0.000000
v 0.075505 0.497143 0.000000
v 0.084748 0.461428 0.000000
v 0.092691 0.425714 0.000000
v -0.007462 0.604286 0.037513
v -0.010402 0.568571 0.052293
v -0.012716 0.532857 0.063927
v -0.014730 0.497143 0.074055
v -0.016533 0.461428 0.083119
v -0.018083 0.425714 0.090910
v -0.035337 0.604286 -0.014637
v -0.049259 0.568571 -0.020404
v -0.060218 0.532857 -0.024943
v -0.069758 0.497143 -0.028895
v -0.078297 0.461428 -0.032432
v -0.085635 0.425714 -0.035471
v 0.027045 0.604286 -0.027045
v 0.037701 0.568571 -0.037701
v 0.046089 0.532857 -0.046089
v 0.053390 0.497143 -0.053390
v 0.059926 0.461428 -0.059926
v 0.065543 0.425714 -0.065543
v 0.021249 0.604286 0.031802
v 0.029622 0.568571 0.044332
v 0.036212 0.532857 0.054195
v 0.041949 0.497143 0.062781
v 0.047083 0.461428 0.070465
v 0.051496 0.425714 0.077070
v -0.035337 0.604286 0.014637
v -0.049259 0.568571 0.020404
v -0.060218 0.532857 0.024943
v -0.069758 0.497143 0.028895
v -0.078297 0.461428 0.032432
v -0.085635 0.425714 0.035471
v -0.007462 0.604286 -0.037513
v -0.010402 0.568571 -0.052293
v -0.012716 0.532857 -0.063927
v -0.014730 0.497143 -0.074055
v -0.016533 0.461428 -0.083119
v -0.018083 0.425714 -0.090910
v 0.037513 0.604286 0.007462
v 0.052293 0.568571 0.010402
v 0.063927 0.532857 0.012716
v 0.074055 0.497143 0.014730
v 0.083119 0.461428 0.016533
v 0.090910 0.425714 0.018083
v -0.014637 0.604286 0.035337
v -0.020404 0.568571 0.049259
v -0.024943 0.532857 0.060218
v -0.028895 0.497143 0.069758
v -0.032432 0.461428 0.078297
v -0.035471 0.425714 0.085635
v -0.031802 0.604286 -0.021250
v -0.044332 0.568571 -0.029622
v -0.054195 0.532857 -0.036212
v -0.062781 0.497143 -0.041949
v -0.070465 0.461428 -0.047083
v -0.077070 0.425714 -0.051496
v 0.031802 0.604286 -0.021250
v 0.044332 0.568571 -0.029622
v 0.054195 0.532857 -0.036212
v 0.062781 0.497143 -0.041949
v 0.070465 0.461428 -0.047083
v 0.077070 0.425714 -0.051496
v 0.014637 0.604286 0.035337
v 0.020404 0.568571 0.049259
v 0.024943 0.532857 0.060218
v 0.028895 0.497143 0.069758
v 0.032432 0.461428 0.078297
v 0.035471 0.425714 0.085635
v -0.037513 0.604286 0.007462
v -0.052293 0.568571 0.010402
v -0.063927 0.532857 0.012716
v -0.074055 0.497143 0.014730
v -0.083119 0.461428 0.016533
v -0.090910 0.425714 0.018083
v -0.000000 0.425714 -0.092691
v -0.000000 0.461429 -0.084748
v -0.000000 0.497143 -0.075505
v -0.000000 0.532857 -0.065179
v -0.000000 0.568571 -0.053317
v -0.000000 0.604286 -0.038248
v 0.005992 0.616190 -0.030123
v 0.004185 0.628095 -0.021037
v 0.028375 0.616190 0.011753
v 0.019817 0.628095 0.008208
v -0.017063 0.616190 0.025537
v -0.011916 0.628095 0.017835
v -0.021717 0.616190 -0.021717
v -0.015167 0.628095 -0.015167
v 0.028375 0.616190 -0.011753
v 0.019817 0.628095 -0.008208
v 0.005992 0.616190 0.030123
v 0.004185 0.628095 0.021037
v -0.030713 0.616190 0.000000
v -0.021449 0.628095 0.000000
v 0.000000 0.616190 -0.030713
v 0.000000 0.628095 -0.021450
v 0.008209 0.628095 -0.019817
v 0.011754 0.616190 -0.028375
v 0.017835 0.628095 0.011917
v 0.025537 0.616190 0.017063
v -0.015167 0.628095 0.015167
v -0.021717 0.616190 0.021717
v -0.011916 0.628095 -0.017835
v -0.017063 0.616190 -0.025537
v 0.021038 0.628095 -0.004185
v 0.030123 0.616190 -0.005992
v 0.000000 0.628095 0.021450
v 0.000000 0.616190 0.030713
v -0.021037 0.628095 -0.004185
v -0.030123 0.616190 -0.005992
v 0.011917 0.628095 -0.017835
v 0.017063 0.616190 -0.025537
v 0.015167 0.628095 0.015167
v 0.021718 0.616190 0.021717
v -0.017834 0.628095 0.011917
v -0.025537 0.616190 0.017063
v -0.008208 0.628095 -0.019817
v -0.011753 0.616190 -0.028375
v 0.021450 0.628095 0.000000
v 0.030713 0.616190 0.000000
v -0.004184 0.628095 0.021037
v -0.005992 0.616190 0.030123
v -0.019817 0.628095 -0.008208
v -0.028375 0.616190 -0.011753
v 0.015167 0.628095 -0.015167
v 0.021718 0.616190 -0.021717
v 0.011917 0.628095 0.017835
v 0.017063 0.616190 0.025537
v -0.019817 0.628095 0.008208
v -0.028375 0.616190 0.011753
v -0.004184 0.628095 -0.021037
v -0.005992 0.616190 -0.030123
v 0.021038 0.628095 0.004185
v 0.030123 0.616190 0.005992
v -0.008208 0.628095 0.019817
v -0.011753 0.616190 0.028375
v -0.017834 0.628095 -0.011917
v -0.025537 0.616190 -0.017063
v 0.017835 0.628095 -0.011917
v 0.025537 0.616190 -0.017063
v 0.008209 0.628095 0.019817
v 0.011754 0.616190 0.028375
v -0.021037 0.628095 0.004185
v -0.030123 0.616190 0.005992
v 0.003031 0.634047 -0.015238
v 0.014354 0.634047 0.005946
v -0.008631 0.634047 0.012918
v -0.010986 0.634047 -0.010986
v 0.014354 0.634047 -0.005946
v 0.003031 0.634047 0.015238
v -0.015536 0.634047 0.000000
v 0.000000 0.634047 -0.015537
v 0.005946 0.634047 -0.014354
v 0.012918 0.634047 0.008632
v -0.010986 0.634047 0.010986
v -0.008631 0.634047 -0.012918
v 0.015238 0.634047 -0.003031
v 0.000000 0.634047 0.015537
v -0.015238 0.634047 -0.003031
v 0.008632 0.634047 -0.012918
v 0.010986 0.634047 0.010986
v -0.012918 0.634047 0.008632
v -0.005945 0.634047 -0.014354
v 0.015537 0.634047 0.000000
v -0.003031 0.634047 0.015238
v -0.014354 0.634047 -0.005946
v 0.010986 0.634047 -0.010986
v 0.008632 0.634047 0.012918
v -0.014354 0.634047 0.005946
v -0.003031 0.634047 -0.015238
v 0.015238 0.634047 0.003031
v -0.005945 0.634047 0.014354
v -0.012918 0.634047 -0.008632
v 0.012918 0.634047 -0.008632
v 0.005946 0.634047 0.014354
v -0.015238 0.634047 0.003031
v 0.002093 0.637023 -0.010521
v 0.009911 0.637023 0.004105
v -0.005959 0.637023 0.008919
v -0.007585 0.637023 -0.007585
v 0.009911 0.637023 -0.004105
v 0.002093 0.637023 0.010521
v -0.010727 0.637023 0.000000
v 0.000000 0.637023 -0.010727
v 0.004105 0.637023 -0.009910
v 0.008919 0.637023 0.005960
v -0.007585 0.637023 0.007585
v -0.005959 0.637023 -0.008919
v 0.010521 0.637023 -0.002093
v 0.000000 0.637023 0.010727
v -0.010521 0.637023 -0.002093
v 0.005960 0.637023 -0.008919
v 0.007585 0.637023 0.007585
v -0.008919 0.637023 0.005960
v -0.004105 0.637023 -0.009910
v 0.010727 0.637023 0.000000
v -0.002092 0.637023 0.010521
v -0.009910 0.637023 -0.004105
v 0.007585 0.637023 -0.007585
v 0.005960 0.637023 0.008919
v -0.009910 0.637023 0.004105
v -0.002092 0.637023 -0.010521
v 0.010521 0.637023 0.002093
v -0.004105 0.637023 0.009910
v -0.008919 0.637023 -0.005960
v 0.008919 0.637023 -0.005960
v 0.004105 0.637023 0.009910
v -0.010521 0.637023 0.002093
v 0.001462 0.638511 -0.007348
v 0.006922 0.638511 0.002867
v -0.004162 0.638511 0.006230
v -0.005298 0.638511 -0.005298
v 0.006922 0.638511 -0.002867
v 0.001462 0.638511 0.007348
v -0.007492 0.638511 0.000000
v 0.000000 0.638511 -0.007492
v 0.002868 0.638511 -0.006922
v 0.006230 0.638511 0.004163
v -0.005298 0.638511 0.005298
v -0.004162 0.638511 -0.006230
v 0.007349 0.638511 -0.001462
v 0.000000 0.638511 0.007492
v -0.007348 0.638511 -0.001462
v 0.004163 0.638511 -0.006230
v 0.005298 0.638511 0.005298
v -0.006229 0.638511 0.004163
v -0.002867 0.638511 -0.006922
v 0.007493 0.638511 0.000000
v -0.001461 0.638511 0.007348
v -0.006922 0.638511 -0.002867
v 0.005298 0.638511 -0.005298
v 0.004163 0.638511 0.006230
v -0.006922 0.638511 0.002867
v -0.001461 0.638511 -0.007348
v 0.007349 0.638511 0.001462
v -0.002867 0.638511 0.006922
v -0.006229 0.638511 -0.004163
v 0.006230 0.638511 -0.004163
v 0.002868 0.638511 0.006922
v -0.007348 0.638511 0.001462
v 0.000000 0.030000 -0.065145
v 0.012709 0.030000 -0.063894
v 0.024930 0.030000 -0.060186
v 0.036193 0.030000 -0.054166
v 0.046065 0.030000 -0.046065
v 0.054166 0.030000 -0.036193
v 0.060187 0.030000 -0.024930
v 0.063894 0.030000 -0.012709
v 0.065145 0.030000 0.000000
v 0.063894 0.030000 0.012709
v 0.060187 0.030000 0.024930
v 0.054166 0.030000 0.036193
v 0.046065 0.030000 0.046065
v 0.036193 0.030000 0.054166
v 0.024930 0.030000 0.060186
v 0.012709 0.030000 0.063894
v 0.000000 0.030000 0.065145
v -0.012709 0.030000 0.063894
v -0.024930 0.030000 0.060186
v -0.036193 0.030000 0.054166
v -0.046065 0.030000 0.046065
v -0.054166 0.030000 0.036193
v -0.060186 0.030000 0.024930
v -0.063893 0.030000 0.012709
v -0.065145 0.030000 0.000000
v -0.063893 0.030000 -0.012709
v -0.060186 0.030000 -0.024930
v -0.054166 0.030000 -0.036193
v -0.046065 0.030000 -0.046065
v -0.036193 0.030000 -0.054166
v -0.024930 0.030000 -0.060186
v -0.012709 0.030000 -0.063894
v 0.000000 0.030000 -0.040368
v 0.007876 0.030000 -0.039592
v 0.015448 0.030000 -0.037295
v 0.022427 0.030000 -0.033565
v 0.028545 0.030000 -0.028544
v 0.033565 0.030000 -0.022427
v 0.037295 0.030000 -0.015448
v 0.039592 0.030000 -0.007875
v 0.040368 0.030000 0.000000
v 0.039592 0.030000 0.007875
v 0.037295 0.030000 0.015448
v 0.033565 0.030000 0.022427
v 0.028545 0.030000 0.028544
v 0.022427 0.030000 0.033565
v 0.015448 0.030000 0.037295
v 0.007876 0.030000 0.039592
v 0.000000 0.030000 0.040368
v -0.007875 0.030000 0.039592
v -0.015448 0.030000 0.037295
v -0.022427 0.030000 0.033565
v -0.028544 0.030000 0.028544
v -0.033565 0.030000 0.022427
v -0.037295 0.030000 0.015448
v -0.039592 0.030000 0.007875
v -0.040368 0.030000 0.000000
v -0.039592 0.030000 -0.007875
v -0.037295 0.030000 -0.015448
v -0.033565 0.030000 -0.022427
v -0.028544 0.030000 -0.028544
v -0.022427 0.030000 -0.033565
v -0.015448 0.030000 -0.037295
v -0.007875 0.030000 -0.039592
v 0.000000 -0.000000 0.000000
v 0.000000 -0.000000 -0.040368
v 0.007876 -0.000000 -0.039592
v 0.015448 -0.000000 -0.037295
v 0.022427 -0.000000 -0.033565
v 0.028545 -0.000000 -0.028544
v 0.033565 -0.000000 -0.022427
v 0.037295 -0.000000 -0.015448
v 0.039592 -0.000000 -0.007875
v 0.040368 -0.000000 0.000000
v 0.039592 -0.000000 0.007875
v 0.037295 -0.000000 0.015448
v 0.033565 -0.000000 0.022427
v 0.028545 -0.000000 0.028544
v 0.022427 -0.000000 0.033565
v 0.015448 -0.000000 0.037295
v 0.007876 -0.000000 0.039592
v 0.000000 -0.000000 0.040368
v -0.007875 -0.000000 0.039592
v -0.015448 -0.000000 0.037295
v -0.022427 -0.000000 0.033565
v -0.028544 -0.000000 0.028544
v -0.033565 -0.000000 0.022427
v -0.037295 -0.000000 0.015448
v -0.039592 -0.000000 0.007875
v -0.040368 -0.000000 0.000000
v -0.039592 -0.000000 -0.007875
v -0.037295 -0.000000 -0.015448
v -0.033565 -0.000000 -0.022427
v -0.028544 -0.000000 -0.028544
v -0.022427 -0.000000 -0.033565
v -0.015448 -0.000000 -0.037295
v -0.007875 -0.000000 -0.039592
vn -0.0000 -0.0000 -1.0000
vn 0.1951 -0.0000 -0.9808
vn 0.3827 -0.0000 -0.9239
vn 0.5556 -0.0000 -0.8315
vn 0.7071 -0.0000 -0.7071
vn 0.8315 -0.0000 -0.5556
vn 0.9239 -0.0000 -0.3827
vn 0.9808 -0.0000 -0.1951
vn 1.0000 -0.0000 -0.0000
vn 0.9808 -0.0000 0.1951
vn 0.9239 -0.0000 0.3827
vn 0.8315 -0.0000 0.5556
vn 0.7071 -0.0000 0.7071
vn 0.5556 -0.0000 0.8315
vn 0.3827 -0.0000 0.9239
vn 0.1951 -0.0000 0.9808
vn -0.0000 -0.0000 1.0000
vn -0.1951 -0.0000 0.9808
vn -0.3827 -0.0000 0.9239
vn -0.5556 -0.0000 0.8315
vn -0.7071 -0.0000 0.7071
vn -0.8315 -0.0000 0.5556
vn -0.9239 -0.0000 0.3827
vn -0.9808 -0.0000 0.1951
vn -1.0000 -0.0000 -0.0000
vn -0.9808 -0.0000 -0.1951
vn -0.9239 -0.0000 -0.3827
vn -0.8315 -0.0000 -0.5556
vn -0.7071 -0.0000 -0.7071
vn -0.5556 -0.0000 -0.8315
vn -0.3827 -0.0000 -0.9239
vn 0.1217 0.9481 -0.2938
vn 0.0621 0.9481 -0.3119
vn 0.0209 0.9942 -0.1053
vn 0.0410 0.9942 -0.0992
vn -0.1951 -0.0000 -0.9808
vn 0.1746 -0.4457 -0.8780
vn 0.3426 -0.4457 -0.8270
vn -0.0001 0.9942 -0.1073
vn -0.0210 0.9942 -0.1053
vn -0.0411 0.9942 -0.0992
vn -0.0597 0.9942 -0.0893
vn -0.0760 0.9942 -0.0759
vn -0.0893 0.9942 -0.0596
vn -0.0992 0.9942 -0.0411
vn -0.1053 0.9942 -0.0210
vn -0.1074 0.9942 -0.0000
vn -0.1053 0.9942 0.0210
vn -0.0992 0.9942 0.0411
vn -0.0893 0.9942 0.0596
vn -0.0759 0.9942 0.0759
vn -0.0597 0.9942 0.0892
vn -0.0411 0.9942 0.0992
vn -0.0210 0.9942 0.1053
vn -0.0001 0.9942 0.1073
vn 0.0209 0.9942 0.1053
vn 0.0410 0.9942 0.0992
vn 0.0596 0.9942 0.0893
vn 0.0758 0.9942 0.0759
vn 0.0892 0.9942 0.0596
vn 0.0991 0.9942 0.0411
vn 0.1052 0.9942 0.0209
vn 0.1073 0.9942 -0.0000
vn 0.1052 0.9942 -0.0209
vn 0.0991 0.9942 -0.0411
vn 0.0892 0.9942 -0.0596
vn 0.0758 0.9942 -0.0759
vn 0.0596 0.9942 -0.0893
vn 0.2644 0.9481 0.1767
vn 0.2938 0.9481 0.1217
vn -0.2248 0.9481 0.2248
vn -0.1767 0.9481 0.2644
vn -0.1766 0.9481 -0.2644
vn -0.2248 0.9481 -0.2248
vn 0.3119 0.9481 -0.0620
vn 0.2938 0.9481 -0.1217
vn -0.0000 0.9481 0.3180
vn 0.0620 0.9481 0.3119
vn -0.3119 0.9481 -0.0621
vn -0.3180 0.9481 -0.0000
vn 0.1766 0.9481 -0.2644
vn 0.2248 0.9481 0.2249
vn -0.2644 0.9481 0.1767
vn -0.1217 0.9481 -0.2938
vn 0.3180 0.9481 -0.0000
vn -0.0620 0.9481 0.3119
vn -0.2938 0.9481 -0.1217
vn 0.2248 0.9481 -0.2249
vn 0.1767 0.9481 0.2644
vn -0.2938 0.9481 0.1217
vn -0.0621 0.9481 -0.3119
vn 0.3119 0.9481 0.0620
vn -0.1217 0.9481 0.2938
vn -0.2644 0.9481 -0.1766
vn 0.2644 0.9481 -0.1767
vn 0.1217 0.9481 0.2938
vn -0.3119 0.9481 0.0621
vn -0.0000 0.9481 -0.3180
vn -0.9797 0.2005 -0.0000
vn -0.9609 0.2005 0.1911
vn -0.9592 0.2087 0.1908
vn -0.9780 0.2087 -0.0000
vn -0.9536 0.2336 0.1897
vn -0.9723 0.2336 -0.0000
vn -0.9460 0.2639 0.1882
vn -0.9645 0.2639 -0.0000
vn -0.9368 0.2962 0.1863
vn -0.9551 0.2962 -0.0000
vn -0.9182 0.3514 0.1826
vn -0.9362 0.3514 -0.0000
vn -0.8702 0.4613 0.1731
vn -0.8873 0.4613 -0.0000
vn 0.1911 0.2005 0.9609
vn 0.3749 0.2005 0.9051
vn 0.3743 0.2087 0.9035
vn 0.1908 0.2087 0.9592
vn 0.3721 0.2336 0.8983
vn 0.1897 0.2336 0.9536
vn 0.3691 0.2639 0.8911
vn 0.1882 0.2639 0.9460
vn 0.3655 0.2962 0.8824
vn 0.1863 0.2962 0.9368
vn 0.3583 0.3514 0.8649
vn 0.1826 0.3514 0.9182
vn 0.3395 0.4613 0.8197
vn 0.1731 0.4613 0.8702
vn 0.9051 0.2005 -0.3749
vn 0.8146 0.2005 -0.5443
vn 0.8132 0.2087 -0.5433
vn 0.9035 0.2087 -0.3743
vn 0.8085 0.2336 -0.5402
vn 0.8983 0.2336 -0.3721
vn 0.8020 0.2639 -0.5359
vn 0.8911 0.2639 -0.3691
vn 0.7942 0.2962 -0.5306
vn 0.8824 0.2962 -0.3655
vn 0.7784 0.3514 -0.5201
vn 0.8649 0.3514 -0.3583
vn 0.7377 0.4613 -0.4929
vn 0.8197 0.4613 -0.3395
vn -0.6927 0.2005 -0.6927
vn -0.8146 0.2005 -0.5443
vn -0.8132 0.2087 -0.5433
vn -0.6915 0.2087 -0.6915
vn -0.8085 0.2336 -0.5402
vn -0.6875 0.2336 -0.6875
vn -0.8020 0.2639 -0.5359
vn -0.6820 0.2639 -0.6820
vn -0.7942 0.2962 -0.5306
vn -0.6754 0.2962 -0.6754
vn -0.7784 0.3514 -0.5201
vn -0.6620 0.3514 -0.6620
vn -0.7377 0.4613 -0.4929
vn -0.6274 0.4613 -0.6274
vn -0.5443 0.2005 0.8146
vn -0.3749 0.2005 0.9051
vn -0.3743 0.2087 0.9035
vn -0.5433 0.2087 0.8132
vn -0.3721 0.2336 0.8983
vn -0.5402 0.2336 0.8085
vn -0.3691 0.2639 0.8911
vn -0.5359 0.2639 0.8020
vn -0.3655 0.2962 0.8824
vn -0.5306 0.2962 0.7942
vn -0.3583 0.3514 0.8649
vn -0.5201 0.3514 0.7784
vn -0.3395 0.4613 0.8197
vn -0.4929 0.4613 0.7377
vn 0.9051 0.2005 0.3749
vn 0.9609 0.2005 0.1911
vn 0.9592 0.2087 0.1908
vn 0.9035 0.2087 0.3743
vn 0.9536 0.2336 0.1897
vn 0.8983 0.2336 0.3721
vn 0.9460 0.2639 0.1882
vn 0.8911 0.2639 0.3691
vn 0.9368 0.2962 0.1863
vn 0.8824 0.2962 0.3655
vn 0.9182 0.3514 0.1826
vn 0.8649 0.3514 0.3583
vn 0.8702 0.4613 0.1731
vn 0.8197 0.4613 0.3395
vn -0.0000 0.2005 -0.9797
vn -0.1911 0.2005 -0.9609
vn -0.1908 0.2087 -0.9592
vn -0.0000 0.2087 -0.9780
vn -0.1897 0.2336 -0.9536
vn -0.0000 0.2336 -0.9723
vn -0.1882 0.2639 -0.9460
vn -0.0000 0.2639 -0.9645
vn -0.1863 0.2962 -0.9368
vn -0.0000 0.2962 -0.9551
vn -0.1826 0.3514 -0.9182
vn -0.0000 0.3514 -0.9362
vn -0.1731 0.4613 -0.8702
vn -0.0000 0.4613 -0.8873
vn 0.1911 0.2005 -0.9609
vn 0.1908 0.2087 -0.9592
vn 0.1897 0.2336 -0.9536
vn 0.1882 0.2639 -0.9460
vn 0.1863 0.2962 -0.9368
vn 0.1826 0.3514 -0.9182
vn 0.1731 0.4613 -0.8702
vn -0.9051 0.2005 0.3749
vn -0.9035 0.2087 0.3743
vn -0.8983 0.2336 0.3721
vn -0.8911 0.2639 0.3691
vn -0.8824 0.2962 0.3655
vn -0.8649 0.3514 0.3583
vn -0.8197 0.4613 0.3395
vn 0.5443 0.2005 0.8146
vn 0.5433 0.2087 0.8132
vn 0.5402 0.2336 0.8085
vn 0.5359 0.2639 0.8020
vn 0.5306 0.2962 0.7942
vn 0.5201 0.3514 0.7784
vn 0.4929 0.4613 0.7377
vn 0.6927 0.2005 -0.6927
vn 0.6915 0.2087 -0.6915
vn 0.6875 0.2336 -0.6875
vn 0.6820 0.2639 -0.6820
vn 0.6754 0.2962 -0.6754
vn 0.6620 0.3514 -0.6620
vn 0.6274 0.4613 -0.6274
vn -0.9051 0.2005 -0.3749
vn -0.9035 0.2087 -0.3743
vn -0.8983 0.2336 -0.3721
vn -0.8911 0.2639 -0.3691
vn -0.8824 0.2962 -0.3655
vn -0.8649 0.3514 -0.3583
vn -0.8197 0.4613 -0.3395
vn -0.1911 0.2005 0.9609
vn -0.1908 0.2087 0.9592
vn -0.1897 0.2336 0.9536
vn -0.1882 0.2639 0.9460
vn -0.1863 0.2962 0.9368
vn -0.1826 0.3514 0.9182
vn -0.1731 0.4613 0.8702
vn 0.9797 0.2005 -0.0000
vn 0.9780 0.2087 -0.0000
vn 0.9723 0.2336 -0.0000
vn 0.9645 0.2639 -0.0000
vn 0.9551 0.2962 -0.0000
vn 0.9362 0.3514 -0.0000
vn 0.8873 0.4613 -0.0000
vn -0.3749 0.2005 -0.9051
vn -0.3743 0.2087 -0.9035
vn -0.3721 0.2336 -0.8983
vn -0.3691 0.2639 -0.8911
vn -0.3655 0.2962 -0.8824
vn -0.3583 0.3514 -0.8649
vn -0.3395 0.4613 -0.8197
vn -0.8146 0.2005 0.5443
vn -0.8132 0.2087 0.5433
vn -0.8085 0.2336 0.5402
vn -0.8020 0.2639 0.5359
vn -0.7942 0.2962 0.5306
vn -0.7784 0.3514 0.5201
vn -0.7377 0.4613 0.4929
vn 0.6927 0.2005 0.6927
vn 0.6915 0.2087 0.6915
vn 0.6875 0.2336 0.6875
vn 0.6820 0.2639 0.6820
vn 0.6754 0.2962 0.6754
vn 0.6620 0.3514 0.6620
vn 0.6274 0.4613 0.6274
vn 0.5443 0.2005 -0.8146
vn 0.5433 0.2087 -0.8132
vn 0.5402 0.2336 -0.8085
vn 0.5359 0.2639 -0.8020
vn 0.5306 0.2962 -0.7942
vn 0.5201 0.3514 -0.7784
vn 0.4929 0.4613 -0.7377
vn -0.9609 0.2005 -0.1911
vn -0.9592 0.2087 -0.1908
vn -0.9536 0.2336 -0.1897
vn -0.9460 0.2639 -0.1882
vn -0.9368 0.2962 -0.1863
vn -0.9182 0.3514 -0.1826
vn -0.8702 0.4613 -0.1731
vn -0.0000 0.2005 0.9797
vn -0.0000 0.2087 0.9780
vn -0.0000 0.2336 0.9723
vn -0.0000 0.2639 0.9645
vn -0.0000 0.2962 0.9551
vn -0.0000 0.3514 0.9362
vn -0.0000 0.4613 0.8873
vn 0.9609 0.2005 -0.1911
vn 0.9592 0.2087 -0.1908
vn 0.9536 0.2336 -0.1897
vn 0.9460 0.2639 -0.1882
vn 0.9368 0.2962 -0.1863
vn 0.9182 0.3514 -0.1826
vn 0.8702 0.4613 -0.1731
vn -0.5443 0.2005 -0.8146
vn -0.5433 0.2087 -0.8132
vn -0.5402 0.2336 -0.8085
vn -0.5359 0.2639 -0.8020
vn -0.5306 0.2962 -0.7942
vn -0.5201 0.3514 -0.7784
vn -0.4929 0.4613 -0.7377
vn -0.6927 0.2005 0.6927
vn -0.6915 0.2087 0.6915
vn -0.6875 0.2336 0.6875
vn -0.6820 0.2639 0.6820
vn -0.6754 0.2962 0.6754
vn -0.6620 0.3514 0.6620
vn -0.6274 0.4613 0.6274
vn 0.8146 0.2005 0.5443
vn 0.8132 0.2087 0.5433
vn 0.8085 0.2336 0.5402
vn 0.8020 0.2639 0.5359
vn 0.7942 0.2962 0.5306
vn 0.7784 0.3514 0.5201
vn 0.7377 0.4613 0.4929
vn 0.3749 0.2005 -0.9051
vn 0.3743 0.2087 -0.9035
vn 0.3721 0.2336 -0.8983
vn 0.3691 0.2639 -0.8911
vn 0.3655 0.2962 -0.8824
vn 0.3583 0.3514 -0.8649
vn 0.3395 0.4613 -0.8197
vn -0.8033 0.5737 0.1598
vn -0.8190 0.5737 -0.0000
vn -0.7379 0.6588 0.1468
vn -0.7523 0.6588 -0.0000
vn 0.3134 0.5737 0.7567
vn 0.1598 0.5737 0.8033
vn 0.2879 0.6588 0.6951
vn 0.1468 0.6588 0.7379
vn 0.6810 0.5737 -0.4550
vn 0.7567 0.5737 -0.3134
vn 0.6255 0.6588 -0.4180
vn 0.6951 0.6588 -0.2879
vn -0.6810 0.5737 -0.4550
vn -0.5792 0.5737 -0.5792
vn -0.6255 0.6588 -0.4180
vn -0.5320 0.6588 -0.5320
vn -0.3134 0.5737 0.7567
vn -0.4550 0.5737 0.6810
vn -0.2879 0.6588 0.6951
vn -0.4180 0.6588 0.6255
vn 0.8033 0.5737 0.1598
vn 0.7567 0.5737 0.3134
vn 0.7379 0.6588 0.1468
vn 0.6951 0.6588 0.2879
vn -0.1598 0.5737 -0.8033
vn -0.0000 0.5737 -0.8190
vn -0.1468 0.6588 -0.7379
vn -0.0000 0.6588 -0.7523
vn 0.1598 0.5737 -0.8033
vn 0.1468 0.6588 -0.7379
vn -0.7567 0.5737 0.3134
vn -0.6951 0.6588 0.2879
vn 0.4550 0.5737 0.6810
vn 0.4180 0.6588 0.6255
vn 0.5792 0.5737 -0.5792
vn 0.5320 0.6588 -0.5320
vn -0.7567 0.5737 -0.3134
vn -0.6951 0.6588 -0.2879
vn -0.1598 0.5737 0.8033
vn -0.1468 0.6588 0.7379
vn 0.8191 0.5737 -0.0000
vn 0.7523 0.6588 -0.0000
vn -0.3134 0.5737 -0.7567
vn -0.2879 0.6588 -0.6951
vn -0.6810 0.5737 0.4550
vn -0.6255 0.6588 0.4180
vn 0.5792 0.5737 0.5792
vn 0.5320 0.6588 0.5320
vn 0.4550 0.5737 -0.6810
vn 0.4180 0.6588 -0.6255
vn -0.8033 0.5737 -0.1598
vn -0.7379 0.6588 -0.1468
vn -0.0000 0.5737 0.8190
vn -0.0000 0.6588 0.7523
vn 0.8033 0.5737 -0.1598
vn 0.7379 0.6588 -0.1468
vn -0.4550 0.5737 -0.6810
vn -0.4180 0.6588 -0.6255
vn -0.5792 0.5737 0.5791
vn -0.5320 0.6588 0.5320
vn 0.6810 0.5737 0.4550
vn 0.6255 0.6588 0.4180
vn 0.3134 0.5737 -0.7567
vn 0.2879 0.6588 -0.6951
vn -0.6145 0.7794 0.1222
vn -0.6265 0.7794 -0.0000
vn 0.2398 0.7794 0.5788
vn 0.1222 0.7794 0.6145
vn 0.5209 0.7794 -0.3481
vn 0.5788 0.7794 -0.2398
vn -0.5209 0.7794 -0.3481
vn -0.4430 0.7794 -0.4430
vn -0.2398 0.7794 0.5788
vn -0.3481 0.7794 0.5209
vn 0.6145 0.7794 0.1222
vn 0.5788 0.7794 0.2398
vn -0.1222 0.7794 -0.6145
vn -0.0000 0.7794 -0.6265
vn 0.1222 0.7794 -0.6145
vn -0.5788 0.7794 0.2398
vn 0.3481 0.7794 0.5209
vn 0.4430 0.7794 -0.4430
vn -0.5788 0.7794 -0.2398
vn -0.1222 0.7794 0.6145
vn 0.6265 0.7794 -0.0000
vn -0.2398 0.7794 -0.5788
vn -0.5209 0.7794 0.3481
vn 0.4430 0.7794 0.4430
vn 0.3481 0.7794 -0.5209
vn -0.6145 0.7794 -0.1222
vn -0.0000 0.7794 0.6265
vn 0.6145 0.7794 -0.1222
vn -0.3481 0.7794 -0.5209
vn -0.4430 0.7794 0.4430
vn 0.5209 0.7794 0.3481
vn 0.2398 0.7794 -0.5788
vn -0.4668 0.8795 0.0929
vn -0.4759 0.8795 -0.0000
vn 0.1821 0.8795 0.4397
vn 0.0929 0.8795 0.4668
vn 0.3957 0.8795 -0.2644
vn 0.4397 0.8795 -0.1821
vn -0.3957 0.8795 -0.2644
vn -0.3365 0.8795 -0.3365
vn -0.1821 0.8795 0.4397
vn -0.2644 0.8795 0.3957
vn 0.4668 0.8795 0.0928
vn 0.4397 0.8795 0.1821
vn -0.0929 0.8795 -0.4668
vn -0.0000 0.8795 -0.4759
vn 0.0929 0.8795 -0.4668
vn -0.4397 0.8795 0.1821
vn 0.2644 0.8795 0.3957
vn 0.3365 0.8795 -0.3365
vn -0.4397 0.8795 -0.1821
vn -0.0929 0.8795 0.4668
vn 0.4759 0.8795 -0.0000
vn -0.1821 0.8795 -0.4397
vn -0.3957 0.8795 0.2644
vn 0.3365 0.8795 0.3365
vn 0.2644 0.8795 -0.3957
vn -0.4668 0.8795 -0.0929
vn -0.0000 0.8795 0.4759
vn 0.4668 0.8795 -0.0928
vn -0.2644 0.8795 -0.3957
vn -0.3365 0.8795 0.3365
vn 0.3957 0.8795 0.2644
vn 0.1821 0.8795 -0.4397
vn -0.0000 -1.0000 -0.0000
vn 0.8270 -0.4457 0.3426
vn 0.7443 -0.4457 0.4973
vn -0.4973 -0.4457 0.7443
vn -0.6330 -0.4457 0.6330
vn -0.6330 -0.4457 -0.6330
vn -0.4973 -0.4457 -0.7443
vn 0.8270 -0.4457 -0.3426
vn 0.8780 -0.4457 -0.1746
vn 0.1746 -0.4457 0.8780
vn -0.0000 -0.4457 0.8952
vn -0.8952 -0.4457 -0.0000
vn -0.8780 -0.4457 -0.1746
vn 0.4973 -0.4457 -0.7443
vn 0.6330 -0.4457 0.6330
vn -0.7443 -0.4457 0.4973
vn -0.3426 -0.4457 -0.8270
vn 0.8952 -0.4457 -0.0000
vn -0.1746 -0.4457 0.8780
vn -0.8270 -0.4457 -0.3426
vn 0.6330 -0.4457 -0.6330
vn 0.4973 -0.4457 0.7443
vn -0.8270 -0.4457 0.3426
vn -0.1746 -0.4457 -0.8780
vn 0.8780 -0.4457 0.1746
vn -0.3426 -0.4457 0.8270
vn -0.7443 -0.4457 -0.4973
vn 0.7443 -0.4457 -0.4973
vn 0.3426 -0.4457 0.8270
vn -0.8780 -0.4457 0.1746
vn -0.0000 -0.4457 -0.8952
vt 1.000000 0.500000
vt 1.000000 1.000000
vt 0.968750 1.000000
vt 0.968750 0.500000
vt 0.937500 1.000000
vt 0.937500 0.500000
vt 0.906250 1.000000
vt 0.906250 0.500000
vt 0.875000 1.000000
vt 0.875000 0.500000
vt 0.843750 1.000000
vt 0.843750 0.500000
vt 0.812500 1.000000
vt 0.812500 0.500000
vt 0.781250 1.000000
vt 0.781250 0.500000
vt 0.750000 1.000000
vt 0.750000 0.500000
vt 0.718750 1.000000
vt 0.718750 0.500000
vt 0.687500 1.000000
vt 0.687500 0.500000
vt 0.656250 1.000000
vt 0.656250 0.500000
vt 0.625000 1.000000
vt 0.625000 0.500000
vt 0.593750 1.000000
vt 0.593750 0.500000
vt 0.562500 1.000000
vt 0.562500 0.500000
vt 0.531250 1.000000
vt 0.531250 0.500000
vt 0.500000 1.000000
vt 0.500000 0.500000
vt 0.468750 1.000000
vt 0.468750 0.500000
vt 0.437500 1.000000
vt 0.437500 0.500000
vt 0.406250 1.000000
vt 0.406250 0.500000
vt 0.375000 1.000000
vt 0.375000 0.500000
vt 0.343750 1.000000
vt 0.343750 0.500000
vt 0.312500 1.000000
vt 0.312500 0.500000
vt 0.281250 1.000000
vt 0.281250 0.500000
vt 0.250000 1.000000
vt 0.250000 0.500000
vt 0.218750 1.000000
vt 0.218750 0.500000
vt 0.187500 1.000000
vt 0.187500 0.500000
vt 0.156250 1.000000
vt 0.156250 0.500000
vt 0.125000 1.000000
vt 0.125000 0.500000
vt 0.093750 1.000000
vt 0.093750 0.500000
vt 0.062500 1.000000
vt 0.062500 0.500000
vt 0.031250 1.000000
vt 0.031250 0.500000
vt 0.000000 1.000000
vt 0.000000 0.500000
vt 0.296822 0.485388
vt 0.250000 0.490000
vt 0.203178 0.485388
vt 0.158156 0.471731
vt 0.116663 0.449553
vt 0.080294 0.419706
vt 0.050447 0.383337
vt 0.028269 0.341844
vt 0.014612 0.296822
vt 0.010000 0.250000
vt 0.014612 0.203178
vt 0.028269 0.158156
vt 0.050447 0.116663
vt 0.080294 0.080294
vt 0.116663 0.050447
vt 0.158156 0.028269
vt 0.203178 0.014612
vt 0.250000 0.010000
vt 0.296822 0.014612
vt 0.341844 0.028269
vt 0.383337 0.050447
vt 0.419706 0.080294
vt 0.449553 0.116663
vt 0.471731 0.158156
vt 0.485388 0.203178
vt 0.490000 0.250000
vt 0.485388 0.296822
vt 0.471731 0.341844
vt 0.449553 0.383337
vt 0.419706 0.419706
vt 0.383337 0.449553
vt 0.341844 0.471731
vt 0.843750 1.000000
vt 0.812500 1.000000
vt 0.406250 1.000000
vt 0.687500 1.000000
vt 0.718750 1.000000
vt 0.968750 1.000000
vt 0.468750 1.000000
vt 0.343750 1.000000
vt 0.656250 1.000000
vt 0.937500 1.000000
vt 0.750000 0.301968
vt 0.750000 0.490000
vt 0.796822 0.485388
vt 0.760139 0.300970
vt 0.841844 0.471731
vt 0.769888 0.298013
vt 0.883337 0.449553
vt 0.778872 0.293210
vt 0.919706 0.419706
vt 0.786747 0.286747
vt 0.949553 0.383337
vt 0.793210 0.278872
vt 0.971731 0.341844
vt 0.798013 0.269887
vt 0.985388 0.296822
vt 0.800970 0.260139
vt 0.990000 0.250000
vt 0.801969 0.250000
vt 0.985388 0.203178
vt 0.800970 0.239861
vt 0.971731 0.158156
vt 0.798012 0.230113
vt 0.949553 0.116663
vt 0.793210 0.221128
vt 0.919706 0.080294
vt 0.786747 0.213253
vt 0.883337 0.050447
vt 0.778872 0.206790
vt 0.841844 0.028269
vt 0.769887 0.201987
vt 0.796822 0.014612
vt 0.760139 0.199030
vt 0.750000 0.010000
vt 0.750000 0.198032
vt 0.703178 0.014612
vt 0.739861 0.199030
vt 0.658156 0.028269
vt 0.730112 0.201987
vt 0.616663 0.050447
vt 0.721128 0.206790
vt 0.580294 0.080294
vt 0.713253 0.213253
vt 0.550447 0.116663
vt 0.706790 0.221128
vt 0.528269 0.158156
vt 0.701987 0.230112
vt 0.514612 0.203178
vt 0.699030 0.239862
vt 0.510000 0.250000
vt 0.698032 0.250000
vt 0.514612 0.296822
vt 0.699030 0.260138
vt 0.528269 0.341844
vt 0.701987 0.269887
vt 0.550447 0.383337
vt 0.706790 0.278872
vt 0.580294 0.419706
vt 0.713253 0.286747
vt 0.616663 0.449553
vt 0.721128 0.293210
vt 0.658156 0.471731
vt 0.730112 0.298013
vt 0.703178 0.485388
vt 0.739862 0.300970
s 1
f 1/1/1 2/2/1 4/3/2 3/4/2
f 3/4/2 4/3/2 6/5/3 5/6/3
f 5/6/3 6/5/3 8/7/4 7/8/4
f 7/8/4 8/7/4 10/9/5 9/10/5
f 9/10/5 10/9/5 12/11/6 11/12/6
f 11/12/6 12/11/6 14/13/7 13/14/7
f 13/14/7 14/13/7 16/15/8 15/16/8
f 15/16/8 16/15/8 18/17/9 17/18/9
f 17/18/9 18/17/9 20/19/10 19/20/10
f 19/20/10 20/19/10 22/21/11 21/22/11
f 21/22/11 22/21/11 24/23/12 23/24/12
f 23/24/12 24/23/12 26/25/13 25/26/13
f 25/26/13 26/25/13 28/27/14 27/28/14
f 27/28/14 28/27/14 30/29/15 29/30/15
f 29/30/15 30/29/15 32/31/16 31/32/16
f 31/32/16 32/31/16 34/33/17 33/34/17
f 33/34/17 34/33/17 36/35/18 35/36/18
f 35/36/18 36/35/18 38/37/19 37/38/19
f 37/38/19 38/37/19 40/39/20 39/40/20
f 39/40/20 40/39/20 42/41/21 41/42/21
f 41/42/21 42/41/21 44/43/22 43/44/22
f 43/44/22 44/43/22 46/45/23 45/46/23
f 45/46/23 46/45/23 48/47/24 47/48/24
f 47/48/24 48/47/24 50/49/25 49/50/25
f 49/50/25 50/49/25 52/51/26 51/52/26
f 51/52/26 52/51/26 54/53/27 53/54/27
f 53/54/27 54/53/27 56/55/28 55/56/28
f 55/56/28 56/55/28 58/57/29 57/58/29
f 57/58/29 58/57/29 60/59/30 59/60/30
f 59/60/30 60/59/30 62/61/31 61/62/31
f 425/5/32 417/3/33 66/3/34 67/5/35
f 61/62/31 62/61/31 64/63/36 63/64/36
f 63/64/36 64/63/36 2/65/1 1/66/1
f 3/4/37 5/6/38 451/6/38 450/4/37
f 66/67/34 65/68/39 96/69/40 95/70/41 94/71/42 93/72/43 92/73/44 91/74/45 90/75/46 89/76/47 88/77/48 87/78/49 86/79/50 85/80/51 84/81/52 83/82/53 82/83/54 81/84/55 80/85/56 79/86/57 78/87/58 77/88/59 76/89/60 75/90/61 74/91/62 73/92/63 72/93/64 71/94/65 70/95/66 69/96/67 68/97/68 67/98/35
f 426/23/69 418/21/70 75/21/61 76/23/60
f 427/41/71 419/39/72 84/39/52 85/41/51
f 428/59/73 420/57/74 93/57/43 94/59/42
f 429/15/75 421/13/76 71/13/65 72/15/64
f 430/33/77 422/31/78 80/31/56 81/33/55
f 431/51/79 423/49/80 89/49/47 90/51/46
f 432/7/81 425/5/32 67/5/35 68/7/68
f 433/25/82 426/23/69 76/23/60 77/25/59
f 434/43/83 427/41/71 85/41/51 86/43/50
f 435/61/84 428/59/73 94/59/42 95/61/41
f 436/17/85 429/15/75 72/15/64 73/17/63
f 437/35/86 430/33/77 81/33/55 82/35/54
f 438/53/87 431/51/79 90/51/46 91/53/45
f 439/9/88 432/7/81 68/7/68 69/9/67
f 440/27/89 433/25/82 77/25/59 78/27/58
f 441/45/90 434/43/83 86/43/50 87/45/49
f 442/63/91 435/61/84 95/61/41 96/63/40
f 443/19/92 436/17/85 73/17/63 74/19/62
f 444/37/93 437/35/86 82/35/54 83/37/53
f 445/55/94 438/53/87 91/53/45 92/55/44
f 446/11/95 439/9/88 69/9/67 70/11/66
f 447/29/96 440/27/89 78/27/58 79/29/57
f 448/47/97 441/45/90 87/45/49 88/47/48
f 417/3/33 424/2/98 65/2/39 66/3/34
f 424/65/98 442/63/91 96/63/40 65/65/39
f 418/21/70 443/19/92 74/19/62 75/21/61
f 419/39/72 444/37/93 83/37/53 84/39/52
f 420/57/74 445/55/94 92/55/44 93/57/43
f 421/13/76 446/11/95 70/11/66 71/13/65
f 422/31/78 447/29/96 79/29/57 80/31/56
f 423/49/80 448/47/97 88/47/48 89/49/47
f 50/49/99 48/47/100 282/47/101 169/49/102
f 169/49/102 282/47/101 281/47/103 170/49/104
f 170/49/104 281/47/103 280/47/105 171/49/106
f 171/49/106 280/47/105 279/47/107 172/49/108
f 172/49/108 279/47/107 278/47/109 173/49/110
f 173/49/110 278/47/109 277/47/111 174/49/112
f 32/31/113 30/29/114 276/29/115 157/31/116
f 157/31/116 276/29/115 275/29/117 158/31/118
f 158/31/118 275/29/117 274/29/119 159/31/120
f 159/31/120 274/29/119 273/29/121 160/31/122
f 160/31/122 273/29/121 272/29/123 161/31/124
f 161/31/124 272/29/123 271/29/125 162/31/126
f 14/13/127 12/11/128 270/11/129 145/13/130
f 145/13/130 270/11/129 269/99/131 146/13/132
f 146/13/132 269/99/131 268/11/133 147/100/134
f 147/100/134 268/11/133 267/11/135 148/100/136
f 148/100/136 267/11/135 266/11/137 149/13/138
f 149/13/138 266/11/137 265/11/139 150/13/140
f 58/57/141 56/55/142 264/55/143 133/57/144
f 133/57/144 264/55/143 263/55/145 134/57/146
f 134/57/146 263/55/145 262/55/147 135/57/148
f 135/57/148 262/55/147 261/55/149 136/57/150
f 136/57/150 261/55/149 260/55/151 137/57/152
f 137/57/152 260/55/151 259/55/153 138/57/154
f 40/39/155 38/37/156 258/37/157 121/39/158
f 121/39/158 258/37/157 257/37/159 122/39/160
f 122/39/160 257/37/159 256/37/161 123/101/162
f 123/101/162 256/37/161 255/37/163 124/101/164
f 124/101/164 255/37/163 254/37/165 125/39/166
f 125/39/166 254/37/165 253/37/167 126/39/168
f 22/21/169 20/19/170 252/19/171 109/21/172
f 109/21/172 252/19/171 251/19/173 110/102/174
f 110/102/174 251/19/173 250/103/175 111/102/176
f 111/102/176 250/103/175 249/103/177 112/102/178
f 112/102/178 249/103/177 248/103/179 113/102/180
f 113/102/180 248/103/179 247/103/181 114/21/182
f 2/65/183 64/63/184 246/63/185 283/65/186
f 283/65/186 246/63/185 245/63/187 284/65/188
f 284/65/188 245/63/187 244/63/189 285/65/190
f 285/65/190 244/63/189 243/63/191 286/65/192
f 286/65/192 243/63/191 242/63/193 287/65/194
f 287/65/194 242/63/193 241/63/195 288/65/196
f 4/3/197 2/2/183 283/2/186 97/3/198
f 97/3/198 283/2/186 284/2/188 98/3/199
f 98/3/199 284/2/188 285/2/190 99/104/200
f 99/104/200 285/2/190 286/2/192 100/104/201
f 100/104/201 286/2/192 287/2/194 101/3/202
f 101/3/202 287/2/194 288/2/196 102/3/203
f 48/47/100 46/45/204 240/45/205 282/47/101
f 282/47/101 240/45/205 239/45/206 281/47/103
f 281/47/103 239/45/206 238/45/207 280/47/105
f 280/47/105 238/45/207 237/45/208 279/47/107
f 279/47/107 237/45/208 236/45/209 278/47/109
f 278/47/109 236/45/209 235/45/210 277/47/111
f 30/29/114 28/27/211 234/27/212 276/29/115
f 276/29/115 234/27/212 233/27/213 275/29/117
f 275/29/117 233/27/213 232/27/214 274/29/119
f 274/29/119 232/27/214 231/27/215 273/29/121
f 273/29/121 231/27/215 230/27/216 272/29/123
f 272/29/123 230/27/216 229/27/217 271/29/125
f 12/11/128 10/9/218 228/9/219 270/11/129
f 270/11/129 228/9/219 227/9/220 269/99/131
f 269/99/131 227/9/220 226/9/221 268/11/133
f 268/11/133 226/9/221 225/9/222 267/11/135
f 267/11/135 225/9/222 224/9/223 266/11/137
f 266/11/137 224/9/223 223/9/224 265/11/139
f 56/55/142 54/53/225 222/53/226 264/55/143
f 264/55/143 222/53/226 221/53/227 263/55/145
f 263/55/145 221/53/227 220/53/228 262/55/147
f 262/55/147 220/53/228 219/53/229 261/55/149
f 261/55/149 219/53/229 218/53/230 260/55/151
f 260/55/151 218/53/230 217/53/231 259/55/153
f 38/37/156 36/35/232 216/35/233 258/37/157
f 258/37/157 216/35/233 215/35/234 257/37/159
f 257/37/159 215/35/234 214/105/235 256/37/161
f 256/37/161 214/105/235 213/105/236 255/37/163
f 255/37/163 213/105/236 212/105/237 254/37/165
f 254/37/165 212/105/237 211/105/238 253/37/167
f 20/19/170 18/17/239 210/17/240 252/19/171
f 252/19/171 210/17/240 209/17/241 251/19/173
f 251/19/173 209/17/241 208/17/242 250/103/175
f 250/103/175 208/17/242 207/17/243 249/103/177
f 249/103/177 207/17/243 206/17/244 248/103/179
f 248/103/179 206/17/244 205/17/245 247/103/181
f 64/63/184 62/61/246 204/61/247 246/63/185
f 246/63/185 204/61/247 203/61/248 245/63/187
f 245/63/187 203/61/248 202/61/249 244/63/189
f 244/63/189 202/61/249 201/61/250 243/63/191
f 243/63/191 201/61/250 200/61/251 242/63/193
f 242/63/193 200/61/251 199/61/252 241/63/195
f 46/45/204 44/43/253 198/43/254 240/45/205
f 240/45/205 198/43/254 197/106/255 239/45/206
f 239/45/206 197/106/255 196/106/256 238/45/207
f 238/45/207 196/106/256 195/106/257 237/45/208
f 237/45/208 195/106/257 194/106/258 236/45/209
f 236/45/209 194/106/258 193/43/259 235/45/210
f 28/27/211 26/25/260 192/25/261 234/27/212
f 234/27/212 192/25/261 191/25/262 233/27/213
f 233/27/213 191/25/262 190/25/263 232/27/214
f 232/27/214 190/25/263 189/25/264 231/27/215
f 231/27/215 189/25/264 188/25/265 230/27/216
f 230/27/216 188/25/265 187/25/266 229/27/217
f 10/9/218 8/7/267 186/7/268 228/9/219
f 228/9/219 186/7/268 185/7/269 227/9/220
f 227/9/220 185/7/269 184/7/270 226/9/221
f 226/9/221 184/7/270 183/7/271 225/9/222
f 225/9/222 183/7/271 182/7/272 224/9/223
f 224/9/223 182/7/272 181/7/273 223/9/224
f 54/53/225 52/51/274 180/51/275 222/53/226
f 222/53/226 180/51/275 179/51/276 221/53/227
f 221/53/227 179/51/276 178/51/277 220/53/228
f 220/53/228 178/51/277 177/51/278 219/53/229
f 219/53/229 177/51/278 176/51/279 218/53/230
f 218/53/230 176/51/279 175/51/280 217/53/231
f 36/35/232 34/33/281 168/33/282 216/35/233
f 216/35/233 168/33/282 167/33/283 215/35/234
f 215/35/234 167/33/283 166/33/284 214/105/235
f 214/105/235 166/33/284 165/33/285 213/105/236
f 213/105/236 165/33/285 164/33/286 212/105/237
f 212/105/237 164/33/286 163/33/287 211/105/238
f 18/17/239 16/15/288 156/15/289 210/17/240
f 210/17/240 156/15/289 155/15/290 209/17/241
f 209/17/241 155/15/290 154/15/291 208/17/242
f 208/17/242 154/15/291 153/15/292 207/17/243
f 207/17/243 153/15/292 152/15/293 206/17/244
f 206/17/244 152/15/293 151/15/294 205/17/245
f 62/61/246 60/59/295 144/59/296 204/61/247
f 204/61/247 144/59/296 143/59/297 203/61/248
f 203/61/248 143/59/297 142/59/298 202/61/249
f 202/61/249 142/59/298 141/59/299 201/61/250
f 201/61/250 141/59/299 140/59/300 200/61/251
f 200/61/251 140/59/300 139/59/301 199/61/252
f 44/43/253 42/41/302 132/41/303 198/43/254
f 198/43/254 132/41/303 131/41/304 197/106/255
f 197/106/255 131/41/304 130/41/305 196/106/256
f 196/106/256 130/41/305 129/41/306 195/106/257
f 195/106/257 129/41/306 128/41/307 194/106/258
f 194/106/258 128/41/307 127/41/308 193/43/259
f 26/25/260 24/23/309 120/23/310 192/25/261
f 192/25/261 120/23/310 119/23/311 191/25/262
f 191/25/262 119/23/311 118/107/312 190/25/263
f 190/25/263 118/107/312 117/107/313 189/25/264
f 189/25/264 117/107/313 116/23/314 188/25/265
f 188/25/265 116/23/314 115/23/315 187/25/266
f 8/7/267 6/5/316 108/5/317 186/7/268
f 186/7/268 108/5/317 107/5/318 185/7/269
f 185/7/269 107/5/318 106/108/319 184/7/270
f 184/7/270 106/108/319 105/108/320 183/7/271
f 183/7/271 105/108/320 104/108/321 182/7/272
f 182/7/272 104/108/321 103/108/322 181/7/273
f 52/51/274 50/49/99 169/49/102 180/51/275
f 180/51/275 169/49/102 170/49/104 179/51/276
f 179/51/276 170/49/104 171/49/106 178/51/277
f 178/51/277 171/49/106 172/49/108 177/51/278
f 177/51/278 172/49/108 173/49/110 176/51/279
f 176/51/279 173/49/110 174/49/112 175/51/280
f 34/33/281 32/31/113 157/31/116 168/33/282
f 168/33/282 157/31/116 158/31/118 167/33/283
f 167/33/283 158/31/118 159/31/120 166/33/284
f 166/33/284 159/31/120 160/31/122 165/33/285
f 165/33/285 160/31/122 161/31/124 164/33/286
f 164/33/286 161/31/124 162/31/126 163/33/287
f 16/15/288 14/13/127 145/13/130 156/15/289
f 156/15/289 145/13/130 146/13/132 155/15/290
f 155/15/290 146/13/132 147/100/134 154/15/291
f 154/15/291 147/100/134 148/100/136 153/15/292
f 153/15/292 148/100/136 149/13/138 152/15/293
f 152/15/293 149/13/138 150/13/140 151/15/294
f 60/59/295 58/57/141 133/57/144 144/59/296
f 144/59/296 133/57/144 134/57/146 143/59/297
f 143/59/297 134/57/146 135/57/148 142/59/298
f 142/59/298 135/57/148 136/57/150 141/59/299
f 141/59/299 136/57/150 137/57/152 140/59/300
f 140/59/300 137/57/152 138/57/154 139/59/301
f 42/41/302 40/39/155 121/39/158 132/41/303
f 132/41/303 121/39/158 122/39/160 131/41/304
f 131/41/304 122/39/160 123/101/162 130/41/305
f 130/41/305 123/101/162 124/101/164 129/41/306
f 129/41/306 124/101/164 125/39/166 128/41/307
f 128/41/307 125/39/166 126/39/168 127/41/308
f 24/23/309 22/21/169 109/21/172 120/23/310
f 120/23/310 109/21/172 110/102/174 119/23/311
f 119/23/311 110/102/174 111/102/176 118/107/312
f 118/107/312 111/102/176 112/102/178 117/107/313
f 117/107/313 112/102/178 113/102/180 116/23/314
f 116/23/314 113/102/180 114/21/182 115/23/315
f 6/5/316 4/3/197 97/3/198 108/5/317
f 108/5/317 97/3/198 98/3/199 107/5/318
f 107/5/318 98/3/199 99/104/200 106/108/319
f 106/108/319 99/104/200 100/104/201 105/108/320
f 105/108/320 100/104/201 101/3/202 104/108/321
f 104/108/321 101/3/202 102/3/203 103/108/322
f 174/49/112 277/47/111 352/47/323 301/49/324
f 301/49/324 352/47/323 351/47/325 302/49/326
f 162/31/126 271/29/125 350/29/327 299/31/328
f 299/31/328 350/29/327 349/29/329 300/31/330
f 150/13/140 265/11/139 348/11/331 297/13/332
f 297/13/332 348/11/331 347/99/333 298/13/334
f 138/57/154 259/55/153 346/55/335 295/57/336
f 295/57/336 346/55/335 345/55/337 296/57/338
f 126/39/168 253/37/167 344/37/339 293/39/340
f 293/39/340 344/37/339 343/37/341 294/39/342
f 114/21/182 247/103/181 342/19/343 291/21/344
f 291/21/344 342/19/343 341/19/345 292/21/346
f 288/65/196 241/63/195 340/63/347 303/65/348
f 303/65/348 340/63/347 339/63/349 304/65/350
f 102/3/203 288/2/196 303/2/348 289/3/351
f 289/3/351 303/2/348 304/2/350 290/3/352
f 277/47/111 235/45/210 338/45/353 352/47/323
f 352/47/323 338/45/353 337/45/354 351/47/325
f 271/29/125 229/27/217 336/27/355 350/29/327
f 350/29/327 336/27/355 335/27/356 349/29/329
f 265/11/139 223/9/224 334/9/357 348/11/331
f 348/11/331 334/9/357 333/9/358 347/99/333
f 259/55/153 217/53/231 332/53/359 346/55/335
f 346/55/335 332/53/359 331/53/360 345/55/337
f 253/37/167 211/105/238 330/35/361 344/37/339
f 344/37/339 330/35/361 329/35/362 343/37/341
f 247/103/181 205/17/245 328/17/363 342/19/343
f 342/19/343 328/17/363 327/17/364 341/19/345
f 241/63/195 199/61/252 326/61/365 340/63/347
f 340/63/347 326/61/365 325/61/366 339/63/349
f 235/45/210 193/43/259 324/43/367 338/45/353
f 338/45/353 324/43/367 323/43/368 337/45/354
f 229/27/217 187/25/266 322/25/369 336/27/355
f 336/27/355 322/25/369 321/25/370 335/27/356
f 223/9/224 181/7/273 320/7/371 334/9/357
f 334/9/357 320/7/371 319/7/372 333/9/358
f 217/53/231 175/51/280 318/51/373 332/53/359
f 332/53/359 318/51/373 317/51/374 331/53/360
f 211/105/238 163/33/287 316/33/375 330/35/361
f 330/35/361 316/33/375 315/33/376 329/35/362
f 205/17/245 151/15/294 314/15/377 328/17/363
f 328/17/363 314/15/377 313/15/378 327/17/364
f 199/61/252 139/59/301 312/59/379 326/61/365
f 326/61/365 312/59/379 311/59/380 325/61/366
f 193/43/259 127/41/308 310/41/381 324/43/367
f 324/43/367 310/41/381 309/41/382 323/43/368
f 187/25/266 115/23/315 308/23/383 322/25/369
f 322/25/369 308/23/383 307/23/384 321/25/370
f 181/7/273 103/108/322 306/5/385 320/7/371
f 320/7/371 306/5/385 305/5/386 319/7/372
f 175/51/280 174/49/112 301/49/324 318/51/373
f 318/51/373 301/49/324 302/49/326 317/51/374
f 163/33/287 162/31/126 299/31/328 316/33/375
f 316/33/375 299/31/328 300/31/330 315/33/376
f 151/15/294 150/13/140 297/13/332 314/15/377
f 314/15/377 297/13/332 298/13/334 313/15/378
f 139/59/301 138/57/154 295/57/336 312/59/379
f 312/59/379 295/57/336 296/57/338 311/59/380
f 127/41/308 126/39/168 293/39/340 310/41/381
f 310/41/381 293/39/340 294/39/342 309/41/382
f 115/23/315 114/21/182 291/21/344 308/23/383
f 308/23/383 291/21/344 292/21/346 307/23/384
f 103/108/322 102/3/203 289/3/351 306/5/385
f 306/5/385 289/3/351 290/3/352 305/5/386
f 302/49/326 351/47/325 384/47/387 359/49/388
f 300/31/330 349/29/329 383/29/389 358/31/390
f 298/13/334 347/99/333 382/11/391 357/13/392
f 296/57/338 345/55/337 381/55/393 356/57/394
f 294/39/342 343/37/341 380/37/395 355/39/396
f 292/21/346 341/19/345 379/19/397 354/21/398
f 304/65/350 339/63/349 378/63/399 360/65/400
f 290/3/352 304/2/350 360/2/400 353/3/401
f 351/47/325 337/45/354 377/45/402 384/47/387
f 349/29/329 335/27/356 376/27/403 383/29/389
f 347/99/333 333/9/358 375/9/404 382/11/391
f 345/55/337 331/53/360 374/53/405 381/55/393
f 343/37/341 329/35/362 373/35/406 380/37/395
f 341/19/345 327/17/364 372/17/407 379/19/397
f 339/63/349 325/61/366 371/61/408 378/63/399
f 337/45/354 323/43/368 370/43/409 377/45/402
f 335/27/356 321/25/370 369/25/410 376/27/403
f 333/9/358 319/7/372 368/7/411 375/9/404
f 331/53/360 317/51/374 367/51/412 374/53/405
f 329/35/362 315/33/376 366/33/413 373/35/406
f 327/17/364 313/15/378 365/15/414 372/17/407
f 325/61/366 311/59/380 364/59/415 371/61/408
f 323/43/368 309/41/382 363/41/416 370/43/409
f 321/25/370 307/23/384 362/23/417 369/25/410
f 319/7/372 305/5/386 361/5/418 368/7/411
f 317/51/374 302/49/326 359/49/388 367/51/412
f 315/33/376 300/31/330 358/31/390 366/33/413
f 313/15/378 298/13/334 357/13/392 365/15/414
f 311/59/380 296/57/338 356/57/394 364/59/415
f 309/41/382 294/39/342 355/39/396 363/41/416
f 307/23/384 292/21/346 354/21/398 362/23/417
f 305/5/386 290/3/352 353/3/401 361/5/418
f 359/49/388 384/47/387 416/47/419 391/49/420
f 358/31/390 383/29/389 415/29/421 390/31/422
f 357/13/392 382/11/391 414/11/423 389/13/424
f 356/57/394 381/55/393 413/55/425 388/57/426
f 355/39/396 380/37/395 412/37/427 387/39/428
f 354/21/398 379/19/397 411/19/429 386/21/430
f 360/65/400 378/63/399 410/63/431 392/65/432
f 353/3/401 360/2/400 392/2/432 385/3/433
f 384/47/387 377/45/402 409/45/434 416/47/419
f 383/29/389 376/27/403 408/27/435 415/29/421
f 382/11/391 375/9/404 407/9/436 414/11/423
f 381/55/393 374/53/405 406/53/437 413/55/425
f 380/37/395 373/35/406 405/35/438 412/37/427
f 379/19/397 372/17/407 404/17/439 411/19/429
f 378/63/399 371/61/408 403/61/440 410/63/431
f 377/45/402 370/43/409 402/43/441 409/45/434
f 376/27/403 369/25/410 401/25/442 408/27/435
f 375/9/404 368/7/411 400/7/443 407/9/436
f 374/53/405 367/51/412 399/51/444 406/53/437
f 373/35/406 366/33/413 398/33/445 405/35/438
f 372/17/407 365/15/414 397/15/446 404/17/439
f 371/61/408 364/59/415 396/59/447 403/61/440
f 370/43/409 363/41/416 395/41/448 402/43/441
f 369/25/410 362/23/417 394/23/449 401/25/442
f 368/7/411 361/5/418 393/5/450 400/7/443
f 367/51/412 359/49/388 391/49/420 399/51/444
f 366/33/413 358/31/390 390/31/422 398/33/445
f 365/15/414 357/13/392 389/13/424 397/15/446
f 364/59/415 356/57/394 388/57/426 396/59/447
f 363/41/416 355/39/396 387/39/428 395/41/448
f 362/23/417 354/21/398 386/21/430 394/23/449
f 361/5/418 353/3/401 385/3/433 393/5/450
f 391/49/420 416/47/419 448/47/97 423/49/80
f 390/31/422 415/29/421 447/29/96 422/31/78
f 389/13/424 414/11/423 446/11/95 421/13/76
f 388/57/426 413/55/425 445/55/94 420/57/74
f 387/39/428 412/37/427 444/37/93 419/39/72
f 386/21/430 411/19/429 443/19/92 418/21/70
f 392/65/432 410/63/431 442/63/91 424/65/98
f 385/3/433 392/2/432 424/2/98 417/3/33
f 416/47/419 409/45/434 441/45/90 448/47/97
f 415/29/421 408/27/435 440/27/89 447/29/96
f 414/11/423 407/9/436 439/9/88 446/11/95
f 413/55/425 406/53/437 438/53/87 445/55/94
f 412/37/427 405/35/438 437/35/86 444/37/93
f 411/19/429 404/17/439 436/17/85 443/19/92
f 410/63/431 403/61/440 435/61/84 442/63/91
f 409/45/434 402/43/441 434/43/83 441/45/90
f 408/27/435 401/25/442 433/25/82 440/27/89
f 407/9/436 400/7/443 432/7/81 439/9/88
f 406/53/437 399/51/444 431/51/79 438/53/87
f 405/35/438 398/33/445 430/33/77 437/35/86
f 404/17/439 397/15/446 429/15/75 436/17/85
f 403/61/440 396/59/447 428/59/73 435/61/84
f 402/43/441 395/41/448 427/41/71 434/43/83
f 401/25/442 394/23/449 426/23/69 433/25/82
f 400/7/443 393/5/450 425/5/32 432/7/81
f 399/51/444 391/49/420 423/49/80 431/51/79
f 398/33/445 390/31/422 422/31/78 430/33/77
f 397/15/446 389/13/424 421/13/76 429/15/75
f 396/59/447 388/57/426 420/57/74 428/59/73
f 395/41/448 387/39/428 419/39/72 427/41/71
f 394/23/449 386/21/430 418/21/70 426/23/69
f 393/5/450 385/3/433 417/3/33 425/5/32
f 473/50/451 474/52/451 506/52/451 505/50/451
f 21/22/452 23/24/453 460/24/453 459/22/452
f 39/40/454 41/42/455 469/42/455 468/40/454
f 57/58/456 59/60/457 478/60/457 477/58/456
f 13/14/458 15/16/459 456/16/459 455/14/458
f 31/32/460 33/34/461 465/34/461 464/32/460
f 49/50/462 51/52/463 474/52/463 473/50/462
f 5/6/38 7/8/464 452/8/464 451/6/38
f 23/24/453 25/26/465 461/26/465 460/24/453
f 41/42/455 43/44/466 470/44/466 469/42/455
f 59/60/457 61/62/467 479/62/467 478/60/457
f 15/16/459 17/18/468 457/18/468 456/16/459
f 33/34/461 35/36/469 466/36/469 465/34/461
f 51/52/463 53/54/470 475/54/470 474/52/463
f 7/8/464 9/10/471 453/10/471 452/8/464
f 25/26/465 27/28/472 462/28/472 461/26/465
f 43/44/466 45/46/473 471/46/473 470/44/466
f 61/62/467 63/64/474 480/64/474 479/62/467
f 17/18/468 19/20/475 458/20/475 457/18/468
f 35/36/469 37/38/476 467/38/476 466/36/469
f 53/54/470 55/56/477 476/56/477 475/54/470
f 9/10/471 11/12/478 454/12/478 453/10/471
f 27/28/472 29/30/479 463/30/479 462/28/472
f 45/46/473 47/48/480 472/48/480 471/46/473
f 1/1/481 3/4/37 450/4/37 449/1/481
f 63/64/474 1/66/481 449/66/481 480/64/474
f 19/20/475 21/22/452 459/22/452 458/20/475
f 37/38/476 39/40/454 468/40/454 467/38/476
f 55/56/477 57/58/456 477/58/456 476/56/477
f 11/12/478 13/14/458 455/14/458 454/12/478
f 29/30/479 31/32/460 464/32/460 463/30/479
f 47/48/480 49/50/462 473/50/462 472/48/480
f 481/1/1 482/4/2 515/4/2 514/1/1
f 460/24/451 461/26/451 493/26/451 492/24/451
f 474/52/451 475/54/451 507/54/451 506/52/451
f 461/26/451 462/28/451 494/28/451 493/26/451
f 475/54/451 476/56/451 508/56/451 507/54/451
f 462/28/451 463/30/451 495/30/451 494/28/451
f 449/1/451 450/4/451 482/4/451 481/1/451
f 476/56/451 477/58/451 509/58/451 508/56/451
f 463/30/451 464/32/451 496/32/451 495/30/451
f 450/4/451 451/6/451 483/6/451 482/4/451
f 477/58/451 478/60/451 510/60/451 509/58/451
f 464/32/451 465/34/451 497/34/451 496/32/451
f 451/6/451 452/8/451 484/8/451 483/6/451
f 478/60/451 479/62/451 511/62/451 510/60/451
f 465/34/451 466/36/451 498/36/451 497/34/451
f 452/8/451 453/10/451 485/10/451 484/8/451
f 479/62/451 480/64/451 512/64/451 511/62/451
f 466/36/451 467/38/451 499/38/451 498/36/451
f 453/10/451 454/12/451 486/12/451 485/10/451
f 480/64/451 449/66/451 481/66/451 512/64/451
f 467/38/451 468/40/451 500/40/451 499/38/451
f 454/12/451 455/14/451 487/14/451 486/12/451
f 468/40/451 469/42/451 501/42/451 500/40/451
f 455/14/451 456/16/451 488/16/451 487/14/451
f 469/42/451 470/44/451 502/44/451 501/42/451
f 456/16/451 457/18/451 489/18/451 488/16/451
f 470/44/451 471/46/451 503/46/451 502/44/451
f 457/18/451 458/20/451 490/20/451 489/18/451
f 471/46/451 472/48/451 504/48/451 503/46/451
f 458/20/451 459/22/451 491/22/451 490/20/451
f 472/48/451 473/50/451 505/50/451 504/48/451
f 459/22/451 460/24/451 492/24/451 491/22/451
f 508/56/28 509/58/29 542/58/29 541/56/28
f 495/30/15 496/32/16 529/32/16 528/30/15
f 482/4/2 483/6/3 516/6/3 515/4/2
f 509/58/29 510/60/30 543/60/30 542/58/29
f 496/32/16 497/34/17 530/34/17 529/32/16
f 483/6/3 484/8/4 517/8/4 516/6/3
f 510/60/30 511/62/31 544/62/31 543/60/30
f 497/34/17 498/36/18 531/36/18 530/34/17
f 484/8/4 485/10/5 518/10/5 517/8/4
f 511/62/31 512/64/36 545/64/36 544/62/31
f 498/36/18 499/38/19 532/38/19 531/36/18
f 485/10/5 486/12/6 519/12/6 518/10/5
f 512/64/36 481/66/1 514/66/1 545/64/36
f 499/38/19 500/40/20 533/40/20 532/38/19
f 486/12/6 487/14/7 520/14/7 519/12/6
f 500/40/20 501/42/21 534/42/21 533/40/20
f 487/14/7 488/16/8 521/16/8 520/14/7
f 501/42/21 502/44/22 535/44/22 534/42/21
f 488/16/8 489/18/9 522/18/9 521/16/8
f 502/44/22 503/46/23 536/46/23 535/44/22
f 489/18/9 490/20/10 523/20/10 522/18/9
f 503/46/23 504/48/24 537/48/24 536/46/23
f 490/20/10 491/22/11 524/22/11 523/20/10
f 504/48/24 505/50/25 538/50/25 537/48/24
f 491/22/11 492/24/12 525/24/12 524/22/11
f 505/50/25 506/52/26 539/52/26 538/50/25
f 492/24/12 493/26/13 526/26/13 525/24/12
f 506/52/26 507/54/27 540/54/27 539/52/26
f 493/26/13 494/28/14 527/28/14 526/26/13
f 507/54/27 508/56/28 541/56/28 540/54/27
f 494/28/14 495/30/15 528/30/15 527/28/14
f 513/109/451 514/110/451 515/111/451
f 513/112/451 515/111/451 516/113/451
f 513/114/451 516/113/451 517/115/451
f 513/116/451 517/115/451 518/117/451
f 513/118/451 518/117/451 519/119/451
f 513/120/451 519/119/451 520/121/451
f 513/122/451 520/121/451 521/123/451
f 513/124/451 521/123/451 522/125/451
f 513/126/451 522/125/451 523/127/451
f 513/128/451 523/127/451 524/129/451
f 513/130/451 524/129/451 525/131/451
f 513/132/451 525/131/451 526/133/451
f 513/134/451 526/133/451 527/135/451
f 513/136/451 527/135/451 528/137/451
f 513/138/451 528/137/451 529/139/451
f 513/140/451 529/139/451 530/141/451
f 513/142/451 530/141/451 531/143/451
f 513/144/451 531/143/451 532/145/451
f 513/146/451 532/145/451 533/147/451
f 513/148/451 533/147/451 534/149/451
f 513/150/451 534/149/451 535/151/451
f 513/152/451 535/151/451 536/153/451
f 513/154/451 536/153/451 537/155/451
f 513/156/451 537/155/451 538/157/451
f 513/158/451 538/157/451 539/159/451
f 513/160/451 539/159/451 540/161/451
f 513/162/451 540/161/451 541/163/451
f 513/164/451 541/163/451 542/165/451
f 513/166/451 542/165/451 543/167/451
f 513/168/451 543/167/451 544/169/451
f 513/170/451 544/169/451 545/171/451
f 513/172/451 545/171/451 514/110/451
