# Blender 4.5.1 LTS
# www.blender.org
o APC
v 0.000000 0.070000 -0.100000
v 0.000000 0.320000 -0.100000
v 0.019509 0.320000 -0.098079
v 0.038268 0.070000 -0.092388
v 0.038268 0.320000 -0.092388
v 0.055557 0.320000 -0.083147
v 0.070711 0.320000 -0.070711
v 0.083147 0.320000 -0.055557
v 0.092388 0.070000 -0.038268
v 0.092388 0.320000 -0.038268
v 0.098079 0.320000 -0.019509
v 0.100000 0.070000 0.000000
v 0.100000 0.320000 0.000000
v 0.098079 0.320000 0.019509
v 0.092388 0.070000 0.038268
v 0.092388 0.320000 0.038268
v 0.083147 0.320000 0.055557
v 0.070711 0.320000 0.070711
v 0.055557 0.070000 0.083147
v 0.055557 0.320000 0.083147
v 0.038268 0.070000 0.092388
v 0.038268 0.320000 0.092388
v 0.019509 0.320000 0.098079
v 0.000000 0.320000 0.100000
v -0.019509 0.070000 0.098079
v -0.019509 0.320000 0.098079
v -0.038268 0.320000 0.092388
v -0.055557 0.320000 0.083147
v -0.070711 0.070000 0.070711
v -0.070711 0.320000 0.070711
v -0.083147 0.070000 0.055557
v -0.083147 0.320000 0.055557
v -0.092388 0.320000 0.038268
v -0.098078 0.320000 0.019509
v -0.100000 0.070000 0.000000
v -0.100000 0.320000 0.000000
v -0.098078 0.070000 -0.019509
v -0.098078 0.320000 -0.019509
v -0.092388 0.070000 -0.038268
v -0.092388 0.320000 -0.038268
v -0.083147 0.070000 -0.055557
v -0.083147 0.320000 -0.055557
v -0.070711 0.070000 -0.070711
v -0.070711 0.320000 -0.070711
v -0.055557 0.320000 -0.083147
v -0.038268 0.320000 -0.092388
v -0.019509 0.320000 -0.098079
v 0.000000 0.520000 -0.073845
v 0.014407 0.520000 -0.072426
v 0.028259 0.520000 -0.068224
v 0.041026 0.520000 -0.061400
v 0.052216 0.520000 -0.052216
v 0.061400 0.520000 -0.041026
v 0.068224 0.520000 -0.028259
v 0.072426 0.520000 -0.014406
v 0.073845 0.520000 0.000000
v 0.072426 0.520000 0.014406
v 0.068224 0.520000 0.028259
v 0.061400 0.520000 0.041026
v 0.052216 0.520000 0.052216
v 0.041026 0.520000 0.061400
v 0.028259 0.520000 0.068224
v 0.014407 0.520000 0.072426
v 0.000000 0.520000 0.073845
v -0.014406 0.520000 0.072426
v -0.028259 0.520000 0.068224
v -0.041026 0.520000 0.061400
v -0.052216 0.520000 0.052216
v -0.061400 0.520000 0.041026
v -0.068224 0.520000 0.028259
v -0.072426 0.520000 0.014406
v -0.073845 0.520000 0.000000
v -0.072426 0.520000 -0.014406
v -0.068224 0.520000 -0.028259
v -0.061400 0.520000 -0.041026
v -0.052216 0.520000 -0.052216
v -0.041026 0.520000 -0.061400
v -0.028259 0.520000 -0.068224
v -0.014406 0.520000 -0.072426
v 0.000000 0.545000 -0.057087
v 0.011137 0.545000 -0.055990
v 0.021846 0.545000 -0.052742
v 0.031716 0.545000 -0.047466
v 0.040367 0.545000 -0.040367
v 0.047466 0.545000 -0.031716
v 0.052742 0.545000 -0.021846
v 0.055990 0.545000 -0.011137
v 0.057087 0.545000 0.000000
v 0.055990 0.545000 0.011137
v 0.052742 0.545000 0.021846
v 0.047466 0.545000 0.031716
v 0.040367 0.545000 0.040367
v 0.031716 0.545000 0.047466
v 0.021846 0.545000 0.052742
v 0.011137 0.545000 0.055990
v 0.000000 0.545000 0.057087
v -0.011137 0.545000 0.055990
v -0.021846 0.545000 0.052742
v -0.031716 0.545000 0.047466
v -0.040367 0.545000 0.040367
v -0.047466 0.545000 0.031716
v -0.052742 0.545000 0.021846
v -0.055990 0.545000 0.011137
v -0.057087 0.545000 0.000000
v -0.055990 0.545000 -0.011137
v -0.052742 0.545000 -0.021846
v -0.047466 0.545000 -0.031716
v -0.040367 0.545000 -0.040367
v -0.031716 0.545000 -0.047466
v -0.021846 0.545000 -0.052742
v -0.011137 0.545000 -0.055990
v -0.000000 0.570000 -0.000571
v 0.000111 0.570000 -0.000560
v 0.000218 0.570000 -0.000527
v 0.000317 0.570000 -0.000475
v 0.000404 0.570000 -0.000404
v 0.000475 0.570000 -0.000317
v 0.000527 0.570000 -0.000218
v 0.000560 0.570000 -0.000111
v 0.000571 0.570000 -0.000000
v 0.000560 0.570000 0.000111
v 0.000527 0.570000 0.000218
v 0.000475 0.570000 0.000317
v 0.000404 0.570000 0.000404
v 0.000317 0.570000 0.000475
v 0.000218 0.570000 0.000527
v 0.000111 0.570000 0.000560
v -0.000000 0.570000 0.000571
v -0.000111 0.570000 0.000560
v -0.000219 0.570000 0.000527
v -0.000317 0.570000 0.000475
v -0.000404 0.570000 0.000404
v -0.000475 0.570000 0.000317
v -0.000528 0.570000 0.000218
v -0.000560 0.570000 0.000111
v -0.000571 0.570000 -0.000000
v -0.000560 0.570000 -0.000111
v -0.000528 0.570000 -0.000218
v -0.000475 0.570000 -0.000317
v -0.000404 0.570000 -0.000404
v -0.000317 0.570000 -0.000475
v -0.000219 0.570000 -0.000527
v -0.000111 0.570000 -0.000560
v 0.000000 0.030000 -0.037053
v 0.000000 0.032168 -0.053541
v 0.000000 0.040741 -0.080887
v 0.000000 0.054638 -0.096726
v 0.019509 0.070000 -0.098079
v 0.007229 0.030000 -0.036341
v 0.018871 0.054638 -0.094868
v 0.015780 0.040741 -0.079333
v 0.010445 0.032168 -0.052512
v 0.014180 0.030000 -0.034233
v 0.037016 0.054638 -0.089364
v 0.030954 0.040741 -0.074730
v 0.020489 0.032168 -0.049465
v 0.055557 0.070000 -0.083147
v 0.020586 0.030000 -0.030809
v 0.053738 0.054638 -0.080425
v 0.044938 0.040741 -0.067255
v 0.029746 0.032168 -0.044518
v 0.070711 0.070000 -0.070711
v 0.026201 0.030000 -0.026201
v 0.068396 0.054638 -0.068396
v 0.057196 0.040741 -0.057196
v 0.037859 0.032168 -0.037859
v 0.083147 0.070000 -0.055557
v 0.030809 0.030000 -0.020586
v 0.080425 0.054638 -0.053738
v 0.067255 0.040741 -0.044938
v 0.044518 0.032168 -0.029746
v 0.034233 0.030000 -0.014180
v 0.089364 0.054638 -0.037016
v 0.074730 0.040741 -0.030954
v 0.049465 0.032168 -0.020489
v 0.098079 0.070000 -0.019509
v 0.036341 0.030000 -0.007229
v 0.094868 0.054638 -0.018870
v 0.079333 0.040741 -0.015780
v 0.052512 0.032168 -0.010445
v 0.037053 0.030000 -0.000000
v 0.096726 0.054638 -0.000000
v 0.080887 0.040741 -0.000000
v 0.053541 0.032168 0.000000
v 0.098079 0.070000 0.019509
v 0.036341 0.030000 0.007229
v 0.094868 0.054638 0.018870
v 0.079333 0.040741 0.015780
v 0.052512 0.032168 0.010445
v 0.034233 0.030000 0.014180
v 0.089364 0.054638 0.037016
v 0.074730 0.040741 0.030954
v 0.049465 0.032168 0.020489
v 0.083147 0.070000 0.055557
v 0.030809 0.030000 0.020586
v 0.080425 0.054638 0.053738
v 0.067255 0.040741 0.044938
v 0.044518 0.032168 0.029746
v 0.070711 0.070000 0.070711
v 0.026201 0.030000 0.026201
v 0.068396 0.054638 0.068396
v 0.057196 0.040741 0.057196
v 0.037859 0.032168 0.037859
v 0.020586 0.030000 0.030809
v 0.053738 0.054638 0.080425
v 0.044938 0.040741 0.067255
v 0.029746 0.032168 0.044518
v 0.014180 0.030000 0.034233
v 0.037016 0.054638 0.089364
v 0.030954 0.040741 0.074730
v 0.020489 0.032168 0.049465
v 0.019509 0.070000 0.098079
v 0.007229 0.030000 0.036341
v 0.018871 0.054638 0.094868
v 0.015780 0.040741 0.079333
v 0.010445 0.032168 0.052512
v 0.000000 0.070000 0.100000
v 0.000000 0.030000 0.037053
v 0.000000 0.054638 0.096726
v 0.000000 0.040741 0.080887
v 0.000000 0.032168 0.053541
v -0.007229 0.030000 0.036341
v -0.018870 0.054638 0.094868
v -0.015780 0.040741 0.079333
v -0.010445 0.032168 0.052512
v -0.038268 0.070000 0.092388
v -0.014179 0.030000 0.034233
v -0.037015 0.054638 0.089364
v -0.030954 0.040741 0.074730
v -0.020489 0.032168 0.049465
v -0.055557 0.070000 0.083147
v -0.020585 0.030000 0.030809
v -0.053738 0.054638 0.080425
v -0.044938 0.040741 0.067255
v -0.029746 0.032168 0.044518
v -0.026200 0.030000 0.026201
v -0.068396 0.054638 0.068396
v -0.057195 0.040741 0.057196
v -0.037859 0.032168 0.037859
v -0.030808 0.030000 0.020586
v -0.080425 0.054638 0.053738
v -0.067255 0.040741 0.044938
v -0.044518 0.032168 0.029746
v -0.092388 0.070000 0.038268
v -0.034233 0.030000 0.014180
v -0.089363 0.054638 0.037016
v -0.074729 0.040741 0.030954
v -0.049465 0.032168 0.020489
v -0.098078 0.070000 0.019509
v -0.036341 0.030000 0.007229
v -0.094868 0.054638 0.018870
v -0.079332 0.040741 0.015780
v -0.052512 0.032168 0.010445
v -0.037053 0.030000 0.000000
v -0.096726 0.054638 0.000000
v -0.080887 0.040741 0.000000
v -0.053541 0.032168 0.000000
v -0.036341 0.030000 -0.007229
v -0.094868 0.054638 -0.018870
v -0.079332 0.040741 -0.015780
v -0.052512 0.032168 -0.010445
v -0.034233 0.030000 -0.014180
v -0.089363 0.054638 -0.037016
v -0.074729 0.040741 -0.030954
v -0.049465 0.032168 -0.020489
v -0.030808 0.030000 -0.020586
v -0.080425 0.054638 -0.053738
v -0.067255 0.040741 -0.044938
v -0.044518 0.032168 -0.029746
v -0.026200 0.030000 -0.026201
v -0.068396 0.054638 -0.068396
v -0.057195 0.040741 -0.057196
v -0.037859 0.032168 -0.037859
v -0.055557 0.070000 -0.083147
v -0.020585 0.030000 -0.030809
v -0.053738 0.054638 -0.080425
v -0.044938 0.040741 -0.067255
v -0.029746 0.032168 -0.044518
v -0.038268 0.070000 -0.092388
v -0.014179 0.030000 -0.034233
v -0.037015 0.054638 -0.089364
v -0.030954 0.040741 -0.074730
v -0.020489 0.032168 -0.049465
v -0.019509 0.070000 -0.098079
v -0.007229 0.030000 -0.036341
v -0.018870 0.054638 -0.094868
v -0.015780 0.040741 -0.079333
v -0.010445 0.032168 -0.052512
v 0.000000 -0.000000 0.000000
v 0.007229 -0.000000 -0.036341
v 0.000000 -0.000000 -0.037053
v 0.014180 -0.000000 -0.034233
v 0.020586 -0.000000 -0.030809
v 0.026201 -0.000000 -0.026201
v 0.030809 -0.000000 -0.020586
v 0.034233 -0.000000 -0.014180
v 0.036341 -0.000000 -0.007229
v 0.037053 -0.000000 -0.000000
v 0.036341 -0.000000 0.007229
v 0.034233 -0.000000 0.014180
v 0.030809 -0.000000 0.020586
v 0.026201 -0.000000 0.026201
v 0.020586 -0.000000 0.030809
v 0.014180 -0.000000 0.034233
v 0.007229 -0.000000 0.036341
v 0.000000 -0.000000 0.037053
v -0.007229 -0.000000 0.036341
v -0.014179 -0.000000 0.034233
v -0.020585 -0.000000 0.030809
v -0.026200 -0.000000 0.026201
v -0.030808 -0.000000 0.020586
v -0.034233 -0.000000 0.014180
v -0.036341 -0.000000 0.007229
v -0.037053 -0.000000 0.000000
v -0.036341 -0.000000 -0.007229
v -0.034233 -0.000000 -0.014180
v -0.030808 -0.000000 -0.020586
v -0.026200 -0.000000 -0.026201
v -0.020585 -0.000000 -0.030809
v -0.014179 -0.000000 -0.034233
v -0.007229 -0.000000 -0.036341
vn -0.0000 -0.0000 -1.0000
vn 0.1951 -0.0000 -0.9808
vn 0.3827 -0.0000 -0.9239
vn 0.5556 -0.0000 -0.8315
vn 0.7071 -0.0000 -0.7071
vn 0.8315 -0.0000 -0.5556
vn 0.9239 -0.0000 -0.3827
vn 0.9808 -0.0000 -0.1951
vn 1.0000 -0.0000 -0.0000
vn 0.9808 -0.0000 0.1951
vn 0.9239 -0.0000 0.3827
vn 0.8315 -0.0000 0.5556
vn 0.7071 -0.0000 0.7071
vn 0.5556 -0.0000 0.8315
vn 0.3827 -0.0000 0.9239
vn 0.1951 -0.0000 0.9808
vn -0.0000 -0.0000 1.0000
vn -0.1951 -0.0000 0.9808
vn -0.3827 -0.0000 0.9239
vn -0.5556 -0.0000 0.8315
vn -0.7071 -0.0000 0.7071
vn -0.8315 -0.0000 0.5556
vn -0.9239 -0.0000 0.3827
vn -0.9808 -0.0000 0.1951
vn -1.0000 -0.0000 -0.0000
vn -0.9808 -0.0000 -0.1951
vn -0.9239 -0.0000 -0.3827
vn -0.8315 -0.0000 -0.5556
vn -0.7071 -0.0000 -0.7071
vn -0.5556 -0.0000 -0.8315
vn -0.3827 -0.0000 -0.9239
vn 0.5509 0.1297 -0.8244
vn 0.3795 0.1297 -0.9161
vn -0.1951 -0.0000 -0.9808
vn -0.5874 0.5568 0.5874
vn -0.4615 0.5568 0.6907
vn 0.7011 0.1297 0.7011
vn 0.8244 0.1297 0.5509
vn -0.8244 0.1297 0.5509
vn -0.7011 0.1297 0.7011
vn -0.3795 0.1297 -0.9161
vn -0.5509 0.1297 -0.8244
vn 0.9916 0.1297 -0.0000
vn 0.9725 0.1297 -0.1934
vn -0.1934 0.1297 0.9725
vn -0.0000 0.1297 0.9916
vn -0.9161 0.1297 -0.3795
vn -0.9725 0.1297 -0.1934
vn 0.7011 0.1297 -0.7011
vn 0.5509 0.1297 0.8244
vn -0.9161 0.1297 0.3795
vn -0.1934 0.1297 -0.9725
vn 0.9725 0.1297 0.1934
vn -0.3795 0.1297 0.9161
vn -0.8244 0.1297 -0.5509
vn 0.8244 0.1297 -0.5509
vn 0.3795 0.1297 0.9161
vn -0.9725 0.1297 0.1934
vn 0.1934 0.1297 -0.9725
vn -0.0000 0.1297 -0.9916
vn 0.9161 0.1297 0.3795
vn -0.5509 0.1297 0.8244
vn -0.7011 0.1297 -0.7011
vn 0.9161 0.1297 -0.3795
vn 0.1934 0.1297 0.9725
vn -0.9916 0.1297 -0.0000
vn -0.3968 0.9145 0.0789
vn -0.3737 0.9145 0.1548
vn -0.2024 0.9757 0.0838
vn -0.2148 0.9757 0.0427
vn 0.8147 0.5568 -0.1621
vn 0.7674 0.5568 -0.3179
vn -0.6907 0.5568 0.4615
vn 0.8306 0.5568 -0.0000
vn -0.7674 0.5568 0.3179
vn 0.8147 0.5568 0.1621
vn -0.8147 0.5568 0.1621
vn 0.7674 0.5568 0.3179
vn -0.8306 0.5568 -0.0000
vn 0.6907 0.5568 0.4615
vn -0.8147 0.5568 -0.1621
vn 0.5874 0.5568 0.5874
vn -0.7674 0.5568 -0.3179
vn 0.4615 0.5568 0.6907
vn -0.6907 0.5568 -0.4615
vn 0.3179 0.5568 0.7674
vn 0.1621 0.5568 -0.8147
vn -0.0000 0.5568 -0.8306
vn -0.5874 0.5568 -0.5874
vn 0.1621 0.5568 0.8147
vn 0.3179 0.5568 -0.7674
vn -0.4615 0.5568 -0.6907
vn -0.0000 0.5568 0.8306
vn 0.4615 0.5568 -0.6907
vn -0.3179 0.5568 -0.7674
vn -0.1621 0.5568 0.8147
vn 0.5874 0.5568 -0.5874
vn -0.1621 0.5568 -0.8147
vn -0.3179 0.5568 0.7674
vn 0.6907 0.5568 -0.4615
vn 0.0427 0.9757 -0.2148
vn -0.0000 0.9757 -0.2190
vn -0.0427 0.9757 -0.2148
vn -0.0838 0.9757 -0.2024
vn -0.1217 0.9757 -0.1821
vn -0.1549 0.9757 -0.1549
vn -0.1821 0.9757 -0.1217
vn -0.2024 0.9757 -0.0838
vn -0.2148 0.9757 -0.0427
vn -0.2190 0.9757 -0.0000
vn -0.1821 0.9757 0.1217
vn -0.1549 0.9757 0.1549
vn -0.1217 0.9757 0.1821
vn -0.0838 0.9757 0.2024
vn -0.0427 0.9757 0.2148
vn -0.0000 0.9757 0.2190
vn 0.0427 0.9757 0.2148
vn 0.0838 0.9757 0.2024
vn 0.1217 0.9757 0.1821
vn 0.1549 0.9757 0.1549
vn 0.1821 0.9757 0.1217
vn 0.2023 0.9757 0.0838
vn 0.2148 0.9757 0.0427
vn 0.2190 0.9757 -0.0000
vn 0.2148 0.9757 -0.0427
vn 0.2023 0.9757 -0.0838
vn 0.1821 0.9757 -0.1217
vn 0.1549 0.9757 -0.1549
vn 0.1217 0.9757 -0.1821
vn 0.0838 0.9757 -0.2024
vn 0.3737 0.9145 0.1548
vn 0.3968 0.9145 0.0789
vn -0.4045 0.9145 -0.0000
vn 0.3364 0.9145 0.2247
vn -0.3968 0.9145 -0.0789
vn 0.2861 0.9145 0.2861
vn -0.3737 0.9145 -0.1548
vn 0.2247 0.9145 0.3364
vn -0.3364 0.9145 -0.2247
vn 0.1548 0.9145 0.3737
vn 0.0789 0.9145 -0.3968
vn -0.0000 0.9145 -0.4045
vn -0.2861 0.9145 -0.2861
vn 0.0789 0.9145 0.3968
vn 0.1548 0.9145 -0.3737
vn -0.2247 0.9145 -0.3364
vn -0.0000 0.9145 0.4045
vn 0.2247 0.9145 -0.3364
vn -0.1548 0.9145 -0.3737
vn -0.0789 0.9145 0.3968
vn 0.2861 0.9145 -0.2861
vn -0.0789 0.9145 -0.3968
vn -0.1548 0.9145 0.3737
vn 0.3364 0.9145 -0.2247
vn -0.2247 0.9145 0.3364
vn 0.3737 0.9145 -0.1548
vn -0.2861 0.9145 0.2861
vn 0.3968 0.9145 -0.0789
vn -0.3364 0.9145 0.2247
vn 0.4045 0.9145 -0.0000
vn -0.0000 -0.2084 -0.9780
vn 0.1908 -0.2084 -0.9592
vn -0.0000 -0.7517 -0.6595
vn 0.1287 -0.7517 -0.6468
vn 0.0975 -0.8663 -0.4900
vn -0.0000 -0.8663 -0.4996
vn 0.0431 -0.9753 -0.2165
vn -0.0000 -0.9753 -0.2207
vn 0.0254 -0.9915 -0.1279
vn -0.0000 -0.9915 -0.1304
vn 0.3743 -0.2084 -0.9036
vn 0.2524 -0.7517 -0.6093
vn 0.1912 -0.8663 -0.4616
vn 0.0845 -0.9753 -0.2039
vn 0.0499 -0.9915 -0.1205
vn 0.5434 -0.2084 -0.8132
vn 0.3664 -0.7517 -0.5484
vn 0.2776 -0.8663 -0.4154
vn 0.1226 -0.9753 -0.1835
vn 0.0724 -0.9915 -0.1084
vn 0.6916 -0.2084 -0.6916
vn 0.4663 -0.7517 -0.4663
vn 0.3533 -0.8663 -0.3533
vn 0.1561 -0.9753 -0.1561
vn 0.0922 -0.9915 -0.0922
vn 0.8132 -0.2084 -0.5434
vn 0.5484 -0.7517 -0.3664
vn 0.4154 -0.8663 -0.2776
vn 0.1835 -0.9753 -0.1226
vn 0.1084 -0.9915 -0.0724
vn 0.9036 -0.2084 -0.3743
vn 0.6093 -0.7517 -0.2524
vn 0.4616 -0.8663 -0.1912
vn 0.2039 -0.9753 -0.0845
vn 0.1205 -0.9915 -0.0499
vn 0.9592 -0.2084 -0.1908
vn 0.6468 -0.7517 -0.1287
vn 0.4900 -0.8663 -0.0975
vn 0.2165 -0.9753 -0.0431
vn 0.1279 -0.9915 -0.0254
vn 0.9780 -0.2084 -0.0000
vn 0.6595 -0.7517 -0.0000
vn 0.4996 -0.8663 -0.0000
vn 0.2207 -0.9753 -0.0000
vn 0.1304 -0.9915 -0.0000
vn 0.9592 -0.2084 0.1908
vn 0.6468 -0.7517 0.1287
vn 0.4900 -0.8663 0.0975
vn 0.2165 -0.9753 0.0431
vn 0.1279 -0.9915 0.0254
vn 0.9036 -0.2084 0.3743
vn 0.6093 -0.7517 0.2524
vn 0.4616 -0.8663 0.1912
vn 0.2039 -0.9753 0.0845
vn 0.1205 -0.9915 0.0499
vn 0.8132 -0.2084 0.5434
vn 0.5484 -0.7517 0.3664
vn 0.4154 -0.8663 0.2776
vn 0.1835 -0.9753 0.1226
vn 0.1084 -0.9915 0.0724
vn 0.6916 -0.2084 0.6916
vn 0.4663 -0.7517 0.4663
vn 0.3533 -0.8663 0.3533
vn 0.1561 -0.9753 0.1561
vn 0.0922 -0.9915 0.0922
vn 0.5434 -0.2084 0.8132
vn 0.3664 -0.7517 0.5484
vn 0.2776 -0.8663 0.4154
vn 0.1226 -0.9753 0.1835
vn 0.0724 -0.9915 0.1084
vn 0.3743 -0.2084 0.9036
vn 0.2524 -0.7517 0.6093
vn 0.1912 -0.8663 0.4616
vn 0.0845 -0.9753 0.2039
vn 0.0499 -0.9915 0.1205
vn 0.1908 -0.2084 0.9592
vn 0.1287 -0.7517 0.6468
vn 0.0975 -0.8663 0.4900
vn 0.0431 -0.9753 0.2165
vn 0.0254 -0.9915 0.1279
vn -0.0000 -0.2084 0.9780
vn -0.0000 -0.7517 0.6595
vn -0.0000 -0.8663 0.4996
vn -0.0000 -0.9753 0.2207
vn -0.0000 -0.9915 0.1304
vn -0.1908 -0.2084 0.9592
vn -0.1287 -0.7517 0.6468
vn -0.0975 -0.8663 0.4900
vn -0.0431 -0.9753 0.2165
vn -0.0254 -0.9915 0.1279
vn -0.3743 -0.2084 0.9036
vn -0.2524 -0.7517 0.6093
vn -0.1912 -0.8663 0.4616
vn -0.0845 -0.9753 0.2039
vn -0.0499 -0.9915 0.1205
vn -0.5434 -0.2084 0.8132
vn -0.3664 -0.7517 0.5484
vn -0.2776 -0.8663 0.4154
vn -0.1226 -0.9753 0.1835
vn -0.0724 -0.9915 0.1084
vn -0.6916 -0.2084 0.6916
vn -0.4663 -0.7517 0.4663
vn -0.3533 -0.8663 0.3533
vn -0.1561 -0.9753 0.1561
vn -0.0922 -0.9915 0.0922
vn -0.8132 -0.2084 0.5434
vn -0.5484 -0.7517 0.3664
vn -0.4154 -0.8663 0.2776
vn -0.1835 -0.9753 0.1226
vn -0.1084 -0.9915 0.0724
vn -0.9036 -0.2084 0.3743
vn -0.6093 -0.7517 0.2524
vn -0.4616 -0.8663 0.1912
vn -0.2039 -0.9753 0.0845
vn -0.1205 -0.9915 0.0499
vn -0.9592 -0.2084 0.1908
vn -0.6468 -0.7517 0.1287
vn -0.4900 -0.8663 0.0975
vn -0.2165 -0.9753 0.0431
vn -0.1279 -0.9915 0.0254
vn -0.9780 -0.2084 -0.0000
vn -0.6595 -0.7517 -0.0000
vn -0.4996 -0.8663 -0.0000
vn -0.2207 -0.9753 -0.0000
vn -0.1304 -0.9915 -0.0000
vn -0.9592 -0.2084 -0.1908
vn -0.6468 -0.7517 -0.1287
vn -0.4900 -0.8663 -0.0975
vn -0.2165 -0.9753 -0.0431
vn -0.1279 -0.9915 -0.0254
vn -0.9036 -0.2084 -0.3743
vn -0.6093 -0.7517 -0.2524
vn -0.4616 -0.8663 -0.1912
vn -0.2039 -0.9753 -0.0845
vn -0.1205 -0.9915 -0.0499
vn -0.8132 -0.2084 -0.5434
vn -0.5484 -0.7517 -0.3664
vn -0.4154 -0.8663 -0.2776
vn -0.1835 -0.9753 -0.1226
vn -0.1084 -0.9915 -0.0724
vn -0.6916 -0.2084 -0.6916
vn -0.4663 -0.7517 -0.4663
vn -0.3533 -0.8663 -0.3533
vn -0.1561 -0.9753 -0.1561
vn -0.0922 -0.9915 -0.0922
vn -0.5434 -0.2084 -0.8132
vn -0.3664 -0.7517 -0.5484
vn -0.2776 -0.8663 -0.4154
vn -0.1226 -0.9753 -0.1835
vn -0.0724 -0.9915 -0.1084
vn -0.3743 -0.2084 -0.9036
vn -0.2524 -0.7517 -0.6093
vn -0.1912 -0.8663 -0.4616
vn -0.0845 -0.9753 -0.2039
vn -0.0499 -0.9915 -0.1205
vn -0.1908 -0.2084 -0.9592
vn -0.1287 -0.7517 -0.6468
vn -0.0975 -0.8663 -0.4900
vn -0.0431 -0.9753 -0.2165
vn -0.0254 -0.9915 -0.1279
vn -0.0000 -1.0000 -0.0000
vt 1.000000 0.500000
vt 1.000000 1.000000
vt 0.968750 1.000000
vt 0.968750 0.500000
vt 0.937500 1.000000
vt 0.937500 0.500000
vt 0.906250 1.000000
vt 0.906250 0.500000
vt 0.875000 1.000000
vt 0.875000 0.500000
vt 0.843750 1.000000
vt 0.843750 0.500000
vt 0.812500 1.000000
vt 0.812500 0.500000
vt 0.781250 1.000000
vt 0.781250 0.500000
vt 0.750000 1.000000
vt 0.750000 0.500000
vt 0.718750 1.000000
vt 0.718750 0.500000
vt 0.687500 1.000000
vt 0.687500 0.500000
vt 0.656250 1.000000
vt 0.656250 0.500000
vt 0.625000 1.000000
vt 0.625000 0.500000
vt 0.593750 1.000000
vt 0.593750 0.500000
vt 0.562500 1.000000
vt 0.562500 0.500000
vt 0.531250 1.000000
vt 0.531250 0.500000
vt 0.500000 1.000000
vt 0.500000 0.500000
vt 0.468750 1.000000
vt 0.468750 0.500000
vt 0.437500 1.000000
vt 0.437500 0.500000
vt 0.406250 1.000000
vt 0.406250 0.500000
vt 0.375000 1.000000
vt 0.375000 0.500000
vt 0.343750 1.000000
vt 0.343750 0.500000
vt 0.312500 1.000000
vt 0.312500 0.500000
vt 0.281250 1.000000
vt 0.281250 0.500000
vt 0.250000 1.000000
vt 0.250000 0.500000
vt 0.218750 1.000000
vt 0.218750 0.500000
vt 0.187500 1.000000
vt 0.187500 0.500000
vt 0.156250 1.000000
vt 0.156250 0.500000
vt 0.125000 1.000000
vt 0.125000 0.500000
vt 0.093750 1.000000
vt 0.093750 0.500000
vt 0.062500 1.000000
vt 0.062500 0.500000
vt 0.031250 1.000000
vt 0.031250 0.500000
vt 0.000000 1.000000
vt 0.000000 0.500000
vt 0.296822 0.485388
vt 0.250000 0.490000
vt 0.203178 0.485388
vt 0.158156 0.471731
vt 0.116663 0.449553
vt 0.080294 0.419706
vt 0.050447 0.383337
vt 0.028269 0.341844
vt 0.014612 0.296822
vt 0.010000 0.250000
vt 0.014612 0.203178
vt 0.028269 0.158156
vt 0.050447 0.116663
vt 0.080294 0.080294
vt 0.116663 0.050447
vt 0.158156 0.028269
vt 0.203178 0.014612
vt 0.250000 0.010000
vt 0.296822 0.014612
vt 0.341844 0.028269
vt 0.383337 0.050447
vt 0.419706 0.080294
vt 0.449553 0.116663
vt 0.471731 0.158156
vt 0.485388 0.203178
vt 0.490000 0.250000
vt 0.485388 0.296822
vt 0.471731 0.341844
vt 0.449553 0.383337
vt 0.419706 0.419706
vt 0.383337 0.449553
vt 0.341844 0.471731
vt 0.968750 0.500000
vt 0.968750 0.500000
vt 0.999522 0.500000
vt 0.968750 0.500000
vt 0.998161 0.500000
vt 0.750000 0.489729
vt 0.796769 0.485122
vt 0.785204 0.426984
vt 0.750000 0.430451
vt 0.778003 0.390777
vt 0.750000 0.393535
vt 0.937500 0.500000
vt 0.937500 0.500000
vt 0.937500 0.500000
vt 0.841740 0.471480
vt 0.819055 0.416715
vt 0.804929 0.382610
vt 0.906250 0.500000
vt 0.906250 0.500000
vt 0.883186 0.449327
vt 0.850253 0.400039
vt 0.829744 0.369345
vt 0.875000 0.500000
vt 0.919514 0.419514
vt 0.877598 0.377598
vt 0.851495 0.351495
vt 0.949327 0.383186
vt 0.900039 0.350253
vt 0.869345 0.329744
vt 0.812500 0.500000
vt 0.971480 0.341740
vt 0.916715 0.319055
vt 0.882609 0.304929
vt 0.781250 0.500000
vt 0.781250 0.500000
vt 0.985122 0.296769
vt 0.926984 0.285204
vt 0.890777 0.278002
vt 0.750000 0.500000
vt 0.750000 0.500000
vt 0.750000 0.500000
vt 0.989728 0.250000
vt 0.930451 0.250000
vt 0.893535 0.250000
vt 0.718750 0.500000
vt 0.718750 0.500000
vt 0.985122 0.203231
vt 0.926984 0.214796
vt 0.890777 0.221998
vt 0.687500 0.500000
vt 0.971480 0.158260
vt 0.916715 0.180944
vt 0.882609 0.195071
vt 0.656250 0.500000
vt 0.656250 0.500000
vt 0.949327 0.116814
vt 0.900040 0.149747
vt 0.869345 0.170256
vt 0.625000 0.500000
vt 0.625000 0.500000
vt 0.919514 0.080486
vt 0.877598 0.122402
vt 0.851495 0.148505
vt 0.593750 0.500000
vt 0.883186 0.050673
vt 0.850253 0.099961
vt 0.829744 0.130655
vt 0.562500 0.500000
vt 0.562500 0.500000
vt 0.841740 0.028520
vt 0.819055 0.083285
vt 0.804929 0.117391
vt 0.531250 0.500000
vt 0.531250 0.500000
vt 0.796769 0.014878
vt 0.785204 0.073016
vt 0.778002 0.109223
vt 0.500000 0.500000
vt 0.750000 0.010271
vt 0.750000 0.069549
vt 0.750000 0.106465
vt 0.468750 0.500000
vt 0.468750 0.500000
vt 0.703231 0.014878
vt 0.714796 0.073016
vt 0.721997 0.109223
vt 0.437500 0.500000
vt 0.658260 0.028520
vt 0.680945 0.083285
vt 0.695071 0.117391
vt 0.406250 0.500000
vt 0.616814 0.050673
vt 0.649747 0.099961
vt 0.670256 0.130655
vt 0.375000 0.500000
vt 0.375000 0.500000
vt 0.580486 0.080486
vt 0.622402 0.122402
vt 0.648505 0.148505
vt 0.343750 0.500000
vt 0.550673 0.116814
vt 0.599961 0.149747
vt 0.630655 0.170256
vt 0.312500 0.500000
vt 0.312500 0.500000
vt 0.528520 0.158260
vt 0.583285 0.180944
vt 0.617391 0.195071
vt 0.281250 0.500000
vt 0.281250 0.500000
vt 0.514878 0.203231
vt 0.573016 0.214796
vt 0.609223 0.221998
vt 0.250000 0.500000
vt 0.250000 0.500000
vt 0.510271 0.250000
vt 0.569549 0.250000
vt 0.606465 0.250000
vt 0.218750 0.500000
vt 0.218750 0.500000
vt 0.514878 0.296769
vt 0.573017 0.285204
vt 0.609223 0.278002
vt 0.187500 0.500000
vt 0.187500 0.500000
vt 0.528520 0.341740
vt 0.583285 0.319055
vt 0.617390 0.304929
vt 0.156250 0.500000
vt 0.550673 0.383186
vt 0.599961 0.350253
vt 0.630655 0.329744
vt 0.580486 0.419514
vt 0.622402 0.377598
vt 0.648505 0.351495
vt 0.093750 0.500000
vt 0.093750 0.500000
vt 0.616814 0.449327
vt 0.649747 0.400039
vt 0.670256 0.369345
vt 0.062500 0.500000
vt 0.062500 0.500000
vt 0.658260 0.471480
vt 0.680944 0.416715
vt 0.695071 0.382610
vt 0.031250 0.500000
vt 0.031250 0.500000
vt 0.031250 0.500000
vt 0.703231 0.485122
vt 0.714796 0.426983
vt 0.721998 0.390777
vt 0.000478 0.500000
vt 0.001839 0.500000
vt 0.750000 0.312023
vt 0.762100 0.310832
vt 0.773735 0.307302
vt 0.784458 0.301571
vt 0.793857 0.293857
vt 0.801570 0.284458
vt 0.807302 0.273735
vt 0.810832 0.262100
vt 0.812024 0.250000
vt 0.810832 0.237900
vt 0.807302 0.226265
vt 0.801571 0.215542
vt 0.793857 0.206143
vt 0.784458 0.198429
vt 0.773735 0.192698
vt 0.762100 0.189168
vt 0.750000 0.187976
vt 0.737900 0.189168
vt 0.726265 0.192698
vt 0.715542 0.198429
vt 0.706143 0.206143
vt 0.698429 0.215542
vt 0.692698 0.226265
vt 0.689168 0.237900
vt 0.687976 0.250000
vt 0.689168 0.262100
vt 0.692698 0.273735
vt 0.698429 0.284458
vt 0.706143 0.293857
vt 0.715542 0.301571
vt 0.726265 0.307302
vt 0.737900 0.310832
s 1
f 1/1/1 2/2/1 3/3/2 148/4/2
f 148/4/2 3/3/2 5/5/3 4/6/3
f 4/6/3 5/5/3 6/7/4 157/8/4
f 157/8/4 6/7/4 7/9/5 162/10/5
f 162/10/5 7/9/5 8/11/6 167/12/6
f 167/12/6 8/11/6 10/13/7 9/14/7
f 9/14/7 10/13/7 11/15/8 176/16/8
f 176/16/8 11/15/8 13/17/9 12/18/9
f 12/18/9 13/17/9 14/19/10 185/20/10
f 185/20/10 14/19/10 16/21/11 15/22/11
f 15/22/11 16/21/11 17/23/12 194/24/12
f 194/24/12 17/23/12 18/25/13 199/26/13
f 199/26/13 18/25/13 20/27/14 19/28/14
f 19/28/14 20/27/14 22/29/15 21/30/15
f 21/30/15 22/29/15 23/31/16 212/32/16
f 212/32/16 23/31/16 24/33/17 217/34/17
f 217/34/17 24/33/17 26/35/18 25/36/18
f 25/36/18 26/35/18 27/37/19 226/38/19
f 226/38/19 27/37/19 28/39/20 231/40/20
f 231/40/20 28/39/20 30/41/21 29/42/21
f 29/42/21 30/41/21 32/43/22 31/44/22
f 31/44/22 32/43/22 33/45/23 244/46/23
f 244/46/23 33/45/23 34/47/24 249/48/24
f 249/48/24 34/47/24 36/49/25 35/50/25
f 35/50/25 36/49/25 38/51/26 37/52/26
f 37/52/26 38/51/26 40/53/27 39/54/27
f 39/54/27 40/53/27 42/55/28 41/56/28
f 41/56/28 42/55/28 44/57/29 43/58/29
f 43/58/29 44/57/29 45/59/30 274/60/30
f 274/60/30 45/59/30 46/61/31 279/62/31
f 6/7/32 5/5/33 50/5/33 51/7/32
f 279/62/31 46/61/31 47/63/34 284/64/34
f 284/64/34 47/63/34 2/65/1 1/66/1
f 68/41/35 67/39/36 99/39/36 100/41/35
f 18/25/37 17/23/38 59/23/38 60/25/37
f 32/43/39 30/41/40 68/41/40 69/43/39
f 46/61/41 45/59/42 77/59/42 78/61/41
f 13/17/43 11/15/44 55/15/44 56/17/43
f 26/35/45 24/33/46 64/33/46 65/35/45
f 40/53/47 38/51/48 73/51/48 74/53/47
f 7/9/49 6/7/32 51/7/32 52/9/49
f 20/27/50 18/25/37 60/25/37 61/27/50
f 33/45/51 32/43/39 69/43/39 70/45/51
f 47/63/52 46/61/41 78/61/41 79/63/52
f 14/19/53 13/17/43 56/17/43 57/19/53
f 27/37/54 26/35/45 65/35/45 66/37/54
f 42/55/55 40/53/47 74/53/47 75/55/55
f 8/11/56 7/9/49 52/9/49 53/11/56
f 22/29/57 20/27/50 61/27/50 62/29/57
f 34/47/58 33/45/51 70/45/51 71/47/58
f 3/3/59 2/2/60 48/2/60 49/3/59
f 2/65/60 47/63/52 79/63/52 48/65/60
f 16/21/61 14/19/53 57/19/53 58/21/61
f 28/39/62 27/37/54 66/37/54 67/39/62
f 44/57/63 42/55/55 75/55/55 76/57/63
f 10/13/64 8/11/56 53/11/56 54/13/64
f 23/31/65 22/29/57 62/29/57 63/31/65
f 36/49/66 34/47/58 71/47/58 72/49/66
f 5/5/33 3/3/59 49/3/59 50/5/33
f 17/23/38 16/21/61 58/21/61 59/23/38
f 30/41/40 28/39/62 67/39/62 68/41/40
f 45/59/42 44/57/63 76/57/63 77/59/42
f 11/15/44 10/13/64 54/13/64 55/15/44
f 24/33/46 23/31/65 63/31/65 64/33/46
f 38/51/48 36/49/66 72/49/66 73/51/48
f 103/47/67 102/45/68 134/45/69 135/47/70
f 55/15/71 54/13/72 86/13/72 87/15/71
f 69/43/73 68/41/35 100/41/35 101/43/73
f 56/17/74 55/15/71 87/15/71 88/17/74
f 70/45/75 69/43/73 101/43/73 102/45/75
f 57/19/76 56/17/74 88/17/74 89/19/76
f 71/47/77 70/45/75 102/45/75 103/47/77
f 58/21/78 57/19/76 89/19/76 90/21/78
f 72/49/79 71/47/77 103/47/77 104/49/79
f 59/23/80 58/21/78 90/21/78 91/23/80
f 73/51/81 72/49/79 104/49/79 105/51/81
f 60/25/82 59/23/80 91/23/80 92/25/82
f 74/53/83 73/51/81 105/51/81 106/53/83
f 61/27/84 60/25/82 92/25/82 93/27/84
f 75/55/85 74/53/83 106/53/83 107/55/85
f 62/29/86 61/27/84 93/27/84 94/29/86
f 49/3/87 48/2/88 80/2/88 81/3/87
f 76/57/89 75/55/85 107/55/85 108/57/89
f 63/31/90 62/29/86 94/29/86 95/31/90
f 50/5/91 49/3/87 81/3/87 82/5/91
f 77/59/92 76/57/89 108/57/89 109/59/92
f 64/33/93 63/31/90 95/31/90 96/33/93
f 51/7/94 50/5/91 82/5/91 83/7/94
f 78/61/95 77/59/92 109/59/92 110/61/95
f 65/35/96 64/33/93 96/33/93 97/35/96
f 52/9/97 51/7/94 83/7/94 84/9/97
f 79/63/98 78/61/95 110/61/95 111/63/98
f 66/37/99 65/35/96 97/35/96 98/37/99
f 53/11/100 52/9/97 84/9/97 85/11/100
f 48/65/88 79/63/98 111/63/98 80/65/88
f 67/39/36 66/37/99 98/37/99 99/39/36
f 54/13/72 53/11/100 85/11/100 86/13/72
f 113/67/101 112/68/102 143/69/103 142/70/104 141/71/105 140/72/106 139/73/107 138/74/108 137/75/109 136/76/110 135/77/70 134/78/69 133/79/111 132/80/112 131/81/113 130/82/114 129/83/115 128/84/116 127/85/117 126/86/118 125/87/119 124/88/120 123/89/121 122/90/122 121/91/123 120/92/124 119/93/125 118/94/126 117/95/127 116/96/128 115/97/129 114/98/130
f 90/21/131 89/19/132 121/19/123 122/21/122
f 104/49/133 103/47/67 135/47/70 136/49/110
f 91/23/134 90/21/131 122/21/122 123/23/121
f 105/51/135 104/49/133 136/49/110 137/51/109
f 92/25/136 91/23/134 123/23/121 124/25/120
f 106/53/137 105/51/135 137/51/109 138/53/108
f 93/27/138 92/25/136 124/25/120 125/27/119
f 107/55/139 106/53/137 138/53/108 139/55/107
f 94/29/140 93/27/138 125/27/119 126/29/118
f 81/3/141 80/2/142 112/2/102 113/3/101
f 108/57/143 107/55/139 139/55/107 140/57/106
f 95/31/144 94/29/140 126/29/118 127/31/117
f 82/5/145 81/3/141 113/3/101 114/5/130
f 109/59/146 108/57/143 140/57/106 141/59/105
f 96/33/147 95/31/144 127/31/117 128/33/116
f 83/7/148 82/5/145 114/5/130 115/7/129
f 110/61/149 109/59/146 141/59/105 142/61/104
f 97/35/150 96/33/147 128/33/116 129/35/115
f 84/9/151 83/7/148 115/7/129 116/9/128
f 111/63/152 110/61/149 142/61/104 143/63/103
f 98/37/153 97/35/150 129/35/115 130/37/114
f 85/11/154 84/9/151 116/9/128 117/11/127
f 80/65/142 111/63/152 143/63/103 112/65/102
f 99/39/155 98/37/153 130/37/114 131/39/113
f 86/13/156 85/11/154 117/11/127 118/13/126
f 100/41/157 99/39/155 131/39/113 132/41/112
f 87/15/158 86/13/156 118/13/126 119/15/125
f 101/43/159 100/41/157 132/41/112 133/43/111
f 88/17/160 87/15/158 119/15/125 120/17/124
f 102/45/68 101/43/159 133/43/111 134/45/69
f 89/19/132 88/17/160 120/17/124 121/19/123
f 1/1/161 148/99/162 150/100/162 147/101/161
f 147/101/163 150/100/164 151/102/165 146/103/166
f 146/104/166 151/105/165 152/106/167 145/107/168
f 145/107/168 152/106/167 149/108/169 144/109/170
f 148/99/162 4/110/171 154/111/171 150/100/162
f 150/100/164 154/111/172 155/112/173 151/102/165
f 151/105/165 155/113/173 156/114/174 152/106/167
f 152/106/167 156/114/174 153/115/175 149/108/169
f 4/110/171 157/8/176 159/116/176 154/111/171
f 154/111/172 159/116/177 160/117/178 155/112/173
f 155/113/173 160/118/178 161/119/179 156/114/174
f 156/114/174 161/119/179 158/120/180 153/115/175
f 157/8/176 162/10/181 164/121/181 159/116/176
f 159/116/177 164/121/182 165/10/183 160/117/178
f 160/118/178 165/122/183 166/123/184 161/119/179
f 161/119/179 166/123/184 163/124/185 158/120/180
f 162/10/181 167/12/186 169/12/186 164/121/181
f 164/121/182 169/12/187 170/12/188 165/10/183
f 165/122/183 170/125/188 171/126/189 166/123/184
f 166/123/184 171/126/189 168/127/190 163/124/185
f 167/12/186 9/128/191 173/14/191 169/12/186
f 169/12/187 173/14/192 174/14/193 170/12/188
f 170/125/188 174/129/193 175/130/194 171/126/189
f 171/126/189 175/130/194 172/131/195 168/127/190
f 9/128/191 176/16/196 178/132/196 173/14/191
f 173/14/192 178/132/197 179/133/198 174/14/193
f 174/129/193 179/134/198 180/135/199 175/130/194
f 175/130/194 180/135/199 177/136/200 172/131/195
f 176/16/196 12/137/201 182/138/201 178/132/196
f 178/132/197 182/138/202 183/139/203 179/133/198
f 179/134/198 183/140/203 184/141/204 180/135/199
f 180/135/199 184/141/204 181/142/205 177/136/200
f 12/137/201 185/20/206 187/143/206 182/138/201
f 182/138/202 187/143/207 188/144/208 183/139/203
f 183/140/203 188/145/208 189/146/209 184/141/204
f 184/141/204 189/146/209 186/147/210 181/142/205
f 185/20/206 15/22/211 191/148/211 187/143/206
f 187/143/207 191/148/212 192/148/213 188/144/208
f 188/145/208 192/149/213 193/150/214 189/146/209
f 189/146/209 193/150/214 190/151/215 186/147/210
f 15/22/211 194/24/216 196/152/216 191/148/211
f 191/148/212 196/152/217 197/153/218 192/148/213
f 192/149/213 197/154/218 198/155/219 193/150/214
f 193/150/214 198/155/219 195/156/220 190/151/215
f 194/24/216 199/157/221 201/158/221 196/152/216
f 196/152/217 201/158/222 202/26/223 197/153/218
f 197/154/218 202/159/223 203/160/224 198/155/219
f 198/155/219 203/160/224 200/161/225 195/156/220
f 199/157/221 19/162/226 205/28/226 201/158/221
f 201/158/222 205/28/227 206/28/228 202/26/223
f 202/159/223 206/163/228 207/164/229 203/160/224
f 203/160/224 207/164/229 204/165/230 200/161/225
f 19/162/226 21/30/231 209/166/231 205/28/226
f 205/28/227 209/166/232 210/167/233 206/28/228
f 206/163/228 210/168/233 211/169/234 207/164/229
f 207/164/229 211/169/234 208/170/235 204/165/230
f 21/30/231 212/171/236 214/171/236 209/166/231
f 209/166/232 214/171/237 215/172/238 210/167/233
f 210/168/233 215/173/238 216/174/239 211/169/234
f 211/169/234 216/174/239 213/175/240 208/170/235
f 212/171/236 217/34/241 219/176/241 214/171/236
f 214/171/237 219/176/242 220/34/243 215/172/238
f 215/173/238 220/177/243 221/178/244 216/174/239
f 216/174/239 221/178/244 218/179/245 213/175/240
f 217/34/241 25/36/246 223/180/246 219/176/241
f 219/176/242 223/180/247 224/181/248 220/34/243
f 220/177/243 224/182/248 225/183/249 221/178/244
f 221/178/244 225/183/249 222/184/250 218/179/245
f 25/36/246 226/38/251 228/185/251 223/180/246
f 223/180/247 228/185/252 229/185/253 224/181/248
f 224/182/248 229/186/253 230/187/254 225/183/249
f 225/183/249 230/187/254 227/188/255 222/184/250
f 226/38/251 231/40/256 233/40/256 228/185/251
f 228/185/252 233/40/257 234/189/258 229/185/253
f 229/186/253 234/190/258 235/191/259 230/187/254
f 230/187/254 235/191/259 232/192/260 227/188/255
f 231/40/256 29/193/261 237/194/261 233/40/256
f 233/40/257 237/194/262 238/42/263 234/189/258
f 234/190/258 238/195/263 239/196/264 235/191/259
f 235/191/259 239/196/264 236/197/265 232/192/260
f 29/193/261 31/44/266 241/198/266 237/194/261
f 237/194/262 241/198/267 242/198/268 238/42/263
f 238/195/263 242/199/268 243/200/269 239/196/264
f 239/196/264 243/200/269 240/201/270 236/197/265
f 31/44/266 244/202/271 246/203/271 241/198/266
f 241/198/267 246/203/272 247/46/273 242/198/268
f 242/199/268 247/204/273 248/205/274 243/200/269
f 243/200/269 248/205/274 245/206/275 240/201/270
f 244/202/271 249/207/276 251/48/276 246/203/271
f 246/203/272 251/48/277 252/208/278 247/46/273
f 247/204/273 252/209/278 253/210/279 248/205/274
f 248/205/274 253/210/279 250/211/280 245/206/275
f 249/207/276 35/50/281 255/212/281 251/48/276
f 251/48/277 255/212/282 256/213/283 252/208/278
f 252/209/278 256/214/283 257/215/284 253/210/279
f 253/210/279 257/215/284 254/216/285 250/211/280
f 35/50/281 37/217/286 259/52/286 255/212/281
f 255/212/282 259/52/287 260/218/288 256/213/283
f 256/214/283 260/219/288 261/220/289 257/215/284
f 257/215/284 261/220/289 258/221/290 254/216/285
f 37/217/286 39/54/291 263/222/291 259/52/286
f 259/52/287 263/222/292 264/223/293 260/218/288
f 260/219/288 264/224/293 265/225/294 261/220/289
f 261/220/289 265/225/294 262/226/295 258/221/290
f 39/54/291 41/56/296 267/56/296 263/222/291
f 263/222/292 267/56/297 268/227/298 264/223/293
f 264/224/293 268/228/298 269/229/299 265/225/294
f 265/225/294 269/229/299 266/230/300 262/226/295
f 41/56/296 43/58/301 271/58/301 267/56/296
f 267/56/297 271/58/302 272/58/303 268/227/298
f 268/228/298 272/231/303 273/232/304 269/229/299
f 269/229/299 273/232/304 270/233/305 266/230/300
f 43/58/301 274/60/306 276/234/306 271/58/301
f 271/58/302 276/234/307 277/235/308 272/58/303
f 272/231/303 277/236/308 278/237/309 273/232/304
f 273/232/304 278/237/309 275/238/310 270/233/305
f 274/60/306 279/62/311 281/239/311 276/234/306
f 276/234/307 281/239/312 282/240/313 277/235/308
f 277/236/308 282/241/313 283/242/314 278/237/309
f 278/237/309 283/242/314 280/243/315 275/238/310
f 279/62/311 284/244/316 286/245/316 281/239/311
f 281/239/312 286/245/317 287/246/318 282/240/313
f 282/241/313 287/247/318 288/248/319 283/242/314
f 283/242/314 288/248/319 285/249/320 280/243/315
f 284/244/316 1/66/161 147/250/161 286/245/316
f 286/245/317 147/250/163 146/251/166 287/246/318
f 287/247/318 146/104/166 145/107/168 288/248/319
f 288/248/319 145/107/168 144/109/170 285/249/320
f 163/124/5 168/127/6 295/127/6 294/124/5
f 177/136/8 181/142/9 298/142/9 297/136/8
f 190/151/11 195/156/12 301/156/12 300/151/11
f 204/165/14 208/170/15 304/170/15 303/165/14
f 218/179/17 222/184/18 307/184/18 306/179/17
f 232/192/20 236/197/21 310/197/21 309/192/20
f 245/206/23 250/211/24 313/211/24 312/206/23
f 258/221/26 262/226/27 316/226/27 315/221/26
f 270/233/29 275/238/30 319/238/30 318/233/29
f 144/109/1 149/108/2 290/108/2 291/109/1
f 158/120/4 163/124/5 294/124/5 293/120/4
f 172/131/7 177/136/8 297/136/8 296/131/7
f 186/147/10 190/151/11 300/151/11 299/147/10
f 200/161/13 204/165/14 303/165/14 302/161/13
f 213/175/16 218/179/17 306/179/17 305/175/16
f 227/188/19 232/192/20 309/192/20 308/188/19
f 240/201/22 245/206/23 312/206/23 311/201/22
f 254/216/25 258/221/26 315/221/26 314/216/25
f 266/230/28 270/233/29 318/233/29 317/230/28
f 280/243/31 285/249/34 321/249/34 320/243/31
f 153/115/3 158/120/4 293/120/4 292/115/3
f 168/127/6 172/131/7 296/131/7 295/127/6
f 181/142/9 186/147/10 299/147/10 298/142/9
f 195/156/12 200/161/13 302/161/13 301/156/12
f 208/170/15 213/175/16 305/175/16 304/170/15
f 222/184/18 227/188/19 308/188/19 307/184/18
f 236/197/21 240/201/22 311/201/22 310/197/21
f 250/211/24 254/216/25 314/216/25 313/211/24
f 262/226/27 266/230/28 317/230/28 316/226/27
f 275/238/30 280/243/31 320/243/31 319/238/30
f 285/249/34 144/109/1 291/109/1 321/249/34
f 149/108/2 153/115/3 292/115/3 290/108/2
f 289/252/321 291/109/321 290/108/321
f 289/253/321 290/108/321 292/115/321
f 289/254/321 292/115/321 293/120/321
f 289/255/321 293/120/321 294/124/321
f 289/256/321 294/124/321 295/127/321
f 289/257/321 295/127/321 296/131/321
f 289/258/321 296/131/321 297/136/321
f 289/259/321 297/136/321 298/142/321
f 289/260/321 298/142/321 299/147/321
f 289/261/321 299/147/321 300/151/321
f 289/262/321 300/151/321 301/156/321
f 289/263/321 301/156/321 302/161/321
f 289/264/321 302/161/321 303/165/321
f 289/265/321 303/165/321 304/170/321
f 289/266/321 304/170/321 305/175/321
f 289/267/321 305/175/321 306/179/321
f 289/268/321 306/179/321 307/184/321
f 289/269/321 307/184/321 308/188/321
f 289/270/321 308/188/321 309/192/321
f 289/271/321 309/192/321 310/197/321
f 289/272/321 310/197/321 311/201/321
f 289/273/321 311/201/321 312/206/321
f 289/274/321 312/206/321 313/211/321
f 289/275/321 313/211/321 314/216/321
f 289/276/321 314/216/321 315/221/321
f 289/277/321 315/221/321 316/226/321
f 289/278/321 316/226/321 317/230/321
f 289/279/321 317/230/321 318/233/321
f 289/280/321 318/233/321 319/238/321
f 289/281/321 319/238/321 320/243/321
f 289/282/321 320/243/321 321/249/321
f 289/283/321 321/249/321 291/109/321
