# Blender 4.5.1 LTS
# www.blender.org
o APCBC
v 0.000000 0.115000 -0.100000
v 0.000000 0.355000 -0.100000
v 0.019509 0.355000 -0.098079
v 0.038268 0.115000 -0.092388
v 0.038268 0.355000 -0.092388
v 0.055557 0.115000 -0.083147
v 0.055557 0.355000 -0.083147
v 0.070711 0.355000 -0.070711
v 0.083147 0.355000 -0.055557
v 0.092388 0.355000 -0.038268
v 0.098079 0.115000 -0.019509
v 0.098079 0.355000 -0.019509
v 0.100000 0.355000 0.000000
v 0.098079 0.355000 0.019509
v 0.092388 0.115000 0.038268
v 0.092388 0.355000 0.038268
v 0.083147 0.355000 0.055557
v 0.070711 0.355000 0.070711
v 0.055557 0.355000 0.083147
v 0.038268 0.355000 0.092388
v 0.019509 0.115000 0.098079
v 0.019509 0.355000 0.098079
v 0.000000 0.355000 0.100000
v -0.019509 0.115000 0.098079
v -0.019509 0.355000 0.098079
v -0.038268 0.115000 0.092388
v -0.038268 0.355000 0.092388
v -0.055557 0.355000 0.083147
v -0.070711 0.355000 0.070711
v -0.083147 0.115000 0.055557
v -0.083147 0.355000 0.055557
v -0.092388 0.115000 0.038268
v -0.092388 0.355000 0.038268
v -0.098079 0.355000 0.019509
v -0.100000 0.115000 0.000000
v -0.100000 0.355000 0.000000
v -0.098079 0.355000 -0.019509
v -0.092388 0.115000 -0.038268
v -0.092388 0.355000 -0.038268
v -0.083147 0.355000 -0.055557
v -0.070711 0.355000 -0.070711
v -0.055557 0.355000 -0.083147
v -0.038268 0.355000 -0.092388
v -0.019509 0.355000 -0.098079
v 0.000000 0.402082 -0.093582
v 0.000000 0.435133 -0.087831
v 0.000000 0.491609 -0.076225
v 0.000000 0.536248 -0.064207
v 0.000000 0.574689 -0.052678
v 0.000000 0.608916 -0.040616
v 0.000000 0.637423 -0.026984
v 0.000000 0.648321 -0.019277
v 0.018257 0.402082 -0.091784
v 0.003761 0.648321 -0.018907
v 0.005264 0.637423 -0.026465
v 0.007924 0.608916 -0.039836
v 0.010277 0.574689 -0.051666
v 0.012526 0.536248 -0.062974
v 0.014871 0.491609 -0.074760
v 0.017135 0.435133 -0.086144
v 0.035813 0.402082 -0.086459
v 0.007377 0.648321 -0.017810
v 0.010326 0.637423 -0.024930
v 0.015543 0.608916 -0.037525
v 0.020159 0.574689 -0.048669
v 0.024571 0.536248 -0.059320
v 0.029170 0.491609 -0.070422
v 0.033612 0.435133 -0.081146
v 0.051992 0.402082 -0.077811
v 0.010710 0.648321 -0.016028
v 0.014992 0.637423 -0.022436
v 0.022565 0.608916 -0.033771
v 0.029267 0.574689 -0.043801
v 0.035672 0.536248 -0.053386
v 0.042348 0.491609 -0.063378
v 0.048797 0.435133 -0.073029
v 0.066173 0.402082 -0.066173
v 0.013631 0.648321 -0.013631
v 0.019081 0.637423 -0.019080
v 0.028720 0.608916 -0.028720
v 0.037250 0.574689 -0.037249
v 0.045402 0.536248 -0.045401
v 0.053899 0.491609 -0.053899
v 0.062106 0.435133 -0.062106
v 0.077811 0.402082 -0.051992
v 0.016028 0.648321 -0.010710
v 0.022436 0.637423 -0.014991
v 0.033771 0.608916 -0.022565
v 0.043801 0.574689 -0.029267
v 0.053387 0.536248 -0.035672
v 0.063378 0.491609 -0.042348
v 0.073029 0.435133 -0.048796
v 0.086459 0.402082 -0.035812
v 0.017810 0.648321 -0.007377
v 0.024930 0.637423 -0.010326
v 0.037525 0.608916 -0.015543
v 0.048669 0.574689 -0.020159
v 0.059320 0.536248 -0.024571
v 0.070422 0.491609 -0.029170
v 0.081146 0.435133 -0.033612
v 0.091784 0.402082 -0.018257
v 0.018907 0.648321 -0.003761
v 0.026466 0.637423 -0.005264
v 0.039836 0.608916 -0.007924
v 0.051666 0.574689 -0.010277
v 0.062974 0.536248 -0.012526
v 0.074760 0.491609 -0.014871
v 0.086144 0.435133 -0.017135
v 0.093582 0.402082 0.000000
v 0.019277 0.648321 0.000000
v 0.026984 0.637423 0.000000
v 0.040617 0.608916 0.000000
v 0.052679 0.574689 0.000000
v 0.064208 0.536248 0.000000
v 0.076225 0.491609 0.000000
v 0.087831 0.435133 0.000000
v 0.091784 0.402082 0.018257
v 0.018907 0.648321 0.003761
v 0.026466 0.637423 0.005264
v 0.039836 0.608916 0.007924
v 0.051666 0.574689 0.010277
v 0.062974 0.536248 0.012526
v 0.074760 0.491609 0.014871
v 0.086144 0.435133 0.017135
v 0.086459 0.402082 0.035812
v 0.017810 0.648321 0.007377
v 0.024930 0.637423 0.010326
v 0.037525 0.608916 0.015543
v 0.048669 0.574689 0.020159
v 0.059320 0.536248 0.024571
v 0.070422 0.491609 0.029170
v 0.081146 0.435133 0.033612
v 0.077811 0.402082 0.051992
v 0.016028 0.648321 0.010710
v 0.022436 0.637423 0.014991
v 0.033771 0.608916 0.022565
v 0.043801 0.574689 0.029267
v 0.053387 0.536248 0.035672
v 0.063378 0.491609 0.042348
v 0.073029 0.435133 0.048796
v 0.066173 0.402082 0.066173
v 0.013631 0.648321 0.013631
v 0.019081 0.637423 0.019080
v 0.028720 0.608916 0.028720
v 0.037250 0.574689 0.037249
v 0.045402 0.536248 0.045401
v 0.053899 0.491609 0.053899
v 0.062106 0.435133 0.062106
v 0.051992 0.402082 0.077811
v 0.010710 0.648321 0.016028
v 0.014992 0.637423 0.022436
v 0.022565 0.608916 0.033771
v 0.029267 0.574689 0.043801
v 0.035672 0.536248 0.053386
v 0.042348 0.491609 0.063378
v 0.048797 0.435133 0.073029
v 0.035813 0.402082 0.086459
v 0.007377 0.648321 0.017810
v 0.010326 0.637423 0.024930
v 0.015543 0.608916 0.037525
v 0.020159 0.574689 0.048669
v 0.024571 0.536248 0.059320
v 0.029170 0.491609 0.070422
v 0.033612 0.435133 0.081146
v 0.018257 0.402082 0.091784
v 0.003761 0.648321 0.018906
v 0.005264 0.637423 0.026465
v 0.007924 0.608916 0.039836
v 0.010277 0.574689 0.051666
v 0.012526 0.536248 0.062974
v 0.014871 0.491609 0.074760
v 0.017135 0.435133 0.086144
v 0.000000 0.402082 0.093582
v 0.000000 0.648321 0.019277
v 0.000000 0.637423 0.026984
v 0.000000 0.608916 0.040616
v 0.000000 0.574689 0.052678
v 0.000000 0.536248 0.064207
v 0.000000 0.491609 0.076225
v 0.000000 0.435133 0.087831
v -0.018257 0.402082 0.091784
v -0.003761 0.648321 0.018907
v -0.005264 0.637423 0.026465
v -0.007924 0.608916 0.039836
v -0.010277 0.574689 0.051666
v -0.012526 0.536248 0.062974
v -0.014871 0.491609 0.074760
v -0.017135 0.435133 0.086144
v -0.035812 0.402082 0.086459
v -0.007377 0.648321 0.017810
v -0.010326 0.637423 0.024930
v -0.015543 0.608916 0.037525
v -0.020159 0.574689 0.048669
v -0.024571 0.536248 0.059320
v -0.029170 0.491609 0.070422
v -0.033611 0.435133 0.081146
v -0.051992 0.402082 0.077811
v -0.010709 0.648321 0.016028
v -0.014991 0.637423 0.022436
v -0.022565 0.608916 0.033771
v -0.029266 0.574689 0.043801
v -0.035672 0.536248 0.053386
v -0.042348 0.491609 0.063378
v -0.048796 0.435133 0.073029
v -0.066173 0.402082 0.066173
v -0.013631 0.648321 0.013631
v -0.019080 0.637423 0.019080
v -0.028720 0.608916 0.028720
v -0.037249 0.574689 0.037249
v -0.045401 0.536248 0.045401
v -0.053899 0.491609 0.053899
v -0.062106 0.435133 0.062106
v -0.077811 0.402082 0.051992
v -0.016028 0.648321 0.010710
v -0.022436 0.637423 0.014991
v -0.033771 0.608916 0.022565
v -0.043800 0.574689 0.029267
v -0.053386 0.536248 0.035672
v -0.063378 0.491609 0.042348
v -0.073029 0.435133 0.048796
v -0.086459 0.402082 0.035812
v -0.017809 0.648321 0.007377
v -0.024930 0.637423 0.010326
v -0.037524 0.608916 0.015543
v -0.048668 0.574689 0.020159
v -0.059320 0.536248 0.024571
v -0.070422 0.491609 0.029170
v -0.081145 0.435133 0.033612
v 0.000000 0.660000 0.000000
v -0.091784 0.402082 0.018257
v -0.018906 0.648321 0.003761
v -0.026465 0.637423 0.005264
v -0.039836 0.608916 0.007924
v -0.051666 0.574689 0.010277
v -0.062973 0.536248 0.012526
v -0.074760 0.491609 0.014871
v -0.086144 0.435133 0.017135
v -0.093582 0.402082 0.000000
v -0.019277 0.648321 -0.000000
v -0.026984 0.637423 -0.000000
v -0.040616 0.608916 -0.000000
v -0.052678 0.574689 -0.000000
v -0.064207 0.536248 -0.000000
v -0.076224 0.491609 -0.000000
v -0.087831 0.435133 0.000000
v -0.091784 0.402082 -0.018257
v -0.018906 0.648321 -0.003761
v -0.026465 0.637423 -0.005264
v -0.039836 0.608916 -0.007924
v -0.051666 0.574689 -0.010277
v -0.062973 0.536248 -0.012526
v -0.074760 0.491609 -0.014871
v -0.086144 0.435133 -0.017135
v -0.086459 0.402082 -0.035812
v -0.017809 0.648321 -0.007377
v -0.024930 0.637423 -0.010326
v -0.037524 0.608916 -0.015543
v -0.048668 0.574689 -0.020159
v -0.059320 0.536248 -0.024571
v -0.070422 0.491609 -0.029170
v -0.081145 0.435133 -0.033612
v -0.077811 0.402082 -0.051992
v -0.016028 0.648321 -0.010710
v -0.022436 0.637423 -0.014991
v -0.033771 0.608916 -0.022565
v -0.043800 0.574689 -0.029267
v -0.053386 0.536248 -0.035672
v -0.063378 0.491609 -0.042348
v -0.073029 0.435133 -0.048796
v -0.066173 0.402082 -0.066173
v -0.013631 0.648321 -0.013631
v -0.019080 0.637423 -0.019080
v -0.028720 0.608916 -0.028720
v -0.037249 0.574689 -0.037249
v -0.045401 0.536248 -0.045401
v -0.053899 0.491609 -0.053899
v -0.062106 0.435133 -0.062106
v -0.051992 0.402082 -0.077811
v -0.010709 0.648321 -0.016028
v -0.014991 0.637423 -0.022436
v -0.022565 0.608916 -0.033771
v -0.029266 0.574689 -0.043801
v -0.035672 0.536248 -0.053386
v -0.042348 0.491609 -0.063378
v -0.048796 0.435133 -0.073029
v -0.035812 0.402082 -0.086459
v -0.007377 0.648321 -0.017810
v -0.010326 0.637423 -0.024930
v -0.015543 0.608916 -0.037525
v -0.020159 0.574689 -0.048669
v -0.024571 0.536248 -0.059320
v -0.029170 0.491609 -0.070422
v -0.033611 0.435133 -0.081146
v -0.018257 0.402082 -0.091784
v -0.003761 0.648321 -0.018906
v -0.005264 0.637423 -0.026465
v -0.007924 0.608916 -0.039836
v -0.010277 0.574689 -0.051666
v -0.012526 0.536248 -0.062974
v -0.014871 0.491609 -0.074760
v -0.017135 0.435133 -0.086144
v -0.000000 0.035000 -0.039908
v -0.000000 0.036537 -0.073177
v -0.000000 0.041090 -0.076771
v -0.000000 0.048482 -0.081659
v -0.000000 0.058431 -0.086735
v -0.000000 0.070554 -0.091702
v -0.000000 0.084385 -0.096337
v -0.000000 0.099393 -0.098996
v 0.019509 0.115000 -0.098079
v 0.007785 0.035000 -0.039141
v 0.019313 0.099393 -0.097094
v 0.018794 0.084385 -0.094486
v 0.017890 0.070554 -0.089940
v 0.016921 0.058431 -0.085068
v 0.015931 0.048482 -0.080090
v 0.014977 0.041090 -0.075296
v 0.014276 0.036537 -0.071770
v 0.015272 0.035000 -0.036870
v 0.037884 0.099393 -0.091460
v 0.036867 0.084385 -0.089004
v 0.035093 0.070554 -0.084722
v 0.033192 0.058431 -0.080133
v 0.031250 0.048482 -0.075443
v 0.029379 0.041090 -0.070927
v 0.028003 0.036537 -0.067606
v 0.022171 0.035000 -0.033182
v 0.054999 0.099393 -0.082312
v 0.053522 0.084385 -0.080101
v 0.050947 0.070554 -0.076247
v 0.048187 0.058431 -0.072117
v 0.045367 0.048482 -0.067897
v 0.042652 0.041090 -0.063833
v 0.040655 0.036537 -0.060844
v 0.070711 0.115000 -0.070711
v 0.028219 0.035000 -0.028219
v 0.070001 0.099393 -0.070001
v 0.068121 0.084385 -0.068121
v 0.064843 0.070554 -0.064843
v 0.061331 0.058431 -0.061331
v 0.057742 0.048482 -0.057742
v 0.054285 0.041090 -0.054285
v 0.051744 0.036537 -0.051744
v 0.083147 0.115000 -0.055557
v 0.033182 0.035000 -0.022172
v 0.082312 0.099393 -0.054999
v 0.080101 0.084385 -0.053522
v 0.076247 0.070554 -0.050947
v 0.072117 0.058431 -0.048187
v 0.067897 0.048482 -0.045367
v 0.063833 0.041090 -0.042652
v 0.060844 0.036537 -0.040655
v 0.092388 0.115000 -0.038268
v 0.036870 0.035000 -0.015272
v 0.091460 0.099393 -0.037884
v 0.089004 0.084385 -0.036867
v 0.084722 0.070554 -0.035093
v 0.080133 0.058431 -0.033192
v 0.075443 0.048482 -0.031250
v 0.070927 0.041090 -0.029379
v 0.067606 0.036537 -0.028003
v 0.039141 0.035000 -0.007786
v 0.097094 0.099393 -0.019313
v 0.094486 0.084385 -0.018794
v 0.089940 0.070554 -0.017890
v 0.085068 0.058431 -0.016921
v 0.080090 0.048482 -0.015931
v 0.075296 0.041090 -0.014977
v 0.071770 0.036537 -0.014276
v 0.100000 0.115000 0.000000
v 0.039908 0.035000 0.000000
v 0.098996 0.099393 0.000000
v 0.096337 0.084385 -0.000000
v 0.091702 0.070554 -0.000000
v 0.086735 0.058431 -0.000000
v 0.081659 0.048482 -0.000000
v 0.076771 0.041090 -0.000000
v 0.073176 0.036537 -0.000000
v 0.098079 0.115000 0.019509
v 0.039141 0.035000 0.007786
v 0.097094 0.099393 0.019313
v 0.094486 0.084385 0.018794
v 0.089940 0.070554 0.017890
v 0.085068 0.058431 0.016921
v 0.080090 0.048482 0.015931
v 0.075296 0.041090 0.014977
v 0.071770 0.036537 0.014276
v 0.036870 0.035000 0.015272
v 0.091460 0.099393 0.037884
v 0.089004 0.084385 0.036867
v 0.084722 0.070554 0.035093
v 0.080133 0.058431 0.033192
v 0.075443 0.048482 0.031250
v 0.070927 0.041090 0.029379
v 0.067606 0.036537 0.028003
v 0.083147 0.115000 0.055557
v 0.033182 0.035000 0.022172
v 0.082312 0.099393 0.054999
v 0.080101 0.084385 0.053522
v 0.076247 0.070554 0.050947
v 0.072117 0.058431 0.048187
v 0.067897 0.048482 0.045367
v 0.063833 0.041090 0.042652
v 0.060844 0.036537 0.040655
v 0.070711 0.115000 0.070711
v 0.028219 0.035000 0.028219
v 0.070001 0.099393 0.070001
v 0.068121 0.084385 0.068121
v 0.064843 0.070554 0.064843
v 0.061331 0.058431 0.061331
v 0.057742 0.048482 0.057742
v 0.054285 0.041090 0.054285
v 0.051744 0.036537 0.051744
v 0.055557 0.115000 0.083147
v 0.022171 0.035000 0.033182
v 0.054999 0.099393 0.082312
v 0.053522 0.084385 0.080101
v 0.050947 0.070554 0.076247
v 0.048187 0.058431 0.072117
v 0.045367 0.048482 0.067897
v 0.042652 0.041090 0.063833
v 0.040655 0.036537 0.060844
v 0.038268 0.115000 0.092388
v 0.015272 0.035000 0.036870
v 0.037884 0.099393 0.091460
v 0.036867 0.084385 0.089004
v 0.035093 0.070554 0.084722
v 0.033192 0.058431 0.080133
v 0.031250 0.048482 0.075443
v 0.029379 0.041090 0.070927
v 0.028003 0.036537 0.067606
v 0.007785 0.035000 0.039141
v 0.019313 0.099393 0.097094
v 0.018794 0.084385 0.094486
v 0.017890 0.070554 0.089940
v 0.016921 0.058431 0.085068
v 0.015931 0.048482 0.080090
v 0.014977 0.041090 0.075296
v 0.014276 0.036537 0.071770
v 0.000000 0.115000 0.100000
v -0.000000 0.035000 0.039908
v -0.000000 0.099393 0.098996
v -0.000000 0.084385 0.096337
v -0.000000 0.070554 0.091702
v -0.000000 0.058431 0.086735
v -0.000000 0.048482 0.081659
v -0.000000 0.041090 0.076771
v -0.000000 0.036537 0.073177
v -0.007786 0.035000 0.039141
v -0.019313 0.099393 0.097094
v -0.018794 0.084385 0.094486
v -0.017890 0.070554 0.089940
v -0.016921 0.058431 0.085068
v -0.015931 0.048482 0.080090
v -0.014977 0.041090 0.075296
v -0.014276 0.036537 0.071770
v -0.015272 0.035000 0.036870
v -0.037884 0.099393 0.091460
v -0.036867 0.084385 0.089004
v -0.035093 0.070554 0.084722
v -0.033192 0.058431 0.080133
v -0.031250 0.048482 0.075443
v -0.029379 0.041090 0.070927
v -0.028004 0.036537 0.067606
v -0.055557 0.115000 0.083147
v -0.022172 0.035000 0.033182
v -0.054999 0.099393 0.082312
v -0.053522 0.084385 0.080101
v -0.050947 0.070554 0.076247
v -0.048187 0.058431 0.072117
v -0.045367 0.048482 0.067897
v -0.042652 0.041090 0.063833
v -0.040655 0.036537 0.060844
v -0.070711 0.115000 0.070711
v -0.028219 0.035000 0.028219
v -0.070001 0.099393 0.070001
v -0.068121 0.084385 0.068121
v -0.064843 0.070554 0.064843
v -0.061331 0.058431 0.061331
v -0.057742 0.048482 0.057742
v -0.054285 0.041090 0.054285
v -0.051744 0.036537 0.051744
v -0.033182 0.035000 0.022172
v -0.082312 0.099393 0.054999
v -0.080101 0.084385 0.053522
v -0.076247 0.070554 0.050947
v -0.072117 0.058431 0.048187
v -0.067897 0.048482 0.045367
v -0.063833 0.041090 0.042652
v -0.060844 0.036537 0.040655
v -0.036870 0.035000 0.015272
v -0.091460 0.099393 0.037884
v -0.089004 0.084385 0.036867
v -0.084722 0.070554 0.035093
v -0.080133 0.058431 0.033192
v -0.075443 0.048482 0.031250
v -0.070927 0.041090 0.029379
v -0.067606 0.036537 0.028003
v -0.098079 0.115000 0.019509
v -0.039141 0.035000 0.007786
v -0.097094 0.099393 0.019313
v -0.094486 0.084385 0.018794
v -0.089940 0.070554 0.017890
v -0.085068 0.058431 0.016921
v -0.080090 0.048482 0.015931
v -0.075296 0.041090 0.014977
v -0.071771 0.036537 0.014276
v -0.039908 0.035000 -0.000000
v -0.098996 0.099393 0.000000
v -0.096337 0.084385 0.000000
v -0.091702 0.070554 0.000000
v -0.086735 0.058431 0.000000
v -0.081659 0.048482 0.000000
v -0.076771 0.041090 0.000000
v -0.073177 0.036537 0.000000
v -0.098079 0.115000 -0.019509
v -0.039141 0.035000 -0.007786
v -0.097094 0.099393 -0.019313
v -0.094486 0.084385 -0.018794
v -0.089940 0.070554 -0.017890
v -0.085068 0.058431 -0.016921
v -0.080090 0.048482 -0.015931
v -0.075296 0.041090 -0.014977
v -0.071771 0.036537 -0.014276
v -0.036870 0.035000 -0.015272
v -0.091460 0.099393 -0.037884
v -0.089004 0.084385 -0.036867
v -0.084722 0.070554 -0.035093
v -0.080133 0.058431 -0.033192
v -0.075443 0.048482 -0.031250
v -0.070927 0.041090 -0.029379
v -0.067606 0.036537 -0.028003
v -0.083147 0.115000 -0.055557
v -0.033182 0.035000 -0.022172
v -0.082312 0.099393 -0.054999
v -0.080101 0.084385 -0.053522
v -0.076247 0.070554 -0.050947
v -0.072117 0.058431 -0.048187
v -0.067897 0.048482 -0.045367
v -0.063833 0.041090 -0.042652
v -0.060844 0.036537 -0.040655
v -0.070711 0.115000 -0.070711
v -0.028219 0.035000 -0.028219
v -0.070001 0.099393 -0.070001
v -0.068121 0.084385 -0.068121
v -0.064843 0.070554 -0.064843
v -0.061331 0.058431 -0.061331
v -0.057742 0.048482 -0.057742
v -0.054285 0.041090 -0.054285
v -0.051744 0.036537 -0.051744
v -0.055557 0.115000 -0.083147
v -0.022172 0.035000 -0.033182
v -0.054999 0.099393 -0.082312
v -0.053522 0.084385 -0.080101
v -0.050947 0.070554 -0.076247
v -0.048187 0.058431 -0.072117
v -0.045367 0.048482 -0.067897
v -0.042652 0.041090 -0.063833
v -0.040655 0.036537 -0.060844
v -0.038268 0.115000 -0.092388
v -0.015272 0.035000 -0.036870
v -0.037884 0.099393 -0.091460
v -0.036867 0.084385 -0.089004
v -0.035093 0.070554 -0.084722
v -0.033192 0.058431 -0.080133
v -0.031250 0.048482 -0.075443
v -0.029379 0.041090 -0.070927
v -0.028004 0.036537 -0.067606
v -0.019509 0.115000 -0.098079
v -0.007786 0.035000 -0.039141
v -0.019313 0.099393 -0.097094
v -0.018794 0.084385 -0.094486
v -0.017890 0.070554 -0.089940
v -0.016921 0.058431 -0.085068
v -0.015931 0.048482 -0.080090
v -0.014977 0.041090 -0.075296
v -0.014276 0.036537 -0.071770
v 0.013987 0.035000 -0.070317
v -0.000000 0.035000 -0.071695
v 0.027436 0.035000 -0.066237
v 0.039831 0.035000 -0.059612
v 0.050696 0.035000 -0.050696
v 0.059612 0.035000 -0.039832
v 0.066237 0.035000 -0.027436
v 0.070317 0.035000 -0.013987
v 0.071695 0.035000 -0.000000
v 0.070317 0.035000 0.013987
v 0.066237 0.035000 0.027436
v 0.059612 0.035000 0.039832
v 0.050696 0.035000 0.050696
v 0.039831 0.035000 0.059612
v 0.027436 0.035000 0.066237
v 0.013987 0.035000 0.070317
v -0.000000 0.035000 0.071695
v -0.013987 0.035000 0.070317
v -0.027437 0.035000 0.066237
v -0.039832 0.035000 0.059612
v -0.050696 0.035000 0.050696
v -0.059612 0.035000 0.039832
v -0.066238 0.035000 0.027436
v -0.070317 0.035000 0.013987
v -0.071695 0.035000 0.000000
v -0.070317 0.035000 -0.013987
v -0.066238 0.035000 -0.027436
v -0.059612 0.035000 -0.039832
v -0.050696 0.035000 -0.050696
v -0.039832 0.035000 -0.059612
v -0.027437 0.035000 -0.066237
v -0.013987 0.035000 -0.070317
v -0.000000 -0.000000 0.000000
v 0.002438 0.654981 -0.012254
v 0.000000 0.654981 -0.012494
v 0.004781 0.654981 -0.011543
v 0.006941 0.654981 -0.010388
v 0.008835 0.654981 -0.008834
v 0.010388 0.654981 -0.006941
v 0.011543 0.654981 -0.004781
v 0.012254 0.654981 -0.002437
v 0.012494 0.654981 0.000000
v 0.012254 0.654981 0.002437
v 0.011543 0.654981 0.004781
v 0.010388 0.654981 0.006941
v 0.008835 0.654981 0.008834
v 0.006941 0.654981 0.010388
v 0.004781 0.654981 0.011543
v 0.002438 0.654981 0.012254
v 0.000000 0.654981 0.012494
v -0.002437 0.654981 0.012254
v -0.004781 0.654981 0.011543
v -0.006941 0.654981 0.010388
v -0.008834 0.654981 0.008834
v -0.010388 0.654981 0.006941
v -0.011542 0.654981 0.004781
v -0.012253 0.654981 0.002437
v -0.012493 0.654981 -0.000000
v -0.012253 0.654981 -0.002437
v -0.011542 0.654981 -0.004781
v -0.010388 0.654981 -0.006941
v -0.008834 0.654981 -0.008834
v -0.006941 0.654981 -0.010388
v -0.004781 0.654981 -0.011543
v -0.002437 0.654981 -0.012254
v 0.000000 0.658494 -0.006945
v 0.001355 0.658494 -0.006812
v 0.002658 0.658494 -0.006417
v 0.003859 0.658494 -0.005775
v 0.004911 0.658494 -0.004911
v 0.005775 0.658494 -0.003859
v 0.006417 0.658494 -0.002658
v 0.006812 0.658494 -0.001355
v 0.006945 0.658494 0.000000
v 0.006812 0.658494 0.001355
v 0.006417 0.658494 0.002658
v 0.005775 0.658494 0.003859
v 0.004911 0.658494 0.004911
v 0.003859 0.658494 0.005775
v 0.002658 0.658494 0.006417
v 0.001355 0.658494 0.006812
v 0.000000 0.658494 0.006945
v -0.001355 0.658494 0.006812
v -0.002658 0.658494 0.006417
v -0.003859 0.658494 0.005775
v -0.004911 0.658494 0.004911
v -0.005775 0.658494 0.003859
v -0.006417 0.658494 0.002658
v -0.006812 0.658494 0.001355
v -0.006945 0.658494 -0.000000
v -0.006812 0.658494 -0.001355
v -0.006417 0.658494 -0.002658
v -0.005775 0.658494 -0.003859
v -0.004911 0.658494 -0.004911
v -0.003859 0.658494 -0.005775
v -0.002658 0.658494 -0.006417
v -0.001355 0.658494 -0.006812
v 0.007785 -0.000000 -0.039141
v -0.000000 -0.000000 -0.039908
v 0.015272 -0.000000 -0.036870
v 0.022171 -0.000000 -0.033182
v 0.028219 -0.000000 -0.028219
v 0.033182 -0.000000 -0.022172
v 0.036870 -0.000000 -0.015272
v 0.039141 -0.000000 -0.007786
v 0.039908 -0.000000 0.000000
v 0.039141 -0.000000 0.007786
v 0.036870 -0.000000 0.015272
v 0.033182 -0.000000 0.022172
v 0.028219 -0.000000 0.028219
v 0.022171 -0.000000 0.033182
v 0.015272 -0.000000 0.036870
v 0.007785 -0.000000 0.039141
v -0.000000 -0.000000 0.039908
v -0.007786 -0.000000 0.039141
v -0.015272 -0.000000 0.036870
v -0.022172 -0.000000 0.033182
v -0.028219 -0.000000 0.028219
v -0.033182 -0.000000 0.022172
v -0.036870 -0.000000 0.015272
v -0.039141 -0.000000 0.007786
v -0.039908 -0.000000 -0.000000
v -0.039141 -0.000000 -0.007786
v -0.036870 -0.000000 -0.015272
v -0.033182 -0.000000 -0.022172
v -0.028219 -0.000000 -0.028219
v -0.022172 -0.000000 -0.033182
v -0.015272 -0.000000 -0.036870
v -0.007786 -0.000000 -0.039141
vn -0.0000 -0.0000 -1.0000
vn 0.1951 -0.0000 -0.9808
vn 0.3827 -0.0000 -0.9239
vn 0.5556 -0.0000 -0.8315
vn 0.7071 -0.0000 -0.7071
vn 0.8315 -0.0000 -0.5556
vn 0.9239 -0.0000 -0.3827
vn 0.9808 -0.0000 -0.1951
vn 1.0000 -0.0000 -0.0000
vn 0.9808 -0.0000 0.1951
vn 0.9239 -0.0000 0.3827
vn 0.8315 -0.0000 0.5556
vn 0.7071 -0.0000 0.7071
vn 0.5556 -0.0000 0.8315
vn 0.3827 -0.0000 0.9239
vn 0.1951 -0.0000 0.9808
vn -0.0000 -0.0000 1.0000
vn -0.1951 -0.0000 0.9808
vn -0.3827 -0.0000 0.9239
vn -0.5556 -0.0000 0.8315
vn -0.7071 -0.0000 0.7071
vn -0.8315 -0.0000 0.5556
vn -0.9239 -0.0000 0.3827
vn -0.9808 -0.0000 0.1951
vn -1.0000 -0.0000 -0.0000
vn -0.9808 -0.0000 -0.1951
vn -0.9239 -0.0000 -0.3827
vn -0.8315 -0.0000 -0.5556
vn -0.7071 -0.0000 -0.7071
vn -0.5556 -0.0000 -0.8315
vn -0.3827 -0.0000 -0.9239
vn -0.1951 -0.0000 -0.9808
vn 0.1928 0.1531 -0.9692
vn -0.0000 0.1531 -0.9882
vn -0.0000 0.1862 -0.9825
vn 0.1917 0.1862 -0.9636
vn -0.0000 0.2303 -0.9731
vn 0.1898 0.2303 -0.9544
vn -0.0000 0.2734 -0.9619
vn 0.1877 0.2734 -0.9434
vn -0.0000 0.3095 -0.9509
vn 0.1855 0.3095 -0.9326
vn -0.0000 0.3813 -0.9245
vn 0.1804 0.3813 -0.9067
vn -0.0000 0.5039 -0.8637
vn 0.1685 0.5039 -0.8471
vn -0.0000 0.6453 -0.7639
vn 0.1490 0.6453 -0.7492
vn 0.0758 0.9214 -0.3811
vn -0.0000 0.9214 -0.3886
vn -0.0000 1.0000 -0.0000
vn 0.3782 0.1531 -0.9130
vn 0.3760 0.1862 -0.9077
vn 0.3724 0.2303 -0.8990
vn 0.3681 0.2734 -0.8887
vn 0.3639 0.3095 -0.8785
vn 0.3538 0.3813 -0.8541
vn 0.3305 0.5039 -0.7980
vn 0.2923 0.6453 -0.7057
vn 0.1487 0.9214 -0.3590
vn 0.5490 0.1531 -0.8217
vn 0.5459 0.1862 -0.8169
vn 0.5406 0.2303 -0.8091
vn 0.5344 0.2734 -0.7998
vn 0.5283 0.3095 -0.7907
vn 0.5136 0.3813 -0.7687
vn 0.4799 0.5039 -0.7182
vn 0.4244 0.6453 -0.6352
vn 0.2159 0.9214 -0.3231
vn 0.6988 0.1531 -0.6988
vn 0.6947 0.1862 -0.6947
vn 0.6881 0.2303 -0.6881
vn 0.6802 0.2734 -0.6802
vn 0.6724 0.3095 -0.6724
vn 0.6537 0.3813 -0.6537
vn 0.6108 0.5039 -0.6108
vn 0.5402 0.6453 -0.5402
vn 0.2747 0.9214 -0.2747
vn 0.8217 0.1531 -0.5490
vn 0.8169 0.1862 -0.5459
vn 0.8091 0.2303 -0.5406
vn 0.7998 0.2734 -0.5344
vn 0.7907 0.3095 -0.5283
vn 0.7687 0.3813 -0.5136
vn 0.7182 0.5039 -0.4799
vn 0.6352 0.6453 -0.4244
vn 0.3231 0.9214 -0.2159
vn 0.9130 0.1531 -0.3782
vn 0.9077 0.1862 -0.3760
vn 0.8990 0.2303 -0.3724
vn 0.8887 0.2734 -0.3681
vn 0.8785 0.3095 -0.3639
vn 0.8541 0.3813 -0.3538
vn 0.7980 0.5039 -0.3305
vn 0.7057 0.6453 -0.2923
vn 0.3590 0.9214 -0.1487
vn 0.9692 0.1531 -0.1928
vn 0.9636 0.1862 -0.1917
vn 0.9544 0.2303 -0.1898
vn 0.9434 0.2734 -0.1877
vn 0.9326 0.3095 -0.1855
vn 0.9067 0.3813 -0.1804
vn 0.8471 0.5039 -0.1685
vn 0.7492 0.6453 -0.1490
vn 0.3811 0.9214 -0.0758
vn 0.9882 0.1531 -0.0000
vn 0.9825 0.1862 -0.0000
vn 0.9731 0.2303 -0.0000
vn 0.9619 0.2734 -0.0000
vn 0.9509 0.3095 -0.0000
vn 0.9245 0.3813 -0.0000
vn 0.8637 0.5039 -0.0000
vn 0.7639 0.6453 -0.0000
vn 0.3886 0.9214 -0.0000
vn 0.9692 0.1531 0.1928
vn 0.9636 0.1862 0.1917
vn 0.9544 0.2303 0.1898
vn 0.9434 0.2734 0.1877
vn 0.9326 0.3095 0.1855
vn 0.9067 0.3813 0.1804
vn 0.8471 0.5039 0.1685
vn 0.7492 0.6453 0.1490
vn 0.3811 0.9214 0.0758
vn 0.9130 0.1531 0.3782
vn 0.9077 0.1862 0.3760
vn 0.8990 0.2303 0.3724
vn 0.8887 0.2734 0.3681
vn 0.8785 0.3095 0.3639
vn 0.8541 0.3813 0.3538
vn 0.7980 0.5039 0.3305
vn 0.7057 0.6453 0.2923
vn 0.3590 0.9214 0.1487
vn 0.8217 0.1531 0.5490
vn 0.8169 0.1862 0.5459
vn 0.8091 0.2303 0.5406
vn 0.7998 0.2734 0.5344
vn 0.7907 0.3095 0.5283
vn 0.7687 0.3813 0.5136
vn 0.7182 0.5039 0.4799
vn 0.6352 0.6453 0.4244
vn 0.3231 0.9214 0.2159
vn 0.6988 0.1531 0.6988
vn 0.6947 0.1862 0.6947
vn 0.6881 0.2303 0.6881
vn 0.6802 0.2734 0.6802
vn 0.6724 0.3095 0.6724
vn 0.6537 0.3813 0.6537
vn 0.6108 0.5039 0.6108
vn 0.5402 0.6453 0.5402
vn 0.2748 0.9214 0.2747
vn 0.5490 0.1531 0.8217
vn 0.5459 0.1862 0.8169
vn 0.5406 0.2303 0.8091
vn 0.5344 0.2734 0.7998
vn 0.5283 0.3095 0.7907
vn 0.5136 0.3813 0.7687
vn 0.4799 0.5039 0.7182
vn 0.4244 0.6453 0.6352
vn 0.2159 0.9214 0.3231
vn 0.3782 0.1531 0.9130
vn 0.3760 0.1862 0.9077
vn 0.3724 0.2303 0.8990
vn 0.3681 0.2734 0.8887
vn 0.3639 0.3095 0.8785
vn 0.3538 0.3813 0.8541
vn 0.3305 0.5039 0.7980
vn 0.2923 0.6453 0.7057
vn 0.1487 0.9214 0.3590
vn 0.1928 0.1531 0.9692
vn 0.1917 0.1862 0.9636
vn 0.1898 0.2303 0.9544
vn 0.1877 0.2734 0.9434
vn 0.1855 0.3095 0.9326
vn 0.1804 0.3813 0.9067
vn 0.1685 0.5039 0.8471
vn 0.1490 0.6453 0.7492
vn 0.0758 0.9214 0.3811
vn -0.0000 0.1531 0.9882
vn -0.0000 0.1862 0.9825
vn -0.0000 0.2303 0.9731
vn -0.0000 0.2734 0.9619
vn -0.0000 0.3095 0.9509
vn -0.0000 0.3813 0.9245
vn -0.0000 0.5039 0.8637
vn -0.0000 0.6453 0.7639
vn -0.0000 0.9214 0.3886
vn -0.1928 0.1531 0.9692
vn -0.1917 0.1862 0.9636
vn -0.1898 0.2303 0.9544
vn -0.1877 0.2734 0.9434
vn -0.1855 0.3095 0.9326
vn -0.1804 0.3813 0.9067
vn -0.1685 0.5039 0.8471
vn -0.1490 0.6453 0.7492
vn -0.0758 0.9214 0.3811
vn -0.3782 0.1531 0.9130
vn -0.3760 0.1862 0.9077
vn -0.3724 0.2303 0.8990
vn -0.3681 0.2734 0.8887
vn -0.3639 0.3095 0.8785
vn -0.3538 0.3813 0.8541
vn -0.3305 0.5039 0.7980
vn -0.2923 0.6453 0.7057
vn -0.1487 0.9214 0.3590
vn -0.5490 0.1531 0.8217
vn -0.5459 0.1862 0.8169
vn -0.5406 0.2303 0.8091
vn -0.5344 0.2734 0.7998
vn -0.5283 0.3095 0.7907
vn -0.5136 0.3813 0.7687
vn -0.4799 0.5039 0.7182
vn -0.4244 0.6453 0.6352
vn -0.2159 0.9214 0.3231
vn -0.6988 0.1531 0.6988
vn -0.6947 0.1862 0.6947
vn -0.6881 0.2303 0.6881
vn -0.6802 0.2734 0.6802
vn -0.6724 0.3095 0.6724
vn -0.6537 0.3813 0.6537
vn -0.6108 0.5039 0.6108
vn -0.5402 0.6453 0.5402
vn -0.2748 0.9214 0.2747
vn -0.8217 0.1531 0.5490
vn -0.8169 0.1862 0.5459
vn -0.8091 0.2303 0.5406
vn -0.7998 0.2734 0.5344
vn -0.7906 0.3095 0.5283
vn -0.7687 0.3813 0.5136
vn -0.7182 0.5039 0.4799
vn -0.6352 0.6453 0.4244
vn -0.3231 0.9214 0.2159
vn -0.9130 0.1531 0.3782
vn -0.9077 0.1862 0.3760
vn -0.8990 0.2303 0.3724
vn -0.8887 0.2734 0.3681
vn -0.8785 0.3095 0.3639
vn -0.8541 0.3813 0.3538
vn -0.7980 0.5039 0.3305
vn -0.7057 0.6453 0.2923
vn -0.3590 0.9214 0.1487
vn -0.9692 0.1531 0.1928
vn -0.9636 0.1862 0.1917
vn -0.9544 0.2303 0.1898
vn -0.9434 0.2734 0.1877
vn -0.9326 0.3095 0.1855
vn -0.9067 0.3813 0.1804
vn -0.8471 0.5039 0.1685
vn -0.7492 0.6453 0.1490
vn -0.3811 0.9214 0.0758
vn -0.9882 0.1531 -0.0000
vn -0.9825 0.1862 -0.0000
vn -0.9731 0.2303 -0.0000
vn -0.9619 0.2734 -0.0000
vn -0.9509 0.3095 -0.0000
vn -0.9245 0.3813 -0.0000
vn -0.8637 0.5039 -0.0000
vn -0.7639 0.6453 -0.0000
vn -0.3886 0.9214 -0.0000
vn -0.9692 0.1531 -0.1928
vn -0.9636 0.1862 -0.1917
vn -0.9544 0.2303 -0.1898
vn -0.9434 0.2734 -0.1877
vn -0.9326 0.3095 -0.1855
vn -0.9067 0.3813 -0.1804
vn -0.8471 0.5039 -0.1685
vn -0.7492 0.6453 -0.1490
vn -0.3811 0.9214 -0.0758
vn -0.9130 0.1531 -0.3782
vn -0.9077 0.1862 -0.3760
vn -0.8990 0.2303 -0.3724
vn -0.8887 0.2734 -0.3681
vn -0.8785 0.3095 -0.3639
vn -0.8541 0.3813 -0.3538
vn -0.7980 0.5039 -0.3305
vn -0.7057 0.6453 -0.2923
vn -0.3590 0.9214 -0.1487
vn -0.8217 0.1531 -0.5490
vn -0.8169 0.1862 -0.5459
vn -0.8091 0.2303 -0.5406
vn -0.7998 0.2734 -0.5344
vn -0.7906 0.3095 -0.5283
vn -0.7687 0.3813 -0.5136
vn -0.7182 0.5039 -0.4799
vn -0.6352 0.6453 -0.4244
vn -0.3231 0.9214 -0.2159
vn -0.6988 0.1531 -0.6988
vn -0.6947 0.1862 -0.6947
vn -0.6881 0.2303 -0.6881
vn -0.6802 0.2734 -0.6802
vn -0.6724 0.3095 -0.6724
vn -0.6537 0.3813 -0.6537
vn -0.6108 0.5039 -0.6108
vn -0.5402 0.6453 -0.5402
vn -0.2747 0.9214 -0.2748
vn -0.5490 0.1531 -0.8217
vn -0.5459 0.1862 -0.8169
vn -0.5406 0.2303 -0.8091
vn -0.5344 0.2734 -0.7998
vn -0.5283 0.3095 -0.7907
vn -0.5136 0.3813 -0.7687
vn -0.4799 0.5039 -0.7182
vn -0.4244 0.6453 -0.6352
vn -0.2159 0.9214 -0.3231
vn -0.3782 0.1531 -0.9130
vn -0.3760 0.1862 -0.9077
vn -0.3724 0.2303 -0.8990
vn -0.3681 0.2734 -0.8887
vn -0.3639 0.3095 -0.8785
vn -0.3538 0.3813 -0.8541
vn -0.3305 0.5039 -0.7980
vn -0.2923 0.6453 -0.7057
vn -0.1487 0.9214 -0.3590
vn -0.1928 0.1531 -0.9692
vn -0.1917 0.1862 -0.9636
vn -0.1898 0.2303 -0.9544
vn -0.1877 0.2734 -0.9434
vn -0.1855 0.3095 -0.9326
vn -0.1804 0.3813 -0.9067
vn -0.1685 0.5039 -0.8471
vn -0.1490 0.6453 -0.7492
vn -0.0758 0.9214 -0.3811
vn 0.1933 0.1351 -0.9718
vn -0.0000 0.1351 -0.9908
vn -0.1933 0.1351 -0.9718
vn 0.3792 0.1351 -0.9154
vn 0.5505 0.1351 -0.8239
vn 0.7006 0.1351 -0.7006
vn 0.8239 0.1351 -0.5505
vn 0.9154 0.1351 -0.3792
vn 0.9718 0.1351 -0.1933
vn 0.9908 0.1351 -0.0000
vn 0.9718 0.1351 0.1933
vn 0.9154 0.1351 0.3792
vn 0.8239 0.1351 0.5505
vn 0.7006 0.1351 0.7006
vn 0.5505 0.1351 0.8239
vn 0.3792 0.1351 0.9154
vn 0.1933 0.1351 0.9718
vn -0.0000 0.1351 0.9908
vn -0.1933 0.1351 0.9718
vn -0.3792 0.1351 0.9154
vn -0.5505 0.1351 0.8239
vn -0.7006 0.1351 0.7006
vn -0.8239 0.1351 0.5505
vn -0.9154 0.1351 0.3792
vn -0.9718 0.1351 0.1933
vn -0.9908 0.1351 -0.0000
vn -0.9718 0.1351 -0.1933
vn -0.9154 0.1351 -0.3792
vn -0.8239 0.1351 -0.5505
vn -0.7006 0.1351 -0.7006
vn -0.5505 0.1351 -0.8239
vn -0.3792 0.1351 -0.9154
vn -0.0000 -0.0642 -0.9979
vn 0.1947 -0.0642 -0.9788
vn 0.1937 -0.1191 -0.9738
vn -0.0000 -0.1191 -0.9929
vn 0.1891 -0.2457 -0.9507
vn -0.0000 -0.2457 -0.9693
vn 0.1829 -0.3480 -0.9195
vn -0.0000 -0.3480 -0.9375
vn 0.1774 -0.4162 -0.8918
vn -0.0000 -0.4162 -0.9093
vn 0.1687 -0.5023 -0.8481
vn -0.0000 -0.5023 -0.8647
vn 0.1582 -0.5849 -0.7955
vn -0.0000 -0.5849 -0.8111
vn 0.1472 -0.6561 -0.7402
vn -0.0000 -0.6561 -0.7547
vn 0.1405 -0.6940 -0.7062
vn -0.0000 -0.6940 -0.7200
vn 0.3819 -0.0642 -0.9220
vn 0.3800 -0.1191 -0.9173
vn 0.3710 -0.2457 -0.8956
vn 0.3588 -0.3480 -0.8661
vn 0.3480 -0.4162 -0.8401
vn 0.3309 -0.5023 -0.7989
vn 0.3104 -0.5849 -0.7494
vn 0.2888 -0.6561 -0.6972
vn 0.2755 -0.6940 -0.6652
vn 0.5544 -0.0642 -0.8298
vn 0.5516 -0.1191 -0.8256
vn 0.5385 -0.2457 -0.8060
vn 0.5209 -0.3480 -0.7795
vn 0.5052 -0.4162 -0.7560
vn 0.4804 -0.5023 -0.7190
vn 0.4506 -0.5849 -0.6744
vn 0.4193 -0.6561 -0.6275
vn 0.4000 -0.6940 -0.5986
vn 0.7056 -0.0642 -0.7056
vn 0.7021 -0.1191 -0.7021
vn 0.6854 -0.2457 -0.6854
vn 0.6629 -0.3480 -0.6629
vn 0.6430 -0.4162 -0.6430
vn 0.6114 -0.5023 -0.6114
vn 0.5735 -0.5849 -0.5735
vn 0.5336 -0.6561 -0.5336
vn 0.5091 -0.6940 -0.5091
vn 0.8298 -0.0642 -0.5544
vn 0.8256 -0.1191 -0.5516
vn 0.8060 -0.2457 -0.5385
vn 0.7795 -0.3480 -0.5209
vn 0.7560 -0.4162 -0.5052
vn 0.7190 -0.5023 -0.4804
vn 0.6744 -0.5849 -0.4506
vn 0.6275 -0.6561 -0.4193
vn 0.5986 -0.6940 -0.4000
vn 0.9220 -0.0642 -0.3819
vn 0.9173 -0.1191 -0.3800
vn 0.8956 -0.2457 -0.3710
vn 0.8661 -0.3480 -0.3588
vn 0.8401 -0.4162 -0.3480
vn 0.7989 -0.5023 -0.3309
vn 0.7494 -0.5849 -0.3104
vn 0.6972 -0.6561 -0.2888
vn 0.6652 -0.6940 -0.2755
vn 0.9788 -0.0642 -0.1947
vn 0.9738 -0.1191 -0.1937
vn 0.9507 -0.2457 -0.1891
vn 0.9195 -0.3480 -0.1829
vn 0.8918 -0.4162 -0.1774
vn 0.8481 -0.5023 -0.1687
vn 0.7955 -0.5849 -0.1582
vn 0.7402 -0.6561 -0.1472
vn 0.7061 -0.6940 -0.1405
vn 0.9979 -0.0642 -0.0000
vn 0.9929 -0.1191 -0.0000
vn 0.9693 -0.2457 -0.0000
vn 0.9375 -0.3480 -0.0000
vn 0.9093 -0.4162 -0.0000
vn 0.8647 -0.5023 -0.0000
vn 0.8111 -0.5849 -0.0000
vn 0.7547 -0.6561 -0.0000
vn 0.7200 -0.6940 -0.0000
vn 0.9788 -0.0642 0.1947
vn 0.9738 -0.1191 0.1937
vn 0.9507 -0.2457 0.1891
vn 0.9195 -0.3480 0.1829
vn 0.8918 -0.4162 0.1774
vn 0.8481 -0.5023 0.1687
vn 0.7955 -0.5849 0.1582
vn 0.7402 -0.6561 0.1472
vn 0.7061 -0.6940 0.1405
vn 0.9220 -0.0642 0.3819
vn 0.9173 -0.1191 0.3800
vn 0.8956 -0.2457 0.3710
vn 0.8661 -0.3480 0.3588
vn 0.8401 -0.4162 0.3480
vn 0.7989 -0.5023 0.3309
vn 0.7494 -0.5849 0.3104
vn 0.6972 -0.6561 0.2888
vn 0.6652 -0.6940 0.2755
vn 0.8298 -0.0642 0.5544
vn 0.8256 -0.1191 0.5516
vn 0.8060 -0.2457 0.5385
vn 0.7795 -0.3480 0.5209
vn 0.7560 -0.4162 0.5052
vn 0.7190 -0.5023 0.4804
vn 0.6744 -0.5849 0.4506
vn 0.6275 -0.6561 0.4193
vn 0.5986 -0.6940 0.4000
vn 0.7056 -0.0642 0.7056
vn 0.7021 -0.1191 0.7021
vn 0.6854 -0.2457 0.6854
vn 0.6629 -0.3480 0.6629
vn 0.6430 -0.4162 0.6430
vn 0.6114 -0.5023 0.6114
vn 0.5735 -0.5849 0.5735
vn 0.5336 -0.6561 0.5336
vn 0.5091 -0.6940 0.5091
vn 0.5544 -0.0642 0.8298
vn 0.5516 -0.1191 0.8256
vn 0.5385 -0.2457 0.8060
vn 0.5209 -0.3480 0.7795
vn 0.5052 -0.4162 0.7560
vn 0.4804 -0.5023 0.7190
vn 0.4506 -0.5849 0.6744
vn 0.4193 -0.6561 0.6275
vn 0.4000 -0.6940 0.5986
vn 0.3819 -0.0642 0.9220
vn 0.3800 -0.1191 0.9173
vn 0.3710 -0.2457 0.8956
vn 0.3588 -0.3480 0.8661
vn 0.3480 -0.4162 0.8401
vn 0.3309 -0.5023 0.7989
vn 0.3104 -0.5849 0.7494
vn 0.2888 -0.6561 0.6972
vn 0.2755 -0.6940 0.6652
vn 0.1947 -0.0642 0.9788
vn 0.1937 -0.1191 0.9738
vn 0.1891 -0.2457 0.9507
vn 0.1829 -0.3480 0.9195
vn 0.1774 -0.4162 0.8918
vn 0.1687 -0.5023 0.8481
vn 0.1582 -0.5849 0.7955
vn 0.1472 -0.6561 0.7402
vn 0.1405 -0.6940 0.7062
vn -0.0000 -0.0642 0.9979
vn -0.0000 -0.1191 0.9929
vn -0.0000 -0.2457 0.9693
vn -0.0000 -0.3480 0.9375
vn -0.0000 -0.4162 0.9093
vn -0.0000 -0.5023 0.8647
vn -0.0000 -0.5849 0.8111
vn -0.0000 -0.6561 0.7547
vn -0.0000 -0.6940 0.7200
vn -0.1947 -0.0642 0.9788
vn -0.1937 -0.1191 0.9738
vn -0.1891 -0.2457 0.9507
vn -0.1829 -0.3480 0.9195
vn -0.1774 -0.4162 0.8918
vn -0.1687 -0.5023 0.8481
vn -0.1582 -0.5849 0.7955
vn -0.1472 -0.6561 0.7402
vn -0.1405 -0.6940 0.7062
vn -0.3819 -0.0642 0.9220
vn -0.3800 -0.1191 0.9173
vn -0.3710 -0.2457 0.8956
vn -0.3588 -0.3480 0.8661
vn -0.3480 -0.4162 0.8401
vn -0.3309 -0.5023 0.7989
vn -0.3104 -0.5849 0.7494
vn -0.2888 -0.6561 0.6972
vn -0.2755 -0.6940 0.6652
vn -0.5544 -0.0642 0.8298
vn -0.5516 -0.1191 0.8256
vn -0.5385 -0.2457 0.8060
vn -0.5209 -0.3480 0.7795
vn -0.5052 -0.4162 0.7560
vn -0.4804 -0.5023 0.7190
vn -0.4506 -0.5849 0.6744
vn -0.4193 -0.6561 0.6275
vn -0.4000 -0.6940 0.5987
vn -0.7056 -0.0642 0.7056
vn -0.7021 -0.1191 0.7021
vn -0.6854 -0.2457 0.6854
vn -0.6629 -0.3480 0.6629
vn -0.6430 -0.4162 0.6430
vn -0.6114 -0.5023 0.6114
vn -0.5735 -0.5849 0.5735
vn -0.5336 -0.6561 0.5336
vn -0.5091 -0.6940 0.5091
vn -0.8298 -0.0642 0.5544
vn -0.8256 -0.1191 0.5516
vn -0.8060 -0.2457 0.5385
vn -0.7795 -0.3480 0.5209
vn -0.7560 -0.4162 0.5052
vn -0.7190 -0.5023 0.4804
vn -0.6744 -0.5849 0.4506
vn -0.6275 -0.6561 0.4193
vn -0.5987 -0.6940 0.4000
vn -0.9220 -0.0642 0.3819
vn -0.9173 -0.1191 0.3800
vn -0.8956 -0.2457 0.3710
vn -0.8661 -0.3480 0.3588
vn -0.8401 -0.4162 0.3480
vn -0.7989 -0.5023 0.3309
vn -0.7494 -0.5849 0.3104
vn -0.6972 -0.6561 0.2888
vn -0.6652 -0.6940 0.2755
vn -0.9788 -0.0642 0.1947
vn -0.9738 -0.1191 0.1937
vn -0.9507 -0.2457 0.1891
vn -0.9195 -0.3480 0.1829
vn -0.8918 -0.4162 0.1774
vn -0.8481 -0.5023 0.1687
vn -0.7955 -0.5849 0.1582
vn -0.7402 -0.6561 0.1472
vn -0.7062 -0.6940 0.1405
vn -0.9979 -0.0642 -0.0000
vn -0.9929 -0.1191 -0.0000
vn -0.9693 -0.2457 -0.0000
vn -0.9375 -0.3480 -0.0000
vn -0.9093 -0.4162 -0.0000
vn -0.8647 -0.5023 -0.0000
vn -0.8111 -0.5849 -0.0000
vn -0.7547 -0.6561 -0.0000
vn -0.7200 -0.6940 -0.0000
vn -0.9788 -0.0642 -0.1947
vn -0.9738 -0.1191 -0.1937
vn -0.9507 -0.2457 -0.1891
vn -0.9195 -0.3480 -0.1829
vn -0.8918 -0.4162 -0.1774
vn -0.8481 -0.5023 -0.1687
vn -0.7955 -0.5849 -0.1582
vn -0.7402 -0.6561 -0.1472
vn -0.7062 -0.6940 -0.1405
vn -0.9220 -0.0642 -0.3819
vn -0.9173 -0.1191 -0.3800
vn -0.8956 -0.2457 -0.3710
vn -0.8661 -0.3480 -0.3588
vn -0.8401 -0.4162 -0.3480
vn -0.7989 -0.5023 -0.3309
vn -0.7494 -0.5849 -0.3104
vn -0.6972 -0.6561 -0.2888
vn -0.6652 -0.6940 -0.2755
vn -0.8298 -0.0642 -0.5544
vn -0.8256 -0.1191 -0.5516
vn -0.8060 -0.2457 -0.5385
vn -0.7795 -0.3480 -0.5209
vn -0.7560 -0.4162 -0.5052
vn -0.7190 -0.5023 -0.4804
vn -0.6744 -0.5849 -0.4506
vn -0.6275 -0.6561 -0.4193
vn -0.5987 -0.6940 -0.4000
vn -0.7056 -0.0642 -0.7056
vn -0.7021 -0.1191 -0.7021
vn -0.6854 -0.2457 -0.6854
vn -0.6629 -0.3480 -0.6629
vn -0.6430 -0.4162 -0.6430
vn -0.6114 -0.5023 -0.6114
vn -0.5735 -0.5849 -0.5735
vn -0.5336 -0.6561 -0.5336
vn -0.5091 -0.6940 -0.5091
vn -0.5544 -0.0642 -0.8298
vn -0.5516 -0.1191 -0.8256
vn -0.5385 -0.2457 -0.8060
vn -0.5209 -0.3480 -0.7795
vn -0.5052 -0.4162 -0.7560
vn -0.4804 -0.5023 -0.7190
vn -0.4506 -0.5849 -0.6744
vn -0.4193 -0.6561 -0.6275
vn -0.4000 -0.6940 -0.5987
vn -0.3819 -0.0642 -0.9220
vn -0.3800 -0.1191 -0.9173
vn -0.3710 -0.2457 -0.8956
vn -0.3588 -0.3480 -0.8661
vn -0.3480 -0.4162 -0.8401
vn -0.3309 -0.5023 -0.7989
vn -0.3104 -0.5849 -0.7494
vn -0.2888 -0.6561 -0.6972
vn -0.2755 -0.6940 -0.6652
vn -0.1947 -0.0642 -0.9788
vn -0.1937 -0.1191 -0.9738
vn -0.1891 -0.2457 -0.9507
vn -0.1829 -0.3480 -0.9195
vn -0.1774 -0.4162 -0.8918
vn -0.1687 -0.5023 -0.8481
vn -0.1582 -0.5849 -0.7955
vn -0.1472 -0.6561 -0.7402
vn -0.1405 -0.6940 -0.7062
vn -0.0000 -1.0000 -0.0000
vn -0.1220 0.7804 -0.6133
vn -0.0000 0.7804 -0.6253
vn -0.2393 0.7804 -0.5777
vn -0.3474 0.7804 -0.5199
vn -0.4422 0.7804 -0.4422
vn -0.5199 0.7804 -0.3474
vn -0.5777 0.7804 -0.2393
vn -0.6133 0.7804 -0.1220
vn -0.6253 0.7804 -0.0000
vn -0.6133 0.7804 0.1220
vn -0.5777 0.7804 0.2393
vn -0.5199 0.7804 0.3474
vn -0.4422 0.7804 0.4422
vn -0.3474 0.7804 0.5199
vn -0.2393 0.7804 0.5777
vn -0.1220 0.7804 0.6133
vn -0.0000 0.7804 0.6253
vn 0.1220 0.7804 0.6133
vn 0.2393 0.7804 0.5777
vn 0.3474 0.7804 0.5199
vn 0.4421 0.7804 0.4422
vn 0.5199 0.7804 0.3474
vn 0.5777 0.7804 0.2393
vn 0.6133 0.7804 0.1220
vn 0.6253 0.7804 -0.0000
vn 0.6133 0.7804 -0.1220
vn 0.5777 0.7804 -0.2393
vn 0.5199 0.7804 -0.3474
vn 0.4422 0.7804 -0.4422
vn 0.3474 0.7804 -0.5199
vn 0.2393 0.7804 -0.5777
vn 0.1220 0.7804 -0.6133
vt 1.000000 0.500000
vt 1.000000 1.000000
vt 0.968750 1.000000
vt 0.968750 0.500000
vt 0.937500 1.000000
vt 0.937500 0.500000
vt 0.906250 1.000000
vt 0.906250 0.500000
vt 0.875000 1.000000
vt 0.875000 0.500000
vt 0.843750 1.000000
vt 0.843750 0.500000
vt 0.812500 1.000000
vt 0.812500 0.500000
vt 0.781250 1.000000
vt 0.781250 0.500000
vt 0.750000 1.000000
vt 0.750000 0.500000
vt 0.718750 1.000000
vt 0.718750 0.500000
vt 0.687500 1.000000
vt 0.687500 0.500000
vt 0.656250 1.000000
vt 0.656250 0.500000
vt 0.625000 1.000000
vt 0.625000 0.500000
vt 0.593750 1.000000
vt 0.593750 0.500000
vt 0.562500 1.000000
vt 0.562500 0.500000
vt 0.531250 1.000000
vt 0.531250 0.500000
vt 0.500000 1.000000
vt 0.500000 0.500000
vt 0.468750 1.000000
vt 0.468750 0.500000
vt 0.437500 1.000000
vt 0.437500 0.500000
vt 0.406250 1.000000
vt 0.406250 0.500000
vt 0.375000 1.000000
vt 0.375000 0.500000
vt 0.343750 1.000000
vt 0.343750 0.500000
vt 0.312500 1.000000
vt 0.312500 0.500000
vt 0.281250 1.000000
vt 0.281250 0.500000
vt 0.250000 1.000000
vt 0.250000 0.500000
vt 0.218750 1.000000
vt 0.218750 0.500000
vt 0.187500 1.000000
vt 0.187500 0.500000
vt 0.156250 1.000000
vt 0.156250 0.500000
vt 0.125000 1.000000
vt 0.125000 0.500000
vt 0.093750 1.000000
vt 0.093750 0.500000
vt 0.062500 1.000000
vt 0.062500 0.500000
vt 0.031250 1.000000
vt 0.031250 0.500000
vt 0.000000 1.000000
vt 0.000000 0.500000
vt 0.968750 1.000000
vt 0.999833 1.000000
vt 0.999700 1.000000
vt 0.998810 1.000000
vt 0.968750 1.000000
vt 0.997367 1.000000
vt 0.968750 1.000000
vt 0.995423 1.000000
vt 0.296690 0.484726
vt 0.250000 0.489325
vt 0.250000 0.383337
vt 0.276013 0.380775
vt 0.250000 0.341844
vt 0.267918 0.340079
vt 0.250000 0.316463
vt 0.262966 0.315186
vt 0.252198 0.261049
vt 0.250000 0.261266
vt 0.250000 0.250000
vt 0.937500 1.000000
vt 0.937500 1.000000
vt 0.937500 1.000000
vt 0.341586 0.471107
vt 0.301026 0.373187
vt 0.285147 0.334853
vt 0.275434 0.311404
vt 0.254311 0.260408
vt 0.250000 0.250000
vt 0.906250 1.000000
vt 0.906250 1.000000
vt 0.382962 0.448991
vt 0.324078 0.360866
vt 0.301026 0.326366
vt 0.286925 0.305262
vt 0.256259 0.259367
vt 0.250000 0.250000
vt 0.875000 1.000000
vt 0.875000 1.000000
vt 0.875000 1.000000
vt 0.419228 0.419228
vt 0.344283 0.344283
vt 0.314944 0.314944
vt 0.296997 0.296997
vt 0.257966 0.257966
vt 0.250000 0.250000
vt 0.843750 1.000000
vt 0.843750 1.000000
vt 0.843750 1.000000
vt 0.843750 1.000000
vt 0.448991 0.382962
vt 0.360866 0.324078
vt 0.326366 0.301026
vt 0.305262 0.286925
vt 0.259367 0.256259
vt 0.812500 1.000000
vt 0.812500 1.000000
vt 0.471107 0.341586
vt 0.373187 0.301026
vt 0.334853 0.285147
vt 0.311404 0.275434
vt 0.260408 0.254311
vt 0.250000 0.250000
vt 0.781250 1.000000
vt 0.781250 1.000000
vt 0.781250 1.000000
vt 0.781250 1.000000
vt 0.484726 0.296690
vt 0.380775 0.276013
vt 0.340079 0.267918
vt 0.315186 0.262966
vt 0.261049 0.252198
vt 0.250000 0.250000
vt 0.750000 1.000000
vt 0.750000 1.000000
vt 0.489325 0.250000
vt 0.383337 0.250000
vt 0.341844 0.250000
vt 0.316463 0.250000
vt 0.261266 0.250000
vt 0.250000 0.250000
vt 0.718750 1.000000
vt 0.484726 0.203310
vt 0.380775 0.223987
vt 0.340079 0.232082
vt 0.315186 0.237034
vt 0.261049 0.247802
vt 0.250000 0.250000
vt 0.687500 1.000000
vt 0.687500 1.000000
vt 0.687500 1.000000
vt 0.471107 0.158414
vt 0.373187 0.198974
vt 0.334853 0.214853
vt 0.311404 0.224566
vt 0.260408 0.245689
vt 0.250000 0.250000
vt 0.656250 1.000000
vt 0.656250 1.000000
vt 0.448991 0.117038
vt 0.360866 0.175922
vt 0.326366 0.198974
vt 0.305262 0.213075
vt 0.259367 0.243741
vt 0.250000 0.250000
vt 0.625000 1.000000
vt 0.625000 1.000000
vt 0.625000 1.000000
vt 0.625000 1.000000
vt 0.419228 0.080772
vt 0.344283 0.155717
vt 0.314944 0.185056
vt 0.296997 0.203003
vt 0.257966 0.242034
vt 0.250000 0.250000
vt 0.593750 1.000000
vt 0.593750 1.000000
vt 0.593750 1.000000
vt 0.382962 0.051009
vt 0.324078 0.139134
vt 0.301026 0.173634
vt 0.286925 0.194738
vt 0.256259 0.240633
vt 0.250000 0.250000
vt 0.562500 1.000000
vt 0.341586 0.028893
vt 0.301026 0.126813
vt 0.285147 0.165147
vt 0.275434 0.188596
vt 0.254311 0.239592
vt 0.250000 0.250000
vt 0.531250 1.000000
vt 0.296690 0.015274
vt 0.276013 0.119225
vt 0.267918 0.159921
vt 0.262966 0.184814
vt 0.252198 0.238951
vt 0.500000 1.000000
vt 0.500000 1.000000
vt 0.500000 1.000000
vt 0.250000 0.010675
vt 0.250000 0.116663
vt 0.250000 0.158156
vt 0.250000 0.183537
vt 0.250000 0.238734
vt 0.250000 0.250000
vt 0.468750 1.000000
vt 0.468750 1.000000
vt 0.468750 1.000000
vt 0.468750 1.000000
vt 0.203310 0.015274
vt 0.223987 0.119225
vt 0.232082 0.159921
vt 0.237034 0.184814
vt 0.247802 0.238951
vt 0.250000 0.250000
vt 0.437500 1.000000
vt 0.437500 1.000000
vt 0.437500 1.000000
vt 0.437500 1.000000
vt 0.437500 1.000000
vt 0.158414 0.028893
vt 0.198974 0.126813
vt 0.214853 0.165147
vt 0.224566 0.188596
vt 0.245689 0.239592
vt 0.250000 0.250000
vt 0.406250 1.000000
vt 0.406250 1.000000
vt 0.406250 1.000000
vt 0.117038 0.051009
vt 0.175922 0.139134
vt 0.198974 0.173634
vt 0.213075 0.194738
vt 0.243741 0.240633
vt 0.250000 0.250000
vt 0.375000 1.000000
vt 0.375000 1.000000
vt 0.375000 1.000000
vt 0.080772 0.080772
vt 0.155717 0.155717
vt 0.185056 0.185056
vt 0.203003 0.203003
vt 0.242034 0.242034
vt 0.250000 0.250000
vt 0.343750 1.000000
vt 0.343750 1.000000
vt 0.343750 1.000000
vt 0.051009 0.117038
vt 0.139134 0.175922
vt 0.173634 0.198974
vt 0.194738 0.213075
vt 0.240633 0.243741
vt 0.250000 0.250000
vt 0.312500 1.000000
vt 0.312500 1.000000
vt 0.028893 0.158414
vt 0.126813 0.198974
vt 0.165147 0.214853
vt 0.188596 0.224566
vt 0.239592 0.245689
vt 0.250000 0.250000
vt 0.281250 1.000000
vt 0.281250 1.000000
vt 0.015274 0.203310
vt 0.119225 0.223987
vt 0.159921 0.232082
vt 0.184814 0.237034
vt 0.238951 0.247802
vt 0.250000 0.250000
vt 0.250000 1.000000
vt 0.250000 1.000000
vt 0.250000 1.000000
vt 0.010675 0.250000
vt 0.116663 0.250000
vt 0.158156 0.250000
vt 0.183537 0.250000
vt 0.238734 0.250000
vt 0.250000 0.250000
vt 0.218750 1.000000
vt 0.218750 1.000000
vt 0.015274 0.296690
vt 0.119225 0.276013
vt 0.159921 0.267918
vt 0.184814 0.262966
vt 0.238951 0.252198
vt 0.250000 0.250000
vt 0.187500 1.000000
vt 0.187500 1.000000
vt 0.187500 1.000000
vt 0.187500 1.000000
vt 0.028893 0.341586
vt 0.126813 0.301026
vt 0.165147 0.285147
vt 0.188596 0.275434
vt 0.239592 0.254311
vt 0.250000 0.250000
vt 0.156250 1.000000
vt 0.156250 1.000000
vt 0.156250 1.000000
vt 0.051009 0.382962
vt 0.139134 0.324078
vt 0.173634 0.301026
vt 0.194738 0.286925
vt 0.240633 0.256259
vt 0.250000 0.250000
vt 0.125000 1.000000
vt 0.125000 1.000000
vt 0.125000 1.000000
vt 0.080772 0.419228
vt 0.155717 0.344283
vt 0.185056 0.314944
vt 0.203003 0.296997
vt 0.242034 0.257966
vt 0.250000 0.250000
vt 0.093750 1.000000
vt 0.093750 1.000000
vt 0.093750 1.000000
vt 0.093750 1.000000
vt 0.117038 0.448991
vt 0.175922 0.360866
vt 0.198974 0.326366
vt 0.213075 0.305262
vt 0.243741 0.259367
vt 0.250000 0.250000
vt 0.062500 1.000000
vt 0.062500 1.000000
vt 0.062500 1.000000
vt 0.158414 0.471107
vt 0.198974 0.373187
vt 0.214853 0.334853
vt 0.224566 0.311404
vt 0.245689 0.260408
vt 0.250000 0.250000
vt 0.031250 1.000000
vt 0.031250 1.000000
vt 0.031250 1.000000
vt 0.031250 1.000000
vt 0.203310 0.484726
vt 0.223987 0.380775
vt 0.232082 0.340079
vt 0.237034 0.315186
vt 0.247802 0.261049
vt 0.000167 1.000000
vt 0.000300 1.000000
vt 0.001189 1.000000
vt 0.002633 1.000000
vt 0.004576 1.000000
vt 0.968750 0.500000
vt 0.968750 0.500000
vt 0.999759 0.500000
vt 0.968750 0.500000
vt 0.999044 0.500000
vt 0.968750 0.500000
vt 0.997883 0.500000
vt 0.996321 0.500000
vt 0.750000 0.489457
vt 0.796716 0.484856
vt 0.780094 0.401293
vt 0.750000 0.404257
vt 0.773587 0.368579
vt 0.750000 0.370902
vt 0.766526 0.333082
vt 0.750000 0.334709
vt 0.759183 0.296167
vt 0.750000 0.297071
vt 0.937500 0.500000
vt 0.937500 0.500000
vt 0.937500 0.500000
vt 0.937500 0.500000
vt 0.841636 0.471230
vt 0.809031 0.392514
vt 0.796267 0.361699
vt 0.782417 0.328261
vt 0.768013 0.293488
vt 0.906250 0.500000
vt 0.906250 0.500000
vt 0.906250 0.500000
vt 0.906250 0.500000
vt 0.906250 0.500000
vt 0.883035 0.449101
vt 0.835701 0.378260
vt 0.817169 0.350526
vt 0.797062 0.320433
vt 0.776151 0.289138
vt 0.875000 0.500000
vt 0.875000 0.500000
vt 0.875000 0.500000
vt 0.875000 0.500000
vt 0.919322 0.419322
vt 0.859076 0.359076
vt 0.835491 0.335490
vt 0.809899 0.309899
vt 0.783284 0.283284
vt 0.843750 0.500000
vt 0.843750 0.500000
vt 0.843750 0.500000
vt 0.949101 0.383035
vt 0.878260 0.335701
vt 0.850526 0.317169
vt 0.820433 0.297062
vt 0.789138 0.276151
vt 0.812500 0.500000
vt 0.812500 0.500000
vt 0.812500 0.500000
vt 0.812500 0.500000
vt 0.971229 0.341636
vt 0.892515 0.309031
vt 0.861699 0.296267
vt 0.828261 0.282417
vt 0.793488 0.268013
vt 0.781250 0.500000
vt 0.781250 0.500000
vt 0.781250 0.500000
vt 0.984856 0.296716
vt 0.901293 0.280094
vt 0.868579 0.273587
vt 0.833082 0.266526
vt 0.796167 0.259183
vt 0.750000 0.500000
vt 0.989457 0.250000
vt 0.904256 0.250000
vt 0.870902 0.250000
vt 0.834709 0.250000
vt 0.797071 0.250000
vt 0.718750 0.500000
vt 0.718750 0.500000
vt 0.718750 0.500000
vt 0.984856 0.203284
vt 0.901293 0.219906
vt 0.868579 0.226413
vt 0.833082 0.233474
vt 0.796167 0.240817
vt 0.687500 0.500000
vt 0.687500 0.500000
vt 0.971229 0.158364
vt 0.892515 0.190969
vt 0.861699 0.203733
vt 0.828261 0.217583
vt 0.793488 0.231987
vt 0.656250 0.500000
vt 0.656250 0.500000
vt 0.949101 0.116965
vt 0.878260 0.164300
vt 0.850526 0.182831
vt 0.820433 0.202938
vt 0.789138 0.223849
vt 0.625000 0.500000
vt 0.625000 0.500000
vt 0.625000 0.500000
vt 0.919322 0.080678
vt 0.859076 0.140924
vt 0.835491 0.164510
vt 0.809899 0.190101
vt 0.783284 0.216716
vt 0.593750 0.500000
vt 0.593750 0.500000
vt 0.883035 0.050899
vt 0.835700 0.121740
vt 0.817169 0.149474
vt 0.797062 0.179567
vt 0.776151 0.210862
vt 0.562500 0.500000
vt 0.562500 0.500000
vt 0.841636 0.028770
vt 0.809031 0.107485
vt 0.796267 0.138301
vt 0.782417 0.171739
vt 0.768013 0.206512
vt 0.531250 0.500000
vt 0.531250 0.500000
vt 0.531250 0.500000
vt 0.796716 0.015144
vt 0.780094 0.098707
vt 0.773587 0.131421
vt 0.766526 0.166918
vt 0.759183 0.203833
vt 0.500000 0.500000
vt 0.500000 0.500000
vt 0.500000 0.500000
vt 0.750000 0.010543
vt 0.750000 0.095743
vt 0.750000 0.129098
vt 0.750000 0.165290
vt 0.750000 0.202929
vt 0.468750 0.500000
vt 0.468750 0.500000
vt 0.468750 0.500000
vt 0.703284 0.015144
vt 0.719906 0.098707
vt 0.726413 0.131421
vt 0.733474 0.166918
vt 0.740817 0.203833
vt 0.437500 0.500000
vt 0.437500 0.500000
vt 0.437500 0.500000
vt 0.437500 0.500000
vt 0.658364 0.028770
vt 0.690968 0.107485
vt 0.703733 0.138301
vt 0.717583 0.171739
vt 0.731987 0.206512
vt 0.406250 0.500000
vt 0.406250 0.500000
vt 0.406250 0.500000
vt 0.406250 0.500000
vt 0.406250 0.500000
vt 0.616965 0.050899
vt 0.664300 0.121740
vt 0.682831 0.149474
vt 0.702938 0.179567
vt 0.723849 0.210862
vt 0.375000 0.500000
vt 0.375000 0.500000
vt 0.375000 0.500000
vt 0.375000 0.500000
vt 0.375000 0.500000
vt 0.580678 0.080678
vt 0.640924 0.140924
vt 0.664510 0.164510
vt 0.690101 0.190101
vt 0.716716 0.216716
vt 0.343750 0.500000
vt 0.343750 0.500000
vt 0.343750 0.500000
vt 0.550899 0.116965
vt 0.621740 0.164300
vt 0.649474 0.182831
vt 0.679567 0.202938
vt 0.710862 0.223849
vt 0.312500 0.500000
vt 0.312500 0.500000
vt 0.312500 0.500000
vt 0.528770 0.158364
vt 0.607485 0.190969
vt 0.638301 0.203733
vt 0.671739 0.217583
vt 0.706512 0.231987
vt 0.281250 0.500000
vt 0.281250 0.500000
vt 0.515144 0.203284
vt 0.598707 0.219906
vt 0.631421 0.226413
vt 0.666918 0.233474
vt 0.703833 0.240817
vt 0.250000 0.500000
vt 0.250000 0.500000
vt 0.510543 0.250000
vt 0.595743 0.250000
vt 0.629098 0.250000
vt 0.665290 0.250000
vt 0.702929 0.250000
vt 0.218750 0.500000
vt 0.218750 0.500000
vt 0.218750 0.500000
vt 0.515144 0.296716
vt 0.598707 0.280094
vt 0.631421 0.273587
vt 0.666918 0.266526
vt 0.703833 0.259183
vt 0.187500 0.500000
vt 0.528771 0.341636
vt 0.607485 0.309031
vt 0.638301 0.296267
vt 0.671739 0.282417
vt 0.706512 0.268013
vt 0.156250 0.500000
vt 0.550899 0.383035
vt 0.621740 0.335700
vt 0.649474 0.317169
vt 0.679567 0.297062
vt 0.710862 0.276151
vt 0.125000 0.500000
vt 0.125000 0.500000
vt 0.125000 0.500000
vt 0.580678 0.419322
vt 0.640924 0.359076
vt 0.664510 0.335490
vt 0.690101 0.309899
vt 0.716716 0.283284
vt 0.093750 0.500000
vt 0.093750 0.500000
vt 0.093750 0.500000
vt 0.616965 0.449101
vt 0.664300 0.378260
vt 0.682831 0.350526
vt 0.702938 0.320433
vt 0.723849 0.289138
vt 0.062500 0.500000
vt 0.062500 0.500000
vt 0.658364 0.471230
vt 0.690968 0.392514
vt 0.703733 0.361699
vt 0.717583 0.328261
vt 0.731987 0.293488
vt 0.031250 0.500000
vt 0.031250 0.500000
vt 0.031250 0.500000
vt 0.031250 0.500000
vt 0.703284 0.484856
vt 0.719906 0.401293
vt 0.726413 0.368579
vt 0.733474 0.333082
vt 0.740817 0.296167
vt 0.000241 0.500000
vt 0.000956 0.500000
vt 0.002117 0.500000
vt 0.003679 0.500000
vt 0.724273 0.239344
vt 0.722689 0.244567
vt 0.755432 0.277311
vt 0.750000 0.277846
vt 0.760656 0.275726
vt 0.765471 0.273153
vt 0.769690 0.269690
vt 0.773153 0.265470
vt 0.775726 0.260656
vt 0.777311 0.255433
vt 0.777846 0.250000
vt 0.777311 0.244567
vt 0.775726 0.239344
vt 0.773153 0.234530
vt 0.769690 0.230310
vt 0.765470 0.226847
vt 0.760656 0.224274
vt 0.755432 0.222689
vt 0.750000 0.222154
vt 0.744567 0.222689
vt 0.739344 0.224274
vt 0.734530 0.226847
vt 0.730310 0.230310
vt 0.726847 0.234530
vt 0.722154 0.250000
vt 0.722689 0.255432
vt 0.724274 0.260656
vt 0.726847 0.265470
vt 0.730310 0.269690
vt 0.734529 0.273153
vt 0.739344 0.275726
vt 0.744568 0.277311
vt 0.242674 0.286831
vt 0.250000 0.287553
vt 0.235629 0.284695
vt 0.229137 0.281224
vt 0.223446 0.276554
vt 0.218776 0.270863
vt 0.215306 0.264371
vt 0.213169 0.257326
vt 0.212447 0.250000
vt 0.213169 0.242674
vt 0.215306 0.235629
vt 0.218776 0.229137
vt 0.223446 0.223446
vt 0.229137 0.218776
vt 0.235629 0.215306
vt 0.242674 0.213169
vt 0.250000 0.212447
vt 0.257326 0.213169
vt 0.264371 0.215306
vt 0.270863 0.218776
vt 0.276554 0.223446
vt 0.281224 0.229137
vt 0.284694 0.235629
vt 0.286831 0.242674
vt 0.287553 0.250000
vt 0.286831 0.257326
vt 0.284694 0.264371
vt 0.281224 0.270863
vt 0.276554 0.276554
vt 0.270863 0.281224
vt 0.264371 0.284695
vt 0.257326 0.286831
vt 0.750000 0.255778
vt 0.751127 0.255667
vt 0.752211 0.255338
vt 0.753210 0.254804
vt 0.754086 0.254086
vt 0.754804 0.253210
vt 0.755338 0.252211
vt 0.755667 0.251127
vt 0.755778 0.250000
vt 0.755667 0.248873
vt 0.755338 0.247789
vt 0.754804 0.246790
vt 0.754086 0.245914
vt 0.753210 0.245196
vt 0.752211 0.244662
vt 0.751127 0.244333
vt 0.750000 0.244222
vt 0.748873 0.244333
vt 0.747789 0.244662
vt 0.746790 0.245196
vt 0.745914 0.245914
vt 0.745196 0.246790
vt 0.744662 0.247789
vt 0.744333 0.248873
vt 0.744222 0.250000
vt 0.744333 0.251127
vt 0.744662 0.252211
vt 0.745196 0.253210
vt 0.745914 0.254086
vt 0.746790 0.254804
vt 0.747789 0.255338
vt 0.748873 0.255667
s 1
f 1/1/1 2/2/1 3/3/2 310/4/2
f 310/4/2 3/3/2 5/5/3 4/6/3
f 4/6/3 5/5/3 7/7/4 6/8/4
f 6/8/4 7/7/4 8/9/5 335/10/5
f 335/10/5 8/9/5 9/11/6 344/12/6
f 344/12/6 9/11/6 10/13/7 353/14/7
f 353/14/7 10/13/7 12/15/8 11/16/8
f 11/16/8 12/15/8 13/17/9 370/18/9
f 370/18/9 13/17/9 14/19/10 379/20/10
f 379/20/10 14/19/10 16/21/11 15/22/11
f 15/22/11 16/21/11 17/23/12 396/24/12
f 396/24/12 17/23/12 18/25/13 405/26/13
f 405/26/13 18/25/13 19/27/14 414/28/14
f 414/28/14 19/27/14 20/29/15 423/30/15
f 423/30/15 20/29/15 22/31/16 21/32/16
f 21/32/16 22/31/16 23/33/17 440/34/17
f 440/34/17 23/33/17 25/35/18 24/36/18
f 24/36/18 25/35/18 27/37/19 26/38/19
f 26/38/19 27/37/19 28/39/20 465/40/20
f 465/40/20 28/39/20 29/41/21 474/42/21
f 474/42/21 29/41/21 31/43/22 30/44/22
f 30/44/22 31/43/22 33/45/23 32/46/23
f 32/46/23 33/45/23 34/47/24 499/48/24
f 499/48/24 34/47/24 36/49/25 35/50/25
f 35/50/25 36/49/25 37/51/26 516/52/26
f 516/52/26 37/51/26 39/53/27 38/54/27
f 38/54/27 39/53/27 40/55/28 533/56/28
f 533/56/28 40/55/28 41/57/29 542/58/29
f 542/58/29 41/57/29 42/59/30 551/60/30
f 551/60/30 42/59/30 43/61/31 560/62/31
f 560/62/31 43/61/31 44/63/32 569/64/32
f 569/64/32 44/63/32 2/65/1 1/66/1
f 53/67/33 45/68/34 46/69/35 60/67/36
f 60/67/36 46/69/35 47/70/37 59/71/38
f 59/71/38 47/70/37 48/72/39 58/73/40
f 58/73/40 48/72/39 49/74/41 57/67/42
f 57/75/42 49/76/41 50/77/43 56/78/44
f 56/78/44 50/77/43 51/79/45 55/80/46
f 55/80/46 51/79/45 52/81/47 54/82/48
f 644/83/49 643/84/50 229/85/51
f 61/5/52 53/67/33 60/67/36 68/5/53
f 68/5/53 60/67/36 59/71/38 67/86/54
f 67/86/54 59/71/38 58/73/40 66/87/55
f 66/87/55 58/73/40 57/67/42 65/88/56
f 65/89/56 57/75/42 56/78/44 64/90/57
f 64/90/57 56/78/44 55/80/46 63/91/58
f 63/91/58 55/80/46 54/82/48 62/92/59
f 645/93/60 644/83/49 229/94/51
f 69/95/61 61/5/52 68/5/53 76/95/62
f 76/95/62 68/5/53 67/86/54 75/96/63
f 75/96/63 67/86/54 66/87/55 74/7/64
f 74/7/64 66/87/55 65/88/56 73/96/65
f 73/97/65 65/89/56 64/90/57 72/98/66
f 72/98/66 64/90/57 63/91/58 71/99/67
f 71/99/67 63/91/58 62/92/59 70/100/68
f 646/101/69 645/93/60 229/102/51
f 77/9/70 69/95/61 76/95/62 84/9/71
f 84/9/71 76/95/62 75/96/63 83/103/72
f 83/103/72 75/96/63 74/7/64 82/104/73
f 82/104/73 74/7/64 73/96/65 81/105/74
f 81/106/74 73/97/65 72/98/66 80/107/75
f 80/107/75 72/98/66 71/99/67 79/108/76
f 79/108/76 71/99/67 70/100/68 78/109/77
f 647/110/78 646/101/69 229/111/51
f 85/11/79 77/9/70 84/9/71 92/112/80
f 92/112/80 84/9/71 83/103/72 91/113/81
f 91/113/81 83/103/72 82/104/73 90/114/82
f 90/114/82 82/104/73 81/105/74 89/115/83
f 89/116/83 81/106/74 80/107/75 88/117/84
f 88/117/84 80/107/75 79/108/76 87/118/85
f 87/118/85 79/108/76 78/109/77 86/119/86
f 648/120/87 647/110/78 229/111/51
f 93/13/88 85/11/79 92/112/80 100/121/89
f 100/121/89 92/112/80 91/113/81 99/13/90
f 99/13/90 91/113/81 90/114/82 98/122/91
f 98/122/91 90/114/82 89/115/83 97/13/92
f 97/123/92 89/116/83 88/117/84 96/124/93
f 96/124/93 88/117/84 87/118/85 95/125/94
f 95/125/94 87/118/85 86/119/86 94/126/95
f 649/127/96 648/120/87 229/128/51
f 101/129/97 93/13/88 100/121/89 108/130/98
f 108/130/98 100/121/89 99/13/90 107/131/99
f 107/131/99 99/13/90 98/122/91 106/15/100
f 106/15/100 98/122/91 97/13/92 105/132/101
f 105/133/101 97/123/92 96/124/93 104/134/102
f 104/134/102 96/124/93 95/125/94 103/135/103
f 103/135/103 95/125/94 94/126/95 102/136/104
f 650/137/105 649/127/96 229/138/51
f 109/17/106 101/129/97 108/130/98 116/17/107
f 116/17/107 108/130/98 107/131/99 115/139/108
f 115/139/108 107/131/99 106/15/100 114/140/109
f 114/140/109 106/15/100 105/132/101 113/17/110
f 113/141/110 105/133/101 104/134/102 112/142/111
f 112/142/111 104/134/102 103/135/103 111/143/112
f 111/143/112 103/135/103 102/136/104 110/144/113
f 651/145/114 650/137/105 229/146/51
f 117/19/115 109/17/106 116/17/107 124/147/116
f 124/147/116 116/17/107 115/139/108 123/147/117
f 123/147/117 115/139/108 114/140/109 122/19/118
f 122/19/118 114/140/109 113/17/110 121/19/119
f 121/148/119 113/141/110 112/142/111 120/149/120
f 120/149/120 112/142/111 111/143/112 119/150/121
f 119/150/121 111/143/112 110/144/113 118/151/122
f 652/152/123 651/145/114 229/153/51
f 125/154/124 117/19/115 124/147/116 132/154/125
f 132/154/125 124/147/116 123/147/117 131/155/126
f 131/155/126 123/147/117 122/19/118 130/156/127
f 130/156/127 122/19/118 121/19/119 129/155/128
f 129/157/128 121/148/119 120/149/120 128/158/129
f 128/158/129 120/149/120 119/150/121 127/159/130
f 127/159/130 119/150/121 118/151/122 126/160/131
f 653/161/132 652/152/123 229/162/51
f 133/163/133 125/154/124 132/154/125 140/164/134
f 140/164/134 132/154/125 131/155/126 139/164/135
f 139/164/135 131/155/126 130/156/127 138/23/136
f 138/23/136 130/156/127 129/155/128 137/23/137
f 137/165/137 129/157/128 128/158/129 136/166/138
f 136/166/138 128/158/129 127/159/130 135/167/139
f 135/167/139 127/159/130 126/160/131 134/168/140
f 654/169/141 653/161/132 229/170/51
f 141/171/142 133/163/133 140/164/134 148/172/143
f 148/172/143 140/164/134 139/164/135 147/173/144
f 147/173/144 139/164/135 138/23/136 146/174/145
f 146/174/145 138/23/136 137/23/137 145/25/146
f 145/175/146 137/165/137 136/166/138 144/176/147
f 144/176/147 136/166/138 135/167/139 143/177/148
f 143/177/148 135/167/139 134/168/140 142/178/149
f 655/179/150 654/169/141 229/180/51
f 149/27/151 141/171/142 148/172/143 156/181/152
f 156/181/152 148/172/143 147/173/144 155/182/153
f 155/182/153 147/173/144 146/174/145 154/27/154
f 154/27/154 146/174/145 145/25/146 153/183/155
f 153/184/155 145/175/146 144/176/147 152/185/156
f 152/185/156 144/176/147 143/177/148 151/186/157
f 151/186/157 143/177/148 142/178/149 150/187/158
f 656/188/159 655/179/150 229/189/51
f 157/29/160 149/27/151 156/181/152 164/190/161
f 164/190/161 156/181/152 155/182/153 163/29/162
f 163/29/162 155/182/153 154/27/154 162/29/163
f 162/29/163 154/27/154 153/183/155 161/29/164
f 161/191/164 153/184/155 152/185/156 160/192/165
f 160/192/165 152/185/156 151/186/157 159/193/166
f 159/193/166 151/186/157 150/187/158 158/194/167
f 657/195/168 656/188/159 229/196/51
f 165/31/169 157/29/160 164/190/161 172/31/170
f 172/31/170 164/190/161 163/29/162 171/197/171
f 171/197/171 163/29/162 162/29/163 170/31/172
f 170/31/172 162/29/163 161/29/164 169/31/173
f 169/198/173 161/191/164 160/192/165 168/199/174
f 168/199/174 160/192/165 159/193/166 167/200/175
f 167/200/175 159/193/166 158/194/167 166/201/176
f 658/202/177 657/195/168 229/196/51
f 173/33/178 165/31/169 172/31/170 180/203/179
f 180/203/179 172/31/170 171/197/171 179/204/180
f 179/204/180 171/197/171 170/31/172 178/33/181
f 178/33/181 170/31/172 169/31/173 177/205/182
f 177/206/182 169/198/173 168/199/174 176/207/183
f 176/207/183 168/199/174 167/200/175 175/208/184
f 175/208/184 167/200/175 166/201/176 174/209/185
f 659/210/186 658/202/177 229/211/51
f 181/212/187 173/33/178 180/203/179 188/213/188
f 188/213/188 180/203/179 179/204/180 187/214/189
f 187/214/189 179/204/180 178/33/181 186/215/190
f 186/215/190 178/33/181 177/205/182 185/215/191
f 185/216/191 177/206/182 176/207/183 184/217/192
f 184/217/192 176/207/183 175/208/184 183/218/193
f 183/218/193 175/208/184 174/209/185 182/219/194
f 660/220/195 659/210/186 229/221/51
f 189/222/196 181/212/187 188/213/188 196/223/197
f 196/223/197 188/213/188 187/214/189 195/224/198
f 195/224/198 187/214/189 186/215/190 194/225/199
f 194/225/199 186/215/190 185/215/191 193/226/200
f 193/227/200 185/216/191 184/217/192 192/228/201
f 192/228/201 184/217/192 183/218/193 191/229/202
f 191/229/202 183/218/193 182/219/194 190/230/203
f 661/231/204 660/220/195 229/232/51
f 197/233/205 189/222/196 196/223/197 204/233/206
f 204/233/206 196/223/197 195/224/198 203/234/207
f 203/234/207 195/224/198 194/225/199 202/233/208
f 202/233/208 194/225/199 193/226/200 201/235/209
f 201/236/209 193/227/200 192/228/201 200/237/210
f 200/237/210 192/228/201 191/229/202 199/238/211
f 199/238/211 191/229/202 190/230/203 198/239/212
f 662/240/213 661/231/204 229/241/51
f 205/41/214 197/233/205 204/233/206 212/242/215
f 212/242/215 204/233/206 203/234/207 211/243/216
f 211/243/216 203/234/207 202/233/208 210/243/217
f 210/243/217 202/233/208 201/235/209 209/244/218
f 209/245/218 201/236/209 200/237/210 208/246/219
f 208/246/219 200/237/210 199/238/211 207/247/220
f 207/247/220 199/238/211 198/239/212 206/248/221
f 663/249/222 662/240/213 229/250/51
f 213/43/223 205/41/214 212/242/215 220/251/224
f 220/251/224 212/242/215 211/243/216 219/252/225
f 219/252/225 211/243/216 210/243/217 218/253/226
f 218/253/226 210/243/217 209/244/218 217/253/227
f 217/254/227 209/245/218 208/246/219 216/255/228
f 216/255/228 208/246/219 207/247/220 215/256/229
f 215/256/229 207/247/220 206/248/221 214/257/230
f 664/258/231 663/249/222 229/259/51
f 221/45/232 213/43/223 220/251/224 228/260/233
f 228/260/233 220/251/224 219/252/225 227/261/234
f 227/261/234 219/252/225 218/253/226 226/261/235
f 226/261/235 218/253/226 217/253/227 225/45/236
f 225/262/236 217/254/227 216/255/228 224/263/237
f 224/263/237 216/255/228 215/256/229 223/264/238
f 223/264/238 215/256/229 214/257/230 222/265/239
f 665/266/240 664/258/231 229/267/51
f 230/47/241 221/45/232 228/260/233 237/268/242
f 237/268/242 228/260/233 227/261/234 236/47/243
f 236/47/243 227/261/234 226/261/235 235/47/244
f 235/47/244 226/261/235 225/45/236 234/269/245
f 234/270/245 225/262/236 224/263/237 233/271/246
f 233/271/246 224/263/237 223/264/238 232/272/247
f 232/272/247 223/264/238 222/265/239 231/273/248
f 666/274/249 665/266/240 229/275/51
f 238/276/250 230/47/241 237/268/242 245/49/251
f 245/49/251 237/268/242 236/47/243 244/277/252
f 244/277/252 236/47/243 235/47/244 243/278/253
f 243/278/253 235/47/244 234/269/245 242/49/254
f 242/279/254 234/270/245 233/271/246 241/280/255
f 241/280/255 233/271/246 232/272/247 240/281/256
f 240/281/256 232/272/247 231/273/248 239/282/257
f 667/283/258 666/274/249 229/284/51
f 246/51/259 238/276/250 245/49/251 253/51/260
f 253/51/260 245/49/251 244/277/252 252/285/261
f 252/285/261 244/277/252 243/278/253 251/51/262
f 251/51/262 243/278/253 242/49/254 250/286/263
f 250/287/263 242/279/254 241/280/255 249/288/264
f 249/288/264 241/280/255 240/281/256 248/289/265
f 248/289/265 240/281/256 239/282/257 247/290/266
f 668/291/267 667/283/258 229/292/51
f 254/293/268 246/51/259 253/51/260 261/294/269
f 261/294/269 253/51/260 252/285/261 260/295/270
f 260/295/270 252/285/261 251/51/262 259/293/271
f 259/293/271 251/51/262 250/286/263 258/296/272
f 258/297/272 250/287/263 249/288/264 257/298/273
f 257/298/273 249/288/264 248/289/265 256/299/274
f 256/299/274 248/289/265 247/290/266 255/300/275
f 669/301/276 668/291/267 229/302/51
f 262/303/277 254/293/268 261/294/269 269/304/278
f 269/304/278 261/294/269 260/295/270 268/305/279
f 268/305/279 260/295/270 259/293/271 267/55/280
f 267/55/280 259/293/271 258/296/272 266/55/281
f 266/306/281 258/297/272 257/298/273 265/307/282
f 265/307/282 257/298/273 256/299/274 264/308/283
f 264/308/283 256/299/274 255/300/275 263/309/284
f 670/310/285 669/301/276 229/311/51
f 270/57/286 262/303/277 269/304/278 277/312/287
f 277/312/287 269/304/278 268/305/279 276/313/288
f 276/313/288 268/305/279 267/55/280 275/313/289
f 275/313/289 267/55/280 266/55/281 274/314/290
f 274/315/290 266/306/281 265/307/282 273/316/291
f 273/316/291 265/307/282 264/308/283 272/317/292
f 272/317/292 264/308/283 263/309/284 271/318/293
f 671/319/294 670/310/285 229/320/51
f 278/321/295 270/57/286 277/312/287 285/322/296
f 285/322/296 277/312/287 276/313/288 284/323/297
f 284/323/297 276/313/288 275/313/289 283/321/298
f 283/321/298 275/313/289 274/314/290 282/324/299
f 282/325/299 274/315/290 273/316/291 281/326/300
f 281/326/300 273/316/291 272/317/292 280/327/301
f 280/327/301 272/317/292 271/318/293 279/328/302
f 672/329/303 671/319/294 229/330/51
f 286/331/304 278/321/295 285/322/296 293/332/305
f 293/332/305 285/322/296 284/323/297 292/333/306
f 292/333/306 284/323/297 283/321/298 291/333/307
f 291/333/307 283/321/298 282/324/299 290/61/308
f 290/334/308 282/325/299 281/326/300 289/335/309
f 289/335/309 281/326/300 280/327/301 288/336/310
f 288/336/310 280/327/301 279/328/302 287/337/311
f 673/338/312 672/329/303 229/339/51
f 294/340/313 286/331/304 293/332/305 301/341/314
f 301/341/314 293/332/305 292/333/306 300/342/315
f 300/342/315 292/333/306 291/333/307 299/343/316
f 299/343/316 291/333/307 290/61/308 298/343/317
f 298/344/317 290/334/308 289/335/309 297/345/318
f 297/345/318 289/335/309 288/336/310 296/346/319
f 296/346/319 288/336/310 287/337/311 295/347/320
f 674/348/321 673/338/312 229/339/51
f 45/349/34 294/340/313 301/341/314 46/350/35
f 46/350/35 301/341/314 300/342/315 47/351/37
f 47/351/37 300/342/315 299/343/316 48/352/39
f 48/352/39 299/343/316 298/343/317 49/353/41
f 49/76/41 298/344/317 297/345/318 50/77/43
f 50/77/43 297/345/318 296/346/319 51/79/45
f 51/79/45 296/346/319 295/347/320 52/81/47
f 643/84/50 674/348/321 229/85/51
f 3/3/322 2/2/323 45/68/34 53/67/33
f 2/65/323 44/63/324 294/340/313 45/349/34
f 5/5/325 3/3/322 53/67/33 61/5/52
f 7/7/326 5/5/325 61/5/52 69/95/61
f 8/9/327 7/7/326 69/95/61 77/9/70
f 9/11/328 8/9/327 77/9/70 85/11/79
f 10/13/329 9/11/328 85/11/79 93/13/88
f 12/15/330 10/13/329 93/13/88 101/129/97
f 13/17/331 12/15/330 101/129/97 109/17/106
f 14/19/332 13/17/331 109/17/106 117/19/115
f 16/21/333 14/19/332 117/19/115 125/154/124
f 17/23/334 16/21/333 125/154/124 133/163/133
f 18/25/335 17/23/334 133/163/133 141/171/142
f 19/27/336 18/25/335 141/171/142 149/27/151
f 20/29/337 19/27/336 149/27/151 157/29/160
f 22/31/338 20/29/337 157/29/160 165/31/169
f 23/33/339 22/31/338 165/31/169 173/33/178
f 25/35/340 23/33/339 173/33/178 181/212/187
f 27/37/341 25/35/340 181/212/187 189/222/196
f 28/39/342 27/37/341 189/222/196 197/233/205
f 29/41/343 28/39/342 197/233/205 205/41/214
f 31/43/344 29/41/343 205/41/214 213/43/223
f 33/45/345 31/43/344 213/43/223 221/45/232
f 34/47/346 33/45/345 221/45/232 230/47/241
f 36/49/347 34/47/346 230/47/241 238/276/250
f 37/51/348 36/49/347 238/276/250 246/51/259
f 39/53/349 37/51/348 246/51/259 254/293/268
f 40/55/350 39/53/349 254/293/268 262/303/277
f 41/57/351 40/55/350 262/303/277 270/57/286
f 42/59/352 41/57/351 270/57/286 278/321/295
f 43/61/353 42/59/352 278/321/295 286/331/304
f 44/63/324 43/61/353 286/331/304 294/340/313
f 1/1/354 310/354/355 312/355/356 309/356/357
f 309/356/357 312/355/356 313/357/358 308/358/359
f 308/358/359 313/357/358 314/359/360 307/360/361
f 307/360/361 314/359/360 315/354/362 306/361/363
f 306/362/363 315/363/362 316/364/364 305/365/365
f 305/365/365 316/364/364 317/366/366 304/367/367
f 304/367/367 317/366/366 318/368/368 303/369/369
f 303/369/369 318/368/368 578/370/370 579/371/371
f 310/354/355 4/6/372 320/372/373 312/355/356
f 312/355/356 320/372/373 321/373/374 313/357/358
f 313/357/358 321/373/374 322/374/375 314/359/360
f 314/359/360 322/374/375 323/375/376 315/354/362
f 315/363/362 323/376/376 324/377/377 316/364/364
f 316/364/364 324/377/377 325/378/378 317/366/366
f 317/366/366 325/378/378 326/379/379 318/368/368
f 318/368/368 326/379/379 580/380/380 578/370/370
f 4/6/372 6/381/381 328/382/382 320/372/373
f 320/372/373 328/382/382 329/383/383 321/373/374
f 321/373/374 329/383/383 330/384/384 322/374/375
f 322/374/375 330/384/384 331/385/385 323/375/376
f 323/376/376 331/386/385 332/387/386 324/377/377
f 324/377/377 332/387/386 333/388/387 325/378/378
f 325/378/378 333/388/387 334/389/388 326/379/379
f 326/379/379 334/389/388 581/390/389 580/380/380
f 6/381/381 335/391/390 337/392/391 328/382/382
f 328/382/382 337/392/391 338/393/392 329/383/383
f 329/383/383 338/393/392 339/394/393 330/384/384
f 330/384/384 339/394/393 340/394/394 331/385/385
f 331/386/385 340/395/394 341/396/395 332/387/386
f 332/387/386 341/396/395 342/397/396 333/388/387
f 333/388/387 342/397/396 343/398/397 334/389/388
f 334/389/388 343/398/397 582/399/398 581/390/389
f 335/391/390 344/12/399 346/400/400 337/392/391
f 337/392/391 346/400/400 347/401/401 338/393/392
f 338/393/392 347/401/401 348/402/402 339/394/393
f 339/394/393 348/402/402 349/401/403 340/394/394
f 340/395/394 349/403/403 350/404/404 341/396/395
f 341/396/395 350/404/404 351/405/405 342/397/396
f 342/397/396 351/405/405 352/406/406 343/398/397
f 343/398/397 352/406/406 583/407/407 582/399/398
f 344/12/399 353/408/408 355/409/409 346/400/400
f 346/400/400 355/409/409 356/14/410 347/401/401
f 347/401/401 356/14/410 357/410/411 348/402/402
f 348/402/402 357/410/411 358/411/412 349/401/403
f 349/403/403 358/412/412 359/413/413 350/404/404
f 350/404/404 359/413/413 360/414/414 351/405/405
f 351/405/405 360/414/414 361/415/415 352/406/406
f 352/406/406 361/415/415 584/416/416 583/407/407
f 353/408/408 11/417/417 363/418/418 355/409/409
f 355/409/409 363/418/418 364/419/419 356/14/410
f 356/14/410 364/419/419 365/16/420 357/410/411
f 357/410/411 365/16/420 366/16/421 358/411/412
f 358/412/412 366/420/421 367/421/422 359/413/413
f 359/413/413 367/421/422 368/422/423 360/414/414
f 360/414/414 368/422/423 369/423/424 361/415/415
f 361/415/415 369/423/424 585/424/425 584/416/416
f 11/417/417 370/18/426 372/18/427 363/418/418
f 363/418/418 372/18/427 373/18/428 364/419/419
f 364/419/419 373/18/428 374/18/429 365/16/420
f 365/16/420 374/18/429 375/425/430 366/16/421
f 366/420/421 375/426/430 376/427/431 367/421/422
f 367/421/422 376/427/431 377/428/432 368/422/423
f 368/422/423 377/428/432 378/429/433 369/423/424
f 369/423/424 378/429/433 586/430/434 585/424/425
f 370/18/426 379/20/435 381/431/436 372/18/427
f 372/18/427 381/431/436 382/432/437 373/18/428
f 373/18/428 382/432/437 383/433/438 374/18/429
f 374/18/429 383/433/438 384/431/439 375/425/430
f 375/426/430 384/434/439 385/435/440 376/427/431
f 376/427/431 385/435/440 386/436/441 377/428/432
f 377/428/432 386/436/441 387/437/442 378/429/433
f 378/429/433 387/437/442 587/438/443 586/430/434
f 379/20/435 15/22/444 389/439/445 381/431/436
f 381/431/436 389/439/445 390/440/446 382/432/437
f 382/432/437 390/440/446 391/22/447 383/433/438
f 383/433/438 391/22/447 392/22/448 384/431/439
f 384/434/439 392/441/448 393/442/449 385/435/440
f 385/435/440 393/442/449 394/443/450 386/436/441
f 386/436/441 394/443/450 395/444/451 387/437/442
f 387/437/442 395/444/451 588/445/452 587/438/443
f 15/22/444 396/24/453 398/446/454 389/439/445
f 389/439/445 398/446/454 399/24/455 390/440/446
f 390/440/446 399/24/455 400/447/456 391/22/447
f 391/22/447 400/447/456 401/24/457 392/22/448
f 392/441/448 401/448/457 402/449/458 393/442/449
f 393/442/449 402/449/458 403/450/459 394/443/450
f 394/443/450 403/450/459 404/451/460 395/444/451
f 395/444/451 404/451/460 589/452/461 588/445/452
f 396/24/453 405/26/462 407/453/463 398/446/454
f 398/446/454 407/453/463 408/454/464 399/24/455
f 399/24/455 408/454/464 409/455/465 400/447/456
f 400/447/456 409/455/465 410/26/466 401/24/457
f 401/448/457 410/456/466 411/457/467 402/449/458
f 402/449/458 411/457/467 412/458/468 403/450/459
f 403/450/459 412/458/468 413/459/469 404/451/460
f 404/451/460 413/459/469 590/460/470 589/452/461
f 405/26/462 414/461/471 416/28/472 407/453/463
f 407/453/463 416/28/472 417/28/473 408/454/464
f 408/454/464 417/28/473 418/462/474 409/455/465
f 409/455/465 418/462/474 419/462/475 410/26/466
f 410/456/466 419/463/475 420/464/476 411/457/467
f 411/457/467 420/464/476 421/465/477 412/458/468
f 412/458/468 421/465/477 422/466/478 413/459/469
f 413/459/469 422/466/478 591/467/479 590/460/470
f 414/461/471 423/30/480 425/468/481 416/28/472
f 416/28/472 425/468/481 426/469/482 417/28/473
f 417/28/473 426/469/482 427/468/483 418/462/474
f 418/462/474 427/468/483 428/30/484 419/462/475
f 419/463/475 428/470/484 429/471/485 420/464/476
f 420/464/476 429/471/485 430/472/486 421/465/477
f 421/465/477 430/472/486 431/473/487 422/466/478
f 422/466/478 431/473/487 592/474/488 591/467/479
f 423/30/480 21/32/489 433/475/490 425/468/481
f 425/468/481 433/475/490 434/476/491 426/469/482
f 426/469/482 434/476/491 435/477/492 427/468/483
f 427/468/483 435/477/492 436/32/493 428/30/484
f 428/470/484 436/478/493 437/479/494 429/471/485
f 429/471/485 437/479/494 438/480/495 430/472/486
f 430/472/486 438/480/495 439/481/496 431/473/487
f 431/473/487 439/481/496 593/482/497 592/474/488
f 21/32/489 440/34/498 442/34/499 433/475/490
f 433/475/490 442/34/499 443/483/500 434/476/491
f 434/476/491 443/483/500 444/484/501 435/477/492
f 435/477/492 444/484/501 445/485/502 436/32/493
f 436/478/493 445/486/502 446/487/503 437/479/494
f 437/479/494 446/487/503 447/488/504 438/480/495
f 438/480/495 447/488/504 448/489/505 439/481/496
f 439/481/496 448/489/505 594/490/506 593/482/497
f 440/34/498 24/36/507 450/36/508 442/34/499
f 442/34/499 450/36/508 451/491/509 443/483/500
f 443/483/500 451/491/509 452/492/510 444/484/501
f 444/484/501 452/492/510 453/493/511 445/485/502
f 445/486/502 453/494/511 454/495/512 446/487/503
f 446/487/503 454/495/512 455/496/513 447/488/504
f 447/488/504 455/496/513 456/497/514 448/489/505
f 448/489/505 456/497/514 595/498/515 594/490/506
f 24/36/507 26/499/516 458/500/517 450/36/508
f 450/36/508 458/500/517 459/500/518 451/491/509
f 451/491/509 459/500/518 460/501/519 452/492/510
f 452/492/510 460/501/519 461/502/520 453/493/511
f 453/494/511 461/503/520 462/504/521 454/495/512
f 454/495/512 462/504/521 463/505/522 455/496/513
f 455/496/513 463/505/522 464/506/523 456/497/514
f 456/497/514 464/506/523 596/507/524 595/498/515
f 26/499/516 465/508/525 467/509/526 458/500/517
f 458/500/517 467/509/526 468/510/527 459/500/518
f 459/500/518 468/510/527 469/511/528 460/501/519
f 460/501/519 469/511/528 470/512/529 461/502/520
f 461/503/520 470/513/529 471/514/530 462/504/521
f 462/504/521 471/514/530 472/515/531 463/505/522
f 463/505/522 472/515/531 473/516/532 464/506/523
f 464/506/523 473/516/532 597/517/533 596/507/524
f 465/508/525 474/518/534 476/519/535 467/509/526
f 467/509/526 476/519/535 477/520/536 468/510/527
f 468/510/527 477/520/536 478/521/537 469/511/528
f 469/511/528 478/521/537 479/522/538 470/512/529
f 470/513/529 479/523/538 480/524/539 471/514/530
f 471/514/530 480/524/539 481/525/540 472/515/531
f 472/515/531 481/525/540 482/526/541 473/516/532
f 473/516/532 482/526/541 598/527/542 597/517/533
f 474/518/534 30/44/543 484/528/544 476/519/535
f 476/519/535 484/528/544 485/44/545 477/520/536
f 477/520/536 485/44/545 486/529/546 478/521/537
f 478/521/537 486/529/546 487/530/547 479/522/538
f 479/523/538 487/531/547 488/532/548 480/524/539
f 480/524/539 488/532/548 489/533/549 481/525/540
f 481/525/540 489/533/549 490/534/550 482/526/541
f 482/526/541 490/534/550 599/535/551 598/527/542
f 30/44/543 32/46/552 492/536/553 484/528/544
f 484/528/544 492/536/553 493/46/554 485/44/545
f 485/44/545 493/46/554 494/537/555 486/529/546
f 486/529/546 494/537/555 495/538/556 487/530/547
f 487/531/547 495/539/556 496/540/557 488/532/548
f 488/532/548 496/540/557 497/541/558 489/533/549
f 489/533/549 497/541/558 498/542/559 490/534/550
f 490/534/550 498/542/559 600/543/560 599/535/551
f 32/46/552 499/48/561 501/544/562 492/536/553
f 492/536/553 501/544/562 502/48/563 493/46/554
f 493/46/554 502/48/563 503/545/564 494/537/555
f 494/537/555 503/545/564 504/48/565 495/538/556
f 495/539/556 504/546/565 505/547/566 496/540/557
f 496/540/557 505/547/566 506/548/567 497/541/558
f 497/541/558 506/548/567 507/549/568 498/542/559
f 498/542/559 507/549/568 601/550/569 600/543/560
f 499/48/561 35/50/570 509/551/571 501/544/562
f 501/544/562 509/551/571 510/50/572 502/48/563
f 502/48/563 510/50/572 511/552/573 503/545/564
f 503/545/564 511/552/573 512/50/574 504/48/565
f 504/546/565 512/553/574 513/554/575 505/547/566
f 505/547/566 513/554/575 514/555/576 506/548/567
f 506/548/567 514/555/576 515/556/577 507/549/568
f 507/549/568 515/556/577 602/557/578 601/550/569
f 35/50/570 516/558/579 518/52/580 509/551/571
f 509/551/571 518/52/580 519/559/581 510/50/572
f 510/50/572 519/559/581 520/52/582 511/552/573
f 511/552/573 520/52/582 521/560/583 512/50/574
f 512/553/574 521/561/583 522/562/584 513/554/575
f 513/554/575 522/562/584 523/563/585 514/555/576
f 514/555/576 523/563/585 524/564/586 515/556/577
f 515/556/577 524/564/586 603/565/587 602/557/578
f 516/558/579 38/54/588 526/54/589 518/52/580
f 518/52/580 526/54/589 527/566/590 519/559/581
f 519/559/581 527/566/590 528/54/591 520/52/582
f 520/52/582 528/54/591 529/54/592 521/560/583
f 521/561/583 529/567/592 530/568/593 522/562/584
f 522/562/584 530/568/593 531/569/594 523/563/585
f 523/563/585 531/569/594 532/570/595 524/564/586
f 524/564/586 532/570/595 604/571/596 603/565/587
f 38/54/588 533/56/597 535/56/598 526/54/589
f 526/54/589 535/56/598 536/56/599 527/566/590
f 527/566/590 536/56/599 537/56/600 528/54/591
f 528/54/591 537/56/600 538/572/601 529/54/592
f 529/567/592 538/573/601 539/574/602 530/568/593
f 530/568/593 539/574/602 540/575/603 531/569/594
f 531/569/594 540/575/603 541/576/604 532/570/595
f 532/570/595 541/576/604 605/577/605 604/571/596
f 533/56/597 542/58/606 544/578/607 535/56/598
f 535/56/598 544/578/607 545/579/608 536/56/599
f 536/56/599 545/579/608 546/58/609 537/56/600
f 537/56/600 546/58/609 547/580/610 538/572/601
f 538/573/601 547/581/610 548/582/611 539/574/602
f 539/574/602 548/582/611 549/583/612 540/575/603
f 540/575/603 549/583/612 550/584/613 541/576/604
f 541/576/604 550/584/613 606/585/614 605/577/605
f 542/58/606 551/586/615 553/587/616 544/578/607
f 544/578/607 553/587/616 554/60/617 545/579/608
f 545/579/608 554/60/617 555/588/618 546/58/609
f 546/58/609 555/588/618 556/587/619 547/580/610
f 547/581/610 556/589/619 557/590/620 548/582/611
f 548/582/611 557/590/620 558/591/621 549/583/612
f 549/583/612 558/591/621 559/592/622 550/584/613
f 550/584/613 559/592/622 607/593/623 606/585/614
f 551/586/615 560/62/624 562/594/625 553/587/616
f 553/587/616 562/594/625 563/595/626 554/60/617
f 554/60/617 563/595/626 564/594/627 555/588/618
f 555/588/618 564/594/627 565/62/628 556/587/619
f 556/589/619 565/596/628 566/597/629 557/590/620
f 557/590/620 566/597/629 567/598/630 558/591/621
f 558/591/621 567/598/630 568/599/631 559/592/622
f 559/592/622 568/599/631 608/600/632 607/593/623
f 560/62/624 569/64/633 571/601/634 562/594/625
f 562/594/625 571/601/634 572/602/635 563/595/626
f 563/595/626 572/602/635 573/603/636 564/594/627
f 564/594/627 573/603/636 574/604/637 565/62/628
f 565/596/628 574/605/637 575/606/638 566/597/629
f 566/597/629 575/606/638 576/607/639 567/598/630
f 567/598/630 576/607/639 577/608/640 568/599/631
f 568/599/631 577/608/640 609/609/641 608/600/632
f 569/64/633 1/66/354 309/610/357 571/601/634
f 571/601/634 309/610/357 308/611/359 572/602/635
f 572/602/635 308/611/359 307/612/361 573/603/636
f 573/603/636 307/612/361 306/613/363 574/604/637
f 574/605/637 306/362/363 305/365/365 575/606/638
f 575/606/638 305/365/365 304/367/367 576/607/639
f 576/607/639 304/367/367 303/369/369 577/608/640
f 577/608/640 303/369/369 579/371/371 609/609/641
f 491/614/23 500/615/24 698/615/24 697/614/23
f 311/616/642 302/617/642 579/371/642 578/370/642
f 319/618/642 311/616/642 578/370/642 580/380/642
f 327/619/642 319/618/642 580/380/642 581/390/642
f 336/620/642 327/619/642 581/390/642 582/399/642
f 345/621/642 336/620/642 582/399/642 583/407/642
f 354/622/642 345/621/642 583/407/642 584/416/642
f 362/623/642 354/622/642 584/416/642 585/424/642
f 371/624/642 362/623/642 585/424/642 586/430/642
f 380/625/642 371/624/642 586/430/642 587/438/642
f 388/626/642 380/625/642 587/438/642 588/445/642
f 397/627/642 388/626/642 588/445/642 589/452/642
f 406/628/642 397/627/642 589/452/642 590/460/642
f 415/629/642 406/628/642 590/460/642 591/467/642
f 424/630/642 415/629/642 591/467/642 592/474/642
f 432/631/642 424/630/642 592/474/642 593/482/642
f 441/632/642 432/631/642 593/482/642 594/490/642
f 449/633/642 441/632/642 594/490/642 595/498/642
f 457/634/642 449/633/642 595/498/642 596/507/642
f 466/635/642 457/634/642 596/507/642 597/517/642
f 475/636/642 466/635/642 597/517/642 598/527/642
f 483/637/642 475/636/642 598/527/642 599/535/642
f 491/614/642 483/637/642 599/535/642 600/543/642
f 500/615/642 491/614/642 600/543/642 601/550/642
f 508/638/642 500/615/642 601/550/642 602/557/642
f 517/639/642 508/638/642 602/557/642 603/565/642
f 525/640/642 517/639/642 603/565/642 604/571/642
f 534/641/642 525/640/642 604/571/642 605/577/642
f 543/642/642 534/641/642 605/577/642 606/585/642
f 552/643/642 543/642/642 606/585/642 607/593/642
f 561/644/642 552/643/642 607/593/642 608/600/642
f 570/645/642 561/644/642 608/600/642 609/609/642
f 302/617/642 570/645/642 609/609/642 579/371/642
f 380/625/10 388/626/11 685/626/11 684/625/10
f 500/615/24 508/638/25 699/638/25 698/615/24
f 388/626/11 397/627/12 686/627/12 685/626/11
f 508/638/25 517/639/26 700/639/26 699/638/25
f 397/627/12 406/628/13 687/628/13 686/627/12
f 517/639/26 525/640/27 701/640/27 700/639/26
f 406/628/13 415/629/14 688/629/14 687/628/13
f 525/640/27 534/641/28 702/641/28 701/640/27
f 415/629/14 424/630/15 689/630/15 688/629/14
f 302/617/1 311/616/2 675/616/2 676/617/1
f 534/641/28 543/642/29 703/642/29 702/641/28
f 424/630/15 432/631/16 690/631/16 689/630/15
f 311/616/2 319/618/3 677/618/3 675/616/2
f 543/642/29 552/643/30 704/643/30 703/642/29
f 432/631/16 441/632/17 691/632/17 690/631/16
f 319/618/3 327/619/4 678/619/4 677/618/3
f 552/643/30 561/644/31 705/644/31 704/643/30
f 441/632/17 449/633/18 692/633/18 691/632/17
f 327/619/4 336/620/5 679/620/5 678/619/4
f 561/644/31 570/645/32 706/645/32 705/644/31
f 449/633/18 457/634/19 693/634/19 692/633/18
f 336/620/5 345/621/6 680/621/6 679/620/5
f 570/645/32 302/617/1 676/617/1 706/645/32
f 457/634/19 466/635/20 694/635/20 693/634/19
f 345/621/6 354/622/7 681/622/7 680/621/6
f 466/635/20 475/636/21 695/636/21 694/635/20
f 354/622/7 362/623/8 682/623/8 681/622/7
f 475/636/21 483/637/22 696/637/22 695/636/21
f 362/623/8 371/624/9 683/624/9 682/623/8
f 483/637/22 491/614/23 697/614/23 696/637/22
f 371/624/9 380/625/10 684/625/10 683/624/9
f 52/81/47 295/347/320 642/646/643 612/647/644
f 295/347/320 287/337/311 641/648/645 642/646/643
f 287/337/311 279/328/302 640/649/646 641/648/645
f 279/328/302 271/318/293 639/650/647 640/649/646
f 271/318/293 263/309/284 638/651/648 639/650/647
f 263/309/284 255/300/275 637/652/649 638/651/648
f 255/300/275 247/290/266 636/653/650 637/652/649
f 247/290/266 239/282/257 635/654/651 636/653/650
f 239/282/257 231/273/248 634/655/652 635/654/651
f 231/273/248 222/265/239 633/656/653 634/655/652
f 222/265/239 214/257/230 632/657/654 633/656/653
f 214/257/230 206/248/221 631/658/655 632/657/654
f 206/248/221 198/239/212 630/659/656 631/658/655
f 198/239/212 190/230/203 629/660/657 630/659/656
f 190/230/203 182/219/194 628/661/658 629/660/657
f 182/219/194 174/209/185 627/662/659 628/661/658
f 174/209/185 166/201/176 626/663/660 627/662/659
f 166/201/176 158/194/167 625/664/661 626/663/660
f 158/194/167 150/187/158 624/665/662 625/664/661
f 150/187/158 142/178/149 623/666/663 624/665/662
f 142/178/149 134/168/140 622/667/664 623/666/663
f 134/168/140 126/160/131 621/668/665 622/667/664
f 126/160/131 118/151/122 620/669/666 621/668/665
f 118/151/122 110/144/113 619/670/667 620/669/666
f 110/144/113 102/136/104 618/671/668 619/670/667
f 102/136/104 94/126/95 617/672/669 618/671/668
f 94/126/95 86/119/86 616/673/670 617/672/669
f 86/119/86 78/109/77 615/674/671 616/673/670
f 78/109/77 70/100/68 614/675/672 615/674/671
f 70/100/68 62/92/59 613/676/673 614/675/672
f 62/92/59 54/82/48 611/677/674 613/676/673
f 54/82/48 52/81/47 612/647/644 611/677/674
f 612/647/644 642/646/643 674/348/321 643/84/50
f 642/646/643 641/648/645 673/338/312 674/348/321
f 641/648/645 640/649/646 672/329/303 673/338/312
f 640/649/646 639/650/647 671/319/294 672/329/303
f 639/650/647 638/651/648 670/310/285 671/319/294
f 638/651/648 637/652/649 669/301/276 670/310/285
f 637/652/649 636/653/650 668/291/267 669/301/276
f 636/653/650 635/654/651 667/283/258 668/291/267
f 635/654/651 634/655/652 666/274/249 667/283/258
f 634/655/652 633/656/653 665/266/240 666/274/249
f 633/656/653 632/657/654 664/258/231 665/266/240
f 632/657/654 631/658/655 663/249/222 664/258/231
f 631/658/655 630/659/656 662/240/213 663/249/222
f 630/659/656 629/660/657 661/231/204 662/240/213
f 629/660/657 628/661/658 660/220/195 661/231/204
f 628/661/658 627/662/659 659/210/186 660/220/195
f 627/662/659 626/663/660 658/202/177 659/210/186
f 626/663/660 625/664/661 657/195/168 658/202/177
f 625/664/661 624/665/662 656/188/159 657/195/168
f 624/665/662 623/666/663 655/179/150 656/188/159
f 623/666/663 622/667/664 654/169/141 655/179/150
f 622/667/664 621/668/665 653/161/132 654/169/141
f 621/668/665 620/669/666 652/152/123 653/161/132
f 620/669/666 619/670/667 651/145/114 652/152/123
f 619/670/667 618/671/668 650/137/105 651/145/114
f 618/671/668 617/672/669 649/127/96 650/137/105
f 617/672/669 616/673/670 648/120/87 649/127/96
f 616/673/670 615/674/671 647/110/78 648/120/87
f 615/674/671 614/675/672 646/101/69 647/110/78
f 614/675/672 613/676/673 645/93/60 646/101/69
f 613/676/673 611/677/674 644/83/49 645/93/60
f 611/677/674 612/647/644 643/84/50 644/83/49
f 610/678/642 676/617/642 675/616/642
f 610/679/642 675/616/642 677/618/642
f 610/680/642 677/618/642 678/619/642
f 610/681/642 678/619/642 679/620/642
f 610/682/642 679/620/642 680/621/642
f 610/683/642 680/621/642 681/622/642
f 610/684/642 681/622/642 682/623/642
f 610/685/642 682/623/642 683/624/642
f 610/686/642 683/624/642 684/625/642
f 610/687/642 684/625/642 685/626/642
f 610/688/642 685/626/642 686/627/642
f 610/689/642 686/627/642 687/628/642
f 610/690/642 687/628/642 688/629/642
f 610/691/642 688/629/642 689/630/642
f 610/692/642 689/630/642 690/631/642
f 610/693/642 690/631/642 691/632/642
f 610/694/642 691/632/642 692/633/642
f 610/695/642 692/633/642 693/634/642
f 610/696/642 693/634/642 694/635/642
f 610/697/642 694/635/642 695/636/642
f 610/698/642 695/636/642 696/637/642
f 610/699/642 696/637/642 697/614/642
f 610/700/642 697/614/642 698/615/642
f 610/701/642 698/615/642 699/638/642
f 610/702/642 699/638/642 700/639/642
f 610/703/642 700/639/642 701/640/642
f 610/704/642 701/640/642 702/641/642
f 610/705/642 702/641/642 703/642/642
f 610/706/642 703/642/642 704/643/642
f 610/707/642 704/643/642 705/644/642
f 610/708/642 705/644/642 706/645/642
f 610/709/642 706/645/642 676/617/642
