# Blender 4.5.1 LTS
# www.blender.org
o APCR
v -0.000000 0.080000 -0.050386
v 0.009830 0.080000 -0.049418
v 0.019282 0.080000 -0.046550
v 0.027993 0.080000 -0.041894
v 0.035628 0.080000 -0.035628
v 0.041894 0.080000 -0.027993
v 0.046550 0.080000 -0.019282
v 0.049417 0.080000 -0.009830
v 0.050386 0.080000 0.000000
v 0.049417 0.080000 0.009830
v 0.046550 0.080000 0.019282
v 0.041894 0.080000 0.027993
v 0.035628 0.080000 0.035628
v 0.027993 0.080000 0.041894
v 0.019282 0.080000 0.046550
v 0.009830 0.080000 0.049418
v -0.000000 0.080000 0.050386
v -0.019509 0.020000 0.098079
v -0.009830 0.080000 0.049418
v -0.019282 0.080000 0.046550
v -0.027993 0.080000 0.041894
v -0.035628 0.080000 0.035628
v -0.041894 0.080000 0.027993
v -0.046550 0.080000 0.019282
v -0.049418 0.080000 0.009830
v -0.050386 0.080000 0.000000
v -0.049418 0.080000 -0.009830
v -0.046550 0.080000 -0.019282
v -0.041894 0.080000 -0.027993
v -0.035628 0.080000 -0.035628
v -0.027993 0.080000 -0.041894
v -0.019282 0.080000 -0.046550
v -0.009830 0.080000 -0.049418
v 0.019509 0.080000 -0.098079
v -0.000000 0.080000 -0.100000
v 0.038268 0.080000 -0.092388
v 0.055557 0.080000 -0.083147
v 0.070711 0.080000 -0.070711
v 0.083147 0.080000 -0.055557
v 0.092388 0.080000 -0.038268
v 0.098078 0.080000 -0.019509
v 0.100000 0.080000 0.000000
v 0.098078 0.080000 0.019509
v 0.092388 0.080000 0.038268
v 0.083147 0.080000 0.055557
v 0.070711 0.080000 0.070711
v 0.055557 0.080000 0.083147
v 0.038268 0.080000 0.092388
v 0.019509 0.080000 0.098079
v -0.000000 0.080000 0.100000
v -0.019509 0.080000 0.098079
v -0.038268 0.080000 0.092388
v -0.055557 0.080000 0.083147
v -0.070711 0.080000 0.070711
v -0.083147 0.080000 0.055557
v -0.092388 0.080000 0.038268
v -0.098079 0.080000 0.019509
v -0.100000 0.080000 0.000000
v -0.098079 0.080000 -0.019509
v -0.092388 0.080000 -0.038268
v -0.083147 0.080000 -0.055557
v -0.070711 0.080000 -0.070711
v -0.055557 0.080000 -0.083147
v -0.038268 0.080000 -0.092388
v -0.019509 0.080000 -0.098079
v -0.000000 0.182000 -0.050386
v 0.009830 0.182000 -0.049418
v 0.019282 0.182000 -0.046550
v 0.027993 0.182000 -0.041894
v 0.035628 0.182000 -0.035628
v 0.041894 0.182000 -0.027993
v 0.046550 0.182000 -0.019282
v 0.049417 0.182000 -0.009830
v 0.050386 0.182000 0.000000
v 0.049417 0.182000 0.009830
v 0.046550 0.182000 0.019282
v 0.041894 0.182000 0.027993
v 0.035628 0.182000 0.035628
v 0.027993 0.182000 0.041894
v 0.019282 0.182000 0.046550
v 0.009830 0.182000 0.049418
v -0.000000 0.182000 0.050386
v -0.009830 0.182000 0.049418
v -0.019282 0.182000 0.046550
v -0.027993 0.182000 0.041894
v -0.035628 0.182000 0.035628
v -0.041894 0.182000 0.027993
v -0.046550 0.182000 0.019282
v -0.049418 0.182000 0.009830
v -0.050386 0.182000 0.000000
v -0.049418 0.182000 -0.009830
v -0.046550 0.182000 -0.019282
v -0.041894 0.182000 -0.027993
v -0.035628 0.182000 -0.035628
v -0.027993 0.182000 -0.041894
v -0.019282 0.182000 -0.046550
v -0.009830 0.182000 -0.049418
v -0.000000 0.200000 -0.099946
v 0.038248 0.200000 -0.092338
v 0.070672 0.200000 -0.070673
v 0.083102 0.200000 0.055527
v 0.070672 0.200000 0.070673
v 0.055527 0.200000 0.083102
v 0.038248 0.200000 0.092338
v -0.000000 0.200000 0.099946
v -0.038248 0.200000 0.092338
v -0.055527 0.200000 0.083102
v -0.092339 0.200000 0.038248
v -0.098026 0.200000 0.019499
v -0.070673 0.200000 -0.070673
v -0.055527 0.200000 -0.083102
v -0.038248 0.200000 -0.092338
v -0.000000 0.210000 -0.099946
v 0.019498 0.210000 -0.098026
v 0.038248 0.210000 -0.092338
v 0.055527 0.210000 -0.083102
v 0.070672 0.210000 -0.070673
v 0.083102 0.210000 -0.055527
v 0.092338 0.210000 -0.038248
v 0.098026 0.210000 -0.019499
v 0.099946 0.210000 0.000000
v 0.098026 0.210000 0.019499
v 0.092338 0.210000 0.038248
v 0.083102 0.210000 0.055527
v 0.070672 0.210000 0.070673
v 0.055527 0.210000 0.083102
v 0.038248 0.210000 0.092338
v 0.019498 0.210000 0.098026
v -0.000000 0.210000 0.099946
v -0.019499 0.210000 0.098026
v -0.038248 0.210000 0.092338
v -0.055527 0.210000 0.083102
v -0.070673 0.210000 0.070673
v -0.083103 0.210000 0.055527
v -0.092339 0.210000 0.038248
v -0.098026 0.210000 0.019499
v -0.099947 0.210000 0.000000
v -0.098026 0.210000 -0.019499
v -0.092339 0.210000 -0.038248
v -0.083103 0.210000 -0.055527
v -0.070673 0.210000 -0.070673
v -0.055527 0.210000 -0.083102
v -0.038248 0.210000 -0.092338
v -0.019499 0.210000 -0.098026
v -0.000000 0.460000 0.000000
v -0.000000 0.182000 -0.051318
v -0.000000 0.183370 -0.057529
v -0.000000 0.187272 -0.077360
v -0.000000 0.193112 -0.094784
v 0.019498 0.200000 -0.098026
v 0.010011 0.182000 -0.050332
v 0.018491 0.193112 -0.092963
v 0.015092 0.187272 -0.075873
v 0.011223 0.183370 -0.056423
v 0.019638 0.182000 -0.047411
v 0.036272 0.193112 -0.087569
v 0.029604 0.187272 -0.071471
v 0.022015 0.183370 -0.053150
v 0.055527 0.200000 -0.083102
v 0.028510 0.182000 -0.042669
v 0.052659 0.193112 -0.078810
v 0.042979 0.187272 -0.064322
v 0.031961 0.183370 -0.047833
v 0.036287 0.182000 -0.036287
v 0.067022 0.193112 -0.067022
v 0.054701 0.187272 -0.054702
v 0.040679 0.183370 -0.040679
v 0.083102 0.200000 -0.055527
v 0.042669 0.182000 -0.028511
v 0.078810 0.193112 -0.052659
v 0.064322 0.187272 -0.042979
v 0.047833 0.183370 -0.031961
v 0.092338 0.200000 -0.038248
v 0.047411 0.182000 -0.019638
v 0.087569 0.193112 -0.036272
v 0.071471 0.187272 -0.029604
v 0.053149 0.183370 -0.022015
v 0.098026 0.200000 -0.019499
v 0.050332 0.182000 -0.010012
v 0.092962 0.193112 -0.018491
v 0.075873 0.187272 -0.015092
v 0.056423 0.183370 -0.011223
v 0.099946 0.200000 0.000000
v 0.051318 0.182000 0.000000
v 0.094784 0.193112 0.000000
v 0.077359 0.187272 0.000000
v 0.057529 0.183370 0.000000
v 0.098026 0.200000 0.019499
v 0.050332 0.182000 0.010012
v 0.092962 0.193112 0.018491
v 0.075873 0.187272 0.015092
v 0.056423 0.183370 0.011223
v 0.092338 0.200000 0.038248
v 0.047411 0.182000 0.019638
v 0.087569 0.193112 0.036272
v 0.071471 0.187272 0.029604
v 0.053149 0.183370 0.022015
v 0.042669 0.182000 0.028511
v 0.078810 0.193112 0.052659
v 0.064322 0.187272 0.042979
v 0.047833 0.183370 0.031961
v 0.036287 0.182000 0.036287
v 0.067022 0.193112 0.067022
v 0.054701 0.187272 0.054702
v 0.040679 0.183370 0.040679
v 0.028510 0.182000 0.042669
v 0.052659 0.193112 0.078810
v 0.042979 0.187272 0.064322
v 0.031961 0.183370 0.047833
v 0.019638 0.182000 0.047411
v 0.036272 0.193112 0.087569
v 0.029604 0.187272 0.071471
v 0.022015 0.183370 0.053150
v 0.019498 0.200000 0.098026
v 0.010011 0.182000 0.050332
v 0.018491 0.193112 0.092963
v 0.015092 0.187272 0.075873
v 0.011223 0.183370 0.056423
v -0.000000 0.182000 0.051318
v -0.000000 0.193112 0.094784
v -0.000000 0.187272 0.077360
v -0.000000 0.183370 0.057529
v -0.019499 0.200000 0.098026
v -0.010012 0.182000 0.050332
v -0.018492 0.193112 0.092963
v -0.015092 0.187272 0.075873
v -0.011224 0.183370 0.056423
v -0.019639 0.182000 0.047411
v -0.036272 0.193112 0.087569
v -0.029605 0.187272 0.071471
v -0.022016 0.183370 0.053150
v -0.028511 0.182000 0.042669
v -0.052659 0.193112 0.078810
v -0.042979 0.187272 0.064322
v -0.031962 0.183370 0.047833
v -0.070673 0.200000 0.070673
v -0.036287 0.182000 0.036287
v -0.067023 0.193112 0.067022
v -0.054702 0.187272 0.054702
v -0.040679 0.183370 0.040679
v -0.083103 0.200000 0.055527
v -0.042669 0.182000 0.028511
v -0.078810 0.193112 0.052659
v -0.064322 0.187272 0.042979
v -0.047834 0.183370 0.031961
v -0.047412 0.182000 0.019638
v -0.087569 0.193112 0.036272
v -0.071471 0.187272 0.029604
v -0.053150 0.183370 0.022015
v -0.050332 0.182000 0.010012
v -0.092963 0.193112 0.018491
v -0.075873 0.187272 0.015092
v -0.056424 0.183370 0.011223
v -0.099947 0.200000 0.000000
v -0.051318 0.182000 0.000000
v -0.094784 0.193112 0.000000
v -0.077360 0.187272 0.000000
v -0.057529 0.183370 0.000000
v -0.098026 0.200000 -0.019499
v -0.050332 0.182000 -0.010012
v -0.092963 0.193112 -0.018491
v -0.075873 0.187272 -0.015092
v -0.056424 0.183370 -0.011223
v -0.092339 0.200000 -0.038248
v -0.047412 0.182000 -0.019638
v -0.087569 0.193112 -0.036272
v -0.071471 0.187272 -0.029604
v -0.053150 0.183370 -0.022015
v -0.083103 0.200000 -0.055527
v -0.042669 0.182000 -0.028511
v -0.078810 0.193112 -0.052659
v -0.064322 0.187272 -0.042979
v -0.047834 0.183370 -0.031961
v -0.036287 0.182000 -0.036287
v -0.067023 0.193112 -0.067022
v -0.054702 0.187272 -0.054702
v -0.040679 0.183370 -0.040679
v -0.028511 0.182000 -0.042669
v -0.052659 0.193112 -0.078810
v -0.042979 0.187272 -0.064322
v -0.031962 0.183370 -0.047833
v -0.019639 0.182000 -0.047411
v -0.036272 0.193112 -0.087569
v -0.029605 0.187272 -0.071471
v -0.022016 0.183370 -0.053150
v -0.019499 0.200000 -0.098026
v -0.010012 0.182000 -0.050332
v -0.018492 0.193112 -0.092963
v -0.015092 0.187272 -0.075873
v -0.011224 0.183370 -0.056423
v -0.000635 0.000000 -0.003189
v -0.019509 0.020000 -0.098079
v -0.006943 0.001522 -0.034904
v -0.013571 0.005858 -0.068223
v -0.018243 0.012346 -0.091714
v -0.001244 0.000000 -0.003004
v -0.038268 0.020000 -0.092388
v -0.013619 0.001522 -0.032879
v -0.026620 0.005858 -0.064265
v -0.035785 0.012346 -0.086392
v -0.055557 0.020000 -0.083147
v -0.001807 0.000000 -0.002704
v -0.051952 0.012346 -0.077751
v -0.038646 0.005858 -0.057837
v -0.019772 0.001522 -0.029590
v -0.002299 0.000000 -0.002299
v -0.070711 0.020000 -0.070711
v -0.025165 0.001522 -0.025165
v -0.049186 0.005858 -0.049186
v -0.066122 0.012346 -0.066122
v -0.002704 0.000000 -0.001806
v -0.083147 0.020000 -0.055557
v -0.029590 0.001522 -0.019772
v -0.057837 0.005858 -0.038646
v -0.077751 0.012346 -0.051952
v -0.003004 0.000000 -0.001244
v -0.092388 0.020000 -0.038268
v -0.032879 0.001522 -0.013619
v -0.064265 0.005858 -0.026619
v -0.086392 0.012346 -0.035785
v -0.003189 0.000000 -0.000634
v -0.098079 0.020000 -0.019509
v -0.034904 0.001522 -0.006943
v -0.068224 0.005858 -0.013570
v -0.091714 0.012346 -0.018243
v -0.003252 0.000000 -0.000000
v -0.100000 0.020000 0.000000
v -0.035588 0.001522 0.000000
v -0.069560 0.005858 0.000000
v -0.093510 0.012346 -0.000000
v -0.003189 0.000000 0.000634
v -0.098079 0.020000 0.019509
v -0.034904 0.001522 0.006943
v -0.068224 0.005858 0.013570
v -0.091714 0.012346 0.018243
v -0.003004 0.000000 0.001244
v -0.092388 0.020000 0.038268
v -0.032879 0.001522 0.013619
v -0.064265 0.005858 0.026619
v -0.086392 0.012346 0.035785
v -0.002704 0.000000 0.001806
v -0.083147 0.020000 0.055557
v -0.029590 0.001522 0.019772
v -0.057837 0.005858 0.038646
v -0.077751 0.012346 0.051952
v -0.002299 0.000000 0.002299
v -0.070711 0.020000 0.070711
v -0.025165 0.001522 0.025165
v -0.049186 0.005858 0.049186
v -0.066122 0.012346 0.066122
v -0.001807 0.000000 0.002704
v -0.055557 0.020000 0.083147
v -0.019772 0.001522 0.029590
v -0.038646 0.005858 0.057837
v -0.051952 0.012346 0.077751
v -0.001244 0.000000 0.003004
v -0.038268 0.020000 0.092388
v -0.013619 0.001522 0.032879
v -0.026620 0.005858 0.064265
v -0.035785 0.012346 0.086392
v -0.000635 0.000000 0.003189
v -0.006943 0.001522 0.034904
v -0.013571 0.005858 0.068223
v -0.018243 0.012346 0.091714
v -0.000000 0.000000 0.003252
v -0.000000 0.020000 0.100000
v -0.000000 0.001522 0.035588
v -0.000000 0.005858 0.069560
v -0.000000 0.012346 0.093510
v 0.000634 0.000000 0.003189
v 0.019509 0.020000 0.098079
v 0.006943 0.001522 0.034904
v 0.013570 0.005858 0.068223
v 0.018243 0.012346 0.091714
v 0.001244 0.000000 0.003004
v 0.038268 0.020000 0.092388
v 0.013619 0.001522 0.032879
v 0.026619 0.005858 0.064265
v 0.035785 0.012346 0.086392
v 0.001806 0.000000 0.002704
v 0.055557 0.020000 0.083147
v 0.019772 0.001522 0.029590
v 0.038645 0.005858 0.057837
v 0.051951 0.012346 0.077751
v 0.002299 0.000000 0.002299
v 0.070711 0.020000 0.070711
v 0.025165 0.001522 0.025165
v 0.049186 0.005858 0.049186
v 0.066122 0.012346 0.066122
v 0.002703 0.000000 0.001806
v 0.083147 0.020000 0.055557
v 0.029590 0.001522 0.019772
v 0.057837 0.005858 0.038646
v 0.077751 0.012346 0.051952
v 0.003004 0.000000 0.001244
v 0.092388 0.020000 0.038268
v 0.032879 0.001522 0.013619
v 0.064265 0.005858 0.026619
v 0.086392 0.012346 0.035785
v 0.003189 0.000000 0.000634
v 0.098078 0.020000 0.019509
v 0.034904 0.001522 0.006943
v 0.068223 0.005858 0.013570
v 0.091713 0.012346 0.018243
v 0.003251 0.000000 -0.000000
v 0.100000 0.020000 0.000000
v 0.035588 0.001522 0.000000
v 0.069560 0.005858 0.000000
v 0.093510 0.012346 -0.000000
v 0.003189 0.000000 -0.000634
v 0.098078 0.020000 -0.019509
v 0.034904 0.001522 -0.006943
v 0.068223 0.005858 -0.013570
v 0.091713 0.012346 -0.018243
v 0.003004 0.000000 -0.001244
v 0.092388 0.020000 -0.038268
v 0.032879 0.001522 -0.013619
v 0.064265 0.005858 -0.026619
v 0.086392 0.012346 -0.035785
v 0.002703 0.000000 -0.001806
v 0.083147 0.020000 -0.055557
v 0.029590 0.001522 -0.019772
v 0.057837 0.005858 -0.038646
v 0.077751 0.012346 -0.051952
v 0.002299 0.000000 -0.002299
v 0.070711 0.020000 -0.070711
v 0.025165 0.001522 -0.025165
v 0.049186 0.005858 -0.049186
v 0.066122 0.012346 -0.066122
v 0.001806 0.000000 -0.002704
v 0.055557 0.020000 -0.083147
v 0.019772 0.001522 -0.029590
v 0.038645 0.005858 -0.057837
v 0.051951 0.012346 -0.077751
v 0.038268 0.020000 -0.092388
v 0.001244 0.000000 -0.003004
v 0.035785 0.012346 -0.086392
v 0.026619 0.005858 -0.064265
v 0.013619 0.001522 -0.032879
v 0.000634 0.000000 -0.003189
v 0.019509 0.020000 -0.098079
v 0.006943 0.001522 -0.034904
v 0.013570 0.005858 -0.068223
v 0.018243 0.012346 -0.091714
v -0.000000 0.000000 -0.003252
v -0.000000 0.020000 -0.100000
v -0.000000 0.001522 -0.035588
v -0.000000 0.005858 -0.069560
v -0.000000 0.012346 -0.093510
vn -0.0000 -0.0000 -1.0000
vn 0.1951 -0.0000 -0.9808
vn 0.3827 -0.0000 -0.9239
vn 0.5556 -0.0000 -0.8315
vn 0.7071 -0.0000 -0.7071
vn 0.8315 -0.0000 -0.5556
vn 0.9239 -0.0000 -0.3827
vn 0.9808 -0.0000 -0.1951
vn 1.0000 -0.0000 -0.0000
vn 0.9808 -0.0000 0.1951
vn 0.9239 -0.0000 0.3827
vn 0.8315 -0.0000 0.5556
vn 0.7071 -0.0000 0.7071
vn 0.5556 -0.0000 0.8315
vn 0.3827 -0.0000 0.9239
vn 0.1951 -0.0000 0.9808
vn -0.0000 -0.0000 1.0000
vn -0.1951 -0.0000 0.9808
vn -0.3827 -0.0000 0.9239
vn -0.5556 -0.0000 0.8315
vn -0.7071 -0.0000 0.7071
vn -0.8315 -0.0000 0.5556
vn -0.9239 -0.0000 0.3827
vn -0.9808 -0.0000 0.1951
vn -1.0000 -0.0000 -0.0000
vn -0.9808 -0.0000 -0.1951
vn -0.9239 -0.0000 -0.3827
vn -0.8315 -0.0000 -0.5556
vn -0.7071 -0.0000 -0.7071
vn -0.5556 -0.0000 -0.8315
vn -0.3827 -0.0000 -0.9239
vn -0.1951 -0.0000 -0.9808
vn -0.0000 1.0000 -0.0000
vn -0.7721 0.3712 0.5159
vn -0.6566 0.3712 0.6566
vn 0.9285 0.3712 -0.0000
vn 0.9107 0.3712 -0.1812
vn -0.8579 0.3712 0.3553
vn 0.9107 0.3712 0.1812
vn -0.9107 0.3712 0.1812
vn 0.8579 0.3712 0.3553
vn -0.9285 0.3712 -0.0000
vn 0.7721 0.3712 0.5159
vn -0.9107 0.3712 -0.1812
vn 0.6566 0.3712 0.6566
vn -0.8579 0.3712 -0.3553
vn 0.5159 0.3712 0.7721
vn -0.7721 0.3712 -0.5159
vn 0.3553 0.3712 0.8579
vn 0.1812 0.3712 -0.9107
vn -0.0000 0.3712 -0.9285
vn -0.6566 0.3712 -0.6566
vn 0.1812 0.3712 0.9107
vn 0.3553 0.3712 -0.8579
vn -0.5159 0.3712 -0.7721
vn -0.0000 0.3712 0.9285
vn 0.5159 0.3712 -0.7721
vn -0.3553 0.3712 -0.8579
vn -0.1812 0.3712 0.9107
vn 0.6566 0.3712 -0.6566
vn -0.1812 0.3712 -0.9107
vn -0.3553 0.3712 0.8579
vn 0.7721 0.3712 -0.5159
vn -0.5159 0.3712 0.7721
vn 0.8579 0.3712 -0.3553
vn 0.0224 -0.9934 -0.1128
vn -0.0000 -0.9934 -0.1150
vn -0.0000 -0.9791 -0.2036
vn 0.0397 -0.9791 -0.1997
vn -0.0000 -0.9657 -0.2597
vn 0.0507 -0.9657 -0.2547
vn -0.0000 -0.9482 -0.3178
vn 0.0620 -0.9482 -0.3117
vn 0.1561 -0.5997 -0.7848
vn -0.0000 -0.5997 -0.8002
vn 0.0440 -0.9934 -0.1063
vn 0.0779 -0.9791 -0.1881
vn 0.0994 -0.9657 -0.2399
vn 0.1216 -0.9482 -0.2936
vn 0.3062 -0.5997 -0.7393
vn 0.0639 -0.9934 -0.0956
vn 0.1131 -0.9791 -0.1693
vn 0.1443 -0.9657 -0.2159
vn 0.1765 -0.9482 -0.2642
vn 0.4446 -0.5997 -0.6653
vn 0.0813 -0.9934 -0.0813
vn 0.1439 -0.9791 -0.1439
vn 0.1836 -0.9657 -0.1836
vn 0.2247 -0.9482 -0.2247
vn 0.5658 -0.5997 -0.5658
vn 0.0956 -0.9934 -0.0639
vn 0.1693 -0.9791 -0.1131
vn 0.2159 -0.9657 -0.1443
vn 0.2642 -0.9482 -0.1765
vn 0.6653 -0.5997 -0.4446
vn 0.1063 -0.9934 -0.0440
vn 0.1881 -0.9791 -0.0779
vn 0.2399 -0.9657 -0.0994
vn 0.2936 -0.9482 -0.1216
vn 0.7393 -0.5997 -0.3062
vn 0.1128 -0.9934 -0.0224
vn 0.1997 -0.9791 -0.0397
vn 0.2547 -0.9657 -0.0507
vn 0.3117 -0.9482 -0.0620
vn 0.7848 -0.5997 -0.1561
vn 0.1150 -0.9934 -0.0000
vn 0.2036 -0.9791 -0.0000
vn 0.2597 -0.9657 -0.0000
vn 0.3178 -0.9482 -0.0000
vn 0.8002 -0.5997 -0.0000
vn 0.1128 -0.9934 0.0224
vn 0.1997 -0.9791 0.0397
vn 0.2547 -0.9657 0.0507
vn 0.3117 -0.9482 0.0620
vn 0.7848 -0.5997 0.1561
vn 0.1063 -0.9934 0.0440
vn 0.1881 -0.9791 0.0779
vn 0.2399 -0.9657 0.0994
vn 0.2936 -0.9482 0.1216
vn 0.7393 -0.5997 0.3062
vn 0.0956 -0.9934 0.0639
vn 0.1693 -0.9791 0.1131
vn 0.2159 -0.9657 0.1443
vn 0.2642 -0.9482 0.1765
vn 0.6653 -0.5997 0.4446
vn 0.0813 -0.9934 0.0813
vn 0.1439 -0.9791 0.1439
vn 0.1836 -0.9657 0.1836
vn 0.2247 -0.9482 0.2247
vn 0.5658 -0.5997 0.5658
vn 0.0639 -0.9934 0.0956
vn 0.1131 -0.9791 0.1693
vn 0.1443 -0.9657 0.2159
vn 0.1765 -0.9482 0.2642
vn 0.4446 -0.5997 0.6653
vn 0.0440 -0.9934 0.1063
vn 0.0779 -0.9791 0.1881
vn 0.0994 -0.9657 0.2399
vn 0.1216 -0.9482 0.2936
vn 0.3062 -0.5997 0.7393
vn 0.0224 -0.9934 0.1128
vn 0.0397 -0.9791 0.1997
vn 0.0507 -0.9657 0.2547
vn 0.0620 -0.9482 0.3117
vn 0.1561 -0.5997 0.7848
vn -0.0000 -0.9934 0.1150
vn -0.0000 -0.9791 0.2036
vn -0.0000 -0.9657 0.2597
vn -0.0000 -0.9482 0.3178
vn -0.0000 -0.5997 0.8002
vn -0.0224 -0.9934 0.1128
vn -0.0397 -0.9791 0.1997
vn -0.0507 -0.9657 0.2547
vn -0.0620 -0.9482 0.3117
vn -0.1561 -0.5997 0.7848
vn -0.0440 -0.9934 0.1063
vn -0.0779 -0.9791 0.1881
vn -0.0994 -0.9657 0.2399
vn -0.1216 -0.9482 0.2936
vn -0.3062 -0.5997 0.7393
vn -0.0639 -0.9934 0.0956
vn -0.1131 -0.9791 0.1693
vn -0.1443 -0.9657 0.2159
vn -0.1765 -0.9482 0.2642
vn -0.4446 -0.5997 0.6653
vn -0.0813 -0.9934 0.0813
vn -0.1439 -0.9791 0.1439
vn -0.1836 -0.9657 0.1836
vn -0.2247 -0.9482 0.2247
vn -0.5658 -0.5997 0.5658
vn -0.0956 -0.9934 0.0639
vn -0.1693 -0.9791 0.1131
vn -0.2159 -0.9657 0.1443
vn -0.2642 -0.9482 0.1765
vn -0.6653 -0.5997 0.4446
vn -0.1063 -0.9934 0.0440
vn -0.1881 -0.9791 0.0779
vn -0.2399 -0.9657 0.0994
vn -0.2936 -0.9482 0.1216
vn -0.7393 -0.5997 0.3062
vn -0.1128 -0.9934 0.0224
vn -0.1997 -0.9791 0.0397
vn -0.2547 -0.9657 0.0507
vn -0.3117 -0.9482 0.0620
vn -0.7848 -0.5997 0.1561
vn -0.1150 -0.9934 -0.0000
vn -0.2036 -0.9791 -0.0000
vn -0.2597 -0.9657 -0.0000
vn -0.3178 -0.9482 -0.0000
vn -0.8002 -0.5997 -0.0000
vn -0.1128 -0.9934 -0.0224
vn -0.1997 -0.9791 -0.0397
vn -0.2547 -0.9657 -0.0507
vn -0.3117 -0.9482 -0.0620
vn -0.7848 -0.5997 -0.1561
vn -0.1063 -0.9934 -0.0440
vn -0.1881 -0.9791 -0.0779
vn -0.2399 -0.9657 -0.0994
vn -0.2936 -0.9482 -0.1216
vn -0.7393 -0.5997 -0.3062
vn -0.0956 -0.9934 -0.0639
vn -0.1693 -0.9791 -0.1131
vn -0.2159 -0.9657 -0.1443
vn -0.2642 -0.9482 -0.1765
vn -0.6653 -0.5997 -0.4446
vn -0.0813 -0.9934 -0.0813
vn -0.1439 -0.9791 -0.1439
vn -0.1836 -0.9657 -0.1836
vn -0.2247 -0.9482 -0.2247
vn -0.5658 -0.5997 -0.5658
vn -0.0639 -0.9934 -0.0956
vn -0.1131 -0.9791 -0.1693
vn -0.1443 -0.9657 -0.2159
vn -0.1765 -0.9482 -0.2642
vn -0.4446 -0.5997 -0.6653
vn -0.0440 -0.9934 -0.1063
vn -0.0779 -0.9791 -0.1881
vn -0.0994 -0.9657 -0.2399
vn -0.1216 -0.9482 -0.2936
vn -0.3062 -0.5997 -0.7393
vn -0.0224 -0.9934 -0.1128
vn -0.0397 -0.9791 -0.1997
vn -0.0507 -0.9657 -0.2547
vn -0.0620 -0.9482 -0.3117
vn -0.1561 -0.5997 -0.7848
vn -0.0000 -1.0000 -0.0000
vn -0.1488 -0.6467 -0.7481
vn -0.0000 -0.6467 -0.7627
vn -0.0510 -0.9652 -0.2565
vn -0.0000 -0.9652 -0.2615
vn -0.0000 -0.9801 -0.1986
vn -0.0388 -0.9801 -0.1948
vn -0.0000 -0.9960 -0.0894
vn -0.0174 -0.9960 -0.0876
vn -0.0000 -0.9997 -0.0250
vn -0.0049 -0.9997 -0.0245
vn -0.5393 -0.6467 -0.5393
vn -0.4237 -0.6467 -0.6342
vn -0.1849 -0.9652 -0.1849
vn -0.1453 -0.9652 -0.2174
vn -0.1104 -0.9801 -0.1652
vn -0.1404 -0.9801 -0.1404
vn -0.0496 -0.9960 -0.0743
vn -0.0632 -0.9960 -0.0632
vn -0.0139 -0.9997 -0.0208
vn -0.0177 -0.9997 -0.0177
vn -0.7481 -0.6467 -0.1488
vn -0.7047 -0.6467 -0.2919
vn -0.2565 -0.9652 -0.0510
vn -0.2416 -0.9652 -0.1001
vn -0.1835 -0.9801 -0.0760
vn -0.1948 -0.9801 -0.0387
vn -0.0826 -0.9960 -0.0342
vn -0.0876 -0.9960 -0.0174
vn -0.0231 -0.9997 -0.0096
vn -0.0245 -0.9997 -0.0049
vn -0.7047 -0.6467 0.2919
vn -0.7481 -0.6467 0.1488
vn -0.2416 -0.9652 0.1001
vn -0.2565 -0.9652 0.0510
vn -0.1948 -0.9801 0.0387
vn -0.1835 -0.9801 0.0760
vn -0.0876 -0.9960 0.0174
vn -0.0826 -0.9960 0.0342
vn -0.0245 -0.9997 0.0049
vn -0.0231 -0.9997 0.0096
vn -0.4237 -0.6467 0.6342
vn -0.5393 -0.6467 0.5393
vn -0.1453 -0.9652 0.2174
vn -0.1849 -0.9652 0.1849
vn -0.1404 -0.9801 0.1404
vn -0.1104 -0.9801 0.1652
vn -0.0632 -0.9960 0.0632
vn -0.0496 -0.9960 0.0743
vn -0.0177 -0.9997 0.0177
vn -0.0139 -0.9997 0.0208
vn -0.0000 -0.6467 0.7627
vn -0.1488 -0.6467 0.7481
vn -0.0000 -0.9652 0.2615
vn -0.0510 -0.9652 0.2565
vn -0.0387 -0.9801 0.1948
vn -0.0000 -0.9801 0.1986
vn -0.0174 -0.9960 0.0876
vn -0.0000 -0.9960 0.0894
vn -0.0049 -0.9997 0.0245
vn -0.0000 -0.9997 0.0250
vn 0.4237 -0.6467 0.6342
vn 0.2919 -0.6467 0.7047
vn 0.1453 -0.9652 0.2174
vn 0.1001 -0.9652 0.2416
vn 0.0760 -0.9801 0.1835
vn 0.1104 -0.9801 0.1652
vn 0.0342 -0.9960 0.0826
vn 0.0496 -0.9960 0.0743
vn 0.0096 -0.9997 0.0231
vn 0.0139 -0.9997 0.0208
vn 0.7047 -0.6467 0.2919
vn 0.6342 -0.6467 0.4237
vn 0.2416 -0.9652 0.1001
vn 0.2174 -0.9652 0.1453
vn 0.1652 -0.9801 0.1104
vn 0.1835 -0.9801 0.0760
vn 0.0743 -0.9960 0.0496
vn 0.0826 -0.9960 0.0342
vn 0.0208 -0.9997 0.0139
vn 0.0231 -0.9997 0.0096
vn 0.7481 -0.6467 -0.1488
vn 0.7627 -0.6467 -0.0000
vn 0.2565 -0.9652 -0.0510
vn 0.2615 -0.9652 -0.0000
vn 0.1986 -0.9801 -0.0000
vn 0.1948 -0.9801 -0.0388
vn 0.0894 -0.9960 -0.0000
vn 0.0876 -0.9960 -0.0174
vn 0.0250 -0.9997 -0.0000
vn 0.0245 -0.9997 -0.0049
vn 0.5393 -0.6467 -0.5393
vn 0.6342 -0.6467 -0.4237
vn 0.1849 -0.9652 -0.1849
vn 0.2174 -0.9652 -0.1453
vn 0.1652 -0.9801 -0.1104
vn 0.1404 -0.9801 -0.1404
vn 0.0743 -0.9960 -0.0496
vn 0.0632 -0.9960 -0.0632
vn 0.0208 -0.9997 -0.0139
vn 0.0177 -0.9997 -0.0177
vn -0.2919 -0.6467 0.7047
vn -0.1001 -0.9652 0.2416
vn -0.0760 -0.9801 0.1835
vn -0.0342 -0.9960 0.0826
vn -0.0096 -0.9997 0.0231
vn 0.1488 -0.6467 0.7481
vn 0.0510 -0.9652 0.2565
vn 0.0388 -0.9801 0.1948
vn 0.0174 -0.9960 0.0876
vn 0.0049 -0.9997 0.0245
vn 0.5393 -0.6467 0.5393
vn 0.1849 -0.9652 0.1849
vn 0.1404 -0.9801 0.1404
vn 0.0632 -0.9960 0.0632
vn 0.0177 -0.9997 0.0177
vn 0.7481 -0.6467 0.1488
vn 0.2565 -0.9652 0.0510
vn 0.1948 -0.9801 0.0388
vn 0.0876 -0.9960 0.0174
vn 0.0245 -0.9997 0.0049
vn 0.7047 -0.6467 -0.2919
vn 0.2416 -0.9652 -0.1001
vn 0.1835 -0.9801 -0.0760
vn 0.0826 -0.9960 -0.0342
vn 0.0231 -0.9997 -0.0096
vn 0.4237 -0.6467 -0.6342
vn 0.1453 -0.9652 -0.2174
vn 0.1104 -0.9801 -0.1652
vn 0.0496 -0.9960 -0.0743
vn 0.0139 -0.9997 -0.0208
vn 0.1488 -0.6467 -0.7481
vn 0.2919 -0.6467 -0.7047
vn 0.0510 -0.9652 -0.2565
vn 0.1001 -0.9652 -0.2416
vn 0.0760 -0.9801 -0.1835
vn 0.0388 -0.9801 -0.1948
vn 0.0342 -0.9960 -0.0826
vn 0.0174 -0.9960 -0.0876
vn 0.0096 -0.9997 -0.0231
vn 0.0049 -0.9997 -0.0245
vn -0.2919 -0.6467 -0.7047
vn -0.1001 -0.9652 -0.2416
vn -0.0760 -0.9801 -0.1835
vn -0.0342 -0.9960 -0.0826
vn -0.0096 -0.9997 -0.0231
vn -0.6342 -0.6467 -0.4237
vn -0.2174 -0.9652 -0.1453
vn -0.1652 -0.9801 -0.1104
vn -0.0743 -0.9960 -0.0496
vn -0.0208 -0.9997 -0.0139
vn -0.7627 -0.6467 -0.0000
vn -0.2615 -0.9652 -0.0000
vn -0.1986 -0.9801 -0.0000
vn -0.0894 -0.9960 -0.0000
vn -0.0250 -0.9997 -0.0000
vn -0.6342 -0.6467 0.4237
vn -0.2174 -0.9652 0.1453
vn -0.1652 -0.9801 0.1104
vn -0.0743 -0.9960 0.0496
vn -0.0208 -0.9997 0.0139
vt 1.000000 0.500000
vt 1.000000 1.000000
vt 0.968750 1.000000
vt 0.968750 0.500000
vt 0.937500 1.000000
vt 0.937500 0.500000
vt 0.906250 1.000000
vt 0.906250 0.500000
vt 0.875000 1.000000
vt 0.875000 0.500000
vt 0.843750 1.000000
vt 0.843750 0.500000
vt 0.812500 1.000000
vt 0.812500 0.500000
vt 0.781250 1.000000
vt 0.781250 0.500000
vt 0.750000 1.000000
vt 0.750000 0.500000
vt 0.718750 1.000000
vt 0.718750 0.500000
vt 0.687500 1.000000
vt 0.687500 0.500000
vt 0.656250 1.000000
vt 0.656250 0.500000
vt 0.625000 1.000000
vt 0.625000 0.500000
vt 0.593750 1.000000
vt 0.593750 0.500000
vt 0.562500 1.000000
vt 0.562500 0.500000
vt 0.531250 1.000000
vt 0.531250 0.500000
vt 0.500000 1.000000
vt 0.500000 0.500000
vt 0.468750 1.000000
vt 0.468750 0.500000
vt 0.437500 1.000000
vt 0.437500 0.500000
vt 0.406250 1.000000
vt 0.406250 0.500000
vt 0.375000 1.000000
vt 0.375000 0.500000
vt 0.343750 1.000000
vt 0.343750 0.500000
vt 0.312500 1.000000
vt 0.312500 0.500000
vt 0.281250 1.000000
vt 0.281250 0.500000
vt 0.250000 1.000000
vt 0.250000 0.500000
vt 0.218750 1.000000
vt 0.218750 0.500000
vt 0.187500 1.000000
vt 0.187500 0.500000
vt 0.156250 1.000000
vt 0.156250 0.500000
vt 0.125000 1.000000
vt 0.125000 0.500000
vt 0.093750 1.000000
vt 0.093750 0.500000
vt 0.062500 1.000000
vt 0.062500 0.500000
vt 0.359950 0.295543
vt 0.348952 0.316118
vt 0.031250 1.000000
vt 0.031250 0.500000
vt 0.000000 1.000000
vt 0.000000 0.500000
vt 0.250000 0.369009
vt 0.273217 0.366722
vt 0.296822 0.485388
vt 0.250000 0.490000
vt 0.295543 0.359950
vt 0.341844 0.471731
vt 0.316118 0.348952
vt 0.383337 0.449553
vt 0.334152 0.334152
vt 0.419706 0.419706
vt 0.449553 0.383337
vt 0.471731 0.341844
vt 0.366722 0.273218
vt 0.485388 0.296822
vt 0.369009 0.250000
vt 0.490000 0.250000
vt 0.366722 0.226783
vt 0.485388 0.203178
vt 0.359950 0.204457
vt 0.471731 0.158156
vt 0.348952 0.183882
vt 0.449553 0.116663
vt 0.334152 0.165848
vt 0.419706 0.080294
vt 0.316118 0.151048
vt 0.383337 0.050447
vt 0.295543 0.140050
vt 0.341844 0.028269
vt 0.273218 0.133278
vt 0.296822 0.014612
vt 0.250000 0.130991
vt 0.250000 0.010000
vt 0.226783 0.133278
vt 0.203178 0.014612
vt 0.204457 0.140050
vt 0.158156 0.028269
vt 0.183882 0.151048
vt 0.116663 0.050447
vt 0.165848 0.165848
vt 0.080294 0.080294
vt 0.151048 0.183882
vt 0.050447 0.116663
vt 0.140050 0.204457
vt 0.028269 0.158156
vt 0.133278 0.226783
vt 0.014612 0.203178
vt 0.130991 0.250000
vt 0.010000 0.250000
vt 0.133278 0.273217
vt 0.014612 0.296822
vt 0.140050 0.295543
vt 0.028269 0.341844
vt 0.151048 0.316118
vt 0.050447 0.383337
vt 0.165848 0.334152
vt 0.080294 0.419706
vt 0.183882 0.348952
vt 0.116663 0.449553
vt 0.204457 0.359950
vt 0.158156 0.471731
vt 0.226783 0.366722
vt 0.203178 0.485388
vt 0.273217 0.366722
vt 0.250000 0.369009
vt 0.250000 0.368948
vt 0.273206 0.366663
vt 0.250000 0.368993
vt 0.273214 0.366707
vt 0.250000 0.369009
vt 0.295543 0.359950
vt 0.295520 0.359894
vt 0.295537 0.359935
vt 0.295543 0.359950
vt 0.316118 0.348952
vt 0.316084 0.348902
vt 0.316109 0.348939
vt 0.316118 0.348952
vt 0.334152 0.334152
vt 0.334109 0.334109
vt 0.334141 0.334141
vt 0.348902 0.316084
vt 0.348939 0.316109
vt 0.348952 0.316118
vt 0.359950 0.295543
vt 0.359950 0.295543
vt 0.359894 0.295520
vt 0.359935 0.295537
vt 0.366722 0.273218
vt 0.366722 0.273218
vt 0.366663 0.273206
vt 0.366707 0.273214
vt 0.369009 0.250000
vt 0.369009 0.250000
vt 0.368948 0.250000
vt 0.368993 0.250000
vt 0.366722 0.226783
vt 0.366663 0.226794
vt 0.366707 0.226786
vt 0.359950 0.204457
vt 0.359950 0.204457
vt 0.359894 0.204480
vt 0.359935 0.204463
vt 0.348952 0.183882
vt 0.348902 0.183916
vt 0.348939 0.183891
vt 0.348952 0.183882
vt 0.334152 0.165848
vt 0.334152 0.165848
vt 0.334109 0.165891
vt 0.334141 0.165859
vt 0.334152 0.165848
vt 0.316084 0.151098
vt 0.316109 0.151061
vt 0.295543 0.140050
vt 0.295520 0.140106
vt 0.295537 0.140065
vt 0.295543 0.140050
vt 0.273218 0.133278
vt 0.273206 0.133337
vt 0.273214 0.133293
vt 0.250000 0.130991
vt 0.250000 0.131052
vt 0.250000 0.131007
vt 0.226783 0.133278
vt 0.226794 0.133337
vt 0.226786 0.133293
vt 0.204457 0.140050
vt 0.204457 0.140050
vt 0.204480 0.140106
vt 0.204463 0.140065
vt 0.183882 0.151048
vt 0.183916 0.151098
vt 0.183891 0.151061
vt 0.165848 0.165848
vt 0.165891 0.165891
vt 0.165859 0.165859
vt 0.151048 0.183882
vt 0.151098 0.183916
vt 0.151061 0.183891
vt 0.151048 0.183882
vt 0.140106 0.204480
vt 0.140065 0.204463
vt 0.140050 0.204457
vt 0.133278 0.226783
vt 0.133337 0.226794
vt 0.133293 0.226786
vt 0.133278 0.226783
vt 0.130991 0.250000
vt 0.130991 0.250000
vt 0.131052 0.250000
vt 0.131007 0.250000
vt 0.130991 0.250000
vt 0.133278 0.273217
vt 0.133337 0.273206
vt 0.133293 0.273214
vt 0.140050 0.295543
vt 0.140106 0.295520
vt 0.140065 0.295537
vt 0.140050 0.295543
vt 0.151048 0.316118
vt 0.151098 0.316084
vt 0.151061 0.316109
vt 0.151048 0.316118
vt 0.165848 0.334152
vt 0.165891 0.334109
vt 0.165859 0.334141
vt 0.183882 0.348952
vt 0.183916 0.348902
vt 0.183891 0.348939
vt 0.183882 0.348952
vt 0.204457 0.359950
vt 0.204480 0.359894
vt 0.204463 0.359935
vt 0.226782 0.366722
vt 0.226782 0.366722
vt 0.226794 0.366663
vt 0.226786 0.366707
vt 0.226783 0.366722
vt 0.000000 0.500000
vt 0.000239 0.500000
vt 0.031250 0.500000
vt 0.000920 0.500000
vt 0.031250 0.500000
vt 0.703205 0.485255
vt 0.750000 0.489864
vt 0.750000 0.460226
vt 0.708987 0.456186
vt 0.750000 0.441768
vt 0.712588 0.438083
vt 0.093750 0.500000
vt 0.093750 0.500000
vt 0.125000 0.500000
vt 0.093750 0.500000
vt 0.580390 0.419610
vt 0.616738 0.449440
vt 0.633205 0.424796
vt 0.601348 0.398652
vt 0.643460 0.409449
vt 0.614400 0.385600
vt 0.218750 0.500000
vt 0.187500 0.500000
vt 0.187500 0.500000
vt 0.218750 0.500000
vt 0.187500 0.500000
vt 0.514745 0.296795
vt 0.528394 0.341792
vt 0.555777 0.330450
vt 0.543814 0.291013
vt 0.572830 0.323386
vt 0.561917 0.287412
vt 0.312500 0.500000
vt 0.281250 0.500000
vt 0.312500 0.500000
vt 0.281250 0.500000
vt 0.312500 0.500000
vt 0.528394 0.158208
vt 0.514745 0.203205
vt 0.543814 0.208987
vt 0.555777 0.169550
vt 0.561917 0.212588
vt 0.572830 0.176614
vt 0.375000 0.500000
vt 0.375000 0.500000
vt 0.406250 0.500000
vt 0.616739 0.050560
vt 0.580390 0.080390
vt 0.601348 0.101348
vt 0.633205 0.075204
vt 0.614400 0.114400
vt 0.643460 0.090551
vt 0.468750 0.500000
vt 0.468750 0.500000
vt 0.750000 0.010136
vt 0.703205 0.014745
vt 0.708987 0.043814
vt 0.750000 0.039775
vt 0.712588 0.061917
vt 0.750000 0.058232
vt 0.593750 0.500000
vt 0.562500 0.500000
vt 0.593750 0.500000
vt 0.883262 0.050560
vt 0.841792 0.028394
vt 0.830450 0.055777
vt 0.866795 0.075204
vt 0.823386 0.072830
vt 0.856541 0.090551
vt 0.656250 0.500000
vt 0.656250 0.500000
vt 0.687500 0.500000
vt 0.971606 0.158208
vt 0.949440 0.116739
vt 0.924796 0.133205
vt 0.944223 0.169550
vt 0.909449 0.143460
vt 0.927170 0.176614
vt 0.781250 0.500000
vt 0.750000 0.500000
vt 0.750000 0.500000
vt 0.781250 0.500000
vt 0.985255 0.296795
vt 0.989864 0.250000
vt 0.960226 0.250000
vt 0.956186 0.291013
vt 0.941768 0.250000
vt 0.938083 0.287412
vt 0.875000 0.500000
vt 0.843750 0.500000
vt 0.843750 0.500000
vt 0.919610 0.419610
vt 0.949440 0.383261
vt 0.924796 0.366795
vt 0.898652 0.398652
vt 0.909449 0.356540
vt 0.885600 0.385600
vt 0.437500 0.500000
vt 0.437500 0.500000
vt 0.658208 0.028394
vt 0.669550 0.055777
vt 0.676614 0.072830
vt 0.531250 0.500000
vt 0.531250 0.500000
vt 0.796795 0.014745
vt 0.791013 0.043814
vt 0.787412 0.061917
vt 0.625000 0.500000
vt 0.625000 0.500000
vt 0.919610 0.080390
vt 0.898652 0.101348
vt 0.885600 0.114400
vt 0.718750 0.500000
vt 0.718750 0.500000
vt 0.985255 0.203205
vt 0.956186 0.208987
vt 0.938083 0.212588
vt 0.812500 0.500000
vt 0.812500 0.500000
vt 0.971606 0.341792
vt 0.944223 0.330450
vt 0.927170 0.323386
vt 0.906250 0.500000
vt 0.906250 0.500000
vt 0.883261 0.449440
vt 0.866795 0.424796
vt 0.856541 0.409449
vt 0.968750 0.500000
vt 0.937500 0.500000
vt 0.968750 0.500000
vt 0.937500 0.500000
vt 0.796795 0.485255
vt 0.841792 0.471606
vt 0.830450 0.444223
vt 0.791013 0.456186
vt 0.823386 0.427170
vt 0.787412 0.438083
vt 0.658208 0.471606
vt 0.669550 0.444223
vt 0.676614 0.427170
vt 0.156250 0.500000
vt 0.550560 0.383261
vt 0.575204 0.366795
vt 0.590551 0.356541
vt 0.250000 0.500000
vt 0.510136 0.250000
vt 0.539775 0.250000
vt 0.558232 0.250000
vt 0.343750 0.500000
vt 0.343750 0.500000
vt 0.550560 0.116739
vt 0.575204 0.133205
vt 0.590551 0.143459
vt 1.000000 0.500000
vt 0.999761 0.500000
vt 0.999080 0.500000
s 1
f 446/1/1 35/2/1 34/3/2 441/4/2
f 441/4/2 34/3/2 36/5/3 435/6/3
f 435/6/3 36/5/3 37/7/4 431/8/4
f 431/8/4 37/7/4 38/9/5 426/10/5
f 426/10/5 38/9/5 39/11/6 421/12/6
f 421/12/6 39/11/6 40/13/7 416/14/7
f 416/14/7 40/13/7 41/15/8 411/16/8
f 411/16/8 41/15/8 42/17/9 406/18/9
f 406/18/9 42/17/9 43/19/10 401/20/10
f 401/20/10 43/19/10 44/21/11 396/22/11
f 396/22/11 44/21/11 45/23/12 391/24/12
f 391/24/12 45/23/12 46/25/13 386/26/13
f 386/26/13 46/25/13 47/27/14 381/28/14
f 381/28/14 47/27/14 48/29/15 376/30/15
f 376/30/15 48/29/15 49/31/16 371/32/16
f 371/32/16 49/31/16 50/33/17 366/34/17
f 366/34/17 50/33/17 51/35/18 18/36/18
f 18/36/18 51/35/18 52/37/19 357/38/19
f 357/38/19 52/37/19 53/39/20 352/40/20
f 352/40/20 53/39/20 54/41/21 347/42/21
f 347/42/21 54/41/21 55/43/22 342/44/22
f 342/44/22 55/43/22 56/45/23 337/46/23
f 337/46/23 56/45/23 57/47/24 332/48/24
f 332/48/24 57/47/24 58/49/25 327/50/25
f 327/50/25 58/49/25 59/51/26 322/52/26
f 322/52/26 59/51/26 60/53/27 317/54/27
f 317/54/27 60/53/27 61/55/28 312/56/28
f 312/56/28 61/55/28 62/57/29 307/58/29
f 307/58/29 62/57/29 63/59/30 301/60/30
f 301/60/30 63/59/30 64/61/31 297/62/31
f 7/63/7 6/64/6 71/64/6 72/63/7
f 297/62/31 64/61/31 65/65/32 292/66/32
f 292/66/32 65/65/32 35/67/1 446/68/1
f 1/69/33 2/70/33 34/71/33 35/72/33
f 2/70/33 3/73/33 36/74/33 34/71/33
f 3/73/33 4/75/33 37/76/33 36/74/33
f 4/75/33 5/77/33 38/78/33 37/76/33
f 5/77/33 6/64/33 39/79/33 38/78/33
f 6/64/33 7/63/33 40/80/33 39/79/33
f 7/63/33 8/81/33 41/82/33 40/80/33
f 8/81/33 9/83/33 42/84/33 41/82/33
f 9/83/33 10/85/33 43/86/33 42/84/33
f 10/85/33 11/87/33 44/88/33 43/86/33
f 11/87/33 12/89/33 45/90/33 44/88/33
f 12/89/33 13/91/33 46/92/33 45/90/33
f 13/91/33 14/93/33 47/94/33 46/92/33
f 14/93/33 15/95/33 48/96/33 47/94/33
f 15/95/33 16/97/33 49/98/33 48/96/33
f 16/97/33 17/99/33 50/100/33 49/98/33
f 17/99/33 19/101/33 51/102/33 50/100/33
f 19/101/33 20/103/33 52/104/33 51/102/33
f 20/103/33 21/105/33 53/106/33 52/104/33
f 21/105/33 22/107/33 54/108/33 53/106/33
f 22/107/33 23/109/33 55/110/33 54/108/33
f 23/109/33 24/111/33 56/112/33 55/110/33
f 24/111/33 25/113/33 57/114/33 56/112/33
f 25/113/33 26/115/33 58/116/33 57/114/33
f 26/115/33 27/117/33 59/118/33 58/116/33
f 27/117/33 28/119/33 60/120/33 59/118/33
f 28/119/33 29/121/33 61/122/33 60/120/33
f 29/121/33 30/123/33 62/124/33 61/122/33
f 30/123/33 31/125/33 63/126/33 62/124/33
f 31/125/33 32/127/33 64/128/33 63/126/33
f 32/127/33 33/129/33 65/130/33 64/128/33
f 33/129/33 1/69/33 35/72/33 65/130/33
f 22/107/21 21/105/20 85/105/20 86/107/21
f 8/81/8 7/63/7 72/63/7 73/81/8
f 23/109/22 22/107/21 86/107/21 87/109/22
f 9/83/9 8/81/8 73/81/8 74/83/9
f 24/111/23 23/109/22 87/109/22 88/111/23
f 10/85/10 9/83/9 74/83/9 75/85/10
f 25/113/24 24/111/23 88/111/23 89/113/24
f 11/87/11 10/85/10 75/85/10 76/87/11
f 26/115/25 25/113/24 89/113/24 90/115/25
f 12/89/12 11/87/11 76/87/11 77/89/12
f 27/117/26 26/115/25 90/115/25 91/117/26
f 13/91/13 12/89/12 77/89/12 78/91/13
f 28/119/27 27/117/26 91/117/26 92/119/27
f 14/93/14 13/91/13 78/91/13 79/93/14
f 29/121/28 28/119/27 92/119/27 93/121/28
f 15/95/15 14/93/14 79/93/14 80/95/15
f 2/70/2 1/69/1 66/69/1 67/70/2
f 30/123/29 29/121/28 93/121/28 94/123/29
f 16/97/16 15/95/15 80/95/15 81/97/16
f 3/73/3 2/70/2 67/70/2 68/73/3
f 31/125/30 30/123/29 94/123/29 95/125/30
f 17/99/17 16/97/16 81/97/16 82/99/17
f 4/75/4 3/73/3 68/73/3 69/75/4
f 32/127/31 31/125/30 95/125/30 96/127/31
f 19/101/18 17/99/17 82/99/17 83/101/18
f 5/77/5 4/75/4 69/75/4 70/77/5
f 33/129/32 32/127/31 96/127/31 97/129/32
f 20/103/19 19/101/18 83/101/18 84/103/19
f 6/64/6 5/77/5 70/77/5 71/64/6
f 1/69/1 33/129/32 97/129/32 66/69/1
f 21/105/20 20/103/19 84/103/19 85/105/20
f 106/103/19 223/101/18 130/101/18 131/103/19
f 134/109/34 133/107/35 145/109/33
f 168/64/6 100/77/5 117/77/5 118/64/6
f 98/69/1 286/129/32 144/129/32 113/69/1
f 107/105/20 106/103/19 131/103/19 132/105/20
f 173/63/7 168/64/6 118/64/6 119/63/7
f 236/107/21 107/105/20 132/105/20 133/107/21
f 178/81/8 173/63/7 119/63/7 120/81/8
f 241/109/22 236/107/21 133/107/21 134/109/22
f 183/83/9 178/81/8 120/81/8 121/83/9
f 108/111/23 241/109/22 134/109/22 135/111/23
f 188/85/10 183/83/9 121/83/9 122/85/10
f 109/113/24 108/111/23 135/111/23 136/113/24
f 193/87/11 188/85/10 122/85/10 123/87/11
f 254/115/25 109/113/24 136/113/24 137/115/25
f 101/89/12 193/87/11 123/87/11 124/89/12
f 259/117/26 254/115/25 137/115/25 138/117/26
f 102/91/13 101/89/12 124/89/12 125/91/13
f 264/119/27 259/117/26 138/117/26 139/119/27
f 103/93/14 102/91/13 125/91/13 126/93/14
f 269/121/28 264/119/27 139/119/27 140/121/28
f 104/95/15 103/93/14 126/93/14 127/95/15
f 150/70/2 98/69/1 113/69/1 114/70/2
f 110/123/29 269/121/28 140/121/28 141/123/29
f 214/97/16 104/95/15 127/95/15 128/97/16
f 99/73/3 150/70/2 114/70/2 115/73/3
f 111/125/30 110/123/29 141/123/29 142/125/30
f 105/99/17 214/97/16 128/97/16 129/99/17
f 159/75/4 99/73/3 115/73/3 116/75/4
f 112/127/31 111/125/30 142/125/30 143/127/31
f 223/101/18 105/99/17 129/99/17 130/101/18
f 100/77/5 159/75/4 116/75/4 117/77/5
f 286/129/32 112/127/31 143/127/31 144/129/32
f 121/83/36 120/81/37 145/83/33
f 135/111/38 134/109/34 145/111/33
f 122/85/39 121/83/36 145/85/33
f 136/113/40 135/111/38 145/113/33
f 123/87/41 122/85/39 145/87/33
f 137/115/42 136/113/40 145/115/33
f 124/89/43 123/87/41 145/89/33
f 138/117/44 137/115/42 145/117/33
f 125/91/45 124/89/43 145/91/33
f 139/119/46 138/117/44 145/119/33
f 126/93/47 125/91/45 145/93/33
f 140/121/48 139/119/46 145/121/33
f 127/95/49 126/93/47 145/95/33
f 114/70/50 113/69/51 145/70/33
f 141/123/52 140/121/48 145/123/33
f 128/97/53 127/95/49 145/97/33
f 115/73/54 114/70/50 145/73/33
f 142/125/55 141/123/52 145/125/33
f 129/99/56 128/97/53 145/99/33
f 116/75/57 115/73/54 145/75/33
f 143/127/58 142/125/55 145/127/33
f 130/101/59 129/99/56 145/101/33
f 117/77/60 116/75/57 145/77/33
f 144/129/61 143/127/58 145/129/33
f 131/103/62 130/101/59 145/103/33
f 118/64/63 117/77/60 145/64/33
f 113/69/51 144/129/61 145/69/33
f 132/105/64 131/103/62 145/105/33
f 119/63/65 118/64/63 145/63/33
f 133/107/35 132/105/64 145/107/33
f 120/81/37 119/63/65 145/81/33
f 151/131/66 146/132/67 147/69/68 154/131/69
f 154/131/69 147/69/68 148/133/70 153/134/71
f 153/134/71 148/133/70 149/135/72 152/136/73
f 152/136/74 149/135/75 98/137/75 150/70/74
f 155/73/76 151/131/66 154/131/69 158/138/77
f 158/138/77 154/131/69 153/134/71 157/139/78
f 157/139/78 153/134/71 152/136/73 156/140/79
f 156/140/80 152/136/74 150/70/74 99/141/80
f 160/142/81 155/73/76 158/138/77 163/75/82
f 163/75/82 158/138/77 157/139/78 162/143/83
f 162/143/83 157/139/78 156/140/79 161/144/84
f 161/144/85 156/140/80 99/141/80 159/145/85
f 164/77/86 160/142/81 163/75/82 167/146/87
f 167/146/87 163/75/82 162/143/83 166/147/88
f 166/147/88 162/143/83 161/144/84 165/148/89
f 165/148/90 161/144/85 159/145/85 100/77/90
f 169/64/91 164/77/86 167/146/87 172/64/92
f 172/64/92 167/146/87 166/147/88 171/149/93
f 171/149/93 166/147/88 165/148/89 170/150/94
f 170/150/95 165/148/90 100/77/90 168/151/95
f 174/152/96 169/64/91 172/64/92 177/153/97
f 177/153/97 172/64/92 171/149/93 176/154/98
f 176/154/98 171/149/93 170/150/94 175/155/99
f 175/155/100 170/150/95 168/151/95 173/153/100
f 179/156/101 174/152/96 177/153/97 182/157/102
f 182/157/102 177/153/97 176/154/98 181/158/103
f 181/158/103 176/154/98 175/155/99 180/159/104
f 180/159/105 175/155/100 173/153/100 178/81/105
f 184/160/106 179/156/101 182/157/102 187/161/107
f 187/161/107 182/157/102 181/158/103 186/162/108
f 186/162/108 181/158/103 180/159/104 185/163/109
f 185/163/110 180/159/105 178/81/105 183/160/110
f 189/85/111 184/160/106 187/161/107 192/164/112
f 192/164/112 187/161/107 186/162/108 191/165/113
f 191/165/113 186/162/108 185/163/109 190/166/114
f 190/166/115 185/163/110 183/160/110 188/85/115
f 194/167/116 189/85/111 192/164/112 197/168/117
f 197/168/117 192/164/112 191/165/113 196/169/118
f 196/169/118 191/165/113 190/166/114 195/170/119
f 195/170/120 190/166/115 188/85/115 193/87/120
f 198/89/121 194/167/116 197/168/117 201/171/122
f 201/171/122 197/168/117 196/169/118 200/172/123
f 200/172/123 196/169/118 195/170/119 199/173/124
f 199/173/125 195/170/120 193/87/120 101/174/125
f 202/175/126 198/89/121 201/171/122 205/176/127
f 205/176/127 201/171/122 200/172/123 204/177/128
f 204/177/128 200/172/123 199/173/124 203/178/129
f 203/178/130 199/173/125 101/174/125 102/179/130
f 206/93/131 202/175/126 205/176/127 209/93/132
f 209/93/132 205/176/127 204/177/128 208/180/133
f 208/180/133 204/177/128 203/178/129 207/181/134
f 207/181/135 203/178/130 102/179/130 103/93/135
f 210/182/136 206/93/131 209/93/132 213/95/137
f 213/95/137 209/93/132 208/180/133 212/183/138
f 212/183/138 208/180/133 207/181/134 211/184/139
f 211/184/140 207/181/135 103/93/135 104/185/140
f 215/97/141 210/182/136 213/95/137 218/186/142
f 218/186/142 213/95/137 212/183/138 217/187/143
f 217/187/143 212/183/138 211/184/139 216/188/144
f 216/188/145 211/184/140 104/185/140 214/97/145
f 219/99/146 215/97/141 218/186/142 222/189/147
f 222/189/147 218/186/142 217/187/143 221/190/148
f 221/190/148 217/187/143 216/188/144 220/191/149
f 220/191/150 216/188/145 214/97/145 105/99/150
f 224/192/151 219/99/146 222/189/147 227/101/152
f 227/101/152 222/189/147 221/190/148 226/193/153
f 226/193/153 221/190/148 220/191/149 225/194/154
f 225/194/155 220/191/150 105/99/150 223/101/155
f 228/195/156 224/192/151 227/101/152 231/196/157
f 231/196/157 227/101/152 226/193/153 230/197/158
f 230/197/158 226/193/153 225/194/154 229/198/159
f 229/198/160 225/194/155 223/101/155 106/103/160
f 232/199/161 228/195/156 231/196/157 235/105/162
f 235/105/162 231/196/157 230/197/158 234/200/163
f 234/200/163 230/197/158 229/198/159 233/201/164
f 233/201/165 229/198/160 106/103/160 107/105/165
f 237/107/166 232/199/161 235/105/162 240/202/167
f 240/202/167 235/105/162 234/200/163 239/203/168
f 239/203/168 234/200/163 233/201/164 238/204/169
f 238/204/170 233/201/165 107/105/165 236/107/170
f 242/109/171 237/107/166 240/202/167 245/205/172
f 245/205/172 240/202/167 239/203/168 244/206/173
f 244/206/173 239/203/168 238/204/169 243/207/174
f 243/207/175 238/204/170 236/107/170 241/208/175
f 246/111/176 242/109/171 245/205/172 249/111/177
f 249/111/177 245/205/172 244/206/173 248/209/178
f 248/209/178 244/206/173 243/207/174 247/210/179
f 247/210/180 243/207/175 241/208/175 108/211/180
f 250/212/181 246/111/176 249/111/177 253/113/182
f 253/113/182 249/111/177 248/209/178 252/213/183
f 252/213/183 248/209/178 247/210/179 251/214/184
f 251/214/185 247/210/180 108/211/180 109/215/185
f 255/216/186 250/212/181 253/113/182 258/217/187
f 258/217/187 253/113/182 252/213/183 257/218/188
f 257/218/188 252/213/183 251/214/184 256/219/189
f 256/219/190 251/214/185 109/215/185 254/220/190
f 260/221/191 255/216/186 258/217/187 263/117/192
f 263/117/192 258/217/187 257/218/188 262/222/193
f 262/222/193 257/218/188 256/219/189 261/223/194
f 261/223/195 256/219/190 254/220/190 259/117/195
f 265/224/196 260/221/191 263/117/192 268/119/197
f 268/119/197 263/117/192 262/222/193 267/225/198
f 267/225/198 262/222/193 261/223/194 266/226/199
f 266/226/200 261/223/195 259/117/195 264/227/200
f 270/121/201 265/224/196 268/119/197 273/228/202
f 273/228/202 268/119/197 267/225/198 272/229/203
f 272/229/203 267/225/198 266/226/199 271/230/204
f 271/230/205 266/226/200 264/227/200 269/231/205
f 274/232/206 270/121/201 273/228/202 277/123/207
f 277/123/207 273/228/202 272/229/203 276/233/208
f 276/233/208 272/229/203 271/230/204 275/234/209
f 275/234/210 271/230/205 269/231/205 110/232/210
f 278/235/211 274/232/206 277/123/207 281/125/212
f 281/125/212 277/123/207 276/233/208 280/236/213
f 280/236/213 276/233/208 275/234/209 279/237/214
f 279/237/215 275/234/210 110/232/210 111/238/215
f 282/239/216 278/235/211 281/125/212 285/239/217
f 285/239/217 281/125/212 280/236/213 284/240/218
f 284/240/218 280/236/213 279/237/214 283/241/219
f 283/241/220 279/237/215 111/238/215 112/239/220
f 287/242/221 282/239/216 285/239/217 290/243/222
f 290/243/222 285/239/217 284/240/218 289/244/223
f 289/244/223 284/240/218 283/241/219 288/245/224
f 288/245/225 283/241/220 112/239/220 286/246/225
f 146/132/67 287/242/221 290/243/222 147/69/68
f 147/69/68 290/243/222 289/244/223 148/133/70
f 148/133/70 289/244/223 288/245/224 149/135/72
f 149/135/75 288/245/225 286/246/225 98/137/75
f 67/70/226 66/69/226 146/132/67 151/131/66
f 66/69/226 97/129/226 287/242/221 146/132/67
f 68/73/226 67/70/226 151/131/66 155/73/76
f 69/75/226 68/73/226 155/73/76 160/142/81
f 70/77/226 69/75/226 160/142/81 164/77/86
f 71/64/226 70/77/226 164/77/86 169/64/91
f 72/63/226 71/64/226 169/64/91 174/152/96
f 73/81/226 72/63/226 174/152/96 179/156/101
f 74/83/226 73/81/226 179/156/101 184/160/106
f 75/85/226 74/83/226 184/160/106 189/85/111
f 76/87/226 75/85/226 189/85/111 194/167/116
f 77/89/226 76/87/226 194/167/116 198/89/121
f 78/91/226 77/89/226 198/89/121 202/175/126
f 79/93/226 78/91/226 202/175/126 206/93/131
f 80/95/226 79/93/226 206/93/131 210/182/136
f 81/97/226 80/95/226 210/182/136 215/97/141
f 82/99/226 81/97/226 215/97/141 219/99/146
f 83/101/226 82/99/226 219/99/146 224/192/151
f 84/103/226 83/101/226 224/192/151 228/195/156
f 85/105/226 84/103/226 228/195/156 232/199/161
f 86/107/226 85/105/226 232/199/161 237/107/166
f 87/109/226 86/107/226 237/107/166 242/109/171
f 88/111/226 87/109/226 242/109/171 246/111/176
f 89/113/226 88/111/226 246/111/176 250/212/181
f 90/115/226 89/113/226 250/212/181 255/216/186
f 91/117/226 90/115/226 255/216/186 260/221/191
f 92/119/226 91/117/226 260/221/191 265/224/196
f 93/121/226 92/119/226 265/224/196 270/121/201
f 94/123/226 93/121/226 270/121/201 274/232/206
f 95/125/226 94/123/226 274/232/206 278/235/211
f 96/127/226 95/125/226 278/235/211 282/239/216
f 97/129/226 96/127/226 282/239/216 287/242/221
f 292/66/227 446/247/228 449/248/228 295/249/227
f 295/249/229 449/248/230 448/250/231 294/251/232
f 294/252/232 448/253/231 447/254/233 293/255/234
f 293/255/234 447/254/233 445/256/235 291/257/236
f 307/58/237 301/258/238 303/259/238 310/260/237
f 310/260/239 303/259/240 304/261/241 309/58/242
f 309/262/242 304/263/241 305/264/243 308/265/244
f 308/265/244 305/264/243 302/266/245 306/267/246
f 322/268/247 317/269/248 320/270/248 325/271/247
f 325/271/249 320/270/250 319/272/251 324/268/252
f 324/273/252 319/274/251 318/275/253 323/276/254
f 323/276/254 318/275/253 316/277/255 321/278/256
f 337/279/257 332/48/258 335/280/258 340/281/257
f 340/281/259 335/280/260 334/282/261 339/283/262
f 339/284/262 334/285/261 333/286/263 338/287/264
f 338/287/264 333/286/263 331/288/265 336/289/266
f 352/40/267 347/290/268 350/291/268 355/292/267
f 355/292/269 350/291/270 349/42/271 354/40/272
f 354/293/272 349/294/271 348/295/273 353/296/274
f 353/296/274 348/295/273 346/297/275 351/298/276
f 366/34/277 18/36/278 364/299/278 369/34/277
f 369/34/279 364/299/280 363/300/281 368/34/282
f 368/301/282 363/302/281 362/303/283 367/304/284
f 367/304/284 362/303/283 361/305/285 365/306/286
f 381/307/287 376/308/288 379/308/288 384/28/287
f 384/28/289 379/308/290 378/308/291 383/309/292
f 383/310/292 378/311/291 377/312/293 382/313/294
f 382/313/294 377/312/293 375/314/295 380/315/296
f 396/22/297 391/316/298 394/317/298 399/22/297
f 399/22/299 394/317/300 393/24/301 398/318/302
f 398/319/302 393/320/301 392/321/303 397/322/304
f 397/322/304 392/321/303 390/323/305 395/324/306
f 411/325/307 406/326/308 409/327/308 414/328/307
f 414/328/309 409/327/310 408/18/311 413/328/312
f 413/329/312 408/330/311 407/331/313 412/332/314
f 412/332/314 407/331/313 405/333/315 410/334/316
f 426/335/317 421/12/318 424/336/318 429/10/317
f 429/10/319 424/336/320 423/337/321 428/335/322
f 428/338/322 423/339/321 422/340/323 427/341/324
f 427/341/324 422/340/323 420/342/325 425/343/326
f 357/38/327 352/40/267 355/292/267 360/344/327
f 360/344/328 355/292/269 354/40/272 359/345/329
f 359/346/329 354/293/272 353/296/274 358/347/330
f 358/347/330 353/296/274 351/298/276 356/348/331
f 371/349/332 366/34/277 369/34/277 374/350/332
f 374/350/333 369/34/279 368/34/282 373/32/334
f 373/351/334 368/301/282 367/304/284 372/352/335
f 372/352/335 367/304/284 365/306/286 370/353/336
f 386/354/337 381/307/287 384/28/287 389/354/337
f 389/354/338 384/28/289 383/309/292 388/355/339
f 388/356/339 383/310/292 382/313/294 387/357/340
f 387/357/340 382/313/294 380/315/296 385/358/341
f 401/20/342 396/22/297 399/22/297 404/359/342
f 404/359/343 399/22/299 398/318/302 403/360/344
f 403/361/344 398/319/302 397/322/304 402/362/345
f 402/362/345 397/322/304 395/324/306 400/363/346
f 416/14/347 411/325/307 414/328/307 419/364/347
f 419/364/348 414/328/309 413/328/312 418/365/349
f 418/366/349 413/329/312 412/332/314 417/367/350
f 417/367/350 412/332/314 410/334/316 415/368/351
f 431/369/352 426/335/317 429/10/317 434/370/352
f 434/370/353 429/10/319 428/335/322 433/370/354
f 433/371/354 428/338/322 427/341/324 432/372/355
f 432/372/355 427/341/324 425/343/326 430/373/356
f 441/374/357 435/6/358 437/375/358 444/376/357
f 444/376/359 437/375/360 438/377/361 443/4/362
f 443/378/362 438/379/361 439/380/363 442/381/364
f 442/381/364 439/380/363 436/382/365 440/383/366
f 297/62/367 292/66/227 295/249/227 300/62/367
f 300/62/368 295/249/229 294/251/232 299/62/369
f 299/384/369 294/252/232 293/255/234 298/385/370
f 298/385/370 293/255/234 291/257/236 296/386/371
f 312/56/372 307/58/237 310/260/237 315/387/372
f 315/387/373 310/260/239 309/58/242 314/56/374
f 314/388/374 309/262/242 308/265/244 313/389/375
f 313/389/375 308/265/244 306/267/246 311/390/376
f 327/50/377 322/268/247 325/271/247 330/391/377
f 330/391/378 325/271/249 324/268/252 329/50/379
f 329/392/379 324/273/252 323/276/254 328/393/380
f 328/393/380 323/276/254 321/278/256 326/394/381
f 342/395/382 337/279/257 340/281/257 345/395/382
f 345/395/383 340/281/259 339/283/262 344/396/384
f 344/397/384 339/284/262 338/287/264 343/398/385
f 343/398/385 338/287/264 336/289/266 341/399/386
f 406/326/308 401/20/342 404/359/342 409/327/308
f 409/327/310 404/359/343 403/360/344 408/18/311
f 408/330/311 403/361/344 402/362/345 407/331/313
f 407/331/313 402/362/345 400/363/346 405/333/315
f 421/12/318 416/14/347 419/364/347 424/336/318
f 424/336/320 419/364/348 418/365/349 423/337/321
f 423/339/321 418/366/349 417/367/350 422/340/323
f 422/340/323 417/367/350 415/368/351 420/342/325
f 435/6/358 431/369/352 434/370/352 437/375/358
f 437/375/360 434/370/353 433/370/354 438/377/361
f 438/379/361 433/371/354 432/372/355 439/380/363
f 439/380/363 432/372/355 430/373/356 436/382/365
f 446/400/228 441/374/357 444/376/357 449/401/228
f 449/401/230 444/376/359 443/4/362 448/402/231
f 448/253/231 443/378/362 442/381/364 447/254/233
f 447/254/233 442/381/364 440/383/366 445/256/235
f 301/258/238 297/62/367 300/62/367 303/259/238
f 303/259/240 300/62/368 299/62/369 304/261/241
f 304/263/241 299/384/369 298/385/370 305/264/243
f 305/264/243 298/385/370 296/386/371 302/266/245
f 317/269/248 312/56/372 315/387/372 320/270/248
f 320/270/250 315/387/373 314/56/374 319/272/251
f 319/274/251 314/388/374 313/389/375 318/275/253
f 318/275/253 313/389/375 311/390/376 316/277/255
f 332/48/258 327/50/377 330/391/377 335/280/258
f 335/280/260 330/391/378 329/50/379 334/282/261
f 334/285/261 329/392/379 328/393/380 333/286/263
f 333/286/263 328/393/380 326/394/381 331/288/265
f 347/290/268 342/395/382 345/395/382 350/291/268
f 350/291/270 345/395/383 344/396/384 349/42/271
f 349/294/271 344/397/384 343/398/385 348/295/273
f 348/295/273 343/398/385 341/399/386 346/297/275
f 18/36/278 357/38/327 360/344/327 364/299/278
f 364/299/280 360/344/328 359/345/329 363/300/281
f 363/302/281 359/346/329 358/347/330 362/303/283
f 362/303/283 358/347/330 356/348/331 361/305/285
f 376/308/288 371/349/332 374/350/332 379/308/288
f 379/308/290 374/350/333 373/32/334 378/308/291
f 378/311/291 373/351/334 372/352/335 377/312/293
f 377/312/293 372/352/335 370/353/336 375/314/295
f 391/316/298 386/354/337 389/354/337 394/317/298
f 394/317/300 389/354/338 388/355/339 393/24/301
f 393/320/301 388/356/339 387/357/340 392/321/303
f 392/321/303 387/357/340 385/358/341 390/323/305
f 445/256/235 440/383/366 436/382/365 430/373/356 425/343/326 420/342/325 415/368/351 410/334/316 405/333/315 400/363/346 395/324/306 390/323/305 385/358/341 380/315/296 375/314/295 370/353/336 365/306/286 361/305/285 356/348/331 351/298/276 346/297/275 341/399/386 336/289/266 331/288/265 326/394/381 321/278/256 316/277/255 311/390/376 306/267/246 302/266/245 296/386/371 291/257/236
