# Blender 4.5.1 LTS
# www.blender.org
o APDS
v -0.000000 0.170000 -0.050243
v -0.000001 0.366300 -0.033695
v 0.009802 0.170000 -0.049278
v 0.006573 0.366300 -0.033047
v 0.019227 0.170000 -0.046419
v 0.012894 0.366300 -0.031130
v 0.027913 0.170000 -0.041776
v 0.018719 0.366300 -0.028016
v 0.035527 0.170000 -0.035527
v 0.023825 0.366300 -0.023826
v 0.041776 0.170000 -0.027914
v 0.028016 0.366300 -0.018720
v 0.046418 0.170000 -0.019227
v 0.031129 0.366300 -0.012894
v 0.049278 0.170000 -0.009802
v 0.033047 0.366300 -0.006574
v 0.050243 0.170000 0.000000
v 0.033694 0.366300 0.000000
v 0.049278 0.170000 0.009802
v 0.033047 0.366300 0.006574
v 0.046418 0.170000 0.019227
v 0.031129 0.366300 0.012894
v 0.041776 0.170000 0.027914
v 0.028016 0.366300 0.018720
v 0.035527 0.170000 0.035527
v 0.023825 0.366300 0.023826
v 0.027913 0.170000 0.041776
v 0.018719 0.366300 0.028016
v 0.019227 0.170000 0.046419
v 0.012894 0.366300 0.031130
v 0.009802 0.170000 0.049278
v 0.006573 0.366300 0.033047
v -0.000000 0.170000 0.050243
v -0.000001 0.366300 0.033695
v -0.009802 0.170000 0.049278
v -0.006574 0.366300 0.033047
v -0.019228 0.170000 0.046419
v -0.012895 0.366300 0.031130
v -0.027914 0.170000 0.041776
v -0.018720 0.366300 0.028016
v -0.035528 0.170000 0.035527
v -0.023826 0.366300 0.023826
v -0.041776 0.170000 0.027914
v -0.028017 0.366300 0.018720
v -0.046419 0.170000 0.019227
v -0.031130 0.366300 0.012894
v -0.049278 0.170000 0.009802
v -0.033048 0.366300 0.006574
v -0.050244 0.170000 0.000000
v -0.033695 0.366300 0.000000
v -0.049278 0.170000 -0.009802
v -0.033048 0.366300 -0.006574
v -0.046419 0.170000 -0.019227
v -0.031130 0.366300 -0.012894
v -0.041776 0.170000 -0.027914
v -0.028017 0.366300 -0.018720
v -0.035528 0.170000 -0.035527
v -0.023826 0.366300 -0.023826
v -0.027914 0.170000 -0.041776
v -0.018720 0.366300 -0.028016
v -0.019228 0.170000 -0.046419
v -0.012895 0.366300 -0.031130
v -0.009802 0.170000 -0.049278
v -0.006574 0.366300 -0.033047
v -0.000000 0.366300 -0.035100
v 0.006847 0.366300 -0.034425
v 0.013432 0.366300 -0.032428
v 0.019500 0.366300 -0.029184
v 0.024819 0.366300 -0.024819
v 0.029184 0.366300 -0.019500
v 0.032427 0.366300 -0.013432
v 0.034425 0.366300 -0.006848
v 0.035099 0.366300 0.000000
v 0.034425 0.366300 0.006848
v 0.032427 0.366300 0.013432
v 0.029184 0.366300 0.019500
v 0.024819 0.366300 0.024819
v 0.019500 0.366300 0.029184
v 0.013432 0.366300 0.032428
v 0.006847 0.366300 0.034425
v -0.000000 0.366300 0.035100
v -0.006848 0.366300 0.034425
v -0.013433 0.366300 0.032428
v -0.019501 0.366300 0.029184
v -0.024820 0.366300 0.024819
v -0.029185 0.366300 0.019500
v -0.032428 0.366300 0.013432
v -0.034426 0.366300 0.006848
v -0.035100 0.366300 0.000000
v -0.034426 0.366300 -0.006848
v -0.032428 0.366300 -0.013432
v -0.029185 0.366300 -0.019500
v -0.024820 0.366300 -0.024819
v -0.019501 0.366300 -0.029184
v -0.013433 0.366300 -0.032428
v -0.006848 0.366300 -0.034425
v -0.000001 0.390000 -0.030639
v 0.005977 0.390000 -0.030050
v 0.011724 0.390000 -0.028306
v 0.017021 0.390000 -0.025475
v 0.021664 0.390000 -0.021665
v 0.025474 0.390000 -0.017022
v 0.028306 0.390000 -0.011725
v 0.030049 0.390000 -0.005977
v 0.030638 0.390000 0.000000
v 0.030049 0.390000 0.005977
v 0.028306 0.390000 0.011725
v 0.025474 0.390000 0.017022
v 0.021664 0.390000 0.021665
v 0.017021 0.390000 0.025475
v 0.011724 0.390000 0.028306
v 0.005977 0.390000 0.030050
v -0.000001 0.390000 0.030639
v -0.005978 0.390000 0.030050
v -0.011725 0.390000 0.028306
v -0.017022 0.390000 0.025475
v -0.021665 0.390000 0.021665
v -0.025476 0.390000 0.017022
v -0.028307 0.390000 0.011725
v -0.030050 0.390000 0.005977
v -0.030639 0.390000 0.000000
v -0.030050 0.390000 -0.005977
v -0.028307 0.390000 -0.011725
v -0.025476 0.390000 -0.017022
v -0.021665 0.390000 -0.021665
v -0.017022 0.390000 -0.025475
v -0.011725 0.390000 -0.028306
v -0.005978 0.390000 -0.030050
v -0.000001 0.412000 -0.026279
v 0.005126 0.412000 -0.025774
v 0.010056 0.412000 -0.024278
v 0.014599 0.412000 -0.021850
v 0.018581 0.412000 -0.018582
v 0.021849 0.412000 -0.014600
v 0.024278 0.412000 -0.010056
v 0.025773 0.412000 -0.005127
v 0.026278 0.412000 0.000000
v 0.025773 0.412000 0.005127
v 0.024278 0.412000 0.010056
v 0.021849 0.412000 0.014600
v 0.018581 0.412000 0.018582
v 0.014599 0.412000 0.021850
v 0.010056 0.412000 0.024278
v 0.005126 0.412000 0.025774
v -0.000001 0.412000 0.026279
v -0.005127 0.412000 0.025774
v -0.010057 0.412000 0.024278
v -0.014600 0.412000 0.021850
v -0.018582 0.412000 0.018582
v -0.021851 0.412000 0.014600
v -0.024279 0.412000 0.010056
v -0.025774 0.412000 0.005127
v -0.026279 0.412000 0.000000
v -0.025774 0.412000 -0.005127
v -0.024279 0.412000 -0.010056
v -0.021851 0.412000 -0.014600
v -0.018582 0.412000 -0.018582
v -0.014600 0.412000 -0.021850
v -0.010057 0.412000 -0.024278
v -0.005127 0.412000 -0.025774
v -0.000001 0.438000 -0.019396
v 0.003783 0.438000 -0.019024
v 0.007422 0.438000 -0.017920
v 0.010775 0.438000 -0.016127
v 0.013715 0.438000 -0.013715
v 0.016127 0.438000 -0.010776
v 0.017919 0.438000 -0.007423
v 0.019023 0.438000 -0.003784
v 0.019396 0.438000 0.000000
v 0.019023 0.438000 0.003784
v 0.017919 0.438000 0.007423
v 0.016127 0.438000 0.010776
v 0.013715 0.438000 0.013715
v 0.010775 0.438000 0.016127
v 0.007422 0.438000 0.017920
v 0.003783 0.438000 0.019024
v -0.000001 0.438000 0.019396
v -0.003785 0.438000 0.019024
v -0.007423 0.438000 0.017920
v -0.010777 0.438000 0.016127
v -0.013716 0.438000 0.013715
v -0.016128 0.438000 0.010776
v -0.017920 0.438000 0.007423
v -0.019024 0.438000 0.003784
v -0.019397 0.438000 0.000000
v -0.019024 0.438000 -0.003784
v -0.017920 0.438000 -0.007423
v -0.016128 0.438000 -0.010776
v -0.013716 0.438000 -0.013715
v -0.010777 0.438000 -0.016127
v -0.007423 0.438000 -0.017920
v -0.003785 0.438000 -0.019024
v -0.000001 0.450000 -0.015391
v 0.003002 0.450000 -0.015095
v 0.005889 0.450000 -0.014220
v 0.008550 0.450000 -0.012797
v 0.010883 0.450000 -0.010883
v 0.012797 0.450000 -0.008551
v 0.014219 0.450000 -0.005890
v 0.015095 0.450000 -0.003003
v 0.015390 0.450000 0.000000
v 0.015095 0.450000 0.003003
v 0.014219 0.450000 0.005890
v 0.012797 0.450000 0.008551
v 0.010883 0.450000 0.010883
v 0.008550 0.450000 0.012797
v 0.005889 0.450000 0.014220
v 0.003002 0.450000 0.015095
v -0.000001 0.450000 0.015391
v -0.003003 0.450000 0.015095
v -0.005891 0.450000 0.014220
v -0.008552 0.450000 0.012797
v -0.010884 0.450000 0.010883
v -0.012798 0.450000 0.008551
v -0.014220 0.450000 0.005890
v -0.015096 0.450000 0.003003
v -0.015392 0.450000 0.000000
v -0.015096 0.450000 -0.003003
v -0.014220 0.450000 -0.005890
v -0.012798 0.450000 -0.008551
v -0.010884 0.450000 -0.010883
v -0.008552 0.450000 -0.012797
v -0.005891 0.450000 -0.014220
v -0.003003 0.450000 -0.015095
v -0.000001 0.455000 -0.013222
v 0.002579 0.455000 -0.012968
v 0.005059 0.455000 -0.012216
v 0.007345 0.455000 -0.010994
v 0.009349 0.455000 -0.009350
v 0.010993 0.455000 -0.007346
v 0.012215 0.455000 -0.005060
v 0.012968 0.455000 -0.002580
v 0.013222 0.455000 0.000000
v 0.012968 0.455000 0.002580
v 0.012215 0.455000 0.005060
v 0.010993 0.455000 0.007346
v 0.009349 0.455000 0.009350
v 0.007345 0.455000 0.010994
v 0.005059 0.455000 0.012216
v 0.002579 0.455000 0.012968
v -0.000001 0.455000 0.013222
v -0.002580 0.455000 0.012968
v -0.005061 0.455000 0.012216
v -0.007347 0.455000 0.010994
v -0.009350 0.455000 0.009350
v -0.010995 0.455000 0.007346
v -0.012217 0.455000 0.005060
v -0.012969 0.455000 0.002580
v -0.013223 0.455000 0.000000
v -0.012969 0.455000 -0.002580
v -0.012217 0.455000 -0.005060
v -0.010995 0.455000 -0.007346
v -0.009350 0.455000 -0.009350
v -0.007347 0.455000 -0.010994
v -0.005061 0.455000 -0.012216
v -0.002580 0.455000 -0.012968
v -0.000001 0.460000 -0.010899
v 0.002126 0.460000 -0.010690
v 0.004170 0.460000 -0.010070
v 0.006055 0.460000 -0.009062
v 0.007706 0.460000 -0.007707
v 0.009062 0.460000 -0.006055
v 0.010069 0.460000 -0.004171
v 0.010689 0.460000 -0.002126
v 0.010899 0.460000 0.000000
v 0.010689 0.460000 0.002126
v 0.010069 0.460000 0.004171
v 0.009062 0.460000 0.006055
v 0.007706 0.460000 0.007707
v 0.006055 0.460000 0.009062
v 0.004170 0.460000 0.010070
v 0.002126 0.460000 0.010690
v -0.000001 0.460000 0.010899
v -0.002127 0.460000 0.010690
v -0.004172 0.460000 0.010070
v -0.006056 0.460000 0.009062
v -0.007708 0.460000 0.007707
v -0.009063 0.460000 0.006055
v -0.010070 0.460000 0.004171
v -0.010690 0.460000 0.002126
v -0.010900 0.460000 0.000000
v -0.010690 0.460000 -0.002126
v -0.010070 0.460000 -0.004171
v -0.009063 0.460000 -0.006055
v -0.007708 0.460000 -0.007707
v -0.006056 0.460000 -0.009062
v -0.004172 0.460000 -0.010070
v -0.002127 0.460000 -0.010690
v -0.000001 0.463000 -0.009101
v 0.001775 0.463000 -0.008926
v 0.003482 0.463000 -0.008408
v 0.005055 0.463000 -0.007567
v 0.006435 0.463000 -0.006435
v 0.007566 0.463000 -0.005056
v 0.008407 0.463000 -0.003483
v 0.008925 0.463000 -0.001776
v 0.009100 0.463000 0.000000
v 0.008925 0.463000 0.001776
v 0.008407 0.463000 0.003483
v 0.007566 0.463000 0.005056
v 0.006435 0.463000 0.006435
v 0.005055 0.463000 0.007567
v 0.003482 0.463000 0.008408
v 0.001775 0.463000 0.008926
v -0.000001 0.463000 0.009101
v -0.001776 0.463000 0.008926
v -0.003484 0.463000 0.008408
v -0.005057 0.463000 0.007567
v -0.006436 0.463000 0.006435
v -0.007568 0.463000 0.005056
v -0.008409 0.463000 0.003483
v -0.008927 0.463000 0.001776
v -0.009102 0.463000 0.000000
v -0.008927 0.463000 -0.001776
v -0.008409 0.463000 -0.003483
v -0.007568 0.463000 -0.005056
v -0.006436 0.463000 -0.006435
v -0.005057 0.463000 -0.007567
v -0.003484 0.463000 -0.008408
v -0.001776 0.463000 -0.008926
v -0.000001 0.466000 -0.006869
v 0.001339 0.466000 -0.006737
v 0.002628 0.466000 -0.006346
v 0.003816 0.466000 -0.005712
v 0.004856 0.466000 -0.004857
v 0.005711 0.466000 -0.003816
v 0.006346 0.466000 -0.002629
v 0.006736 0.466000 -0.001340
v 0.006868 0.466000 0.000000
v 0.006736 0.466000 0.001340
v 0.006346 0.466000 0.002629
v 0.005711 0.466000 0.003816
v 0.004856 0.466000 0.004857
v 0.003816 0.466000 0.005712
v 0.002628 0.466000 0.006346
v 0.001339 0.466000 0.006737
v -0.000001 0.466000 0.006869
v -0.001341 0.466000 0.006737
v -0.002629 0.466000 0.006346
v -0.003817 0.466000 0.005712
v -0.004858 0.466000 0.004857
v -0.005712 0.466000 0.003816
v -0.006347 0.466000 0.002629
v -0.006738 0.466000 0.001340
v -0.006870 0.466000 0.000000
v -0.006738 0.466000 -0.001340
v -0.006347 0.466000 -0.002629
v -0.005712 0.466000 -0.003816
v -0.004858 0.466000 -0.004857
v -0.003817 0.466000 -0.005712
v -0.002629 0.466000 -0.006346
v -0.001341 0.466000 -0.006737
v -0.000001 0.468000 -0.004793
v 0.000934 0.468000 -0.004701
v 0.001833 0.468000 -0.004428
v 0.002662 0.468000 -0.003985
v 0.003388 0.468000 -0.003389
v 0.003984 0.468000 -0.002663
v 0.004427 0.468000 -0.001834
v 0.004700 0.468000 -0.000935
v 0.004792 0.468000 0.000000
v 0.004700 0.468000 0.000935
v 0.004427 0.468000 0.001834
v 0.003984 0.468000 0.002663
v 0.003388 0.468000 0.003389
v 0.002662 0.468000 0.003985
v 0.001833 0.468000 0.004428
v 0.000934 0.468000 0.004701
v -0.000001 0.468000 0.004793
v -0.000936 0.468000 0.004701
v -0.001835 0.468000 0.004428
v -0.002663 0.468000 0.003985
v -0.003390 0.468000 0.003389
v -0.003986 0.468000 0.002663
v -0.004429 0.468000 0.001834
v -0.004701 0.468000 0.000935
v -0.004794 0.468000 0.000000
v -0.004701 0.468000 -0.000935
v -0.004429 0.468000 -0.001834
v -0.003986 0.468000 -0.002663
v -0.003390 0.468000 -0.003389
v -0.002663 0.468000 -0.003985
v -0.001835 0.468000 -0.004428
v -0.000936 0.468000 -0.004701
v -0.000001 0.469500 -0.002337
v 0.000455 0.469500 -0.002293
v 0.000894 0.469500 -0.002160
v 0.001298 0.469500 -0.001944
v 0.001652 0.469500 -0.001653
v 0.001943 0.469500 -0.001299
v 0.002159 0.469500 -0.000894
v 0.002292 0.469500 -0.000456
v 0.002336 0.469500 0.000000
v 0.002292 0.469500 0.000456
v 0.002159 0.469500 0.000894
v 0.001943 0.469500 0.001299
v 0.001652 0.469500 0.001653
v 0.001298 0.469500 0.001944
v 0.000894 0.469500 0.002160
v 0.000455 0.469500 0.002293
v -0.000001 0.469500 0.002337
v -0.000457 0.469500 0.002293
v -0.000895 0.469500 0.002160
v -0.001300 0.469500 0.001944
v -0.001654 0.469500 0.001653
v -0.001944 0.469500 0.001299
v -0.002160 0.469500 0.000894
v -0.002293 0.469500 0.000456
v -0.002338 0.469500 0.000000
v -0.002293 0.469500 -0.000456
v -0.002160 0.469500 -0.000894
v -0.001944 0.469500 -0.001299
v -0.001654 0.469500 -0.001653
v -0.001300 0.469500 -0.001944
v -0.000895 0.469500 -0.002160
v -0.000457 0.469500 -0.002293
v -0.000001 0.470000 0.000000
v -0.000001 0.470000 0.000000
v -0.000001 0.470000 0.000000
v -0.000001 0.470000 0.000000
v -0.000001 0.470000 0.000000
v -0.000001 0.470000 0.000000
v -0.000001 0.470000 0.000000
v -0.000001 0.470000 0.000000
v -0.000001 0.470000 0.000000
v -0.000001 0.470000 0.000000
v -0.000001 0.470000 0.000000
v -0.000001 0.470000 0.000000
v -0.000001 0.470000 0.000000
v -0.000001 0.470000 0.000000
v -0.000001 0.470000 0.000000
v -0.000001 0.470000 0.000000
v -0.000001 0.470000 0.000000
v -0.000001 0.470000 0.000000
v -0.000001 0.470000 0.000000
v -0.000001 0.470000 0.000000
v -0.000001 0.470000 0.000000
v -0.000001 0.470000 0.000000
v -0.000001 0.470000 0.000000
v -0.000001 0.470000 0.000000
v -0.000001 0.470000 0.000000
v -0.000001 0.470000 0.000000
v -0.000001 0.470000 0.000000
v -0.000001 0.470000 0.000000
v -0.000001 0.470000 0.000000
v -0.000001 0.470000 0.000000
v -0.000001 0.470000 0.000000
v -0.000001 0.470000 0.000000
v -0.000001 0.160000 -0.030572
v 0.005964 0.160000 -0.029985
v 0.011699 0.160000 -0.028245
v 0.016985 0.160000 -0.025420
v 0.021617 0.160000 -0.021618
v 0.025419 0.160000 -0.016985
v 0.028245 0.160000 -0.011700
v 0.029984 0.160000 -0.005964
v 0.030572 0.160000 0.000000
v 0.029984 0.160000 0.005964
v 0.028245 0.160000 0.011700
v 0.025419 0.160000 0.016985
v 0.021617 0.160000 0.021618
v 0.016985 0.160000 0.025420
v 0.011699 0.160000 0.028245
v 0.005964 0.160000 0.029985
v -0.000001 0.160000 0.030572
v -0.005965 0.160000 0.029985
v -0.011700 0.160000 0.028245
v -0.016986 0.160000 0.025420
v -0.021618 0.160000 0.021618
v -0.025420 0.160000 0.016985
v -0.028246 0.160000 0.011700
v -0.029985 0.160000 0.005964
v -0.030573 0.160000 0.000000
v -0.029985 0.160000 -0.005964
v -0.028246 0.160000 -0.011700
v -0.025420 0.160000 -0.016985
v -0.021618 0.160000 -0.021618
v -0.016986 0.160000 -0.025420
v -0.011700 0.160000 -0.028245
v -0.005965 0.160000 -0.029985
v -0.000001 0.160000 -0.007781
v 0.001517 0.160000 -0.007631
v 0.002977 0.160000 -0.007189
v 0.004322 0.160000 -0.006470
v 0.005501 0.160000 -0.005502
v 0.006469 0.160000 -0.004323
v 0.007188 0.160000 -0.002978
v 0.007630 0.160000 -0.001518
v 0.007780 0.160000 0.000000
v 0.007630 0.160000 0.001518
v 0.007188 0.160000 0.002978
v 0.006469 0.160000 0.004323
v 0.005501 0.160000 0.005502
v 0.004322 0.160000 0.006470
v 0.002977 0.160000 0.007189
v 0.001517 0.160000 0.007631
v -0.000001 0.160000 0.007781
v -0.001519 0.160000 0.007631
v -0.002979 0.160000 0.007189
v -0.004324 0.160000 0.006470
v -0.005503 0.160000 0.005502
v -0.006471 0.160000 0.004323
v -0.007190 0.160000 0.002978
v -0.007632 0.160000 0.001518
v -0.007782 0.160000 0.000000
v -0.007632 0.160000 -0.001518
v -0.007190 0.160000 -0.002978
v -0.006471 0.160000 -0.004323
v -0.005503 0.160000 -0.005502
v -0.004324 0.160000 -0.006470
v -0.002979 0.160000 -0.007189
v -0.001519 0.160000 -0.007631
v -0.000001 0.150000 0.000000
v -0.000001 0.150000 -0.007781
v 0.001517 0.150000 -0.007631
v 0.002977 0.150000 -0.007189
v 0.004322 0.150000 -0.006470
v 0.005501 0.150000 -0.005502
v 0.006469 0.150000 -0.004323
v 0.007188 0.150000 -0.002978
v 0.007630 0.150000 -0.001518
v 0.007780 0.150000 0.000000
v 0.007630 0.150000 0.001518
v 0.007188 0.150000 0.002978
v 0.006469 0.150000 0.004323
v 0.005501 0.150000 0.005502
v 0.004322 0.150000 0.006470
v 0.002977 0.150000 0.007189
v 0.001517 0.150000 0.007631
v -0.000001 0.150000 0.007781
v -0.001519 0.150000 0.007631
v -0.002979 0.150000 0.007189
v -0.004324 0.150000 0.006470
v -0.005503 0.150000 0.005502
v -0.006471 0.150000 0.004323
v -0.007190 0.150000 0.002978
v -0.007632 0.150000 0.001518
v -0.007782 0.150000 0.000000
v -0.007632 0.150000 -0.001518
v -0.007190 0.150000 -0.002978
v -0.006471 0.150000 -0.004323
v -0.005503 0.150000 -0.005502
v -0.004324 0.150000 -0.006470
v -0.002979 0.150000 -0.007189
v -0.001519 0.150000 -0.007631
vn -0.0000 0.0840 -0.9965
vn 0.1944 0.0840 -0.9773
vn 0.3813 0.0840 -0.9206
vn 0.5536 0.0840 -0.8285
vn 0.7046 0.0840 -0.7046
vn 0.8285 0.0840 -0.5536
vn 0.9206 0.0840 -0.3813
vn 0.9773 0.0840 -0.1944
vn 0.9965 0.0840 -0.0000
vn 0.9773 0.0840 0.1944
vn 0.9206 0.0840 0.3813
vn 0.8285 0.0840 0.5536
vn 0.7046 0.0840 0.7046
vn 0.5536 0.0840 0.8285
vn 0.3813 0.0840 0.9206
vn 0.1944 0.0840 0.9773
vn -0.0000 0.0840 0.9965
vn -0.1944 0.0840 0.9773
vn -0.3813 0.0840 0.9206
vn -0.5536 0.0840 0.8285
vn -0.7046 0.0840 0.7046
vn -0.8285 0.0840 0.5536
vn -0.9206 0.0840 0.3813
vn -0.9773 0.0840 0.1944
vn -0.9965 0.0840 -0.0000
vn -0.9773 0.0840 -0.1944
vn -0.9206 0.0840 -0.3813
vn -0.8285 0.0840 -0.5536
vn -0.7046 0.0840 -0.7046
vn -0.5536 0.0840 -0.8285
vn -0.3813 0.0840 -0.9206
vn -0.0000 -1.0000 -0.0000
vn -0.1944 0.0840 -0.9773
vn 0.4187 -0.8914 -0.1734
vn 0.4445 -0.8914 -0.0884
vn -0.3761 0.1850 0.9079
vn -0.1917 0.1850 0.9639
vn -0.1916 0.1896 0.9630
vn -0.3757 0.1896 0.9071
vn -0.8164 0.1896 0.5455
vn -0.6943 0.1896 0.6943
vn -0.6890 0.2248 0.6890
vn -0.8102 0.2248 0.5413
vn 0.8171 0.1850 -0.5460
vn 0.6949 0.1850 -0.6949
vn 0.6943 0.1896 -0.6943
vn 0.8164 0.1896 -0.5455
vn -0.0000 0.1850 -0.9827
vn -0.1917 0.1850 -0.9639
vn -0.1916 0.1896 -0.9630
vn -0.0000 0.1896 -0.9819
vn -0.5460 0.1850 0.8171
vn -0.5455 0.1896 0.8164
vn 0.9079 0.1850 -0.3761
vn 0.9071 0.1896 -0.3757
vn -0.6949 0.1850 0.6949
vn 0.9639 0.1850 -0.1917
vn 0.9630 0.1896 -0.1915
vn -0.8171 0.1850 0.5460
vn 0.9827 0.1850 -0.0000
vn 0.9819 0.1896 -0.0000
vn -0.9079 0.1850 0.3761
vn -0.9071 0.1896 0.3757
vn 0.9639 0.1850 0.1917
vn 0.9630 0.1896 0.1915
vn -0.9639 0.1850 0.1917
vn -0.9630 0.1896 0.1916
vn 0.9079 0.1850 0.3761
vn 0.9071 0.1896 0.3757
vn -0.9827 0.1850 -0.0000
vn -0.9819 0.1896 -0.0000
vn 0.8171 0.1850 0.5460
vn 0.8164 0.1896 0.5455
vn -0.9639 0.1850 -0.1917
vn -0.9630 0.1896 -0.1916
vn 0.6949 0.1850 0.6949
vn 0.6943 0.1896 0.6943
vn -0.9079 0.1850 -0.3761
vn -0.9071 0.1896 -0.3757
vn 0.5460 0.1850 0.8171
vn 0.5455 0.1896 0.8164
vn -0.8171 0.1850 -0.5460
vn -0.8164 0.1896 -0.5455
vn 0.3761 0.1850 0.9079
vn 0.3757 0.1896 0.9071
vn 0.1917 0.1850 -0.9639
vn 0.1916 0.1896 -0.9630
vn -0.6949 0.1850 -0.6949
vn -0.6943 0.1896 -0.6943
vn 0.1917 0.1850 0.9639
vn 0.1916 0.1896 0.9630
vn 0.3761 0.1850 -0.9079
vn 0.3757 0.1896 -0.9071
vn -0.5460 0.1850 -0.8171
vn -0.5455 0.1896 -0.8164
vn -0.0000 0.1850 0.9827
vn -0.0000 0.1896 0.9819
vn 0.5460 0.1850 -0.8171
vn 0.5455 0.1896 -0.8164
vn -0.3761 0.1850 -0.9079
vn -0.3757 0.1896 -0.9071
vn -0.9744 0.2248 -0.0000
vn -0.9557 0.2248 0.1901
vn -0.9399 0.2858 0.1870
vn -0.9583 0.2858 -0.0000
vn 0.9557 0.2248 -0.1901
vn 0.9744 0.2248 -0.0000
vn -0.9002 0.2248 0.3729
vn 0.9557 0.2248 0.1901
vn 0.9002 0.2248 0.3729
vn 0.8102 0.2248 0.5413
vn -0.9557 0.2248 -0.1901
vn 0.6890 0.2248 0.6890
vn -0.9002 0.2248 -0.3729
vn 0.5413 0.2248 0.8102
vn -0.8102 0.2248 -0.5413
vn 0.3729 0.2248 0.9002
vn -0.0000 0.2248 -0.9744
vn 0.1901 0.2248 -0.9557
vn -0.6890 0.2248 -0.6890
vn 0.1901 0.2248 0.9557
vn 0.3729 0.2248 -0.9002
vn -0.5413 0.2248 -0.8102
vn -0.0000 0.2248 0.9744
vn 0.5413 0.2248 -0.8102
vn -0.3729 0.2248 -0.9002
vn -0.1901 0.2248 0.9557
vn 0.6890 0.2248 -0.6890
vn -0.1901 0.2248 -0.9557
vn -0.3729 0.2248 0.9002
vn 0.8102 0.2248 -0.5413
vn -0.5413 0.2248 0.8102
vn 0.9002 0.2248 -0.3729
vn -0.7968 0.2858 -0.5324
vn -0.8853 0.2858 -0.3667
vn -0.8631 0.3567 -0.3575
vn -0.7768 0.3567 -0.5190
vn 0.8853 0.2858 0.3667
vn 0.7968 0.2858 0.5324
vn -0.9399 0.2858 -0.1870
vn 0.6776 0.2858 0.6776
vn 0.5324 0.2858 0.7968
vn 0.3667 0.2858 0.8853
vn -0.0000 0.2858 -0.9583
vn 0.1870 0.2858 -0.9399
vn -0.6776 0.2858 -0.6776
vn 0.1870 0.2858 0.9399
vn 0.3667 0.2858 -0.8853
vn -0.5324 0.2858 -0.7968
vn -0.0000 0.2858 0.9583
vn 0.5324 0.2858 -0.7968
vn -0.3667 0.2858 -0.8853
vn -0.1870 0.2858 0.9399
vn 0.6776 0.2858 -0.6776
vn -0.1870 0.2858 -0.9399
vn -0.3667 0.2858 0.8853
vn 0.7968 0.2858 -0.5324
vn -0.5324 0.2858 0.7968
vn 0.8853 0.2858 -0.3667
vn -0.6776 0.2858 0.6776
vn 0.9399 0.2858 -0.1870
vn -0.7968 0.2858 0.5324
vn 0.9583 0.2858 -0.0000
vn -0.8853 0.2858 0.3667
vn 0.9399 0.2858 0.1870
vn 0.5190 0.3567 -0.7768
vn 0.3575 0.3567 -0.8631
vn 0.3491 0.4094 -0.8429
vn 0.5069 0.4094 -0.7586
vn 0.5190 0.3567 0.7768
vn 0.3575 0.3567 0.8631
vn -0.0000 0.3567 -0.9342
vn 0.1823 0.3567 -0.9163
vn -0.6606 0.3567 -0.6606
vn 0.1823 0.3567 0.9163
vn -0.5190 0.3567 -0.7768
vn -0.0000 0.3567 0.9342
vn -0.3575 0.3567 -0.8631
vn -0.1823 0.3567 0.9163
vn 0.6606 0.3567 -0.6606
vn -0.1823 0.3567 -0.9163
vn -0.3575 0.3567 0.8631
vn 0.7768 0.3567 -0.5190
vn -0.5190 0.3567 0.7768
vn 0.8631 0.3567 -0.3575
vn -0.6606 0.3567 0.6606
vn 0.9163 0.3567 -0.1823
vn -0.7768 0.3567 0.5190
vn 0.9342 0.3567 -0.0000
vn -0.8631 0.3567 0.3575
vn 0.9163 0.3567 0.1823
vn -0.9163 0.3567 0.1823
vn 0.8631 0.3567 0.3575
vn -0.9342 0.3567 -0.0000
vn 0.7768 0.3567 0.5190
vn -0.9163 0.3567 -0.1823
vn 0.6606 0.3567 0.6606
vn 0.8429 0.4094 -0.3491
vn 0.7586 0.4094 -0.5069
vn 0.7352 0.4671 -0.4913
vn 0.8169 0.4671 -0.3384
vn -0.5069 0.4094 -0.7586
vn -0.3491 0.4094 -0.8429
vn -0.0000 0.4094 0.9124
vn -0.1780 0.4094 0.8948
vn 0.6451 0.4094 -0.6451
vn -0.1780 0.4094 -0.8948
vn -0.3491 0.4094 0.8429
vn -0.0000 0.4094 -0.9124
vn -0.5069 0.4094 0.7586
vn -0.6451 0.4094 0.6451
vn 0.8948 0.4094 -0.1780
vn -0.7586 0.4094 0.5069
vn 0.9124 0.4094 -0.0000
vn -0.8429 0.4094 0.3491
vn 0.8948 0.4094 0.1780
vn -0.8948 0.4094 0.1780
vn 0.8429 0.4094 0.3491
vn -0.9124 0.4094 -0.0000
vn 0.7586 0.4094 0.5069
vn -0.8948 0.4094 -0.1780
vn 0.6451 0.4094 0.6451
vn -0.8429 0.4094 -0.3491
vn 0.5069 0.4094 0.7586
vn -0.7586 0.4094 -0.5069
vn 0.3491 0.4094 0.8429
vn 0.1780 0.4094 -0.8948
vn -0.6451 0.4094 -0.6451
vn 0.1780 0.4094 0.8948
vn 0.8672 0.4671 0.1725
vn 0.8842 0.4671 -0.0000
vn 0.8320 0.5548 -0.0000
vn 0.8160 0.5548 0.1623
vn -0.4913 0.4670 0.7352
vn -0.6252 0.4670 0.6252
vn 0.8672 0.4671 -0.1725
vn -0.7352 0.4670 0.4913
vn -0.8169 0.4670 0.3384
vn -0.8672 0.4670 0.1725
vn 0.8169 0.4671 0.3384
vn -0.8842 0.4670 -0.0000
vn 0.7352 0.4671 0.4912
vn -0.8672 0.4670 -0.1725
vn 0.6252 0.4671 0.6252
vn -0.8169 0.4670 -0.3384
vn 0.4913 0.4671 0.7352
vn -0.7352 0.4670 -0.4913
vn 0.3384 0.4671 0.8169
vn -0.0000 0.4671 -0.8842
vn 0.1725 0.4671 -0.8672
vn -0.6252 0.4670 -0.6252
vn 0.1725 0.4671 0.8672
vn 0.3384 0.4671 -0.8169
vn -0.4913 0.4670 -0.7352
vn -0.0000 0.4671 0.8842
vn 0.4912 0.4671 -0.7352
vn -0.3384 0.4670 -0.8169
vn -0.1725 0.4670 0.8672
vn 0.6252 0.4671 -0.6252
vn -0.1725 0.4670 -0.8672
vn -0.3384 0.4670 0.8169
vn 0.5883 0.5548 0.5883
vn 0.6918 0.5548 0.4622
vn 0.6259 0.6583 0.4182
vn 0.5323 0.6583 0.5323
vn -0.7687 0.5547 0.3184
vn -0.8160 0.5547 0.1623
vn 0.7687 0.5548 0.3184
vn -0.8320 0.5547 -0.0000
vn -0.8160 0.5547 -0.1623
vn -0.7687 0.5547 -0.3184
vn 0.4622 0.5548 0.6918
vn -0.6918 0.5547 -0.4622
vn 0.3184 0.5548 0.7687
vn -0.0000 0.5548 -0.8320
vn 0.1623 0.5548 -0.8160
vn -0.5883 0.5547 -0.5883
vn 0.1623 0.5548 0.8160
vn 0.3184 0.5548 -0.7687
vn -0.4622 0.5548 -0.6918
vn -0.0000 0.5548 0.8320
vn 0.4622 0.5548 -0.6918
vn -0.3184 0.5548 -0.7687
vn -0.1623 0.5548 0.8160
vn 0.5883 0.5548 -0.5883
vn -0.1623 0.5548 -0.8160
vn -0.3184 0.5548 0.7687
vn 0.6918 0.5548 -0.4622
vn -0.4622 0.5548 0.6918
vn 0.7687 0.5548 -0.3184
vn -0.5883 0.5547 0.5883
vn 0.8160 0.5548 -0.1623
vn -0.6918 0.5547 0.4622
vn 0.1469 0.6583 0.7383
vn 0.2881 0.6583 0.6955
vn 0.2355 0.7882 0.5685
vn 0.1200 0.7882 0.6036
vn -0.7383 0.6583 -0.1469
vn -0.6955 0.6583 -0.2881
vn 0.4182 0.6583 0.6259
vn -0.6259 0.6583 -0.4182
vn -0.0000 0.6583 -0.7528
vn 0.1469 0.6583 -0.7383
vn -0.5323 0.6583 -0.5323
vn 0.2881 0.6583 -0.6955
vn -0.4182 0.6583 -0.6259
vn -0.0000 0.6583 0.7528
vn 0.4182 0.6583 -0.6259
vn -0.2881 0.6583 -0.6955
vn -0.1469 0.6583 0.7383
vn 0.5323 0.6583 -0.5323
vn -0.1469 0.6583 -0.7383
vn -0.2881 0.6583 0.6955
vn 0.6259 0.6583 -0.4182
vn -0.4182 0.6583 0.6259
vn 0.6955 0.6583 -0.2881
vn -0.5323 0.6583 0.5323
vn 0.7383 0.6583 -0.1469
vn -0.6259 0.6583 0.4182
vn 0.7528 0.6583 -0.0000
vn -0.6955 0.6583 0.2881
vn 0.7383 0.6583 0.1469
vn -0.7383 0.6583 0.1469
vn 0.6955 0.6583 0.2881
vn -0.7528 0.6583 -0.0000
vn -0.2355 0.7882 0.5685
vn -0.1200 0.7882 0.6036
vn -0.0741 0.9252 0.3723
vn -0.1453 0.9252 0.3507
vn 0.1200 0.7882 -0.6036
vn 0.2355 0.7882 -0.5685
vn -0.4351 0.7882 -0.4351
vn -0.3419 0.7882 -0.5117
vn -0.0000 0.7882 0.6154
vn 0.3419 0.7882 -0.5117
vn -0.2355 0.7882 -0.5685
vn 0.4351 0.7882 -0.4351
vn -0.1200 0.7882 -0.6036
vn 0.5117 0.7882 -0.3419
vn -0.0000 0.7882 -0.6154
vn -0.3419 0.7882 0.5117
vn 0.5685 0.7882 -0.2355
vn -0.4351 0.7882 0.4351
vn 0.6035 0.7882 -0.1201
vn -0.5117 0.7882 0.3419
vn 0.6154 0.7882 -0.0000
vn -0.5686 0.7882 0.2355
vn 0.6035 0.7882 0.1201
vn -0.6036 0.7882 0.1201
vn 0.5685 0.7882 0.2355
vn -0.6154 0.7882 -0.0000
vn 0.5117 0.7882 0.3419
vn -0.6036 0.7882 -0.1201
vn 0.4351 0.7882 0.4351
vn -0.5685 0.7882 -0.2355
vn 0.3419 0.7882 0.5117
vn -0.5117 0.7882 -0.3419
vn -0.3156 0.9252 0.2109
vn -0.2684 0.9252 0.2684
vn -0.0868 0.9919 0.0924
vn -0.1739 0.9779 0.1162
vn 0.2684 0.9252 -0.2684
vn 0.3156 0.9252 -0.2109
vn -0.0741 0.9252 -0.3723
vn -0.0000 0.9252 -0.3796
vn -0.2109 0.9252 0.3156
vn 0.3506 0.9252 -0.1452
vn 0.3722 0.9252 -0.0740
vn 0.3795 0.9252 -0.0000
vn -0.3507 0.9252 0.1453
vn 0.3722 0.9252 0.0740
vn -0.3723 0.9252 0.0741
vn 0.3507 0.9252 0.1452
vn -0.3796 0.9252 -0.0000
vn 0.3156 0.9252 0.2109
vn -0.3723 0.9252 -0.0741
vn 0.2683 0.9252 0.2684
vn -0.3507 0.9252 -0.1453
vn 0.2109 0.9252 0.3156
vn -0.3156 0.9252 -0.2109
vn 0.1452 0.9252 0.3507
vn 0.0741 0.9252 -0.3723
vn -0.2684 0.9252 -0.2684
vn 0.0741 0.9252 0.3723
vn 0.1453 0.9252 -0.3507
vn -0.2109 0.9252 -0.3156
vn -0.0000 0.9252 0.3796
vn 0.2109 0.9252 -0.3156
vn -0.1453 0.9252 -0.3507
vn 0.0274 0.9901 -0.1375
vn -0.0000 0.9901 -0.1402
vn -0.0274 0.9901 -0.1375
vn -0.0537 0.9901 -0.1295
vn -0.0779 0.9901 -0.1165
vn -0.0991 0.9901 -0.0991
vn -0.1165 0.9901 -0.0779
vn -0.1350 0.9894 -0.0542
vn -0.1348 0.9905 -0.0259
vn -0.1402 0.9901 -0.0000
vn -0.1400 0.9897 0.0287
vn -0.1933 0.9779 0.0801
vn -0.0779 0.9901 0.1165
vn -0.0537 0.9901 0.1295
vn -0.0274 0.9901 0.1375
vn -0.0000 0.9901 0.1402
vn 0.0274 0.9901 0.1375
vn 0.0537 0.9901 0.1295
vn 0.0779 0.9901 0.1165
vn 0.0867 0.9919 0.0924
vn 0.1739 0.9779 0.1162
vn 0.1933 0.9779 0.0801
vn 0.1400 0.9897 0.0287
vn 0.1402 0.9901 -0.0000
vn 0.1347 0.9905 -0.0259
vn 0.1349 0.9894 -0.0542
vn 0.1165 0.9901 -0.0779
vn 0.0991 0.9901 -0.0991
vn 0.0779 0.9901 -0.1165
vn 0.0537 0.9901 -0.1295
vn 0.0884 -0.8914 0.4445
vn -0.0000 -0.8914 0.4532
vn -0.4532 -0.8914 -0.0000
vn -0.4445 -0.8914 -0.0884
vn 0.1734 -0.8914 -0.4187
vn 0.2518 -0.8914 -0.3768
vn 0.3768 -0.8914 0.2518
vn 0.3204 -0.8914 0.3204
vn -0.3204 -0.8914 0.3204
vn -0.3768 -0.8914 0.2518
vn -0.2518 -0.8914 -0.3768
vn -0.1734 -0.8914 -0.4187
vn 0.4532 -0.8914 -0.0000
vn -0.0884 -0.8914 0.4445
vn -0.4187 -0.8914 -0.1734
vn 0.3204 -0.8914 -0.3204
vn 0.2518 -0.8914 0.3768
vn -0.4187 -0.8914 0.1734
vn -0.0884 -0.8914 -0.4445
vn 0.4445 -0.8914 0.0884
vn -0.1734 -0.8914 0.4187
vn -0.3768 -0.8914 -0.2518
vn 0.3768 -0.8914 -0.2518
vn 0.1734 -0.8914 0.4187
vn -0.4445 -0.8914 0.0884
vn -0.0000 -0.8914 -0.4532
vn 0.0884 -0.8914 -0.4445
vn 0.4187 -0.8914 0.1734
vn -0.2518 -0.8914 0.3768
vn -0.3204 -0.8914 -0.3204
vn -0.5556 -0.0000 -0.8315
vn -0.3827 -0.0000 -0.9239
vn -0.0000 -0.0000 1.0000
vn -0.1951 -0.0000 0.9808
vn 0.5556 -0.0000 -0.8315
vn 0.7071 -0.0000 -0.7071
vn -0.1951 -0.0000 -0.9808
vn -0.3827 -0.0000 0.9239
vn 0.8315 -0.0000 -0.5556
vn -0.0000 -0.0000 -1.0000
vn -0.5556 -0.0000 0.8315
vn 0.9239 -0.0000 -0.3827
vn -0.7071 -0.0000 0.7071
vn 0.9808 -0.0000 -0.1951
vn -0.8315 -0.0000 0.5556
vn 1.0000 -0.0000 -0.0000
vn -0.9239 -0.0000 0.3827
vn 0.9808 -0.0000 0.1951
vn -0.9808 -0.0000 0.1951
vn 0.9239 -0.0000 0.3827
vn -1.0000 -0.0000 -0.0000
vn 0.8315 -0.0000 0.5556
vn -0.9808 -0.0000 -0.1951
vn 0.7071 -0.0000 0.7071
vn -0.9239 -0.0000 -0.3827
vn 0.5556 -0.0000 0.8315
vn -0.8315 -0.0000 -0.5556
vn 0.3827 -0.0000 0.9239
vn 0.1951 -0.0000 -0.9808
vn -0.7071 -0.0000 -0.7071
vn 0.1951 -0.0000 0.9808
vn 0.3827 -0.0000 -0.9239
vt 1.000000 0.500000
vt 1.000000 1.000000
vt 0.968750 1.000000
vt 0.968750 0.500000
vt 0.937500 1.000000
vt 0.937500 0.500000
vt 0.906250 1.000000
vt 0.906250 0.500000
vt 0.875000 1.000000
vt 0.875000 0.500000
vt 0.843750 1.000000
vt 0.843750 0.500000
vt 0.812500 1.000000
vt 0.812500 0.500000
vt 0.781250 1.000000
vt 0.781250 0.500000
vt 0.750000 1.000000
vt 0.750000 0.500000
vt 0.718750 1.000000
vt 0.718750 0.500000
vt 0.687500 1.000000
vt 0.687500 0.500000
vt 0.656250 1.000000
vt 0.656250 0.500000
vt 0.625000 1.000000
vt 0.625000 0.500000
vt 0.593750 1.000000
vt 0.593750 0.500000
vt 0.562500 1.000000
vt 0.562500 0.500000
vt 0.531250 1.000000
vt 0.531250 0.500000
vt 0.500000 1.000000
vt 0.500000 0.500000
vt 0.468750 1.000000
vt 0.468750 0.500000
vt 0.437500 1.000000
vt 0.437500 0.500000
vt 0.406250 1.000000
vt 0.406250 0.500000
vt 0.375000 1.000000
vt 0.375000 0.500000
vt 0.343750 1.000000
vt 0.343750 0.500000
vt 0.312500 1.000000
vt 0.312500 0.500000
vt 0.281250 1.000000
vt 0.281250 0.500000
vt 0.250000 1.000000
vt 0.250000 0.500000
vt 0.218750 1.000000
vt 0.218750 0.500000
vt 0.187500 1.000000
vt 0.187500 0.500000
vt 0.156250 1.000000
vt 0.156250 0.500000
vt 0.125000 1.000000
vt 0.125000 0.500000
vt 0.093750 1.000000
vt 0.093750 0.500000
vt 0.062500 1.000000
vt 0.062500 0.500000
vt 0.031250 1.000000
vt 0.031250 0.500000
vt 0.000000 1.000000
vt 0.000000 0.500000
vt 0.296822 0.485388
vt 0.250000 0.490000
vt 0.203178 0.485388
vt 0.158156 0.471731
vt 0.116663 0.449553
vt 0.080294 0.419706
vt 0.050447 0.383337
vt 0.028269 0.341844
vt 0.014612 0.296822
vt 0.010000 0.250000
vt 0.014612 0.203178
vt 0.028269 0.158156
vt 0.050447 0.116663
vt 0.080294 0.080294
vt 0.116663 0.050447
vt 0.158156 0.028269
vt 0.203178 0.014612
vt 0.250000 0.010000
vt 0.296822 0.014612
vt 0.341844 0.028269
vt 0.383337 0.050447
vt 0.419706 0.080294
vt 0.449553 0.116663
vt 0.471731 0.158156
vt 0.485388 0.203178
vt 0.490000 0.250000
vt 0.485388 0.296822
vt 0.471731 0.341844
vt 0.449553 0.383337
vt 0.419706 0.419706
vt 0.383337 0.449553
vt 0.341844 0.471731
vt 0.750000 0.380478
vt 0.750000 0.490000
vt 0.796822 0.485388
vt 0.775455 0.377971
vt 0.841844 0.471731
vt 0.799931 0.370546
vt 0.883337 0.449553
vt 0.822490 0.358488
vt 0.919706 0.419706
vt 0.842262 0.342262
vt 0.949553 0.383337
vt 0.858488 0.322490
vt 0.971731 0.341844
vt 0.870546 0.299932
vt 0.985388 0.296822
vt 0.877971 0.275455
vt 0.990000 0.250000
vt 0.880478 0.250000
vt 0.985388 0.203178
vt 0.877970 0.224545
vt 0.971731 0.158156
vt 0.870546 0.200068
vt 0.949553 0.116663
vt 0.858488 0.177510
vt 0.919706 0.080294
vt 0.842262 0.157738
vt 0.883337 0.050447
vt 0.822490 0.141512
vt 0.841844 0.028269
vt 0.799931 0.129454
vt 0.796822 0.014612
vt 0.775455 0.122029
vt 0.750000 0.010000
vt 0.750000 0.119522
vt 0.703178 0.014612
vt 0.724545 0.122029
vt 0.658156 0.028269
vt 0.700068 0.129454
vt 0.616663 0.050447
vt 0.677510 0.141512
vt 0.580294 0.080294
vt 0.657738 0.157738
vt 0.550447 0.116663
vt 0.641512 0.177510
vt 0.528269 0.158156
vt 0.629454 0.200068
vt 0.514612 0.203178
vt 0.622029 0.224545
vt 0.510000 0.250000
vt 0.619522 0.250000
vt 0.514612 0.296822
vt 0.622029 0.275455
vt 0.528269 0.341844
vt 0.629454 0.299932
vt 0.550447 0.383337
vt 0.641512 0.322490
vt 0.580294 0.419706
vt 0.657738 0.342262
vt 0.616663 0.449553
vt 0.677510 0.358488
vt 0.658156 0.471731
vt 0.700068 0.370546
vt 0.703178 0.485388
vt 0.724545 0.377971
s 1
f 1/1/1 2/2/1 4/3/2 3/4/2
f 3/4/2 4/3/2 6/5/3 5/6/3
f 5/6/3 6/5/3 8/7/4 7/8/4
f 7/8/4 8/7/4 10/9/5 9/10/5
f 9/10/5 10/9/5 12/11/6 11/12/6
f 11/12/6 12/11/6 14/13/7 13/14/7
f 13/14/7 14/13/7 16/15/8 15/16/8
f 15/16/8 16/15/8 18/17/9 17/18/9
f 17/18/9 18/17/9 20/19/10 19/20/10
f 19/20/10 20/19/10 22/21/11 21/22/11
f 21/22/11 22/21/11 24/23/12 23/24/12
f 23/24/12 24/23/12 26/25/13 25/26/13
f 25/26/13 26/25/13 28/27/14 27/28/14
f 27/28/14 28/27/14 30/29/15 29/30/15
f 29/30/15 30/29/15 32/31/16 31/32/16
f 31/32/16 32/31/16 34/33/17 33/34/17
f 33/34/17 34/33/17 36/35/18 35/36/18
f 35/36/18 36/35/18 38/37/19 37/38/19
f 37/38/19 38/37/19 40/39/20 39/40/20
f 39/40/20 40/39/20 42/41/21 41/42/21
f 41/42/21 42/41/21 44/43/22 43/44/22
f 43/44/22 44/43/22 46/45/23 45/46/23
f 45/46/23 46/45/23 48/47/24 47/48/24
f 47/48/24 48/47/24 50/49/25 49/50/25
f 49/50/25 50/49/25 52/51/26 51/52/26
f 51/52/26 52/51/26 54/53/27 53/54/27
f 53/54/27 54/53/27 56/55/28 55/56/28
f 55/56/28 56/55/28 58/57/29 57/58/29
f 57/58/29 58/57/29 60/59/30 59/60/30
f 59/60/30 60/59/30 62/61/31 61/62/31
f 60/59/32 58/57/32 93/57/32 94/59/32
f 61/62/31 62/61/31 64/63/33 63/64/33
f 63/64/33 64/63/33 2/65/1 1/66/1
f 13/14/34 15/16/35 456/16/35 455/14/34
f 83/37/36 82/35/37 114/35/38 115/37/39
f 16/15/32 14/13/32 71/13/32 72/15/32
f 34/33/32 32/31/32 80/31/32 81/33/32
f 52/51/32 50/49/32 89/49/32 90/51/32
f 8/7/32 6/5/32 67/5/32 68/7/32
f 26/25/32 24/23/32 76/23/32 77/25/32
f 44/43/32 42/41/32 85/41/32 86/43/32
f 62/61/32 60/59/32 94/59/32 95/61/32
f 18/17/32 16/15/32 72/15/32 73/17/32
f 36/35/32 34/33/32 81/33/32 82/35/32
f 54/53/32 52/51/32 90/51/32 91/53/32
f 10/9/32 8/7/32 68/7/32 69/9/32
f 28/27/32 26/25/32 77/25/32 78/27/32
f 46/45/32 44/43/32 86/43/32 87/45/32
f 64/63/32 62/61/32 95/61/32 96/63/32
f 20/19/32 18/17/32 73/17/32 74/19/32
f 38/37/32 36/35/32 82/35/32 83/37/32
f 56/55/32 54/53/32 91/53/32 92/55/32
f 12/11/32 10/9/32 69/9/32 70/11/32
f 30/29/32 28/27/32 78/27/32 79/29/32
f 48/47/32 46/45/32 87/45/32 88/47/32
f 4/3/32 2/2/32 65/2/32 66/3/32
f 2/65/32 64/63/32 96/63/32 65/65/32
f 22/21/32 20/19/32 74/19/32 75/21/32
f 40/39/32 38/37/32 83/37/32 84/39/32
f 58/57/32 56/55/32 92/55/32 93/57/32
f 14/13/32 12/11/32 70/11/32 71/13/32
f 32/31/32 30/29/32 79/29/32 80/31/32
f 50/49/32 48/47/32 88/47/32 89/49/32
f 6/5/32 4/3/32 66/3/32 67/5/32
f 24/23/32 22/21/32 75/21/32 76/23/32
f 42/41/32 40/39/32 84/39/32 85/41/32
f 118/43/40 117/41/41 149/41/42 150/43/43
f 70/11/44 69/9/45 101/9/46 102/11/47
f 65/65/48 96/63/49 128/63/50 97/65/51
f 84/39/52 83/37/36 115/37/39 116/39/53
f 71/13/54 70/11/44 102/11/47 103/13/55
f 85/41/56 84/39/52 116/39/53 117/41/41
f 72/15/57 71/13/54 103/13/55 104/15/58
f 86/43/59 85/41/56 117/41/41 118/43/40
f 73/17/60 72/15/57 104/15/58 105/17/61
f 87/45/62 86/43/59 118/43/40 119/45/63
f 74/19/64 73/17/60 105/17/61 106/19/65
f 88/47/66 87/45/62 119/45/63 120/47/67
f 75/21/68 74/19/64 106/19/65 107/21/69
f 89/49/70 88/47/66 120/47/67 121/49/71
f 76/23/72 75/21/68 107/21/69 108/23/73
f 90/51/74 89/49/70 121/49/71 122/51/75
f 77/25/76 76/23/72 108/23/73 109/25/77
f 91/53/78 90/51/74 122/51/75 123/53/79
f 78/27/80 77/25/76 109/25/77 110/27/81
f 92/55/82 91/53/78 123/53/79 124/55/83
f 79/29/84 78/27/80 110/27/81 111/29/85
f 66/3/86 65/2/48 97/2/51 98/3/87
f 93/57/88 92/55/82 124/55/83 125/57/89
f 80/31/90 79/29/84 111/29/85 112/31/91
f 67/5/92 66/3/86 98/3/87 99/5/93
f 94/59/94 93/57/88 125/57/89 126/59/95
f 81/33/96 80/31/90 112/31/91 113/33/97
f 68/7/98 67/5/92 99/5/93 100/7/99
f 95/61/100 94/59/94 126/59/95 127/61/101
f 82/35/37 81/33/96 113/33/97 114/35/38
f 69/9/45 68/7/98 100/7/99 101/9/46
f 96/63/49 95/61/100 127/61/101 128/63/50
f 153/49/102 152/47/103 184/47/104 185/49/105
f 105/17/61 104/15/58 136/15/106 137/17/107
f 119/45/63 118/43/40 150/43/43 151/45/108
f 106/19/65 105/17/61 137/17/107 138/19/109
f 120/47/67 119/45/63 151/45/108 152/47/103
f 107/21/69 106/19/65 138/19/109 139/21/110
f 121/49/71 120/47/67 152/47/103 153/49/102
f 108/23/73 107/21/69 139/21/110 140/23/111
f 122/51/75 121/49/71 153/49/102 154/51/112
f 109/25/77 108/23/73 140/23/111 141/25/113
f 123/53/79 122/51/75 154/51/112 155/53/114
f 110/27/81 109/25/77 141/25/113 142/27/115
f 124/55/83 123/53/79 155/53/114 156/55/116
f 111/29/85 110/27/81 142/27/115 143/29/117
f 98/3/87 97/2/51 129/2/118 130/3/119
f 125/57/89 124/55/83 156/55/116 157/57/120
f 112/31/91 111/29/85 143/29/117 144/31/121
f 99/5/93 98/3/87 130/3/119 131/5/122
f 126/59/95 125/57/89 157/57/120 158/59/123
f 113/33/97 112/31/91 144/31/121 145/33/124
f 100/7/99 99/5/93 131/5/122 132/7/125
f 127/61/101 126/59/95 158/59/123 159/61/126
f 114/35/38 113/33/97 145/33/124 146/35/127
f 101/9/46 100/7/99 132/7/125 133/9/128
f 128/63/50 127/61/101 159/61/126 160/63/129
f 115/37/39 114/35/38 146/35/127 147/37/130
f 102/11/47 101/9/46 133/9/128 134/11/131
f 97/65/51 128/63/50 160/63/129 129/65/118
f 116/39/53 115/37/39 147/37/130 148/39/132
f 103/13/55 102/11/47 134/11/131 135/13/133
f 117/41/41 116/39/53 148/39/132 149/41/42
f 104/15/58 103/13/55 135/13/133 136/15/106
f 188/55/134 187/53/135 219/53/136 220/55/137
f 140/23/111 139/21/110 171/21/138 172/23/139
f 154/51/112 153/49/102 185/49/105 186/51/140
f 141/25/113 140/23/111 172/23/139 173/25/141
f 155/53/114 154/51/112 186/51/140 187/53/135
f 142/27/115 141/25/113 173/25/141 174/27/142
f 156/55/116 155/53/114 187/53/135 188/55/134
f 143/29/117 142/27/115 174/27/142 175/29/143
f 130/3/119 129/2/118 161/2/144 162/3/145
f 157/57/120 156/55/116 188/55/134 189/57/146
f 144/31/121 143/29/117 175/29/143 176/31/147
f 131/5/122 130/3/119 162/3/145 163/5/148
f 158/59/123 157/57/120 189/57/146 190/59/149
f 145/33/124 144/31/121 176/31/147 177/33/150
f 132/7/125 131/5/122 163/5/148 164/7/151
f 159/61/126 158/59/123 190/59/149 191/61/152
f 146/35/127 145/33/124 177/33/150 178/35/153
f 133/9/128 132/7/125 164/7/151 165/9/154
f 160/63/129 159/61/126 191/61/152 192/63/155
f 147/37/130 146/35/127 178/35/153 179/37/156
f 134/11/131 133/9/128 165/9/154 166/11/157
f 129/65/118 160/63/129 192/63/155 161/65/144
f 148/39/132 147/37/130 179/37/156 180/39/158
f 135/13/133 134/11/131 166/11/157 167/13/159
f 149/41/42 148/39/132 180/39/158 181/41/160
f 136/15/106 135/13/133 167/13/159 168/15/161
f 150/43/43 149/41/42 181/41/160 182/43/162
f 137/17/107 136/15/106 168/15/161 169/17/163
f 151/45/108 150/43/43 182/43/162 183/45/164
f 138/19/109 137/17/107 169/17/163 170/19/165
f 152/47/103 151/45/108 183/45/164 184/47/104
f 139/21/110 138/19/109 170/19/165 171/21/138
f 196/7/166 195/5/167 227/5/168 228/7/169
f 175/29/143 174/27/142 206/27/170 207/29/171
f 162/3/145 161/2/144 193/2/172 194/3/173
f 189/57/146 188/55/134 220/55/137 221/57/174
f 176/31/147 175/29/143 207/29/171 208/31/175
f 163/5/148 162/3/145 194/3/173 195/5/167
f 190/59/149 189/57/146 221/57/174 222/59/176
f 177/33/150 176/31/147 208/31/175 209/33/177
f 164/7/151 163/5/148 195/5/167 196/7/166
f 191/61/152 190/59/149 222/59/176 223/61/178
f 178/35/153 177/33/150 209/33/177 210/35/179
f 165/9/154 164/7/151 196/7/166 197/9/180
f 192/63/155 191/61/152 223/61/178 224/63/181
f 179/37/156 178/35/153 210/35/179 211/37/182
f 166/11/157 165/9/154 197/9/180 198/11/183
f 161/65/144 192/63/155 224/63/181 193/65/172
f 180/39/158 179/37/156 211/37/182 212/39/184
f 167/13/159 166/11/157 198/11/183 199/13/185
f 181/41/160 180/39/158 212/39/184 213/41/186
f 168/15/161 167/13/159 199/13/185 200/15/187
f 182/43/162 181/41/160 213/41/186 214/43/188
f 169/17/163 168/15/161 200/15/187 201/17/189
f 183/45/164 182/43/162 214/43/188 215/45/190
f 170/19/165 169/17/163 201/17/189 202/19/191
f 184/47/104 183/45/164 215/45/190 216/47/192
f 171/21/138 170/19/165 202/19/191 203/21/193
f 185/49/105 184/47/104 216/47/192 217/49/194
f 172/23/139 171/21/138 203/21/193 204/23/195
f 186/51/140 185/49/105 217/49/194 218/51/196
f 173/25/141 172/23/139 204/23/195 205/25/197
f 187/53/135 186/51/140 218/51/196 219/53/136
f 174/27/142 173/25/141 205/25/197 206/27/170
f 231/13/198 230/11/199 262/11/200 263/13/201
f 223/61/178 222/59/176 254/59/202 255/61/203
f 210/35/179 209/33/177 241/33/204 242/35/205
f 197/9/180 196/7/166 228/7/169 229/9/206
f 224/63/181 223/61/178 255/61/203 256/63/207
f 211/37/182 210/35/179 242/35/205 243/37/208
f 198/11/183 197/9/180 229/9/206 230/11/199
f 193/65/172 224/63/181 256/63/207 225/65/209
f 212/39/184 211/37/182 243/37/208 244/39/210
f 199/13/185 198/11/183 230/11/199 231/13/198
f 213/41/186 212/39/184 244/39/210 245/41/211
f 200/15/187 199/13/185 231/13/198 232/15/212
f 214/43/188 213/41/186 245/41/211 246/43/213
f 201/17/189 200/15/187 232/15/212 233/17/214
f 215/45/190 214/43/188 246/43/213 247/45/215
f 202/19/191 201/17/189 233/17/214 234/19/216
f 216/47/192 215/45/190 247/45/215 248/47/217
f 203/21/193 202/19/191 234/19/216 235/21/218
f 217/49/194 216/47/192 248/47/217 249/49/219
f 204/23/195 203/21/193 235/21/218 236/23/220
f 218/51/196 217/49/194 249/49/219 250/51/221
f 205/25/197 204/23/195 236/23/220 237/25/222
f 219/53/136 218/51/196 250/51/221 251/53/223
f 206/27/170 205/25/197 237/25/222 238/27/224
f 220/55/137 219/53/136 251/53/223 252/55/225
f 207/29/171 206/27/170 238/27/224 239/29/226
f 194/3/173 193/2/172 225/2/209 226/3/227
f 221/57/174 220/55/137 252/55/225 253/57/228
f 208/31/175 207/29/171 239/29/226 240/31/229
f 195/5/167 194/3/173 226/3/227 227/5/168
f 222/59/176 221/57/174 253/57/228 254/59/202
f 209/33/177 208/31/175 240/31/229 241/33/204
f 266/19/230 265/17/231 297/17/232 298/19/233
f 245/41/211 244/39/210 276/39/234 277/41/235
f 232/15/212 231/13/198 263/13/201 264/15/236
f 246/43/213 245/41/211 277/41/235 278/43/237
f 233/17/214 232/15/212 264/15/236 265/17/231
f 247/45/215 246/43/213 278/43/237 279/45/238
f 234/19/216 233/17/214 265/17/231 266/19/230
f 248/47/217 247/45/215 279/45/238 280/47/239
f 235/21/218 234/19/216 266/19/230 267/21/240
f 249/49/219 248/47/217 280/47/239 281/49/241
f 236/23/220 235/21/218 267/21/240 268/23/242
f 250/51/221 249/49/219 281/49/241 282/51/243
f 237/25/222 236/23/220 268/23/242 269/25/244
f 251/53/223 250/51/221 282/51/243 283/53/245
f 238/27/224 237/25/222 269/25/244 270/27/246
f 252/55/225 251/53/223 283/53/245 284/55/247
f 239/29/226 238/27/224 270/27/246 271/29/248
f 226/3/227 225/2/209 257/2/249 258/3/250
f 253/57/228 252/55/225 284/55/247 285/57/251
f 240/31/229 239/29/226 271/29/248 272/31/252
f 227/5/168 226/3/227 258/3/250 259/5/253
f 254/59/202 253/57/228 285/57/251 286/59/254
f 241/33/204 240/31/229 272/31/252 273/33/255
f 228/7/169 227/5/168 259/5/253 260/7/256
f 255/61/203 254/59/202 286/59/254 287/61/257
f 242/35/205 241/33/204 273/33/255 274/35/258
f 229/9/206 228/7/169 260/7/256 261/9/259
f 256/63/207 255/61/203 287/61/257 288/63/260
f 243/37/208 242/35/205 274/35/258 275/37/261
f 230/11/199 229/9/206 261/9/259 262/11/200
f 225/65/209 256/63/207 288/63/260 257/65/249
f 244/39/210 243/37/208 275/37/261 276/39/234
f 301/25/262 300/23/263 332/23/264 333/25/265
f 280/47/239 279/45/238 311/45/266 312/47/267
f 267/21/240 266/19/230 298/19/233 299/21/268
f 281/49/241 280/47/239 312/47/267 313/49/269
f 268/23/242 267/21/240 299/21/268 300/23/263
f 282/51/243 281/49/241 313/49/269 314/51/270
f 269/25/244 268/23/242 300/23/263 301/25/262
f 283/53/245 282/51/243 314/51/270 315/53/271
f 270/27/246 269/25/244 301/25/262 302/27/272
f 284/55/247 283/53/245 315/53/271 316/55/273
f 271/29/248 270/27/246 302/27/272 303/29/274
f 258/3/250 257/2/249 289/2/275 290/3/276
f 285/57/251 284/55/247 316/55/273 317/57/277
f 272/31/252 271/29/248 303/29/274 304/31/278
f 259/5/253 258/3/250 290/3/276 291/5/279
f 286/59/254 285/57/251 317/57/277 318/59/280
f 273/33/255 272/31/252 304/31/278 305/33/281
f 260/7/256 259/5/253 291/5/279 292/7/282
f 287/61/257 286/59/254 318/59/280 319/61/283
f 274/35/258 273/33/255 305/33/281 306/35/284
f 261/9/259 260/7/256 292/7/282 293/9/285
f 288/63/260 287/61/257 319/61/283 320/63/286
f 275/37/261 274/35/258 306/35/284 307/37/287
f 262/11/200 261/9/259 293/9/285 294/11/288
f 257/65/249 288/63/260 320/63/286 289/65/275
f 276/39/234 275/37/261 307/37/287 308/39/289
f 263/13/201 262/11/200 294/11/288 295/13/290
f 277/41/235 276/39/234 308/39/289 309/41/291
f 264/15/236 263/13/201 295/13/290 296/15/292
f 278/43/237 277/41/235 309/41/291 310/43/293
f 265/17/231 264/15/236 296/15/292 297/17/232
f 279/45/238 278/43/237 310/43/293 311/45/266
f 336/31/294 335/29/295 367/29/296 368/31/297
f 315/53/271 314/51/270 346/51/298 347/53/299
f 302/27/272 301/25/262 333/25/265 334/27/300
f 316/55/273 315/53/271 347/53/299 348/55/301
f 303/29/274 302/27/272 334/27/300 335/29/295
f 290/3/276 289/2/275 321/2/302 322/3/303
f 317/57/277 316/55/273 348/55/301 349/57/304
f 304/31/278 303/29/274 335/29/295 336/31/294
f 291/5/279 290/3/276 322/3/303 323/5/305
f 318/59/280 317/57/277 349/57/304 350/59/306
f 305/33/281 304/31/278 336/31/294 337/33/307
f 292/7/282 291/5/279 323/5/305 324/7/308
f 319/61/283 318/59/280 350/59/306 351/61/309
f 306/35/284 305/33/281 337/33/307 338/35/310
f 293/9/285 292/7/282 324/7/308 325/9/311
f 320/63/286 319/61/283 351/61/309 352/63/312
f 307/37/287 306/35/284 338/35/310 339/37/313
f 294/11/288 293/9/285 325/9/311 326/11/314
f 289/65/275 320/63/286 352/63/312 321/65/302
f 308/39/289 307/37/287 339/37/313 340/39/315
f 295/13/290 294/11/288 326/11/314 327/13/316
f 309/41/291 308/39/289 340/39/315 341/41/317
f 296/15/292 295/13/290 327/13/316 328/15/318
f 310/43/293 309/41/291 341/41/317 342/43/319
f 297/17/232 296/15/292 328/15/318 329/17/320
f 311/45/266 310/43/293 342/43/319 343/45/321
f 298/19/233 297/17/232 329/17/320 330/19/322
f 312/47/267 311/45/266 343/45/321 344/47/323
f 299/21/268 298/19/233 330/19/322 331/21/324
f 313/49/269 312/47/267 344/47/323 345/49/325
f 300/23/263 299/21/268 331/21/324 332/23/264
f 314/51/270 313/49/269 345/49/325 346/51/298
f 371/37/326 370/35/327 402/35/328 403/37/329
f 323/5/305 322/3/303 354/3/330 355/5/331
f 350/59/306 349/57/304 381/57/332 382/59/333
f 337/33/307 336/31/294 368/31/297 369/33/334
f 324/7/308 323/5/305 355/5/331 356/7/335
f 351/61/309 350/59/306 382/59/333 383/61/336
f 338/35/310 337/33/307 369/33/334 370/35/327
f 325/9/311 324/7/308 356/7/335 357/9/337
f 352/63/312 351/61/309 383/61/336 384/63/338
f 339/37/313 338/35/310 370/35/327 371/37/326
f 326/11/314 325/9/311 357/9/337 358/11/339
f 321/65/302 352/63/312 384/63/338 353/65/340
f 340/39/315 339/37/313 371/37/326 372/39/341
f 327/13/316 326/11/314 358/11/339 359/13/342
f 341/41/317 340/39/315 372/39/341 373/41/343
f 328/15/318 327/13/316 359/13/342 360/15/344
f 342/43/319 341/41/317 373/41/343 374/43/345
f 329/17/320 328/15/318 360/15/344 361/17/346
f 343/45/321 342/43/319 374/43/345 375/45/347
f 330/19/322 329/17/320 361/17/346 362/19/348
f 344/47/323 343/45/321 375/45/347 376/47/349
f 331/21/324 330/19/322 362/19/348 363/21/350
f 345/49/325 344/47/323 376/47/349 377/49/351
f 332/23/264 331/21/324 363/21/350 364/23/352
f 346/51/298 345/49/325 377/49/351 378/51/353
f 333/25/265 332/23/264 364/23/352 365/25/354
f 347/53/299 346/51/298 378/51/353 379/53/355
f 334/27/300 333/25/265 365/25/354 366/27/356
f 348/55/301 347/53/299 379/53/355 380/55/357
f 335/29/295 334/27/300 366/27/356 367/29/296
f 322/3/303 321/2/302 353/2/340 354/3/330
f 349/57/304 348/55/301 380/55/357 381/57/332
f 406/43/358 405/41/359 437/41/360 438/43/361
f 358/11/339 357/9/337 389/9/362 390/11/363
f 353/65/340 384/63/338 416/63/364 385/65/365
f 372/39/341 371/37/326 403/37/329 404/39/366
f 359/13/342 358/11/339 390/11/363 391/13/367
f 373/41/343 372/39/341 404/39/366 405/41/359
f 360/15/344 359/13/342 391/13/367 392/15/368
f 374/43/345 373/41/343 405/41/359 406/43/358
f 361/17/346 360/15/344 392/15/368 393/17/369
f 375/45/347 374/43/345 406/43/358 407/45/370
f 362/19/348 361/17/346 393/17/369 394/19/371
f 376/47/349 375/45/347 407/45/370 408/47/372
f 363/21/350 362/19/348 394/19/371 395/21/373
f 377/49/351 376/47/349 408/47/372 409/49/374
f 364/23/352 363/21/350 395/21/373 396/23/375
f 378/51/353 377/49/351 409/49/374 410/51/376
f 365/25/354 364/23/352 396/23/375 397/25/377
f 379/53/355 378/51/353 410/51/376 411/53/378
f 366/27/356 365/25/354 397/25/377 398/27/379
f 380/55/357 379/53/355 411/53/378 412/55/380
f 367/29/296 366/27/356 398/27/379 399/29/381
f 354/3/330 353/2/340 385/2/365 386/3/382
f 381/57/332 380/55/357 412/55/380 413/57/383
f 368/31/297 367/29/296 399/29/381 400/31/384
f 355/5/331 354/3/330 386/3/382 387/5/385
f 382/59/333 381/57/332 413/57/383 414/59/386
f 369/33/334 368/31/297 400/31/384 401/33/387
f 356/7/335 355/5/331 387/5/385 388/7/388
f 383/61/336 382/59/333 414/59/386 415/61/389
f 370/35/327 369/33/334 401/33/387 402/35/328
f 357/9/337 356/7/335 388/7/388 389/9/362
f 384/63/338 383/61/336 415/61/389 416/63/364
f 418/67/390 417/68/391 448/69/392 447/70/393 446/71/394 445/72/395 444/73/396 443/74/397 442/75/398 441/76/399 440/77/400 439/78/401 438/79/361 437/80/360 436/81/402 435/82/403 434/83/404 433/84/405 432/85/406 431/86/407 430/87/408 429/88/409 428/89/410 427/90/411 426/91/412 425/92/413 424/93/414 423/94/415 422/95/416 421/96/417 420/97/418 419/98/419
f 393/17/369 392/15/368 424/15/414 425/17/413
f 407/45/370 406/43/358 438/43/361 439/45/401
f 394/19/371 393/17/369 425/17/413 426/19/412
f 408/47/372 407/45/370 439/45/401 440/47/400
f 395/21/373 394/19/371 426/19/412 427/21/411
f 409/49/374 408/47/372 440/47/400 441/49/399
f 396/23/375 395/21/373 427/21/411 428/23/410
f 410/51/376 409/49/374 441/49/399 442/51/398
f 397/25/377 396/23/375 428/23/410 429/25/409
f 411/53/378 410/51/376 442/51/398 443/53/397
f 398/27/379 397/25/377 429/25/409 430/27/408
f 412/55/380 411/53/378 443/53/397 444/55/396
f 399/29/381 398/27/379 430/27/408 431/29/407
f 386/3/382 385/2/365 417/2/391 418/3/390
f 413/57/383 412/55/380 444/55/396 445/57/395
f 400/31/384 399/29/381 431/29/407 432/31/406
f 387/5/385 386/3/382 418/3/390 419/5/419
f 414/59/386 413/57/383 445/57/395 446/59/394
f 401/33/387 400/31/384 432/31/406 433/33/405
f 388/7/388 387/5/385 419/5/419 420/7/418
f 415/61/389 414/59/386 446/59/394 447/61/393
f 402/35/328 401/33/387 433/33/405 434/35/404
f 389/9/362 388/7/388 420/7/418 421/9/417
f 416/63/364 415/61/389 447/61/393 448/63/392
f 403/37/329 402/35/328 434/35/404 435/37/403
f 390/11/363 389/9/362 421/9/417 422/11/416
f 385/65/365 416/63/364 448/63/392 417/65/391
f 404/39/366 403/37/329 435/37/403 436/39/402
f 391/13/367 390/11/363 422/11/416 423/13/415
f 405/41/359 404/39/366 436/39/402 437/41/360
f 392/15/368 391/13/367 423/13/415 424/15/414
f 475/54/32 476/56/32 508/56/32 507/54/32
f 31/32/420 33/34/421 465/34/421 464/32/420
f 49/50/422 51/52/423 474/52/423 473/50/422
f 5/6/424 7/8/425 452/8/425 451/6/424
f 23/24/426 25/26/427 461/26/427 460/24/426
f 41/42/428 43/44/429 470/44/429 469/42/428
f 59/60/430 61/62/431 479/62/431 478/60/430
f 15/16/35 17/18/432 457/18/432 456/16/35
f 33/34/421 35/36/433 466/36/433 465/34/421
f 51/52/423 53/54/434 475/54/434 474/52/423
f 7/8/425 9/10/435 453/10/435 452/8/425
f 25/26/427 27/28/436 462/28/436 461/26/427
f 43/44/429 45/46/437 471/46/437 470/44/429
f 61/62/431 63/64/438 480/64/438 479/62/431
f 17/18/432 19/20/439 458/20/439 457/18/432
f 35/36/433 37/38/440 467/38/440 466/36/433
f 53/54/434 55/56/441 476/56/441 475/54/434
f 9/10/435 11/12/442 454/12/442 453/10/435
f 27/28/436 29/30/443 463/30/443 462/28/436
f 45/46/437 47/48/444 472/48/444 471/46/437
f 1/1/445 3/4/446 450/4/446 449/1/445
f 63/64/438 1/66/445 449/66/445 480/64/438
f 19/20/439 21/22/447 459/22/447 458/20/439
f 37/38/440 39/40/448 468/40/448 467/38/440
f 55/56/441 57/58/449 477/58/449 476/56/441
f 11/12/442 13/14/34 455/14/34 454/12/442
f 29/30/443 31/32/420 464/32/420 463/30/443
f 47/48/444 49/50/422 473/50/422 472/48/444
f 3/4/446 5/6/424 451/6/424 450/4/446
f 21/22/447 23/24/426 460/24/426 459/22/447
f 39/40/448 41/42/428 469/42/428 468/40/448
f 57/58/449 59/60/430 478/60/430 477/58/449
f 510/60/450 511/62/451 544/62/451 543/60/450
f 462/28/32 463/30/32 495/30/32 494/28/32
f 449/1/32 450/4/32 482/4/32 481/1/32
f 476/56/32 477/58/32 509/58/32 508/56/32
f 463/30/32 464/32/32 496/32/32 495/30/32
f 450/4/32 451/6/32 483/6/32 482/4/32
f 477/58/32 478/60/32 510/60/32 509/58/32
f 464/32/32 465/34/32 497/34/32 496/32/32
f 451/6/32 452/8/32 484/8/32 483/6/32
f 478/60/32 479/62/32 511/62/32 510/60/32
f 465/34/32 466/36/32 498/36/32 497/34/32
f 452/8/32 453/10/32 485/10/32 484/8/32
f 479/62/32 480/64/32 512/64/32 511/62/32
f 466/36/32 467/38/32 499/38/32 498/36/32
f 453/10/32 454/12/32 486/12/32 485/10/32
f 480/64/32 449/66/32 481/66/32 512/64/32
f 467/38/32 468/40/32 500/40/32 499/38/32
f 454/12/32 455/14/32 487/14/32 486/12/32
f 468/40/32 469/42/32 501/42/32 500/40/32
f 455/14/32 456/16/32 488/16/32 487/14/32
f 469/42/32 470/44/32 502/44/32 501/42/32
f 456/16/32 457/18/32 489/18/32 488/16/32
f 470/44/32 471/46/32 503/46/32 502/44/32
f 457/18/32 458/20/32 490/20/32 489/18/32
f 471/46/32 472/48/32 504/48/32 503/46/32
f 458/20/32 459/22/32 491/22/32 490/20/32
f 472/48/32 473/50/32 505/50/32 504/48/32
f 459/22/32 460/24/32 492/24/32 491/22/32
f 473/50/32 474/52/32 506/52/32 505/50/32
f 460/24/32 461/26/32 493/26/32 492/24/32
f 474/52/32 475/54/32 507/54/32 506/52/32
f 461/26/32 462/28/32 494/28/32 493/26/32
f 497/34/452 498/36/453 531/36/453 530/34/452
f 484/8/454 485/10/455 518/10/455 517/8/454
f 511/62/451 512/64/456 545/64/456 544/62/451
f 498/36/453 499/38/457 532/38/457 531/36/453
f 485/10/455 486/12/458 519/12/458 518/10/455
f 512/64/456 481/66/459 514/66/459 545/64/456
f 499/38/457 500/40/460 533/40/460 532/38/457
f 486/12/458 487/14/461 520/14/461 519/12/458
f 500/40/460 501/42/462 534/42/462 533/40/460
f 487/14/461 488/16/463 521/16/463 520/14/461
f 501/42/462 502/44/464 535/44/464 534/42/462
f 488/16/463 489/18/465 522/18/465 521/16/463
f 502/44/464 503/46/466 536/46/466 535/44/464
f 489/18/465 490/20/467 523/20/467 522/18/465
f 503/46/466 504/48/468 537/48/468 536/46/466
f 490/20/467 491/22/469 524/22/469 523/20/467
f 504/48/468 505/50/470 538/50/470 537/48/468
f 491/22/469 492/24/471 525/24/471 524/22/469
f 505/50/470 506/52/472 539/52/472 538/50/470
f 492/24/471 493/26/473 526/26/473 525/24/471
f 506/52/472 507/54/474 540/54/474 539/52/472
f 493/26/473 494/28/475 527/28/475 526/26/473
f 507/54/474 508/56/476 541/56/476 540/54/474
f 494/28/475 495/30/477 528/30/477 527/28/475
f 481/1/459 482/4/478 515/4/478 514/1/459
f 508/56/476 509/58/479 542/58/479 541/56/476
f 495/30/477 496/32/480 529/32/480 528/30/477
f 482/4/478 483/6/481 516/6/481 515/4/478
f 509/58/479 510/60/450 543/60/450 542/58/479
f 496/32/480 497/34/452 530/34/452 529/32/480
f 483/6/481 484/8/454 517/8/454 516/6/481
f 513/99/32 514/100/32 515/101/32
f 513/102/32 515/101/32 516/103/32
f 513/104/32 516/103/32 517/105/32
f 513/106/32 517/105/32 518/107/32
f 513/108/32 518/107/32 519/109/32
f 513/110/32 519/109/32 520/111/32
f 513/112/32 520/111/32 521/113/32
f 513/114/32 521/113/32 522/115/32
f 513/116/32 522/115/32 523/117/32
f 513/118/32 523/117/32 524/119/32
f 513/120/32 524/119/32 525/121/32
f 513/122/32 525/121/32 526/123/32
f 513/124/32 526/123/32 527/125/32
f 513/126/32 527/125/32 528/127/32
f 513/128/32 528/127/32 529/129/32
f 513/130/32 529/129/32 530/131/32
f 513/132/32 530/131/32 531/133/32
f 513/134/32 531/133/32 532/135/32
f 513/136/32 532/135/32 533/137/32
f 513/138/32 533/137/32 534/139/32
f 513/140/32 534/139/32 535/141/32
f 513/142/32 535/141/32 536/143/32
f 513/144/32 536/143/32 537/145/32
f 513/146/32 537/145/32 538/147/32
f 513/148/32 538/147/32 539/149/32
f 513/150/32 539/149/32 540/151/32
f 513/152/32 540/151/32 541/153/32
f 513/154/32 541/153/32 542/155/32
f 513/156/32 542/155/32 543/157/32
f 513/158/32 543/157/32 544/159/32
f 513/160/32 544/159/32 545/161/32
f 513/162/32 545/161/32 514/100/32
