# Blender 4.5.1 LTS
# www.blender.org
o APDS-PETAL
v -0.000000 0.080000 -0.074999
v -0.000000 0.280000 -0.074999
v -0.000000 0.080000 0.074999
v -0.000000 0.280000 0.074999
v -0.014632 0.080000 0.073558
v -0.014632 0.280000 0.073558
v -0.028701 0.080000 0.069290
v -0.028701 0.280000 0.069290
v -0.041668 0.080000 0.062359
v -0.041668 0.280000 0.062359
v -0.053033 0.080000 0.053032
v -0.053033 0.280000 0.053032
v -0.062360 0.080000 0.041667
v -0.062360 0.280000 0.041667
v -0.069290 0.080000 0.028701
v -0.069290 0.280000 0.028701
v -0.073558 0.080000 0.014632
v -0.073558 0.280000 0.014632
v -0.074999 0.080000 0.000000
v -0.074999 0.280000 0.000000
v -0.073558 0.080000 -0.014632
v -0.073558 0.280000 -0.014632
v -0.069290 0.080000 -0.028701
v -0.069290 0.280000 -0.028701
v -0.062360 0.080000 -0.041667
v -0.062360 0.280000 -0.041667
v -0.053033 0.080000 -0.053032
v -0.053033 0.280000 -0.053032
v -0.041668 0.080000 -0.062359
v -0.041668 0.280000 -0.062359
v -0.028701 0.080000 -0.069290
v -0.028701 0.280000 -0.069290
v -0.014632 0.080000 -0.073558
v -0.014632 0.280000 -0.073558
v -0.000000 0.080000 -0.099626
v -0.000000 0.080000 0.099626
v -0.019437 0.080000 0.097712
v -0.038126 0.080000 0.092043
v -0.055350 0.080000 0.082836
v -0.070447 0.080000 0.070446
v -0.082837 0.080000 0.055349
v -0.092043 0.080000 0.038125
v -0.097712 0.080000 0.019436
v -0.099627 0.080000 0.000000
v -0.097712 0.080000 -0.019436
v -0.092043 0.080000 -0.038125
v -0.082837 0.080000 -0.055349
v -0.070447 0.080000 -0.070446
v -0.055350 0.080000 -0.082836
v -0.038126 0.080000 -0.092043
v -0.019437 0.080000 -0.097712
v -0.000000 0.040000 -0.099626
v -0.000000 0.040000 0.099626
v -0.019437 0.040000 0.097712
v -0.082837 0.040000 0.055349
v -0.097712 0.040000 0.019436
v -0.099627 0.040000 0.000000
v -0.097712 0.040000 -0.019436
v -0.092043 0.040000 -0.038125
v -0.082837 0.040000 -0.055349
v -0.038126 0.040000 -0.092043
v -0.019437 0.040000 -0.097712
v -0.019483 0.280000 -0.097948
v -0.038218 0.280000 -0.092265
v -0.055483 0.280000 -0.083036
v -0.070617 0.280000 -0.070617
v -0.083037 0.280000 -0.055483
v -0.092265 0.280000 -0.038217
v -0.097948 0.280000 -0.019483
v -0.099867 0.280000 0.000000
v -0.097948 0.280000 0.019483
v -0.092265 0.280000 0.038217
v -0.083037 0.280000 0.055483
v -0.070617 0.280000 0.070617
v -0.055483 0.280000 0.083036
v -0.038218 0.280000 0.092265
v -0.019483 0.280000 0.097948
v -0.000000 0.280000 0.099867
v -0.000000 0.280000 -0.099867
v -0.000000 0.020000 -0.007309
v -0.000000 0.020056 -0.012121
v -0.000000 0.020427 -0.024455
v -0.000000 0.021549 -0.041681
v -0.000000 0.023792 -0.060673
v -0.000000 0.027225 -0.078231
v -0.000000 0.031522 -0.091548
v -0.000000 0.036000 -0.098635
v -0.000000 0.020000 0.007309
v -0.000000 0.036000 0.098635
v -0.000000 0.031522 0.091548
v -0.000000 0.027225 0.078231
v -0.000000 0.023792 0.060673
v -0.000000 0.021549 0.041681
v -0.000000 0.020427 0.024455
v -0.000000 0.020056 0.012121
v -0.001426 0.020000 0.007169
v -0.019243 0.036000 0.096740
v -0.017861 0.031522 0.089789
v -0.015262 0.027225 0.076727
v -0.011837 0.023792 0.059507
v -0.008132 0.021549 0.040880
v -0.004771 0.020427 0.023985
v -0.002365 0.020056 0.011888
v -0.038126 0.040000 0.092043
v -0.002797 0.020000 0.006753
v -0.037746 0.036000 0.091127
v -0.035034 0.031522 0.084580
v -0.029938 0.027225 0.072275
v -0.023219 0.023791 0.056054
v -0.015951 0.021549 0.038508
v -0.009359 0.020427 0.022593
v -0.004639 0.020056 0.011198
v -0.055350 0.040000 0.082836
v -0.004061 0.020000 0.006077
v -0.054799 0.036000 0.082012
v -0.050862 0.031522 0.076119
v -0.043463 0.027225 0.065046
v -0.033709 0.023792 0.050448
v -0.023157 0.021549 0.034657
v -0.013586 0.020427 0.020333
v -0.006734 0.020056 0.010078
v -0.070447 0.040000 0.070446
v -0.005169 0.020000 0.005168
v -0.069746 0.036000 0.069745
v -0.064735 0.031522 0.064734
v -0.055318 0.027225 0.055317
v -0.042903 0.023792 0.042902
v -0.029473 0.021549 0.029473
v -0.017293 0.020427 0.017292
v -0.008571 0.020056 0.008571
v -0.006078 0.020000 0.004061
v -0.082012 0.036000 0.054799
v -0.076119 0.031522 0.050861
v -0.065046 0.027225 0.043462
v -0.050448 0.023791 0.033708
v -0.034657 0.021549 0.023157
v -0.020333 0.020427 0.013586
v -0.010078 0.020056 0.006734
v -0.092043 0.040000 0.038125
v -0.006753 0.020000 0.002797
v -0.091127 0.036000 0.037746
v -0.084580 0.031522 0.035034
v -0.072277 0.027225 0.029938
v -0.056056 0.023792 0.023219
v -0.038509 0.021549 0.015951
v -0.022594 0.020427 0.009358
v -0.011199 0.020056 0.004639
v -0.007169 0.020000 0.001426
v -0.096740 0.036000 0.019243
v -0.089789 0.031522 0.017860
v -0.076726 0.027225 0.015262
v -0.059508 0.023791 0.011837
v -0.040880 0.021549 0.008131
v -0.023984 0.020427 0.004771
v -0.011888 0.020056 0.002365
v -0.007309 0.020000 0.000000
v -0.098635 0.036000 0.000000
v -0.091549 0.031522 0.000000
v -0.078231 0.027225 0.000000
v -0.060674 0.023792 0.000000
v -0.041681 0.021549 0.000000
v -0.024456 0.020427 0.000000
v -0.012122 0.020056 0.000000
v -0.007169 0.020000 -0.001426
v -0.096740 0.036000 -0.019243
v -0.089789 0.031522 -0.017860
v -0.076726 0.027225 -0.015262
v -0.059508 0.023791 -0.011837
v -0.040880 0.021549 -0.008131
v -0.023984 0.020427 -0.004771
v -0.011888 0.020056 -0.002365
v -0.006753 0.020000 -0.002797
v -0.091127 0.036000 -0.037746
v -0.084580 0.031522 -0.035034
v -0.072277 0.027225 -0.029938
v -0.056056 0.023792 -0.023219
v -0.038509 0.021549 -0.015951
v -0.022594 0.020427 -0.009358
v -0.011199 0.020056 -0.004639
v -0.006078 0.020000 -0.004061
v -0.082012 0.036000 -0.054799
v -0.076119 0.031522 -0.050861
v -0.065046 0.027225 -0.043462
v -0.050448 0.023791 -0.033708
v -0.034657 0.021549 -0.023157
v -0.020333 0.020427 -0.013586
v -0.010078 0.020056 -0.006734
v -0.070447 0.040000 -0.070446
v -0.005169 0.020000 -0.005168
v -0.069746 0.036000 -0.069745
v -0.064735 0.031522 -0.064734
v -0.055318 0.027225 -0.055317
v -0.042903 0.023792 -0.042902
v -0.029473 0.021549 -0.029473
v -0.017293 0.020427 -0.017292
v -0.008571 0.020056 -0.008571
v -0.055350 0.040000 -0.082836
v -0.004061 0.020000 -0.006077
v -0.054799 0.036000 -0.082012
v -0.050862 0.031522 -0.076119
v -0.043463 0.027225 -0.065046
v -0.033709 0.023792 -0.050448
v -0.023157 0.021549 -0.034657
v -0.013586 0.020427 -0.020333
v -0.006734 0.020056 -0.010078
v -0.002797 0.020000 -0.006753
v -0.037746 0.036000 -0.091127
v -0.035034 0.031522 -0.084580
v -0.029938 0.027225 -0.072275
v -0.023219 0.023791 -0.056054
v -0.015951 0.021549 -0.038508
v -0.009359 0.020427 -0.022593
v -0.004639 0.020056 -0.011198
v -0.001426 0.020000 -0.007169
v -0.019243 0.036000 -0.096740
v -0.017861 0.031522 -0.089789
v -0.015262 0.027225 -0.076727
v -0.011837 0.023792 -0.059507
v -0.008132 0.021549 -0.040880
v -0.004771 0.020427 -0.023985
v -0.002365 0.020056 -0.011888
v -0.019483 0.320000 -0.097948
v -0.038218 0.320000 -0.092265
v -0.055483 0.320000 -0.083036
v -0.070617 0.320000 -0.070617
v -0.083037 0.320000 -0.055483
v -0.092265 0.320000 -0.038217
v -0.097948 0.320000 -0.019483
v -0.099867 0.320000 0.000000
v -0.097948 0.320000 0.019483
v -0.092265 0.320000 0.038217
v -0.083037 0.320000 0.055483
v -0.070617 0.320000 0.070617
v -0.055483 0.320000 0.083036
v -0.038218 0.320000 0.092265
v -0.019483 0.320000 0.097948
v -0.000000 0.320000 0.099867
v -0.000000 0.320000 -0.099867
v -0.011514 0.340000 -0.057884
v -0.022586 0.340000 -0.054525
v -0.032789 0.340000 -0.049072
v -0.041732 0.340000 -0.041732
v -0.049072 0.340000 -0.032789
v -0.054526 0.340000 -0.022585
v -0.057884 0.340000 -0.011514
v -0.059018 0.340000 0.000000
v -0.057884 0.340000 0.011514
v -0.054526 0.340000 0.022585
v -0.049072 0.340000 0.032789
v -0.041732 0.340000 0.041732
v -0.032789 0.340000 0.049072
v -0.022586 0.340000 0.054525
v -0.011514 0.340000 0.057884
v -0.000001 0.340000 0.059018
v -0.000001 0.340000 -0.059018
v -0.007073 0.340000 -0.035554
v -0.013873 0.340000 -0.033491
v -0.020140 0.340000 -0.030141
v -0.025633 0.340000 -0.025633
v -0.030142 0.340000 -0.020140
v -0.033492 0.340000 -0.013872
v -0.035554 0.340000 -0.007072
v -0.036251 0.340000 -0.000000
v -0.035554 0.340000 0.007072
v -0.033492 0.340000 0.013872
v -0.030142 0.340000 0.020140
v -0.025633 0.340000 0.025633
v -0.020140 0.340000 0.030141
v -0.013873 0.340000 0.033491
v -0.007073 0.340000 0.035554
v -0.000000 0.340000 0.036251
v -0.000000 0.340000 -0.036251
v -0.009892 0.170000 -0.049729
v -0.019404 0.170000 -0.046844
v -0.028170 0.170000 -0.042158
v -0.035853 0.170000 -0.035853
v -0.042159 0.170000 -0.028169
v -0.046844 0.170000 -0.019403
v -0.049729 0.170000 -0.009892
v -0.050704 0.170000 -0.000000
v -0.049729 0.170000 0.009892
v -0.046844 0.170000 0.019403
v -0.042159 0.170000 0.028169
v -0.035853 0.170000 0.035853
v -0.028170 0.170000 0.042158
v -0.019404 0.170000 0.046844
v -0.009892 0.170000 0.049729
v -0.000000 0.170000 0.050703
v -0.000000 0.170000 -0.050703
v -0.006156 0.159750 -0.030948
v -0.012076 0.159750 -0.029152
v -0.017531 0.159750 -0.026236
v -0.022313 0.159750 -0.022312
v -0.026237 0.159750 -0.017531
v -0.029153 0.159750 -0.012075
v -0.030948 0.159750 -0.006156
v -0.031555 0.159750 -0.000000
v -0.030948 0.159750 0.006156
v -0.029153 0.159750 0.012075
v -0.026237 0.159750 0.017531
v -0.022313 0.159750 0.022312
v -0.017531 0.159750 0.026236
v -0.012076 0.159750 0.029152
v -0.006156 0.159750 0.030948
v -0.000001 0.159750 0.031554
v -0.000001 0.159750 -0.031554
v -0.001828 0.159750 -0.009188
v -0.003586 0.159750 -0.008655
v -0.005205 0.159750 -0.007789
v -0.006625 0.159750 -0.006624
v -0.007790 0.159750 -0.005205
v -0.008656 0.159750 -0.003585
v -0.009189 0.159750 -0.001828
v -0.009369 0.159750 0.000000
v -0.009189 0.159750 0.001828
v -0.008656 0.159750 0.003585
v -0.007790 0.159750 0.005205
v -0.006625 0.159750 0.006624
v -0.005205 0.159750 0.007789
v -0.003586 0.159750 0.008655
v -0.001828 0.159750 0.009188
v -0.000001 0.159750 0.009368
v -0.000001 0.159750 -0.009368
v -0.001612 0.149000 -0.008099
v -0.003161 0.149000 -0.007629
v -0.004588 0.149000 -0.006866
v -0.005840 0.149000 -0.005839
v -0.006867 0.149000 -0.004588
v -0.007630 0.149000 -0.003160
v -0.008100 0.149000 -0.001611
v -0.008258 0.149000 0.000000
v -0.008100 0.149000 0.001611
v -0.007630 0.149000 0.003160
v -0.006867 0.149000 0.004588
v -0.005840 0.149000 0.005839
v -0.004588 0.149000 0.006866
v -0.003161 0.149000 0.007629
v -0.001612 0.149000 0.008099
v -0.000001 0.149000 0.008258
v -0.000001 0.149000 -0.008258
vn -0.0980 -0.0000 0.9952
vn -0.1951 -0.0000 0.9808
vn -0.3827 -0.0000 0.9239
vn -0.5556 -0.0000 0.8315
vn -0.7071 -0.0000 0.7071
vn -0.8315 -0.0000 0.5556
vn -0.9239 -0.0000 0.3827
vn -0.9808 -0.0000 0.1951
vn -1.0000 -0.0000 -0.0000
vn -0.9808 -0.0000 -0.1951
vn -0.9239 -0.0000 -0.3827
vn -0.8315 -0.0000 -0.5556
vn -0.7071 -0.0000 -0.7071
vn -0.5556 -0.0000 -0.8315
vn -0.3827 -0.0000 -0.9239
vn -0.1951 -0.0000 -0.9808
vn -0.0980 -0.0000 -0.9952
vn -0.0000 1.0000 -0.0000
vn -0.0000 -1.0000 -0.0000
vn -0.0952 -0.2395 0.9662
vn -0.1894 -0.2406 0.9520
vn -0.0525 -0.8442 0.5334
vn -0.1042 -0.8454 0.5239
vn -0.0840 -0.9027 0.4221
vn -0.0423 -0.9019 0.4300
vn -0.0494 -0.9674 0.2485
vn -0.0250 -0.9671 0.2533
vn -0.0306 -0.9876 0.1540
vn -0.0155 -0.9875 0.1570
vn -0.0181 -0.9957 0.0910
vn -0.0091 -0.9956 0.0928
vn -0.0095 -0.9988 0.0477
vn -0.0048 -0.9988 0.0486
vn -0.0042 -0.9998 0.0210
vn -0.0021 -0.9998 0.0214
vn -0.0012 -1.0000 0.0060
vn -0.0006 -1.0000 0.0062
vn -0.3714 -0.2406 0.8967
vn -0.2044 -0.8454 0.4935
vn -0.1647 -0.9027 0.3976
vn -0.0970 -0.9674 0.2341
vn -0.0601 -0.9876 0.1451
vn -0.0355 -0.9957 0.0857
vn -0.0186 -0.9988 0.0449
vn -0.0082 -0.9998 0.0198
vn -0.0024 -1.0000 0.0057
vn -0.5393 -0.2406 0.8071
vn -0.2968 -0.8454 0.4441
vn -0.2391 -0.9027 0.3578
vn -0.1408 -0.9674 0.2107
vn -0.0872 -0.9876 0.1306
vn -0.0515 -0.9957 0.0772
vn -0.0270 -0.9988 0.0404
vn -0.0119 -0.9998 0.0178
vn -0.0034 -1.0000 0.0051
vn -0.6863 -0.2406 0.6863
vn -0.3777 -0.8454 0.3777
vn -0.3043 -0.9027 0.3043
vn -0.1792 -0.9674 0.1792
vn -0.1110 -0.9876 0.1110
vn -0.0656 -0.9957 0.0656
vn -0.0344 -0.9988 0.0344
vn -0.0151 -0.9998 0.0151
vn -0.0044 -1.0000 0.0044
vn -0.8071 -0.2406 0.5393
vn -0.4441 -0.8454 0.2968
vn -0.3578 -0.9027 0.2391
vn -0.2107 -0.9674 0.1408
vn -0.1305 -0.9876 0.0872
vn -0.0771 -0.9957 0.0516
vn -0.0404 -0.9988 0.0270
vn -0.0178 -0.9998 0.0119
vn -0.0051 -1.0000 0.0034
vn -0.8968 -0.2406 0.3714
vn -0.4935 -0.8454 0.2044
vn -0.3976 -0.9027 0.1647
vn -0.2341 -0.9674 0.0970
vn -0.1451 -0.9876 0.0601
vn -0.0857 -0.9957 0.0355
vn -0.0449 -0.9988 0.0186
vn -0.0198 -0.9998 0.0082
vn -0.0057 -1.0000 0.0024
vn -0.9520 -0.2406 0.1894
vn -0.5239 -0.8454 0.1042
vn -0.4221 -0.9027 0.0840
vn -0.2485 -0.9674 0.0494
vn -0.1540 -0.9876 0.0306
vn -0.0910 -0.9957 0.0181
vn -0.0477 -0.9988 0.0095
vn -0.0210 -0.9998 0.0042
vn -0.0060 -1.0000 0.0012
vn -0.9706 -0.2406 -0.0000
vn -0.5342 -0.8454 -0.0000
vn -0.4303 -0.9027 -0.0000
vn -0.2534 -0.9674 -0.0000
vn -0.1570 -0.9876 -0.0000
vn -0.0928 -0.9957 -0.0000
vn -0.0486 -0.9988 -0.0000
vn -0.0214 -0.9998 -0.0000
vn -0.0062 -1.0000 -0.0000
vn -0.9520 -0.2406 -0.1894
vn -0.5239 -0.8454 -0.1042
vn -0.4221 -0.9027 -0.0840
vn -0.2485 -0.9674 -0.0494
vn -0.1540 -0.9876 -0.0306
vn -0.0910 -0.9957 -0.0181
vn -0.0477 -0.9988 -0.0095
vn -0.0210 -0.9998 -0.0042
vn -0.0060 -1.0000 -0.0012
vn -0.8968 -0.2406 -0.3714
vn -0.4935 -0.8454 -0.2044
vn -0.3976 -0.9027 -0.1647
vn -0.2341 -0.9674 -0.0970
vn -0.1451 -0.9876 -0.0601
vn -0.0857 -0.9957 -0.0355
vn -0.0449 -0.9988 -0.0186
vn -0.0198 -0.9998 -0.0082
vn -0.0057 -1.0000 -0.0024
vn -0.8071 -0.2406 -0.5393
vn -0.4441 -0.8454 -0.2968
vn -0.3578 -0.9027 -0.2391
vn -0.2107 -0.9674 -0.1408
vn -0.1305 -0.9876 -0.0872
vn -0.0771 -0.9957 -0.0516
vn -0.0404 -0.9988 -0.0270
vn -0.0178 -0.9998 -0.0119
vn -0.0051 -1.0000 -0.0034
vn -0.6863 -0.2406 -0.6863
vn -0.3777 -0.8454 -0.3777
vn -0.3043 -0.9027 -0.3043
vn -0.1792 -0.9674 -0.1792
vn -0.1110 -0.9876 -0.1110
vn -0.0656 -0.9957 -0.0656
vn -0.0344 -0.9988 -0.0344
vn -0.0151 -0.9998 -0.0151
vn -0.0044 -1.0000 -0.0044
vn -0.5393 -0.2406 -0.8071
vn -0.2968 -0.8454 -0.4441
vn -0.2391 -0.9027 -0.3578
vn -0.1408 -0.9674 -0.2107
vn -0.0872 -0.9876 -0.1306
vn -0.0515 -0.9957 -0.0772
vn -0.0270 -0.9988 -0.0404
vn -0.0119 -0.9998 -0.0178
vn -0.0034 -1.0000 -0.0051
vn -0.3714 -0.2406 -0.8967
vn -0.2044 -0.8454 -0.4935
vn -0.1647 -0.9027 -0.3976
vn -0.0970 -0.9674 -0.2341
vn -0.0601 -0.9876 -0.1451
vn -0.0355 -0.9957 -0.0857
vn -0.0186 -0.9988 -0.0449
vn -0.0082 -0.9998 -0.0198
vn -0.0024 -1.0000 -0.0057
vn -0.1894 -0.2406 -0.9520
vn -0.1042 -0.8454 -0.5239
vn -0.0840 -0.9027 -0.4221
vn -0.0494 -0.9674 -0.2485
vn -0.0306 -0.9876 -0.1540
vn -0.0181 -0.9957 -0.0910
vn -0.0095 -0.9988 -0.0477
vn -0.0042 -0.9998 -0.0210
vn -0.0012 -1.0000 -0.0060
vn -0.0952 -0.2395 -0.9662
vn -0.0525 -0.8442 -0.5334
vn -0.0423 -0.9019 -0.4300
vn -0.0250 -0.9671 -0.2533
vn -0.0155 -0.9875 -0.1570
vn -0.0091 -0.9956 -0.0928
vn -0.0048 -0.9988 -0.0486
vn -0.0021 -0.9998 -0.0214
vn -0.0006 -1.0000 -0.0062
vn -0.4063 0.8981 -0.1683
vn -0.4313 0.8981 -0.0858
vn -0.4397 0.8981 -0.0000
vn -0.4313 0.8981 0.0858
vn -0.0858 0.8981 -0.4313
vn -0.1683 0.8981 -0.4063
vn -0.4063 0.8981 0.1683
vn -0.3656 0.8981 0.2443
vn -0.2443 0.8981 -0.3656
vn -0.3109 0.8981 -0.3109
vn -0.3109 0.8981 0.3109
vn -0.2443 0.8981 0.3656
vn -0.3656 0.8981 -0.2443
vn -0.1683 0.8981 0.4063
vn -0.0858 0.8981 0.4313
vn -0.0433 0.8973 -0.4393
vn -0.0433 0.8973 0.4393
vn 0.9773 -0.0847 0.1944
vn 0.9964 -0.0847 -0.0000
vn 0.2622 0.8816 -0.3924
vn 0.1806 0.8816 -0.4360
vn 0.0985 0.9663 -0.2379
vn 0.1430 0.9663 -0.2141
vn 0.9773 -0.0847 -0.1944
vn 0.9206 -0.0847 -0.3813
vn 0.8285 -0.0847 -0.5536
vn 0.7046 -0.0847 -0.7046
vn 0.0977 -0.0843 0.9916
vn 0.1944 -0.0847 0.9773
vn 0.5536 -0.0847 -0.8285
vn 0.3813 -0.0847 -0.9206
vn 0.1944 -0.0847 -0.9773
vn 0.0977 -0.0843 -0.9916
vn 0.3813 -0.0847 0.9206
vn 0.5536 -0.0847 0.8285
vn 0.7046 -0.0847 0.7046
vn 0.8285 -0.0847 0.5536
vn 0.9206 -0.0847 0.3813
vn 0.0921 0.8816 -0.4629
vn 0.0464 0.8807 -0.4714
vn 0.0254 0.9660 -0.2574
vn 0.0502 0.9663 -0.2525
vn 0.1806 0.8816 0.4360
vn 0.2622 0.8816 0.3924
vn 0.1430 0.9663 0.2141
vn 0.0985 0.9663 0.2379
vn 0.3337 0.8816 0.3337
vn 0.3924 0.8816 0.2622
vn 0.2141 0.9663 0.1430
vn 0.1820 0.9663 0.1821
vn 0.4360 0.8816 0.1806
vn 0.4629 0.8816 0.0921
vn 0.2525 0.9663 0.0502
vn 0.2379 0.9663 0.0985
vn 0.4719 0.8816 -0.0000
vn 0.4629 0.8816 -0.0921
vn 0.2525 0.9663 -0.0502
vn 0.2575 0.9663 -0.0000
vn 0.0921 0.8816 0.4629
vn 0.0502 0.9663 0.2525
vn 0.4360 0.8816 -0.1806
vn 0.3924 0.8816 -0.2622
vn 0.2141 0.9663 -0.1430
vn 0.2379 0.9663 -0.0985
vn 0.3337 0.8816 -0.3337
vn 0.1820 0.9663 -0.1821
vn 0.0464 0.8807 0.4714
vn 0.0254 0.9660 0.2574
vn 0.9947 0.1027 -0.0000
vn 0.9756 0.1027 -0.1941
vn 0.1941 0.1027 0.9756
vn 0.3807 0.1027 0.9190
vn 0.9190 0.1027 -0.3807
vn 0.8271 0.1027 -0.5526
vn 0.5526 0.1027 0.8271
vn 0.7034 0.1027 0.7034
vn 0.7034 0.1027 -0.7034
vn 0.5526 0.1027 -0.8271
vn 0.8271 0.1027 0.5526
vn 0.9190 0.1027 0.3807
vn 0.3807 0.1027 -0.9190
vn 0.1941 0.1027 -0.9756
vn 0.9756 0.1027 0.1941
vn 0.0975 0.1022 0.9900
vn 0.0975 0.1022 -0.9900
vn 1.0000 -0.0000 -0.0000
vn -0.0001 1.0000 -0.0000
vt 0.500000 0.500000
vt 0.500000 1.000000
vt 0.468750 1.000000
vt 0.468750 0.500000
vt 0.437500 1.000000
vt 0.437500 0.500000
vt 0.406250 1.000000
vt 0.406250 0.500000
vt 0.375000 1.000000
vt 0.375000 0.500000
vt 0.343750 1.000000
vt 0.343750 0.500000
vt 0.312500 1.000000
vt 0.312500 0.500000
vt 0.281250 1.000000
vt 0.281250 0.500000
vt 0.250000 1.000000
vt 0.250000 0.500000
vt 0.218750 1.000000
vt 0.218750 0.500000
vt 0.187500 1.000000
vt 0.187500 0.500000
vt 0.156250 1.000000
vt 0.156250 0.500000
vt 0.125000 1.000000
vt 0.125000 0.500000
vt 0.093750 1.000000
vt 0.093750 0.500000
vt 0.062500 1.000000
vt 0.062500 0.500000
vt 0.031250 1.000000
vt 0.031250 0.500000
vt 0.000000 1.000000
vt 0.000000 0.500000
vt 0.468750 0.500000
vt 0.468750 0.500000
vt 0.500000 0.500000
vt 0.468750 0.500000
vt 0.500000 0.500000
vt 0.468750 0.500000
vt 0.750000 0.010136
vt 0.703205 0.014745
vt 0.707376 0.035714
vt 0.750000 0.031516
vt 0.709009 0.043924
vt 0.750000 0.039886
vt 0.710780 0.052831
vt 0.750000 0.048968
vt 0.712623 0.062094
vt 0.750000 0.058413
vt 0.437500 0.500000
vt 0.658208 0.028395
vt 0.666390 0.048147
vt 0.669593 0.055880
vt 0.673068 0.064271
vt 0.676683 0.072997
vt 0.406250 0.500000
vt 0.406250 0.500000
vt 0.406250 0.500000
vt 0.616739 0.050561
vt 0.628617 0.068337
vt 0.633267 0.075297
vt 0.638313 0.082848
vt 0.643560 0.090701
vt 0.375000 0.500000
vt 0.375000 0.500000
vt 0.580391 0.080391
vt 0.595509 0.095509
vt 0.601427 0.101427
vt 0.607849 0.107849
vt 0.614528 0.114528
vt 0.343750 0.500000
vt 0.343750 0.500000
vt 0.550561 0.116739
vt 0.568337 0.128617
vt 0.575297 0.133267
vt 0.582848 0.138313
vt 0.590702 0.143560
vt 0.312500 0.500000
vt 0.312500 0.500000
vt 0.312500 0.500000
vt 0.528395 0.158208
vt 0.548147 0.166390
vt 0.555880 0.169593
vt 0.564271 0.173069
vt 0.572997 0.176683
vt 0.281250 0.500000
vt 0.281250 0.500000
vt 0.281250 0.500000
vt 0.514745 0.203205
vt 0.535714 0.207376
vt 0.543924 0.209009
vt 0.552831 0.210781
vt 0.562095 0.212623
vt 0.250000 0.500000
vt 0.250000 0.500000
vt 0.510136 0.250000
vt 0.531516 0.250000
vt 0.539886 0.250000
vt 0.548968 0.250000
vt 0.558413 0.250000
vt 0.218750 0.500000
vt 0.218750 0.500000
vt 0.218750 0.500000
vt 0.514745 0.296795
vt 0.535714 0.292624
vt 0.543924 0.290991
vt 0.552831 0.289219
vt 0.562094 0.287377
vt 0.187500 0.500000
vt 0.187500 0.500000
vt 0.187500 0.500000
vt 0.528395 0.341792
vt 0.548147 0.333610
vt 0.555880 0.330407
vt 0.564271 0.326932
vt 0.572997 0.323317
vt 0.156250 0.500000
vt 0.156250 0.500000
vt 0.156250 0.500000
vt 0.156250 0.500000
vt 0.550561 0.383261
vt 0.568337 0.371383
vt 0.575297 0.366733
vt 0.582848 0.361687
vt 0.590701 0.356440
vt 0.125000 0.500000
vt 0.125000 0.500000
vt 0.580391 0.419609
vt 0.595509 0.404491
vt 0.601427 0.398573
vt 0.607849 0.392151
vt 0.614528 0.385472
vt 0.093750 0.500000
vt 0.093750 0.500000
vt 0.093750 0.500000
vt 0.616739 0.449439
vt 0.628617 0.431663
vt 0.633267 0.424703
vt 0.638313 0.417152
vt 0.643560 0.409299
vt 0.062500 0.500000
vt 0.062500 0.500000
vt 0.062500 0.500000
vt 0.062500 0.500000
vt 0.658208 0.471605
vt 0.666390 0.451853
vt 0.669593 0.444120
vt 0.673068 0.435729
vt 0.676683 0.427003
vt 0.031250 0.500000
vt 0.031250 0.500000
vt 0.031250 0.500000
vt 0.703205 0.485255
vt 0.707376 0.464286
vt 0.709009 0.456077
vt 0.710781 0.447169
vt 0.712623 0.437906
vt 0.000061 0.500000
vt 0.000240 0.500000
vt 0.000531 0.500000
vt 0.000923 0.500000
vt 0.750000 0.489864
vt 0.750000 0.468484
vt 0.750000 0.460114
vt 0.750000 0.451032
vt 0.750000 0.441587
s 1
f 3/1/1 4/2/1 6/3/2 5/4/2
f 5/4/2 6/3/2 8/5/3 7/6/3
f 7/6/3 8/5/3 10/7/4 9/8/4
f 9/8/4 10/7/4 12/9/5 11/10/5
f 11/10/5 12/9/5 14/11/6 13/12/6
f 13/12/6 14/11/6 16/13/7 15/14/7
f 15/14/7 16/13/7 18/15/8 17/16/8
f 17/16/8 18/15/8 20/17/9 19/18/9
f 19/18/9 20/17/9 22/19/10 21/20/10
f 21/20/10 22/19/10 24/21/11 23/22/11
f 23/22/11 24/21/11 26/23/12 25/24/12
f 25/24/12 26/23/12 28/25/13 27/26/13
f 27/26/13 28/25/13 30/27/14 29/28/14
f 29/28/14 30/27/14 32/29/15 31/30/15
f 31/30/15 32/29/15 34/31/16 33/32/16
f 33/32/16 34/31/16 2/33/17 1/34/17
f 13/12/18 15/14/18 42/14/18 41/12/18
f 31/30/18 33/32/18 51/32/18 50/30/18
f 5/4/18 7/6/18 38/6/18 37/4/18
f 23/22/18 25/24/18 47/24/18 46/22/18
f 15/14/18 17/16/18 43/16/18 42/14/18
f 33/32/18 1/34/18 35/34/18 51/32/18
f 7/6/18 9/8/18 39/8/18 38/6/18
f 25/24/18 27/26/18 48/26/18 47/24/18
f 17/16/18 19/18/18 44/18/18 43/16/18
f 9/8/18 11/10/18 40/10/18 39/8/18
f 27/26/18 29/28/18 49/28/18 48/26/18
f 19/18/18 21/20/18 45/20/18 44/18/18
f 11/10/18 13/12/18 41/12/18 40/10/18
f 29/28/18 31/30/18 50/30/18 49/28/18
f 3/1/18 5/4/18 37/4/18 36/1/18
f 21/20/18 23/22/18 46/22/18 45/20/18
f 42/14/7 43/16/8 56/16/8 139/14/7
f 43/16/8 44/18/9 57/18/9 56/16/8
f 44/18/9 45/20/10 58/20/10 57/18/9
f 45/20/10 46/22/11 59/22/11 58/20/10
f 46/22/11 47/24/12 60/24/12 59/22/11
f 47/24/12 48/26/13 188/26/13 60/24/12
f 48/26/13 49/28/14 197/28/14 188/26/13
f 49/28/14 50/30/15 61/30/15 197/28/14
f 36/1/1 37/4/2 54/4/2 53/1/1
f 50/30/15 51/32/16 62/32/16 61/30/15
f 37/4/2 38/6/3 104/6/3 54/4/2
f 51/32/16 35/34/17 52/34/17 62/32/16
f 38/6/3 39/8/4 113/8/4 104/6/3
f 39/8/4 40/10/5 122/10/5 113/8/4
f 40/10/5 41/12/6 55/12/6 122/10/5
f 41/12/6 42/14/7 139/14/7 55/12/6
f 28/25/19 26/23/19 67/23/19 66/25/19
f 10/7/19 8/5/19 76/5/19 75/7/19
f 2/33/19 34/31/19 63/31/19 79/33/19
f 18/15/19 16/13/19 72/13/19 71/15/19
f 26/23/19 24/21/19 68/21/19 67/23/19
f 8/5/19 6/3/19 77/3/19 76/5/19
f 34/31/19 32/29/19 64/29/19 63/31/19
f 16/13/19 14/11/19 73/11/19 72/13/19
f 24/21/19 22/19/19 69/19/19 68/21/19
f 6/3/19 4/2/19 78/2/19 77/3/19
f 32/29/19 30/27/19 65/27/19 64/29/19
f 14/11/19 12/9/19 74/9/19 73/11/19
f 22/19/19 20/17/19 70/17/19 69/19/19
f 30/27/19 28/25/19 66/25/19 65/27/19
f 12/9/19 10/7/19 75/7/19 74/9/19
f 20/17/19 18/15/19 71/15/19 70/17/19
f 53/1/20 54/35/21 97/36/21 89/37/20
f 89/37/22 97/36/23 98/38/24 90/39/25
f 90/39/25 98/38/24 99/40/26 91/1/27
f 91/1/27 99/40/26 100/4/28 92/1/29
f 92/41/29 100/42/28 101/43/30 93/44/31
f 93/44/31 101/43/30 102/45/32 94/46/33
f 94/46/33 102/45/32 103/47/34 95/48/35
f 95/48/35 103/47/34 96/49/36 88/50/37
f 54/35/21 104/6/38 106/6/38 97/36/21
f 97/36/23 106/6/39 107/51/40 98/38/24
f 98/38/24 107/51/40 108/6/41 99/40/26
f 99/40/26 108/6/41 109/6/42 100/4/28
f 100/42/28 109/52/42 110/53/43 101/43/30
f 101/43/30 110/53/43 111/54/44 102/45/32
f 102/45/32 111/54/44 112/55/45 103/47/34
f 103/47/34 112/55/45 105/56/46 96/49/36
f 104/6/38 113/8/47 115/57/47 106/6/38
f 106/6/39 115/57/48 116/58/49 107/51/40
f 107/51/40 116/58/49 117/59/50 108/6/41
f 108/6/41 117/59/50 118/8/51 109/6/42
f 109/52/42 118/60/51 119/61/52 110/53/43
f 110/53/43 119/61/52 120/62/53 111/54/44
f 111/54/44 120/62/53 121/63/54 112/55/45
f 112/55/45 121/63/54 114/64/55 105/56/46
f 113/8/47 122/10/56 124/65/56 115/57/47
f 115/57/48 124/65/57 125/10/58 116/58/49
f 116/58/49 125/10/58 126/10/59 117/59/50
f 117/59/50 126/10/59 127/66/60 118/8/51
f 118/60/51 127/67/60 128/68/61 119/61/52
f 119/61/52 128/68/61 129/69/62 120/62/53
f 120/62/53 129/69/62 130/70/63 121/63/54
f 121/63/54 130/70/63 123/71/64 114/64/55
f 122/10/56 55/72/65 132/72/65 124/65/56
f 124/65/57 132/72/66 133/12/67 125/10/58
f 125/10/58 133/12/67 134/72/68 126/10/59
f 126/10/59 134/72/68 135/73/69 127/66/60
f 127/67/60 135/74/69 136/75/70 128/68/61
f 128/68/61 136/75/70 137/76/71 129/69/62
f 129/69/62 137/76/71 138/77/72 130/70/63
f 130/70/63 138/77/72 131/78/73 123/71/64
f 55/72/65 139/14/74 141/79/74 132/72/65
f 132/72/66 141/79/75 142/80/76 133/12/67
f 133/12/67 142/80/76 143/81/77 134/72/68
f 134/72/68 143/81/77 144/14/78 135/73/69
f 135/74/69 144/82/78 145/83/79 136/75/70
f 136/75/70 145/83/79 146/84/80 137/76/71
f 137/76/71 146/84/80 147/85/81 138/77/72
f 138/77/72 147/85/81 140/86/82 131/78/73
f 139/14/74 56/16/83 149/87/83 141/79/74
f 141/79/75 149/87/84 150/88/85 142/80/76
f 142/80/76 150/88/85 151/16/86 143/81/77
f 143/81/77 151/16/86 152/89/87 144/14/78
f 144/82/78 152/90/87 153/91/88 145/83/79
f 145/83/79 153/91/88 154/92/89 146/84/80
f 146/84/80 154/92/89 155/93/90 147/85/81
f 147/85/81 155/93/90 148/94/91 140/86/82
f 56/16/83 57/18/92 157/18/92 149/87/83
f 149/87/84 157/18/93 158/95/94 150/88/85
f 150/88/85 158/95/94 159/95/95 151/16/86
f 151/16/86 159/95/95 160/96/96 152/89/87
f 152/90/87 160/97/96 161/98/97 153/91/88
f 153/91/88 161/98/97 162/99/98 154/92/89
f 154/92/89 162/99/98 163/100/99 155/93/90
f 155/93/90 163/100/99 156/101/100 148/94/91
f 57/18/92 58/102/101 165/20/101 157/18/92
f 157/18/93 165/20/102 166/103/103 158/95/94
f 158/95/94 166/103/103 167/104/104 159/95/95
f 159/95/95 167/104/104 168/102/105 160/96/96
f 160/97/96 168/105/105 169/106/106 161/98/97
f 161/98/97 169/106/106 170/107/107 162/99/98
f 162/99/98 170/107/107 171/108/108 163/100/99
f 163/100/99 171/108/108 164/109/109 156/101/100
f 58/102/101 59/110/110 173/22/110 165/20/101
f 165/20/102 173/22/111 174/22/112 166/103/103
f 166/103/103 174/22/112 175/111/113 167/104/104
f 167/104/104 175/111/113 176/112/114 168/102/105
f 168/105/105 176/113/114 177/114/115 169/106/106
f 169/106/106 177/114/115 178/115/116 170/107/107
f 170/107/107 178/115/116 179/116/117 171/108/108
f 171/108/108 179/116/117 172/117/118 164/109/109
f 59/110/110 60/118/119 181/119/119 173/22/110
f 173/22/111 181/119/120 182/120/121 174/22/112
f 174/22/112 182/120/121 183/119/122 175/111/113
f 175/111/113 183/119/122 184/121/123 176/112/114
f 176/113/114 184/122/123 185/123/124 177/114/115
f 177/114/115 185/123/124 186/124/125 178/115/116
f 178/115/116 186/124/125 187/125/126 179/116/117
f 179/116/117 187/125/126 180/126/127 172/117/118
f 60/118/119 188/127/128 190/128/128 181/119/119
f 181/119/120 190/128/129 191/26/130 182/120/121
f 182/120/121 191/26/130 192/26/131 183/119/122
f 183/119/122 192/26/131 193/26/132 184/121/123
f 184/122/123 193/129/132 194/130/133 185/123/124
f 185/123/124 194/130/133 195/131/134 186/124/125
f 186/124/125 195/131/134 196/132/135 187/125/126
f 187/125/126 196/132/135 189/133/136 180/126/127
f 188/127/128 197/134/137 199/135/137 190/128/128
f 190/128/129 199/135/138 200/28/139 191/26/130
f 191/26/130 200/28/139 201/136/140 192/26/131
f 192/26/131 201/136/140 202/28/141 193/26/132
f 193/129/132 202/137/141 203/138/142 194/130/133
f 194/130/133 203/138/142 204/139/143 195/131/134
f 195/131/134 204/139/143 205/140/144 196/132/135
f 196/132/135 205/140/144 198/141/145 189/133/136
f 197/134/137 61/30/146 207/142/146 199/135/137
f 199/135/138 207/142/147 208/143/148 200/28/139
f 200/28/139 208/143/148 209/144/149 201/136/140
f 201/136/140 209/144/149 210/145/150 202/28/141
f 202/137/141 210/146/150 211/147/151 203/138/142
f 203/138/142 211/147/151 212/148/152 204/139/143
f 204/139/143 212/148/152 213/149/153 205/140/144
f 205/140/144 213/149/153 206/150/154 198/141/145
f 61/30/146 62/151/155 215/152/155 207/142/146
f 207/142/147 215/152/156 216/152/157 208/143/148
f 208/143/148 216/152/157 217/152/158 209/144/149
f 209/144/149 217/152/158 218/153/159 210/145/150
f 210/146/150 218/154/159 219/155/160 211/147/151
f 211/147/151 219/155/160 220/156/161 212/148/152
f 212/148/152 220/156/161 221/157/162 213/149/153
f 213/149/153 221/157/162 214/158/163 206/150/154
f 62/151/155 52/34/164 87/159/164 215/152/155
f 215/152/156 87/159/165 86/160/166 216/152/157
f 216/152/157 86/160/166 85/161/167 217/152/158
f 217/152/158 85/161/167 84/162/168 218/153/159
f 218/154/159 84/163/168 83/164/169 219/155/160
f 219/155/160 83/164/169 82/165/170 220/156/161
f 220/156/161 82/165/170 81/166/171 221/157/162
f 221/157/162 81/166/171 80/167/172 214/158/163
f 73/11/6 74/9/5 233/9/5 232/11/6
f 66/25/13 67/23/12 226/23/12 225/25/13
f 75/7/4 76/5/3 235/5/3 234/7/4
f 77/3/2 78/2/1 237/2/1 236/3/2
f 68/21/11 69/19/10 228/19/10 227/21/11
f 70/17/9 71/15/8 230/15/8 229/17/9
f 72/13/7 73/11/6 232/11/6 231/13/7
f 79/33/17 63/31/16 222/31/16 238/33/17
f 63/31/16 64/29/15 223/29/15 222/31/16
f 74/9/5 75/7/4 234/7/4 233/9/5
f 65/27/14 66/25/13 225/25/13 224/27/14
f 67/23/12 68/21/11 227/21/11 226/23/12
f 64/29/15 65/27/14 224/27/14 223/29/15
f 76/5/3 77/3/2 236/3/2 235/5/3
f 69/19/10 70/17/9 229/17/9 228/19/10
f 71/15/8 72/13/7 231/13/7 230/15/8
f 239/31/18 240/29/18 257/29/18 256/31/18
f 227/21/173 228/19/174 245/19/174 244/21/173
f 229/17/175 230/15/176 247/15/176 246/17/175
f 222/31/177 223/29/178 240/29/178 239/31/177
f 231/13/179 232/11/180 249/11/180 248/13/179
f 224/27/181 225/25/182 242/25/182 241/27/181
f 233/9/183 234/7/184 251/7/184 250/9/183
f 226/23/185 227/21/173 244/21/173 243/23/185
f 235/5/186 236/3/187 253/3/187 252/5/186
f 228/19/174 229/17/175 246/17/175 245/19/174
f 230/15/176 231/13/179 248/13/179 247/15/176
f 232/11/180 233/9/183 250/9/183 249/11/180
f 238/33/188 222/31/177 239/31/177 255/33/188
f 234/7/184 235/5/186 252/5/186 251/7/184
f 236/3/187 237/2/189 254/2/189 253/3/187
f 223/29/178 224/27/181 241/27/181 240/29/178
f 225/25/182 226/23/185 243/23/185 242/25/182
f 262/19/190 263/17/191 280/17/191 279/19/190
f 248/13/18 249/11/18 266/11/18 265/13/18
f 241/27/18 242/25/18 259/25/18 258/27/18
f 250/9/18 251/7/18 268/7/18 267/9/18
f 243/23/18 244/21/18 261/21/18 260/23/18
f 252/5/18 253/3/18 270/3/18 269/5/18
f 245/19/18 246/17/18 263/17/18 262/19/18
f 247/15/18 248/13/18 265/13/18 264/15/18
f 249/11/18 250/9/18 267/9/18 266/11/18
f 255/33/18 239/31/18 256/31/18 272/33/18
f 251/7/18 252/5/18 269/5/18 268/7/18
f 253/3/18 254/2/18 271/2/18 270/3/18
f 240/29/18 241/27/18 258/27/18 257/29/18
f 242/25/18 243/23/18 260/23/18 259/25/18
f 244/21/18 245/19/18 262/19/18 261/21/18
f 246/17/18 247/15/18 264/15/18 263/17/18
f 285/7/192 286/5/193 303/5/194 302/7/195
f 264/15/196 265/13/197 282/13/197 281/15/196
f 266/11/198 267/9/199 284/9/199 283/11/198
f 272/33/200 256/31/201 273/31/201 289/33/200
f 268/7/202 269/5/203 286/5/203 285/7/202
f 270/3/204 271/2/205 288/2/205 287/3/204
f 257/29/206 258/27/207 275/27/207 274/29/206
f 259/25/208 260/23/209 277/23/209 276/25/208
f 261/21/210 262/19/190 279/19/190 278/21/210
f 263/17/191 264/15/196 281/15/196 280/17/191
f 256/31/201 257/29/206 274/29/206 273/31/201
f 265/13/197 266/11/198 283/11/198 282/13/197
f 258/27/207 259/25/208 276/25/208 275/27/207
f 267/9/199 268/7/202 285/7/202 284/9/199
f 260/23/209 261/21/210 278/21/210 277/23/209
f 269/5/203 270/3/204 287/3/204 286/5/203
f 287/3/211 288/2/212 305/2/213 304/3/214
f 274/29/215 275/27/216 292/27/217 291/29/218
f 276/25/219 277/23/220 294/23/221 293/25/222
f 278/21/223 279/19/224 296/19/225 295/21/226
f 280/17/227 281/15/228 298/15/229 297/17/230
f 273/31/231 274/29/215 291/29/218 290/31/232
f 282/13/233 283/11/234 300/11/235 299/13/236
f 275/27/216 276/25/219 293/25/222 292/27/217
f 284/9/237 285/7/192 302/7/195 301/9/238
f 277/23/220 278/21/223 295/21/226 294/23/221
f 286/5/193 287/3/211 304/3/214 303/5/194
f 279/19/224 280/17/227 297/17/230 296/19/225
f 281/15/228 282/13/233 299/13/236 298/15/229
f 283/11/234 284/9/237 301/9/238 300/11/235
f 289/33/239 273/31/231 290/31/232 306/33/240
f 293/25/222 294/23/221 311/23/18 310/25/18
f 295/21/226 296/19/225 313/19/18 312/21/18
f 297/17/230 298/15/229 315/15/18 314/17/18
f 290/31/232 291/29/218 308/29/18 307/31/18
f 299/13/236 300/11/235 317/11/18 316/13/18
f 292/27/217 293/25/222 310/25/18 309/27/18
f 301/9/238 302/7/195 319/7/18 318/9/18
f 294/23/221 295/21/226 312/21/18 311/23/18
f 303/5/194 304/3/214 321/3/18 320/5/18
f 296/19/225 297/17/230 314/17/18 313/19/18
f 298/15/229 299/13/236 316/13/18 315/15/18
f 300/11/235 301/9/238 318/9/18 317/11/18
f 306/33/240 290/31/232 307/31/18 323/33/18
f 302/7/195 303/5/194 320/5/18 319/7/18
f 304/3/214 305/2/213 322/2/18 321/3/18
f 291/29/218 292/27/217 309/27/18 308/29/18
f 314/17/241 315/15/242 332/15/242 331/17/241
f 307/31/243 308/29/244 325/29/244 324/31/243
f 316/13/245 317/11/246 334/11/246 333/13/245
f 309/27/247 310/25/248 327/25/248 326/27/247
f 318/9/249 319/7/250 336/7/250 335/9/249
f 311/23/251 312/21/252 329/21/252 328/23/251
f 320/5/253 321/3/254 338/3/254 337/5/253
f 313/19/255 314/17/241 331/17/241 330/19/255
f 315/15/242 316/13/245 333/13/245 332/15/242
f 317/11/246 318/9/249 335/9/249 334/11/246
f 323/33/256 307/31/243 324/31/243 340/33/256
f 319/7/250 320/5/253 337/5/253 336/7/250
f 321/3/254 322/2/257 339/2/257 338/3/254
f 308/29/244 309/27/247 326/27/247 325/29/244
f 310/25/248 311/23/251 328/23/251 327/25/248
f 312/21/252 313/19/255 330/19/255 329/21/252
f 189/133/136 206/150/154 105/56/46
f 325/29/18 333/13/18 337/5/18
f 306/33/258 323/33/258 340/33/258
f 2/33/258 79/33/258 238/33/258
f 238/33/258 255/33/258 2/33/258
f 255/33/258 272/33/258 2/33/258
f 52/34/258 35/34/258 1/34/258
f 1/34/258 2/33/258 289/33/258
f 2/33/258 272/33/258 289/33/258
f 86/160/258 87/159/258 52/34/258
f 84/162/258 85/161/258 1/34/258
f 85/161/258 86/160/258 52/34/258
f 1/34/258 85/161/258 52/34/258
f 82/165/258 83/164/258 1/34/258
f 83/164/258 84/162/258 1/34/258
f 80/167/258 81/166/258 340/33/258
f 81/166/258 82/165/258 1/34/258
f 95/48/258 88/50/258 339/2/258
f 53/1/258 91/1/258 3/1/258 36/1/258
f 93/44/258 94/46/258 3/1/258
f 94/46/258 95/48/258 3/1/258
f 91/1/258 92/41/258 3/1/258
f 92/41/258 93/44/258 3/1/258
f 89/37/258 90/39/258 53/1/258
f 90/39/258 91/1/258 53/1/258
f 237/2/258 78/2/258 4/2/258
f 254/2/258 237/2/258 4/2/258
f 254/2/258 4/2/258 271/2/258
f 4/2/258 3/1/258 288/2/258
f 288/2/258 271/2/258 4/2/258
f 339/2/258 322/2/258 305/2/258
f 305/2/258 288/2/258 3/1/258
f 95/48/258 339/2/258 3/1/258
f 81/166/258 1/34/258 340/33/258
f 1/34/258 289/33/258 306/33/258
f 305/2/258 3/1/258 339/2/258
f 1/34/258 306/33/258 340/33/258
f 340/33/258 339/2/258 88/50/258 80/167/258
f 88/50/37 96/49/36 80/167/172
f 96/49/36 105/56/46 80/167/172
f 105/56/46 114/64/55 123/71/64
f 123/71/64 131/78/73 140/86/82
f 140/86/82 148/94/91 156/101/100
f 156/101/100 164/109/109 140/86/82
f 164/109/109 172/117/118 140/86/82
f 172/117/118 180/126/127 189/133/136
f 189/133/136 198/141/145 206/150/154
f 206/150/154 214/158/163 105/56/46
f 214/158/163 80/167/172 105/56/46
f 105/56/46 123/71/64 172/117/118
f 123/71/64 140/86/82 172/117/118
f 172/117/118 189/133/136 105/56/46
f 340/33/18 324/31/18 339/2/18
f 324/31/18 325/29/18 339/2/18
f 325/29/18 326/27/259 327/25/18
f 327/25/18 328/23/18 325/29/18
f 328/23/18 329/21/18 325/29/18
f 329/21/18 330/19/259 331/17/259
f 331/17/259 332/15/18 329/21/18
f 332/15/18 333/13/18 329/21/18
f 333/13/18 334/11/18 337/5/18
f 334/11/18 335/9/18 337/5/18
f 335/9/18 336/7/259 337/5/18
f 337/5/18 338/3/18 325/29/18
f 338/3/18 339/2/18 325/29/18
f 325/29/18 329/21/18 333/13/18
