# Blender 4.5.1 LTS
# www.blender.org
o Bullet-Pistol-Roundnose
v -0.000000 -0.000000 -0.000000
v 0.000000 0.096436 -0.100000
v 0.019509 0.096436 -0.098079
v 0.038268 0.096436 -0.092388
v 0.055557 0.096436 -0.083147
v 0.070711 0.096436 -0.070711
v 0.083147 0.096436 -0.055557
v 0.092388 0.096436 -0.038268
v 0.098079 0.096436 -0.019509
v 0.100000 0.096436 0.000000
v 0.098079 0.096436 0.019509
v 0.092388 0.096436 0.038268
v 0.083147 0.096436 0.055557
v 0.070711 0.096436 0.070711
v 0.055557 0.096436 0.083147
v 0.038268 0.096436 0.092388
v 0.019509 0.096436 0.098079
v 0.000000 0.096436 0.100000
v -0.019509 0.096436 0.098079
v -0.038268 0.096436 0.092388
v -0.055557 0.096436 0.083147
v -0.070711 0.096436 0.070711
v -0.083147 0.096436 0.055557
v -0.092388 0.096436 0.038268
v -0.098079 0.096436 0.019509
v -0.100000 0.096436 0.000000
v -0.098079 0.096436 -0.019509
v -0.092388 0.096436 -0.038268
v -0.083147 0.096436 -0.055557
v -0.070711 0.096436 -0.070711
v -0.055557 0.096436 -0.083147
v -0.038268 0.096436 -0.092388
v -0.019509 0.096436 -0.098079
v -0.000000 0.136436 -0.100000
v 0.019509 0.136436 -0.098079
v 0.038268 0.136436 -0.092388
v 0.055557 0.136436 -0.083147
v 0.070711 0.136436 -0.070711
v 0.083147 0.136436 -0.055557
v 0.092388 0.136436 -0.038268
v 0.098079 0.136436 -0.019509
v 0.100000 0.136436 0.000000
v 0.098079 0.136436 0.019509
v 0.092388 0.136436 0.038268
v 0.083147 0.136436 0.055557
v 0.070711 0.136436 0.070711
v 0.055557 0.136436 0.083147
v 0.038268 0.136436 0.092388
v 0.019509 0.136436 0.098079
v -0.000000 0.136436 0.100000
v -0.019509 0.136436 0.098079
v -0.038268 0.136436 0.092388
v -0.055557 0.136436 0.083147
v -0.070711 0.136436 0.070711
v -0.083147 0.136436 0.055557
v -0.092388 0.136436 0.038268
v -0.098079 0.136436 0.019509
v -0.100000 0.136436 0.000000
v -0.098079 0.136436 -0.019509
v -0.092388 0.136436 -0.038268
v -0.083147 0.136436 -0.055557
v -0.070711 0.136436 -0.070711
v -0.055557 0.136436 -0.083147
v -0.038268 0.136436 -0.092388
v -0.019509 0.136436 -0.098079
v -0.018662 0.096436 -0.093819
v -0.036606 0.096436 -0.088375
v -0.053144 0.096436 -0.079536
v -0.067639 0.096436 -0.067639
v -0.079536 0.096436 -0.053144
v -0.088375 0.096436 -0.036606
v -0.093819 0.096436 -0.018662
v -0.095657 0.096436 0.000000
v -0.093819 0.096436 0.018662
v -0.088375 0.096436 0.036606
v -0.079536 0.096436 0.053144
v -0.067639 0.096436 0.067639
v -0.053144 0.096436 0.079536
v -0.036606 0.096436 0.088375
v -0.018662 0.096436 0.093819
v -0.000000 0.096436 0.095657
v 0.018662 0.096436 0.093819
v 0.036606 0.096436 0.088375
v 0.053144 0.096436 0.079536
v 0.067639 0.096436 0.067639
v 0.079536 0.096436 0.053144
v 0.088375 0.096436 0.036606
v 0.093819 0.096436 0.018662
v 0.095657 0.096436 0.000000
v 0.093819 0.096436 -0.018662
v 0.088375 0.096436 -0.036606
v 0.079536 0.096436 -0.053144
v 0.067639 0.096436 -0.067639
v 0.053144 0.096436 -0.079536
v 0.036606 0.096436 -0.088375
v -0.000000 0.096436 -0.095657
v 0.018662 0.096436 -0.093819
v 0.000000 0.330742 -0.089184
v 0.000000 0.352397 -0.077235
v 0.000000 0.384883 -0.044592
v 0.008700 0.384883 -0.043735
v 0.015068 0.352397 -0.075751
v 0.034129 0.330742 -0.082395
v 0.017065 0.384883 -0.041198
v 0.029557 0.352397 -0.071356
v 0.024774 0.384883 -0.037077
v 0.042910 0.352397 -0.064219
v 0.063062 0.330742 -0.063062
v 0.031531 0.384883 -0.031531
v 0.054614 0.352397 -0.054614
v 0.074154 0.330742 -0.049548
v 0.037077 0.384883 -0.024774
v 0.064219 0.352397 -0.042910
v 0.041198 0.384883 -0.017065
v 0.071356 0.352397 -0.029557
v 0.087470 0.330742 -0.017399
v 0.043735 0.384883 -0.008699
v 0.075751 0.352397 -0.015068
v 0.044592 0.384883 0.000000
v 0.077235 0.352397 0.000000
v 0.087470 0.330742 0.017399
v 0.043735 0.384883 0.008699
v 0.075751 0.352397 0.015068
v 0.041198 0.384883 0.017065
v 0.071356 0.352397 0.029557
v 0.037077 0.384883 0.024774
v 0.064219 0.352397 0.042910
v 0.031531 0.384883 0.031531
v 0.054614 0.352397 0.054614
v 0.024774 0.384883 0.037077
v 0.042910 0.352397 0.064219
v 0.034129 0.330742 0.082395
v 0.017065 0.384883 0.041198
v 0.029557 0.352397 0.071356
v 0.017399 0.330742 0.087470
v 0.008700 0.384883 0.043735
v 0.015068 0.352397 0.075751
v 0.000000 0.384883 0.044592
v 0.000000 0.352397 0.077235
v -0.017399 0.330742 0.087470
v -0.008699 0.384883 0.043735
v -0.015068 0.352397 0.075751
v -0.034129 0.330742 0.082395
v -0.017065 0.384883 0.041198
v -0.029557 0.352397 0.071356
v -0.000000 0.396774 0.000000
v -0.024774 0.384883 0.037077
v -0.042910 0.352397 0.064219
v -0.031531 0.384883 0.031531
v -0.054614 0.352397 0.054614
v -0.074154 0.330742 0.049548
v -0.037077 0.384883 0.024774
v -0.064219 0.352397 0.042910
v -0.041198 0.384883 0.017065
v -0.071356 0.352397 0.029557
v -0.043735 0.384883 0.008699
v -0.075751 0.352397 0.015068
v -0.044592 0.384883 0.000000
v -0.077235 0.352397 0.000000
v -0.087470 0.330742 -0.017399
v -0.043735 0.384883 -0.008699
v -0.075751 0.352397 -0.015068
v -0.041198 0.384883 -0.017065
v -0.071356 0.352397 -0.029557
v -0.037077 0.384883 -0.024774
v -0.064219 0.352397 -0.042910
v -0.063062 0.330742 -0.063062
v -0.031531 0.384883 -0.031531
v -0.054614 0.352397 -0.054614
v -0.049548 0.330742 -0.074154
v -0.024774 0.384883 -0.037077
v -0.042910 0.352397 -0.064219
v -0.017065 0.384883 -0.041198
v -0.029557 0.352397 -0.071356
v -0.017399 0.330742 -0.087470
v -0.008699 0.384883 -0.043735
v -0.015068 0.352397 -0.075751
v 0.000000 0.242798 -0.099168
v 0.000000 0.286782 -0.095273
v 0.017399 0.330742 -0.087470
v 0.019347 0.242798 -0.097263
v 0.018587 0.286782 -0.093442
v 0.037950 0.242798 -0.091619
v 0.036459 0.286782 -0.088021
v 0.049548 0.330742 -0.074154
v 0.055095 0.242798 -0.082455
v 0.052931 0.286782 -0.079216
v 0.070123 0.242798 -0.070123
v 0.067368 0.286782 -0.067368
v 0.082455 0.242798 -0.055095
v 0.079216 0.286782 -0.052931
v 0.082395 0.330742 -0.034129
v 0.091620 0.242798 -0.037950
v 0.088021 0.286782 -0.036459
v 0.097263 0.242798 -0.019347
v 0.093442 0.286782 -0.018587
v 0.089184 0.330742 0.000000
v 0.099168 0.242798 0.000000
v 0.095273 0.286782 0.000000
v 0.097263 0.242798 0.019347
v 0.093442 0.286782 0.018587
v 0.082395 0.330742 0.034129
v 0.091620 0.242798 0.037950
v 0.088021 0.286782 0.036459
v 0.074154 0.330742 0.049548
v 0.082455 0.242798 0.055095
v 0.079216 0.286782 0.052931
v 0.063062 0.330742 0.063062
v 0.070123 0.242798 0.070123
v 0.067368 0.286782 0.067368
v 0.049548 0.330742 0.074154
v 0.055095 0.242798 0.082455
v 0.052931 0.286782 0.079216
v 0.037950 0.242798 0.091619
v 0.036459 0.286782 0.088021
v 0.019347 0.242798 0.097263
v 0.018587 0.286782 0.093442
v 0.000000 0.330742 0.089184
v 0.000000 0.242798 0.099168
v 0.000000 0.286782 0.095273
v -0.019347 0.242798 0.097263
v -0.018587 0.286782 0.093442
v -0.037950 0.242798 0.091619
v -0.036459 0.286782 0.088021
v -0.049548 0.330742 0.074154
v -0.055095 0.242798 0.082455
v -0.052931 0.286782 0.079216
v -0.063062 0.330742 0.063062
v -0.070123 0.242798 0.070123
v -0.067368 0.286782 0.067368
v -0.082455 0.242798 0.055095
v -0.079216 0.286782 0.052931
v -0.082395 0.330742 0.034129
v -0.091619 0.242798 0.037950
v -0.088021 0.286782 0.036459
v -0.087470 0.330742 0.017399
v -0.097263 0.242798 0.019347
v -0.093442 0.286782 0.018587
v -0.089184 0.330742 0.000000
v -0.099168 0.242798 0.000000
v -0.095273 0.286782 0.000000
v -0.097263 0.242798 -0.019347
v -0.093442 0.286782 -0.018587
v -0.082395 0.330742 -0.034129
v -0.091619 0.242798 -0.037950
v -0.088021 0.286782 -0.036459
v -0.074154 0.330742 -0.049548
v -0.082455 0.242798 -0.055095
v -0.079216 0.286782 -0.052931
v -0.070123 0.242798 -0.070123
v -0.067368 0.286782 -0.067368
v -0.055095 0.242798 -0.082455
v -0.052931 0.286782 -0.079216
v -0.034129 0.330742 -0.082395
v -0.037950 0.242798 -0.091619
v -0.036459 0.286782 -0.088021
v -0.019347 0.242798 -0.097263
v -0.018587 0.286782 -0.093442
v 0.018662 0.136436 -0.093819
v -0.000000 0.136436 -0.095657
v 0.036606 0.136436 -0.088375
v 0.053144 0.136436 -0.079536
v 0.067639 0.136436 -0.067639
v 0.079536 0.136436 -0.053144
v 0.088375 0.136436 -0.036606
v 0.093819 0.136436 -0.018662
v 0.095657 0.136436 0.000000
v 0.093819 0.136436 0.018662
v 0.088375 0.136436 0.036606
v 0.079536 0.136436 0.053144
v 0.067639 0.136436 0.067639
v 0.053144 0.136436 0.079536
v 0.036606 0.136436 0.088375
v 0.018662 0.136436 0.093819
v -0.000000 0.136436 0.095657
v -0.018662 0.136436 0.093819
v -0.036606 0.136436 0.088375
v -0.053144 0.136436 0.079536
v -0.067639 0.136436 0.067639
v -0.079536 0.136436 0.053144
v -0.088375 0.136436 0.036606
v -0.093819 0.136436 0.018662
v -0.095657 0.136436 0.000000
v -0.093819 0.136436 -0.018662
v -0.088375 0.136436 -0.036606
v -0.079536 0.136436 -0.053144
v -0.067639 0.136436 -0.067639
v -0.053144 0.136436 -0.079536
v -0.036606 0.136436 -0.088375
v -0.018662 0.136436 -0.093819
v 0.000000 0.010000 -0.100000
v 0.019509 0.010000 -0.098079
v 0.038268 0.010000 -0.092388
v 0.055557 0.010000 -0.083147
v 0.070711 0.010000 -0.070711
v 0.083147 0.010000 -0.055557
v 0.092388 0.010000 -0.038268
v 0.098079 0.010000 -0.019509
v 0.100000 0.010000 0.000000
v 0.098079 0.010000 0.019509
v 0.092388 0.010000 0.038268
v 0.083147 0.010000 0.055557
v 0.070711 0.010000 0.070711
v 0.055557 0.010000 0.083147
v 0.038268 0.010000 0.092388
v 0.019509 0.010000 0.098079
v 0.000000 0.010000 0.100000
v -0.019509 0.010000 0.098079
v -0.038268 0.010000 0.092388
v -0.055557 0.010000 0.083147
v -0.070711 0.010000 0.070711
v -0.083147 0.010000 0.055557
v -0.092388 0.010000 0.038268
v -0.098079 0.010000 0.019509
v -0.100000 0.010000 0.000000
v -0.098079 0.010000 -0.019509
v -0.092388 0.010000 -0.038268
v -0.083147 0.010000 -0.055557
v -0.070711 0.010000 -0.070711
v -0.055557 0.010000 -0.083147
v -0.038268 0.010000 -0.092388
v -0.019509 0.010000 -0.098079
v 0.000000 -0.000000 -0.094610
v 0.018457 -0.000000 -0.092792
v 0.036206 -0.000000 -0.087408
v 0.052562 -0.000000 -0.078665
v 0.066899 -0.000000 -0.066899
v 0.078665 -0.000000 -0.052562
v 0.087408 -0.000000 -0.036206
v 0.092792 -0.000000 -0.018457
v 0.094610 -0.000000 0.000000
v 0.092792 -0.000000 0.018457
v 0.087408 -0.000000 0.036206
v 0.078665 -0.000000 0.052562
v 0.066899 -0.000000 0.066899
v 0.052562 -0.000000 0.078665
v 0.036206 -0.000000 0.087408
v 0.018457 -0.000000 0.092792
v 0.000000 -0.000000 0.094610
v -0.018457 -0.000000 0.092792
v -0.036206 -0.000000 0.087408
v -0.052562 -0.000000 0.078665
v -0.066899 -0.000000 0.066899
v -0.078665 -0.000000 0.052562
v -0.087408 -0.000000 0.036206
v -0.092792 -0.000000 0.018457
v -0.094610 -0.000000 0.000000
v -0.092792 -0.000000 -0.018457
v -0.087408 -0.000000 -0.036206
v -0.078665 -0.000000 -0.052562
v -0.066899 -0.000000 -0.066899
v -0.052562 -0.000000 -0.078665
v -0.036206 -0.000000 -0.087408
v -0.018457 -0.000000 -0.092792
vn -0.0000 -0.2411 -0.9705
vn -0.0000 -0.0000 -1.0000
vn 0.1951 -0.0000 -0.9808
vn 0.1893 -0.2411 -0.9518
vn 0.3827 -0.0000 -0.9239
vn 0.3714 -0.2411 -0.8966
vn 0.5556 -0.0000 -0.8315
vn 0.5392 -0.2411 -0.8069
vn 0.7071 -0.0000 -0.7071
vn 0.6862 -0.2411 -0.6862
vn 0.8315 -0.0000 -0.5556
vn 0.8069 -0.2411 -0.5392
vn 0.9239 -0.0000 -0.3827
vn 0.8966 -0.2411 -0.3714
vn 0.9808 -0.0000 -0.1951
vn 0.9518 -0.2411 -0.1893
vn 1.0000 -0.0000 -0.0000
vn 0.9705 -0.2411 -0.0000
vn 0.9808 -0.0000 0.1951
vn 0.9518 -0.2411 0.1893
vn 0.9239 -0.0000 0.3827
vn 0.8966 -0.2411 0.3714
vn 0.8315 -0.0000 0.5556
vn 0.8069 -0.2411 0.5392
vn 0.7071 -0.0000 0.7071
vn 0.6862 -0.2411 0.6862
vn 0.5556 -0.0000 0.8315
vn 0.5392 -0.2411 0.8069
vn 0.3827 -0.0000 0.9239
vn 0.3714 -0.2411 0.8966
vn 0.1951 -0.0000 0.9808
vn 0.1893 -0.2411 0.9518
vn -0.0000 -0.0000 1.0000
vn -0.0000 -0.2411 0.9705
vn -0.1951 -0.0000 0.9808
vn -0.1893 -0.2411 0.9518
vn -0.3827 -0.0000 0.9239
vn -0.3714 -0.2411 0.8966
vn -0.5556 -0.0000 0.8315
vn -0.5392 -0.2411 0.8069
vn -0.7071 -0.0000 0.7071
vn -0.6862 -0.2411 0.6862
vn -0.8315 -0.0000 0.5556
vn -0.8069 -0.2411 0.5392
vn -0.9239 -0.0000 0.3827
vn -0.8966 -0.2411 0.3714
vn -0.9808 -0.0000 0.1951
vn -0.9518 -0.2411 0.1893
vn -1.0000 -0.0000 -0.0000
vn -0.9705 -0.2411 -0.0000
vn -0.9808 -0.0000 -0.1951
vn -0.9518 -0.2411 -0.1893
vn -0.9239 -0.0000 -0.3827
vn -0.8966 -0.2411 -0.3714
vn -0.8315 -0.0000 -0.5556
vn -0.8069 -0.2411 -0.5392
vn -0.7071 -0.0000 -0.7071
vn -0.6862 -0.2411 -0.6862
vn -0.5556 -0.0000 -0.8315
vn -0.5392 -0.2411 -0.8069
vn -0.3827 -0.0000 -0.9239
vn -0.3714 -0.2411 -0.8966
vn -0.0000 1.0000 -0.0000
vn -0.1951 -0.0000 -0.9808
vn -0.1893 -0.2411 -0.9518
vn -0.0000 -1.0000 -0.0000
vn 0.1853 0.3121 -0.9318
vn -0.0000 0.3121 -0.9501
vn -0.0000 0.5978 -0.8016
vn 0.1564 0.5978 -0.7862
vn -0.0000 0.7088 -0.7054
vn 0.1376 0.7088 -0.6918
vn 0.0503 0.9662 -0.2527
vn -0.0000 0.9662 -0.2577
vn 0.3636 0.3121 -0.8777
vn 0.3068 0.5978 -0.7406
vn 0.2699 0.7088 -0.6517
vn 0.0986 0.9662 -0.2380
vn 0.5278 0.3121 -0.7899
vn 0.4454 0.5978 -0.6665
vn 0.3919 0.7088 -0.5865
vn 0.1431 0.9662 -0.2142
vn 0.6718 0.3121 -0.6718
vn 0.5669 0.5978 -0.5669
vn 0.4988 0.7088 -0.4988
vn 0.1822 0.9662 -0.1822
vn 0.7899 0.3121 -0.5278
vn 0.6665 0.5978 -0.4454
vn 0.5865 0.7088 -0.3919
vn 0.2142 0.9662 -0.1431
vn 0.8777 0.3121 -0.3636
vn 0.7406 0.5978 -0.3068
vn 0.6517 0.7088 -0.2699
vn 0.2380 0.9662 -0.0986
vn 0.9318 0.3121 -0.1853
vn 0.7862 0.5978 -0.1564
vn 0.6918 0.7088 -0.1376
vn 0.2527 0.9662 -0.0503
vn 0.9501 0.3121 -0.0000
vn 0.8016 0.5978 -0.0000
vn 0.7054 0.7088 -0.0000
vn 0.2577 0.9662 -0.0000
vn 0.9318 0.3121 0.1853
vn 0.7862 0.5978 0.1564
vn 0.6918 0.7088 0.1376
vn 0.2527 0.9662 0.0503
vn 0.8777 0.3121 0.3636
vn 0.7406 0.5978 0.3068
vn 0.6517 0.7088 0.2699
vn 0.2380 0.9662 0.0986
vn 0.7899 0.3121 0.5278
vn 0.6665 0.5978 0.4454
vn 0.5865 0.7088 0.3919
vn 0.2142 0.9662 0.1431
vn 0.6718 0.3121 0.6718
vn 0.5669 0.5978 0.5669
vn 0.4988 0.7088 0.4988
vn 0.1822 0.9662 0.1822
vn 0.5278 0.3121 0.7899
vn 0.4454 0.5978 0.6665
vn 0.3919 0.7088 0.5865
vn 0.1431 0.9662 0.2142
vn 0.3636 0.3121 0.8777
vn 0.3068 0.5978 0.7406
vn 0.2699 0.7088 0.6517
vn 0.0986 0.9662 0.2380
vn 0.1853 0.3121 0.9318
vn 0.1564 0.5978 0.7862
vn 0.1376 0.7088 0.6918
vn 0.0503 0.9662 0.2527
vn -0.0000 0.3121 0.9501
vn -0.0000 0.5978 0.8016
vn -0.0000 0.8600 0.5104
vn -0.1853 0.3121 0.9318
vn -0.1564 0.5978 0.7862
vn -0.0996 0.8600 0.5006
vn -0.3636 0.3121 0.8777
vn -0.3068 0.5978 0.7406
vn -0.1953 0.8600 0.4715
vn -0.5278 0.3121 0.7899
vn -0.4454 0.5978 0.6665
vn -0.2835 0.8600 0.4243
vn -0.6718 0.3121 0.6718
vn -0.5669 0.5978 0.5669
vn -0.3609 0.8600 0.3609
vn -0.7899 0.3121 0.5278
vn -0.6665 0.5978 0.4454
vn -0.4243 0.8600 0.2835
vn -0.8777 0.3121 0.3636
vn -0.7406 0.5978 0.3068
vn -0.6517 0.7088 0.2699
vn -0.2380 0.9662 0.0986
vn -0.9318 0.3121 0.1853
vn -0.7862 0.5978 0.1564
vn -0.6918 0.7088 0.1376
vn -0.2527 0.9662 0.0503
vn -0.9501 0.3121 -0.0000
vn -0.8016 0.5978 -0.0000
vn -0.7054 0.7088 -0.0000
vn -0.2577 0.9662 -0.0000
vn -0.9318 0.3121 -0.1853
vn -0.7862 0.5978 -0.1564
vn -0.6918 0.7088 -0.1376
vn -0.2527 0.9662 -0.0503
vn -0.8777 0.3121 -0.3636
vn -0.7406 0.5978 -0.3068
vn -0.6517 0.7088 -0.2699
vn -0.2380 0.9662 -0.0986
vn -0.7899 0.3121 -0.5278
vn -0.6665 0.5978 -0.4454
vn -0.5865 0.7088 -0.3919
vn -0.2142 0.9662 -0.1431
vn -0.6718 0.3121 -0.6718
vn -0.5669 0.5978 -0.5669
vn -0.4988 0.7088 -0.4988
vn -0.1822 0.9662 -0.1822
vn -0.5278 0.3121 -0.7899
vn -0.4454 0.5978 -0.6665
vn -0.3919 0.7088 -0.5865
vn -0.1431 0.9662 -0.2142
vn -0.3636 0.3121 -0.8777
vn -0.3068 0.5978 -0.7406
vn -0.2699 0.7088 -0.6517
vn -0.0986 0.9662 -0.2380
vn -0.1853 0.3121 -0.9318
vn -0.1564 0.5978 -0.7862
vn -0.1376 0.7088 -0.6918
vn -0.0503 0.9662 -0.2527
vn 0.1949 0.0479 -0.9797
vn -0.0000 0.0479 -0.9989
vn -0.0000 0.1126 -0.9936
vn 0.1939 0.1126 -0.9746
vn 0.3822 0.0479 -0.9228
vn 0.3803 0.1126 -0.9180
vn 0.5549 0.0479 -0.8305
vn 0.5520 0.1126 -0.8262
vn 0.7063 0.0479 -0.7063
vn 0.7026 0.1126 -0.7026
vn 0.8305 0.0479 -0.5549
vn 0.8262 0.1126 -0.5520
vn 0.9228 0.0479 -0.3822
vn 0.9180 0.1126 -0.3803
vn 0.9797 0.0479 -0.1949
vn 0.9746 0.1126 -0.1939
vn 0.9989 0.0479 -0.0000
vn 0.9936 0.1126 -0.0000
vn 0.9797 0.0479 0.1949
vn 0.9746 0.1126 0.1939
vn 0.9228 0.0479 0.3822
vn 0.9180 0.1126 0.3803
vn 0.8305 0.0479 0.5549
vn 0.8262 0.1126 0.5520
vn 0.7063 0.0479 0.7063
vn 0.7026 0.1126 0.7026
vn 0.5549 0.0479 0.8305
vn 0.5520 0.1126 0.8262
vn 0.3822 0.0479 0.9228
vn 0.3803 0.1126 0.9180
vn 0.1949 0.0479 0.9797
vn 0.1939 0.1126 0.9746
vn -0.0000 0.0479 0.9989
vn -0.0000 0.1126 0.9936
vn -0.1949 0.0479 0.9797
vn -0.1939 0.1126 0.9746
vn -0.3822 0.0479 0.9228
vn -0.3803 0.1126 0.9180
vn -0.5549 0.0479 0.8305
vn -0.5520 0.1126 0.8262
vn -0.7063 0.0479 0.7063
vn -0.7026 0.1126 0.7026
vn -0.8305 0.0479 0.5549
vn -0.8262 0.1126 0.5520
vn -0.9228 0.0479 0.3822
vn -0.9180 0.1126 0.3803
vn -0.9797 0.0479 0.1949
vn -0.9746 0.1126 0.1938
vn -0.9989 0.0479 -0.0000
vn -0.9936 0.1126 -0.0000
vn -0.9797 0.0479 -0.1949
vn -0.9746 0.1126 -0.1938
vn -0.9228 0.0479 -0.3822
vn -0.9180 0.1126 -0.3803
vn -0.8305 0.0479 -0.5549
vn -0.8262 0.1126 -0.5520
vn -0.7063 0.0479 -0.7063
vn -0.7026 0.1126 -0.7026
vn -0.5549 0.0479 -0.8305
vn -0.5520 0.1126 -0.8262
vn -0.3822 0.0479 -0.9228
vn -0.3803 0.1126 -0.9180
vn -0.1949 0.0479 -0.9797
vn -0.1939 0.1126 -0.9746
vn 0.1951 0.0078 -0.9808
vn -0.0000 0.0078 -1.0000
vn -0.1951 0.0078 -0.9808
vn 0.3827 0.0078 -0.9239
vn 0.5556 0.0078 -0.8314
vn 0.7071 0.0078 -0.7071
vn 0.8314 0.0078 -0.5556
vn 0.9239 0.0078 -0.3827
vn 0.9808 0.0078 -0.1951
vn 1.0000 0.0078 -0.0000
vn 0.9808 0.0078 0.1951
vn 0.9239 0.0078 0.3827
vn 0.8314 0.0078 0.5556
vn 0.7071 0.0078 0.7071
vn 0.5556 0.0078 0.8314
vn 0.3827 0.0078 0.9239
vn 0.1951 0.0078 0.9808
vn -0.0000 0.0078 1.0000
vn -0.1951 0.0078 0.9808
vn -0.3827 0.0078 0.9239
vn -0.5556 0.0078 0.8314
vn -0.7071 0.0078 0.7071
vn -0.8314 0.0078 0.5556
vn -0.9239 0.0078 0.3827
vn -0.9808 0.0078 0.1951
vn -1.0000 0.0078 -0.0000
vn -0.9808 0.0078 -0.1951
vn -0.9239 0.0078 -0.3827
vn -0.8314 0.0078 -0.5556
vn -0.7071 0.0078 -0.7071
vn -0.5556 0.0078 -0.8314
vn -0.3827 0.0078 -0.9239
vn -0.1717 -0.4745 -0.8633
vn -0.0000 -0.4745 -0.8803
vn -0.3369 -0.4745 -0.8133
vn -0.4890 -0.4745 -0.7319
vn -0.6224 -0.4745 -0.6224
vn -0.7319 -0.4745 -0.4890
vn -0.8133 -0.4745 -0.3369
vn -0.8633 -0.4745 -0.1717
vn -0.8803 -0.4745 -0.0000
vn -0.8633 -0.4745 0.1717
vn -0.8133 -0.4745 0.3369
vn -0.7319 -0.4745 0.4890
vn -0.6224 -0.4745 0.6224
vn -0.4890 -0.4745 0.7319
vn -0.3369 -0.4745 0.8133
vn -0.1717 -0.4745 0.8633
vn -0.0000 -0.4745 0.8803
vn 0.1717 -0.4745 0.8633
vn 0.3369 -0.4745 0.8133
vn 0.4890 -0.4745 0.7319
vn 0.6224 -0.4745 0.6224
vn 0.7319 -0.4745 0.4890
vn 0.8133 -0.4745 0.3369
vn 0.8633 -0.4745 0.1717
vn 0.8803 -0.4745 -0.0000
vn 0.8633 -0.4745 -0.1717
vn 0.8133 -0.4745 -0.3369
vn 0.7319 -0.4745 -0.4890
vn 0.6224 -0.4745 -0.6224
vn 0.4890 -0.4745 -0.7319
vn 0.3369 -0.4745 -0.8133
vn 0.1717 -0.4745 -0.8633
vt 1.000000 0.523809
vt 1.000000 1.000000
vt 0.968750 1.000000
vt 0.968750 0.523809
vt 0.937500 1.000000
vt 0.937500 0.523809
vt 0.906250 1.000000
vt 0.906250 0.523809
vt 0.875000 1.000000
vt 0.875000 0.523809
vt 0.843750 1.000000
vt 0.843750 0.523809
vt 0.812500 1.000000
vt 0.812500 0.523809
vt 0.781250 1.000000
vt 0.781250 0.523809
vt 0.750000 1.000000
vt 0.750000 0.523809
vt 0.718750 1.000000
vt 0.718750 0.523809
vt 0.687500 1.000000
vt 0.687500 0.523809
vt 0.656250 1.000000
vt 0.656250 0.523809
vt 0.625000 1.000000
vt 0.625000 0.523809
vt 0.593750 1.000000
vt 0.593750 0.523809
vt 0.562500 1.000000
vt 0.562500 0.523809
vt 0.531250 1.000000
vt 0.531250 0.523809
vt 0.500000 1.000000
vt 0.500000 0.523809
vt 0.468750 1.000000
vt 0.468750 0.523809
vt 0.437500 1.000000
vt 0.437500 0.523809
vt 0.406250 1.000000
vt 0.406250 0.523809
vt 0.375000 1.000000
vt 0.375000 0.523809
vt 0.343750 1.000000
vt 0.343750 0.523809
vt 0.312500 1.000000
vt 0.312500 0.523809
vt 0.281250 1.000000
vt 0.281250 0.523809
vt 0.250000 1.000000
vt 0.250000 0.523809
vt 0.218750 1.000000
vt 0.218750 0.523809
vt 0.187500 1.000000
vt 0.187500 0.523809
vt 0.156250 1.000000
vt 0.156250 0.523809
vt 0.125000 1.000000
vt 0.125000 0.523809
vt 0.093750 1.000000
vt 0.093750 0.523809
vt 0.062500 1.000000
vt 0.062500 0.523809
vt 0.031250 1.000000
vt 0.031250 0.523809
vt 0.000000 1.000000
vt 0.000000 0.523809
vt 0.997907 1.000000
vt 0.968750 1.000000
vt 0.296761 0.485085
vt 0.250000 0.489691
vt 0.250000 0.370000
vt 0.273411 0.367694
vt 0.250000 0.250001
vt 0.937500 1.000000
vt 0.937500 1.000000
vt 0.341726 0.471446
vt 0.295922 0.360866
vt 0.250000 0.250001
vt 0.906250 1.000000
vt 0.383165 0.449296
vt 0.316669 0.349777
vt 0.250000 0.250001
vt 0.875000 1.000000
vt 0.419487 0.419487
vt 0.334853 0.334853
vt 0.250001 0.250001
vt 0.843750 1.000000
vt 0.843750 1.000000
vt 0.449296 0.383165
vt 0.349777 0.316669
vt 0.250001 0.250000
vt 0.812500 1.000000
vt 0.471446 0.341726
vt 0.360866 0.295922
vt 0.250001 0.250000
vt 0.781250 1.000000
vt 0.781250 1.000000
vt 0.485085 0.296761
vt 0.367695 0.273411
vt 0.250001 0.250000
vt 0.750000 1.000000
vt 0.489691 0.250000
vt 0.370000 0.250000
vt 0.250001 0.250000
vt 0.718750 1.000000
vt 0.718750 1.000000
vt 0.485085 0.203239
vt 0.367695 0.226589
vt 0.250001 0.250000
vt 0.687500 1.000000
vt 0.471446 0.158274
vt 0.360866 0.204078
vt 0.250001 0.250000
vt 0.656250 1.000000
vt 0.449296 0.116835
vt 0.349777 0.183331
vt 0.419487 0.080513
vt 0.334853 0.165147
vt 0.250000 0.250000
vt 0.593750 1.000000
vt 0.383165 0.050704
vt 0.316669 0.150223
vt 0.250000 0.249999
vt 0.562500 1.000000
vt 0.562500 1.000000
vt 0.341726 0.028554
vt 0.295922 0.139134
vt 0.250000 0.249999
vt 0.296761 0.014915
vt 0.273411 0.132306
vt 0.250000 0.249999
vt 0.500000 1.000000
vt 0.250000 0.010309
vt 0.250000 0.130000
vt 0.250000 0.249999
vt 0.203239 0.014915
vt 0.226589 0.132305
vt 0.250000 0.249999
vt 0.437500 1.000000
vt 0.158274 0.028554
vt 0.204078 0.139134
vt 0.250000 0.249999
vt 0.406250 1.000000
vt 0.116835 0.050704
vt 0.183331 0.150223
vt 0.250000 0.249999
vt 0.375000 1.000000
vt 0.080513 0.080513
vt 0.165147 0.165147
vt 0.250000 0.250000
vt 0.343750 1.000000
vt 0.050704 0.116835
vt 0.150223 0.183331
vt 0.249999 0.250000
vt 0.312500 1.000000
vt 0.312500 1.000000
vt 0.028554 0.158274
vt 0.139134 0.204078
vt 0.249999 0.250000
vt 0.281250 1.000000
vt 0.014915 0.203239
vt 0.132305 0.226589
vt 0.249999 0.250000
vt 0.010309 0.250000
vt 0.130000 0.250000
vt 0.249999 0.250000
vt 0.218750 1.000000
vt 0.014915 0.296761
vt 0.132305 0.273411
vt 0.249999 0.250000
vt 0.187500 1.000000
vt 0.028554 0.341726
vt 0.139134 0.295922
vt 0.249999 0.250000
vt 0.050704 0.383165
vt 0.150223 0.316669
vt 0.249999 0.250000
vt 0.080513 0.419487
vt 0.165147 0.334853
vt 0.250000 0.250000
vt 0.093750 1.000000
vt 0.116835 0.449296
vt 0.183331 0.349776
vt 0.250000 0.250000
vt 0.062500 1.000000
vt 0.158274 0.471446
vt 0.204078 0.360866
vt 0.250000 0.250001
vt 0.031250 1.000000
vt 0.203239 0.485085
vt 0.226589 0.367695
vt 0.002093 1.000000
vt 0.250000 0.250001
vt 0.968750 1.000000
vt 0.999750 1.000000
vt 0.968750 1.000000
vt 0.937500 1.000000
vt 0.937500 1.000000
vt 0.906250 1.000000
vt 0.875000 1.000000
vt 0.843750 1.000000
vt 0.812500 1.000000
vt 0.812500 1.000000
vt 0.781250 1.000000
vt 0.750000 1.000000
vt 0.687500 1.000000
vt 0.625000 1.000000
vt 0.593750 1.000000
vt 0.562500 1.000000
vt 0.531250 1.000000
vt 0.468750 1.000000
vt 0.437500 1.000000
vt 0.375000 1.000000
vt 0.343750 1.000000
vt 0.343750 1.000000
vt 0.343750 1.000000
vt 0.281250 1.000000
vt 0.187500 1.000000
vt 0.156250 1.000000
vt 0.156250 1.000000
vt 0.125000 1.000000
vt 0.093750 1.000000
vt 0.093750 1.000000
vt 0.093750 1.000000
vt 0.062500 1.000000
vt 0.062500 1.000000
vt 0.031250 1.000000
vt 0.000250 1.000000
vt 0.031250 0.500000
vt 0.000000 0.500000
vt 0.062500 0.500000
vt 0.093750 0.500000
vt 0.125000 0.500000
vt 0.156250 0.500000
vt 0.187500 0.500000
vt 0.218750 0.500000
vt 0.250000 0.500000
vt 0.281250 0.500000
vt 0.312500 0.500000
vt 0.343750 0.500000
vt 0.375000 0.500000
vt 0.406250 0.500000
vt 0.437500 0.500000
vt 0.468750 0.500000
vt 0.500000 0.500000
vt 0.531250 0.500000
vt 0.562500 0.500000
vt 0.593750 0.500000
vt 0.625000 0.500000
vt 0.656250 0.500000
vt 0.687500 0.500000
vt 0.718750 0.500000
vt 0.750000 0.500000
vt 0.781250 0.500000
vt 0.812500 0.500000
vt 0.843750 0.500000
vt 0.875000 0.500000
vt 0.906250 0.500000
vt 0.937500 0.500000
vt 0.968750 0.500000
vt 1.000000 0.500000
vt 0.750000 0.396430
vt 0.750000 0.490000
vt 0.796822 0.485388
vt 0.778567 0.393617
vt 0.841844 0.471731
vt 0.806037 0.385284
vt 0.883337 0.449553
vt 0.831352 0.371753
vt 0.919706 0.419706
vt 0.853542 0.353542
vt 0.949553 0.383337
vt 0.871753 0.331352
vt 0.971731 0.341844
vt 0.885284 0.306037
vt 0.985388 0.296822
vt 0.893617 0.278567
vt 0.990000 0.250000
vt 0.896431 0.250000
vt 0.985388 0.203178
vt 0.893617 0.221433
vt 0.971731 0.158156
vt 0.885284 0.193964
vt 0.949553 0.116663
vt 0.871753 0.168648
vt 0.919706 0.080294
vt 0.853542 0.146458
vt 0.883337 0.050447
vt 0.831352 0.128248
vt 0.841844 0.028269
vt 0.806037 0.114716
vt 0.796822 0.014612
vt 0.778567 0.106383
vt 0.750000 0.010000
vt 0.750000 0.103570
vt 0.703178 0.014612
vt 0.721433 0.106383
vt 0.658156 0.028269
vt 0.693964 0.114716
vt 0.616663 0.050447
vt 0.668648 0.128248
vt 0.580294 0.080294
vt 0.646458 0.146458
vt 0.550447 0.116663
vt 0.628248 0.168648
vt 0.528269 0.158156
vt 0.614716 0.193964
vt 0.514612 0.203178
vt 0.606383 0.221433
vt 0.510000 0.250000
vt 0.603570 0.250000
vt 0.514612 0.296822
vt 0.606383 0.278567
vt 0.528269 0.341844
vt 0.614716 0.306036
vt 0.550447 0.383337
vt 0.628248 0.331352
vt 0.580294 0.419706
vt 0.646458 0.353542
vt 0.616663 0.449553
vt 0.668648 0.371752
vt 0.658156 0.471731
vt 0.693964 0.385284
vt 0.703178 0.485388
vt 0.721433 0.393617
s 1
f 291/1/1 2/2/2 3/3/3 292/4/4
f 292/4/4 3/3/3 4/5/5 293/6/6
f 293/6/6 4/5/5 5/7/7 294/8/8
f 294/8/8 5/7/7 6/9/9 295/10/10
f 295/10/10 6/9/9 7/11/11 296/12/12
f 296/12/12 7/11/11 8/13/13 297/14/14
f 297/14/14 8/13/13 9/15/15 298/16/16
f 298/16/16 9/15/15 10/17/17 299/18/18
f 299/18/18 10/17/17 11/19/19 300/20/20
f 300/20/20 11/19/19 12/21/21 301/22/22
f 301/22/22 12/21/21 13/23/23 302/24/24
f 302/24/24 13/23/23 14/25/25 303/26/26
f 303/26/26 14/25/25 15/27/27 304/28/28
f 304/28/28 15/27/27 16/29/29 305/30/30
f 305/30/30 16/29/29 17/31/31 306/32/32
f 306/32/32 17/31/31 18/33/33 307/34/34
f 307/34/34 18/33/33 19/35/35 308/36/36
f 308/36/36 19/35/35 20/37/37 309/38/38
f 309/38/38 20/37/37 21/39/39 310/40/40
f 310/40/40 21/39/39 22/41/41 311/42/42
f 311/42/42 22/41/41 23/43/43 312/44/44
f 312/44/44 23/43/43 24/45/45 313/46/46
f 313/46/46 24/45/45 25/47/47 314/48/48
f 314/48/48 25/47/47 26/49/49 315/50/50
f 315/50/50 26/49/49 27/51/51 316/52/52
f 316/52/52 27/51/51 28/53/53 317/54/54
f 317/54/54 28/53/53 29/55/55 318/56/56
f 318/56/56 29/55/55 30/57/57 319/58/58
f 319/58/58 30/57/57 31/59/59 320/60/60
f 320/60/60 31/59/59 32/61/61 321/62/62
f 29/55/63 28/53/63 71/53/63 70/55/63
f 321/62/62 32/61/61 33/63/64 322/64/65
f 322/64/65 33/63/64 2/65/2 291/66/1
f 70/55/55 71/53/53 285/53/53 286/55/55
f 44/21/66 45/23/66 270/23/66 269/21/66
f 3/3/63 2/2/63 96/2/63 97/3/63
f 20/37/63 19/35/63 80/35/63 79/37/63
f 43/19/66 44/21/66 269/21/66 268/19/66
f 11/19/63 10/17/63 89/17/63 88/19/63
f 42/17/66 43/19/66 268/19/66 267/17/66
f 28/53/63 27/51/63 72/51/63 71/53/63
f 41/15/66 42/17/66 267/17/66 266/15/66
f 19/35/63 18/33/63 81/33/63 80/35/63
f 40/13/66 41/15/66 266/15/66 265/13/66
f 10/17/63 9/15/63 90/15/63 89/17/63
f 39/11/66 40/13/66 265/13/66 264/11/66
f 65/63/66 34/65/66 260/65/66 290/63/66
f 27/51/63 26/49/63 73/49/63 72/51/63
f 38/9/66 39/11/66 264/11/66 263/9/66
f 64/61/66 65/63/66 290/63/66 289/61/66
f 18/33/63 17/31/63 82/31/63 81/33/63
f 37/7/66 38/9/66 263/9/66 262/7/66
f 63/59/66 64/61/66 289/61/66 288/59/66
f 9/15/63 8/13/63 91/13/63 90/15/63
f 36/5/66 37/7/66 262/7/66 261/5/66
f 62/57/66 63/59/66 288/59/66 287/57/66
f 26/49/63 25/47/63 74/47/63 73/49/63
f 35/3/66 36/5/66 261/5/66 259/3/66
f 61/55/66 62/57/66 287/57/66 286/55/66
f 17/31/63 16/29/63 83/29/63 82/31/63
f 34/2/66 35/3/66 259/3/66 260/2/66
f 60/53/66 61/55/66 286/55/66 285/53/66
f 8/13/63 7/11/63 92/11/63 91/13/63
f 2/65/63 33/63/63 66/63/63 96/65/63
f 59/51/66 60/53/66 285/53/66 284/51/66
f 91/13/13 92/11/11 264/11/11 265/13/13
f 78/39/39 79/37/37 277/37/37 278/39/39
f 96/65/2 66/63/64 290/63/64 260/65/2
f 74/47/47 75/45/45 281/45/45 282/47/47
f 92/11/11 93/9/9 263/9/9 264/11/11
f 79/37/37 80/35/35 276/35/35 277/37/37
f 66/63/64 67/61/61 289/61/61 290/63/64
f 84/27/27 85/25/25 271/25/25 272/27/27
f 25/47/63 24/45/63 75/45/63 74/47/63
f 57/47/66 58/49/66 283/49/66 282/47/66
f 33/63/63 32/61/63 67/61/63 66/63/63
f 24/45/63 23/43/63 76/43/63 75/45/63
f 15/27/63 14/25/63 85/25/63 84/27/63
f 6/9/63 5/7/63 94/7/63 93/9/63
f 32/61/63 31/59/63 68/59/63 67/61/63
f 53/39/66 54/41/66 279/41/66 278/39/66
f 23/43/63 22/41/63 77/41/63 76/43/63
f 52/37/66 53/39/66 278/39/66 277/37/66
f 51/35/66 52/37/66 277/37/66 276/35/66
f 5/7/63 4/5/63 95/5/63 94/7/63
f 50/33/66 51/35/66 276/35/66 275/33/66
f 49/31/66 50/33/66 275/33/66 274/31/66
f 48/29/66 49/31/66 274/31/66 273/29/66
f 30/57/63 29/55/63 70/55/63 69/57/63
f 21/39/63 20/37/63 79/37/63 78/39/63
f 12/21/63 11/19/63 88/19/63 87/21/63
f 71/53/53 72/51/51 284/51/51 285/53/53
f 89/17/17 90/15/15 266/15/15 267/17/17
f 76/43/43 77/41/41 279/41/41 280/43/43
f 94/7/7 95/5/5 261/5/5 262/7/7
f 81/33/33 82/31/31 274/31/31 275/33/33
f 180/3/67 98/2/68 99/67/69 102/68/70
f 102/69/70 99/70/69 100/71/71 101/72/72
f 101/72/73 100/71/74 146/73/63
f 103/74/75 180/3/67 102/68/70 105/75/76
f 105/76/76 102/69/70 101/72/72 104/77/77
f 104/77/78 101/72/73 146/78/63
f 185/7/79 103/74/75 105/75/76 107/79/80
f 107/80/80 105/76/76 104/77/77 106/81/81
f 106/81/82 104/77/78 146/82/63
f 108/9/83 185/7/79 107/79/80 110/83/84
f 110/84/84 107/80/80 106/81/81 109/85/85
f 109/85/86 106/81/82 146/86/63
f 111/87/87 108/9/83 110/83/84 113/88/88
f 113/89/88 110/84/84 109/85/85 112/90/89
f 112/90/90 109/85/86 146/91/63
f 192/92/91 111/87/87 113/88/88 115/13/92
f 115/93/92 113/89/88 112/90/89 114/94/93
f 114/94/94 112/90/90 146/95/63
f 116/96/95 192/92/91 115/13/92 118/97/96
f 118/98/96 115/93/92 114/94/93 117/99/97
f 117/99/98 114/94/94 146/100/63
f 197/17/99 116/96/95 118/97/96 120/101/100
f 120/102/100 118/98/96 117/99/97 119/103/101
f 119/103/102 117/99/98 146/104/63
f 121/105/103 197/17/99 120/101/100 123/106/104
f 123/107/104 120/102/100 119/103/101 122/108/105
f 122/108/106 119/103/102 146/109/63
f 202/21/107 121/105/103 123/106/104 125/110/108
f 125/111/108 123/107/104 122/108/105 124/112/109
f 124/112/110 122/108/106 146/113/63
f 205/23/111 202/21/107 125/110/108 127/114/112
f 127/115/112 125/111/108 124/112/109 126/116/113
f 126/116/114 124/112/110 146/113/63
f 208/25/115 205/23/111 127/114/112 129/25/116
f 129/117/116 127/115/112 126/116/113 128/118/117
f 128/118/118 126/116/114 146/119/63
f 211/27/119 208/25/115 129/25/116 131/120/120
f 131/121/120 129/117/116 128/118/117 130/122/121
f 130/122/122 128/118/118 146/123/63
f 132/124/123 211/27/119 131/120/120 134/125/124
f 134/126/124 131/121/120 130/122/121 133/127/125
f 133/127/126 130/122/122 146/128/63
f 135/31/127 132/124/123 134/125/124 137/31/128
f 137/129/128 134/126/124 133/127/125 136/130/129
f 136/130/130 133/127/126 146/131/63
f 218/33/131 135/31/127 137/31/128 139/132/132
f 139/133/132 137/129/128 136/130/129 138/134/133
f 138/134/133 136/130/130 146/135/63
f 140/35/134 218/33/131 139/132/132 142/35/135
f 142/136/135 139/133/132 138/134/133 141/137/136
f 141/137/136 138/134/133 146/138/63
f 143/37/137 140/35/134 142/35/135 145/139/138
f 145/140/138 142/136/135 141/137/136 144/141/139
f 144/141/139 141/137/136 146/142/63
f 225/143/140 143/37/137 145/139/138 148/39/141
f 148/144/141 145/140/138 144/141/139 147/145/142
f 147/145/142 144/141/139 146/146/63
f 228/147/143 225/143/140 148/39/141 150/41/144
f 150/148/144 148/144/141 147/145/142 149/149/145
f 149/149/145 147/145/142 146/150/63
f 151/151/146 228/147/143 150/41/144 153/43/147
f 153/152/147 150/148/144 149/149/145 152/153/148
f 152/153/148 149/149/145 146/154/63
f 233/155/149 151/151/146 153/43/147 155/156/150
f 155/157/150 153/152/147 152/153/148 154/158/151
f 154/158/152 152/153/148 146/159/63
f 236/160/153 233/155/149 155/156/150 157/47/154
f 157/161/154 155/157/150 154/158/151 156/162/155
f 156/162/156 154/158/152 146/163/63
f 239/49/157 236/160/153 157/47/154 159/49/158
f 159/164/158 157/161/154 156/162/155 158/165/159
f 158/165/160 156/162/156 146/166/63
f 160/51/161 239/49/157 159/49/158 162/167/162
f 162/168/162 159/164/158 158/165/159 161/169/163
f 161/169/164 158/165/160 146/170/63
f 244/53/165 160/51/161 162/167/162 164/171/166
f 164/172/166 162/168/162 161/169/163 163/173/167
f 163/173/168 161/169/164 146/174/63
f 247/55/169 244/53/165 164/171/166 166/55/170
f 166/175/170 164/172/166 163/173/167 165/176/171
f 165/176/172 163/173/168 146/177/63
f 167/57/173 247/55/169 166/55/170 169/57/174
f 169/178/174 166/175/170 165/176/171 168/179/175
f 168/179/176 165/176/172 146/180/63
f 170/181/177 167/57/173 169/57/174 172/59/178
f 172/182/178 169/178/174 168/179/175 171/183/179
f 171/183/180 168/179/176 146/184/63
f 254/185/181 170/181/177 172/59/178 174/61/182
f 174/186/182 172/182/178 171/183/179 173/187/183
f 173/187/184 171/183/180 146/188/63
f 175/63/185 254/185/181 174/61/182 177/189/186
f 177/190/186 174/186/182 173/187/183 176/191/187
f 176/191/188 173/187/184 146/188/63
f 98/65/68 175/63/185 177/189/186 99/192/69
f 99/70/69 177/190/186 176/191/187 100/71/71
f 100/71/74 176/191/188 146/193/63
f 14/25/63 13/23/63 86/23/63 85/25/63
f 31/59/63 30/57/63 69/57/63 68/59/63
f 22/41/63 21/39/63 78/39/63 77/41/63
f 13/23/63 12/21/63 87/21/63 86/23/63
f 4/5/63 3/3/63 97/3/63 95/5/63
f 47/27/66 48/29/66 273/29/66 272/27/66
f 46/25/66 47/27/66 272/27/66 271/25/66
f 45/23/66 46/25/66 271/25/66 270/23/66
f 80/35/35 81/33/33 275/33/33 276/35/35
f 67/61/61 68/59/59 288/59/59 289/61/61
f 85/25/25 86/23/23 270/23/23 271/25/25
f 72/51/51 73/49/49 283/49/49 284/51/51
f 90/15/15 91/13/13 265/13/13 266/15/15
f 68/59/59 69/57/57 287/57/57 288/59/59
f 77/41/41 78/39/39 278/39/39 279/41/41
f 86/23/23 87/21/21 269/21/21 270/23/23
f 95/5/5 97/3/3 259/3/3 261/5/5
f 73/49/49 74/47/47 282/47/47 283/49/49
f 82/31/31 83/29/29 273/29/29 274/31/31
f 69/57/57 70/55/55 286/55/55 287/57/57
f 87/21/21 88/19/19 268/19/19 269/21/21
f 97/3/3 96/2/2 260/2/2 259/3/3
f 83/29/29 84/27/27 272/27/27 273/29/29
f 58/49/66 59/51/66 284/51/66 283/49/66
f 88/19/19 89/17/17 267/17/17 268/19/19
f 75/45/45 76/43/43 280/43/43 281/45/45
f 93/9/9 94/7/7 262/7/7 263/9/9
f 16/29/63 15/27/63 84/27/63 83/29/63
f 7/11/63 6/9/63 93/9/63 92/11/63
f 56/45/66 57/47/66 282/47/66 281/45/66
f 55/43/66 56/45/66 281/45/66 280/43/66
f 54/41/66 55/43/66 280/43/66 279/41/66
f 181/194/189 178/2/190 179/195/191 182/3/192
f 182/3/192 179/195/191 98/2/68 180/196/67
f 183/75/193 181/194/189 182/3/192 184/197/194
f 184/197/194 182/3/192 180/196/67 103/198/75
f 186/79/195 183/75/193 184/197/194 187/199/196
f 187/199/196 184/197/194 103/198/75 185/7/79
f 188/9/197 186/79/195 187/199/196 189/200/198
f 189/200/198 187/199/196 185/7/79 108/9/83
f 190/11/199 188/9/197 189/200/198 191/201/200
f 191/201/200 189/200/198 108/9/83 111/87/87
f 193/13/201 190/11/199 191/201/200 194/202/202
f 194/202/202 191/201/200 111/87/87 192/203/91
f 195/15/203 193/13/201 194/202/202 196/15/204
f 196/15/204 194/202/202 192/203/91 116/204/95
f 198/205/205 195/15/203 196/15/204 199/101/206
f 199/101/206 196/15/204 116/204/95 197/17/99
f 200/19/207 198/205/205 199/101/206 201/106/208
f 201/106/208 199/101/206 197/17/99 121/105/103
f 203/21/209 200/19/207 201/106/208 204/21/210
f 204/21/210 201/106/208 121/105/103 202/206/107
f 206/23/211 203/21/209 204/21/210 207/23/212
f 207/23/212 204/21/210 202/206/107 205/23/111
f 209/207/213 206/23/211 207/23/212 210/25/214
f 210/25/214 207/23/212 205/23/111 208/25/115
f 212/27/215 209/207/213 210/25/214 213/208/216
f 213/208/216 210/25/214 208/25/115 211/120/119
f 214/29/217 212/27/215 213/208/216 215/209/218
f 215/209/218 213/208/216 211/120/119 132/124/123
f 216/31/219 214/29/217 215/209/218 217/210/220
f 217/210/220 215/209/218 132/124/123 135/31/127
f 219/33/221 216/31/219 217/210/220 220/33/222
f 220/33/222 217/210/220 135/31/127 218/33/131
f 221/211/223 219/33/221 220/33/222 222/211/224
f 222/211/224 220/33/222 218/33/131 140/211/134
f 223/212/225 221/211/223 222/211/224 224/139/226
f 224/139/226 222/211/224 140/211/134 143/212/137
f 226/39/227 223/212/225 224/139/226 227/39/228
f 227/39/228 224/139/226 143/212/137 225/143/140
f 229/41/229 226/39/227 227/39/228 230/41/230
f 230/41/230 227/39/228 225/143/140 228/213/143
f 231/214/231 229/41/229 230/41/230 232/215/232
f 232/215/232 230/41/230 228/213/143 151/216/146
f 234/156/233 231/214/231 232/215/232 235/45/234
f 235/45/234 232/215/232 151/216/146 233/45/149
f 237/47/235 234/156/233 235/45/234 238/47/236
f 238/47/236 235/45/234 233/45/149 236/217/153
f 240/49/237 237/47/235 238/47/236 241/49/238
f 241/49/238 238/47/236 236/217/153 239/49/157
f 242/51/239 240/49/237 241/49/238 243/51/240
f 243/51/240 241/49/238 239/49/157 160/51/161
f 245/218/241 242/51/239 243/51/240 246/218/242
f 246/218/242 243/51/240 160/51/161 244/53/165
f 248/219/243 245/218/241 246/218/242 249/220/244
f 249/220/244 246/218/242 244/53/165 247/219/169
f 250/57/245 248/219/243 249/220/244 251/221/246
f 251/221/246 249/220/244 247/219/169 167/57/173
f 252/222/247 250/57/245 251/221/246 253/223/248
f 253/223/248 251/221/246 167/57/173 170/224/177
f 255/61/249 252/222/247 253/223/248 256/225/250
f 256/225/250 253/223/248 170/224/177 254/226/181
f 257/63/251 255/61/249 256/225/250 258/227/252
f 258/227/252 256/225/250 254/226/181 175/63/185
f 178/65/190 257/63/251 258/227/252 179/228/191
f 179/228/191 258/227/252 175/63/185 98/65/68
f 35/3/253 34/2/254 178/2/190 181/194/189
f 34/65/254 65/63/255 257/63/251 178/65/190
f 36/5/256 35/3/253 181/194/189 183/75/193
f 37/7/257 36/5/256 183/75/193 186/79/195
f 38/9/258 37/7/257 186/79/195 188/9/197
f 39/11/259 38/9/258 188/9/197 190/11/199
f 40/13/260 39/11/259 190/11/199 193/13/201
f 41/15/261 40/13/260 193/13/201 195/15/203
f 42/17/262 41/15/261 195/15/203 198/205/205
f 43/19/263 42/17/262 198/205/205 200/19/207
f 44/21/264 43/19/263 200/19/207 203/21/209
f 45/23/265 44/21/264 203/21/209 206/23/211
f 46/25/266 45/23/265 206/23/211 209/207/213
f 47/27/267 46/25/266 209/207/213 212/27/215
f 48/29/268 47/27/267 212/27/215 214/29/217
f 49/31/269 48/29/268 214/29/217 216/31/219
f 50/33/270 49/31/269 216/31/219 219/33/221
f 51/35/271 50/33/270 219/33/221 221/211/223
f 52/37/272 51/35/271 221/211/223 223/212/225
f 53/39/273 52/37/272 223/212/225 226/39/227
f 54/41/274 53/39/273 226/39/227 229/41/229
f 55/43/275 54/41/274 229/41/229 231/214/231
f 56/45/276 55/43/275 231/214/231 234/156/233
f 57/47/277 56/45/276 234/156/233 237/47/235
f 58/49/278 57/47/277 237/47/235 240/49/237
f 59/51/279 58/49/278 240/49/237 242/51/239
f 60/53/280 59/51/279 242/51/239 245/218/241
f 61/55/281 60/53/280 245/218/241 248/219/243
f 62/57/282 61/55/281 248/219/243 250/57/245
f 63/59/283 62/57/282 250/57/245 252/222/247
f 64/61/284 63/59/283 252/222/247 255/61/249
f 65/63/255 64/61/284 255/61/249 257/63/251
f 354/229/285 322/64/65 291/66/1 323/230/286
f 353/231/287 321/62/62 322/64/65 354/229/285
f 352/232/288 320/60/60 321/62/62 353/231/287
f 351/233/289 319/58/58 320/60/60 352/232/288
f 350/234/290 318/56/56 319/58/58 351/233/289
f 349/235/291 317/54/54 318/56/56 350/234/290
f 348/236/292 316/52/52 317/54/54 349/235/291
f 347/237/293 315/50/50 316/52/52 348/236/292
f 346/238/294 314/48/48 315/50/50 347/237/293
f 345/239/295 313/46/46 314/48/48 346/238/294
f 344/240/296 312/44/44 313/46/46 345/239/295
f 343/241/297 311/42/42 312/44/44 344/240/296
f 342/242/298 310/40/40 311/42/42 343/241/297
f 341/243/299 309/38/38 310/40/40 342/242/298
f 340/244/300 308/36/36 309/38/38 341/243/299
f 339/245/301 307/34/34 308/36/36 340/244/300
f 338/246/302 306/32/32 307/34/34 339/245/301
f 337/247/303 305/30/30 306/32/32 338/246/302
f 336/248/304 304/28/28 305/30/30 337/247/303
f 335/249/305 303/26/26 304/28/28 336/248/304
f 334/250/306 302/24/24 303/26/26 335/249/305
f 333/251/307 301/22/22 302/24/24 334/250/306
f 332/252/308 300/20/20 301/22/22 333/251/307
f 331/253/309 299/18/18 300/20/20 332/252/308
f 330/254/310 298/16/16 299/18/18 331/253/309
f 329/255/311 297/14/14 298/16/16 330/254/310
f 328/256/312 296/12/12 297/14/14 329/255/311
f 327/257/313 295/10/10 296/12/12 328/256/312
f 326/258/314 294/8/8 295/10/10 327/257/313
f 325/259/315 293/6/6 294/8/8 326/258/314
f 324/260/316 292/4/4 293/6/6 325/259/315
f 323/261/286 291/1/1 292/4/4 324/260/316
f 1/262/66 323/263/66 324/264/66
f 1/265/66 324/264/66 325/266/66
f 1/267/66 325/266/66 326/268/66
f 1/269/66 326/268/66 327/270/66
f 1/271/66 327/270/66 328/272/66
f 1/273/66 328/272/66 329/274/66
f 1/275/66 329/274/66 330/276/66
f 1/277/66 330/276/66 331/278/66
f 1/279/66 331/278/66 332/280/66
f 1/281/66 332/280/66 333/282/66
f 1/283/66 333/282/66 334/284/66
f 1/285/66 334/284/66 335/286/66
f 1/287/66 335/286/66 336/288/66
f 1/289/66 336/288/66 337/290/66
f 1/291/66 337/290/66 338/292/66
f 1/293/66 338/292/66 339/294/66
f 1/295/66 339/294/66 340/296/66
f 1/297/66 340/296/66 341/298/66
f 1/299/66 341/298/66 342/300/66
f 1/301/66 342/300/66 343/302/66
f 1/303/66 343/302/66 344/304/66
f 1/305/66 344/304/66 345/306/66
f 1/307/66 345/306/66 346/308/66
f 1/309/66 346/308/66 347/310/66
f 1/311/66 347/310/66 348/312/66
f 1/313/66 348/312/66 349/314/66
f 1/315/66 349/314/66 350/316/66
f 1/317/66 350/316/66 351/318/66
f 1/319/66 351/318/66 352/320/66
f 1/321/66 352/320/66 353/322/66
f 1/323/66 353/322/66 354/324/66
f 1/325/66 354/324/66 323/263/66
