# Blender 4.5.1 LTS
# www.blender.org
o Bullet-Rifle-Sabot.Dart
v 0.000000 0.500000 -0.051745
v 0.010095 0.500000 -0.050751
v 0.019802 0.500000 -0.047807
v 0.028748 0.500000 -0.043025
v 0.036590 0.500000 -0.036590
v 0.043025 0.500000 -0.028748
v 0.047807 0.500000 -0.019802
v 0.050751 0.500000 -0.010095
v 0.051745 0.500000 0.000000
v 0.050751 0.500000 0.010095
v 0.047807 0.500000 0.019802
v 0.043025 0.500000 0.028748
v 0.036590 0.500000 0.036590
v 0.028748 0.500000 0.043025
v 0.019802 0.500000 0.047807
v 0.010095 0.500000 0.050751
v 0.000000 0.500000 0.051745
v -0.010095 0.500000 0.050751
v -0.019802 0.500000 0.047807
v -0.028748 0.500000 0.043025
v -0.036590 0.500000 0.036590
v -0.043025 0.500000 0.028748
v -0.047807 0.500000 0.019802
v -0.050751 0.500000 0.010095
v -0.051745 0.500000 0.000000
v -0.050751 0.500000 -0.010095
v -0.047807 0.500000 -0.019802
v -0.043025 0.500000 -0.028748
v -0.036590 0.500000 -0.036590
v -0.028748 0.500000 -0.043025
v -0.019802 0.500000 -0.047807
v -0.010095 0.500000 -0.050751
v 0.000000 0.690000 -0.003443
v 0.000672 0.690000 -0.003377
v 0.001318 0.690000 -0.003181
v 0.001913 0.690000 -0.002863
v 0.002435 0.690000 -0.002435
v 0.002863 0.690000 -0.001913
v 0.003181 0.690000 -0.001318
v 0.003377 0.690000 -0.000672
v 0.003443 0.690000 -0.000000
v 0.003377 0.690000 0.000672
v 0.003181 0.690000 0.001318
v 0.002863 0.690000 0.001913
v 0.002435 0.690000 0.002435
v 0.001913 0.690000 0.002863
v 0.001318 0.690000 0.003181
v 0.000672 0.690000 0.003377
v 0.000000 0.690000 0.003443
v -0.000672 0.690000 0.003377
v -0.001318 0.690000 0.003181
v -0.001913 0.690000 0.002863
v -0.002435 0.690000 0.002435
v -0.002863 0.690000 0.001913
v -0.003181 0.690000 0.001318
v -0.003377 0.690000 0.000672
v -0.003443 0.690000 -0.000000
v -0.003377 0.690000 -0.000672
v -0.003181 0.690000 -0.001318
v -0.002863 0.690000 -0.001913
v -0.002435 0.690000 -0.002435
v -0.001913 0.690000 -0.002863
v -0.001318 0.690000 -0.003181
v -0.000672 0.690000 -0.003377
v 0.000002 0.691000 -0.000000
v 0.000000 0.300000 -0.051745
v 0.010095 0.300000 -0.050751
v 0.019802 0.300000 -0.047807
v 0.028748 0.300000 -0.043025
v 0.036590 0.300000 -0.036590
v 0.043025 0.300000 -0.028748
v 0.047807 0.300000 -0.019802
v 0.050751 0.300000 -0.010095
v 0.051745 0.300000 0.000000
v 0.050751 0.300000 0.010095
v 0.047807 0.300000 0.019802
v 0.043025 0.300000 0.028748
v 0.036590 0.300000 0.036590
v 0.028748 0.300000 0.043025
v 0.019802 0.300000 0.047807
v 0.010095 0.300000 0.050751
v 0.000000 0.300000 0.051745
v -0.010095 0.300000 0.050751
v -0.019802 0.300000 0.047807
v -0.028748 0.300000 0.043025
v -0.036590 0.300000 0.036590
v -0.043025 0.300000 0.028748
v -0.047807 0.300000 0.019802
v -0.050751 0.300000 0.010095
v -0.051745 0.300000 0.000000
v -0.050751 0.300000 -0.010095
v -0.047807 0.300000 -0.019802
v -0.043025 0.300000 -0.028748
v -0.036590 0.300000 -0.036590
v -0.028748 0.300000 -0.043025
v -0.019802 0.300000 -0.047807
v -0.010095 0.300000 -0.050751
v 0.000000 0.300000 0.000000
v 0.039670 0.547500 -0.000000
v 0.027594 0.595000 -0.000000
v 0.015519 0.642500 -0.000000
v 0.015220 0.642500 0.003028
v 0.027064 0.595000 0.005383
v 0.038908 0.547500 0.007739
v -0.036650 0.547500 0.015181
v -0.025494 0.595000 0.010560
v -0.014337 0.642500 0.005939
v -0.015220 0.642500 0.003028
v -0.027064 0.595000 0.005383
v -0.038908 0.547500 0.007739
v 0.014337 0.642500 0.005939
v 0.025494 0.595000 0.010560
v 0.036650 0.547500 0.015181
v -0.015519 0.642500 -0.000000
v -0.027594 0.595000 -0.000000
v -0.039670 0.547500 -0.000000
v 0.012903 0.642500 0.008622
v 0.022944 0.595000 0.015331
v 0.032984 0.547500 0.022039
v -0.015220 0.642500 -0.003028
v -0.027064 0.595000 -0.005383
v -0.038908 0.547500 -0.007739
v 0.010973 0.642500 0.010973
v 0.019512 0.595000 0.019512
v 0.028051 0.547500 0.028051
v -0.014337 0.642500 -0.005939
v -0.025494 0.595000 -0.010560
v -0.036650 0.547500 -0.015181
v 0.008622 0.642500 0.012903
v 0.015331 0.595000 0.022944
v 0.022039 0.547500 0.032984
v -0.012903 0.642500 -0.008622
v -0.022944 0.595000 -0.015331
v -0.032984 0.547500 -0.022039
v 0.005939 0.642500 0.014337
v 0.010560 0.595000 0.025494
v 0.015181 0.547500 0.036650
v 0.000000 0.547500 -0.039670
v 0.000000 0.595000 -0.027594
v 0.000000 0.642500 -0.015519
v 0.003028 0.642500 -0.015220
v 0.005383 0.595000 -0.027064
v 0.007739 0.547500 -0.038908
v -0.010973 0.642500 -0.010973
v -0.019512 0.595000 -0.019512
v -0.028051 0.547500 -0.028051
v 0.003028 0.642500 0.015220
v 0.005383 0.595000 0.027064
v 0.007739 0.547500 0.038908
v 0.005939 0.642500 -0.014337
v 0.010560 0.595000 -0.025494
v 0.015181 0.547500 -0.036650
v -0.008622 0.642500 -0.012903
v -0.015331 0.595000 -0.022944
v -0.022039 0.547500 -0.032984
v 0.000000 0.642500 0.015519
v 0.000000 0.595000 0.027594
v 0.000000 0.547500 0.039670
v 0.008622 0.642500 -0.012903
v 0.015331 0.595000 -0.022944
v 0.022039 0.547500 -0.032984
v -0.005939 0.642500 -0.014337
v -0.010560 0.595000 -0.025494
v -0.015181 0.547500 -0.036650
v -0.003028 0.642500 0.015220
v -0.005383 0.595000 0.027064
v -0.007739 0.547500 0.038908
v 0.010973 0.642500 -0.010973
v 0.019512 0.595000 -0.019512
v 0.028051 0.547500 -0.028051
v -0.003028 0.642500 -0.015220
v -0.005383 0.595000 -0.027064
v -0.007739 0.547500 -0.038908
v -0.005939 0.642500 0.014337
v -0.010560 0.595000 0.025494
v -0.015181 0.547500 0.036650
v 0.012903 0.642500 -0.008622
v 0.022944 0.595000 -0.015331
v 0.032984 0.547500 -0.022039
v -0.008622 0.642500 0.012903
v -0.015331 0.595000 0.022944
v -0.022039 0.547500 0.032984
v 0.014337 0.642500 -0.005939
v 0.025494 0.595000 -0.010560
v 0.036650 0.547500 -0.015181
v -0.010973 0.642500 0.010973
v -0.019512 0.595000 0.019512
v -0.028051 0.547500 0.028051
v 0.015220 0.642500 -0.003028
v 0.027064 0.595000 -0.005383
v 0.038908 0.547500 -0.007739
v -0.012903 0.642500 0.008622
v -0.022944 0.595000 0.015331
v -0.032984 0.547500 0.022039
vn 0.9505 0.2464 0.1891
vn 0.9692 0.2464 -0.0000
vn 0.9506 0.2464 0.1891
vn 0.1973 0.9603 0.1974
vn 0.2321 0.9603 0.1551
vn 0.0001 1.0000 -0.0000
vn -0.9505 0.2464 0.1891
vn -0.8954 0.2464 0.3709
vn 0.8954 0.2464 0.3709
vn -0.9692 0.2464 -0.0000
vn 0.8058 0.2464 0.5384
vn -0.9505 0.2464 -0.1891
vn 0.6853 0.2464 0.6853
vn -0.8954 0.2464 -0.3709
vn 0.5384 0.2464 0.8058
vn -0.8058 0.2464 -0.5384
vn 0.3709 0.2464 0.8954
vn 0.1891 0.2464 -0.9505
vn -0.0000 0.2464 -0.9692
vn -0.6853 0.2464 -0.6853
vn 0.1891 0.2464 0.9505
vn 0.3709 0.2464 -0.8954
vn -0.5384 0.2464 -0.8058
vn -0.0000 0.2464 0.9692
vn 0.5384 0.2464 -0.8058
vn -0.3709 0.2464 -0.8954
vn -0.1891 0.2464 0.9505
vn 0.6853 0.2464 -0.6853
vn -0.1891 0.2464 -0.9505
vn -0.3709 0.2464 0.8954
vn 0.8058 0.2464 -0.5384
vn -0.5384 0.2464 0.8058
vn 0.8954 0.2464 -0.3709
vn -0.6853 0.2464 0.6853
vn 0.9505 0.2464 -0.1891
vn -0.8058 0.2464 0.5384
vn -0.2577 0.9603 -0.1067
vn -0.2736 0.9603 -0.0544
vn 0.1550 0.9603 0.2321
vn -0.2319 0.9603 -0.1550
vn 0.1067 0.9603 0.2578
vn 0.0545 0.9603 -0.2737
vn -0.0000 0.9603 -0.2790
vn -0.1973 0.9603 -0.1972
vn 0.0544 0.9603 0.2737
vn 0.1068 0.9603 -0.2578
vn -0.1549 0.9603 -0.2319
vn -0.0000 0.9603 0.2790
vn 0.1550 0.9603 -0.2321
vn -0.1068 0.9603 -0.2577
vn -0.0544 0.9603 0.2736
vn 0.1974 0.9603 -0.1974
vn -0.0545 0.9603 -0.2736
vn -0.1067 0.9603 0.2577
vn 0.2321 0.9603 -0.1551
vn -0.1549 0.9603 0.2319
vn 0.2579 0.9602 -0.1068
vn -0.1973 0.9603 0.1972
vn 0.2738 0.9603 -0.0545
vn -0.2319 0.9603 0.1550
vn 0.2791 0.9603 -0.0000
vn -0.2577 0.9603 0.1067
vn 0.2738 0.9603 0.0545
vn -0.2735 0.9603 0.0544
vn 0.2579 0.9603 0.1068
vn -0.2789 0.9603 -0.0000
vn 0.1951 -0.0000 0.9808
vn -0.0000 -0.0000 1.0000
vn 0.3827 -0.0000 -0.9239
vn 0.5556 -0.0000 -0.8315
vn -0.5556 -0.0000 -0.8315
vn -0.3827 -0.0000 -0.9239
vn -0.1951 -0.0000 0.9808
vn 0.7071 -0.0000 -0.7071
vn -0.1951 -0.0000 -0.9808
vn -0.3827 -0.0000 0.9239
vn 0.8315 -0.0000 -0.5556
vn -0.0000 -0.0000 -1.0000
vn -0.5556 -0.0000 0.8315
vn 0.9239 -0.0000 -0.3827
vn -0.7071 -0.0000 0.7071
vn 0.9808 -0.0000 -0.1951
vn -0.8315 -0.0000 0.5556
vn 1.0000 -0.0000 -0.0000
vn -0.9239 -0.0000 0.3827
vn 0.9808 -0.0000 0.1951
vn -0.9808 -0.0000 0.1951
vn 0.9239 -0.0000 0.3827
vn -1.0000 -0.0000 -0.0000
vn 0.8315 -0.0000 0.5556
vn -0.9808 -0.0000 -0.1951
vn 0.7071 -0.0000 0.7071
vn -0.9239 -0.0000 -0.3827
vn 0.5556 -0.0000 0.8315
vn -0.8315 -0.0000 -0.5556
vn 0.3827 -0.0000 0.9239
vn 0.1951 -0.0000 -0.9808
vn -0.7071 -0.0000 -0.7071
vn -0.0000 -1.0000 -0.0000
vt 0.432335 0.213731
vt 0.435907 0.250000
vt 0.435907 0.250000
vt 0.381456 0.118544
vt 0.404576 0.146715
vt 0.067665 0.213731
vt 0.078244 0.178856
vt 0.421756 0.178856
vt 0.064093 0.250000
vt 0.067665 0.286269
vt 0.078244 0.321144
vt 0.353285 0.095424
vt 0.095424 0.353285
vt 0.321144 0.078244
vt 0.286269 0.432335
vt 0.250000 0.435908
vt 0.118544 0.381456
vt 0.286269 0.067665
vt 0.321144 0.421756
vt 0.146715 0.404576
vt 0.250000 0.064093
vt 0.353285 0.404576
vt 0.178856 0.421756
vt 0.213731 0.067665
vt 0.381456 0.381456
vt 0.213731 0.432335
vt 0.178856 0.078244
vt 0.404576 0.353285
vt 0.146715 0.095424
vt 0.421756 0.321144
vt 0.118544 0.118544
vt 0.432335 0.286269
vt 0.095424 0.146715
vt 0.095424 0.146715
vt 0.421756 0.321144
vt 0.404576 0.353285
vt 0.178856 0.078244
vt 0.213731 0.432335
vt 0.381456 0.381456
vt 0.250000 0.064093
vt 0.146715 0.404576
vt 0.095424 0.353285
vt 0.353285 0.095424
vt 0.067665 0.286269
vt 0.404576 0.146715
vt 0.064093 0.250000
vt 0.421756 0.178856
vt 0.067665 0.213731
s 1
f 102/1/1 101/2/2 41/3/2 42/1/3
f 45/4/4 44/5/5 65/4/6
f 108/6/7 107/7/8 55/7/8 56/6/7
f 111/8/9 102/1/1 42/1/3 43/8/9
f 114/9/10 108/6/7 56/6/7 57/9/10
f 117/5/11 111/8/9 43/8/9 44/5/11
f 120/10/12 114/9/10 57/9/10 58/10/12
f 123/4/13 117/5/11 44/5/11 45/4/13
f 126/11/14 120/10/12 58/10/12 59/11/14
f 129/12/15 123/4/13 45/4/13 46/12/15
f 132/13/16 126/11/14 59/11/14 60/13/16
f 135/14/17 129/12/15 46/12/15 47/14/17
f 141/15/18 140/16/19 33/16/19 34/15/18
f 144/17/20 132/13/16 60/13/16 61/17/20
f 147/18/21 135/14/17 47/14/17 48/18/21
f 150/19/22 141/15/18 34/15/18 35/19/22
f 153/20/23 144/17/20 61/17/20 62/20/23
f 156/21/24 147/18/21 48/18/21 49/21/24
f 159/22/25 150/19/22 35/19/22 36/22/25
f 162/23/26 153/20/23 62/20/23 63/23/26
f 165/24/27 156/21/24 49/21/24 50/24/27
f 168/25/28 159/22/25 36/22/25 37/25/28
f 171/26/29 162/23/26 63/23/26 64/26/29
f 174/27/30 165/24/27 50/24/27 51/27/30
f 177/28/31 168/25/28 37/25/28 38/28/31
f 140/16/19 171/26/29 64/26/29 33/16/19
f 180/29/32 174/27/30 51/27/30 52/29/32
f 183/30/33 177/28/31 38/28/31 39/30/33
f 186/31/34 180/29/32 52/29/32 53/31/34
f 189/32/35 183/30/33 39/30/33 40/32/35
f 192/33/36 186/31/34 53/31/34 54/33/36
f 101/2/2 189/32/35 40/32/35 41/3/2
f 107/7/8 192/33/36 54/33/36 55/7/8
f 59/11/37 58/10/38 65/11/6
f 46/12/39 45/4/4 65/12/6
f 60/13/40 59/11/37 65/13/6
f 47/14/41 46/12/39 65/14/6
f 34/15/42 33/16/43 65/15/6
f 61/17/44 60/13/40 65/17/6
f 48/18/45 47/14/41 65/18/6
f 35/19/46 34/15/42 65/19/6
f 62/20/47 61/17/44 65/20/6
f 49/21/48 48/18/45 65/21/6
f 36/22/49 35/19/46 65/22/6
f 63/23/50 62/20/47 65/23/6
f 50/24/51 49/21/48 65/24/6
f 37/25/52 36/22/49 65/25/6
f 64/26/53 63/23/50 65/26/6
f 51/27/54 50/24/51 65/27/6
f 38/28/55 37/25/52 65/28/6
f 33/16/43 64/26/53 65/16/6
f 52/29/56 51/27/54 65/29/6
f 39/30/57 38/28/55 65/30/6
f 53/31/58 52/29/56 65/31/6
f 40/32/59 39/30/57 65/32/6
f 54/33/60 53/31/58 65/33/6
f 41/3/61 40/32/59 65/3/6
f 55/7/62 54/33/60 65/7/6
f 42/1/63 41/3/61 65/1/6
f 56/6/64 55/7/62 65/6/6
f 43/8/65 42/1/63 65/8/6
f 57/9/66 56/6/64 65/9/6
f 44/5/5 43/8/65 65/5/6
f 58/10/38 57/9/66 65/10/6
f 16/18/67 17/21/68 82/21/68 81/18/67
f 3/19/69 4/22/70 69/22/70 68/19/69
f 30/20/71 31/23/72 96/23/72 95/20/71
f 17/21/68 18/24/73 83/24/73 82/21/68
f 4/22/70 5/25/74 70/25/74 69/22/70
f 31/23/72 32/26/75 97/26/75 96/23/72
f 18/24/73 19/27/76 84/27/76 83/24/73
f 5/25/74 6/28/77 71/28/77 70/25/74
f 32/26/75 1/16/78 66/16/78 97/26/75
f 19/27/76 20/29/79 85/29/79 84/27/76
f 6/28/77 7/30/80 72/30/80 71/28/77
f 20/29/79 21/31/81 86/31/81 85/29/79
f 7/30/80 8/32/82 73/32/82 72/30/80
f 21/31/81 22/33/83 87/33/83 86/31/81
f 8/32/82 9/3/84 74/3/84 73/32/82
f 22/33/83 23/7/85 88/7/85 87/33/83
f 9/3/84 10/1/86 75/1/86 74/3/84
f 23/7/85 24/6/87 89/6/87 88/7/85
f 10/1/86 11/8/88 76/8/88 75/1/86
f 24/6/87 25/9/89 90/9/89 89/6/87
f 11/8/88 12/5/90 77/5/90 76/8/88
f 25/9/89 26/10/91 91/10/91 90/9/89
f 12/5/90 13/4/92 78/4/92 77/5/90
f 26/10/91 27/11/93 92/11/93 91/10/91
f 13/4/92 14/12/94 79/12/94 78/4/92
f 27/11/93 28/13/95 93/13/95 92/11/93
f 14/12/94 15/14/96 80/14/96 79/12/94
f 1/16/78 2/15/97 67/15/97 66/16/78
f 28/13/95 29/17/98 94/17/98 93/13/95
f 15/14/96 16/18/67 81/18/67 80/14/96
f 2/15/97 3/19/69 68/19/69 67/15/97
f 29/17/98 30/20/71 95/20/71 94/17/98
f 85/29/99 86/31/99 98/29/99
f 72/30/99 73/32/99 98/30/99
f 86/31/99 87/33/99 98/31/99
f 73/32/99 74/3/99 98/32/99
f 87/33/99 88/7/99 98/33/99
f 74/3/99 75/1/99 98/3/99
f 88/7/99 89/6/99 98/7/99
f 75/1/99 76/8/99 98/1/99
f 89/6/99 90/9/99 98/6/99
f 76/8/99 77/5/99 98/8/99
f 90/9/99 91/10/99 98/9/99
f 77/5/99 78/4/99 98/5/99
f 91/10/99 92/11/99 98/10/99
f 78/4/99 79/12/99 98/4/99
f 92/11/99 93/13/99 98/11/99
f 79/12/99 80/14/99 98/12/99
f 66/16/99 67/15/99 98/16/99
f 93/13/99 94/17/99 98/13/99
f 80/14/99 81/18/99 98/14/99
f 67/15/99 68/19/99 98/15/99
f 94/17/99 95/20/99 98/17/99
f 81/18/99 82/21/99 98/18/99
f 68/19/99 69/22/99 98/19/99
f 95/20/99 96/23/99 98/20/99
f 82/21/99 83/24/99 98/21/99
f 69/22/99 70/25/99 98/22/99
f 96/23/99 97/26/99 98/23/99
f 83/24/99 84/27/99 98/24/99
f 70/25/99 71/28/99 98/25/99
f 97/26/99 66/16/99 98/26/99
f 84/27/99 85/29/99 98/27/99
f 71/28/99 72/30/99 98/28/99
f 23/7/8 22/33/36 194/33/36 105/7/8
f 105/7/8 194/33/36 193/34/36 106/7/8
f 106/7/8 193/34/36 192/33/36 107/7/8
f 9/3/2 8/32/35 191/32/35 99/3/2
f 99/3/2 191/32/35 190/32/35 100/2/2
f 100/2/2 190/32/35 189/32/35 101/2/2
f 22/33/36 21/31/34 188/31/34 194/33/36
f 194/33/36 188/31/34 187/31/34 193/34/36
f 193/34/36 187/31/34 186/31/34 192/33/36
f 8/32/35 7/30/33 185/30/33 191/32/35
f 191/32/35 185/30/33 184/35/33 190/32/35
f 190/32/35 184/35/33 183/30/33 189/32/35
f 21/31/34 20/29/32 182/29/32 188/31/34
f 188/31/34 182/29/32 181/29/32 187/31/34
f 187/31/34 181/29/32 180/29/32 186/31/34
f 7/30/33 6/28/31 179/28/31 185/30/33
f 185/30/33 179/28/31 178/36/31 184/35/33
f 184/35/33 178/36/31 177/28/31 183/30/33
f 20/29/32 19/27/30 176/37/30 182/29/32
f 182/29/32 176/37/30 175/37/30 181/29/32
f 181/29/32 175/37/30 174/27/30 180/29/32
f 1/16/19 32/26/29 173/26/29 138/16/19
f 138/16/19 173/26/29 172/38/29 139/16/19
f 139/16/19 172/38/29 171/26/29 140/16/19
f 6/28/31 5/25/28 170/25/28 179/28/31
f 179/28/31 170/25/28 169/39/28 178/36/31
f 178/36/31 169/39/28 168/25/28 177/28/31
f 19/27/30 18/24/27 167/24/27 176/37/30
f 176/37/30 167/24/27 166/24/27 175/37/30
f 175/37/30 166/24/27 165/24/27 174/27/30
f 32/26/29 31/23/26 164/23/26 173/26/29
f 173/26/29 164/23/26 163/23/26 172/38/29
f 172/38/29 163/23/26 162/23/26 171/26/29
f 5/25/28 4/22/25 161/22/25 170/25/28
f 170/25/28 161/22/25 160/22/25 169/39/28
f 169/39/28 160/22/25 159/22/25 168/25/28
f 18/24/27 17/21/24 158/40/24 167/24/27
f 167/24/27 158/40/24 157/40/24 166/24/27
f 166/24/27 157/40/24 156/21/24 165/24/27
f 31/23/26 30/20/23 155/41/23 164/23/26
f 164/23/26 155/41/23 154/41/23 163/23/26
f 163/23/26 154/41/23 153/20/23 162/23/26
f 4/22/25 3/19/22 152/19/22 161/22/25
f 161/22/25 152/19/22 151/19/22 160/22/25
f 160/22/25 151/19/22 150/19/22 159/22/25
f 17/21/24 16/18/21 149/18/21 158/40/24
f 158/40/24 149/18/21 148/18/21 157/40/24
f 157/40/24 148/18/21 147/18/21 156/21/24
f 30/20/23 29/17/20 146/17/20 155/41/23
f 155/41/23 146/17/20 145/17/20 154/41/23
f 154/41/23 145/17/20 144/17/20 153/20/23
f 3/19/22 2/15/18 143/15/18 152/19/22
f 152/19/22 143/15/18 142/15/18 151/19/22
f 151/19/22 142/15/18 141/15/18 150/19/22
f 16/18/21 15/14/17 137/14/17 149/18/21
f 149/18/21 137/14/17 136/14/17 148/18/21
f 148/18/21 136/14/17 135/14/17 147/18/21
f 29/17/20 28/13/16 134/42/16 146/17/20
f 146/17/20 134/42/16 133/42/16 145/17/20
f 145/17/20 133/42/16 132/13/16 144/17/20
f 2/15/18 1/16/19 138/16/19 143/15/18
f 143/15/18 138/16/19 139/16/19 142/15/18
f 142/15/18 139/16/19 140/16/19 141/15/18
f 15/14/17 14/12/15 131/43/15 137/14/17
f 137/14/17 131/43/15 130/43/15 136/14/17
f 136/14/17 130/43/15 129/12/15 135/14/17
f 28/13/16 27/11/14 128/11/14 134/42/16
f 134/42/16 128/11/14 127/11/14 133/42/16
f 133/42/16 127/11/14 126/11/14 132/13/16
f 14/12/15 13/4/13 125/4/13 131/43/15
f 131/43/15 125/4/13 124/4/13 130/43/15
f 130/43/15 124/4/13 123/4/13 129/12/15
f 27/11/14 26/10/12 122/44/12 128/11/14
f 128/11/14 122/44/12 121/44/12 127/11/14
f 127/11/14 121/44/12 120/10/12 126/11/14
f 13/4/13 12/5/11 119/45/11 125/4/13
f 125/4/13 119/45/11 118/45/11 124/4/13
f 124/4/13 118/45/11 117/5/11 123/4/13
f 26/10/12 25/9/10 116/46/10 122/44/12
f 122/44/12 116/46/10 115/46/10 121/44/12
f 121/44/12 115/46/10 114/9/10 120/10/12
f 12/5/11 11/8/9 113/47/9 119/45/11
f 119/45/11 113/47/9 112/47/9 118/45/11
f 118/45/11 112/47/9 111/8/9 117/5/11
f 25/9/10 24/6/7 110/48/7 116/46/10
f 116/46/10 110/48/7 109/48/7 115/46/10
f 115/46/10 109/48/7 108/6/7 114/9/10
f 11/8/9 10/1/1 104/1/1 113/47/9
f 113/47/9 104/1/1 103/1/1 112/47/9
f 112/47/9 103/1/1 102/1/1 111/8/9
f 24/6/7 23/7/8 105/7/8 110/48/7
f 110/48/7 105/7/8 106/7/8 109/48/7
f 109/48/7 106/7/8 107/7/8 108/6/7
f 10/1/1 9/3/2 99/3/2 104/1/1
f 104/1/1 99/3/2 100/2/2 103/1/1
f 103/1/1 100/2/2 101/2/2 102/1/1
