# Blender 4.5.1 LTS
# www.blender.org
o Bullet-Rifle-FlatBase
v 0.000000 -0.000000 -0.100000
v 0.000000 0.197974 -0.100000
v 0.019509 -0.000000 -0.098079
v 0.019509 0.197974 -0.098079
v 0.038269 -0.000000 -0.092388
v 0.038269 0.197974 -0.092388
v 0.055557 -0.000000 -0.083147
v 0.055557 0.197974 -0.083147
v 0.070711 -0.000000 -0.070711
v 0.070711 0.197974 -0.070711
v 0.083147 -0.000000 -0.055557
v 0.083147 0.197974 -0.055557
v 0.092388 -0.000000 -0.038268
v 0.092388 0.197974 -0.038268
v 0.098079 -0.000000 -0.019509
v 0.098079 0.197974 -0.019509
v 0.100000 -0.000000 -0.000000
v 0.100000 0.197974 -0.000000
v 0.098079 -0.000000 0.019509
v 0.098079 0.197974 0.019509
v 0.092388 -0.000000 0.038268
v 0.092388 0.197974 0.038268
v 0.083147 -0.000000 0.055557
v 0.083147 0.197974 0.055557
v 0.070711 -0.000000 0.070711
v 0.070711 0.197974 0.070711
v 0.055557 -0.000000 0.083147
v 0.055557 0.197974 0.083147
v 0.038269 -0.000000 0.092388
v 0.038269 0.197974 0.092388
v 0.019509 -0.000000 0.098079
v 0.019509 0.197974 0.098079
v 0.000000 -0.000000 0.100000
v 0.000000 0.197974 0.100000
v -0.019509 -0.000000 0.098079
v -0.019509 0.197974 0.098079
v -0.038268 -0.000000 0.092388
v -0.038268 0.197974 0.092388
v -0.055557 -0.000000 0.083147
v -0.055557 0.197974 0.083147
v -0.070710 -0.000000 0.070711
v -0.070710 0.197974 0.070711
v -0.083147 -0.000000 0.055557
v -0.083147 0.197974 0.055557
v -0.092388 -0.000000 0.038268
v -0.092388 0.197974 0.038268
v -0.098078 -0.000000 0.019509
v -0.098078 0.197974 0.019509
v -0.100000 -0.000000 -0.000000
v -0.100000 0.197974 -0.000000
v -0.098078 -0.000000 -0.019509
v -0.098078 0.197974 -0.019509
v -0.092388 -0.000000 -0.038268
v -0.092388 0.197974 -0.038268
v -0.083147 -0.000000 -0.055557
v -0.083147 0.197974 -0.055557
v -0.070710 -0.000000 -0.070711
v -0.070710 0.197974 -0.070711
v -0.055557 -0.000000 -0.083147
v -0.055557 0.197974 -0.083147
v -0.038268 -0.000000 -0.092388
v -0.038268 0.197974 -0.092388
v -0.019509 -0.000000 -0.098079
v -0.019509 0.197974 -0.098079
v 0.000000 0.242026 -0.100000
v 0.019509 0.242026 -0.098079
v 0.038269 0.242026 -0.092388
v 0.055557 0.242026 -0.083147
v 0.070711 0.242026 -0.070711
v 0.083147 0.242026 -0.055557
v 0.092388 0.242026 -0.038268
v 0.098079 0.242026 -0.019509
v 0.100000 0.242026 -0.000000
v 0.098079 0.242026 0.019509
v 0.092388 0.242026 0.038268
v 0.083147 0.242026 0.055557
v 0.070711 0.242026 0.070711
v 0.055557 0.242026 0.083147
v 0.038269 0.242026 0.092388
v 0.019509 0.242026 0.098079
v 0.000000 0.242026 0.100000
v -0.019509 0.242026 0.098079
v -0.038268 0.242026 0.092388
v -0.055557 0.242026 0.083147
v -0.070710 0.242026 0.070711
v -0.083147 0.242026 0.055557
v -0.092388 0.242026 0.038268
v -0.098078 0.242026 0.019509
v -0.100000 0.242026 -0.000000
v -0.098078 0.242026 -0.019509
v -0.092388 0.242026 -0.038268
v -0.083147 0.242026 -0.055557
v -0.070710 0.242026 -0.070711
v -0.055557 0.242026 -0.083147
v -0.038268 0.242026 -0.092388
v -0.019509 0.242026 -0.098079
v 0.038269 0.361507 -0.092388
v 0.055557 0.361507 -0.083147
v 0.070711 0.361507 -0.070711
v 0.098079 0.361507 -0.019509
v 0.092388 0.361507 0.038268
v 0.019509 0.361507 0.098079
v -0.019509 0.361507 0.098079
v -0.083147 0.361507 0.055557
v 0.000001 0.631508 -0.036288
v 0.007080 0.631508 -0.035591
v 0.013887 0.631508 -0.033526
v 0.020161 0.631508 -0.030172
v 0.025660 0.631508 -0.025659
v 0.030173 0.631508 -0.020160
v 0.033526 0.631508 -0.013887
v 0.035591 0.631508 -0.007079
v 0.036289 0.631508 -0.000000
v 0.035591 0.631508 0.007079
v 0.033526 0.631508 0.013887
v 0.030173 0.631508 0.020160
v 0.025660 0.631508 0.025659
v 0.020161 0.631508 0.030172
v 0.013887 0.631508 0.033526
v 0.007080 0.631508 0.035591
v 0.000001 0.631508 0.036288
v -0.007079 0.631508 0.035591
v -0.013886 0.631508 0.033526
v -0.020160 0.631508 0.030172
v -0.025659 0.631508 0.025659
v -0.030172 0.631508 0.020160
v -0.033525 0.631508 0.013887
v -0.035590 0.631508 0.007079
v -0.036287 0.631508 -0.000000
v -0.035590 0.631508 -0.007079
v -0.033525 0.631508 -0.013887
v -0.030172 0.631508 -0.020160
v -0.025659 0.631508 -0.025659
v -0.020160 0.631508 -0.030172
v -0.013886 0.631508 -0.033526
v -0.007079 0.631508 -0.035591
v -0.001408 0.692507 -0.007080
v -0.002762 0.692507 -0.006670
v -0.004010 0.692507 -0.006003
v -0.005104 0.692507 -0.005105
v -0.006002 0.692507 -0.004011
v -0.006669 0.692507 -0.002763
v -0.007080 0.692507 -0.001408
v -0.007219 0.692507 -0.000000
v -0.007080 0.692507 0.001408
v -0.006669 0.692507 0.002763
v -0.006002 0.692507 0.004011
v -0.005104 0.692507 0.005105
v -0.004010 0.692507 0.006003
v -0.002762 0.692507 0.006670
v -0.001408 0.692507 0.007080
v 0.000000 0.692507 0.007219
v 0.001409 0.692507 0.007080
v 0.002763 0.692507 0.006670
v 0.004011 0.692507 0.006003
v 0.005105 0.692507 0.005105
v 0.006003 0.692507 0.004011
v 0.006670 0.692507 0.002763
v 0.007081 0.692507 0.001408
v 0.007220 0.692507 -0.000000
v 0.007081 0.692507 -0.001408
v 0.006670 0.692507 -0.002763
v 0.006003 0.692507 -0.004011
v 0.005105 0.692507 -0.005105
v 0.004011 0.692507 -0.006003
v 0.002763 0.692507 -0.006670
v 0.001409 0.692507 -0.007080
v 0.000000 0.692507 -0.007219
v -0.041518 0.618701 -0.008259
v -0.098078 0.361507 -0.019509
v -0.059506 0.561663 -0.011837
v -0.078231 0.492756 -0.015561
v -0.091595 0.422471 -0.018219
v -0.092388 0.361507 -0.038268
v -0.039109 0.618701 -0.016200
v -0.086280 0.422471 -0.035739
v -0.073692 0.492756 -0.030524
v -0.056054 0.561663 -0.023218
v 0.029934 0.618701 0.029933
v 0.070711 0.361507 0.070711
v 0.042902 0.561663 0.042902
v 0.056402 0.492756 0.056402
v 0.066037 0.422471 0.066036
v 0.055557 0.361507 0.083147
v 0.023519 0.618701 0.035198
v 0.051885 0.422471 0.077650
v 0.044315 0.492756 0.066321
v 0.033708 0.561663 0.050447
v -0.083147 0.361507 -0.055557
v -0.035197 0.618701 -0.023518
v -0.077650 0.422471 -0.051884
v -0.066321 0.492756 -0.044314
v -0.050447 0.561663 -0.033708
v 0.038269 0.361507 0.092388
v 0.016200 0.618701 0.039109
v 0.035739 0.422471 0.086281
v 0.030525 0.492756 0.073692
v 0.023219 0.561663 0.056054
v 0.000001 0.618701 -0.042332
v 0.000000 0.361507 -0.100000
v 0.000000 0.561663 -0.060673
v 0.000000 0.492756 -0.079764
v 0.000000 0.422471 -0.093389
v 0.019509 0.361507 -0.098079
v 0.008259 0.618701 -0.041518
v 0.018220 0.422471 -0.091595
v 0.015562 0.492756 -0.078231
v 0.011837 0.561663 -0.059507
v -0.070710 0.361507 -0.070711
v -0.029932 0.618701 -0.029933
v -0.066036 0.422471 -0.066036
v -0.056401 0.492756 -0.056402
v -0.042902 0.561663 -0.042902
v 0.008259 0.618701 0.041518
v 0.018220 0.422471 0.091595
v 0.015562 0.492756 0.078231
v 0.011837 0.561663 0.059507
v 0.016200 0.618701 -0.039109
v 0.035739 0.422471 -0.086281
v 0.030525 0.492756 -0.073692
v 0.023219 0.561663 -0.056054
v -0.055557 0.361507 -0.083147
v -0.023518 0.618701 -0.035198
v -0.051884 0.422471 -0.077650
v -0.044314 0.492756 -0.066321
v -0.033707 0.561663 -0.050447
v 0.000000 0.361507 0.100000
v 0.000001 0.618701 0.042332
v 0.000000 0.422471 0.093389
v 0.000000 0.492756 0.079764
v 0.000000 0.561663 0.060673
v 0.023519 0.618701 -0.035198
v 0.051885 0.422471 -0.077650
v 0.044315 0.492756 -0.066321
v 0.033708 0.561663 -0.050447
v -0.038268 0.361507 -0.092388
v -0.016199 0.618701 -0.039109
v -0.035738 0.422471 -0.086281
v -0.030524 0.492756 -0.073692
v -0.023218 0.561663 -0.056054
v -0.008258 0.618701 0.041518
v -0.018219 0.422471 0.091595
v -0.015561 0.492756 0.078231
v -0.011836 0.561663 0.059507
v 0.029934 0.618701 -0.029933
v 0.066037 0.422471 -0.066036
v 0.056402 0.492756 -0.056402
v 0.042902 0.561663 -0.042902
v -0.019509 0.361507 -0.098079
v -0.008258 0.618701 -0.041518
v -0.018219 0.422471 -0.091595
v -0.015561 0.492756 -0.078231
v -0.011836 0.561663 -0.059507
v -0.038268 0.361507 0.092388
v -0.016199 0.618701 0.039109
v -0.035738 0.422471 0.086281
v -0.030524 0.492756 0.073692
v -0.023218 0.561663 0.056054
v 0.083147 0.361507 -0.055557
v 0.035198 0.618701 -0.023518
v 0.077651 0.422471 -0.051884
v 0.066322 0.492756 -0.044314
v 0.050448 0.561663 -0.033708
v -0.055557 0.361507 0.083147
v -0.023518 0.618701 0.035198
v -0.051884 0.422471 0.077650
v -0.044314 0.492756 0.066321
v -0.033707 0.561663 0.050447
v 0.092388 0.361507 -0.038268
v 0.039110 0.618701 -0.016200
v 0.086281 0.422471 -0.035739
v 0.073693 0.492756 -0.030524
v 0.056055 0.561663 -0.023218
v -0.070710 0.361507 0.070711
v -0.029932 0.618701 0.029933
v -0.066036 0.422471 0.066036
v -0.056401 0.492756 0.056402
v -0.042902 0.561663 0.042902
v 0.041519 0.618701 -0.008259
v 0.091595 0.422471 -0.018219
v 0.078232 0.492756 -0.015561
v 0.059507 0.561663 -0.011837
v -0.035197 0.618701 0.023518
v -0.077650 0.422471 0.051884
v -0.066321 0.492756 0.044314
v -0.050447 0.561663 0.033708
v 0.100000 0.361507 -0.000000
v 0.042332 0.618701 -0.000000
v 0.093390 0.422471 -0.000000
v 0.079764 0.492756 -0.000000
v 0.060673 0.561663 -0.000000
v -0.092388 0.361507 0.038268
v -0.039109 0.618701 0.016200
v -0.086280 0.422471 0.035739
v -0.073692 0.492756 0.030524
v -0.056054 0.561663 0.023218
v 0.098079 0.361507 0.019509
v 0.041519 0.618701 0.008259
v 0.091595 0.422471 0.018219
v 0.078232 0.492756 0.015561
v 0.059507 0.561663 0.011837
v -0.098078 0.361507 0.019509
v -0.041518 0.618701 0.008259
v -0.091595 0.422471 0.018219
v -0.078231 0.492756 0.015561
v -0.059506 0.561663 0.011837
v 0.039110 0.618701 0.016200
v 0.086281 0.422471 0.035739
v 0.073693 0.492756 0.030524
v 0.056055 0.561663 0.023218
v -0.100000 0.361507 -0.000000
v -0.042331 0.618701 -0.000000
v -0.093389 0.422471 -0.000000
v -0.079763 0.492756 -0.000000
v -0.060672 0.561663 -0.000000
v 0.083147 0.361507 0.055557
v 0.035198 0.618701 0.023518
v 0.077651 0.422471 0.051884
v 0.066322 0.492756 0.044314
v 0.050448 0.561663 0.033708
v -0.025659 0.632378 -0.025659
v -0.011087 0.685377 -0.011088
v -0.023419 0.644913 -0.023419
v -0.019863 0.659387 -0.019863
v -0.015532 0.673596 -0.015533
v -0.013037 0.685377 -0.008711
v -0.030172 0.632378 -0.020160
v -0.018264 0.673596 -0.012204
v -0.023356 0.659387 -0.015607
v -0.027538 0.644913 -0.018400
v 0.011088 0.685377 0.011088
v 0.025660 0.632378 0.025659
v 0.015534 0.673596 0.015533
v 0.019864 0.659387 0.019863
v 0.023420 0.644913 0.023419
v -0.015679 0.685377 -0.000000
v -0.036287 0.632378 -0.000000
v -0.021966 0.673596 -0.000000
v -0.028090 0.659387 -0.000000
v -0.033119 0.644913 -0.000000
v 0.015380 0.685377 0.003059
v 0.035591 0.632378 0.007079
v 0.021546 0.673596 0.004286
v 0.027552 0.659387 0.005480
v 0.032484 0.644913 0.006461
v -0.013037 0.685377 0.008711
v -0.030172 0.632378 0.020160
v -0.018264 0.673596 0.012204
v -0.023356 0.659387 0.015607
v -0.027538 0.644913 0.018400
v 0.014487 0.685377 -0.006001
v 0.033526 0.632378 -0.013887
v 0.020296 0.673596 -0.008406
v 0.025953 0.659387 -0.010750
v 0.030599 0.644913 -0.012674
v 0.013038 0.685377 -0.008711
v 0.030173 0.632378 -0.020160
v 0.018266 0.673596 -0.012204
v 0.023358 0.659387 -0.015607
v 0.027539 0.644913 -0.018400
v -0.003058 0.685377 -0.015379
v -0.007079 0.632378 -0.035591
v -0.004285 0.673596 -0.021545
v -0.005480 0.659387 -0.027551
v -0.006461 0.644913 -0.032483
v 0.000001 0.632378 0.036288
v 0.000001 0.685377 0.015680
v 0.000001 0.644913 0.033120
v 0.000001 0.659387 0.028091
v 0.000001 0.673596 0.021967
v 0.020161 0.632378 -0.030172
v 0.008712 0.685377 -0.013038
v 0.018401 0.644913 -0.027538
v 0.015607 0.659387 -0.023357
v 0.012205 0.673596 -0.018265
v 0.003060 0.685377 -0.015379
v 0.007080 0.632378 -0.035591
v 0.004286 0.673596 -0.021545
v 0.005481 0.659387 -0.027551
v 0.006462 0.644913 -0.032483
v 0.008712 0.685377 0.013038
v 0.020161 0.632378 0.030172
v 0.012205 0.673596 0.018265
v 0.015607 0.659387 0.023357
v 0.018401 0.644913 0.027538
v -0.015378 0.685377 -0.003059
v -0.035590 0.632378 -0.007079
v -0.021544 0.673596 -0.004286
v -0.027551 0.659387 -0.005480
v -0.032483 0.644913 -0.006461
v 0.014487 0.685377 0.006001
v 0.033526 0.632378 0.013887
v 0.020296 0.673596 0.008406
v 0.025953 0.659387 0.010750
v 0.030599 0.644913 0.012674
v -0.014486 0.685377 0.006001
v -0.033525 0.632378 0.013887
v -0.020294 0.673596 0.008406
v -0.025952 0.659387 0.010750
v -0.030598 0.644913 0.012674
v 0.015380 0.685377 -0.003059
v 0.035591 0.632378 -0.007079
v 0.021546 0.673596 -0.004286
v 0.027552 0.659387 -0.005480
v 0.032484 0.644913 -0.006461
v -0.008711 0.685377 0.013038
v -0.020160 0.632378 0.030172
v -0.012204 0.673596 0.018265
v -0.015606 0.659387 0.023357
v -0.018400 0.644913 0.027538
v -0.013886 0.632378 0.033526
v -0.006000 0.685377 0.014487
v -0.012674 0.644913 0.030599
v -0.010749 0.659387 0.025953
v -0.008406 0.673596 0.020295
v 0.025660 0.632378 -0.025659
v 0.011088 0.685377 -0.011088
v 0.023420 0.644913 -0.023419
v 0.019864 0.659387 -0.019863
v 0.015534 0.673596 -0.015533
v -0.013886 0.632378 -0.033526
v -0.006000 0.685377 -0.014487
v -0.012674 0.644913 -0.030599
v -0.010749 0.659387 -0.025953
v -0.008406 0.673596 -0.020295
v 0.006001 0.685377 -0.014487
v 0.013887 0.632378 -0.033526
v 0.008407 0.673596 -0.020295
v 0.010751 0.659387 -0.025953
v 0.012675 0.644913 -0.030599
v -0.008711 0.685377 -0.013038
v -0.020160 0.632378 -0.030172
v -0.012204 0.673596 -0.018265
v -0.015606 0.659387 -0.023357
v -0.018400 0.644913 -0.027538
v -0.003058 0.685377 0.015379
v -0.007079 0.632378 0.035591
v -0.004285 0.673596 0.021545
v -0.005480 0.659387 0.027551
v -0.006461 0.644913 0.032483
v 0.000001 0.632378 -0.036288
v 0.000001 0.685377 -0.015680
v 0.000001 0.644913 -0.033120
v 0.000001 0.659387 -0.028091
v 0.000001 0.673596 -0.021967
v -0.011087 0.685377 0.011088
v -0.025659 0.632378 0.025659
v -0.015532 0.673596 0.015533
v -0.019863 0.659387 0.019863
v -0.023419 0.644913 0.023419
v 0.015681 0.685377 -0.000000
v 0.036289 0.632378 -0.000000
v 0.021968 0.673596 -0.000000
v 0.028092 0.659387 -0.000000
v 0.033121 0.644913 -0.000000
v -0.015378 0.685377 0.003059
v -0.035590 0.632378 0.007079
v -0.021544 0.673596 0.004286
v -0.027551 0.659387 0.005480
v -0.032483 0.644913 0.006461
v 0.013038 0.685377 0.008711
v 0.030173 0.632378 0.020160
v 0.018266 0.673596 0.012204
v 0.023358 0.659387 0.015607
v 0.027539 0.644913 0.018400
v -0.014486 0.685377 -0.006001
v -0.033525 0.632378 -0.013887
v -0.020294 0.673596 -0.008406
v -0.025952 0.659387 -0.010750
v -0.030598 0.644913 -0.012674
v 0.013887 0.632378 0.033526
v 0.006001 0.685377 0.014487
v 0.012675 0.644913 0.030599
v 0.010751 0.659387 0.025953
v 0.008407 0.673596 0.020295
v 0.003060 0.685377 0.015379
v 0.007080 0.632378 0.035591
v 0.004286 0.673596 0.021545
v 0.005481 0.659387 0.027551
v 0.006462 0.644913 0.032483
v 0.018989 0.197974 -0.095464
v 0.000000 0.197974 -0.097334
v 0.037249 0.197974 -0.089925
v 0.054076 0.197974 -0.080930
v 0.068826 0.197974 -0.068826
v 0.080931 0.197974 -0.054076
v 0.089925 0.197974 -0.037248
v 0.095464 0.197974 -0.018989
v 0.097335 0.197974 -0.000000
v 0.095464 0.197974 0.018989
v 0.089925 0.197974 0.037248
v 0.080931 0.197974 0.054076
v 0.068826 0.197974 0.068826
v 0.054076 0.197974 0.080930
v 0.037249 0.197974 0.089925
v 0.018989 0.197974 0.095464
v 0.000000 0.197974 0.097334
v -0.018989 0.197974 0.095464
v -0.037248 0.197974 0.089925
v -0.054076 0.197974 0.080930
v -0.068825 0.197974 0.068826
v -0.080930 0.197974 0.054076
v -0.089925 0.197974 0.037248
v -0.095464 0.197974 0.018989
v -0.097334 0.197974 -0.000000
v -0.095464 0.197974 -0.018989
v -0.089925 0.197974 -0.037248
v -0.080930 0.197974 -0.054076
v -0.068825 0.197974 -0.068826
v -0.054076 0.197974 -0.080930
v -0.037248 0.197974 -0.089925
v -0.018989 0.197974 -0.095464
v 0.018989 0.242026 -0.095464
v 0.000000 0.242026 -0.097334
v 0.037249 0.242026 -0.089925
v 0.054076 0.242026 -0.080930
v 0.068826 0.242026 -0.068826
v 0.080931 0.242026 -0.054076
v 0.089925 0.242026 -0.037248
v 0.095464 0.242026 -0.018989
v 0.097335 0.242026 -0.000000
v 0.095464 0.242026 0.018989
v 0.089925 0.242026 0.037248
v 0.080931 0.242026 0.054076
v 0.068826 0.242026 0.068826
v 0.054076 0.242026 0.080930
v 0.037249 0.242026 0.089925
v 0.018989 0.242026 0.095464
v 0.000000 0.242026 0.097334
v -0.018989 0.242026 0.095464
v -0.037248 0.242026 0.089925
v -0.054076 0.242026 0.080930
v -0.068825 0.242026 0.068826
v -0.080930 0.242026 0.054076
v -0.089925 0.242026 0.037248
v -0.095464 0.242026 0.018989
v -0.097334 0.242026 -0.000000
v -0.095464 0.242026 -0.018989
v -0.089925 0.242026 -0.037248
v -0.080930 0.242026 -0.054076
v -0.068825 0.242026 -0.068826
v -0.054076 0.242026 -0.080930
v -0.037248 0.242026 -0.089925
v -0.018989 0.242026 -0.095464
v 0.000000 -0.000000 0.000000
v 0.000000 0.693508 0.000000
vn -0.0000 -0.0000 -1.0000
vn 0.1951 -0.0000 -0.9808
vn 0.3827 -0.0000 -0.9239
vn 0.5556 -0.0000 -0.8315
vn 0.7071 -0.0000 -0.7071
vn 0.8315 -0.0000 -0.5556
vn 0.9239 -0.0000 -0.3827
vn 0.9808 -0.0000 -0.1951
vn 1.0000 -0.0000 -0.0000
vn 0.9808 -0.0000 0.1951
vn 0.9239 -0.0000 0.3827
vn 0.8315 -0.0000 0.5556
vn 0.7071 -0.0000 0.7071
vn 0.5556 -0.0000 0.8315
vn 0.3827 -0.0000 0.9239
vn 0.1951 -0.0000 0.9808
vn -0.0000 -0.0000 1.0000
vn -0.1951 -0.0000 0.9808
vn -0.3827 -0.0000 0.9239
vn -0.5556 -0.0000 0.8315
vn -0.7071 -0.0000 0.7071
vn -0.8315 -0.0000 0.5556
vn -0.9239 -0.0000 0.3827
vn -0.9808 -0.0000 0.1951
vn -1.0000 -0.0000 -0.0000
vn -0.9808 -0.0000 -0.1951
vn -0.9239 -0.0000 -0.3827
vn -0.8315 -0.0000 -0.5556
vn -0.7071 -0.0000 -0.7071
vn -0.5556 -0.0000 -0.8315
vn -0.3827 -0.0000 -0.9239
vn -0.0000 1.0000 -0.0000
vn -0.1951 -0.0000 -0.9808
vn -0.0000 -1.0000 -0.0000
vn 0.9225 0.0538 0.3821
vn 0.8303 0.0538 0.5548
vn -0.9986 0.0538 -0.0000
vn -0.9794 0.0538 -0.1948
vn 0.7061 0.0538 0.7061
vn -0.9225 0.0538 -0.3821
vn 0.5548 0.0538 0.8303
vn -0.8303 0.0538 -0.5548
vn 0.3821 0.0538 0.9225
vn -0.0000 0.0538 -0.9986
vn 0.1948 0.0538 -0.9794
vn -0.7061 0.0538 -0.7061
vn 0.1948 0.0538 0.9794
vn 0.3821 0.0538 -0.9225
vn -0.5548 0.0538 -0.8303
vn -0.0000 0.0538 0.9986
vn 0.5548 0.0538 -0.8303
vn -0.3821 0.0538 -0.9225
vn -0.1948 0.0538 0.9794
vn 0.7061 0.0538 -0.7061
vn -0.1948 0.0538 -0.9794
vn -0.3821 0.0538 0.9225
vn 0.8303 0.0538 -0.5548
vn -0.5548 0.0538 0.8303
vn 0.9225 0.0538 -0.3821
vn -0.7061 0.0538 0.7061
vn 0.9794 0.0538 -0.1948
vn -0.8303 0.0538 0.5548
vn 0.9986 0.0538 -0.0000
vn -0.9225 0.0538 0.3821
vn 0.9794 0.0538 0.1948
vn -0.9794 0.0538 0.1948
vn 0.7738 0.3659 0.5171
vn 0.6581 0.3659 0.6581
vn 0.6775 0.2863 0.6775
vn 0.7967 0.2863 0.5323
vn 0.6884 0.2283 0.6884
vn 0.8095 0.2283 0.5409
vn 0.6992 0.1488 0.6992
vn 0.8222 0.1488 0.5494
vn -0.9307 0.3659 -0.0000
vn -0.9128 0.3659 -0.1816
vn -0.9397 0.2863 -0.1869
vn -0.9581 0.2863 -0.0000
vn -0.9549 0.2283 -0.1899
vn -0.9736 0.2283 -0.0000
vn -0.9699 0.1488 -0.1929
vn -0.9889 0.1488 -0.0000
vn 0.8598 0.3659 0.3562
vn 0.8852 0.2863 0.3667
vn 0.8995 0.2283 0.3726
vn 0.9136 0.1488 0.3784
vn -0.9128 0.3659 0.1816
vn -0.9397 0.2863 0.1869
vn -0.9549 0.2283 0.1899
vn -0.9699 0.1488 0.1929
vn 0.9128 0.3659 0.1816
vn 0.9397 0.2863 0.1869
vn 0.9549 0.2283 0.1899
vn 0.9699 0.1488 0.1929
vn -0.8598 0.3659 0.3562
vn -0.8852 0.2863 0.3667
vn -0.8995 0.2283 0.3726
vn -0.9136 0.1488 0.3784
vn 0.9307 0.3659 -0.0000
vn 0.9581 0.2863 -0.0000
vn 0.9736 0.2283 -0.0000
vn 0.9889 0.1488 -0.0000
vn -0.7738 0.3659 0.5171
vn -0.7967 0.2863 0.5323
vn -0.8095 0.2283 0.5409
vn -0.8222 0.1488 0.5494
vn 0.9128 0.3659 -0.1816
vn 0.9397 0.2863 -0.1869
vn 0.9549 0.2283 -0.1899
vn 0.9699 0.1488 -0.1929
vn -0.6581 0.3659 0.6581
vn -0.6775 0.2863 0.6775
vn -0.6884 0.2283 0.6884
vn -0.6992 0.1488 0.6992
vn 0.8598 0.3659 -0.3562
vn 0.8852 0.2863 -0.3667
vn 0.8995 0.2283 -0.3726
vn 0.9136 0.1488 -0.3784
vn -0.5171 0.3659 0.7738
vn -0.5323 0.2863 0.7967
vn -0.5409 0.2283 0.8095
vn -0.5494 0.1488 0.8222
vn 0.7738 0.3659 -0.5171
vn 0.7967 0.2863 -0.5323
vn 0.8095 0.2283 -0.5409
vn 0.8222 0.1488 -0.5494
vn -0.3562 0.3659 0.8598
vn -0.3667 0.2863 0.8852
vn -0.3726 0.2283 0.8995
vn -0.3784 0.1488 0.9136
vn -0.1816 0.3659 -0.9128
vn -0.0000 0.3659 -0.9307
vn -0.0000 0.2863 -0.9581
vn -0.1869 0.2863 -0.9397
vn -0.0000 0.2283 -0.9736
vn -0.1899 0.2283 -0.9549
vn -0.0000 0.1488 -0.9889
vn -0.1929 0.1488 -0.9699
vn 0.6581 0.3659 -0.6581
vn 0.6775 0.2863 -0.6775
vn 0.6884 0.2283 -0.6884
vn 0.6992 0.1488 -0.6992
vn -0.1816 0.3659 0.9128
vn -0.1869 0.2863 0.9397
vn -0.1899 0.2283 0.9549
vn -0.1929 0.1488 0.9699
vn -0.3562 0.3659 -0.8598
vn -0.3667 0.2863 -0.8852
vn -0.3726 0.2283 -0.8995
vn -0.3784 0.1488 -0.9136
vn 0.5171 0.3659 -0.7738
vn 0.5323 0.2863 -0.7967
vn 0.5409 0.2283 -0.8095
vn 0.5494 0.1488 -0.8222
vn -0.0000 0.3659 0.9307
vn -0.0000 0.2863 0.9581
vn -0.0000 0.2283 0.9736
vn -0.0000 0.1488 0.9889
vn -0.5171 0.3659 -0.7738
vn -0.5323 0.2863 -0.7967
vn -0.5409 0.2283 -0.8095
vn -0.5494 0.1488 -0.8222
vn 0.3562 0.3659 -0.8598
vn 0.3667 0.2863 -0.8852
vn 0.3726 0.2283 -0.8995
vn 0.3784 0.1488 -0.9136
vn 0.1816 0.3659 0.9128
vn 0.1869 0.2863 0.9397
vn 0.1899 0.2283 0.9549
vn 0.1929 0.1488 0.9699
vn -0.6581 0.3659 -0.6581
vn -0.6775 0.2863 -0.6775
vn -0.6884 0.2283 -0.6884
vn -0.6992 0.1488 -0.6992
vn 0.1816 0.3659 -0.9128
vn 0.1869 0.2863 -0.9397
vn 0.1899 0.2283 -0.9549
vn 0.1929 0.1488 -0.9699
vn 0.3562 0.3659 0.8598
vn 0.3667 0.2863 0.8852
vn 0.3726 0.2283 0.8995
vn 0.3784 0.1488 0.9136
vn -0.7738 0.3659 -0.5171
vn -0.7967 0.2863 -0.5323
vn -0.8095 0.2283 -0.5409
vn -0.8222 0.1488 -0.5494
vn 0.5171 0.3659 0.7738
vn 0.5323 0.2863 0.7967
vn 0.5409 0.2283 0.8095
vn 0.5494 0.1488 0.8222
vn -0.8598 0.3659 -0.3562
vn -0.8852 0.2863 -0.3667
vn -0.8995 0.2283 -0.3726
vn -0.9136 0.1488 -0.3784
vn -0.9043 0.4268 -0.0000
vn -0.8870 0.4268 -0.1764
vn -0.8355 0.4268 -0.3461
vn -0.7519 0.4268 -0.5024
vn 0.7519 0.4268 0.5024
vn 0.6395 0.4268 0.6395
vn 0.5024 0.4268 0.7519
vn 0.3461 0.4268 0.8355
vn -0.6395 0.4268 -0.6395
vn 0.1764 0.4268 0.8870
vn -0.1764 0.4268 -0.8870
vn -0.0000 0.4268 -0.9043
vn 0.1764 0.4268 -0.8870
vn 0.3461 0.4268 -0.8355
vn -0.5024 0.4268 -0.7519
vn -0.0000 0.4268 0.9043
vn 0.5024 0.4268 -0.7519
vn -0.3461 0.4268 -0.8355
vn -0.1764 0.4268 0.8870
vn 0.6395 0.4268 -0.6395
vn -0.3461 0.4268 0.8355
vn 0.7519 0.4268 -0.5024
vn -0.5024 0.4268 0.7519
vn 0.8355 0.4268 -0.3461
vn -0.6395 0.4268 0.6395
vn 0.8870 0.4268 -0.1764
vn -0.7519 0.4268 0.5024
vn 0.9043 0.4268 -0.0000
vn -0.8355 0.4268 0.3461
vn 0.8870 0.4268 0.1764
vn -0.8870 0.4268 0.1764
vn 0.8355 0.4268 0.3461
vn -0.0000 0.6234 0.7819
vn -0.1525 0.6234 0.7669
vn -0.1759 0.4327 0.8842
vn -0.0000 0.4327 0.9016
vn -0.1819 0.3615 0.9145
vn -0.0000 0.3615 0.9324
vn -0.1869 0.2861 0.9398
vn -0.0000 0.2861 0.9582
vn -0.1891 0.2450 0.9509
vn -0.0000 0.2450 0.9695
vn -0.2992 0.6234 -0.7224
vn -0.1525 0.6234 -0.7669
vn -0.1759 0.4327 -0.8842
vn -0.3450 0.4327 -0.8329
vn -0.1819 0.3615 -0.9145
vn -0.3568 0.3615 -0.8614
vn -0.1869 0.2861 -0.9398
vn -0.3667 0.2861 -0.8852
vn -0.1891 0.2450 -0.9509
vn -0.3710 0.2450 -0.8957
vn 0.5529 0.6234 -0.5529
vn 0.6501 0.6234 -0.4344
vn 0.7496 0.4327 -0.5009
vn 0.6375 0.4327 -0.6375
vn 0.7752 0.3615 -0.5180
vn 0.6593 0.3615 -0.6593
vn 0.7967 0.2861 -0.5323
vn 0.6775 0.2861 -0.6775
vn 0.8061 0.2450 -0.5386
vn 0.6856 0.2450 -0.6856
vn -0.2992 0.6234 0.7224
vn -0.4344 0.6234 0.6502
vn -0.5009 0.4327 0.7496
vn -0.3450 0.4327 0.8329
vn -0.5180 0.3615 0.7752
vn -0.3568 0.3615 0.8614
vn -0.5323 0.2861 0.7967
vn -0.3667 0.2861 0.8852
vn -0.5386 0.2450 0.8061
vn -0.3710 0.2450 0.8957
vn -0.5529 0.6234 0.5529
vn -0.6375 0.4327 0.6375
vn -0.6593 0.3615 0.6593
vn -0.6775 0.2861 0.6775
vn -0.6856 0.2450 0.6856
vn -0.6502 0.6234 0.4344
vn -0.7496 0.4327 0.5009
vn -0.7752 0.3615 0.5180
vn -0.7967 0.2861 0.5323
vn -0.8061 0.2450 0.5386
vn -0.7224 0.6234 0.2992
vn -0.8329 0.4327 0.3450
vn -0.8614 0.3615 0.3568
vn -0.8852 0.2861 0.3667
vn -0.8957 0.2450 0.3710
vn -0.7669 0.6234 0.1525
vn -0.8842 0.4327 0.1759
vn -0.9145 0.3615 0.1819
vn -0.9398 0.2861 0.1869
vn -0.9509 0.2450 0.1891
vn -0.7819 0.6234 -0.0000
vn -0.9016 0.4327 -0.0000
vn -0.9324 0.3615 -0.0000
vn -0.9582 0.2861 -0.0000
vn -0.9695 0.2450 -0.0000
vn -0.7669 0.6234 -0.1525
vn -0.8842 0.4327 -0.1759
vn -0.9145 0.3615 -0.1819
vn -0.9398 0.2861 -0.1869
vn -0.9509 0.2450 -0.1891
vn -0.7224 0.6234 -0.2992
vn -0.8329 0.4327 -0.3450
vn -0.8614 0.3615 -0.3568
vn -0.8852 0.2861 -0.3667
vn -0.8957 0.2450 -0.3710
vn -0.6502 0.6234 -0.4344
vn -0.7496 0.4327 -0.5009
vn -0.7752 0.3615 -0.5180
vn -0.7967 0.2861 -0.5323
vn -0.8061 0.2450 -0.5386
vn -0.0000 0.6234 -0.7819
vn 0.1526 0.6234 -0.7669
vn 0.1759 0.4327 -0.8842
vn -0.0000 0.4327 -0.9016
vn 0.1819 0.3615 -0.9145
vn -0.0000 0.3615 -0.9324
vn 0.1869 0.2861 -0.9398
vn -0.0000 0.2861 -0.9582
vn 0.1891 0.2450 -0.9509
vn -0.0000 0.2450 -0.9695
vn 0.2992 0.6234 0.7224
vn 0.1526 0.6234 0.7669
vn 0.1759 0.4327 0.8842
vn 0.3450 0.4327 0.8329
vn 0.1819 0.3615 0.9145
vn 0.3568 0.3615 0.8614
vn 0.1869 0.2861 0.9398
vn 0.3667 0.2861 0.8852
vn 0.1891 0.2450 0.9509
vn 0.3710 0.2450 0.8957
vn -0.5529 0.6234 -0.5529
vn -0.4344 0.6234 -0.6502
vn -0.5009 0.4327 -0.7496
vn -0.6375 0.4327 -0.6375
vn -0.5180 0.3615 -0.7752
vn -0.6593 0.3615 -0.6593
vn -0.5323 0.2861 -0.7967
vn -0.6775 0.2861 -0.6775
vn -0.5386 0.2450 -0.8061
vn -0.6855 0.2450 -0.6856
vn 0.4344 0.6234 -0.6501
vn 0.5009 0.4327 -0.7496
vn 0.5180 0.3615 -0.7752
vn 0.5323 0.2861 -0.7967
vn 0.5386 0.2450 -0.8061
vn 0.7224 0.6234 -0.2992
vn 0.8329 0.4327 -0.3450
vn 0.8614 0.3615 -0.3568
vn 0.8852 0.2861 -0.3667
vn 0.8957 0.2450 -0.3710
vn 0.7669 0.6234 -0.1525
vn 0.8842 0.4327 -0.1759
vn 0.9145 0.3615 -0.1819
vn 0.9398 0.2861 -0.1869
vn 0.9509 0.2450 -0.1891
vn 0.7819 0.6234 -0.0000
vn 0.9016 0.4327 -0.0000
vn 0.9324 0.3615 -0.0000
vn 0.9582 0.2861 -0.0000
vn 0.9695 0.2450 -0.0000
vn 0.7669 0.6234 0.1525
vn 0.8842 0.4327 0.1759
vn 0.9145 0.3615 0.1819
vn 0.9398 0.2861 0.1869
vn 0.9509 0.2450 0.1891
vn 0.7224 0.6234 0.2992
vn 0.8329 0.4327 0.3450
vn 0.8614 0.3615 0.3568
vn 0.8852 0.2861 0.3667
vn 0.8957 0.2450 0.3710
vn 0.6501 0.6234 0.4344
vn 0.7496 0.4327 0.5009
vn 0.7752 0.3615 0.5180
vn 0.7967 0.2861 0.5323
vn 0.8061 0.2450 0.5386
vn 0.5529 0.6234 0.5529
vn 0.6375 0.4327 0.6375
vn 0.6593 0.3615 0.6593
vn 0.6775 0.2861 0.6775
vn 0.6855 0.2450 0.6856
vn 0.4344 0.6234 0.6501
vn 0.5009 0.4327 0.7496
vn 0.5180 0.3615 0.7752
vn 0.5323 0.2861 0.7967
vn 0.5386 0.2450 0.8061
vn 0.2992 0.6234 -0.7224
vn 0.3450 0.4327 -0.8329
vn 0.3568 0.3615 -0.8614
vn 0.3667 0.2861 -0.8852
vn 0.3710 0.2450 -0.8957
vn -0.4557 0.7647 -0.4557
vn -0.3580 0.7647 -0.5358
vn -0.5358 0.7647 -0.3580
vn -0.5954 0.7647 -0.2466
vn 0.4557 0.7647 0.4557
vn 0.3580 0.7647 0.5358
vn 0.5358 0.7647 0.3580
vn -0.6444 0.7647 -0.0000
vn -0.6320 0.7647 -0.1257
vn -0.6320 0.7647 0.1257
vn 0.6320 0.7647 0.1257
vn 0.5953 0.7647 0.2466
vn 0.6444 0.7647 -0.0000
vn -0.5358 0.7647 0.3580
vn -0.5954 0.7647 0.2466
vn -0.4557 0.7647 0.4557
vn 0.5953 0.7647 -0.2466
vn 0.6320 0.7647 -0.1257
vn 0.5358 0.7647 -0.3580
vn 0.4557 0.7647 -0.4557
vn -0.1257 0.7647 -0.6320
vn -0.0000 0.7647 -0.6444
vn -0.2466 0.7647 -0.5954
vn -0.0000 0.7647 0.6444
vn -0.1257 0.7647 0.6320
vn 0.1257 0.7647 0.6320
vn 0.3580 0.7647 -0.5358
vn 0.2466 0.7647 -0.5954
vn 0.1257 0.7647 -0.6320
vn 0.2466 0.7647 0.5954
vn -0.3580 0.7647 0.5358
vn -0.2466 0.7647 0.5954
vn 0.0524 0.9905 -0.1268
vn 0.0267 0.9905 -0.1346
vn 0.1141 0.9905 0.0762
vn 0.1268 0.9905 0.0525
vn -0.0525 0.9905 -0.1268
vn -0.0762 0.9905 -0.1141
vn 0.0525 0.9905 0.1268
vn 0.0762 0.9905 0.1141
vn -0.1141 0.9905 -0.0762
vn -0.1268 0.9905 -0.0525
vn -0.0268 0.9905 0.1346
vn -0.0000 0.9905 0.1372
vn -0.1372 0.9905 -0.0000
vn -0.1346 0.9905 0.0268
vn -0.0268 0.9905 -0.1346
vn -0.0970 0.9905 0.0970
vn -0.0762 0.9905 0.1141
vn -0.1141 0.9905 0.0762
vn -0.0971 0.9905 -0.0970
vn -0.1268 0.9905 0.0525
vn -0.0525 0.9905 0.1268
vn -0.1346 0.9905 -0.0268
vn 0.0268 0.9905 0.1346
vn 0.0970 0.9905 0.0970
vn -0.0000 0.9905 -0.1372
vn 0.1346 0.9905 0.0268
vn 0.1372 0.9905 -0.0000
vn 0.1268 0.9905 -0.0525
vn 0.1141 0.9905 -0.0762
vn 0.0762 0.9905 -0.1141
vn 0.1346 0.9905 -0.0268
vn 0.0970 0.9905 -0.0970
vt 1.000000 0.500000
vt 1.000000 1.000000
vt 0.968750 1.000000
vt 0.968750 0.500000
vt 0.937500 1.000000
vt 0.937500 0.500000
vt 0.906250 1.000000
vt 0.906250 0.500000
vt 0.875000 1.000000
vt 0.875000 0.500000
vt 0.843750 1.000000
vt 0.843750 0.500000
vt 0.812500 1.000000
vt 0.812500 0.500000
vt 0.781250 1.000000
vt 0.781250 0.500000
vt 0.750000 1.000000
vt 0.750000 0.500000
vt 0.718750 1.000000
vt 0.718750 0.500000
vt 0.687500 1.000000
vt 0.687500 0.500000
vt 0.656250 1.000000
vt 0.656250 0.500000
vt 0.625000 1.000000
vt 0.625000 0.500000
vt 0.593750 1.000000
vt 0.593750 0.500000
vt 0.562500 1.000000
vt 0.562500 0.500000
vt 0.531250 1.000000
vt 0.531250 0.500000
vt 0.500000 1.000000
vt 0.500000 0.500000
vt 0.468750 1.000000
vt 0.468750 0.500000
vt 0.437500 1.000000
vt 0.437500 0.500000
vt 0.406250 1.000000
vt 0.406250 0.500000
vt 0.375000 1.000000
vt 0.375000 0.500000
vt 0.343750 1.000000
vt 0.343750 0.500000
vt 0.312500 1.000000
vt 0.312500 0.500000
vt 0.281250 1.000000
vt 0.281250 0.500000
vt 0.250000 1.000000
vt 0.250000 0.500000
vt 0.218750 1.000000
vt 0.218750 0.500000
vt 0.187500 1.000000
vt 0.187500 0.500000
vt 0.156250 1.000000
vt 0.156250 0.500000
vt 0.125000 1.000000
vt 0.125000 0.500000
vt 0.093750 1.000000
vt 0.093750 0.500000
vt 0.062500 1.000000
vt 0.062500 0.500000
vt 0.031250 1.000000
vt 0.031250 0.500000
vt 0.000000 1.000000
vt 0.000000 0.500000
vt 0.625000 1.000000
vt 0.625000 1.000000
vt 0.656250 1.000000
vt 0.625000 1.000000
vt 0.218750 1.000000
vt 0.218750 1.000000
vt 0.250000 1.000000
vt 0.250000 1.000000
vt 0.218750 1.000000
vt 0.250000 1.000000
vt 0.687500 1.000000
vt 0.687500 1.000000
vt 0.687500 1.000000
vt 0.281250 1.000000
vt 0.281250 1.000000
vt 0.281250 1.000000
vt 0.718750 1.000000
vt 0.718750 1.000000
vt 0.718750 1.000000
vt 0.312500 1.000000
vt 0.312500 1.000000
vt 0.312500 1.000000
vt 0.750000 1.000000
vt 0.750000 1.000000
vt 0.750000 1.000000
vt 0.343750 1.000000
vt 0.343750 1.000000
vt 0.343750 1.000000
vt 0.781250 1.000000
vt 0.781250 1.000000
vt 0.375000 1.000000
vt 0.375000 1.000000
vt 0.812500 1.000000
vt 0.812500 1.000000
vt 0.406250 1.000000
vt 0.406250 1.000000
vt 0.406250 1.000000
vt 0.843750 1.000000
vt 0.843750 1.000000
vt 0.843750 1.000000
vt 0.437500 1.000000
vt 0.437500 1.000000
vt 0.437500 1.000000
vt 0.000908 1.000000
vt 0.031250 1.000000
vt 0.002639 1.000000
vt 0.031250 1.000000
vt 0.000686 1.000000
vt 0.031250 1.000000
vt 0.875000 1.000000
vt 0.875000 1.000000
vt 0.875000 1.000000
vt 0.468750 1.000000
vt 0.468750 1.000000
vt 0.468750 1.000000
vt 0.062500 1.000000
vt 0.062500 1.000000
vt 0.062500 1.000000
vt 0.906250 1.000000
vt 0.500000 1.000000
vt 0.500000 1.000000
vt 0.093750 1.000000
vt 0.093750 1.000000
vt 0.093750 1.000000
vt 0.093750 1.000000
vt 0.093750 1.000000
vt 0.937500 1.000000
vt 0.937500 1.000000
vt 0.937500 1.000000
vt 0.531250 1.000000
vt 0.531250 1.000000
vt 0.125000 1.000000
vt 0.125000 1.000000
vt 0.125000 1.000000
vt 0.968750 1.000000
vt 0.968750 1.000000
vt 0.968750 1.000000
vt 0.562500 1.000000
vt 0.562500 1.000000
vt 0.562500 1.000000
vt 0.562500 1.000000
vt 0.156250 1.000000
vt 0.156250 1.000000
vt 0.156250 1.000000
vt 0.999092 1.000000
vt 0.997361 1.000000
vt 0.999314 1.000000
vt 1.000000 1.000000
vt 0.593750 1.000000
vt 0.187500 1.000000
vt 0.187500 1.000000
vt 0.468750 1.000000
vt 0.468750 1.000000
vt 0.468750 1.000000
vt 0.468750 1.000000
vt 0.468750 1.000000
vt 0.062500 1.000000
vt 0.031250 1.000000
vt 0.062500 1.000000
vt 0.031250 1.000000
vt 0.062500 1.000000
vt 0.031250 1.000000
vt 0.062500 1.000000
vt 0.875000 1.000000
vt 0.843750 1.000000
vt 0.843750 1.000000
vt 0.437500 1.000000
vt 0.406250 1.000000
vt 0.437500 1.000000
vt 0.437500 1.000000
vt 0.437500 1.000000
vt 0.406250 1.000000
vt 0.375000 1.000000
vt 0.343750 1.000000
vt 0.343750 1.000000
vt 0.312500 1.000000
vt 0.281250 1.000000
vt 0.281250 1.000000
vt 0.250000 1.000000
vt 0.218750 1.000000
vt 0.218750 1.000000
vt 0.156250 1.000000
vt 0.968750 1.000000
vt 0.999503 1.000000
vt 0.968750 1.000000
vt 0.998501 1.000000
vt 0.999635 1.000000
vt 0.968750 1.000000
vt 0.562500 1.000000
vt 0.531250 1.000000
vt 0.562500 1.000000
vt 0.093750 1.000000
vt 0.125000 1.000000
vt 0.093750 1.000000
vt 0.125000 1.000000
vt 0.906250 1.000000
vt 0.906250 1.000000
vt 0.000497 1.000000
vt 0.001498 1.000000
vt 0.000365 1.000000
vt 0.812500 1.000000
vt 0.781250 1.000000
vt 0.781250 1.000000
vt 0.781250 1.000000
vt 0.781250 1.000000
vt 0.750000 1.000000
vt 0.718750 1.000000
vt 0.687500 1.000000
vt 0.656250 1.000000
vt 0.656250 1.000000
vt 0.656250 1.000000
vt 0.625000 1.000000
vt 0.593750 1.000000
vt 0.937500 1.000000
s 1
f 1/1/1 2/2/1 4/3/2 3/4/2
f 3/4/2 4/3/2 6/5/3 5/6/3
f 5/6/3 6/5/3 8/7/4 7/8/4
f 7/8/4 8/7/4 10/9/5 9/10/5
f 9/10/5 10/9/5 12/11/6 11/12/6
f 11/12/6 12/11/6 14/13/7 13/14/7
f 13/14/7 14/13/7 16/15/8 15/16/8
f 15/16/8 16/15/8 18/17/9 17/18/9
f 17/18/9 18/17/9 20/19/10 19/20/10
f 19/20/10 20/19/10 22/21/11 21/22/11
f 21/22/11 22/21/11 24/23/12 23/24/12
f 23/24/12 24/23/12 26/25/13 25/26/13
f 25/26/13 26/25/13 28/27/14 27/28/14
f 27/28/14 28/27/14 30/29/15 29/30/15
f 29/30/15 30/29/15 32/31/16 31/32/16
f 31/32/16 32/31/16 34/33/17 33/34/17
f 33/34/17 34/33/17 36/35/18 35/36/18
f 35/36/18 36/35/18 38/37/19 37/38/19
f 37/38/19 38/37/19 40/39/20 39/40/20
f 39/40/20 40/39/20 42/41/21 41/42/21
f 41/42/21 42/41/21 44/43/22 43/44/22
f 43/44/22 44/43/22 46/45/23 45/46/23
f 45/46/23 46/45/23 48/47/24 47/48/24
f 47/48/24 48/47/24 50/49/25 49/50/25
f 49/50/25 50/49/25 52/51/26 51/52/26
f 51/52/26 52/51/26 54/53/27 53/54/27
f 53/54/27 54/53/27 56/55/28 55/56/28
f 55/56/28 56/55/28 58/57/29 57/58/29
f 57/58/29 58/57/29 60/59/30 59/60/30
f 59/60/30 60/59/30 62/61/31 61/62/31
f 20/19/32 18/17/32 489/17/32 490/19/32
f 61/62/31 62/61/31 64/63/33 63/64/33
f 63/64/33 64/63/33 2/65/1 1/66/1
f 11/12/34 13/14/34 545/12/34
f 76/23/12 75/21/11 101/21/35 316/23/36
f 73/17/34 74/19/34 522/19/34 521/17/34
f 54/53/32 52/51/32 506/51/32 507/53/32
f 72/15/34 73/17/34 521/17/34 520/15/34
f 36/35/32 34/33/32 497/33/32 498/35/32
f 71/13/34 72/15/34 520/15/34 519/13/34
f 18/17/32 16/15/32 488/15/32 489/17/32
f 70/11/34 71/13/34 519/13/34 518/11/34
f 96/63/34 65/65/34 514/65/34 544/63/34
f 52/51/32 50/49/32 505/49/32 506/51/32
f 69/9/34 70/11/34 518/11/34 517/9/34
f 95/61/34 96/63/34 544/63/34 543/61/34
f 34/33/32 32/31/32 496/31/32 497/33/32
f 68/7/34 69/9/34 517/9/34 516/7/34
f 94/59/34 95/61/34 543/61/34 542/59/34
f 16/15/32 14/13/32 487/13/32 488/15/32
f 67/5/34 68/7/34 516/7/34 515/5/34
f 93/57/34 94/59/34 542/59/34 541/57/34
f 50/49/32 48/47/32 504/47/32 505/49/32
f 66/3/34 67/5/34 515/5/34 513/3/34
f 92/55/34 93/57/34 541/57/34 540/55/34
f 32/31/32 30/29/32 495/29/32 496/31/32
f 65/2/34 66/3/34 513/3/34 514/2/34
f 91/53/34 92/55/34 540/55/34 539/53/34
f 14/13/32 12/11/32 486/11/32 487/13/32
f 2/65/32 64/63/32 512/63/32 482/65/32
f 90/51/34 91/53/34 539/53/34 538/51/34
f 48/47/32 46/45/32 503/45/32 504/47/32
f 89/49/34 90/51/34 538/51/34 537/49/34
f 30/29/32 28/27/32 494/27/32 495/29/32
f 88/47/34 89/49/34 537/49/34 536/47/34
f 12/11/32 10/9/32 485/9/32 486/11/32
f 90/51/26 89/49/25 311/49/37 170/51/38
f 77/25/13 76/23/12 316/23/36 180/25/39
f 91/53/27 90/51/26 170/51/38 174/53/40
f 78/27/14 77/25/13 180/25/39 184/27/41
f 92/55/28 91/53/27 174/53/40 189/55/42
f 79/29/15 78/27/14 184/27/41 194/29/43
f 66/3/2 65/2/1 200/2/44 204/3/45
f 93/57/29 92/55/28 189/55/42 209/57/46
f 80/31/16 79/29/15 194/29/43 102/31/47
f 67/5/3 66/3/2 204/3/45 97/5/48
f 94/59/30 93/57/29 209/57/46 222/59/49
f 81/33/17 80/31/16 102/31/47 227/33/50
f 68/7/4 67/5/3 97/5/48 98/7/51
f 95/61/31 94/59/30 222/59/49 236/61/52
f 82/35/18 81/33/17 227/33/50 103/35/53
f 69/9/5 68/7/4 98/7/51 99/9/54
f 96/63/33 95/61/31 236/61/52 249/63/55
f 83/37/19 82/35/18 103/35/53 254/37/56
f 70/11/6 69/9/5 99/9/54 259/11/57
f 65/65/1 96/63/33 249/63/55 200/65/44
f 84/39/20 83/37/19 254/37/56 264/39/58
f 71/13/7 70/11/6 259/11/57 269/13/59
f 85/41/21 84/39/20 264/39/58 274/41/60
f 72/15/8 71/13/7 269/13/59 100/15/61
f 86/43/22 85/41/21 274/41/60 104/43/62
f 73/17/9 72/15/8 100/15/61 287/17/63
f 87/45/23 86/43/22 104/43/62 292/45/64
f 74/19/10 73/17/9 287/17/63 297/19/65
f 88/47/24 87/45/23 292/45/64 302/47/66
f 75/21/11 74/19/10 297/19/65 101/21/35
f 89/49/25 88/47/24 302/47/66 311/49/37
f 317/23/67 179/67/68 181/68/69 320/23/70
f 320/23/70 181/68/69 182/68/71 319/69/72
f 319/69/72 182/68/71 183/68/73 318/23/74
f 318/23/74 183/68/73 180/70/39 316/23/36
f 312/49/75 169/71/76 171/72/77 315/73/78
f 315/73/78 171/72/77 172/72/79 314/74/80
f 314/74/80 172/72/79 173/75/81 313/76/82
f 313/76/82 173/75/81 170/51/38 311/49/37
f 307/77/83 317/23/67 320/23/70 310/77/84
f 310/77/84 320/23/70 319/69/72 309/78/85
f 309/78/85 319/69/72 318/23/74 308/77/86
f 308/77/86 318/23/74 316/23/36 101/79/35
f 303/80/87 312/49/75 315/73/78 306/81/88
f 306/81/88 315/73/78 314/74/80 305/80/89
f 305/80/89 314/74/80 313/76/82 304/82/90
f 304/82/90 313/76/82 311/49/37 302/81/66
f 298/19/91 307/77/83 310/77/84 301/83/92
f 301/83/92 310/77/84 309/78/85 300/19/93
f 300/19/93 309/78/85 308/77/86 299/84/94
f 299/84/94 308/77/86 101/79/35 297/85/65
f 293/86/95 303/80/87 306/81/88 296/87/96
f 296/87/96 306/81/88 305/80/89 295/86/97
f 295/86/97 305/80/89 304/82/90 294/88/98
f 294/88/98 304/82/90 302/81/66 292/45/64
f 288/89/99 298/19/91 301/83/92 291/90/100
f 291/90/100 301/83/92 300/19/93 290/17/101
f 290/17/101 300/19/93 299/84/94 289/91/102
f 289/91/102 299/84/94 297/85/65 287/89/63
f 283/92/103 293/86/95 296/87/96 286/93/104
f 286/93/104 296/87/96 295/86/97 285/94/105
f 285/94/105 295/86/97 294/88/98 284/43/106
f 284/43/106 294/88/98 292/45/64 104/43/62
f 279/15/107 288/89/99 291/90/100 282/15/108
f 282/15/108 291/90/100 290/17/101 281/95/109
f 281/95/109 290/17/101 289/91/102 280/96/110
f 280/96/110 289/91/102 287/89/63 100/15/61
f 275/41/111 283/92/103 286/93/104 278/41/112
f 278/41/112 286/93/104 285/94/105 277/97/113
f 277/97/113 285/94/105 284/43/106 276/98/114
f 276/98/114 284/43/106 104/43/62 274/41/60
f 270/99/115 279/15/107 282/15/108 273/100/116
f 273/100/116 282/15/108 281/95/109 272/13/117
f 272/13/117 281/95/109 280/96/110 271/13/118
f 271/13/118 280/96/110 100/15/61 269/100/59
f 265/39/119 275/41/111 278/41/112 268/39/120
f 268/39/120 278/41/112 277/97/113 267/101/121
f 267/101/121 277/97/113 276/98/114 266/102/122
f 266/102/122 276/98/114 274/41/60 264/103/58
f 260/11/123 270/99/115 273/100/116 263/104/124
f 263/104/124 273/100/116 272/13/117 262/105/125
f 262/105/125 272/13/117 271/13/118 261/106/126
f 261/106/126 271/13/118 269/100/59 259/11/57
f 255/37/127 265/39/119 268/39/120 258/107/128
f 258/107/128 268/39/120 267/101/121 257/108/129
f 257/108/129 267/101/121 266/102/122 256/109/130
f 256/109/130 266/102/122 264/103/58 254/37/56
f 250/63/131 199/65/132 201/110/133 253/111/134
f 253/111/134 201/110/133 202/112/135 252/113/136
f 252/113/136 202/112/135 203/114/137 251/115/138
f 251/115/138 203/114/137 200/65/44 249/63/55
f 245/116/139 260/11/123 263/104/124 248/9/140
f 248/9/140 263/104/124 262/105/125 247/117/141
f 247/117/141 262/105/125 261/106/126 246/118/142
f 246/118/142 261/106/126 259/11/57 99/116/54
f 241/35/143 255/37/127 258/107/128 244/119/144
f 244/119/144 258/107/128 257/108/129 243/120/145
f 243/120/145 257/108/129 256/109/130 242/35/146
f 242/35/146 256/109/130 254/37/56 103/121/53
f 237/61/147 250/63/131 253/111/134 240/122/148
f 240/122/148 253/111/134 252/113/136 239/123/149
f 239/123/149 252/113/136 251/115/138 238/124/150
f 238/124/150 251/115/138 249/63/55 236/61/52
f 232/7/151 245/116/139 248/9/140 235/125/152
f 235/125/152 248/9/140 247/117/141 234/125/153
f 234/125/153 247/117/141 246/118/142 233/7/154
f 233/7/154 246/118/142 99/116/54 98/7/51
f 228/33/155 241/35/143 244/119/144 231/126/156
f 231/126/156 244/119/144 243/120/145 230/127/157
f 230/127/157 243/120/145 242/35/146 229/33/158
f 229/33/158 242/35/146 103/121/53 227/33/50
f 223/128/159 237/61/147 240/122/148 226/129/160
f 226/129/160 240/122/148 239/123/149 225/130/161
f 225/130/161 239/123/149 238/124/150 224/131/162
f 224/131/162 238/124/150 236/61/52 222/132/49
f 218/133/163 232/7/151 235/125/152 221/134/164
f 221/134/164 235/125/152 234/125/153 220/5/165
f 220/5/165 234/125/153 233/7/154 219/133/166
f 219/133/166 233/7/154 98/7/51 97/135/48
f 214/31/167 228/33/155 231/126/156 217/136/168
f 217/136/168 231/126/156 230/127/157 216/137/169
f 216/137/169 230/127/157 229/33/158 215/31/170
f 215/31/170 229/33/158 227/33/50 102/31/47
f 210/57/171 223/128/159 226/129/160 213/138/172
f 213/138/172 226/129/160 225/130/161 212/139/173
f 212/139/173 225/130/161 224/131/162 211/140/174
f 211/140/174 224/131/162 222/132/49 209/57/46
f 205/3/175 218/133/163 221/134/164 208/141/176
f 208/141/176 221/134/164 220/5/165 207/142/177
f 207/142/177 220/5/165 219/133/166 206/3/178
f 206/3/178 219/133/166 97/135/48 204/143/45
f 195/144/179 214/31/167 217/136/168 198/145/180
f 198/145/180 217/136/168 216/137/169 197/146/181
f 197/146/181 216/137/169 215/31/170 196/146/182
f 196/146/182 215/31/170 102/31/47 194/147/43
f 190/148/183 210/57/171 213/138/172 193/55/184
f 193/55/184 213/138/172 212/139/173 192/149/185
f 192/149/185 212/139/173 211/140/174 191/148/186
f 191/148/186 211/140/174 209/57/46 189/150/42
f 199/2/132 205/3/175 208/141/176 201/151/133
f 201/151/133 208/141/176 207/142/177 202/152/135
f 202/152/135 207/142/177 206/3/178 203/153/137
f 203/153/137 206/3/178 204/143/45 200/154/44
f 185/27/187 195/144/179 198/145/180 188/27/188
f 188/27/188 198/145/180 197/146/181 187/155/189
f 187/155/189 197/146/181 196/146/182 186/155/190
f 186/155/190 196/146/182 194/147/43 184/27/41
f 175/53/191 190/148/183 193/55/184 178/53/192
f 178/53/192 193/55/184 192/149/185 177/156/193
f 177/156/193 192/149/185 191/148/186 176/157/194
f 176/157/194 191/148/186 189/150/42 174/157/40
f 179/67/68 185/27/187 188/27/188 181/68/69
f 181/68/69 188/27/188 187/155/189 182/68/71
f 182/68/71 187/155/189 186/155/190 183/68/73
f 183/68/73 186/155/190 184/27/41 180/70/39
f 169/71/76 175/53/191 178/53/192 171/72/77
f 171/72/77 178/53/192 177/156/193 172/72/79
f 172/72/79 177/156/193 176/157/194 173/75/81
f 173/75/81 176/157/194 174/157/40 170/51/38
f 169/71/76 312/49/75 129/49/195 130/51/196
f 175/53/191 169/71/76 130/51/196 131/53/197
f 190/148/183 175/53/191 131/53/197 132/55/198
f 179/67/68 317/23/67 116/23/199 117/25/200
f 185/27/187 179/67/68 117/25/200 118/27/201
f 195/144/179 185/27/187 118/27/201 119/29/202
f 210/57/171 190/148/183 132/55/198 133/57/203
f 214/31/167 195/144/179 119/29/202 120/31/204
f 199/65/132 250/63/131 136/63/205 105/65/206
f 205/3/175 199/2/132 105/2/206 106/3/207
f 218/133/163 205/3/175 106/3/207 107/5/208
f 223/128/159 210/57/171 133/57/203 134/59/209
f 228/33/155 214/31/167 120/31/204 121/33/210
f 232/7/151 218/133/163 107/5/208 108/7/211
f 237/61/147 223/128/159 134/59/209 135/61/212
f 241/35/143 228/33/155 121/33/210 122/35/213
f 245/116/139 232/7/151 108/7/211 109/9/214
f 250/63/131 237/61/147 135/61/212 136/63/205
f 255/37/127 241/35/143 122/35/213 123/37/215
f 260/11/123 245/116/139 109/9/214 110/11/216
f 265/39/119 255/37/127 123/37/215 124/39/217
f 270/99/115 260/11/123 110/11/216 111/13/218
f 275/41/111 265/39/119 124/39/217 125/41/219
f 279/15/107 270/99/115 111/13/218 112/15/220
f 283/92/103 275/41/111 125/41/219 126/43/221
f 288/89/99 279/15/107 112/15/220 113/17/222
f 293/86/95 283/92/103 126/43/221 127/45/223
f 298/19/91 288/89/99 113/17/222 114/19/224
f 303/80/87 293/86/95 127/45/223 128/47/225
f 307/77/83 298/19/91 114/19/224 115/21/226
f 312/49/75 303/80/87 128/47/225 129/49/195
f 317/23/67 307/77/83 115/21/226 116/23/199
f 367/33/227 436/158/228 438/159/229 370/126/230
f 370/126/230 438/159/229 439/160/231 369/126/232
f 369/126/232 439/160/231 440/161/233 368/33/234
f 368/33/234 440/161/233 437/162/235 366/33/236
f 422/163/237 361/63/238 363/164/239 425/165/240
f 425/165/240 363/164/239 364/166/241 424/167/242
f 424/167/242 364/166/241 365/168/243 423/169/244
f 423/169/244 365/168/243 362/63/245 421/61/246
f 417/170/247 356/171/248 358/171/249 420/170/250
f 420/170/250 358/171/249 359/105/251 419/116/252
f 419/116/252 359/105/251 360/172/253 418/117/254
f 418/117/254 360/172/253 357/11/255 416/117/256
f 412/173/257 406/174/258 408/39/259 415/175/260
f 415/175/260 408/39/259 409/39/261 414/176/262
f 414/176/262 409/39/261 410/39/263 413/177/264
f 413/177/264 410/39/263 407/178/265 411/177/266
f 406/174/258 446/98/267 448/98/268 408/39/259
f 408/39/259 448/98/268 449/97/269 409/39/261
f 409/39/261 449/97/269 450/179/270 410/39/263
f 410/39/263 450/179/270 447/41/271 407/178/265
f 446/98/267 346/43/272 348/180/273 448/98/268
f 448/98/268 348/180/273 349/181/274 449/97/269
f 449/97/269 349/181/274 350/93/275 450/179/270
f 450/179/270 350/93/275 347/43/276 447/41/271
f 346/43/272 396/45/277 398/182/278 348/180/273
f 348/180/273 398/182/278 399/88/279 349/181/274
f 349/181/274 399/88/279 400/88/280 350/93/275
f 350/93/275 400/88/280 397/45/281 347/43/276
f 396/45/277 456/47/282 458/81/283 398/182/278
f 398/182/278 458/81/283 459/183/284 399/88/279
f 399/88/279 459/183/284 460/47/285 400/88/280
f 400/88/280 460/47/285 457/184/286 397/45/281
f 456/47/282 336/49/287 338/76/288 458/81/283
f 458/81/283 338/76/288 339/185/289 459/183/284
f 459/183/284 339/185/289 340/76/290 460/47/285
f 460/47/285 340/76/290 337/49/291 457/184/286
f 336/49/287 386/186/292 388/187/293 338/76/288
f 338/76/288 388/187/293 389/75/294 339/185/289
f 339/185/289 389/75/294 390/186/295 340/76/290
f 340/76/290 390/186/295 387/186/296 337/49/291
f 386/186/292 466/53/297 468/157/298 388/187/293
f 388/187/293 468/157/298 469/156/299 389/75/294
f 389/75/294 469/156/299 470/53/300 390/186/295
f 390/186/295 470/53/300 467/53/301 387/186/296
f 466/53/297 326/55/302 328/148/303 468/157/298
f 468/157/298 328/148/303 329/148/304 469/156/299
f 469/156/299 329/148/304 330/188/305 470/53/300
f 470/53/300 330/188/305 327/55/306 467/53/301
f 442/2/307 376/189/308 378/189/309 445/190/310
f 445/190/310 378/189/309 379/191/311 444/192/312
f 444/192/312 379/191/311 380/189/313 443/193/314
f 443/193/314 380/189/313 377/194/315 441/2/316
f 472/195/317 476/137/318 478/196/319 475/145/320
f 475/145/320 478/196/319 479/196/321 474/145/322
f 474/145/322 479/196/321 480/31/323 473/197/324
f 473/197/324 480/31/323 477/31/325 471/29/326
f 322/57/327 431/132/328 433/198/329 325/57/330
f 325/57/330 433/198/329 434/131/331 324/199/332
f 324/199/332 434/131/331 435/200/333 323/201/334
f 323/201/334 435/200/333 432/59/335 321/57/336
f 431/132/328 422/163/237 425/165/240 433/198/329
f 433/198/329 425/165/240 424/167/242 434/131/331
f 434/131/331 424/167/242 423/169/244 435/200/333
f 435/200/333 423/169/244 421/61/246 432/59/335
f 372/202/337 417/170/247 420/170/250 375/202/338
f 375/202/338 420/170/250 419/116/252 374/7/339
f 374/7/339 419/116/252 418/117/254 373/203/340
f 373/203/340 418/117/254 416/117/256 371/7/341
f 436/158/228 412/173/257 415/175/260 438/159/229
f 438/159/229 415/175/260 414/176/262 439/160/231
f 439/160/231 414/176/262 413/177/264 440/161/233
f 440/161/233 413/177/264 411/177/266 437/162/235
f 361/63/238 442/65/307 445/204/310 363/164/239
f 363/164/239 445/204/310 444/205/312 364/166/241
f 364/166/241 444/205/312 443/206/314 365/168/243
f 365/168/243 443/206/314 441/65/316 362/63/245
f 356/171/248 351/207/342 353/100/343 358/171/249
f 358/171/249 353/100/343 354/207/344 359/105/251
f 359/105/251 354/207/344 355/207/345 360/172/253
f 360/172/253 355/207/345 352/13/346 357/11/255
f 351/207/342 401/15/347 403/208/348 353/100/343
f 353/100/343 403/208/348 404/209/349 354/207/344
f 354/207/344 404/209/349 405/210/350 355/207/345
f 355/207/345 405/210/350 402/211/351 352/13/346
f 401/15/347 451/17/352 453/89/353 403/208/348
f 403/208/348 453/89/353 454/17/354 404/209/349
f 404/209/349 454/17/354 455/212/355 405/210/350
f 405/210/350 455/212/355 452/17/356 402/211/351
f 451/17/352 341/213/357 343/19/358 453/89/353
f 453/89/353 343/19/358 344/84/359 454/17/354
f 454/17/354 344/84/359 345/19/360 455/212/355
f 455/212/355 345/19/360 342/19/361 452/17/356
f 341/213/357 391/21/362 393/79/363 343/19/358
f 343/19/358 393/79/363 394/21/364 344/84/359
f 344/84/359 394/21/364 395/214/365 345/19/360
f 345/19/360 395/214/365 392/21/366 342/19/361
f 391/21/362 461/215/367 463/216/368 393/79/363
f 393/79/363 463/216/368 464/23/369 394/21/364
f 394/21/364 464/23/369 465/217/370 395/214/365
f 395/214/365 465/217/370 462/215/371 392/21/366
f 461/215/367 331/67/372 333/67/373 463/216/368
f 463/216/368 333/67/373 334/25/374 464/23/369
f 464/23/369 334/25/374 335/218/375 465/217/370
f 465/217/370 335/218/375 332/70/376 462/215/371
f 331/67/372 381/27/377 383/155/378 333/67/373
f 333/67/373 383/155/378 384/155/379 334/25/374
f 334/25/374 384/155/379 385/219/380 335/218/375
f 335/218/375 385/219/380 382/27/381 332/70/376
f 381/27/377 472/195/317 475/145/320 383/155/378
f 383/155/378 475/145/320 474/145/322 384/155/379
f 384/155/379 474/145/322 473/197/324 385/219/380
f 385/219/380 473/197/324 471/29/326 382/27/381
f 326/55/302 322/57/327 325/57/330 328/148/303
f 328/148/303 325/57/330 324/199/332 329/148/304
f 329/148/304 324/199/332 323/201/334 330/188/305
f 330/188/305 323/201/334 321/57/336 327/55/306
f 376/189/308 426/133/382 428/220/383 378/189/309
f 378/189/309 428/220/383 429/135/384 379/191/311
f 379/191/311 429/135/384 430/134/385 380/189/313
f 380/189/313 430/134/385 427/133/386 377/194/315
f 476/137/318 367/33/227 370/126/230 478/196/319
f 478/196/319 370/126/230 369/126/232 479/196/321
f 479/196/321 369/126/232 368/33/234 480/31/323
f 480/31/323 368/33/234 366/33/236 477/31/325
f 426/133/382 372/202/337 375/202/338 428/220/383
f 428/220/383 375/202/338 374/7/339 429/135/384
f 429/135/384 374/7/339 373/203/340 430/134/385
f 430/134/385 373/203/340 371/7/341 427/133/386
f 133/57/29 132/55/28 327/55/28 321/57/29
f 431/132/328 322/57/327 140/57/387 139/59/388
f 134/59/30 133/57/29 321/57/29 432/59/30
f 322/57/327 326/55/302 141/55/389 140/57/387
f 132/55/28 131/53/27 467/53/27 327/55/28
f 326/55/302 466/53/297 142/53/390 141/55/389
f 118/27/14 117/25/13 332/70/13 382/27/14
f 117/25/13 116/23/12 462/215/12 332/70/13
f 381/27/377 331/67/372 156/25/391 155/27/392
f 331/67/372 461/215/367 157/23/393 156/25/391
f 130/51/26 129/49/25 337/49/25 387/186/26
f 129/49/25 128/47/24 457/184/24 337/49/25
f 386/186/292 336/49/287 144/49/394 143/51/395
f 336/49/287 456/47/282 145/47/396 144/49/394
f 115/21/11 114/19/10 342/19/10 392/21/11
f 114/19/10 113/17/9 452/17/9 342/19/10
f 391/21/362 341/213/357 159/19/397 158/21/398
f 341/213/357 451/17/352 160/17/399 159/19/397
f 127/45/23 126/43/22 347/43/22 397/45/23
f 126/43/22 125/41/21 447/41/21 347/43/22
f 396/45/277 346/43/272 147/43/400 146/45/401
f 346/43/272 446/98/267 148/41/402 147/43/400
f 112/15/8 111/13/7 352/13/7 402/211/8
f 111/13/7 110/11/6 357/11/6 352/13/7
f 401/15/347 351/207/342 162/13/403 161/15/404
f 351/207/342 356/171/248 163/11/405 162/13/403
f 110/11/6 109/9/5 416/117/5 357/11/6
f 356/171/248 417/170/247 164/9/406 163/11/405
f 105/65/1 136/63/33 362/63/33 441/65/1
f 136/63/33 135/61/31 421/61/31 362/63/33
f 442/65/307 361/63/238 137/63/407 168/65/408
f 361/63/238 422/163/237 138/61/409 137/63/407
f 436/158/228 367/33/227 152/33/410 151/35/411
f 121/33/17 120/31/16 477/31/16 366/33/17
f 122/35/18 121/33/17 366/33/17 437/162/18
f 367/33/227 476/137/318 153/31/412 152/33/410
f 108/7/4 107/5/3 427/133/3 371/7/4
f 417/170/247 372/202/337 165/7/413 164/9/406
f 109/9/5 108/7/4 371/7/4 416/117/5
f 372/202/337 426/133/382 166/5/414 165/7/413
f 107/5/3 106/3/2 377/194/2 427/133/3
f 106/3/2 105/2/1 441/2/1 377/194/2
f 426/133/382 376/189/308 167/3/415 166/5/414
f 376/189/308 442/2/307 168/2/408 167/3/415
f 119/29/15 118/27/14 382/27/14 471/29/15
f 472/195/317 381/27/377 155/27/392 154/29/416
f 131/53/27 130/51/26 387/186/26 467/53/27
f 466/53/297 386/186/292 143/51/395 142/53/390
f 116/23/12 115/21/11 392/21/11 462/215/12
f 461/215/367 391/21/362 158/21/398 157/23/393
f 128/47/24 127/45/23 397/45/23 457/184/24
f 456/47/282 396/45/277 146/45/401 145/47/396
f 113/17/9 112/15/8 402/211/8 452/17/9
f 451/17/352 401/15/347 161/15/404 160/17/399
f 125/41/21 124/39/20 407/178/20 447/41/21
f 124/39/20 123/37/19 411/177/19 407/178/20
f 446/98/267 406/174/258 149/39/417 148/41/402
f 406/174/258 412/173/257 150/37/418 149/39/417
f 123/37/19 122/35/18 437/162/18 411/177/19
f 412/173/257 436/158/228 151/35/411 150/37/418
f 135/61/31 134/59/30 432/59/30 421/61/31
f 422/163/237 431/132/328 139/59/388 138/61/409
f 476/137/318 472/195/317 154/29/416 153/31/412
f 120/31/16 119/29/15 471/29/15 477/31/16
f 490/19/10 489/17/9 521/17/9 522/19/10
f 499/37/19 498/35/18 530/35/18 531/37/19
f 508/55/28 507/53/27 539/53/27 540/55/28
f 486/11/6 485/9/5 517/9/5 518/11/6
f 495/29/15 494/27/14 526/27/14 527/29/15
f 504/47/24 503/45/23 535/45/23 536/47/24
f 481/3/2 482/2/1 514/2/1 513/3/2
f 482/65/1 512/63/33 544/63/33 514/65/1
f 491/21/11 490/19/10 522/19/10 523/21/11
f 500/39/20 499/37/19 531/37/19 532/39/20
f 509/57/29 508/55/28 540/55/28 541/57/29
f 487/13/7 486/11/6 518/11/6 519/13/7
f 496/31/16 495/29/15 527/29/15 528/31/16
f 505/49/25 504/47/24 536/47/24 537/49/25
f 483/5/3 481/3/2 513/3/2 515/5/3
f 492/23/12 491/21/11 523/21/11 524/23/12
f 501/41/21 500/39/20 532/39/20 533/41/21
f 510/59/30 509/57/29 541/57/29 542/59/30
f 488/15/8 487/13/7 519/13/7 520/15/8
f 497/33/17 496/31/16 528/31/16 529/33/17
f 506/51/26 505/49/25 537/49/25 538/51/26
f 484/7/4 483/5/3 515/5/3 516/7/4
f 493/25/13 492/23/12 524/23/12 525/25/13
f 502/43/22 501/41/21 533/41/21 534/43/22
f 511/61/31 510/59/30 542/59/30 543/61/31
f 489/17/9 488/15/8 520/15/8 521/17/9
f 498/35/18 497/33/17 529/33/17 530/35/18
f 507/53/27 506/51/26 538/51/26 539/53/27
f 485/9/5 484/7/4 516/7/4 517/9/5
f 494/27/14 493/25/13 525/25/13 526/27/14
f 503/45/23 502/43/22 534/43/22 535/45/23
f 512/63/33 511/61/31 543/61/31 544/63/33
f 74/19/34 75/21/34 523/21/34 522/19/34
f 38/37/32 36/35/32 498/35/32 499/37/32
f 4/3/32 2/2/32 482/2/32 481/3/32
f 75/21/34 76/23/34 524/23/34 523/21/34
f 56/55/32 54/53/32 507/53/32 508/55/32
f 76/23/34 77/25/34 525/25/34 524/23/34
f 22/21/32 20/19/32 490/19/32 491/21/32
f 77/25/34 78/27/34 526/27/34 525/25/34
f 40/39/32 38/37/32 499/37/32 500/39/32
f 78/27/34 79/29/34 527/29/34 526/27/34
f 58/57/32 56/55/32 508/55/32 509/57/32
f 6/5/32 4/3/32 481/3/32 483/5/32
f 79/29/34 80/31/34 528/31/34 527/29/34
f 24/23/32 22/21/32 491/21/32 492/23/32
f 80/31/34 81/33/34 529/33/34 528/31/34
f 42/41/32 40/39/32 500/39/32 501/41/32
f 81/33/34 82/35/34 530/35/34 529/33/34
f 60/59/32 58/57/32 509/57/32 510/59/32
f 8/7/32 6/5/32 483/5/32 484/7/32
f 82/35/34 83/37/34 531/37/34 530/35/34
f 26/25/32 24/23/32 492/23/32 493/25/32
f 83/37/34 84/39/34 532/39/34 531/37/34
f 44/43/32 42/41/32 501/41/32 502/43/32
f 84/39/34 85/41/34 533/41/34 532/39/34
f 62/61/32 60/59/32 510/59/32 511/61/32
f 10/9/32 8/7/32 484/7/32 485/9/32
f 85/41/34 86/43/34 534/43/34 533/41/34
f 28/27/32 26/25/32 493/25/32 494/27/32
f 86/43/34 87/45/34 535/45/34 534/43/34
f 46/45/32 44/43/32 502/43/32 503/45/32
f 87/45/34 88/47/34 536/47/34 535/45/34
f 64/63/32 62/61/32 511/61/32 512/63/32
f 29/30/34 31/32/34 545/30/34
f 47/48/34 49/50/34 545/48/34
f 3/4/34 5/6/34 545/4/34
f 21/22/34 23/24/34 545/22/34
f 39/40/34 41/42/34 545/40/34
f 57/58/34 59/60/34 545/58/34
f 13/14/34 15/16/34 545/14/34
f 31/32/34 33/34/34 545/32/34
f 49/50/34 51/52/34 545/50/34
f 5/6/34 7/8/34 545/6/34
f 23/24/34 25/26/34 545/24/34
f 41/42/34 43/44/34 545/42/34
f 59/60/34 61/62/34 545/60/34
f 15/16/34 17/18/34 545/16/34
f 33/34/34 35/36/34 545/34/34
f 51/52/34 53/54/34 545/52/34
f 7/8/34 9/10/34 545/8/34
f 25/26/34 27/28/34 545/26/34
f 43/44/34 45/46/34 545/44/34
f 61/62/34 63/64/34 545/62/34
f 17/18/34 19/20/34 545/18/34
f 35/36/34 37/38/34 545/36/34
f 53/54/34 55/56/34 545/54/34
f 9/10/34 11/12/34 545/10/34
f 27/28/34 29/30/34 545/28/34
f 45/46/34 47/48/34 545/46/34
f 1/1/34 3/4/34 545/1/34
f 63/64/34 1/66/34 545/64/34
f 19/20/34 21/22/34 545/20/34
f 37/38/34 39/40/34 545/38/34
f 55/56/34 57/58/34 545/56/34
f 166/5/419 167/3/420 546/5/32
f 157/23/421 158/21/422 546/23/32
f 138/61/423 139/59/424 546/61/32
f 154/29/425 155/27/426 546/29/32
f 141/55/427 142/53/428 546/55/32
f 151/35/429 152/33/430 546/35/32
f 144/49/431 145/47/432 546/49/32
f 137/63/433 138/61/423 546/63/32
f 148/41/434 149/39/435 546/41/32
f 147/43/436 148/41/434 546/43/32
f 140/57/437 141/55/427 546/57/32
f 145/47/432 146/45/438 546/47/32
f 150/37/439 151/35/429 546/37/32
f 143/51/440 144/49/431 546/51/32
f 142/53/428 143/51/440 546/53/32
f 153/31/441 154/29/425 546/31/32
f 146/45/438 147/43/436 546/45/32
f 139/59/424 140/57/437 546/59/32
f 156/25/442 157/23/421 546/25/32
f 149/39/435 150/37/439 546/39/32
f 168/65/443 137/63/433 546/65/32
f 159/19/444 160/17/445 546/19/32
f 152/33/430 153/31/441 546/33/32
f 162/13/446 163/11/447 546/13/32
f 155/27/426 156/25/442 546/27/32
f 165/7/448 166/5/419 546/7/32
f 158/21/422 159/19/444 546/21/32
f 167/3/420 168/2/443 546/3/32
f 161/15/449 162/13/446 546/15/32
f 163/11/447 164/9/450 546/11/32
f 164/9/450 165/7/448 546/9/32
f 160/17/445 161/15/449 546/17/32
