# Blender 4.5.1 LTS
# www.blender.org
o Bullet-Rifle-Boattail
v 0.000000 0.090000 -0.100000
v 0.000000 0.294490 -0.100000
v 0.019509 0.090000 -0.098079
v 0.019509 0.294490 -0.098079
v 0.038268 0.090000 -0.092388
v 0.038268 0.294490 -0.092388
v 0.055557 0.090000 -0.083147
v 0.055557 0.294490 -0.083147
v 0.070711 0.090000 -0.070711
v 0.070711 0.294490 -0.070711
v 0.083147 0.090000 -0.055557
v 0.083147 0.294490 -0.055557
v 0.092388 0.090000 -0.038268
v 0.092388 0.294490 -0.038268
v 0.098079 0.090000 -0.019509
v 0.100000 0.090000 0.000000
v 0.100000 0.294490 0.000000
v 0.098079 0.090000 0.019509
v 0.092388 0.090000 0.038268
v 0.083147 0.090000 0.055557
v 0.083147 0.294490 0.055557
v 0.070711 0.090000 0.070711
v 0.070711 0.294490 0.070711
v 0.055557 0.090000 0.083147
v 0.055557 0.294490 0.083147
v 0.038268 0.090000 0.092388
v 0.038268 0.294490 0.092388
v 0.019509 0.090000 0.098079
v 0.019509 0.294490 0.098079
v 0.000000 0.090000 0.100000
v 0.000000 0.294490 0.100000
v -0.019509 0.090000 0.098079
v -0.019509 0.294490 0.098079
v -0.038268 0.090000 0.092388
v -0.038268 0.294490 0.092388
v -0.055557 0.090000 0.083147
v -0.055557 0.294490 0.083147
v -0.070711 0.090000 0.070711
v -0.070711 0.294490 0.070711
v -0.083147 0.090000 0.055557
v -0.092388 0.090000 0.038268
v -0.092388 0.294490 0.038268
v -0.098079 0.090000 0.019509
v -0.098079 0.294490 0.019509
v -0.100000 0.090000 0.000000
v -0.098079 0.090000 -0.019509
v -0.092388 0.090000 -0.038268
v -0.083147 0.090000 -0.055557
v -0.070711 0.090000 -0.070711
v -0.070711 0.294490 -0.070711
v -0.055557 0.090000 -0.083147
v -0.038268 0.090000 -0.092388
v -0.038268 0.294490 -0.092388
v -0.019509 0.090000 -0.098079
v -0.019509 0.294490 -0.098079
v -0.009978 0.694490 -0.001985
v 0.000001 0.694490 0.010175
v 0.009981 0.694490 -0.001985
v -0.005652 0.694490 -0.008460
v -0.007193 0.694490 0.007195
v 0.008461 0.694490 0.005653
v 0.003895 0.694490 -0.009400
v -0.010174 0.694490 0.000000
v 0.001986 0.694490 0.009979
v 0.009402 0.694490 -0.003894
v -0.007193 0.694490 -0.007195
v -0.005652 0.694490 0.008460
v 0.009402 0.694490 0.003894
v 0.001986 0.694490 -0.009979
v 0.000001 0.694490 -0.010175
v -0.009978 0.694490 0.001985
v 0.003895 0.694490 0.009400
v 0.008461 0.694490 -0.005653
v -0.008459 0.694490 -0.005653
v -0.009399 0.694490 -0.003894
v -0.003892 0.694490 0.009400
v -0.001984 0.694490 0.009979
v 0.009981 0.694490 0.001985
v 0.010176 0.694490 0.000000
v -0.001984 0.694490 -0.009979
v -0.003892 0.694490 -0.009400
v -0.009399 0.694490 0.003894
v -0.008459 0.694490 0.005653
v 0.005654 0.694490 0.008460
v 0.007196 0.694490 0.007195
v 0.007196 0.694490 -0.007195
v 0.005654 0.694490 -0.008460
v -0.009257 0.656069 0.022351
v -0.009257 0.656069 -0.022351
v 0.023729 0.656070 0.004720
v 0.020117 0.656070 0.013441
v -0.017106 0.656069 0.017107
v -0.022350 0.656069 0.009258
v 0.000001 0.656069 -0.024193
v -0.020115 0.656069 -0.013441
v -0.013440 0.656069 -0.020116
v 0.020117 0.656070 -0.013441
v 0.009259 0.656070 -0.022351
v 0.023729 0.656070 -0.004720
v 0.000001 0.656069 0.024193
v 0.009259 0.656070 0.022351
v -0.023727 0.656069 -0.004720
v -0.024192 0.656069 0.000000
v -0.022350 0.656069 -0.009258
v -0.017106 0.656069 -0.017107
v 0.004721 0.656070 -0.023728
v 0.013442 0.656070 -0.020116
v 0.022352 0.656070 -0.009258
v 0.022352 0.656070 0.009258
v 0.017108 0.656070 0.017107
v -0.023727 0.656069 0.004720
v -0.020115 0.656069 0.013441
v -0.004719 0.656069 -0.023728
v 0.024194 0.656070 0.000000
v -0.004719 0.656069 0.023728
v 0.017108 0.656070 -0.017107
v 0.004721 0.656070 0.023728
v -0.013440 0.656069 0.020116
v 0.013442 0.656070 0.020116
v 0.019701 0.617649 -0.029484
v 0.030872 0.544564 -0.046203
v 0.041609 0.457486 -0.062271
v 0.050277 0.369672 -0.075245
v 0.025075 0.617649 -0.025074
v 0.063990 0.369672 -0.063990
v 0.052958 0.457486 -0.052958
v 0.039293 0.544564 -0.039292
v 0.025075 0.617649 0.025074
v 0.039293 0.544564 0.039292
v 0.052958 0.457486 0.052958
v 0.063990 0.369672 0.063990
v 0.019702 0.617649 0.029484
v 0.050277 0.369672 0.075245
v 0.041609 0.457486 0.062271
v 0.030872 0.544564 0.046203
v -0.029484 0.617649 0.019701
v -0.083147 0.294490 0.055557
v -0.046202 0.544564 0.030872
v -0.062271 0.457486 0.041608
v -0.075244 0.369672 0.050277
v -0.032760 0.617649 0.013570
v -0.083607 0.369672 0.034631
v -0.069192 0.457486 0.028660
v -0.051337 0.544564 0.021265
v -0.013569 0.617649 -0.032761
v -0.021264 0.544564 -0.051338
v -0.028660 0.457486 -0.069192
v -0.034631 0.369672 -0.083607
v -0.006917 0.617649 -0.034779
v -0.017655 0.369672 -0.088757
v -0.014611 0.457486 -0.073454
v -0.010840 0.544564 -0.054500
v 0.035461 0.617649 0.000000
v 0.055568 0.544564 0.000000
v 0.074894 0.457486 0.000000
v 0.090496 0.369672 0.000000
v 0.098079 0.294490 0.019509
v 0.034780 0.617649 0.006918
v 0.088757 0.369672 0.017655
v 0.073455 0.457486 0.014611
v 0.054500 0.544564 0.010841
v -0.006917 0.617649 0.034779
v -0.010840 0.544564 0.054500
v -0.014611 0.457486 0.073454
v -0.017655 0.369672 0.088757
v -0.013569 0.617649 0.032761
v -0.034631 0.369672 0.083607
v -0.028660 0.457486 0.069192
v -0.021264 0.544564 0.051338
v -0.032760 0.617649 -0.013570
v -0.092388 0.294490 -0.038268
v -0.051337 0.544564 -0.021265
v -0.069192 0.457486 -0.028660
v -0.083607 0.369672 -0.034631
v -0.083147 0.294490 -0.055557
v -0.029484 0.617649 -0.019701
v -0.075244 0.369672 -0.050277
v -0.062271 0.457486 -0.041608
v -0.046202 0.544564 -0.030872
v 0.029485 0.617649 -0.019701
v 0.075245 0.369672 -0.050277
v 0.062272 0.457486 -0.041608
v 0.046203 0.544564 -0.030872
v 0.013571 0.617649 0.032761
v 0.034631 0.369672 0.083607
v 0.028661 0.457486 0.069192
v 0.021265 0.544564 0.051338
v -0.034778 0.617649 0.006918
v -0.088757 0.369672 0.017655
v -0.073454 0.457486 0.014611
v -0.054499 0.544564 0.010841
v 0.000001 0.617649 -0.035460
v 0.000001 0.544564 -0.055567
v 0.000000 0.457486 -0.074893
v 0.000000 0.369672 -0.090496
v 0.006919 0.617649 -0.034779
v 0.017655 0.369672 -0.088757
v 0.014611 0.457486 -0.073454
v 0.010841 0.544564 -0.054500
v 0.092388 0.294490 0.038268
v 0.032762 0.617649 0.013570
v 0.083607 0.369672 0.034631
v 0.069193 0.457486 0.028660
v 0.051338 0.544564 0.021265
v -0.019700 0.617649 0.029484
v -0.050277 0.369672 0.075245
v -0.041608 0.457486 0.062271
v -0.030871 0.544564 0.046203
v -0.025074 0.617649 -0.025074
v -0.063990 0.369672 -0.063990
v -0.052957 0.457486 -0.052958
v -0.039292 0.544564 -0.039292
v 0.032762 0.617649 -0.013570
v 0.083607 0.369672 -0.034631
v 0.069193 0.457486 -0.028660
v 0.051338 0.544564 -0.021265
v 0.006919 0.617649 0.034779
v 0.017655 0.369672 0.088757
v 0.014611 0.457486 0.073454
v 0.010841 0.544564 0.054500
v -0.100000 0.294490 0.000000
v -0.035460 0.617649 0.000000
v -0.090496 0.369672 0.000000
v -0.074893 0.457486 0.000000
v -0.055567 0.544564 0.000000
v 0.013571 0.617649 -0.032761
v 0.034631 0.369672 -0.083607
v 0.028661 0.457486 -0.069192
v 0.021265 0.544564 -0.051338
v 0.029485 0.617649 0.019701
v 0.075245 0.369672 0.050277
v 0.062272 0.457486 0.041608
v 0.046203 0.544564 0.030872
v -0.025074 0.617649 0.025074
v -0.063990 0.369672 0.063990
v -0.052957 0.457486 0.052958
v -0.039292 0.544564 0.039292
v -0.055557 0.294490 -0.083147
v -0.019700 0.617649 -0.029484
v -0.050277 0.369672 -0.075245
v -0.041608 0.457486 -0.062271
v -0.030871 0.544564 -0.046203
v 0.098079 0.294490 -0.019509
v 0.034780 0.617649 -0.006918
v 0.088757 0.369672 -0.017655
v 0.073455 0.457486 -0.014611
v 0.054500 0.544564 -0.010841
v 0.000001 0.617649 0.035460
v 0.000000 0.369672 0.090496
v 0.000000 0.457486 0.074893
v 0.000001 0.544564 0.055567
v -0.098079 0.294490 -0.019509
v -0.034778 0.617649 -0.006918
v -0.088757 0.369672 -0.017655
v -0.073454 0.457486 -0.014611
v -0.054499 0.544564 -0.010841
v 0.000001 0.698490 0.000000
v 0.000000 -0.000000 0.000000
v 0.000000 0.004467 -0.081210
v 0.015844 0.004467 -0.079650
v 0.031078 0.004467 -0.075029
v 0.045118 0.004467 -0.067524
v 0.057425 0.004467 -0.057424
v 0.067524 0.004467 -0.045118
v 0.075029 0.004467 -0.031078
v 0.079650 0.004467 -0.015843
v 0.081211 0.004467 0.000000
v 0.079650 0.004467 0.015843
v 0.075029 0.004467 0.031078
v 0.067524 0.004467 0.045118
v 0.057425 0.004467 0.057424
v 0.045118 0.004467 0.067524
v 0.031078 0.004467 0.075029
v 0.015844 0.004467 0.079650
v 0.000000 0.004467 0.081210
v -0.015843 0.004467 0.079650
v -0.031078 0.004467 0.075029
v -0.045118 0.004467 0.067524
v -0.057424 0.004467 0.057424
v -0.067524 0.004467 0.045118
v -0.075028 0.004467 0.031078
v -0.079650 0.004467 0.015843
v -0.081210 0.004467 0.000000
v -0.079650 0.004467 -0.015843
v -0.075028 0.004467 -0.031078
v -0.067524 0.004467 -0.045118
v -0.057424 0.004467 -0.057424
v -0.045118 0.004467 -0.067524
v -0.031078 0.004467 -0.075029
v -0.015843 0.004467 -0.079650
v 0.014756 -0.000000 -0.074181
v 0.000000 -0.000000 -0.075635
v 0.028944 -0.000000 -0.069877
v 0.042021 -0.000000 -0.062888
v 0.053482 -0.000000 -0.053482
v 0.062888 -0.000000 -0.042020
v 0.069878 -0.000000 -0.028944
v 0.074182 -0.000000 -0.014756
v 0.075635 -0.000000 0.000000
v 0.074182 -0.000000 0.014756
v 0.069878 -0.000000 0.028944
v 0.062888 -0.000000 0.042020
v 0.053482 -0.000000 0.053482
v 0.042021 -0.000000 0.062888
v 0.028944 -0.000000 0.069877
v 0.014756 -0.000000 0.074181
v 0.000000 -0.000000 0.075635
v -0.014755 -0.000000 0.074181
v -0.028944 -0.000000 0.069877
v -0.042020 -0.000000 0.062888
v -0.053482 -0.000000 0.053482
v -0.062888 -0.000000 0.042020
v -0.069877 -0.000000 0.028944
v -0.074181 -0.000000 0.014756
v -0.075634 -0.000000 0.000000
v -0.074181 -0.000000 -0.014756
v -0.069877 -0.000000 -0.028944
v -0.062888 -0.000000 -0.042020
v -0.053482 -0.000000 -0.053482
v -0.042020 -0.000000 -0.062888
v -0.028944 -0.000000 -0.069877
v -0.014755 -0.000000 -0.074181
vn -0.0000 -0.0000 -1.0000
vn -0.0000 0.0626 -0.9980
vn 0.1947 0.0626 -0.9789
vn 0.1951 -0.0000 -0.9808
vn 0.3819 0.0626 -0.9221
vn 0.3827 -0.0000 -0.9239
vn 0.5545 0.0626 -0.8298
vn 0.5556 -0.0000 -0.8315
vn 0.7057 0.0626 -0.7057
vn 0.7071 -0.0000 -0.7071
vn 0.8298 0.0626 -0.5545
vn 0.8315 -0.0000 -0.5556
vn 0.9221 0.0626 -0.3819
vn 0.9239 -0.0000 -0.3827
vn 0.9789 0.0626 -0.1947
vn 0.9808 -0.0000 -0.1951
vn 0.9980 0.0626 -0.0000
vn 1.0000 -0.0000 -0.0000
vn 0.9789 0.0626 0.1947
vn 0.9808 -0.0000 0.1951
vn 0.9221 0.0626 0.3819
vn 0.9239 -0.0000 0.3827
vn 0.8298 0.0626 0.5545
vn 0.8315 -0.0000 0.5556
vn 0.7057 0.0626 0.7057
vn 0.7071 -0.0000 0.7071
vn 0.5545 0.0626 0.8298
vn 0.5556 -0.0000 0.8315
vn 0.3819 0.0626 0.9221
vn 0.3827 -0.0000 0.9239
vn 0.1947 0.0626 0.9789
vn 0.1951 -0.0000 0.9808
vn -0.0000 0.0626 0.9980
vn -0.0000 -0.0000 1.0000
vn -0.1947 0.0626 0.9789
vn -0.1951 -0.0000 0.9808
vn -0.3819 0.0626 0.9221
vn -0.3827 -0.0000 0.9239
vn -0.5545 0.0626 0.8298
vn -0.5556 -0.0000 0.8315
vn -0.7057 0.0626 0.7057
vn -0.7071 -0.0000 0.7071
vn -0.8298 0.0626 0.5545
vn -0.8315 -0.0000 0.5556
vn -0.9221 0.0626 0.3819
vn -0.9239 -0.0000 0.3827
vn -0.9789 0.0626 0.1947
vn -0.9808 -0.0000 0.1951
vn -0.9980 0.0626 -0.0000
vn -1.0000 -0.0000 -0.0000
vn -0.9789 0.0626 -0.1947
vn -0.9808 -0.0000 -0.1951
vn -0.9221 0.0626 -0.3819
vn -0.9239 -0.0000 -0.3827
vn -0.8298 0.0626 -0.5545
vn -0.8315 -0.0000 -0.5556
vn -0.7057 0.0626 -0.7057
vn -0.7071 -0.0000 -0.7071
vn -0.5545 0.0626 -0.8298
vn -0.5556 -0.0000 -0.8315
vn -0.3819 0.0626 -0.9221
vn -0.3827 -0.0000 -0.9239
vn -0.1947 0.0626 -0.9789
vn -0.1951 -0.0000 -0.9808
vn -0.9319 0.3117 -0.1854
vn -0.9502 0.3117 -0.0000
vn -0.9394 0.3428 -0.0000
vn -0.9214 0.3428 -0.1833
vn 0.3681 0.2732 0.8887
vn 0.5344 0.2732 0.7998
vn 0.5279 0.3117 0.7901
vn 0.3636 0.3117 0.8779
vn -0.6802 0.2732 -0.6802
vn -0.7998 0.2732 -0.5344
vn -0.7901 0.3117 -0.5279
vn -0.6719 0.3117 -0.6719
vn -0.3681 0.2732 0.8887
vn -0.1877 0.2732 0.9435
vn -0.1854 0.3117 0.9319
vn -0.3636 0.3117 0.8779
vn -0.1877 0.2732 -0.9435
vn -0.3681 0.2732 -0.8887
vn -0.3636 0.3117 -0.8779
vn -0.1854 0.3117 -0.9319
vn -0.7998 0.2732 0.5344
vn -0.6802 0.2732 0.6802
vn -0.6719 0.3117 0.6719
vn -0.7901 0.3117 0.5279
vn -0.8887 0.2732 -0.3681
vn -0.8779 0.3117 -0.3636
vn -0.0000 0.2732 0.9620
vn 0.1877 0.2732 0.9435
vn 0.1854 0.3117 0.9319
vn -0.0000 0.3117 0.9502
vn -0.8887 0.2732 0.3681
vn -0.8779 0.3117 0.3636
vn -0.9435 0.2732 -0.1877
vn 0.8887 0.2732 0.3681
vn 0.9435 0.2732 0.1877
vn 0.9319 0.3116 0.1854
vn 0.8779 0.3116 0.3636
vn 0.5344 0.2732 -0.7998
vn 0.3681 0.2732 -0.8887
vn 0.3636 0.3117 -0.8779
vn 0.5279 0.3117 -0.7901
vn 0.7998 0.2732 0.5344
vn 0.7901 0.3116 0.5279
vn 0.9620 0.2732 -0.0000
vn 0.9502 0.3116 -0.0000
vn 0.9435 0.2732 -0.1877
vn 0.9319 0.3116 -0.1854
vn -0.5344 0.2732 0.7998
vn -0.5279 0.3117 0.7901
vn 0.8887 0.2732 -0.3681
vn 0.8779 0.3116 -0.3636
vn -0.9620 0.2732 -0.0000
vn -0.0000 0.2732 -0.9620
vn -0.0000 0.3117 -0.9502
vn -0.5344 0.2732 -0.7998
vn -0.5279 0.3117 -0.7901
vn 0.6802 0.2732 0.6802
vn 0.6719 0.3116 0.6719
vn 0.1877 0.2732 -0.9435
vn 0.1854 0.3117 -0.9319
vn 0.6802 0.2732 -0.6802
vn 0.6719 0.3116 -0.6719
vn 0.7998 0.2732 -0.5344
vn 0.7901 0.3116 -0.5279
vn -0.9435 0.2732 0.1877
vn -0.9319 0.3117 0.1854
vn -0.8967 0.2407 -0.3714
vn -0.9520 0.2407 -0.1894
vn -0.9060 0.1956 -0.3753
vn -0.9618 0.1956 -0.1913
vn -0.9134 0.1500 -0.3784
vn -0.9697 0.1500 -0.1929
vn -0.1894 0.2407 0.9520
vn -0.0000 0.2407 0.9706
vn -0.1913 0.1956 0.9618
vn -0.0000 0.1956 0.9807
vn -0.1929 0.1500 0.9697
vn -0.0000 0.1500 0.9887
vn 0.9706 0.2407 -0.0000
vn 0.9520 0.2407 -0.1894
vn 0.9807 0.1956 -0.0000
vn 0.9618 0.1956 -0.1913
vn 0.9887 0.1500 -0.0000
vn 0.9697 0.1500 -0.1929
vn -0.3714 0.2407 -0.8967
vn -0.5392 0.2407 -0.8070
vn -0.3753 0.1956 -0.9060
vn -0.5448 0.1956 -0.8154
vn -0.3784 0.1500 -0.9134
vn -0.5493 0.1500 -0.8221
vn -0.8070 0.2407 0.5392
vn -0.6863 0.2407 0.6863
vn -0.8154 0.1956 0.5448
vn -0.6934 0.1956 0.6934
vn -0.8221 0.1500 0.5493
vn -0.6991 0.1500 0.6991
vn 0.6863 0.2407 0.6863
vn 0.8070 0.2407 0.5392
vn 0.6934 0.1956 0.6934
vn 0.8154 0.1956 0.5448
vn 0.6991 0.1500 0.6991
vn 0.8221 0.1500 0.5493
vn 0.5392 0.2407 -0.8070
vn 0.3714 0.2407 -0.8967
vn 0.5448 0.1956 -0.8154
vn 0.3753 0.1956 -0.9060
vn 0.5493 0.1500 -0.8221
vn 0.3784 0.1500 -0.9134
vn -0.9706 0.2407 -0.0000
vn -0.9807 0.1956 -0.0000
vn -0.9887 0.1500 -0.0000
vn 0.1894 0.2407 0.9520
vn 0.1913 0.1956 0.9618
vn 0.1929 0.1500 0.9697
vn 0.8967 0.2407 -0.3714
vn 0.9060 0.1956 -0.3753
vn 0.9134 0.1500 -0.3784
vn -0.6863 0.2407 -0.6863
vn -0.6934 0.1956 -0.6934
vn -0.6991 0.1500 -0.6991
vn -0.5392 0.2407 0.8070
vn -0.5448 0.1956 0.8154
vn -0.5493 0.1500 0.8221
vn 0.8967 0.2407 0.3714
vn 0.9060 0.1956 0.3753
vn 0.9134 0.1500 0.3784
vn 0.1894 0.2407 -0.9520
vn 0.1913 0.1956 -0.9618
vn 0.1929 0.1500 -0.9697
vn -0.9520 0.2407 0.1894
vn -0.9618 0.1956 0.1913
vn -0.9697 0.1500 0.1929
vn 0.3714 0.2407 0.8967
vn 0.3753 0.1956 0.9060
vn 0.3784 0.1500 0.9134
vn 0.8070 0.2407 -0.5392
vn 0.8154 0.1956 -0.5448
vn 0.8221 0.1500 -0.5493
vn -0.8070 0.2407 -0.5392
vn -0.8154 0.1956 -0.5448
vn -0.8221 0.1500 -0.5493
vn -0.3714 0.2407 0.8967
vn -0.3753 0.1956 0.9060
vn -0.3784 0.1500 0.9134
vn 0.9520 0.2407 0.1894
vn 0.9618 0.1956 0.1913
vn 0.9697 0.1500 0.1929
vn -0.0000 0.2407 -0.9706
vn -0.1894 0.2407 -0.9520
vn -0.0000 0.1956 -0.9807
vn -0.1913 0.1956 -0.9618
vn -0.0000 0.1500 -0.9887
vn -0.1929 0.1500 -0.9697
vn -0.8967 0.2407 0.3714
vn -0.9060 0.1956 0.3753
vn -0.9134 0.1500 0.3784
vn 0.5392 0.2407 0.8070
vn 0.5448 0.1956 0.8154
vn 0.5493 0.1500 0.8221
vn 0.6863 0.2407 -0.6863
vn 0.6934 0.1956 -0.6934
vn 0.6991 0.1500 -0.6991
vn 0.5219 0.3428 0.7811
vn 0.3595 0.3428 0.8679
vn -0.1833 0.3428 -0.9214
vn -0.0000 0.3428 -0.9394
vn -0.7811 0.3428 -0.5219
vn -0.6643 0.3428 -0.6643
vn -0.3595 0.3428 0.8679
vn -0.5219 0.3428 0.7811
vn -0.1833 0.3428 0.9214
vn 0.1833 0.3428 0.9214
vn -0.3595 0.3428 -0.8679
vn -0.5219 0.3428 -0.7811
vn -0.6643 0.3428 0.6643
vn -0.7811 0.3428 0.5219
vn -0.8679 0.3428 -0.3595
vn 0.6643 0.3428 0.6643
vn -0.0000 0.3428 0.9394
vn 0.1833 0.3428 -0.9214
vn -0.8679 0.3428 0.3595
vn 0.5219 0.3428 -0.7811
vn 0.6643 0.3428 -0.6643
vn 0.9214 0.3428 0.1833
vn 0.8679 0.3428 0.3595
vn 0.7811 0.3428 -0.5219
vn 0.8679 0.3428 -0.3595
vn 0.3595 0.3428 -0.8679
vn -0.9214 0.3428 0.1833
vn 0.7811 0.3428 0.5219
vn 0.9394 0.3428 -0.0000
vn 0.9214 0.3428 -0.1833
vn 0.3042 0.9307 -0.2033
vn 0.2587 0.9307 -0.2587
vn -0.0000 1.0000 -0.0000
vn -0.0714 0.9307 0.3588
vn -0.0000 0.9307 0.3659
vn -0.3589 0.9307 0.0714
vn -0.3380 0.9307 0.1400
vn -0.1400 0.9307 -0.3380
vn -0.2033 0.9307 -0.3042
vn -0.3589 0.9307 -0.0714
vn -0.3659 0.9307 -0.0000
vn -0.0000 0.9307 -0.3659
vn -0.0714 0.9307 -0.3588
vn -0.2033 0.9307 0.3042
vn -0.1400 0.9307 0.3380
vn 0.3589 0.9307 0.0714
vn 0.3659 0.9307 -0.0000
vn 0.2587 0.9307 0.2587
vn 0.3042 0.9307 0.2033
vn 0.3380 0.9307 -0.1400
vn -0.3042 0.9307 0.2033
vn -0.3380 0.9307 -0.1400
vn 0.3380 0.9307 0.1400
vn 0.0714 0.9307 -0.3588
vn -0.3042 0.9307 -0.2033
vn -0.2587 0.9307 -0.2587
vn 0.2033 0.9307 -0.3042
vn 0.0714 0.9307 0.3588
vn 0.1400 0.9307 0.3380
vn 0.2033 0.9307 0.3042
vn 0.1400 0.9307 -0.3380
vn -0.2587 0.9307 0.2587
vn 0.3589 0.9307 -0.0714
vn -0.0000 -0.7804 -0.6252
vn 0.1220 -0.7804 -0.6132
vn 0.2393 -0.7804 -0.5776
vn 0.3474 -0.7804 -0.5199
vn 0.4421 -0.7804 -0.4421
vn 0.5199 -0.7804 -0.3474
vn 0.5776 -0.7804 -0.2393
vn 0.6132 -0.7804 -0.1220
vn 0.6252 -0.7804 -0.0000
vn 0.6132 -0.7804 0.1220
vn 0.5776 -0.7804 0.2393
vn 0.5199 -0.7804 0.3474
vn 0.4421 -0.7804 0.4421
vn 0.3474 -0.7804 0.5199
vn 0.2393 -0.7804 0.5776
vn 0.1220 -0.7804 0.6132
vn -0.0000 -0.7804 0.6252
vn -0.1220 -0.7804 0.6132
vn -0.2393 -0.7804 0.5776
vn -0.3474 -0.7804 0.5199
vn -0.4421 -0.7804 0.4421
vn -0.5199 -0.7804 0.3474
vn -0.5776 -0.7804 0.2393
vn -0.6132 -0.7804 0.1220
vn -0.6252 -0.7804 -0.0000
vn -0.6132 -0.7804 -0.1220
vn -0.5776 -0.7804 -0.2393
vn -0.5199 -0.7804 -0.3474
vn -0.4421 -0.7804 -0.4421
vn -0.3474 -0.7804 -0.5199
vn -0.2393 -0.7804 -0.5776
vn -0.1220 -0.7804 -0.6132
vn -0.0000 -0.2146 -0.9767
vn 0.1905 -0.2146 -0.9579
vn -0.1905 -0.2146 -0.9579
vn 0.3738 -0.2146 -0.9024
vn 0.5426 -0.2146 -0.8121
vn 0.6906 -0.2146 -0.6906
vn 0.8121 -0.2146 -0.5426
vn 0.9024 -0.2146 -0.3738
vn 0.9579 -0.2146 -0.1905
vn 0.9767 -0.2146 -0.0000
vn 0.9579 -0.2146 0.1905
vn 0.9024 -0.2146 0.3738
vn 0.8121 -0.2146 0.5426
vn 0.6906 -0.2146 0.6906
vn 0.5426 -0.2146 0.8121
vn 0.3738 -0.2146 0.9024
vn 0.1905 -0.2146 0.9579
vn -0.0000 -0.2146 0.9767
vn -0.1905 -0.2146 0.9579
vn -0.3738 -0.2146 0.9024
vn -0.5426 -0.2146 0.8121
vn -0.6906 -0.2146 0.6906
vn -0.8121 -0.2146 0.5426
vn -0.9024 -0.2146 0.3738
vn -0.9579 -0.2146 0.1905
vn -0.9767 -0.2146 -0.0000
vn -0.9579 -0.2146 -0.1905
vn -0.9024 -0.2146 -0.3738
vn -0.8121 -0.2146 -0.5426
vn -0.6906 -0.2146 -0.6906
vn -0.5426 -0.2146 -0.8121
vn -0.3738 -0.2146 -0.9024
vn -0.0000 -1.0000 -0.0000
vt 1.000000 0.500000
vt 1.000000 1.000000
vt 0.968750 1.000000
vt 0.968750 0.500000
vt 0.937500 1.000000
vt 0.937500 0.500000
vt 0.906250 1.000000
vt 0.906250 0.500000
vt 0.875000 1.000000
vt 0.875000 0.500000
vt 0.843750 1.000000
vt 0.843750 0.500000
vt 0.812500 1.000000
vt 0.812500 0.500000
vt 0.781250 1.000000
vt 0.781250 0.500000
vt 0.750000 1.000000
vt 0.750000 0.500000
vt 0.718750 1.000000
vt 0.718750 0.500000
vt 0.687500 1.000000
vt 0.687500 0.500000
vt 0.656250 1.000000
vt 0.656250 0.500000
vt 0.625000 1.000000
vt 0.625000 0.500000
vt 0.593750 1.000000
vt 0.593750 0.500000
vt 0.562500 1.000000
vt 0.562500 0.500000
vt 0.531250 1.000000
vt 0.531250 0.500000
vt 0.500000 1.000000
vt 0.500000 0.500000
vt 0.468750 1.000000
vt 0.468750 0.500000
vt 0.437500 1.000000
vt 0.437500 0.500000
vt 0.406250 1.000000
vt 0.406250 0.500000
vt 0.375000 1.000000
vt 0.375000 0.500000
vt 0.343750 1.000000
vt 0.343750 0.500000
vt 0.312500 1.000000
vt 0.312500 0.500000
vt 0.281250 1.000000
vt 0.281250 0.500000
vt 0.250000 1.000000
vt 0.250000 0.500000
vt 0.218750 1.000000
vt 0.218750 0.500000
vt 0.187500 1.000000
vt 0.187500 0.500000
vt 0.156250 1.000000
vt 0.156250 0.500000
vt 0.125000 1.000000
vt 0.125000 0.500000
vt 0.093750 1.000000
vt 0.093750 0.500000
vt 0.062500 1.000000
vt 0.062500 0.500000
vt 0.031250 1.000000
vt 0.031250 0.500000
vt 0.000000 1.000000
vt 0.000000 0.500000
vt 0.218750 1.000000
vt 0.593750 1.000000
vt 0.468750 1.000000
vt 0.031250 1.000000
vt 0.062500 1.000000
vt 0.343750 1.000000
vt 0.375000 1.000000
vt 0.531250 1.000000
vt 0.906250 1.000000
vt 0.937500 1.000000
vt 0.656250 1.000000
vt 0.750000 1.000000
vt 0.781250 1.000000
vt 0.406250 1.000000
vt 0.812500 1.000000
vt 0.093750 1.000000
vt 0.968750 1.000000
vt 0.187500 1.000000
vt 0.218750 1.000000
vt 0.187500 1.000000
vt 0.218750 1.000000
vt 0.187500 1.000000
vt 0.218750 1.000000
vt 0.218750 1.000000
vt 0.468750 1.000000
vt 0.500000 1.000000
vt 0.468750 1.000000
vt 0.500000 1.000000
vt 0.468750 1.000000
vt 0.750000 1.000000
vt 0.781250 1.000000
vt 0.062500 1.000000
vt 0.093750 1.000000
vt 0.062500 1.000000
vt 0.093750 1.000000
vt 0.062500 1.000000
vt 0.093750 1.000000
vt 0.375000 1.000000
vt 0.343750 1.000000
vt 0.375000 1.000000
vt 0.343750 1.000000
vt 0.375000 1.000000
vt 0.375000 1.000000
vt 0.625000 1.000000
vt 0.656250 1.000000
vt 0.625000 1.000000
vt 0.625000 1.000000
vt 0.656250 1.000000
vt 0.906250 1.000000
vt 0.937500 1.000000
vt 0.906250 1.000000
vt 0.937500 1.000000
vt 0.937500 1.000000
vt 0.937500 1.000000
vt 0.250000 1.000000
vt 0.250000 1.000000
vt 0.531250 1.000000
vt 0.531250 1.000000
vt 0.812500 1.000000
vt 0.125000 1.000000
vt 0.125000 1.000000
vt 0.125000 1.000000
vt 0.406250 1.000000
vt 0.687500 1.000000
vt 0.687500 1.000000
vt 0.968750 1.000000
vt 0.968750 1.000000
vt 0.968750 1.000000
vt 0.281250 1.000000
vt 0.281250 1.000000
vt 0.562500 1.000000
vt 0.843750 1.000000
vt 0.843750 1.000000
vt 0.843750 1.000000
vt 0.156250 1.000000
vt 0.156250 1.000000
vt 0.156250 1.000000
vt 0.156250 1.000000
vt 0.437500 1.000000
vt 0.718750 1.000000
vt 0.000685 1.000000
vt 0.031250 1.000000
vt 0.001862 1.000000
vt 0.031250 1.000000
vt 0.000446 1.000000
vt 0.031250 1.000000
vt 0.999315 1.000000
vt 0.998138 1.000000
vt 0.999554 1.000000
vt 0.312500 1.000000
vt 0.312500 1.000000
vt 0.312500 1.000000
vt 0.593750 1.000000
vt 0.875000 1.000000
vt 0.875000 1.000000
vt 0.750000 0.490000
vt 0.796822 0.485388
vt 0.794141 0.471909
vt 0.750000 0.476256
vt 0.841844 0.471731
vt 0.836584 0.459033
vt 0.883337 0.449553
vt 0.875701 0.438125
vt 0.919706 0.419706
vt 0.909987 0.409987
vt 0.949553 0.383337
vt 0.938125 0.375701
vt 0.971731 0.341844
vt 0.959033 0.336584
vt 0.985388 0.296822
vt 0.971909 0.294140
vt 0.990000 0.250000
vt 0.976256 0.250000
vt 0.985389 0.203178
vt 0.971909 0.205860
vt 0.971731 0.158156
vt 0.959033 0.163416
vt 0.949553 0.116663
vt 0.938125 0.124299
vt 0.919706 0.080294
vt 0.909987 0.090013
vt 0.883337 0.050447
vt 0.875701 0.061875
vt 0.841844 0.028269
vt 0.836584 0.040967
vt 0.796822 0.014612
vt 0.794141 0.028092
vt 0.750000 0.010000
vt 0.750000 0.023744
vt 0.703178 0.014612
vt 0.705860 0.028092
vt 0.658156 0.028269
vt 0.663416 0.040967
vt 0.616663 0.050447
vt 0.624299 0.061875
vt 0.580294 0.080294
vt 0.590013 0.090013
vt 0.550447 0.116663
vt 0.561875 0.124299
vt 0.528269 0.158156
vt 0.540967 0.163416
vt 0.514612 0.203178
vt 0.528092 0.205860
vt 0.510000 0.250000
vt 0.523744 0.250000
vt 0.514612 0.296822
vt 0.528092 0.294140
vt 0.528269 0.341844
vt 0.540967 0.336584
vt 0.550447 0.383337
vt 0.561875 0.375701
vt 0.580294 0.419706
vt 0.590013 0.409987
vt 0.616663 0.449553
vt 0.624299 0.438125
vt 0.658156 0.471731
vt 0.663416 0.459033
vt 0.703178 0.485388
vt 0.705860 0.471909
vt 0.937500 0.500000
vt 0.906250 0.500000
vt 0.875000 0.500000
vt 0.843750 0.500000
vt 0.812500 0.500000
vt 0.781250 0.500000
vt 0.718750 0.500000
vt 0.687500 0.500000
vt 0.656250 0.500000
vt 0.625000 0.500000
vt 0.531250 0.500000
vt 0.468750 0.500000
vt 0.343750 0.500000
vt 0.312500 0.500000
vt 0.093750 0.500000
vt 0.750000 0.326016
vt 0.764830 0.324555
vt 0.779090 0.320229
vt 0.792232 0.313205
vt 0.803751 0.303751
vt 0.813205 0.292232
vt 0.820229 0.279090
vt 0.824555 0.264830
vt 0.826016 0.250000
vt 0.824555 0.235170
vt 0.820229 0.220910
vt 0.813205 0.207768
vt 0.803751 0.196249
vt 0.792232 0.186795
vt 0.779090 0.179771
vt 0.764830 0.175445
vt 0.750000 0.173984
vt 0.735170 0.175445
vt 0.720910 0.179771
vt 0.707768 0.186795
vt 0.696249 0.196249
vt 0.686795 0.207768
vt 0.679771 0.220910
vt 0.675445 0.235170
vt 0.673985 0.250000
vt 0.675445 0.264830
vt 0.679771 0.279090
vt 0.686795 0.292232
vt 0.696249 0.303751
vt 0.707768 0.313205
vt 0.720910 0.320229
vt 0.735170 0.324555
s 1
f 1/1/1 2/2/2 4/3/3 3/4/4
f 3/4/4 4/3/3 6/5/5 5/6/6
f 5/6/6 6/5/5 8/7/7 7/8/8
f 7/8/8 8/7/7 10/9/9 9/10/10
f 9/10/10 10/9/9 12/11/11 11/12/12
f 11/12/12 12/11/11 14/13/13 13/14/14
f 13/14/14 14/13/13 243/15/15 15/16/16
f 15/16/16 243/15/15 17/17/17 16/18/18
f 16/18/18 17/17/17 157/19/19 18/20/20
f 18/20/20 157/19/19 200/21/21 19/22/22
f 19/22/22 200/21/21 21/23/23 20/24/24
f 20/24/24 21/23/23 23/25/25 22/26/26
f 22/26/26 23/25/25 25/27/27 24/28/28
f 24/28/28 25/27/27 27/29/29 26/30/30
f 26/30/30 27/29/29 29/31/31 28/32/32
f 28/32/32 29/31/31 31/33/33 30/34/34
f 30/34/34 31/33/33 33/35/35 32/36/36
f 32/36/36 33/35/35 35/37/37 34/38/38
f 34/38/38 35/37/37 37/39/39 36/40/40
f 36/40/40 37/39/39 39/41/41 38/42/42
f 38/42/42 39/41/41 137/43/43 40/44/44
f 40/44/44 137/43/43 42/45/45 41/46/46
f 41/46/46 42/45/45 44/47/47 43/48/48
f 43/48/48 44/47/47 221/49/49 45/50/50
f 45/50/50 221/49/49 252/51/51 46/52/52
f 46/52/52 252/51/51 171/53/53 47/54/54
f 47/54/54 171/53/53 175/55/55 48/56/56
f 48/56/56 175/55/55 50/57/57 49/58/58
f 49/58/58 50/57/57 238/59/59 51/60/60
f 51/60/60 238/59/59 53/61/61 52/62/62
f 52/62/62 53/61/61 55/63/63 54/64/64
f 54/64/64 55/63/63 2/65/2 1/66/1
f 102/67/65 103/49/66 63/49/67 56/67/68
f 184/29/69 132/68/70 119/68/71 101/29/72
f 209/57/73 176/55/74 95/55/75 105/57/76
f 166/37/77 162/69/78 115/69/79 88/37/80
f 149/70/81 145/71/82 89/71/83 113/70/84
f 136/72/85 234/73/86 92/73/87 112/72/88
f 176/55/74 170/53/89 104/53/90 95/55/75
f 248/33/91 217/74/92 117/74/93 100/33/94
f 141/45/95 136/72/85 112/72/88 93/45/96
f 170/53/89 253/67/97 102/67/65 104/53/90
f 201/21/98 158/19/99 90/19/100 109/21/101
f 120/75/102 226/76/103 98/76/104 107/75/105
f 230/77/106 201/21/98 109/21/101 91/77/107
f 158/19/99 153/78/108 114/78/109 90/19/100
f 153/78/108 244/79/110 99/79/111 114/78/109
f 234/73/86 205/80/112 118/80/113 92/73/87
f 244/79/110 213/81/114 108/81/115 99/79/111
f 253/67/97 222/49/116 103/49/66 102/67/65
f 192/65/117 149/70/81 113/70/84 94/65/118
f 205/80/112 166/37/77 88/37/80 118/80/113
f 217/74/92 184/29/69 101/29/72 117/74/93
f 145/71/82 239/82/119 96/82/120 89/71/83
f 239/82/119 209/57/73 105/57/76 96/82/120
f 132/68/70 128/25/121 110/25/122 119/68/71
f 196/83/123 192/2/117 94/2/118 106/83/124
f 124/9/125 120/75/102 107/75/105 116/9/126
f 162/69/78 248/33/91 100/33/94 115/69/79
f 213/81/114 180/11/127 97/11/128 108/81/115
f 222/49/116 188/47/129 111/47/130 103/49/66
f 188/47/129 141/45/95 93/45/96 111/47/130
f 180/11/127 124/9/125 116/9/126 97/11/128
f 226/76/103 196/83/123 106/83/124 98/76/104
f 253/67/97 170/53/89 172/84/131 256/85/132
f 256/85/132 172/84/131 173/86/133 255/87/134
f 255/87/134 173/86/133 174/88/135 254/89/136
f 254/89/136 174/88/135 171/53/53 252/90/51
f 248/33/91 162/69/78 163/91/137 251/92/138
f 251/92/138 163/91/137 164/93/139 250/94/140
f 250/94/140 164/93/139 165/35/141 249/94/142
f 249/94/142 165/35/141 33/95/35 31/33/33
f 244/79/110 153/78/108 154/17/143 247/15/144
f 247/15/144 154/17/143 155/96/145 246/15/146
f 246/15/146 155/96/145 156/96/147 245/97/148
f 245/97/148 156/96/147 17/17/17 243/79/15
f 239/82/119 145/71/82 146/98/149 242/99/150
f 242/99/150 146/98/149 147/100/151 241/101/152
f 241/101/152 147/100/151 148/102/153 240/103/154
f 240/103/154 148/102/153 53/61/61 238/59/59
f 234/73/86 136/72/85 138/72/155 237/104/156
f 237/104/156 138/72/155 139/105/157 236/106/158
f 236/106/158 139/105/157 140/107/159 235/108/160
f 235/108/160 140/107/159 137/107/43 39/109/41
f 230/77/106 128/25/121 129/25/161 233/77/162
f 233/77/162 129/25/161 130/110/163 232/111/164
f 232/111/164 130/110/163 131/112/165 231/23/166
f 231/23/166 131/112/165 23/113/25 21/114/23
f 226/76/103 120/75/102 121/115/167 229/116/168
f 229/116/168 121/115/167 122/117/169 228/118/170
f 228/118/170 122/117/169 123/115/171 227/119/172
f 227/119/172 123/115/171 8/75/7 6/120/5
f 222/49/116 253/67/97 256/85/132 225/121/173
f 225/121/173 256/85/132 255/87/134 224/49/174
f 224/49/174 255/87/134 254/89/136 223/122/175
f 223/122/175 254/89/136 252/90/51 221/49/49
f 217/74/92 248/33/91 251/92/138 220/74/176
f 220/74/176 251/92/138 250/94/140 219/123/177
f 219/123/177 250/94/140 249/94/142 218/124/178
f 218/124/178 249/94/142 31/33/33 29/31/31
f 213/81/114 244/79/110 247/15/144 216/81/179
f 216/81/179 247/15/144 246/15/146 215/13/180
f 215/13/180 246/15/146 245/97/148 214/125/181
f 214/125/181 245/97/148 243/79/15 14/125/13
f 209/57/73 239/82/119 242/99/150 212/126/182
f 212/126/182 242/99/150 241/101/152 211/127/183
f 211/127/183 241/101/152 240/103/154 210/128/184
f 210/128/184 240/103/154 238/59/59 50/57/57
f 205/80/112 234/73/86 237/104/156 208/129/185
f 208/129/185 237/104/156 236/106/158 207/129/186
f 207/129/186 236/106/158 235/108/160 206/39/187
f 206/39/187 235/108/160 39/109/41 37/39/39
f 201/21/98 230/77/106 233/77/162 204/130/188
f 204/130/188 233/77/162 232/111/164 203/130/189
f 203/130/189 232/111/164 231/23/166 202/131/190
f 202/131/190 231/23/166 21/114/23 200/21/21
f 196/83/123 226/76/103 229/116/168 199/132/191
f 199/132/191 229/116/168 228/118/170 198/133/192
f 198/133/192 228/118/170 227/119/172 197/134/193
f 197/134/193 227/119/172 6/120/5 4/3/3
f 188/47/129 222/49/116 225/121/173 191/135/194
f 191/135/194 225/121/173 224/49/174 190/47/195
f 190/47/195 224/49/174 223/122/175 189/136/196
f 189/136/196 223/122/175 221/49/49 44/47/47
f 184/29/69 217/74/92 220/74/176 187/137/197
f 187/137/197 220/74/176 219/123/177 186/137/198
f 186/137/198 219/123/177 218/124/178 185/29/199
f 185/29/199 218/124/178 29/31/31 27/29/29
f 180/11/127 213/81/114 216/81/179 183/138/200
f 183/138/200 216/81/179 215/13/180 182/139/201
f 182/139/201 215/13/180 214/125/181 181/138/202
f 181/138/202 214/125/181 14/125/13 12/140/11
f 176/55/74 209/57/73 212/126/182 179/141/203
f 179/141/203 212/126/182 211/127/183 178/142/204
f 178/142/204 211/127/183 210/128/184 177/143/205
f 177/143/205 210/128/184 50/57/57 175/144/55
f 166/37/77 205/80/112 208/129/185 169/37/206
f 169/37/206 208/129/185 207/129/186 168/145/207
f 168/145/207 207/129/186 206/39/187 167/37/208
f 167/37/208 206/39/187 37/39/39 35/37/37
f 158/19/99 201/21/98 204/130/188 161/19/209
f 161/19/209 204/130/188 203/130/189 160/146/210
f 160/146/210 203/130/189 202/131/190 159/146/211
f 159/146/211 202/131/190 200/21/21 157/19/19
f 149/70/81 192/65/117 193/147/212 152/148/213
f 152/148/213 193/147/212 194/149/214 151/150/215
f 151/150/215 194/149/214 195/151/216 150/152/217
f 150/152/217 195/151/216 2/65/2 55/63/63
f 192/2/117 196/83/123 199/132/191 193/153/212
f 193/153/212 199/132/191 198/133/192 194/154/214
f 194/154/214 198/133/192 197/134/193 195/155/216
f 195/155/216 197/134/193 4/3/3 2/2/2
f 141/45/95 188/47/129 191/135/194 144/156/218
f 144/156/218 191/135/194 190/47/195 143/157/219
f 143/157/219 190/47/195 189/136/196 142/158/220
f 142/158/220 189/136/196 44/47/47 42/45/45
f 132/68/70 184/29/69 187/137/197 135/159/221
f 135/159/221 187/137/197 186/137/198 134/159/222
f 134/159/222 186/137/198 185/29/199 133/27/223
f 133/27/223 185/29/199 27/29/29 25/27/27
f 124/9/125 180/11/127 183/138/200 127/160/224
f 127/160/224 183/138/200 182/139/201 126/160/225
f 126/160/225 182/139/201 181/138/202 125/161/226
f 125/161/226 181/138/202 12/140/11 10/9/9
f 170/53/89 176/55/74 179/141/203 172/84/131
f 172/84/131 179/141/203 178/142/204 173/86/133
f 173/86/133 178/142/204 177/143/205 174/88/135
f 174/88/135 177/143/205 175/144/55 171/53/53
f 162/69/78 166/37/77 169/37/206 163/91/137
f 163/91/137 169/37/206 168/145/207 164/93/139
f 164/93/139 168/145/207 167/37/208 165/35/141
f 165/35/141 167/37/208 35/37/37 33/95/35
f 153/78/108 158/19/99 161/19/209 154/17/143
f 154/17/143 161/19/209 160/146/210 155/96/145
f 155/96/145 160/146/210 159/146/211 156/96/147
f 156/96/147 159/146/211 157/19/19 17/17/17
f 145/71/82 149/70/81 152/148/213 146/98/149
f 146/98/149 152/148/213 151/150/215 147/100/151
f 147/100/151 151/150/215 150/152/217 148/102/153
f 148/102/153 150/152/217 55/63/63 53/61/61
f 136/72/85 141/45/95 144/156/218 138/72/155
f 138/72/155 144/156/218 143/157/219 139/105/157
f 139/105/157 143/157/219 142/158/220 140/107/159
f 140/107/159 142/158/220 42/45/45 137/107/43
f 128/25/121 132/68/70 135/159/221 129/25/161
f 129/25/161 135/159/221 134/159/222 130/110/163
f 130/110/163 134/159/222 133/27/223 131/112/165
f 131/112/165 133/27/223 25/27/27 23/113/25
f 120/75/102 124/9/125 127/160/224 121/115/167
f 121/115/167 127/160/224 126/160/225 122/117/169
f 122/117/169 126/160/225 125/161/226 123/115/171
f 123/115/171 125/161/226 10/9/9 8/75/7
f 101/29/72 119/68/71 84/68/227 72/29/228
f 94/65/118 113/70/84 80/70/229 70/65/230
f 105/57/76 95/55/75 74/55/231 66/57/232
f 118/80/113 88/37/80 76/37/233 67/80/234
f 88/37/80 115/69/79 77/69/235 76/37/233
f 117/74/93 101/29/72 72/29/228 64/74/236
f 113/70/84 89/71/83 81/71/237 80/70/229
f 89/71/83 96/82/120 59/82/238 81/71/237
f 112/72/88 92/73/87 60/73/239 83/72/240
f 96/82/120 105/57/76 66/57/232 59/82/238
f 95/55/75 104/53/90 75/53/241 74/55/231
f 119/68/71 110/25/122 85/25/242 84/68/227
f 100/33/94 117/74/93 64/74/236 57/33/243
f 106/83/124 94/2/118 70/2/230 69/83/244
f 93/45/96 112/72/88 83/72/240 82/45/245
f 116/9/126 107/75/105 87/75/246 86/9/247
f 104/53/90 102/67/65 56/67/68 75/53/241
f 115/69/79 100/33/94 57/33/243 77/69/235
f 109/21/101 90/19/100 78/19/248 68/21/249
f 108/81/115 97/11/128 73/11/250 65/81/251
f 107/75/105 98/76/104 62/76/252 87/75/246
f 103/49/66 111/47/130 71/47/253 63/49/67
f 91/77/107 109/21/101 68/21/249 61/77/254
f 111/47/130 93/45/96 82/45/245 71/47/253
f 128/25/121 230/77/106 91/77/107 110/25/122
f 90/19/100 114/78/109 79/78/255 78/19/248
f 97/11/128 116/9/126 86/9/247 73/11/250
f 114/78/109 99/79/111 58/79/256 79/78/255
f 98/76/104 106/83/124 69/83/244 62/76/252
f 92/73/87 118/80/113 67/80/234 60/73/239
f 99/79/111 108/81/115 65/81/251 58/79/256
f 110/25/122 91/77/107 61/77/254 85/25/242
f 73/11/257 86/9/258 257/11/259
f 77/69/260 57/33/261 257/69/259
f 71/47/262 82/45/263 257/47/259
f 81/71/264 59/82/265 257/71/259
f 56/67/266 63/49/267 257/67/259
f 70/65/268 80/70/269 257/65/259
f 67/80/270 76/37/271 257/80/259
f 78/19/272 79/78/273 257/19/259
f 85/25/274 61/77/275 257/25/259
f 65/81/276 73/11/257 257/81/259
f 82/45/263 83/72/277 257/45/259
f 75/53/278 56/67/266 257/53/259
f 63/49/267 71/47/262 257/49/259
f 68/21/279 78/19/272 257/21/259
f 61/77/275 68/21/279 257/77/259
f 69/83/280 70/2/268 257/83/259
f 74/55/281 75/53/278 257/55/259
f 59/82/265 66/57/282 257/82/259
f 86/9/258 87/75/283 257/9/259
f 57/33/261 64/74/284 257/33/259
f 72/29/285 84/68/286 257/29/259
f 87/75/283 62/76/287 257/75/259
f 62/76/287 69/83/280 257/76/259
f 66/57/282 74/55/281 257/57/259
f 83/72/277 60/73/288 257/72/259
f 84/68/286 85/25/274 257/68/259
f 79/78/273 58/79/289 257/78/259
f 58/79/289 65/81/276 257/79/259
f 80/70/269 81/71/264 257/70/259
f 64/74/284 72/29/285 257/74/259
f 60/73/288 67/80/270 257/73/259
f 76/37/271 77/69/260 257/37/259
f 259/162/290 260/163/291 291/164/291 292/165/290
f 260/163/291 261/166/292 293/167/292 291/164/291
f 261/166/292 262/168/293 294/169/293 293/167/292
f 262/168/293 263/170/294 295/171/294 294/169/293
f 263/170/294 264/172/295 296/173/295 295/171/294
f 264/172/295 265/174/296 297/175/296 296/173/295
f 265/174/296 266/176/297 298/177/297 297/175/296
f 266/176/297 267/178/298 299/179/298 298/177/297
f 267/178/298 268/180/299 300/181/299 299/179/298
f 268/180/299 269/182/300 301/183/300 300/181/299
f 269/182/300 270/184/301 302/185/301 301/183/300
f 270/184/301 271/186/302 303/187/302 302/185/301
f 271/186/302 272/188/303 304/189/303 303/187/302
f 272/188/303 273/190/304 305/191/304 304/189/303
f 273/190/304 274/192/305 306/193/305 305/191/304
f 274/192/305 275/194/306 307/195/306 306/193/305
f 275/194/306 276/196/307 308/197/307 307/195/306
f 276/196/307 277/198/308 309/199/308 308/197/307
f 277/198/308 278/200/309 310/201/309 309/199/308
f 278/200/309 279/202/310 311/203/310 310/201/309
f 279/202/310 280/204/311 312/205/311 311/203/310
f 280/204/311 281/206/312 313/207/312 312/205/311
f 281/206/312 282/208/313 314/209/313 313/207/312
f 282/208/313 283/210/314 315/211/314 314/209/313
f 283/210/314 284/212/315 316/213/315 315/211/314
f 284/212/315 285/214/316 317/215/316 316/213/315
f 285/214/316 286/216/317 318/217/317 317/215/316
f 286/216/317 287/218/318 319/219/318 318/217/317
f 287/218/318 288/220/319 320/221/319 319/219/318
f 288/220/319 289/222/320 321/223/320 320/221/319
f 289/222/320 290/224/321 322/225/321 321/223/320
f 290/224/321 259/162/290 292/165/290 322/225/321
f 1/1/322 3/4/323 260/4/323 259/1/322
f 54/64/324 1/66/322 259/66/322 290/64/324
f 3/4/323 5/6/325 261/226/325 260/4/323
f 5/6/325 7/8/326 262/227/326 261/226/325
f 7/8/326 9/10/327 263/228/327 262/227/326
f 9/10/327 11/12/328 264/229/328 263/228/327
f 11/12/328 13/14/329 265/230/329 264/229/328
f 13/14/329 15/16/330 266/231/330 265/230/329
f 15/16/330 16/18/331 267/18/331 266/231/330
f 16/18/331 18/20/332 268/232/332 267/18/331
f 18/20/332 19/22/333 269/233/333 268/232/332
f 19/22/333 20/24/334 270/234/334 269/233/333
f 20/24/334 22/26/335 271/235/335 270/234/334
f 22/26/335 24/28/336 272/28/336 271/235/335
f 24/28/336 26/30/337 273/30/337 272/28/336
f 26/30/337 28/32/338 274/236/338 273/30/337
f 28/32/338 30/34/339 275/34/339 274/236/338
f 30/34/339 32/36/340 276/237/340 275/34/339
f 32/36/340 34/38/341 277/38/341 276/237/340
f 34/38/341 36/40/342 278/40/342 277/38/341
f 36/40/342 38/42/343 279/42/343 278/40/342
f 38/42/343 40/44/344 280/238/344 279/42/343
f 40/44/344 41/46/345 281/239/345 280/238/344
f 41/46/345 43/48/346 282/48/346 281/239/345
f 43/48/346 45/50/347 283/50/347 282/48/346
f 45/50/347 46/52/348 284/52/348 283/50/347
f 46/52/348 47/54/349 285/54/349 284/52/348
f 47/54/349 48/56/350 286/56/350 285/54/349
f 48/56/350 49/58/351 287/58/351 286/56/350
f 49/58/351 51/60/352 288/240/352 287/58/351
f 51/60/352 52/62/353 289/62/353 288/240/352
f 52/62/353 54/64/324 290/64/324 289/62/353
f 258/241/354 292/165/354 291/164/354
f 258/242/354 291/164/354 293/167/354
f 258/243/354 293/167/354 294/169/354
f 258/244/354 294/169/354 295/171/354
f 258/245/354 295/171/354 296/173/354
f 258/246/354 296/173/354 297/175/354
f 258/247/354 297/175/354 298/177/354
f 258/248/354 298/177/354 299/179/354
f 258/249/354 299/179/354 300/181/354
f 258/250/354 300/181/354 301/183/354
f 258/251/354 301/183/354 302/185/354
f 258/252/354 302/185/354 303/187/354
f 258/253/354 303/187/354 304/189/354
f 258/254/354 304/189/354 305/191/354
f 258/255/354 305/191/354 306/193/354
f 258/256/354 306/193/354 307/195/354
f 258/257/354 307/195/354 308/197/354
f 258/258/354 308/197/354 309/199/354
f 258/259/354 309/199/354 310/201/354
f 258/260/354 310/201/354 311/203/354
f 258/261/354 311/203/354 312/205/354
f 258/262/354 312/205/354 313/207/354
f 258/263/354 313/207/354 314/209/354
f 258/264/354 314/209/354 315/211/354
f 258/265/354 315/211/354 316/213/354
f 258/266/354 316/213/354 317/215/354
f 258/267/354 317/215/354 318/217/354
f 258/268/354 318/217/354 319/219/354
f 258/269/354 319/219/354 320/221/354
f 258/270/354 320/221/354 321/223/354
f 258/271/354 321/223/354 322/225/354
f 258/272/354 322/225/354 292/165/354
