# Blender 4.5.1 LTS
# www.blender.org
o Bullet-Pistol-Sabot.Dart
v 0.000000 0.305000 -0.051745
v 0.010095 0.305000 -0.050751
v 0.019802 0.305000 -0.047807
v 0.028748 0.305000 -0.043025
v 0.036590 0.305000 -0.036590
v 0.043025 0.305000 -0.028748
v 0.047807 0.305000 -0.019802
v 0.050751 0.305000 -0.010095
v 0.051745 0.305000 0.000000
v 0.050751 0.305000 0.010095
v 0.047807 0.305000 0.019802
v 0.043025 0.305000 0.028748
v 0.036590 0.305000 0.036590
v 0.028748 0.305000 0.043025
v 0.019802 0.305000 0.047807
v 0.010095 0.305000 0.050751
v 0.000000 0.305000 0.051745
v -0.010095 0.305000 0.050751
v -0.019802 0.305000 0.047807
v -0.028748 0.305000 0.043025
v -0.036590 0.305000 0.036590
v -0.043025 0.305000 0.028748
v -0.047807 0.305000 0.019802
v -0.050751 0.305000 0.010095
v -0.051745 0.305000 0.000000
v -0.050751 0.305000 -0.010095
v -0.047807 0.305000 -0.019802
v -0.043025 0.305000 -0.028748
v -0.036590 0.305000 -0.036590
v -0.028748 0.305000 -0.043025
v -0.019802 0.305000 -0.047807
v -0.010095 0.305000 -0.050751
v 0.000000 0.394500 -0.003443
v 0.000672 0.394500 -0.003377
v 0.001318 0.394500 -0.003181
v 0.001913 0.394500 -0.002863
v 0.002435 0.394500 -0.002435
v 0.002863 0.394500 -0.001913
v 0.003181 0.394500 -0.001318
v 0.003377 0.394500 -0.000672
v 0.003443 0.394500 -0.000000
v 0.003377 0.394500 0.000672
v 0.003181 0.394500 0.001318
v 0.002863 0.394500 0.001913
v 0.002435 0.394500 0.002435
v 0.001913 0.394500 0.002863
v 0.001318 0.394500 0.003181
v 0.000672 0.394500 0.003377
v 0.000000 0.394500 0.003443
v -0.000672 0.394500 0.003377
v -0.001318 0.394500 0.003181
v -0.001913 0.394500 0.002863
v -0.002435 0.394500 0.002435
v -0.002863 0.394500 0.001913
v -0.003181 0.394500 0.001318
v -0.003377 0.394500 0.000672
v -0.003443 0.394500 -0.000000
v -0.003377 0.394500 -0.000672
v -0.003181 0.394500 -0.001318
v -0.002863 0.394500 -0.001913
v -0.002435 0.394500 -0.002435
v -0.001913 0.394500 -0.002863
v -0.001318 0.394500 -0.003181
v -0.000672 0.394500 -0.003377
v 0.000002 0.395500 -0.000000
v 0.000002 0.395500 -0.000000
v 0.000002 0.395500 -0.000000
v 0.000002 0.395500 -0.000000
v 0.000002 0.395500 -0.000000
v 0.000002 0.395500 -0.000000
v 0.000002 0.395500 -0.000000
v 0.000002 0.395500 -0.000000
v 0.000002 0.395500 -0.000000
v 0.000002 0.395500 -0.000000
v 0.000002 0.395500 -0.000000
v 0.000002 0.395500 -0.000000
v 0.000002 0.395500 -0.000000
v 0.000002 0.395500 -0.000000
v 0.000002 0.395500 -0.000000
v 0.000002 0.395500 -0.000000
v 0.000002 0.395500 -0.000000
v 0.000002 0.395500 -0.000000
v 0.000002 0.395500 -0.000000
v 0.000002 0.395500 -0.000000
v 0.000002 0.395500 -0.000000
v 0.000002 0.395500 -0.000000
v 0.000002 0.395500 -0.000000
v 0.000002 0.395500 -0.000000
v 0.000002 0.395500 -0.000000
v 0.000002 0.395500 -0.000000
v 0.000002 0.395500 -0.000000
v 0.000002 0.395500 -0.000000
v 0.000002 0.395500 -0.000000
v 0.000002 0.395500 -0.000000
v 0.000002 0.395500 -0.000000
v 0.000002 0.395500 -0.000000
v 0.035645 0.334834 -0.000000
v 0.019544 0.364667 -0.000000
v 0.019168 0.364667 0.003813
v 0.034960 0.334834 0.006954
v -0.032931 0.334834 0.013641
v -0.018056 0.364667 0.007479
v -0.019168 0.364667 0.003813
v -0.034960 0.334834 0.006954
v 0.018056 0.364667 0.007479
v 0.032931 0.334834 0.013641
v -0.019544 0.364667 -0.000000
v -0.035645 0.334834 -0.000000
v 0.016250 0.364667 0.010858
v 0.029637 0.334834 0.019803
v -0.019168 0.364667 -0.003813
v -0.034960 0.334834 -0.006954
v 0.013820 0.364667 0.013820
v 0.025205 0.334834 0.025205
v -0.018056 0.364667 -0.007479
v -0.032931 0.334834 -0.013641
v 0.010858 0.364667 0.016250
v 0.019803 0.334834 0.029637
v -0.016250 0.364667 -0.010858
v -0.029637 0.334834 -0.019803
v 0.007479 0.364667 0.018056
v 0.013641 0.334834 0.032931
v 0.000000 0.334834 -0.035645
v 0.000000 0.364667 -0.019544
v 0.003813 0.364667 -0.019168
v 0.006954 0.334834 -0.034960
v -0.013820 0.364667 -0.013820
v -0.025205 0.334834 -0.025205
v 0.003813 0.364667 0.019168
v 0.006954 0.334834 0.034960
v 0.007479 0.364667 -0.018056
v 0.013641 0.334834 -0.032931
v -0.010858 0.364667 -0.016250
v -0.019803 0.334834 -0.029637
v 0.000000 0.364667 0.019544
v 0.000000 0.334834 0.035645
v 0.010858 0.364667 -0.016250
v 0.019803 0.334834 -0.029637
v -0.007479 0.364667 -0.018056
v -0.013641 0.334834 -0.032931
v -0.003813 0.364667 0.019168
v -0.006954 0.334834 0.034960
v 0.013820 0.364667 -0.013820
v 0.025205 0.334834 -0.025205
v -0.003813 0.364667 -0.019168
v -0.006954 0.334834 -0.034960
v -0.007479 0.364667 0.018056
v -0.013641 0.334834 0.032931
v 0.016250 0.364667 -0.010858
v 0.029637 0.334834 -0.019803
v -0.010858 0.364667 0.016250
v -0.019803 0.334834 0.029637
v 0.018056 0.364667 -0.007479
v 0.032931 0.334834 -0.013641
v -0.013820 0.364667 0.013820
v -0.025205 0.334834 0.025205
v 0.019168 0.364667 -0.003813
v 0.034960 0.334834 -0.006954
v -0.016250 0.364667 0.010858
v -0.029637 0.334834 0.019803
v 0.000000 0.150000 0.000000
v 0.010095 0.150000 -0.050751
v 0.000000 0.150000 -0.051745
v 0.019802 0.150000 -0.047807
v 0.028748 0.150000 -0.043025
v 0.036590 0.150000 -0.036590
v 0.043025 0.150000 -0.028748
v 0.047807 0.150000 -0.019802
v 0.050751 0.150000 -0.010095
v 0.051745 0.150000 0.000000
v 0.050751 0.150000 0.010095
v 0.047807 0.150000 0.019802
v 0.043025 0.150000 0.028748
v 0.036590 0.150000 0.036590
v 0.028748 0.150000 0.043025
v 0.019802 0.150000 0.047807
v 0.010095 0.150000 0.050751
v 0.000000 0.150000 0.051745
v -0.010095 0.150000 0.050751
v -0.019802 0.150000 0.047807
v -0.028748 0.150000 0.043025
v -0.036590 0.150000 0.036590
v -0.043025 0.150000 0.028748
v -0.047807 0.150000 0.019802
v -0.050751 0.150000 0.010095
v -0.051745 0.150000 0.000000
v -0.050751 0.150000 -0.010095
v -0.047807 0.150000 -0.019802
v -0.043025 0.150000 -0.028748
v -0.036590 0.150000 -0.036590
v -0.028748 0.150000 -0.043025
v -0.019802 0.150000 -0.047807
v -0.010095 0.150000 -0.050751
vn 0.8631 0.4749 0.1717
vn 0.8800 0.4749 -0.0000
vn 0.1973 0.9603 0.1974
vn 0.2321 0.9603 0.1551
vn 0.1660 0.9803 0.1073
vn 0.1327 0.9822 0.1327
vn -0.8631 0.4749 0.1717
vn -0.8130 0.4749 0.3368
vn 0.8130 0.4749 0.3368
vn -0.8800 0.4749 -0.0000
vn 0.7317 0.4749 0.4889
vn -0.8631 0.4749 -0.1717
vn 0.6223 0.4749 0.6223
vn -0.8130 0.4749 -0.3368
vn 0.4889 0.4749 0.7317
vn -0.7317 0.4749 -0.4889
vn 0.3368 0.4749 0.8130
vn 0.1717 0.4749 -0.8631
vn -0.0000 0.4749 -0.8800
vn -0.6223 0.4749 -0.6223
vn 0.1717 0.4749 0.8631
vn 0.3368 0.4749 -0.8130
vn -0.4889 0.4749 -0.7317
vn -0.0000 0.4749 0.8800
vn 0.4889 0.4749 -0.7317
vn -0.3368 0.4749 -0.8130
vn -0.1717 0.4749 0.8631
vn 0.6223 0.4749 -0.6223
vn -0.1717 0.4749 -0.8631
vn -0.3368 0.4749 0.8130
vn 0.7317 0.4749 -0.4889
vn -0.4889 0.4749 0.7317
vn 0.8130 0.4749 -0.3368
vn -0.6223 0.4749 0.6223
vn 0.8631 0.4749 -0.1717
vn -0.7317 0.4749 0.4889
vn 0.0366 0.9822 -0.1841
vn -0.0000 0.9822 -0.1877
vn -0.0366 0.9822 -0.1840
vn -0.0718 0.9822 -0.1733
vn -0.1042 0.9822 -0.1560
vn -0.1327 0.9822 -0.1327
vn -0.1434 0.9846 -0.1003
vn -0.1789 0.9809 -0.0763
vn -0.1877 0.9816 -0.0362
vn -0.2789 0.9603 -0.0000
vn -0.1800 0.9830 0.0370
vn -0.1668 0.9838 0.0665
vn -0.1658 0.9803 0.1073
vn -0.1326 0.9822 0.1327
vn -0.1042 0.9822 0.1560
vn -0.0718 0.9822 0.1733
vn -0.0366 0.9822 0.1840
vn -0.0000 0.9822 0.1877
vn 0.0366 0.9822 0.1841
vn 0.0719 0.9822 0.1734
vn 0.1043 0.9822 0.1561
vn 0.1669 0.9837 0.0665
vn 0.1801 0.9830 0.0370
vn 0.2791 0.9603 -0.0000
vn 0.1878 0.9815 -0.0363
vn 0.1790 0.9809 -0.0764
vn 0.1435 0.9845 -0.1004
vn 0.1327 0.9822 -0.1327
vn 0.1043 0.9822 -0.1561
vn 0.0718 0.9822 -0.1734
vn -0.2577 0.9603 -0.1067
vn -0.2736 0.9603 -0.0544
vn 0.1551 0.9603 0.2321
vn -0.2319 0.9603 -0.1550
vn 0.1068 0.9603 0.2578
vn 0.0544 0.9603 -0.2737
vn -0.0000 0.9603 -0.2790
vn -0.1973 0.9603 -0.1972
vn 0.0544 0.9603 0.2737
vn 0.1068 0.9603 -0.2578
vn -0.1550 0.9603 -0.2319
vn -0.0000 0.9603 0.2790
vn 0.1551 0.9603 -0.2321
vn -0.1067 0.9603 -0.2577
vn -0.0544 0.9603 0.2736
vn 0.1973 0.9603 -0.1974
vn -0.0544 0.9603 -0.2736
vn -0.1068 0.9603 0.2577
vn 0.2321 0.9603 -0.1551
vn -0.1550 0.9603 0.2319
vn 0.2579 0.9603 -0.1068
vn -0.1972 0.9603 0.1972
vn 0.2738 0.9603 -0.0545
vn -0.2319 0.9603 0.1550
vn -0.2577 0.9603 0.1067
vn 0.2738 0.9603 0.0545
vn -0.2736 0.9603 0.0544
vn 0.2579 0.9603 0.1068
vn 0.1951 -0.0000 0.9808
vn -0.0000 -0.0000 1.0000
vn 0.3827 -0.0000 -0.9239
vn 0.5556 -0.0000 -0.8315
vn -0.5556 -0.0000 -0.8315
vn -0.3827 -0.0000 -0.9239
vn -0.1951 -0.0000 0.9808
vn 0.7071 -0.0000 -0.7071
vn -0.1951 -0.0000 -0.9808
vn -0.3827 -0.0000 0.9239
vn 0.8315 -0.0000 -0.5556
vn -0.0000 -0.0000 -1.0000
vn -0.5556 -0.0000 0.8315
vn 0.9239 -0.0000 -0.3827
vn -0.7071 -0.0000 0.7071
vn 0.9808 -0.0000 -0.1951
vn -0.8315 -0.0000 0.5556
vn 1.0000 -0.0000 -0.0000
vn -0.9239 -0.0000 0.3827
vn 0.9808 -0.0000 0.1951
vn -0.9808 -0.0000 0.1951
vn 0.9239 -0.0000 0.3827
vn -1.0000 -0.0000 -0.0000
vn 0.8315 -0.0000 0.5556
vn -0.9808 -0.0000 -0.1951
vn 0.7071 -0.0000 0.7071
vn -0.9239 -0.0000 -0.3827
vn 0.5556 -0.0000 0.8315
vn -0.8315 -0.0000 -0.5556
vn 0.3827 -0.0000 0.9239
vn 0.1951 -0.0000 -0.9808
vn -0.7071 -0.0000 -0.7071
vn -0.0000 -1.0000 -0.0000
vt 0.432335 0.213731
vt 0.435907 0.250000
vt 0.435907 0.250000
vt 0.381456 0.118544
vt 0.404576 0.146715
vt 0.067665 0.213731
vt 0.078244 0.178856
vt 0.067665 0.213731
vt 0.421756 0.178856
vt 0.421756 0.178856
vt 0.064093 0.250000
vt 0.064093 0.250000
vt 0.404576 0.146715
vt 0.067665 0.286269
vt 0.067665 0.286269
vt 0.078244 0.321144
vt 0.353285 0.095424
vt 0.353285 0.095424
vt 0.095424 0.353285
vt 0.095424 0.353285
vt 0.321144 0.078244
vt 0.286269 0.432335
vt 0.250000 0.435908
vt 0.118544 0.381456
vt 0.286269 0.067665
vt 0.321144 0.421756
vt 0.146715 0.404576
vt 0.146715 0.404576
vt 0.250000 0.064093
vt 0.250000 0.064093
vt 0.353285 0.404576
vt 0.178856 0.421756
vt 0.213731 0.067665
vt 0.381456 0.381456
vt 0.381456 0.381456
vt 0.213731 0.432335
vt 0.213731 0.432335
vt 0.178856 0.078244
vt 0.178856 0.078244
vt 0.404576 0.353285
vt 0.404576 0.353285
vt 0.146715 0.095424
vt 0.421756 0.321144
vt 0.421756 0.321144
vt 0.118544 0.118544
vt 0.432335 0.286269
vt 0.095424 0.146715
vt 0.095424 0.146715
vt 0.250000 0.332940
vt 0.266181 0.331346
vt 0.281740 0.326627
vt 0.296079 0.318962
vt 0.308648 0.308648
vt 0.318962 0.296079
vt 0.326627 0.281740
vt 0.331346 0.266181
vt 0.332940 0.250000
vt 0.331346 0.233819
vt 0.326627 0.218260
vt 0.318962 0.203921
vt 0.308648 0.191352
vt 0.296079 0.181038
vt 0.281740 0.173373
vt 0.266181 0.168654
vt 0.250000 0.167060
vt 0.233819 0.168654
vt 0.218260 0.173373
vt 0.203921 0.181038
vt 0.191352 0.191352
vt 0.181038 0.203921
vt 0.173373 0.218260
vt 0.168653 0.233819
vt 0.167060 0.250000
vt 0.168654 0.266181
vt 0.173373 0.281740
vt 0.181038 0.296079
vt 0.191353 0.308648
vt 0.203921 0.318962
vt 0.218260 0.326627
vt 0.233819 0.331347
s 1
f 99/1/1 98/2/2 41/3/2 42/1/1
f 45/4/3 44/5/4 76/5/5 77/4/6
f 103/6/7 102/7/8 55/7/8 56/8/7
f 105/9/9 99/1/1 42/1/1 43/10/9
f 107/11/10 103/6/7 56/8/7 57/12/10
f 109/13/11 105/9/9 43/10/9 44/5/11
f 111/14/12 107/11/10 57/12/10 58/15/12
f 113/4/13 109/13/11 44/5/11 45/4/13
f 115/16/14 111/14/12 58/15/12 59/16/14
f 117/17/15 113/4/13 45/4/13 46/18/15
f 119/19/16 115/16/14 59/16/14 60/20/16
f 121/21/17 117/17/15 46/18/15 47/21/17
f 125/22/18 124/23/19 33/23/19 34/22/18
f 127/24/20 119/19/16 60/20/16 61/24/20
f 129/25/21 121/21/17 47/21/17 48/25/21
f 131/26/22 125/22/18 34/22/18 35/26/22
f 133/27/23 127/24/20 61/24/20 62/28/23
f 135/29/24 129/25/21 48/25/21 49/30/24
f 137/31/25 131/26/22 35/26/22 36/31/25
f 139/32/26 133/27/23 62/28/23 63/32/26
f 141/33/27 135/29/24 49/30/24 50/33/27
f 143/34/28 137/31/25 36/31/25 37/35/28
f 145/36/29 139/32/26 63/32/26 64/37/29
f 147/38/30 141/33/27 50/33/27 51/39/30
f 149/40/31 143/34/28 37/35/28 38/41/31
f 124/23/19 145/36/29 64/37/29 33/23/19
f 151/42/32 147/38/30 51/39/30 52/42/32
f 153/43/33 149/40/31 38/41/31 39/44/33
f 155/45/34 151/42/32 52/42/32 53/45/34
f 157/46/35 153/43/33 39/44/33 40/46/35
f 159/47/36 155/45/34 53/45/34 54/48/36
f 98/2/2 157/46/35 40/46/35 41/3/2
f 102/7/8 159/47/36 54/48/36 55/7/8
f 66/22/37 65/23/38 96/37/39 95/32/40 94/28/41 93/24/42 92/20/43 91/16/44 90/15/45 89/12/46 88/8/47 87/7/48 86/48/49 85/45/50 84/42/51 83/39/52 82/33/53 81/30/54 80/25/55 79/21/56 78/18/57 77/4/6 76/5/5 75/10/58 74/1/59 73/3/60 72/46/61 71/44/62 70/41/63 69/35/64 68/31/65 67/26/66
f 59/16/67 58/15/68 90/15/45 91/16/44
f 46/18/69 45/4/3 77/4/6 78/18/57
f 60/20/70 59/16/67 91/16/44 92/20/43
f 47/21/71 46/18/69 78/18/57 79/21/56
f 34/22/72 33/23/73 65/23/38 66/22/37
f 61/24/74 60/20/70 92/20/43 93/24/42
f 48/25/75 47/21/71 79/21/56 80/25/55
f 35/26/76 34/22/72 66/22/37 67/26/66
f 62/28/77 61/24/74 93/24/42 94/28/41
f 49/30/78 48/25/75 80/25/55 81/30/54
f 36/31/79 35/26/76 67/26/66 68/31/65
f 63/32/80 62/28/77 94/28/41 95/32/40
f 50/33/81 49/30/78 81/30/54 82/33/53
f 37/35/82 36/31/79 68/31/65 69/35/64
f 64/37/83 63/32/80 95/32/40 96/37/39
f 51/39/84 50/33/81 82/33/53 83/39/52
f 38/41/85 37/35/82 69/35/64 70/41/63
f 33/23/73 64/37/83 96/37/39 65/23/38
f 52/42/86 51/39/84 83/39/52 84/42/51
f 39/44/87 38/41/85 70/41/63 71/44/62
f 53/45/88 52/42/86 84/42/51 85/45/50
f 40/46/89 39/44/87 71/44/62 72/46/61
f 54/48/90 53/45/88 85/45/50 86/48/49
f 41/3/60 40/46/89 72/46/61 73/3/60
f 55/7/91 54/48/90 86/48/49 87/7/48
f 42/1/92 41/3/60 73/3/60 74/1/59
f 56/8/93 55/7/91 87/7/48 88/8/47
f 43/10/94 42/1/92 74/1/59 75/10/58
f 57/12/46 56/8/93 88/8/47 89/12/46
f 44/5/4 43/10/94 75/10/58 76/5/5
f 58/15/68 57/12/46 89/12/46 90/15/45
f 23/7/8 22/48/36 160/48/36 101/7/8
f 101/7/8 160/48/36 159/47/36 102/7/8
f 9/3/2 8/46/35 158/46/35 97/2/2
f 97/2/2 158/46/35 157/46/35 98/2/2
f 22/48/36 21/45/34 156/45/34 160/48/36
f 160/48/36 156/45/34 155/45/34 159/47/36
f 8/46/35 7/44/33 154/44/33 158/46/35
f 158/46/35 154/44/33 153/43/33 157/46/35
f 21/45/34 20/42/32 152/42/32 156/45/34
f 156/45/34 152/42/32 151/42/32 155/45/34
f 7/44/33 6/41/31 150/41/31 154/44/33
f 154/44/33 150/41/31 149/40/31 153/43/33
f 20/42/32 19/39/30 148/38/30 152/42/32
f 152/42/32 148/38/30 147/38/30 151/42/32
f 1/23/19 32/37/29 146/37/29 123/23/19
f 123/23/19 146/37/29 145/36/29 124/23/19
f 6/41/31 5/35/28 144/35/28 150/41/31
f 150/41/31 144/35/28 143/34/28 149/40/31
f 19/39/30 18/33/27 142/33/27 148/38/30
f 148/38/30 142/33/27 141/33/27 147/38/30
f 32/37/29 31/32/26 140/32/26 146/37/29
f 146/37/29 140/32/26 139/32/26 145/36/29
f 5/35/28 4/31/25 138/31/25 144/35/28
f 144/35/28 138/31/25 137/31/25 143/34/28
f 18/33/27 17/30/24 136/29/24 142/33/27
f 142/33/27 136/29/24 135/29/24 141/33/27
f 31/32/26 30/28/23 134/27/23 140/32/26
f 140/32/26 134/27/23 133/27/23 139/32/26
f 4/31/25 3/26/22 132/26/22 138/31/25
f 138/31/25 132/26/22 131/26/22 137/31/25
f 17/30/24 16/25/21 130/25/21 136/29/24
f 136/29/24 130/25/21 129/25/21 135/29/24
f 30/28/23 29/24/20 128/24/20 134/27/23
f 134/27/23 128/24/20 127/24/20 133/27/23
f 3/26/22 2/22/18 126/22/18 132/26/22
f 132/26/22 126/22/18 125/22/18 131/26/22
f 16/25/21 15/21/17 122/21/17 130/25/21
f 130/25/21 122/21/17 121/21/17 129/25/21
f 29/24/20 28/20/16 120/19/16 128/24/20
f 128/24/20 120/19/16 119/19/16 127/24/20
f 2/22/18 1/23/19 123/23/19 126/22/18
f 126/22/18 123/23/19 124/23/19 125/22/18
f 15/21/17 14/18/15 118/17/15 122/21/17
f 122/21/17 118/17/15 117/17/15 121/21/17
f 28/20/16 27/16/14 116/16/14 120/19/16
f 120/19/16 116/16/14 115/16/14 119/19/16
f 14/18/15 13/4/13 114/4/13 118/17/15
f 118/17/15 114/4/13 113/4/13 117/17/15
f 27/16/14 26/15/12 112/14/12 116/16/14
f 116/16/14 112/14/12 111/14/12 115/16/14
f 13/4/13 12/5/11 110/13/11 114/4/13
f 114/4/13 110/13/11 109/13/11 113/4/13
f 26/15/12 25/12/10 108/11/10 112/14/12
f 112/14/12 108/11/10 107/11/10 111/14/12
f 12/5/11 11/10/9 106/9/9 110/13/11
f 110/13/11 106/9/9 105/9/9 109/13/11
f 25/12/10 24/8/7 104/6/7 108/11/10
f 108/11/10 104/6/7 103/6/7 107/11/10
f 11/10/9 10/1/1 100/1/1 106/9/9
f 106/9/9 100/1/1 99/1/1 105/9/9
f 24/8/7 23/7/8 101/7/8 104/6/7
f 104/6/7 101/7/8 102/7/8 103/6/7
f 10/1/1 9/3/2 97/2/2 100/1/1
f 100/1/1 97/2/2 98/2/2 99/1/1
f 16/25/95 17/30/96 178/30/96 177/25/95
f 3/26/97 4/31/98 165/31/98 164/26/97
f 30/28/99 31/32/100 192/32/100 191/28/99
f 17/30/96 18/33/101 179/33/101 178/30/96
f 4/31/98 5/35/102 166/35/102 165/31/98
f 31/32/100 32/37/103 193/37/103 192/32/100
f 18/33/101 19/39/104 180/39/104 179/33/101
f 5/35/102 6/41/105 167/41/105 166/35/102
f 32/37/103 1/23/106 163/23/106 193/37/103
f 19/39/104 20/42/107 181/42/107 180/39/104
f 6/41/105 7/44/108 168/44/108 167/41/105
f 20/42/107 21/45/109 182/45/109 181/42/107
f 7/44/108 8/46/110 169/46/110 168/44/108
f 21/45/109 22/48/111 183/48/111 182/45/109
f 8/46/110 9/3/112 170/3/112 169/46/110
f 22/48/111 23/7/113 184/7/113 183/48/111
f 9/3/112 10/1/114 171/1/114 170/3/112
f 23/7/113 24/8/115 185/8/115 184/7/113
f 10/1/114 11/10/116 172/10/116 171/1/114
f 24/8/115 25/12/117 186/12/117 185/8/115
f 11/10/116 12/5/118 173/5/118 172/10/116
f 25/12/117 26/15/119 187/15/119 186/12/117
f 12/5/118 13/4/120 174/4/120 173/5/118
f 26/15/119 27/16/121 188/16/121 187/15/119
f 13/4/120 14/18/122 175/18/122 174/4/120
f 27/16/121 28/20/123 189/20/123 188/16/121
f 14/18/122 15/21/124 176/21/124 175/18/122
f 1/23/106 2/22/125 162/22/125 163/23/106
f 28/20/123 29/24/126 190/24/126 189/20/123
f 15/21/124 16/25/95 177/25/95 176/21/124
f 2/22/125 3/26/97 164/26/97 162/22/125
f 29/24/126 30/28/99 191/28/99 190/24/126
f 161/49/127 163/23/127 162/22/127
f 161/50/127 162/22/127 164/26/127
f 161/51/127 164/26/127 165/31/127
f 161/52/127 165/31/127 166/35/127
f 161/53/127 166/35/127 167/41/127
f 161/54/127 167/41/127 168/44/127
f 161/55/127 168/44/127 169/46/127
f 161/56/127 169/46/127 170/3/127
f 161/57/127 170/3/127 171/1/127
f 161/58/127 171/1/127 172/10/127
f 161/59/127 172/10/127 173/5/127
f 161/60/127 173/5/127 174/4/127
f 161/61/127 174/4/127 175/18/127
f 161/62/127 175/18/127 176/21/127
f 161/63/127 176/21/127 177/25/127
f 161/64/127 177/25/127 178/30/127
f 161/65/127 178/30/127 179/33/127
f 161/66/127 179/33/127 180/39/127
f 161/67/127 180/39/127 181/42/127
f 161/68/127 181/42/127 182/45/127
f 161/69/127 182/45/127 183/48/127
f 161/70/127 183/48/127 184/7/127
f 161/71/127 184/7/127 185/8/127
f 161/72/127 185/8/127 186/12/127
f 161/73/127 186/12/127 187/15/127
f 161/74/127 187/15/127 188/16/127
f 161/75/127 188/16/127 189/20/127
f 161/76/127 189/20/127 190/24/127
f 161/77/127 190/24/127 191/28/127
f 161/78/127 191/28/127 192/32/127
f 161/79/127 192/32/127 193/37/127
f 161/80/127 193/37/127 163/23/127
