# Blender 4.5.1 LTS
# www.blender.org
o Bullet-Rifle-Sabot
v 0.000000 0.000000 -0.096986
v 0.000000 0.350000 -0.100000
v 0.018921 0.000000 -0.095123
v 0.019509 0.350000 -0.098079
v 0.037115 0.000000 -0.089603
v 0.038268 0.350000 -0.092388
v 0.053883 0.000000 -0.080641
v 0.055557 0.350000 -0.083147
v 0.068580 0.000000 -0.068580
v 0.070711 0.350000 -0.070711
v 0.080641 0.000000 -0.053883
v 0.083147 0.350000 -0.055557
v 0.089603 0.000000 -0.037115
v 0.092388 0.350000 -0.038268
v 0.095123 0.000000 -0.018921
v 0.098079 0.350000 -0.019509
v 0.096986 0.000000 0.000000
v 0.100000 0.350000 0.000000
v 0.095123 0.000000 0.018921
v 0.098079 0.350000 0.019509
v 0.089603 0.000000 0.037115
v 0.092388 0.350000 0.038268
v 0.080641 0.000000 0.053883
v 0.083147 0.350000 0.055557
v 0.068580 0.000000 0.068580
v 0.070711 0.350000 0.070711
v 0.053883 0.000000 0.080641
v 0.055557 0.350000 0.083147
v 0.037115 0.000000 0.089603
v 0.038268 0.350000 0.092388
v 0.018921 0.000000 0.095123
v 0.019509 0.350000 0.098079
v 0.000000 0.000000 0.096986
v 0.000000 0.350000 0.100000
v -0.018921 0.000000 0.095123
v -0.019509 0.350000 0.098079
v -0.037115 0.000000 0.089603
v -0.038268 0.350000 0.092388
v -0.053883 0.000000 0.080641
v -0.055557 0.350000 0.083147
v -0.068580 0.000000 0.068580
v -0.070711 0.350000 0.070711
v -0.080641 0.000000 0.053883
v -0.083147 0.350000 0.055557
v -0.089603 0.000000 0.037115
v -0.092388 0.350000 0.038268
v -0.095123 0.000000 0.018921
v -0.098079 0.350000 0.019509
v -0.096986 0.000000 0.000000
v -0.100000 0.350000 0.000000
v -0.095123 0.000000 -0.018921
v -0.098079 0.350000 -0.019509
v -0.089603 0.000000 -0.037115
v -0.092388 0.350000 -0.038268
v -0.080641 0.000000 -0.053883
v -0.083147 0.350000 -0.055557
v -0.068580 0.000000 -0.068580
v -0.070711 0.350000 -0.070711
v -0.053883 0.000000 -0.080641
v -0.055557 0.350000 -0.083147
v -0.037115 0.000000 -0.089603
v -0.038268 0.350000 -0.092388
v -0.018921 0.000000 -0.095123
v -0.019509 0.350000 -0.098079
v 0.000000 0.500000 -0.051745
v 0.010095 0.500000 -0.050751
v 0.019802 0.500000 -0.047807
v 0.028748 0.500000 -0.043025
v 0.036590 0.500000 -0.036590
v 0.043025 0.500000 -0.028748
v 0.047807 0.500000 -0.019802
v 0.050751 0.500000 -0.010095
v 0.051745 0.500000 0.000000
v 0.050751 0.500000 0.010095
v 0.047807 0.500000 0.019802
v 0.043025 0.500000 0.028748
v 0.036590 0.500000 0.036590
v 0.028748 0.500000 0.043025
v 0.019802 0.500000 0.047807
v 0.010095 0.500000 0.050751
v 0.000000 0.500000 0.051745
v -0.010095 0.500000 0.050751
v -0.019802 0.500000 0.047807
v -0.028748 0.500000 0.043025
v -0.036590 0.500000 0.036590
v -0.043025 0.500000 0.028748
v -0.047807 0.500000 0.019802
v -0.050751 0.500000 0.010095
v -0.051745 0.500000 0.000000
v -0.050751 0.500000 -0.010095
v -0.047807 0.500000 -0.019802
v -0.043025 0.500000 -0.028748
v -0.036590 0.500000 -0.036590
v -0.028748 0.500000 -0.043025
v -0.019802 0.500000 -0.047807
v -0.010095 0.500000 -0.050751
v 0.013032 0.500000 -0.065518
v 0.000000 0.500000 -0.066802
v 0.025564 0.500000 -0.061717
v 0.037113 0.500000 -0.055543
v 0.047236 0.500000 -0.047236
v 0.055543 0.500000 -0.037113
v 0.061717 0.500000 -0.025564
v 0.065518 0.500000 -0.013032
v 0.066802 0.500000 0.000000
v 0.065518 0.500000 0.013032
v 0.061717 0.500000 0.025564
v 0.055543 0.500000 0.037113
v 0.047236 0.500000 0.047236
v 0.037113 0.500000 0.055543
v 0.025564 0.500000 0.061717
v 0.013032 0.500000 0.065518
v 0.000000 0.500000 0.066802
v -0.013032 0.500000 0.065518
v -0.025564 0.500000 0.061717
v -0.037113 0.500000 0.055543
v -0.047236 0.500000 0.047236
v -0.055543 0.500000 0.037113
v -0.061717 0.500000 0.025564
v -0.065518 0.500000 0.013032
v -0.066802 0.500000 0.000000
v -0.065518 0.500000 -0.013032
v -0.061717 0.500000 -0.025564
v -0.055543 0.500000 -0.037113
v -0.047236 0.500000 -0.047236
v -0.037113 0.500000 -0.055543
v -0.025564 0.500000 -0.061717
v -0.013032 0.500000 -0.065518
v -0.000000 0.690000 -0.003443
v 0.000672 0.690000 -0.003377
v 0.001318 0.690000 -0.003181
v 0.001913 0.690000 -0.002863
v 0.002435 0.690000 -0.002435
v 0.002863 0.690000 -0.001913
v 0.003181 0.690000 -0.001318
v 0.003377 0.690000 -0.000672
v 0.003443 0.690000 -0.000000
v 0.003377 0.690000 0.000672
v 0.003181 0.690000 0.001318
v 0.002863 0.690000 0.001913
v 0.002435 0.690000 0.002435
v 0.001913 0.690000 0.002863
v 0.001318 0.690000 0.003181
v 0.000672 0.690000 0.003377
v -0.000000 0.690000 0.003443
v -0.000672 0.690000 0.003377
v -0.001318 0.690000 0.003181
v -0.001913 0.690000 0.002863
v -0.002435 0.690000 0.002435
v -0.002863 0.690000 0.001913
v -0.003181 0.690000 0.001318
v -0.003377 0.690000 0.000672
v -0.003443 0.690000 -0.000000
v -0.003377 0.690000 -0.000672
v -0.003181 0.690000 -0.001318
v -0.002863 0.690000 -0.001913
v -0.002435 0.690000 -0.002435
v -0.001913 0.690000 -0.002863
v -0.001318 0.690000 -0.003181
v -0.000672 0.690000 -0.003377
v 0.000002 0.691000 -0.000000
v 0.000002 0.691000 -0.000000
v 0.000002 0.691000 -0.000000
v 0.000002 0.691000 -0.000000
v 0.000002 0.691000 -0.000000
v 0.000002 0.691000 -0.000000
v 0.000002 0.691000 -0.000000
v 0.000002 0.691000 -0.000000
v 0.000002 0.691000 -0.000000
v 0.000002 0.691000 -0.000000
v 0.000002 0.691000 -0.000000
v 0.000002 0.691000 -0.000000
v 0.000002 0.691000 -0.000000
v 0.000002 0.691000 -0.000000
v 0.000002 0.691000 -0.000000
v 0.000002 0.691000 -0.000000
v 0.000002 0.691000 -0.000000
v 0.000002 0.691000 -0.000000
v 0.000002 0.691000 -0.000000
v 0.000002 0.691000 -0.000000
v 0.000002 0.691000 -0.000000
v 0.000002 0.691000 -0.000000
v 0.000002 0.691000 -0.000000
v 0.000002 0.691000 -0.000000
v 0.000002 0.691000 -0.000000
v 0.000002 0.691000 -0.000000
v 0.000002 0.691000 -0.000000
v 0.000002 0.691000 -0.000000
v 0.000002 0.691000 -0.000000
v 0.000002 0.691000 -0.000000
v 0.000002 0.691000 -0.000000
v 0.000002 0.691000 -0.000000
v 0.000000 0.020000 -0.100000
v 0.019509 0.020000 -0.098079
v 0.038268 0.020000 -0.092388
v 0.055557 0.020000 -0.083147
v 0.070711 0.020000 -0.070711
v 0.083147 0.020000 -0.055557
v 0.092388 0.020000 -0.038268
v 0.098079 0.020000 -0.019509
v 0.100000 0.020000 0.000000
v 0.098079 0.020000 0.019509
v 0.092388 0.020000 0.038268
v 0.083147 0.020000 0.055557
v 0.070711 0.020000 0.070711
v 0.055557 0.020000 0.083147
v 0.038268 0.020000 0.092388
v 0.019509 0.020000 0.098079
v 0.000000 0.020000 0.100000
v -0.019509 0.020000 0.098079
v -0.038268 0.020000 0.092388
v -0.055557 0.020000 0.083147
v -0.070711 0.020000 0.070711
v -0.083147 0.020000 0.055557
v -0.092388 0.020000 0.038268
v -0.098079 0.020000 0.019509
v -0.100000 0.020000 0.000000
v -0.098079 0.020000 -0.019509
v -0.092388 0.020000 -0.038268
v -0.083147 0.020000 -0.055557
v -0.070711 0.020000 -0.070711
v -0.055557 0.020000 -0.083147
v -0.038268 0.020000 -0.092388
v -0.019509 0.020000 -0.098079
v 0.039670 0.547500 -0.000000
v 0.027594 0.595000 -0.000000
v 0.015519 0.642500 -0.000000
v 0.015220 0.642500 0.003028
v 0.027064 0.595000 0.005383
v 0.038908 0.547500 0.007739
v -0.036650 0.547500 0.015181
v -0.025494 0.595000 0.010560
v -0.014337 0.642500 0.005939
v -0.015220 0.642500 0.003028
v -0.027064 0.595000 0.005383
v -0.038908 0.547500 0.007739
v 0.014337 0.642500 0.005939
v 0.025494 0.595000 0.010560
v 0.036650 0.547500 0.015181
v -0.015519 0.642500 -0.000000
v -0.027594 0.595000 -0.000000
v -0.039670 0.547500 -0.000000
v 0.012903 0.642500 0.008622
v 0.022944 0.595000 0.015331
v 0.032984 0.547500 0.022039
v -0.015220 0.642500 -0.003028
v -0.027064 0.595000 -0.005383
v -0.038908 0.547500 -0.007739
v 0.010973 0.642500 0.010973
v 0.019512 0.595000 0.019512
v 0.028051 0.547500 0.028051
v -0.014337 0.642500 -0.005939
v -0.025494 0.595000 -0.010560
v -0.036650 0.547500 -0.015181
v 0.008622 0.642500 0.012903
v 0.015331 0.595000 0.022944
v 0.022039 0.547500 0.032984
v -0.012903 0.642500 -0.008622
v -0.022944 0.595000 -0.015331
v -0.032984 0.547500 -0.022039
v 0.005939 0.642500 0.014337
v 0.010560 0.595000 0.025494
v 0.015181 0.547500 0.036650
v 0.000000 0.547500 -0.039670
v 0.000000 0.595000 -0.027594
v -0.000000 0.642500 -0.015519
v 0.003028 0.642500 -0.015220
v 0.005383 0.595000 -0.027064
v 0.007739 0.547500 -0.038908
v -0.010973 0.642500 -0.010973
v -0.019512 0.595000 -0.019512
v -0.028051 0.547500 -0.028051
v 0.003028 0.642500 0.015220
v 0.005383 0.595000 0.027064
v 0.007739 0.547500 0.038908
v 0.005939 0.642500 -0.014337
v 0.010560 0.595000 -0.025494
v 0.015181 0.547500 -0.036650
v -0.008622 0.642500 -0.012903
v -0.015331 0.595000 -0.022944
v -0.022039 0.547500 -0.032984
v -0.000000 0.642500 0.015519
v 0.000000 0.595000 0.027594
v 0.000000 0.547500 0.039670
v 0.008622 0.642500 -0.012903
v 0.015331 0.595000 -0.022944
v 0.022039 0.547500 -0.032984
v -0.005939 0.642500 -0.014337
v -0.010560 0.595000 -0.025494
v -0.015181 0.547500 -0.036650
v -0.003028 0.642500 0.015220
v -0.005383 0.595000 0.027064
v -0.007739 0.547500 0.038908
v 0.010973 0.642500 -0.010973
v 0.019512 0.595000 -0.019512
v 0.028051 0.547500 -0.028051
v -0.003028 0.642500 -0.015220
v -0.005383 0.595000 -0.027064
v -0.007739 0.547500 -0.038908
v -0.005939 0.642500 0.014337
v -0.010560 0.595000 0.025494
v -0.015181 0.547500 0.036650
v 0.012903 0.642500 -0.008622
v 0.022944 0.595000 -0.015331
v 0.032984 0.547500 -0.022039
v -0.008622 0.642500 0.012903
v -0.015331 0.595000 0.022944
v -0.022039 0.547500 0.032984
v 0.014337 0.642500 -0.005939
v 0.025494 0.595000 -0.010560
v 0.036650 0.547500 -0.015181
v -0.010973 0.642500 0.010973
v -0.019512 0.595000 0.019512
v -0.028051 0.547500 0.028051
v 0.015220 0.642500 -0.003028
v 0.027064 0.595000 -0.005383
v 0.038908 0.547500 -0.007739
v -0.012903 0.642500 0.008622
v -0.022944 0.595000 0.015331
v -0.032984 0.547500 0.022039
vn -0.0000 -0.0744 -0.9972
vn -0.0000 0.1080 -0.9942
vn 0.1939 0.1080 -0.9751
vn 0.1946 -0.0744 -0.9781
vn 0.3804 0.1080 -0.9185
vn 0.3816 -0.0744 -0.9213
vn 0.5523 0.1080 -0.8266
vn 0.5540 -0.0744 -0.8292
vn 0.7030 0.1080 -0.7030
vn 0.7051 -0.0744 -0.7051
vn 0.8266 0.1080 -0.5523
vn 0.8292 -0.0744 -0.5540
vn 0.9185 0.1080 -0.3804
vn 0.9213 -0.0744 -0.3816
vn 0.9751 0.1080 -0.1940
vn 0.9781 -0.0744 -0.1946
vn 0.9942 0.1080 -0.0000
vn 0.9972 -0.0744 -0.0000
vn 0.9751 0.1080 0.1940
vn 0.9781 -0.0744 0.1946
vn 0.9185 0.1080 0.3804
vn 0.9213 -0.0744 0.3816
vn 0.8266 0.1080 0.5523
vn 0.8292 -0.0744 0.5540
vn 0.7030 0.1080 0.7030
vn 0.7051 -0.0744 0.7051
vn 0.5523 0.1080 0.8266
vn 0.5540 -0.0744 0.8292
vn 0.3804 0.1080 0.9185
vn 0.3816 -0.0744 0.9213
vn 0.1939 0.1080 0.9751
vn 0.1946 -0.0744 0.9781
vn -0.0000 0.1080 0.9942
vn -0.0000 -0.0744 0.9972
vn -0.1939 0.1080 0.9751
vn -0.1946 -0.0744 0.9781
vn -0.3804 0.1080 0.9185
vn -0.3816 -0.0744 0.9213
vn -0.5523 0.1080 0.8266
vn -0.5540 -0.0744 0.8292
vn -0.7030 0.1080 0.7030
vn -0.7051 -0.0744 0.7051
vn -0.8266 0.1080 0.5523
vn -0.8292 -0.0744 0.5540
vn -0.9185 0.1080 0.3804
vn -0.9213 -0.0744 0.3816
vn -0.9751 0.1080 0.1940
vn -0.9781 -0.0744 0.1946
vn -0.9942 0.1080 -0.0000
vn -0.9972 -0.0744 -0.0000
vn -0.9751 0.1080 -0.1940
vn -0.9781 -0.0744 -0.1946
vn -0.9185 0.1080 -0.3804
vn -0.9213 -0.0744 -0.3816
vn -0.8266 0.1080 -0.5523
vn -0.8292 -0.0744 -0.5540
vn -0.7030 0.1080 -0.7030
vn -0.7051 -0.0744 -0.7051
vn -0.5523 0.1080 -0.8266
vn -0.5540 -0.0744 -0.8292
vn -0.3804 0.1080 -0.9185
vn -0.3816 -0.0744 -0.9213
vn 0.9021 0.2161 -0.3736
vn 0.9576 0.2161 -0.1905
vn -0.1940 0.1080 -0.9751
vn -0.1946 -0.0744 -0.9781
vn -0.0000 -1.0000 -0.0000
vn 0.9505 0.2464 0.1891
vn 0.9692 0.2464 -0.0000
vn 0.1905 0.2161 0.9576
vn -0.0000 0.2161 0.9764
vn -0.9764 0.2161 -0.0000
vn -0.9576 0.2161 -0.1905
vn 0.3736 0.2161 -0.9021
vn 0.5424 0.2161 -0.8118
vn 0.8118 0.2161 0.5424
vn 0.6904 0.2161 0.6904
vn -0.6904 0.2161 0.6904
vn -0.8118 0.2161 0.5424
vn -0.5424 0.2161 -0.8118
vn -0.3736 0.2161 -0.9021
vn 0.9764 0.2161 -0.0000
vn -0.1905 0.2161 0.9576
vn -0.9021 0.2161 -0.3736
vn 0.6904 0.2161 -0.6904
vn 0.5424 0.2161 0.8118
vn -0.9021 0.2161 0.3736
vn -0.1905 0.2161 -0.9576
vn 0.9576 0.2161 0.1905
vn -0.3736 0.2161 0.9021
vn -0.8118 0.2161 -0.5424
vn 0.8118 0.2161 -0.5424
vn 0.3736 0.2161 0.9021
vn -0.9576 0.2161 0.1905
vn -0.0000 0.2161 -0.9764
vn 0.1905 0.2161 -0.9576
vn 0.9021 0.2161 0.3736
vn -0.5424 0.2161 0.8118
vn -0.6904 0.2161 -0.6904
vn -0.0000 1.0000 -0.0000
vn 0.1973 0.9603 0.1974
vn 0.2321 0.9603 0.1551
vn 0.1660 0.9803 0.1073
vn 0.1327 0.9822 0.1327
vn -0.9505 0.2464 0.1891
vn -0.8954 0.2464 0.3709
vn 0.8954 0.2464 0.3709
vn -0.9692 0.2464 -0.0000
vn 0.8058 0.2464 0.5384
vn -0.9505 0.2464 -0.1891
vn 0.6853 0.2464 0.6853
vn -0.8954 0.2464 -0.3709
vn 0.5384 0.2464 0.8058
vn -0.8058 0.2464 -0.5384
vn 0.3709 0.2464 0.8954
vn 0.1891 0.2464 -0.9505
vn -0.0000 0.2464 -0.9692
vn -0.6853 0.2464 -0.6853
vn 0.1891 0.2464 0.9505
vn 0.3709 0.2464 -0.8954
vn -0.5384 0.2464 -0.8058
vn -0.0000 0.2464 0.9692
vn 0.5384 0.2464 -0.8058
vn -0.3709 0.2464 -0.8954
vn -0.1891 0.2464 0.9505
vn 0.6853 0.2464 -0.6853
vn -0.1891 0.2464 -0.9505
vn -0.3709 0.2464 0.8954
vn 0.8058 0.2464 -0.5384
vn -0.5384 0.2464 0.8058
vn 0.8954 0.2464 -0.3709
vn -0.6853 0.2464 0.6853
vn 0.9505 0.2464 -0.1891
vn -0.8058 0.2464 0.5384
vn 0.0363 0.9815 -0.1878
vn -0.0000 0.9603 -0.2790
vn -0.0370 0.9830 -0.1800
vn -0.0718 0.9822 -0.1733
vn -0.1042 0.9822 -0.1560
vn -0.1327 0.9822 -0.1327
vn -0.1434 0.9846 -0.1003
vn -0.1789 0.9809 -0.0763
vn -0.1877 0.9816 -0.0362
vn -0.2789 0.9603 -0.0000
vn -0.1799 0.9830 0.0370
vn -0.1668 0.9838 0.0665
vn -0.1659 0.9803 0.1073
vn -0.1327 0.9822 0.1327
vn -0.1042 0.9822 0.1560
vn -0.0718 0.9822 0.1733
vn -0.0370 0.9830 0.1800
vn -0.0000 0.9603 0.2790
vn 0.0363 0.9815 0.1878
vn 0.0718 0.9822 0.1734
vn 0.1043 0.9822 0.1561
vn 0.1669 0.9837 0.0665
vn 0.1801 0.9830 0.0370
vn 0.2791 0.9603 -0.0000
vn 0.1879 0.9815 -0.0363
vn 0.1790 0.9809 -0.0764
vn 0.1435 0.9845 -0.1004
vn 0.1327 0.9822 -0.1327
vn 0.1043 0.9822 -0.1561
vn 0.0719 0.9822 -0.1734
vn -0.2577 0.9603 -0.1067
vn -0.2736 0.9603 -0.0544
vn 0.1550 0.9603 0.2321
vn -0.2319 0.9603 -0.1550
vn 0.1067 0.9603 0.2578
vn 0.0545 0.9603 -0.2737
vn -0.1973 0.9603 -0.1972
vn 0.0544 0.9603 0.2737
vn 0.1068 0.9603 -0.2578
vn -0.1549 0.9603 -0.2319
vn 0.1550 0.9603 -0.2321
vn -0.1068 0.9603 -0.2577
vn -0.0544 0.9603 0.2736
vn 0.1974 0.9603 -0.1974
vn -0.0545 0.9603 -0.2736
vn -0.1067 0.9603 0.2577
vn 0.2321 0.9603 -0.1551
vn -0.1549 0.9603 0.2319
vn 0.2579 0.9603 -0.1068
vn -0.1973 0.9603 0.1972
vn 0.2738 0.9602 -0.0545
vn -0.2319 0.9603 0.1550
vn -0.2577 0.9603 0.1067
vn 0.2737 0.9603 0.0545
vn -0.2735 0.9603 0.0544
vn 0.2579 0.9603 0.1068
vn -0.1929 -0.1490 -0.9698
vn -0.0000 -0.1490 -0.9888
vn -0.3784 -0.1490 -0.9136
vn -0.5494 -0.1490 -0.8222
vn -0.6992 -0.1490 -0.6992
vn -0.8222 -0.1490 -0.5494
vn -0.9136 -0.1490 -0.3784
vn -0.9698 -0.1490 -0.1929
vn -0.9888 -0.1490 -0.0000
vn -0.9698 -0.1490 0.1929
vn -0.9136 -0.1490 0.3784
vn -0.8222 -0.1490 0.5494
vn -0.6992 -0.1490 0.6992
vn -0.5494 -0.1490 0.8222
vn -0.3784 -0.1490 0.9136
vn -0.1929 -0.1490 0.9698
vn -0.0000 -0.1490 0.9888
vn 0.1929 -0.1490 0.9698
vn 0.3784 -0.1490 0.9136
vn 0.5494 -0.1490 0.8222
vn 0.6992 -0.1490 0.6992
vn 0.8222 -0.1490 0.5494
vn 0.9136 -0.1490 0.3784
vn 0.9698 -0.1490 0.1929
vn 0.9888 -0.1490 -0.0000
vn 0.9698 -0.1490 -0.1929
vn 0.9136 -0.1490 -0.3784
vn 0.8222 -0.1490 -0.5494
vn 0.6992 -0.1490 -0.6992
vn 0.5494 -0.1490 -0.8222
vn 0.3784 -0.1490 -0.9136
vn 0.1929 -0.1490 -0.9698
vt 1.000000 0.528571
vt 1.000000 1.000000
vt 0.968750 1.000000
vt 0.968750 0.528571
vt 0.937500 1.000000
vt 0.937500 0.528571
vt 0.906250 1.000000
vt 0.906250 0.528571
vt 0.875000 1.000000
vt 0.875000 0.528571
vt 0.843750 1.000000
vt 0.843750 0.528571
vt 0.812500 1.000000
vt 0.812500 0.528571
vt 0.781250 1.000000
vt 0.781250 0.528571
vt 0.750000 1.000000
vt 0.750000 0.528571
vt 0.718750 1.000000
vt 0.718750 0.528571
vt 0.687500 1.000000
vt 0.687500 0.528571
vt 0.656250 1.000000
vt 0.656250 0.528571
vt 0.625000 1.000000
vt 0.625000 0.528571
vt 0.593750 1.000000
vt 0.593750 0.528571
vt 0.562500 1.000000
vt 0.562500 0.528571
vt 0.531250 1.000000
vt 0.531250 0.528571
vt 0.500000 1.000000
vt 0.500000 0.528571
vt 0.468750 1.000000
vt 0.468750 0.528571
vt 0.437500 1.000000
vt 0.437500 0.528571
vt 0.406250 1.000000
vt 0.406250 0.528571
vt 0.375000 1.000000
vt 0.375000 0.528571
vt 0.343750 1.000000
vt 0.343750 0.528571
vt 0.312500 1.000000
vt 0.312500 0.528571
vt 0.281250 1.000000
vt 0.281250 0.528571
vt 0.250000 1.000000
vt 0.250000 0.528571
vt 0.218750 1.000000
vt 0.218750 0.528571
vt 0.187500 1.000000
vt 0.187500 0.528571
vt 0.156250 1.000000
vt 0.156250 0.528571
vt 0.125000 1.000000
vt 0.125000 0.528571
vt 0.093750 1.000000
vt 0.093750 0.528571
vt 0.062500 1.000000
vt 0.062500 0.528571
vt 0.031250 1.000000
vt 0.031250 0.528571
vt 0.000000 1.000000
vt 0.000000 0.528571
vt 0.750000 0.490000
vt 0.796822 0.485388
vt 0.841844 0.471731
vt 0.883337 0.449553
vt 0.919706 0.419706
vt 0.949553 0.383337
vt 0.971731 0.341844
vt 0.985388 0.296822
vt 0.990000 0.250000
vt 0.985388 0.203178
vt 0.971731 0.158156
vt 0.949553 0.116663
vt 0.919706 0.080294
vt 0.883337 0.050447
vt 0.841844 0.028269
vt 0.796822 0.014612
vt 0.750000 0.010000
vt 0.703178 0.014612
vt 0.658156 0.028269
vt 0.616663 0.050447
vt 0.580294 0.080294
vt 0.550447 0.116663
vt 0.528269 0.158156
vt 0.514612 0.203178
vt 0.510000 0.250000
vt 0.514612 0.296822
vt 0.528269 0.341844
vt 0.550447 0.383337
vt 0.580294 0.419706
vt 0.616663 0.449553
vt 0.658156 0.471731
vt 0.703178 0.485388
vt 0.432335 0.213731
vt 0.435907 0.250000
vt 0.435907 0.250000
vt 0.250000 0.435908
vt 0.286269 0.432335
vt 0.296822 0.485388
vt 0.250000 0.490000
vt 0.321144 0.421756
vt 0.341844 0.471731
vt 0.353285 0.404576
vt 0.383337 0.449553
vt 0.381456 0.381456
vt 0.419706 0.419706
vt 0.404576 0.353285
vt 0.449553 0.383337
vt 0.421756 0.321144
vt 0.471731 0.341844
vt 0.432335 0.286269
vt 0.485388 0.296822
vt 0.490000 0.250000
vt 0.485388 0.203178
vt 0.421756 0.178856
vt 0.471731 0.158156
vt 0.404576 0.146715
vt 0.449553 0.116663
vt 0.381456 0.118544
vt 0.419706 0.080294
vt 0.353285 0.095424
vt 0.383337 0.050447
vt 0.321144 0.078244
vt 0.341844 0.028269
vt 0.286269 0.067665
vt 0.296822 0.014612
vt 0.250000 0.064093
vt 0.250000 0.010000
vt 0.213731 0.067665
vt 0.203178 0.014612
vt 0.178856 0.078244
vt 0.158156 0.028269
vt 0.146715 0.095424
vt 0.116663 0.050447
vt 0.118544 0.118544
vt 0.080294 0.080294
vt 0.095424 0.146715
vt 0.050447 0.116663
vt 0.078244 0.178856
vt 0.028269 0.158156
vt 0.067665 0.213731
vt 0.014612 0.203178
vt 0.064093 0.250000
vt 0.010000 0.250000
vt 0.067665 0.286269
vt 0.014612 0.296822
vt 0.078244 0.321144
vt 0.028269 0.341844
vt 0.095424 0.353285
vt 0.050447 0.383337
vt 0.118544 0.381456
vt 0.080294 0.419706
vt 0.146715 0.404576
vt 0.116663 0.449553
vt 0.178856 0.421756
vt 0.158156 0.471731
vt 0.213731 0.432335
vt 0.203178 0.485388
vt 0.031250 0.500000
vt 0.000000 0.500000
vt 0.062500 0.500000
vt 0.093750 0.500000
vt 0.125000 0.500000
vt 0.156250 0.500000
vt 0.187500 0.500000
vt 0.218750 0.500000
vt 0.250000 0.500000
vt 0.281250 0.500000
vt 0.312500 0.500000
vt 0.343750 0.500000
vt 0.375000 0.500000
vt 0.406250 0.500000
vt 0.437500 0.500000
vt 0.468750 0.500000
vt 0.500000 0.500000
vt 0.531250 0.500000
vt 0.562500 0.500000
vt 0.593750 0.500000
vt 0.625000 0.500000
vt 0.656250 0.500000
vt 0.687500 0.500000
vt 0.718750 0.500000
vt 0.750000 0.500000
vt 0.781250 0.500000
vt 0.812500 0.500000
vt 0.843750 0.500000
vt 0.875000 0.500000
vt 0.906250 0.500000
vt 0.937500 0.500000
vt 0.968750 0.500000
vt 1.000000 0.500000
vt 0.095424 0.146715
vt 0.421756 0.321144
vt 0.404576 0.353285
vt 0.178856 0.078244
vt 0.213731 0.432335
vt 0.381456 0.381456
vt 0.250000 0.064093
vt 0.146715 0.404576
vt 0.095424 0.353285
vt 0.353285 0.095424
vt 0.067665 0.286269
vt 0.404576 0.146715
vt 0.064093 0.250000
vt 0.421756 0.178856
vt 0.067665 0.213731
s 1
f 193/1/1 2/2/2 4/3/3 194/4/4
f 194/4/4 4/3/3 6/5/5 195/6/6
f 195/6/6 6/5/5 8/7/7 196/8/8
f 196/8/8 8/7/7 10/9/9 197/10/10
f 197/10/10 10/9/9 12/11/11 198/12/12
f 198/12/12 12/11/11 14/13/13 199/14/14
f 199/14/14 14/13/13 16/15/15 200/16/16
f 200/16/16 16/15/15 18/17/17 201/18/18
f 201/18/18 18/17/17 20/19/19 202/20/20
f 202/20/20 20/19/19 22/21/21 203/22/22
f 203/22/22 22/21/21 24/23/23 204/24/24
f 204/24/24 24/23/23 26/25/25 205/26/26
f 205/26/26 26/25/25 28/27/27 206/28/28
f 206/28/28 28/27/27 30/29/29 207/30/30
f 207/30/30 30/29/29 32/31/31 208/32/32
f 208/32/32 32/31/31 34/33/33 209/34/34
f 209/34/34 34/33/33 36/35/35 210/36/36
f 210/36/36 36/35/35 38/37/37 211/38/38
f 211/38/38 38/37/37 40/39/39 212/40/40
f 212/40/40 40/39/39 42/41/41 213/42/42
f 213/42/42 42/41/41 44/43/43 214/44/44
f 214/44/44 44/43/43 46/45/45 215/46/46
f 215/46/46 46/45/45 48/47/47 216/48/48
f 216/48/48 48/47/47 50/49/49 217/50/50
f 217/50/50 50/49/49 52/51/51 218/52/52
f 218/52/52 52/51/51 54/53/53 219/54/54
f 219/54/54 54/53/53 56/55/55 220/56/56
f 220/56/56 56/55/55 58/57/57 221/58/58
f 221/58/58 58/57/57 60/59/59 222/60/60
f 222/60/60 60/59/59 62/61/61 223/62/62
f 16/15/15 14/13/13 103/13/63 104/15/64
f 223/62/62 62/61/61 64/63/65 224/64/66
f 224/64/66 64/63/65 2/65/2 193/66/1
f 1/67/67 3/68/67 5/69/67 7/70/67 9/71/67 11/72/67 13/73/67 15/74/67 17/75/67 19/76/67 21/77/67 23/78/67 25/79/67 27/80/67 29/81/67 31/82/67 33/83/67 35/84/67 37/85/67 39/86/67 41/87/67 43/88/67 45/89/67 47/90/67 49/91/67 51/92/67 53/93/67 55/94/67 57/95/67 59/96/67 61/97/67 63/98/67
f 228/99/68 227/100/69 137/101/69 138/99/68
f 34/33/33 32/31/31 112/31/70 113/33/71
f 52/51/51 50/49/49 121/49/72 122/51/73
f 8/7/7 6/5/5 99/5/74 100/7/75
f 26/25/25 24/23/23 108/23/76 109/25/77
f 44/43/43 42/41/41 117/41/78 118/43/79
f 62/61/61 60/59/59 126/59/80 127/61/81
f 18/17/17 16/15/15 104/15/64 105/17/82
f 36/35/35 34/33/33 113/33/71 114/35/83
f 54/53/53 52/51/51 122/51/73 123/53/84
f 10/9/9 8/7/7 100/7/75 101/9/85
f 28/27/27 26/25/25 109/25/77 110/27/86
f 46/45/45 44/43/43 118/43/79 119/45/87
f 64/63/65 62/61/61 127/61/81 128/63/88
f 20/19/19 18/17/17 105/17/82 106/19/89
f 38/37/37 36/35/35 114/35/83 115/37/90
f 56/55/55 54/53/53 123/53/84 124/55/91
f 12/11/11 10/9/9 101/9/85 102/11/92
f 30/29/29 28/27/27 110/27/86 111/29/93
f 48/47/47 46/45/45 119/45/87 120/47/94
f 4/3/3 2/2/2 98/2/95 97/3/96
f 2/65/2 64/63/65 128/63/88 98/65/95
f 22/21/21 20/19/19 106/19/89 107/21/97
f 40/39/39 38/37/37 115/37/90 116/39/98
f 58/57/57 56/55/55 124/55/91 125/57/99
f 14/13/13 12/11/11 102/11/92 103/13/63
f 32/31/31 30/29/29 111/29/93 112/31/70
f 50/49/49 48/47/47 120/47/94 121/49/72
f 6/5/5 4/3/3 97/3/96 99/5/74
f 24/23/23 22/21/21 107/21/97 108/23/76
f 42/41/41 40/39/39 116/39/98 117/41/78
f 60/59/59 58/57/57 125/57/99 126/59/80
f 65/102/100 66/103/100 97/104/100 98/105/100
f 66/103/100 67/106/100 99/107/100 97/104/100
f 67/106/100 68/108/100 100/109/100 99/107/100
f 68/108/100 69/110/100 101/111/100 100/109/100
f 69/110/100 70/112/100 102/113/100 101/111/100
f 70/112/100 71/114/100 103/115/100 102/113/100
f 71/114/100 72/116/100 104/117/100 103/115/100
f 72/116/100 73/101/100 105/118/100 104/117/100
f 73/101/100 74/99/100 106/119/100 105/118/100
f 74/99/100 75/120/100 107/121/100 106/119/100
f 75/120/100 76/122/100 108/123/100 107/121/100
f 76/122/100 77/124/100 109/125/100 108/123/100
f 77/124/100 78/126/100 110/127/100 109/125/100
f 78/126/100 79/128/100 111/129/100 110/127/100
f 79/128/100 80/130/100 112/131/100 111/129/100
f 80/130/100 81/132/100 113/133/100 112/131/100
f 81/132/100 82/134/100 114/135/100 113/133/100
f 82/134/100 83/136/100 115/137/100 114/135/100
f 83/136/100 84/138/100 116/139/100 115/137/100
f 84/138/100 85/140/100 117/141/100 116/139/100
f 85/140/100 86/142/100 118/143/100 117/141/100
f 86/142/100 87/144/100 119/145/100 118/143/100
f 87/144/100 88/146/100 120/147/100 119/145/100
f 88/146/100 89/148/100 121/149/100 120/147/100
f 89/148/100 90/150/100 122/151/100 121/149/100
f 90/150/100 91/152/100 123/153/100 122/151/100
f 91/152/100 92/154/100 124/155/100 123/153/100
f 92/154/100 93/156/100 125/157/100 124/155/100
f 93/156/100 94/158/100 126/159/100 125/157/100
f 94/158/100 95/160/100 127/161/100 126/159/100
f 95/160/100 96/162/100 128/163/100 127/161/100
f 96/162/100 65/102/100 98/105/100 128/163/100
f 141/124/101 140/122/102 172/122/103 173/124/104
f 234/146/105 233/144/106 151/144/106 152/146/105
f 237/120/107 228/99/68 138/99/68 139/120/107
f 240/148/108 234/146/105 152/146/105 153/148/108
f 243/122/109 237/120/107 139/120/107 140/122/109
f 246/150/110 240/148/108 153/148/108 154/150/110
f 249/124/111 243/122/109 140/122/109 141/124/111
f 252/152/112 246/150/110 154/150/110 155/152/112
f 255/126/113 249/124/111 141/124/111 142/126/113
f 258/154/114 252/152/112 155/152/112 156/154/114
f 261/128/115 255/126/113 142/126/113 143/128/115
f 267/103/116 266/102/117 129/102/117 130/103/116
f 270/156/118 258/154/114 156/154/114 157/156/118
f 273/130/119 261/128/115 143/128/115 144/130/119
f 276/106/120 267/103/116 130/103/116 131/106/120
f 279/158/121 270/156/118 157/156/118 158/158/121
f 282/132/122 273/130/119 144/130/119 145/132/122
f 285/108/123 276/106/120 131/106/120 132/108/123
f 288/160/124 279/158/121 158/158/121 159/160/124
f 291/134/125 282/132/122 145/132/122 146/134/125
f 294/110/126 285/108/123 132/108/123 133/110/126
f 297/162/127 288/160/124 159/160/124 160/162/127
f 300/136/128 291/134/125 146/134/125 147/136/128
f 303/112/129 294/110/126 133/110/126 134/112/129
f 266/102/117 297/162/127 160/162/127 129/102/117
f 306/138/130 300/136/128 147/136/128 148/138/130
f 309/114/131 303/112/129 134/112/129 135/114/131
f 312/140/132 306/138/130 148/138/130 149/140/132
f 315/116/133 309/114/131 135/114/131 136/116/133
f 318/142/134 312/140/132 149/140/132 150/142/134
f 227/100/69 315/116/133 136/116/133 137/101/69
f 233/144/106 318/142/134 150/142/134 151/144/106
f 162/103/135 161/102/136 192/162/137 191/160/138 190/158/139 189/156/140 188/154/141 187/152/142 186/150/143 185/148/144 184/146/145 183/144/146 182/142/147 181/140/148 180/138/149 179/136/150 178/134/151 177/132/152 176/130/153 175/128/154 174/126/155 173/124/104 172/122/103 171/120/156 170/99/157 169/101/158 168/116/159 167/114/160 166/112/161 165/110/162 164/108/163 163/106/164
f 155/152/165 154/150/166 186/150/143 187/152/142
f 142/126/167 141/124/101 173/124/104 174/126/155
f 156/154/168 155/152/165 187/152/142 188/154/141
f 143/128/169 142/126/167 174/126/155 175/128/154
f 130/103/170 129/102/136 161/102/136 162/103/135
f 157/156/171 156/154/168 188/154/141 189/156/140
f 144/130/172 143/128/169 175/128/154 176/130/153
f 131/106/173 130/103/170 162/103/135 163/106/164
f 158/158/174 157/156/171 189/156/140 190/158/139
f 145/132/152 144/130/172 176/130/153 177/132/152
f 132/108/175 131/106/173 163/106/164 164/108/163
f 159/160/176 158/158/174 190/158/139 191/160/138
f 146/134/177 145/132/152 177/132/152 178/134/151
f 133/110/178 132/108/175 164/108/163 165/110/162
f 160/162/179 159/160/176 191/160/138 192/162/137
f 147/136/180 146/134/177 178/134/151 179/136/150
f 134/112/181 133/110/178 165/110/162 166/112/161
f 129/102/136 160/162/179 192/162/137 161/102/136
f 148/138/182 147/136/180 179/136/150 180/138/149
f 135/114/183 134/112/181 166/112/161 167/114/160
f 149/140/184 148/138/182 180/138/149 181/140/148
f 136/116/185 135/114/183 167/114/160 168/116/159
f 150/142/186 149/140/184 181/140/148 182/142/147
f 137/101/158 136/116/185 168/116/159 169/101/158
f 151/144/187 150/142/186 182/142/147 183/144/146
f 138/99/188 137/101/158 169/101/158 170/99/157
f 152/146/189 151/144/187 183/144/146 184/146/145
f 139/120/190 138/99/188 170/99/157 171/120/156
f 153/148/144 152/146/189 184/146/145 185/148/144
f 140/122/102 139/120/190 171/120/156 172/122/103
f 154/150/166 153/148/144 185/148/144 186/150/143
f 63/164/191 224/64/66 193/66/1 1/165/192
f 61/166/193 223/62/62 224/64/66 63/164/191
f 59/167/194 222/60/60 223/62/62 61/166/193
f 57/168/195 221/58/58 222/60/60 59/167/194
f 55/169/196 220/56/56 221/58/58 57/168/195
f 53/170/197 219/54/54 220/56/56 55/169/196
f 51/171/198 218/52/52 219/54/54 53/170/197
f 49/172/199 217/50/50 218/52/52 51/171/198
f 47/173/200 216/48/48 217/50/50 49/172/199
f 45/174/201 215/46/46 216/48/48 47/173/200
f 43/175/202 214/44/44 215/46/46 45/174/201
f 41/176/203 213/42/42 214/44/44 43/175/202
f 39/177/204 212/40/40 213/42/42 41/176/203
f 37/178/205 211/38/38 212/40/40 39/177/204
f 35/179/206 210/36/36 211/38/38 37/178/205
f 33/180/207 209/34/34 210/36/36 35/179/206
f 31/181/208 208/32/32 209/34/34 33/180/207
f 29/182/209 207/30/30 208/32/32 31/181/208
f 27/183/210 206/28/28 207/30/30 29/182/209
f 25/184/211 205/26/26 206/28/28 27/183/210
f 23/185/212 204/24/24 205/26/26 25/184/211
f 21/186/213 203/22/22 204/24/24 23/185/212
f 19/187/214 202/20/20 203/22/22 21/186/213
f 17/188/215 201/18/18 202/20/20 19/187/214
f 15/189/216 200/16/16 201/18/18 17/188/215
f 13/190/217 199/14/14 200/16/16 15/189/216
f 11/191/218 198/12/12 199/14/14 13/190/217
f 9/192/219 197/10/10 198/12/12 11/191/218
f 7/193/220 196/8/8 197/10/10 9/192/219
f 5/194/221 195/6/6 196/8/8 7/193/220
f 3/195/222 194/4/4 195/6/6 5/194/221
f 1/196/192 193/1/1 194/4/4 3/195/222
f 87/144/106 86/142/134 320/142/134 231/144/106
f 231/144/106 320/142/134 319/197/134 232/144/106
f 232/144/106 319/197/134 318/142/134 233/144/106
f 73/101/69 72/116/133 317/116/133 225/101/69
f 225/101/69 317/116/133 316/116/133 226/100/69
f 226/100/69 316/116/133 315/116/133 227/100/69
f 86/142/134 85/140/132 314/140/132 320/142/134
f 320/142/134 314/140/132 313/140/132 319/197/134
f 319/197/134 313/140/132 312/140/132 318/142/134
f 72/116/133 71/114/131 311/114/131 317/116/133
f 317/116/133 311/114/131 310/198/131 316/116/133
f 316/116/133 310/198/131 309/114/131 315/116/133
f 85/140/132 84/138/130 308/138/130 314/140/132
f 314/140/132 308/138/130 307/138/130 313/140/132
f 313/140/132 307/138/130 306/138/130 312/140/132
f 71/114/131 70/112/129 305/112/129 311/114/131
f 311/114/131 305/112/129 304/199/129 310/198/131
f 310/198/131 304/199/129 303/112/129 309/114/131
f 84/138/130 83/136/128 302/200/128 308/138/130
f 308/138/130 302/200/128 301/200/128 307/138/130
f 307/138/130 301/200/128 300/136/128 306/138/130
f 65/102/117 96/162/127 299/162/127 264/102/117
f 264/102/117 299/162/127 298/201/127 265/102/117
f 265/102/117 298/201/127 297/162/127 266/102/117
f 70/112/129 69/110/126 296/110/126 305/112/129
f 305/112/129 296/110/126 295/202/126 304/199/129
f 304/199/129 295/202/126 294/110/126 303/112/129
f 83/136/128 82/134/125 293/134/125 302/200/128
f 302/200/128 293/134/125 292/134/125 301/200/128
f 301/200/128 292/134/125 291/134/125 300/136/128
f 96/162/127 95/160/124 290/160/124 299/162/127
f 299/162/127 290/160/124 289/160/124 298/201/127
f 298/201/127 289/160/124 288/160/124 297/162/127
f 69/110/126 68/108/123 287/108/123 296/110/126
f 296/110/126 287/108/123 286/108/123 295/202/126
f 295/202/126 286/108/123 285/108/123 294/110/126
f 82/134/125 81/132/122 284/203/122 293/134/125
f 293/134/125 284/203/122 283/203/122 292/134/125
f 292/134/125 283/203/122 282/132/122 291/134/125
f 95/160/124 94/158/121 281/204/121 290/160/124
f 290/160/124 281/204/121 280/204/121 289/160/124
f 289/160/124 280/204/121 279/158/121 288/160/124
f 68/108/123 67/106/120 278/106/120 287/108/123
f 287/108/123 278/106/120 277/106/120 286/108/123
f 286/108/123 277/106/120 276/106/120 285/108/123
f 81/132/122 80/130/119 275/130/119 284/203/122
f 284/203/122 275/130/119 274/130/119 283/203/122
f 283/203/122 274/130/119 273/130/119 282/132/122
f 94/158/121 93/156/118 272/156/118 281/204/121
f 281/204/121 272/156/118 271/156/118 280/204/121
f 280/204/121 271/156/118 270/156/118 279/158/121
f 67/106/120 66/103/116 269/103/116 278/106/120
f 278/106/120 269/103/116 268/103/116 277/106/120
f 277/106/120 268/103/116 267/103/116 276/106/120
f 80/130/119 79/128/115 263/128/115 275/130/119
f 275/130/119 263/128/115 262/128/115 274/130/119
f 274/130/119 262/128/115 261/128/115 273/130/119
f 93/156/118 92/154/114 260/205/114 272/156/118
f 272/156/118 260/205/114 259/205/114 271/156/118
f 271/156/118 259/205/114 258/154/114 270/156/118
f 66/103/116 65/102/117 264/102/117 269/103/116
f 269/103/116 264/102/117 265/102/117 268/103/116
f 268/103/116 265/102/117 266/102/117 267/103/116
f 79/128/115 78/126/113 257/206/113 263/128/115
f 263/128/115 257/206/113 256/206/113 262/128/115
f 262/128/115 256/206/113 255/126/113 261/128/115
f 92/154/114 91/152/112 254/152/112 260/205/114
f 260/205/114 254/152/112 253/152/112 259/205/114
f 259/205/114 253/152/112 252/152/112 258/154/114
f 78/126/113 77/124/111 251/124/111 257/206/113
f 257/206/113 251/124/111 250/124/111 256/206/113
f 256/206/113 250/124/111 249/124/111 255/126/113
f 91/152/112 90/150/110 248/207/110 254/152/112
f 254/152/112 248/207/110 247/207/110 253/152/112
f 253/152/112 247/207/110 246/150/110 252/152/112
f 77/124/111 76/122/109 245/208/109 251/124/111
f 251/124/111 245/208/109 244/208/109 250/124/111
f 250/124/111 244/208/109 243/122/109 249/124/111
f 90/150/110 89/148/108 242/209/108 248/207/110
f 248/207/110 242/209/108 241/209/108 247/207/110
f 247/207/110 241/209/108 240/148/108 246/150/110
f 76/122/109 75/120/107 239/210/107 245/208/109
f 245/208/109 239/210/107 238/210/107 244/208/109
f 244/208/109 238/210/107 237/120/107 243/122/109
f 89/148/108 88/146/105 236/211/105 242/209/108
f 242/209/108 236/211/105 235/211/105 241/209/108
f 241/209/108 235/211/105 234/146/105 240/148/108
f 75/120/107 74/99/68 230/99/68 239/210/107
f 239/210/107 230/99/68 229/99/68 238/210/107
f 238/210/107 229/99/68 228/99/68 237/120/107
f 88/146/105 87/144/106 231/144/106 236/211/105
f 236/211/105 231/144/106 232/144/106 235/211/105
f 235/211/105 232/144/106 233/144/106 234/146/105
f 74/99/68 73/101/69 225/101/69 230/99/68
f 230/99/68 225/101/69 226/100/69 229/99/68
f 229/99/68 226/100/69 227/100/69 228/99/68
