# Blender 4.5.1 LTS
# www.blender.org
o Bullet-Rifle-FullMetal
v 0.000000 0.000000 -0.080461
v 0.000000 0.200000 -0.100000
v 0.015697 0.000000 -0.078915
v 0.019509 0.200000 -0.098079
v 0.030791 0.000000 -0.074336
v 0.038268 0.200000 -0.092388
v 0.044702 0.000000 -0.066901
v 0.055557 0.200000 -0.083147
v 0.056895 0.000000 -0.056895
v 0.070711 0.200000 -0.070711
v 0.066901 0.000000 -0.044702
v 0.083147 0.200000 -0.055557
v 0.074336 0.000000 -0.030791
v 0.092388 0.200000 -0.038268
v 0.078915 0.000000 -0.015697
v 0.098079 0.200000 -0.019509
v 0.080461 0.000000 0.000000
v 0.100000 0.200000 0.000000
v 0.078915 0.000000 0.015697
v 0.098079 0.200000 0.019509
v 0.074336 0.000000 0.030791
v 0.092388 0.200000 0.038268
v 0.066901 0.000000 0.044702
v 0.083147 0.200000 0.055557
v 0.056895 0.000000 0.056895
v 0.070711 0.200000 0.070711
v 0.044702 0.000000 0.066901
v 0.055557 0.200000 0.083147
v 0.030791 0.000000 0.074336
v 0.038268 0.200000 0.092388
v 0.015697 0.000000 0.078915
v 0.019509 0.200000 0.098079
v 0.000000 0.000000 0.080461
v 0.000000 0.200000 0.100000
v -0.015697 0.000000 0.078915
v -0.019509 0.200000 0.098079
v -0.030791 0.000000 0.074336
v -0.038268 0.200000 0.092388
v -0.044702 0.000000 0.066901
v -0.055557 0.200000 0.083147
v -0.056894 0.000000 0.056895
v -0.070711 0.200000 0.070711
v -0.066901 0.000000 0.044702
v -0.083147 0.200000 0.055557
v -0.074336 0.000000 0.030791
v -0.092388 0.200000 0.038268
v -0.078915 0.000000 0.015697
v -0.098079 0.200000 0.019509
v -0.080461 0.000000 0.000000
v -0.100000 0.200000 0.000000
v -0.078915 0.000000 -0.015697
v -0.098079 0.200000 -0.019509
v -0.074336 0.000000 -0.030791
v -0.092388 0.200000 -0.038268
v -0.066901 0.000000 -0.044702
v -0.083147 0.200000 -0.055557
v -0.056894 0.000000 -0.056895
v -0.070711 0.200000 -0.070711
v -0.044702 0.000000 -0.066901
v -0.055557 0.200000 -0.083147
v -0.030791 0.000000 -0.074336
v -0.038268 0.200000 -0.092388
v -0.015697 0.000000 -0.078915
v -0.019509 0.200000 -0.098079
v 0.000000 0.240000 -0.100000
v 0.019509 0.240000 -0.098079
v 0.038268 0.240000 -0.092388
v 0.055557 0.240000 -0.083147
v 0.070711 0.240000 -0.070711
v 0.083147 0.240000 -0.055557
v 0.092388 0.240000 -0.038268
v 0.098079 0.240000 -0.019509
v 0.100000 0.240000 0.000000
v 0.098079 0.240000 0.019509
v 0.092388 0.240000 0.038268
v 0.083147 0.240000 0.055557
v 0.070711 0.240000 0.070711
v 0.055557 0.240000 0.083147
v 0.038268 0.240000 0.092388
v 0.019509 0.240000 0.098079
v 0.000000 0.240000 0.100000
v -0.019509 0.240000 0.098079
v -0.038268 0.240000 0.092388
v -0.055557 0.240000 0.083147
v -0.070711 0.240000 0.070711
v -0.083147 0.240000 0.055557
v -0.092388 0.240000 0.038268
v -0.098079 0.240000 0.019509
v -0.100000 0.240000 0.000000
v -0.098079 0.240000 -0.019509
v -0.092388 0.240000 -0.038268
v -0.083147 0.240000 -0.055557
v -0.070711 0.240000 -0.070711
v -0.055557 0.240000 -0.083147
v -0.038268 0.240000 -0.092388
v -0.019509 0.240000 -0.098079
v 0.019010 0.360000 -0.095569
v 0.068901 0.360000 -0.068901
v 0.081019 0.360000 -0.054135
v 0.090024 0.360000 -0.037289
v 0.081019 0.360000 0.054135
v 0.068901 0.360000 0.068901
v 0.054135 0.360000 0.081019
v 0.037289 0.360000 0.090024
v 0.019010 0.360000 0.095569
v 0.000000 0.360000 0.097441
v -0.019010 0.360000 0.095569
v -0.037289 0.360000 0.090024
v -0.054135 0.360000 0.081019
v -0.068901 0.360000 0.068901
v -0.081019 0.360000 0.054135
v -0.090024 0.360000 0.037289
v -0.095569 0.360000 0.019010
v -0.090024 0.360000 -0.037289
v -0.081019 0.360000 -0.054135
v -0.068901 0.360000 -0.068901
v -0.054135 0.360000 -0.081019
v -0.037289 0.360000 -0.090024
v 0.003549 0.676543 -0.017839
v 0.008948 0.576836 -0.044980
v 0.014607 0.460973 -0.073432
v 0.037289 0.360000 -0.090024
v 0.006961 0.676543 -0.016804
v 0.028652 0.460973 -0.069171
v 0.017551 0.576836 -0.042371
v -0.012860 0.676543 -0.012861
v -0.032429 0.576836 -0.032429
v -0.052941 0.460973 -0.052941
v -0.041596 0.460973 -0.062252
v -0.025479 0.576836 -0.038133
v 0.003549 0.676543 0.017839
v 0.008948 0.576836 0.044980
v 0.014607 0.460973 0.073432
v 0.000001 0.676543 0.018188
v 0.000000 0.460973 0.074870
v 0.000000 0.576836 0.045862
v 0.054135 0.360000 -0.081019
v 0.010105 0.676543 -0.015123
v 0.041596 0.460973 -0.062252
v 0.025480 0.576836 -0.038133
v -0.006960 0.676543 -0.016804
v -0.028651 0.460973 -0.069171
v -0.017550 0.576836 -0.042371
v -0.003548 0.676543 0.017839
v -0.014606 0.460973 0.073432
v -0.008947 0.576836 0.044980
v 0.012861 0.676543 -0.012861
v 0.052941 0.460973 -0.052941
v 0.032429 0.576836 -0.032429
v -0.019010 0.360000 -0.095569
v -0.003548 0.676543 -0.017839
v -0.014606 0.460973 -0.073432
v -0.008947 0.576836 -0.044980
v -0.006960 0.676543 0.016804
v -0.028651 0.460973 0.069171
v -0.017550 0.576836 0.042371
v 0.015123 0.676543 -0.010105
v 0.062252 0.460973 -0.041596
v 0.038133 0.576836 -0.025479
v 0.000000 0.360000 -0.097441
v 0.000001 0.676543 -0.018188
v 0.000000 0.460973 -0.074870
v 0.000000 0.576836 -0.045862
v -0.010104 0.676543 0.015123
v -0.041595 0.460973 0.062252
v -0.025479 0.576836 0.038133
v 0.069171 0.460973 -0.028652
v 0.042371 0.576836 -0.017550
v -0.052941 0.460973 0.052941
v -0.032429 0.576836 0.032429
v 0.095569 0.360000 -0.019010
v 0.073432 0.460973 -0.014606
v 0.044981 0.576836 -0.008947
v -0.062252 0.460973 0.041596
v -0.038132 0.576836 0.025479
v 0.097441 0.360000 0.000000
v 0.018189 0.676543 0.000000
v 0.074870 0.460973 0.000000
v 0.045862 0.576836 0.000000
v -0.016803 0.676543 0.006960
v -0.069171 0.460973 0.028652
v -0.042370 0.576836 0.017550
v 0.095569 0.360000 0.019010
v 0.017839 0.676543 0.003548
v 0.073432 0.460973 0.014606
v 0.044981 0.576836 0.008947
v -0.017838 0.676543 0.003548
v -0.073431 0.460973 0.014606
v -0.044980 0.576836 0.008947
v 0.090024 0.360000 0.037289
v 0.016804 0.676543 0.006960
v 0.069171 0.460973 0.028652
v 0.042371 0.576836 0.017550
v -0.097441 0.360000 0.000000
v -0.018187 0.676543 0.000000
v -0.074870 0.460973 0.000000
v -0.045861 0.576836 0.000000
v 0.062252 0.460973 0.041596
v 0.038133 0.576836 0.025479
v -0.095569 0.360000 -0.019010
v -0.017838 0.676543 -0.003548
v -0.073431 0.460973 -0.014606
v -0.044980 0.576836 -0.008947
v 0.052941 0.460973 0.052941
v 0.032429 0.576836 0.032429
v -0.016803 0.676543 -0.006960
v -0.069171 0.460973 -0.028652
v -0.042370 0.576836 -0.017550
v 0.010105 0.676543 0.015123
v 0.041596 0.460973 0.062252
v 0.025480 0.576836 0.038133
v -0.062252 0.460973 -0.041596
v -0.038132 0.576836 -0.025479
v 0.006961 0.676543 0.016804
v 0.028652 0.460973 0.069171
v 0.017551 0.576836 0.042371
v 0.000001 0.691000 -0.000000
v 0.005445 0.686059 0.013145
v -0.036809 0.200000 -0.088866
v -0.015122 0.676543 -0.010105
v -0.011829 0.686059 -0.007904
v -0.053439 0.200000 -0.079977
v 0.007905 0.686059 0.011830
v -0.068015 0.200000 -0.068015
v -0.013144 0.686059 -0.005445
v -0.079977 0.200000 -0.053439
v 0.012861 0.676543 0.012861
v 0.010061 0.686059 0.010060
v -0.088866 0.200000 -0.036809
v -0.013954 0.686059 -0.002776
v -0.094340 0.200000 -0.018765
v 0.015123 0.676543 0.010105
v 0.011830 0.686059 0.007904
v -0.096188 0.200000 0.000000
v -0.014227 0.686059 -0.000000
v -0.094340 0.200000 0.018765
v 0.013145 0.686059 0.005445
v -0.088866 0.200000 0.036809
v -0.013954 0.686058 0.002776
v -0.079977 0.200000 0.053439
v 0.013955 0.686059 0.002776
v -0.068015 0.200000 0.068015
v -0.013144 0.686059 0.005445
v -0.053439 0.200000 0.079977
v 0.014228 0.686059 0.000000
v -0.036809 0.200000 0.088866
v -0.015122 0.676543 0.010105
v -0.011829 0.686058 0.007904
v -0.018765 0.200000 0.094340
v 0.017839 0.676543 -0.003548
v 0.013955 0.686059 -0.002776
v 0.000000 0.200000 0.096188
v -0.012860 0.676543 0.012861
v -0.010060 0.686059 0.010060
v 0.018765 0.200000 0.094340
v 0.016804 0.676543 -0.006960
v 0.013145 0.686059 -0.005445
v 0.036809 0.200000 0.088866
v -0.007904 0.686059 0.011830
v 0.053439 0.200000 0.079977
v 0.000001 0.686059 -0.014228
v 0.068015 0.200000 0.068015
v 0.011830 0.686059 -0.007904
v 0.079977 0.200000 0.053439
v -0.005444 0.686059 0.013145
v 0.088866 0.200000 0.036809
v -0.002775 0.686059 -0.013954
v 0.094340 0.200000 0.018765
v 0.010061 0.686059 -0.010060
v 0.096188 0.200000 0.000000
v -0.002775 0.686059 0.013954
v 0.094340 0.200000 -0.018765
v -0.005444 0.686059 -0.013145
v 0.088866 0.200000 -0.036809
v 0.007905 0.686059 -0.011830
v 0.079977 0.200000 -0.053439
v 0.000001 0.686059 0.014228
v 0.068015 0.200000 -0.068015
v 0.002776 0.686058 0.013954
v 0.053439 0.200000 -0.079977
v -0.010104 0.676543 -0.015123
v -0.007904 0.686059 -0.011830
v 0.036809 0.200000 -0.088866
v -0.010060 0.686059 -0.010060
v 0.000000 0.200000 -0.096188
v 0.005445 0.686059 -0.013145
v 0.018765 0.200000 -0.094340
v 0.002776 0.686058 -0.013954
v -0.003299 0.690001 -0.003299
v -0.002592 0.689999 -0.003880
v 0.001786 0.690001 -0.004311
v 0.002593 0.689999 -0.003880
v 0.000001 0.690001 0.004666
v -0.000910 0.690000 0.004576
v -0.001785 0.690000 -0.004311
v -0.000910 0.690000 -0.004576
v 0.003300 0.690000 -0.003299
v 0.003880 0.690000 -0.002592
v -0.001785 0.689999 0.004311
v -0.002592 0.690001 0.003880
v -0.003299 0.690000 0.003299
v -0.003879 0.689999 0.002592
v -0.004310 0.690002 0.001786
v -0.004576 0.689999 0.000910
v -0.004665 0.690000 -0.000000
v -0.004576 0.690000 -0.000910
v -0.004310 0.690000 -0.001786
v -0.003879 0.690000 -0.002592
v 0.000001 0.690001 -0.004666
v 0.000911 0.689999 -0.004576
v 0.003300 0.690000 0.003299
v 0.002593 0.689999 0.003880
v 0.003880 0.690000 0.002592
v 0.001786 0.690001 0.004311
v 0.000911 0.689999 0.004576
v 0.004311 0.690000 -0.001786
v 0.004577 0.690000 -0.000910
v 0.004667 0.690000 0.000000
v 0.004577 0.690000 0.000910
v 0.004311 0.690000 0.001786
v -0.018765 0.200000 -0.094340
v 0.018765 0.240000 -0.094340
v 0.000000 0.240000 -0.096188
v 0.036809 0.240000 -0.088866
v 0.053439 0.240000 -0.079977
v 0.068015 0.240000 -0.068015
v 0.079977 0.240000 -0.053439
v 0.088866 0.240000 -0.036809
v 0.094340 0.240000 -0.018765
v 0.096188 0.240000 0.000000
v 0.094340 0.240000 0.018765
v 0.088866 0.240000 0.036809
v 0.079977 0.240000 0.053439
v 0.068015 0.240000 0.068015
v 0.053439 0.240000 0.079977
v 0.036809 0.240000 0.088866
v 0.018765 0.240000 0.094340
v 0.000000 0.240000 0.096188
v -0.018765 0.240000 0.094340
v -0.036809 0.240000 0.088866
v -0.053439 0.240000 0.079977
v -0.068015 0.240000 0.068015
v -0.079977 0.240000 0.053439
v -0.088866 0.240000 0.036809
v -0.094340 0.240000 0.018765
v -0.096188 0.240000 0.000000
v -0.094340 0.240000 -0.018765
v -0.088866 0.240000 -0.036809
v -0.079977 0.240000 -0.053439
v -0.068015 0.240000 -0.068015
v -0.053439 0.240000 -0.079977
v -0.036809 0.240000 -0.088866
v -0.018765 0.240000 -0.094340
v 0.000000 0.080000 -0.100000
v 0.019509 0.080000 -0.098079
v 0.038268 0.080000 -0.092388
v 0.055557 0.080000 -0.083147
v 0.070711 0.080000 -0.070711
v 0.083147 0.080000 -0.055557
v 0.092388 0.080000 -0.038268
v 0.098079 0.080000 -0.019509
v 0.100000 0.080000 0.000000
v 0.098079 0.080000 0.019509
v 0.092388 0.080000 0.038268
v 0.083147 0.080000 0.055557
v 0.070711 0.080000 0.070711
v 0.055557 0.080000 0.083147
v 0.038268 0.080000 0.092388
v 0.019509 0.080000 0.098079
v 0.000000 0.080000 0.100000
v -0.019509 0.080000 0.098079
v -0.038268 0.080000 0.092388
v -0.055557 0.080000 0.083147
v -0.070711 0.080000 0.070711
v -0.083147 0.080000 0.055557
v -0.092388 0.080000 0.038268
v -0.098079 0.080000 0.019509
v -0.100000 0.080000 0.000000
v -0.098079 0.080000 -0.019509
v -0.092388 0.080000 -0.038268
v -0.083147 0.080000 -0.055557
v -0.070711 0.080000 -0.070711
v -0.055557 0.080000 -0.083147
v -0.038268 0.080000 -0.092388
v -0.019509 0.080000 -0.098079
v 0.018030 0.040000 -0.090642
v 0.035367 0.040000 -0.085383
v 0.051345 0.040000 -0.076843
v 0.065350 0.040000 -0.065350
v 0.076843 0.040000 -0.051345
v 0.085383 0.040000 -0.035367
v 0.090643 0.040000 -0.018030
v 0.092418 0.040000 0.000000
v 0.090643 0.040000 0.018030
v 0.085383 0.040000 0.035367
v 0.076843 0.040000 0.051345
v 0.065350 0.040000 0.065350
v 0.051345 0.040000 0.076843
v 0.035367 0.040000 0.085383
v 0.018030 0.040000 0.090642
v 0.000000 0.040000 0.092418
v -0.018030 0.040000 0.090642
v -0.035367 0.040000 0.085383
v -0.051345 0.040000 0.076843
v -0.065350 0.040000 0.065350
v -0.076843 0.040000 0.051345
v -0.085383 0.040000 0.035367
v -0.090642 0.040000 0.018030
v -0.092418 0.040000 0.000000
v -0.090642 0.040000 -0.018030
v -0.085383 0.040000 -0.035367
v -0.076843 0.040000 -0.051345
v -0.065350 0.040000 -0.065350
v -0.051345 0.040000 -0.076843
v -0.035367 0.040000 -0.085383
v -0.018030 0.040000 -0.090642
v 0.000000 0.040000 -0.092418
vn -0.0000 -0.0930 -0.9957
vn -0.0000 -0.0000 -1.0000
vn 0.1951 -0.0000 -0.9808
vn 0.1942 -0.0930 -0.9765
vn 0.3827 -0.0000 -0.9239
vn 0.3810 -0.0930 -0.9199
vn 0.5556 -0.0000 -0.8315
vn 0.5532 -0.0930 -0.8279
vn 0.7071 -0.0000 -0.7071
vn 0.7040 -0.0930 -0.7040
vn 0.8315 -0.0000 -0.5556
vn 0.8279 -0.0930 -0.5532
vn 0.9239 -0.0000 -0.3827
vn 0.9199 -0.0930 -0.3810
vn 0.9808 -0.0000 -0.1951
vn 0.9765 -0.0930 -0.1942
vn 1.0000 -0.0000 -0.0000
vn 0.9957 -0.0930 -0.0000
vn 0.9808 -0.0000 0.1951
vn 0.9765 -0.0930 0.1942
vn 0.9239 -0.0000 0.3827
vn 0.9199 -0.0930 0.3810
vn 0.8315 -0.0000 0.5556
vn 0.8279 -0.0930 0.5532
vn 0.7071 -0.0000 0.7071
vn 0.7040 -0.0930 0.7040
vn 0.5556 -0.0000 0.8315
vn 0.5532 -0.0930 0.8279
vn 0.3827 -0.0000 0.9239
vn 0.3810 -0.0930 0.9199
vn 0.1951 -0.0000 0.9808
vn 0.1942 -0.0930 0.9765
vn -0.0000 -0.0000 1.0000
vn -0.0000 -0.0930 0.9957
vn -0.1951 -0.0000 0.9808
vn -0.1942 -0.0930 0.9765
vn -0.3827 -0.0000 0.9239
vn -0.3810 -0.0930 0.9199
vn -0.5556 -0.0000 0.8315
vn -0.5532 -0.0930 0.8279
vn -0.7071 -0.0000 0.7071
vn -0.7040 -0.0930 0.7040
vn -0.8315 -0.0000 0.5556
vn -0.8279 -0.0930 0.5532
vn -0.9239 -0.0000 0.3827
vn -0.9199 -0.0930 0.3810
vn -0.9808 -0.0000 0.1951
vn -0.9765 -0.0930 0.1942
vn -1.0000 -0.0000 -0.0000
vn -0.9957 -0.0930 -0.0000
vn -0.9808 -0.0000 -0.1951
vn -0.9765 -0.0930 -0.1942
vn -0.9239 -0.0000 -0.3827
vn -0.9199 -0.0930 -0.3810
vn -0.8315 -0.0000 -0.5556
vn -0.8279 -0.0930 -0.5532
vn -0.7071 -0.0000 -0.7071
vn -0.7040 -0.0930 -0.7040
vn -0.5556 -0.0000 -0.8315
vn -0.5532 -0.0930 -0.8279
vn -0.3827 -0.0000 -0.9239
vn -0.3810 -0.0930 -0.9199
vn -0.0000 -1.0000 -0.0000
vn -0.1951 -0.0000 -0.9808
vn -0.1942 -0.0930 -0.9765
vn -0.0000 -0.7844 -0.6203
vn 0.1210 -0.7844 -0.6084
vn 0.2374 -0.7844 -0.5731
vn 0.3446 -0.7844 -0.5157
vn 0.4386 -0.7844 -0.4386
vn 0.5157 -0.7844 -0.3446
vn 0.5731 -0.7844 -0.2374
vn 0.6084 -0.7844 -0.1210
vn 0.6203 -0.7844 -0.0000
vn 0.6084 -0.7844 0.1210
vn 0.5731 -0.7844 0.2374
vn 0.5157 -0.7844 0.3446
vn 0.4386 -0.7844 0.4386
vn 0.3446 -0.7844 0.5157
vn 0.2374 -0.7844 0.5731
vn 0.1210 -0.7844 0.6084
vn -0.0000 -0.7844 0.6203
vn -0.1210 -0.7844 0.6084
vn -0.2374 -0.7844 0.5731
vn -0.3446 -0.7844 0.5157
vn -0.4386 -0.7844 0.4386
vn -0.5157 -0.7844 0.3446
vn -0.5731 -0.7844 0.2374
vn -0.6084 -0.7844 0.1210
vn -0.6203 -0.7844 -0.0000
vn -0.6084 -0.7844 -0.1210
vn -0.5731 -0.7844 -0.2374
vn -0.5157 -0.7844 -0.3446
vn -0.4386 -0.7844 -0.4386
vn -0.3446 -0.7844 -0.5157
vn -0.2374 -0.7844 -0.5731
vn -0.1210 -0.7844 -0.6084
vn -0.9237 0.0213 -0.3826
vn -0.9806 0.0213 -0.1950
vn -0.9737 0.1196 -0.1937
vn -0.9172 0.1196 -0.3799
vn -0.0000 1.0000 -0.0000
vn 0.5554 0.0213 0.8313
vn 0.7069 0.0213 0.7069
vn 0.7020 0.1196 0.7020
vn 0.5516 0.1196 0.8255
vn -0.8313 0.0213 -0.5554
vn -0.8255 0.1196 -0.5516
vn 0.3826 0.0213 0.9237
vn 0.3799 0.1196 0.9172
vn 0.1950 0.0213 -0.9806
vn -0.0000 0.0213 -0.9998
vn -0.0000 0.1196 -0.9928
vn 0.1937 0.1196 -0.9737
vn -0.7069 0.0213 -0.7069
vn -0.7020 0.1196 -0.7020
vn 0.1950 0.0213 0.9806
vn 0.1937 0.1196 0.9737
vn 0.3826 0.0213 -0.9237
vn 0.3799 0.1196 -0.9172
vn -0.5554 0.0213 -0.8313
vn -0.5516 0.1196 -0.8255
vn -0.0000 0.0213 0.9998
vn -0.0000 0.1196 0.9928
vn 0.5554 0.0213 -0.8313
vn 0.5516 0.1196 -0.8255
vn -0.3826 0.0213 -0.9237
vn -0.3799 0.1196 -0.9172
vn -0.1950 0.0213 0.9806
vn -0.1937 0.1196 0.9737
vn 0.7069 0.0213 -0.7069
vn 0.7020 0.1196 -0.7020
vn -0.1950 0.0213 -0.9806
vn -0.1937 0.1196 -0.9737
vn -0.3826 0.0213 0.9237
vn -0.3799 0.1196 0.9172
vn 0.8313 0.0213 -0.5554
vn 0.8255 0.1196 -0.5516
vn -0.5554 0.0213 0.8313
vn -0.5516 0.1196 0.8255
vn 0.9237 0.0213 -0.3826
vn 0.9172 0.1196 -0.3799
vn -0.7069 0.0213 0.7069
vn -0.7020 0.1196 0.7020
vn 0.9806 0.0213 -0.1950
vn 0.9737 0.1196 -0.1937
vn -0.8313 0.0213 0.5554
vn -0.8255 0.1196 0.5516
vn 0.9998 0.0213 -0.0000
vn 0.9928 0.1196 -0.0000
vn -0.9237 0.0213 0.3826
vn -0.9172 0.1196 0.3799
vn 0.9806 0.0213 0.1950
vn 0.9737 0.1196 0.1937
vn -0.9806 0.0213 0.1950
vn -0.9737 0.1196 0.1937
vn 0.9237 0.0213 0.3826
vn 0.9172 0.1196 0.3799
vn -0.9998 0.0213 -0.0000
vn -0.9928 0.1196 -0.0000
vn 0.8313 0.0213 0.5554
vn 0.8255 0.1196 0.5516
vn 0.3619 0.3253 0.8736
vn 0.1845 0.3253 0.9274
vn 0.1886 0.2550 0.9484
vn 0.3700 0.2550 0.8933
vn 0.1898 0.2304 0.9544
vn 0.3724 0.2304 0.8990
vn -0.7863 0.3253 -0.5254
vn -0.6686 0.3253 -0.6687
vn -0.6837 0.2550 -0.6837
vn -0.8040 0.2550 -0.5372
vn -0.6881 0.2304 -0.6881
vn -0.8091 0.2304 -0.5406
vn -0.0000 0.3253 -0.9456
vn 0.1845 0.3253 -0.9274
vn 0.1886 0.2550 -0.9484
vn -0.0000 0.2550 -0.9669
vn 0.1898 0.2304 -0.9544
vn -0.0000 0.2304 -0.9731
vn 0.5254 0.3253 0.7862
vn 0.5372 0.2550 0.8040
vn 0.5406 0.2304 0.8091
vn -0.8736 0.3253 -0.3619
vn -0.8933 0.2550 -0.3700
vn -0.8990 0.2304 -0.3724
vn 0.6686 0.3253 0.6687
vn 0.6837 0.2550 0.6837
vn 0.6881 0.2304 0.6881
vn -0.9274 0.3253 -0.1845
vn -0.9484 0.2550 -0.1886
vn -0.9544 0.2304 -0.1898
vn 0.7862 0.3253 0.5254
vn 0.8040 0.2550 0.5372
vn 0.8091 0.2304 0.5406
vn -0.9456 0.3253 -0.0000
vn -0.9669 0.2550 -0.0000
vn -0.9731 0.2304 -0.0000
vn 0.8736 0.3253 0.3619
vn 0.8933 0.2550 0.3700
vn 0.8990 0.2304 0.3724
vn -0.9274 0.3253 0.1845
vn -0.9484 0.2550 0.1886
vn -0.9544 0.2304 0.1898
vn 0.9274 0.3253 0.1845
vn 0.9484 0.2550 0.1886
vn 0.9544 0.2304 0.1898
vn -0.8736 0.3253 0.3619
vn -0.8933 0.2550 0.3700
vn -0.8990 0.2304 0.3724
vn 0.9456 0.3253 -0.0000
vn 0.9669 0.2550 -0.0000
vn 0.9731 0.2304 -0.0000
vn -0.7862 0.3253 0.5254
vn -0.8040 0.2550 0.5372
vn -0.8091 0.2304 0.5406
vn 0.9274 0.3253 -0.1845
vn 0.9484 0.2550 -0.1886
vn 0.9544 0.2304 -0.1898
vn -0.6687 0.3253 0.6686
vn -0.6837 0.2550 0.6837
vn -0.6881 0.2304 0.6881
vn 0.8736 0.3253 -0.3619
vn 0.8933 0.2550 -0.3700
vn 0.8990 0.2304 -0.3724
vn -0.5254 0.3253 0.7862
vn -0.5372 0.2550 0.8040
vn -0.5406 0.2304 0.8091
vn 0.7862 0.3253 -0.5254
vn 0.8040 0.2550 -0.5372
vn 0.8091 0.2304 -0.5406
vn -0.3619 0.3253 0.8736
vn -0.3700 0.2550 0.8933
vn -0.3724 0.2304 0.8990
vn -0.1845 0.3253 -0.9274
vn -0.1886 0.2550 -0.9484
vn -0.1898 0.2304 -0.9544
vn 0.6686 0.3253 -0.6687
vn 0.6837 0.2550 -0.6837
vn 0.6881 0.2304 -0.6881
vn -0.1845 0.3253 0.9274
vn -0.1886 0.2550 0.9484
vn -0.1898 0.2304 0.9544
vn -0.3619 0.3253 -0.8736
vn -0.3700 0.2550 -0.8933
vn -0.3724 0.2304 -0.8990
vn 0.5254 0.3253 -0.7862
vn 0.5372 0.2550 -0.8040
vn 0.5406 0.2304 -0.8091
vn -0.0000 0.3253 0.9456
vn -0.0000 0.2550 0.9669
vn -0.0000 0.2304 0.9731
vn -0.5254 0.3253 -0.7863
vn -0.5372 0.2550 -0.8040
vn -0.5406 0.2304 -0.8091
vn 0.3619 0.3253 -0.8736
vn 0.3700 0.2550 -0.8933
vn 0.3724 0.2304 -0.8990
vn -0.2130 0.9535 -0.2134
vn -0.1674 0.9534 -0.2510
vn -0.3986 0.6965 -0.5966
vn -0.5073 0.6966 -0.5074
vn 0.1154 0.9535 -0.2785
vn 0.1679 0.9534 -0.2507
vn 0.3987 0.6965 -0.5965
vn 0.2745 0.6966 -0.6628
vn 0.0003 0.9535 0.3015
vn -0.0594 0.9534 0.2957
vn -0.1401 0.6966 0.7037
vn 0.0001 0.6966 0.7175
vn -0.1157 0.9534 -0.2785
vn -0.0591 0.9534 -0.2958
vn -0.1400 0.6966 -0.7037
vn -0.2746 0.6966 -0.6628
vn 0.2130 0.9534 -0.2135
vn 0.2508 0.9534 -0.1676
vn 0.5966 0.6966 -0.3986
vn 0.5073 0.6966 -0.5074
vn -0.1152 0.9534 0.2789
vn -0.1673 0.9535 0.2508
vn -0.3986 0.6966 0.5966
vn -0.2745 0.6965 0.6629
vn -0.2137 0.9534 0.2128
vn -0.5075 0.6966 0.5072
vn -0.2505 0.9534 0.1681
vn -0.5965 0.6965 0.3988
vn -0.2784 0.9535 0.1153
vn -0.6628 0.6966 0.2746
vn -0.2961 0.9534 0.0583
vn -0.7038 0.6965 0.1398
vn -0.3016 0.9534 0.0003
vn -0.7175 0.6966 0.0001
vn -0.2958 0.9534 -0.0588
vn -0.7037 0.6966 -0.1400
vn -0.2787 0.9534 -0.1154
vn -0.6629 0.6966 -0.2746
vn -0.2510 0.9534 -0.1673
vn -0.5966 0.6965 -0.3986
vn 0.0003 0.9535 -0.3015
vn 0.0588 0.9534 -0.2960
vn 0.1400 0.6965 -0.7037
vn 0.0001 0.6966 -0.7175
vn 0.2130 0.9534 0.2135
vn 0.1679 0.9534 0.2507
vn 0.3987 0.6965 0.5965
vn 0.5073 0.6966 0.5074
vn 0.2508 0.9534 0.1676
vn 0.5966 0.6966 0.3986
vn 0.1154 0.9535 0.2785
vn 0.2745 0.6966 0.6628
vn 0.0588 0.9534 0.2960
vn 0.1400 0.6965 0.7037
vn 0.2787 0.9534 -0.1154
vn 0.6629 0.6966 -0.2746
vn 0.2958 0.9534 -0.0588
vn 0.7037 0.6966 -0.1400
vn 0.3016 0.9534 -0.0000
vn 0.7175 0.6966 -0.0000
vn 0.2958 0.9534 0.0588
vn 0.7037 0.6966 0.1400
vn 0.2786 0.9534 0.1154
vn 0.6629 0.6966 0.2746
vn -0.1896 -0.2359 -0.9531
vn -0.0000 -0.2359 -0.9718
vn -0.3719 -0.2359 -0.8978
vn -0.5399 -0.2359 -0.8080
vn -0.6872 -0.2359 -0.6872
vn -0.8080 -0.2359 -0.5399
vn -0.8978 -0.2359 -0.3719
vn -0.9531 -0.2359 -0.1896
vn -0.9718 -0.2359 -0.0000
vn -0.9531 -0.2359 0.1896
vn -0.8978 -0.2359 0.3719
vn -0.8080 -0.2359 0.5399
vn -0.6872 -0.2359 0.6872
vn -0.5399 -0.2359 0.8080
vn -0.3719 -0.2359 0.8978
vn -0.1896 -0.2359 0.9531
vn -0.0000 -0.2359 0.9718
vn 0.1896 -0.2359 0.9531
vn 0.3719 -0.2359 0.8978
vn 0.5399 -0.2359 0.8080
vn 0.6872 -0.2359 0.6872
vn 0.8080 -0.2359 0.5399
vn 0.8978 -0.2359 0.3719
vn 0.9531 -0.2359 0.1896
vn 0.9718 -0.2359 -0.0000
vn 0.9531 -0.2359 -0.1896
vn 0.8978 -0.2359 -0.3719
vn 0.8080 -0.2359 -0.5399
vn 0.6872 -0.2359 -0.6872
vn 0.5399 -0.2359 -0.8080
vn 0.3719 -0.2359 -0.8978
vn 0.1896 -0.2359 -0.9531
vt 1.000000 0.666667
vt 1.000000 1.000000
vt 0.968750 1.000000
vt 0.968750 0.666667
vt 0.937500 1.000000
vt 0.937500 0.666667
vt 0.906250 1.000000
vt 0.906250 0.666667
vt 0.875000 1.000000
vt 0.875000 0.666667
vt 0.843750 1.000000
vt 0.843750 0.666667
vt 0.812500 1.000000
vt 0.812500 0.666667
vt 0.781250 1.000000
vt 0.781250 0.666667
vt 0.750000 1.000000
vt 0.750000 0.666667
vt 0.718750 1.000000
vt 0.718750 0.666667
vt 0.687500 1.000000
vt 0.687500 0.666667
vt 0.656250 1.000000
vt 0.656250 0.666667
vt 0.625000 1.000000
vt 0.625000 0.666667
vt 0.593750 1.000000
vt 0.593750 0.666667
vt 0.562500 1.000000
vt 0.562500 0.666667
vt 0.531250 1.000000
vt 0.531250 0.666667
vt 0.500000 1.000000
vt 0.500000 0.666667
vt 0.468750 1.000000
vt 0.468750 0.666667
vt 0.437500 1.000000
vt 0.437500 0.666667
vt 0.406250 1.000000
vt 0.406250 0.666667
vt 0.375000 1.000000
vt 0.375000 0.666667
vt 0.343750 1.000000
vt 0.343750 0.666667
vt 0.312500 1.000000
vt 0.312500 0.666667
vt 0.281250 1.000000
vt 0.281250 0.666667
vt 0.250000 1.000000
vt 0.250000 0.666667
vt 0.218750 1.000000
vt 0.218750 0.666667
vt 0.187500 1.000000
vt 0.187500 0.666667
vt 0.156250 1.000000
vt 0.156250 0.666667
vt 0.125000 1.000000
vt 0.125000 0.666667
vt 0.093750 1.000000
vt 0.093750 0.666667
vt 0.062500 1.000000
vt 0.062500 0.666667
vt 0.031250 1.000000
vt 0.031250 0.666667
vt 0.000000 1.000000
vt 0.000000 0.666667
vt 0.750000 0.490000
vt 0.796822 0.485388
vt 0.841844 0.471731
vt 0.883337 0.449553
vt 0.919706 0.419706
vt 0.949553 0.383337
vt 0.971731 0.341844
vt 0.985388 0.296822
vt 0.990000 0.250000
vt 0.985388 0.203178
vt 0.971731 0.158156
vt 0.949553 0.116663
vt 0.919706 0.080294
vt 0.883337 0.050447
vt 0.841844 0.028269
vt 0.796822 0.014612
vt 0.750000 0.010000
vt 0.703178 0.014612
vt 0.658156 0.028269
vt 0.616663 0.050447
vt 0.580294 0.080294
vt 0.550447 0.116663
vt 0.528269 0.158156
vt 0.514612 0.203178
vt 0.510000 0.250000
vt 0.514612 0.296822
vt 0.528269 0.341844
vt 0.550447 0.383337
vt 0.580294 0.419706
vt 0.616663 0.449553
vt 0.658156 0.471731
vt 0.703178 0.485388
vt 0.531250 1.000000
vt 0.531250 1.000000
vt 0.562500 1.000000
vt 0.562500 1.000000
vt 0.156250 1.000000
vt 0.125000 1.000000
vt 0.156250 1.000000
vt 0.125000 1.000000
vt 0.156250 1.000000
vt 0.968750 1.000000
vt 0.999395 1.000000
vt 0.968750 1.000000
vt 0.999617 1.000000
vt 0.593750 1.000000
vt 0.593750 1.000000
vt 0.187500 1.000000
vt 0.187500 1.000000
vt 0.625000 1.000000
vt 0.625000 1.000000
vt 0.218750 1.000000
vt 0.218750 1.000000
vt 0.218750 1.000000
vt 0.656250 1.000000
vt 0.656250 1.000000
vt 0.656250 1.000000
vt 0.250000 1.000000
vt 0.250000 1.000000
vt 0.687500 1.000000
vt 0.281250 1.000000
vt 0.281250 1.000000
vt 0.281250 1.000000
vt 0.718750 1.000000
vt 0.312500 1.000000
vt 0.312500 1.000000
vt 0.750000 1.000000
vt 0.750000 1.000000
vt 0.343750 1.000000
vt 0.343750 1.000000
vt 0.343750 1.000000
vt 0.781250 1.000000
vt 0.781250 1.000000
vt 0.781250 1.000000
vt 0.375000 1.000000
vt 0.375000 1.000000
vt 0.375000 1.000000
vt 0.812500 1.000000
vt 0.812500 1.000000
vt 0.812500 1.000000
vt 0.406250 1.000000
vt 0.406250 1.000000
vt 0.406250 1.000000
vt 0.406250 1.000000
vt 0.843750 1.000000
vt 0.843750 1.000000
vt 0.437500 1.000000
vt 0.437500 1.000000
vt 0.437500 1.000000
vt 0.000604 1.000000
vt 0.031250 1.000000
vt 0.000383 1.000000
vt 0.031250 1.000000
vt 0.031250 1.000000
vt 0.875000 1.000000
vt 0.875000 1.000000
vt 0.468750 1.000000
vt 0.468750 1.000000
vt 0.468750 1.000000
vt 0.062500 1.000000
vt 0.062500 1.000000
vt 0.062500 1.000000
vt 0.906250 1.000000
vt 0.906250 1.000000
vt 0.500000 1.000000
vt 0.500000 1.000000
vt 0.093750 1.000000
vt 0.093750 1.000000
vt 0.093750 1.000000
vt 0.937500 1.000000
vt 0.937500 1.000000
vt 0.937500 1.000000
vt 0.450147 1.000000
vt 0.464611 1.000000
vt 0.093750 1.000000
vt 0.125000 1.000000
vt 0.566639 1.000000
vt 0.581103 1.000000
vt 0.906250 1.000000
vt 0.937500 1.000000
vt 0.906250 1.000000
vt 0.937500 1.000000
vt 0.509394 1.000000
vt 0.497037 1.000000
vt 0.468750 1.000000
vt 0.500000 1.000000
vt 0.500000 1.000000
vt 0.483093 1.000000
vt 0.504434 1.000000
vt 0.051296 1.000000
vt 0.062500 1.000000
vt 0.591118 1.000000
vt 0.596810 1.000000
vt 0.843750 1.000000
vt 0.484993 1.000000
vt 0.473489 1.000000
vt 0.406250 1.000000
vt 0.437500 1.000000
vt 0.462771 1.000000
vt 0.453120 1.000000
vt 0.343750 1.000000
vt 0.444864 1.000000
vt 0.438385 1.000000
vt 0.281250 1.000000
vt 0.281250 1.000000
vt 0.434134 1.000000
vt 0.250000 1.000000
vt 0.432629 1.000000
vt 0.218750 1.000000
vt 0.434440 1.000000
vt 0.187500 1.000000
vt 0.440132 1.000000
vt 0.156250 1.000000
vt 0.156250 1.000000
vt 0.526816 1.000000
vt 0.548156 1.000000
vt 0.968750 1.000000
vt 0.969127 1.000000
vt 1.000000 1.000000
vt 0.557761 1.000000
vt 0.546257 1.000000
vt 0.593750 1.000000
vt 0.568479 1.000000
vt 0.656250 1.000000
vt 0.534213 1.000000
vt 0.562500 1.000000
vt 0.521855 1.000000
vt 0.531250 1.000000
vt 0.003402 1.000000
vt 0.598620 1.000000
vt 0.812500 1.000000
vt 0.597116 1.000000
vt 0.781250 1.000000
vt 0.592864 1.000000
vt 0.750000 1.000000
vt 0.586386 1.000000
vt 0.578129 1.000000
vt 0.495210 1.000000
vt 0.542570 1.000000
vt 0.506005 1.000000
vt 0.511290 1.000000
vt 0.551223 1.000000
vt 0.494129 1.000000
vt 0.488977 1.000000
vt 0.484579 1.000000
vt 0.481118 1.000000
vt 0.478770 1.000000
vt 0.477710 1.000000
vt 0.478091 1.000000
vt 0.480026 1.000000
vt 0.483568 1.000000
vt 0.528371 1.000000
vt 0.531387 1.000000
vt 0.537120 1.000000
vt 0.525244 1.000000
vt 0.488680 1.000000
vt 0.536040 1.000000
vt 0.512391 1.000000
vt 0.502879 1.000000
vt 0.518858 1.000000
vt 0.547681 1.000000
vt 0.499862 1.000000
vt 0.519959 1.000000
vt 0.553159 1.000000
vt 0.553539 1.000000
vt 0.552480 1.000000
vt 0.550132 1.000000
vt 0.546670 1.000000
vt 0.542273 1.000000
vt 0.031250 0.583333
vt 0.000000 0.583333
vt 0.062500 0.583333
vt 0.093750 0.583333
vt 0.125000 0.583333
vt 0.156250 0.583333
vt 0.187500 0.583333
vt 0.218750 0.583333
vt 0.250000 0.583333
vt 0.281250 0.583333
vt 0.312500 0.583333
vt 0.343750 0.583333
vt 0.375000 0.583333
vt 0.406250 0.583333
vt 0.437500 0.583333
vt 0.468750 0.583333
vt 0.500000 0.583333
vt 0.531250 0.583333
vt 0.562500 0.583333
vt 0.593750 0.583333
vt 0.625000 0.583333
vt 0.656250 0.583333
vt 0.687500 0.583333
vt 0.718750 0.583333
vt 0.750000 0.583333
vt 0.781250 0.583333
vt 0.812500 0.583333
vt 0.843750 0.583333
vt 0.875000 0.583333
vt 0.906250 0.583333
vt 0.937500 0.583333
vt 0.968750 0.583333
vt 1.000000 0.583333
vt 1.000000 0.500000
vt 0.968750 0.500000
vt 0.937500 0.500000
vt 0.906250 0.500000
vt 0.875000 0.500000
vt 0.843750 0.500000
vt 0.812500 0.500000
vt 0.781250 0.500000
vt 0.750000 0.500000
vt 0.718750 0.500000
vt 0.687500 0.500000
vt 0.656250 0.500000
vt 0.625000 0.500000
vt 0.593750 0.500000
vt 0.562500 0.500000
vt 0.531250 0.500000
vt 0.500000 0.500000
vt 0.468750 0.500000
vt 0.437500 0.500000
vt 0.406250 0.500000
vt 0.375000 0.500000
vt 0.343750 0.500000
vt 0.312500 0.500000
vt 0.281250 0.500000
vt 0.250000 0.500000
vt 0.218750 0.500000
vt 0.187500 0.500000
vt 0.156250 0.500000
vt 0.125000 0.500000
vt 0.093750 0.500000
vt 0.062500 0.500000
vt 0.031250 0.500000
vt 0.000000 0.500000
s 1
f 354/1/1 2/2/2 4/3/3 355/4/4
f 355/4/4 4/3/3 6/5/5 356/6/6
f 356/6/6 6/5/5 8/7/7 357/8/8
f 357/8/8 8/7/7 10/9/9 358/10/10
f 358/10/10 10/9/9 12/11/11 359/12/12
f 359/12/12 12/11/11 14/13/13 360/14/14
f 360/14/14 14/13/13 16/15/15 361/16/16
f 361/16/16 16/15/15 18/17/17 362/18/18
f 362/18/18 18/17/17 20/19/19 363/20/20
f 363/20/20 20/19/19 22/21/21 364/22/22
f 364/22/22 22/21/21 24/23/23 365/24/24
f 365/24/24 24/23/23 26/25/25 366/26/26
f 366/26/26 26/25/25 28/27/27 367/28/28
f 367/28/28 28/27/27 30/29/29 368/30/30
f 368/30/30 30/29/29 32/31/31 369/32/32
f 369/32/32 32/31/31 34/33/33 370/34/34
f 370/34/34 34/33/33 36/35/35 371/36/36
f 371/36/36 36/35/35 38/37/37 372/38/38
f 372/38/38 38/37/37 40/39/39 373/40/40
f 373/40/40 40/39/39 42/41/41 374/42/42
f 374/42/42 42/41/41 44/43/43 375/44/44
f 375/44/44 44/43/43 46/45/45 376/46/46
f 376/46/46 46/45/45 48/47/47 377/48/48
f 377/48/48 48/47/47 50/49/49 378/50/50
f 378/50/50 50/49/49 52/51/51 379/52/52
f 379/52/52 52/51/51 54/53/53 380/54/54
f 380/54/54 54/53/53 56/55/55 381/56/56
f 381/56/56 56/55/55 58/57/57 382/58/58
f 382/58/58 58/57/57 60/59/59 383/60/60
f 383/60/60 60/59/59 62/61/61 384/62/62
f 71/13/63 72/15/63 329/15/63 328/13/63
f 384/62/62 62/61/61 64/63/64 385/64/65
f 385/64/65 64/63/64 2/65/2 354/66/1
f 1/67/66 3/68/67 5/69/68 7/70/69 9/71/70 11/72/71 13/73/72 15/74/73 17/75/74 19/76/75 21/77/76 23/78/77 25/79/78 27/80/79 29/81/80 31/82/81 33/83/82 35/84/83 37/85/84 39/86/85 41/87/86 43/88/87 45/89/88 47/90/89 49/91/90 51/92/91 53/93/92 55/94/93 57/95/94 59/96/95 61/97/96 63/98/97
f 91/53/98 90/51/99 200/51/100 114/53/101
f 18/17/102 16/15/102 272/15/102 270/17/102
f 70/11/63 71/13/63 328/13/63 327/11/63
f 96/63/63 65/65/63 323/65/63 353/63/63
f 52/51/102 50/49/102 234/49/102 231/51/102
f 69/9/63 70/11/63 327/11/63 326/9/63
f 95/61/63 96/63/63 353/63/63 352/61/63
f 34/33/102 32/31/102 255/31/102 252/33/102
f 68/7/63 69/9/63 326/9/63 325/7/63
f 94/59/63 95/61/63 352/61/63 351/59/63
f 16/15/102 14/13/102 274/13/102 272/15/102
f 67/5/63 68/7/63 325/7/63 324/5/63
f 93/57/63 94/59/63 351/59/63 350/57/63
f 50/49/102 48/47/102 236/47/102 234/49/102
f 66/3/63 67/5/63 324/5/63 322/3/63
f 92/55/63 93/57/63 350/57/63 349/55/63
f 32/31/102 30/29/102 258/29/102 255/31/102
f 65/2/63 66/3/63 322/3/63 323/2/63
f 91/53/63 92/55/63 349/55/63 348/53/63
f 14/13/102 12/11/102 276/11/102 274/13/102
f 2/65/102 64/63/102 321/63/102 285/65/102
f 90/51/63 91/53/63 348/53/63 347/51/63
f 48/47/102 46/45/102 238/45/102 236/47/102
f 89/49/63 90/51/63 347/51/63 346/49/63
f 30/29/102 28/27/102 260/27/102 258/29/102
f 88/47/63 89/49/63 346/49/63 345/47/63
f 12/11/102 10/9/102 278/9/102 276/11/102
f 64/63/102 62/61/102 219/61/102 321/63/102
f 87/45/63 88/47/63 345/47/63 344/45/63
f 46/45/102 44/43/102 240/43/102 238/45/102
f 86/43/63 87/45/63 344/45/63 343/43/63
f 28/27/102 26/25/102 262/25/102 260/27/102
f 78/27/103 77/25/104 102/25/105 103/27/106
f 92/55/107 91/53/98 114/53/101 115/55/108
f 79/29/109 78/27/103 103/27/106 104/29/110
f 66/3/111 65/2/112 160/2/113 97/3/114
f 93/57/115 92/55/107 115/55/108 116/57/116
f 80/31/117 79/29/109 104/29/110 105/31/118
f 67/5/119 66/3/111 97/3/114 122/5/120
f 94/59/121 93/57/115 116/57/116 117/59/122
f 81/33/123 80/31/117 105/31/118 106/33/124
f 68/7/125 67/5/119 122/5/120 137/7/126
f 95/61/127 94/59/121 117/59/122 118/61/128
f 82/35/129 81/33/123 106/33/124 107/35/130
f 69/9/131 68/7/125 137/7/126 98/9/132
f 96/63/133 95/61/127 118/61/128 150/63/134
f 83/37/135 82/35/129 107/35/130 108/37/136
f 70/11/137 69/9/131 98/9/132 99/11/138
f 65/65/112 96/63/133 150/63/134 160/65/113
f 84/39/139 83/37/135 108/37/136 109/39/140
f 71/13/141 70/11/137 99/11/138 100/13/142
f 85/41/143 84/39/139 109/39/140 110/41/144
f 72/15/145 71/13/141 100/13/142 171/15/146
f 86/43/147 85/41/143 110/41/144 111/43/148
f 73/17/149 72/15/145 171/15/146 176/17/150
f 87/45/151 86/43/147 111/43/148 112/45/152
f 74/19/153 73/17/149 176/17/150 183/19/154
f 88/47/155 87/45/151 112/45/152 113/47/156
f 75/21/157 74/19/153 183/19/154 190/21/158
f 89/49/159 88/47/155 113/47/156 194/49/160
f 76/23/161 75/21/157 190/21/158 101/23/162
f 90/51/99 89/49/159 194/49/160 200/51/100
f 77/25/104 76/23/161 101/23/162 102/25/105
f 214/29/163 131/99/164 132/100/165 216/101/166
f 216/101/166 132/100/165 133/99/167 215/102/168
f 215/102/168 133/99/167 105/31/118 104/29/110
f 220/103/169 126/57/170 127/104/171 213/105/172
f 213/105/172 127/104/171 128/106/173 212/107/174
f 212/107/174 128/106/173 116/57/116 115/55/108
f 161/2/175 119/3/176 120/108/177 163/109/178
f 163/109/178 120/108/177 121/110/179 162/111/180
f 162/111/180 121/110/179 97/3/114 160/2/113
f 209/27/181 214/29/163 216/101/166 211/112/182
f 211/112/182 216/101/166 215/102/168 210/113/183
f 210/113/183 215/102/168 104/29/110 103/27/106
f 206/114/184 220/103/169 213/105/172 208/115/185
f 208/115/185 213/105/172 212/107/174 207/53/186
f 207/53/186 212/107/174 115/55/108 114/53/101
f 227/25/187 209/27/181 211/112/182 205/116/188
f 205/116/188 211/112/182 210/113/183 204/116/189
f 204/116/189 210/113/183 103/27/106 102/117/105
f 201/51/190 206/114/184 208/115/185 203/118/191
f 203/118/191 208/115/185 207/53/186 202/119/192
f 202/119/192 207/53/186 114/53/101 200/120/100
f 232/121/193 227/25/187 205/116/188 199/122/194
f 199/122/194 205/116/188 204/116/189 198/123/195
f 198/123/195 204/116/189 102/117/105 101/123/162
f 195/49/196 201/51/190 203/118/191 197/124/197
f 197/124/197 203/118/191 202/119/192 196/125/198
f 196/125/198 202/119/192 200/120/100 194/49/160
f 191/21/199 232/121/193 199/122/194 193/126/200
f 193/126/200 199/122/194 198/123/195 192/126/201
f 192/126/201 198/123/195 101/123/162 190/21/158
f 187/127/202 195/49/196 197/124/197 189/128/203
f 189/128/203 197/124/197 196/125/198 188/129/204
f 188/129/204 196/125/198 194/49/160 113/47/156
f 184/19/205 191/21/199 193/126/200 186/130/206
f 186/130/206 193/126/200 192/126/201 185/130/207
f 185/130/207 192/126/201 190/21/158 183/130/154
f 180/45/208 187/127/202 189/128/203 182/131/209
f 182/131/209 189/128/203 188/129/204 181/132/210
f 181/132/210 188/129/204 113/47/156 112/45/152
f 177/133/211 184/19/205 186/130/206 179/134/212
f 179/134/212 186/130/206 185/130/207 178/134/213
f 178/134/213 185/130/207 183/130/154 176/17/150
f 247/135/214 180/45/208 182/131/209 175/136/215
f 175/136/215 182/131/209 181/132/210 174/137/216
f 174/137/216 181/132/210 112/45/152 111/43/148
f 250/138/217 177/133/211 179/134/212 173/139/218
f 173/139/218 179/134/212 178/134/213 172/140/219
f 172/140/219 178/134/213 176/17/150 171/15/146
f 253/41/220 247/135/214 175/136/215 170/141/221
f 170/141/221 175/136/215 174/137/216 169/142/222
f 169/142/222 174/137/216 111/43/148 110/143/144
f 256/144/223 250/138/217 173/139/218 168/145/224
f 168/145/224 173/139/218 172/140/219 167/146/225
f 167/146/225 172/140/219 171/15/146 100/13/142
f 164/147/226 253/41/220 170/141/221 166/148/227
f 166/148/227 170/141/221 169/142/222 165/149/228
f 165/149/228 169/142/222 110/143/144 109/150/140
f 157/151/229 256/144/223 168/145/224 159/152/230
f 159/152/230 168/145/224 167/146/225 158/11/231
f 158/11/231 167/146/225 100/13/142 99/151/138
f 154/153/232 164/147/226 166/148/227 156/154/233
f 156/154/233 166/148/227 165/149/228 155/155/234
f 155/155/234 165/149/228 109/150/140 108/153/136
f 151/63/235 161/65/175 163/156/178 153/157/236
f 153/157/236 163/156/178 162/158/180 152/159/237
f 152/159/237 162/158/180 160/65/113 150/160/134
f 147/9/238 157/151/229 159/152/230 149/161/239
f 149/161/239 159/152/230 158/11/231 148/9/240
f 148/9/240 158/11/231 99/151/138 98/162/132
f 144/35/241 154/153/232 156/154/233 146/163/242
f 146/163/242 156/154/233 155/155/234 145/164/243
f 145/164/243 155/155/234 108/153/136 107/165/130
f 141/61/244 151/63/235 153/157/236 143/166/245
f 143/166/245 153/157/236 152/159/237 142/167/246
f 142/167/246 152/159/237 150/160/134 118/168/128
f 138/169/247 147/9/238 149/161/239 140/7/248
f 140/7/248 149/161/239 148/9/240 139/170/249
f 139/170/249 148/9/240 98/162/132 137/170/126
f 134/33/250 144/35/241 146/163/242 136/171/251
f 136/171/251 146/163/242 145/164/243 135/172/252
f 135/172/252 145/164/243 107/165/130 106/33/124
f 281/59/253 141/61/244 143/166/245 130/173/254
f 130/173/254 143/166/245 142/167/246 129/174/255
f 129/174/255 142/167/246 118/168/128 117/175/122
f 123/176/256 138/169/247 140/7/248 125/177/257
f 125/177/257 140/7/248 139/170/249 124/178/258
f 124/178/258 139/170/249 137/170/126 122/5/120
f 131/99/164 134/33/250 136/171/251 132/100/165
f 132/100/165 136/171/251 135/172/252 133/99/167
f 133/99/167 135/172/252 106/33/124 105/31/118
f 126/57/170 281/59/253 130/173/254 127/104/171
f 127/104/171 130/173/254 129/174/255 128/106/173
f 128/106/173 129/174/255 117/175/122 116/57/116
f 119/3/176 123/176/256 125/177/257 120/108/177
f 120/108/177 125/177/257 124/178/258 121/110/179
f 121/110/179 124/178/258 122/5/120 97/3/114
f 289/179/259 290/180/260 282/181/261 284/182/262
f 284/182/262 282/181/261 281/175/253 126/57/170
f 291/183/263 292/184/264 275/185/265 286/186/266
f 286/186/266 275/185/265 138/187/247 123/188/256
f 293/189/267 294/190/268 271/191/269 277/192/270
f 277/192/270 271/191/269 144/35/241 134/193/250
f 295/194/271 296/195/272 267/196/273 273/197/274
f 273/197/274 267/196/273 151/63/235 141/61/244
f 297/198/275 298/199/276 263/151/277 269/9/278
f 269/9/278 263/151/277 157/200/229 147/9/238
f 299/201/279 300/202/280 259/203/281 265/204/282
f 265/204/282 259/203/281 164/39/226 154/153/232
f 300/202/280 301/205/283 254/143/284 259/203/281
f 259/203/281 254/143/284 253/41/220 164/39/226
f 301/205/283 302/206/285 248/207/286 254/143/284
f 254/143/284 248/207/286 247/135/214 253/41/220
f 302/206/285 303/208/287 243/132/288 248/207/286
f 248/207/286 243/132/288 180/45/208 247/135/214
f 303/208/287 304/209/289 239/210/290 243/132/288
f 243/132/288 239/210/290 187/211/202 180/45/208
f 304/209/289 305/212/291 235/213/292 239/210/290
f 239/210/290 235/213/292 195/49/196 187/211/202
f 305/212/291 306/214/293 230/215/294 235/213/292
f 235/213/292 230/215/294 201/51/190 195/49/196
f 306/214/293 307/216/295 225/53/296 230/215/294
f 230/215/294 225/53/296 206/217/184 201/51/190
f 307/216/295 308/218/297 221/219/298 225/53/296
f 225/53/296 221/219/298 220/220/169 206/217/184
f 309/221/299 310/222/300 288/223/301 261/224/302
f 261/224/302 288/223/301 119/3/176 161/225/175
f 311/226/303 312/227/304 223/228/305 228/25/306
f 228/25/306 223/228/305 209/113/181 227/25/187
f 313/229/307 311/226/303 228/25/306 233/230/308
f 233/230/308 228/25/306 227/25/187 232/121/193
f 312/227/304 314/231/309 218/232/310 223/228/305
f 223/228/305 218/232/310 214/29/163 209/113/181
f 308/218/297 289/179/259 284/182/262 221/219/298
f 221/219/298 284/182/262 126/57/170 220/220/169
f 310/222/300 291/183/263 286/186/266 288/223/301
f 288/223/301 286/186/266 123/188/256 119/3/176
f 315/233/311 293/189/267 277/192/270 279/234/312
f 279/234/312 277/192/270 134/193/250 131/99/164
f 290/180/260 295/194/271 273/197/274 282/181/261
f 282/181/261 273/197/274 141/61/244 281/175/253
f 314/231/309 315/233/311 279/234/312 218/232/310
f 218/232/310 279/234/312 131/99/164 214/29/163
f 292/184/264 297/198/275 269/9/278 275/185/265
f 275/185/265 269/9/278 147/9/238 138/187/247
f 294/190/268 299/201/279 265/204/282 271/191/269
f 271/191/269 265/204/282 154/153/232 144/35/241
f 296/195/272 309/221/299 261/224/302 267/196/273
f 267/196/273 261/235/302 161/65/175 151/63/235
f 298/199/276 316/236/313 257/237/314 263/151/277
f 263/151/277 257/237/314 256/144/223 157/200/229
f 316/236/313 317/238/315 251/15/316 257/237/314
f 257/237/314 251/15/316 250/239/217 256/144/223
f 317/238/315 318/240/317 245/241/318 251/15/316
f 251/15/316 245/241/318 177/133/211 250/239/217
f 318/240/317 319/242/319 241/19/320 245/241/318
f 245/241/318 241/19/320 184/130/205 177/133/211
f 319/242/319 320/243/321 237/21/322 241/19/320
f 241/19/320 237/21/322 191/126/199 184/130/205
f 320/243/321 313/229/307 233/230/308 237/21/322
f 237/21/322 233/230/308 232/121/193 191/126/199
f 268/19/19 270/17/17 330/17/17 331/19/19
f 217/244/102 290/180/260 289/179/259
f 217/245/102 292/184/264 291/183/263
f 217/246/102 294/190/268 293/189/267
f 217/247/102 296/195/272 295/194/271
f 217/248/102 298/199/276 297/198/275
f 217/249/102 300/202/280 299/201/279
f 217/250/102 301/205/283 300/202/280
f 217/251/102 302/206/285 301/205/283
f 217/252/102 303/208/287 302/206/285
f 217/253/102 304/209/289 303/208/287
f 217/254/102 305/212/291 304/209/289
f 217/255/102 306/214/293 305/212/291
f 217/256/102 307/216/295 306/214/293
f 217/257/102 308/218/297 307/216/295
f 217/258/102 310/222/300 309/221/299
f 217/259/102 312/227/304 311/226/303
f 217/260/102 311/226/303 313/229/307
f 217/261/102 314/231/309 312/227/304
f 217/262/102 289/179/259 308/218/297
f 217/263/102 291/183/263 310/222/300
f 217/264/102 293/189/267 315/233/311
f 217/265/102 295/194/271 290/180/260
f 217/266/102 315/233/311 314/231/309
f 217/267/102 297/198/275 292/184/264
f 217/268/102 299/201/279 294/190/268
f 217/269/102 309/221/299 296/195/272
f 217/270/102 316/236/313 298/199/276
f 217/271/102 317/238/315 316/236/313
f 217/272/102 318/240/317 317/238/315
f 217/273/102 319/242/319 318/240/317
f 217/274/102 320/243/321 319/242/319
f 217/275/102 313/229/307 320/243/321
f 321/63/64 219/61/61 352/61/61 353/63/64
f 238/45/45 240/43/43 343/43/43 344/45/45
f 260/27/27 262/25/25 334/25/25 335/27/27
f 278/9/9 280/7/7 325/7/7 326/9/9
f 229/53/53 231/51/51 347/51/51 348/53/53
f 249/35/35 252/33/33 338/33/33 339/35/35
f 270/17/17 272/15/15 329/15/15 330/17/17
f 219/61/61 222/59/59 351/59/59 352/61/61
f 240/43/43 242/41/41 342/41/41 343/43/43
f 262/25/25 264/23/23 333/23/23 334/25/25
f 280/7/7 283/5/5 324/5/5 325/7/7
f 231/51/51 234/49/49 346/49/49 347/51/51
f 252/33/33 255/31/31 337/31/31 338/33/33
f 272/15/15 274/13/13 328/13/13 329/15/15
f 222/59/59 224/57/57 350/57/57 351/59/59
f 242/41/41 244/39/39 341/39/39 342/41/41
f 264/23/23 266/21/21 332/21/21 333/23/23
f 283/5/5 287/3/3 322/3/3 324/5/5
f 234/49/49 236/47/47 345/47/47 346/49/49
f 255/31/31 258/29/29 336/29/29 337/31/31
f 274/13/13 276/11/11 327/11/11 328/13/13
f 224/57/57 226/55/55 349/55/55 350/57/57
f 244/39/39 246/37/37 340/37/37 341/39/39
f 266/21/21 268/19/19 331/19/19 332/21/21
f 285/65/2 321/63/64 353/63/64 323/65/2
f 287/3/3 285/2/2 323/2/2 322/3/3
f 236/47/47 238/45/45 344/45/45 345/47/47
f 258/29/29 260/27/27 335/27/27 336/29/29
f 276/11/11 278/9/9 326/9/9 327/11/11
f 246/37/37 249/35/35 339/35/35 340/37/37
f 226/55/55 229/53/53 348/53/53 349/55/55
f 36/35/102 34/33/102 252/33/102 249/35/102
f 72/15/63 73/17/63 330/17/63 329/15/63
f 54/53/102 52/51/102 231/51/102 229/53/102
f 73/17/63 74/19/63 331/19/63 330/17/63
f 20/19/102 18/17/102 270/17/102 268/19/102
f 74/19/63 75/21/63 332/21/63 331/19/63
f 38/37/102 36/35/102 249/35/102 246/37/102
f 4/3/102 2/2/102 285/2/102 287/3/102
f 75/21/63 76/23/63 333/23/63 332/21/63
f 56/55/102 54/53/102 229/53/102 226/55/102
f 76/23/63 77/25/63 334/25/63 333/23/63
f 22/21/102 20/19/102 268/19/102 266/21/102
f 77/25/63 78/27/63 335/27/63 334/25/63
f 40/39/102 38/37/102 246/37/102 244/39/102
f 78/27/63 79/29/63 336/29/63 335/27/63
f 58/57/102 56/55/102 226/55/102 224/57/102
f 6/5/102 4/3/102 287/3/102 283/5/102
f 79/29/63 80/31/63 337/31/63 336/29/63
f 24/23/102 22/21/102 266/21/102 264/23/102
f 80/31/63 81/33/63 338/33/63 337/31/63
f 42/41/102 40/39/102 244/39/102 242/41/102
f 81/33/63 82/35/63 339/35/63 338/33/63
f 60/59/102 58/57/102 224/57/102 222/59/102
f 8/7/102 6/5/102 283/5/102 280/7/102
f 82/35/63 83/37/63 340/37/63 339/35/63
f 26/25/102 24/23/102 264/23/102 262/25/102
f 83/37/63 84/39/63 341/39/63 340/37/63
f 44/43/102 42/41/102 242/41/102 240/43/102
f 84/39/63 85/41/63 342/41/63 341/39/63
f 62/61/102 60/59/102 222/59/102 219/61/102
f 10/9/102 8/7/102 280/7/102 278/9/102
f 85/41/63 86/43/63 343/43/63 342/41/63
f 416/276/323 385/64/65 354/66/1 417/277/324
f 415/278/325 384/62/62 385/64/65 416/276/323
f 414/279/326 383/60/60 384/62/62 415/278/325
f 413/280/327 382/58/58 383/60/60 414/279/326
f 412/281/328 381/56/56 382/58/58 413/280/327
f 411/282/329 380/54/54 381/56/56 412/281/328
f 410/283/330 379/52/52 380/54/54 411/282/329
f 409/284/331 378/50/50 379/52/52 410/283/330
f 408/285/332 377/48/48 378/50/50 409/284/331
f 407/286/333 376/46/46 377/48/48 408/285/332
f 406/287/334 375/44/44 376/46/46 407/286/333
f 405/288/335 374/42/42 375/44/44 406/287/334
f 404/289/336 373/40/40 374/42/42 405/288/335
f 403/290/337 372/38/38 373/40/40 404/289/336
f 402/291/338 371/36/36 372/38/38 403/290/337
f 401/292/339 370/34/34 371/36/36 402/291/338
f 400/293/340 369/32/32 370/34/34 401/292/339
f 399/294/341 368/30/30 369/32/32 400/293/340
f 398/295/342 367/28/28 368/30/30 399/294/341
f 397/296/343 366/26/26 367/28/28 398/295/342
f 396/297/344 365/24/24 366/26/26 397/296/343
f 395/298/345 364/22/22 365/24/24 396/297/344
f 394/299/346 363/20/20 364/22/22 395/298/345
f 393/300/347 362/18/18 363/20/20 394/299/346
f 392/301/348 361/16/16 362/18/18 393/300/347
f 391/302/349 360/14/14 361/16/16 392/301/348
f 390/303/350 359/12/12 360/14/14 391/302/349
f 389/304/351 358/10/10 359/12/12 390/303/350
f 388/305/352 357/8/8 358/10/10 389/304/351
f 387/306/353 356/6/6 357/8/8 388/305/352
f 386/307/354 355/4/4 356/6/6 387/306/353
f 417/308/324 354/1/1 355/4/4 386/307/354
f 1/309/66 417/308/324 386/307/354 3/310/67
f 3/310/67 386/307/354 387/306/353 5/311/68
f 5/311/68 387/306/353 388/305/352 7/312/69
f 7/312/69 388/305/352 389/304/351 9/313/70
f 9/313/70 389/304/351 390/303/350 11/314/71
f 11/314/71 390/303/350 391/302/349 13/315/72
f 13/315/72 391/302/349 392/301/348 15/316/73
f 15/316/73 392/301/348 393/300/347 17/317/74
f 17/317/74 393/300/347 394/299/346 19/318/75
f 19/318/75 394/299/346 395/298/345 21/319/76
f 21/319/76 395/298/345 396/297/344 23/320/77
f 23/320/77 396/297/344 397/296/343 25/321/78
f 25/321/78 397/296/343 398/295/342 27/322/79
f 27/322/79 398/295/342 399/294/341 29/323/80
f 29/323/80 399/294/341 400/293/340 31/324/81
f 31/324/81 400/293/340 401/292/339 33/325/82
f 33/325/82 401/292/339 402/291/338 35/326/83
f 35/326/83 402/291/338 403/290/337 37/327/84
f 37/327/84 403/290/337 404/289/336 39/328/85
f 39/328/85 404/289/336 405/288/335 41/329/86
f 41/329/86 405/288/335 406/287/334 43/330/87
f 43/330/87 406/287/334 407/286/333 45/331/88
f 45/331/88 407/286/333 408/285/332 47/332/89
f 47/332/89 408/285/332 409/284/331 49/333/90
f 49/333/90 409/284/331 410/283/330 51/334/91
f 51/334/91 410/283/330 411/282/329 53/335/92
f 53/335/92 411/282/329 412/281/328 55/336/93
f 55/336/93 412/281/328 413/280/327 57/337/94
f 57/337/94 413/280/327 414/279/326 59/338/95
f 59/338/95 414/279/326 415/278/325 61/339/96
f 61/339/96 415/278/325 416/276/323 63/340/97
f 63/340/97 416/276/323 417/277/324 1/341/66
