# Blender 4.5.1 LTS
# www.blender.org
o CAP
v -0.000000 0.000000 -0.101000
v 0.000000 0.193000 -0.074855
v 0.019704 0.000000 -0.099059
v 0.014604 0.193000 -0.073417
v 0.038651 0.000000 -0.093312
v 0.028646 0.193000 -0.069157
v 0.056113 0.000000 -0.083978
v 0.041588 0.193000 -0.062240
v 0.071418 0.000000 -0.071418
v 0.052931 0.193000 -0.052931
v 0.083978 0.000000 -0.056113
v 0.062240 0.193000 -0.041587
v 0.093312 0.000000 -0.038651
v 0.069158 0.193000 -0.028646
v 0.099059 0.000000 -0.019704
v 0.073417 0.193000 -0.014604
v 0.101000 0.000000 -0.000000
v 0.074856 0.193000 0.000000
v 0.099059 0.000000 0.019704
v 0.073417 0.193000 0.014604
v 0.093312 0.000000 0.038651
v 0.069158 0.193000 0.028646
v 0.083978 0.000000 0.056113
v 0.062240 0.193000 0.041587
v 0.071418 0.000000 0.071418
v 0.052931 0.193000 0.052931
v 0.056113 0.000000 0.083978
v 0.041588 0.193000 0.062240
v 0.038651 0.000000 0.093312
v 0.028646 0.193000 0.069157
v 0.019704 0.000000 0.099059
v 0.014604 0.193000 0.073417
v -0.000000 0.000000 0.101000
v 0.000000 0.193000 0.074855
v -0.019704 0.000000 0.099059
v -0.014603 0.193000 0.073417
v -0.038651 0.000000 0.093312
v -0.028646 0.193000 0.069157
v -0.056113 0.000000 0.083978
v -0.041587 0.193000 0.062240
v -0.071418 0.000000 0.071418
v -0.052931 0.193000 0.052931
v -0.083978 0.000000 0.056113
v -0.062240 0.193000 0.041587
v -0.093312 0.000000 0.038651
v -0.069157 0.193000 0.028646
v -0.099059 0.000000 0.019704
v -0.073417 0.193000 0.014604
v -0.101000 0.000000 -0.000000
v -0.074855 0.193000 0.000000
v -0.099059 0.000000 -0.019704
v -0.073417 0.193000 -0.014604
v -0.093312 0.000000 -0.038651
v -0.069157 0.193000 -0.028646
v -0.083978 0.000000 -0.056113
v -0.062240 0.193000 -0.041587
v -0.071418 0.000000 -0.071418
v -0.052931 0.193000 -0.052931
v -0.056113 0.000000 -0.083978
v -0.041587 0.193000 -0.062240
v -0.038651 0.000000 -0.093312
v -0.028646 0.193000 -0.069157
v -0.019704 0.000000 -0.099059
v -0.014603 0.193000 -0.073417
v 0.000000 0.226000 -0.056585
v 0.011039 0.226000 -0.055498
v 0.021655 0.226000 -0.052278
v 0.031437 0.226000 -0.047049
v 0.040012 0.226000 -0.040012
v 0.047049 0.226000 -0.031437
v 0.052278 0.226000 -0.021654
v 0.055498 0.226000 -0.011039
v 0.056586 0.226000 0.000000
v 0.055498 0.226000 0.011039
v 0.052278 0.226000 0.021654
v 0.047049 0.226000 0.031437
v 0.040012 0.226000 0.040012
v 0.031437 0.226000 0.047049
v 0.021655 0.226000 0.052278
v 0.011039 0.226000 0.055498
v 0.000000 0.226000 0.056585
v -0.011039 0.226000 0.055498
v -0.021654 0.226000 0.052278
v -0.031437 0.226000 0.047049
v -0.040012 0.226000 0.040012
v -0.047049 0.226000 0.031437
v -0.052278 0.226000 0.021654
v -0.055498 0.226000 0.011039
v -0.056585 0.226000 0.000000
v -0.055498 0.226000 -0.011039
v -0.052278 0.226000 -0.021654
v -0.047049 0.226000 -0.031437
v -0.040012 0.226000 -0.040012
v -0.031437 0.226000 -0.047049
v -0.021654 0.226000 -0.052278
v -0.011039 0.226000 -0.055498
v 0.000001 0.260000 -0.000000
v -0.000000 0.000000 -0.096282
v 0.018784 0.000000 -0.094432
v 0.036845 0.000000 -0.088953
v 0.053491 0.000000 -0.080055
v 0.068081 0.000000 -0.068081
v 0.080055 0.000000 -0.053491
v 0.088953 0.000000 -0.036845
v 0.094432 0.000000 -0.018784
v 0.096282 0.000000 -0.000000
v 0.094432 0.000000 0.018784
v 0.088953 0.000000 0.036845
v 0.080055 0.000000 0.053491
v 0.068081 0.000000 0.068081
v 0.053491 0.000000 0.080055
v 0.036845 0.000000 0.088953
v 0.018784 0.000000 0.094432
v -0.000000 0.000000 0.096282
v -0.018784 0.000000 0.094432
v -0.036845 0.000000 0.088953
v -0.053491 0.000000 0.080055
v -0.068081 0.000000 0.068081
v -0.080055 0.000000 0.053491
v -0.088953 0.000000 0.036845
v -0.094432 0.000000 0.018784
v -0.096282 0.000000 -0.000000
v -0.094432 0.000000 -0.018784
v -0.088953 0.000000 -0.036845
v -0.080055 0.000000 -0.053491
v -0.068081 0.000000 -0.068081
v -0.053491 0.000000 -0.080055
v -0.036845 0.000000 -0.088953
v -0.018784 0.000000 -0.094432
v 0.000000 0.193000 -0.069155
v 0.013492 0.193000 -0.067826
v 0.026464 0.193000 -0.063891
v 0.038420 0.193000 -0.057500
v 0.048900 0.193000 -0.048900
v 0.057500 0.193000 -0.038420
v 0.063891 0.193000 -0.026464
v 0.067826 0.193000 -0.013491
v 0.069155 0.193000 0.000000
v 0.067826 0.193000 0.013491
v 0.063891 0.193000 0.026464
v 0.057500 0.193000 0.038420
v 0.048900 0.193000 0.048900
v 0.038420 0.193000 0.057500
v 0.026464 0.193000 0.063891
v 0.013492 0.193000 0.067826
v 0.000000 0.193000 0.069155
v -0.013491 0.193000 0.067826
v -0.026464 0.193000 0.063891
v -0.038420 0.193000 0.057500
v -0.048900 0.193000 0.048900
v -0.057500 0.193000 0.038420
v -0.063891 0.193000 0.026464
v -0.067826 0.193000 0.013491
v -0.069155 0.193000 0.000000
v -0.067826 0.193000 -0.013491
v -0.063891 0.193000 -0.026464
v -0.057500 0.193000 -0.038420
v -0.048900 0.193000 -0.048900
v -0.038420 0.193000 -0.057500
v -0.026464 0.193000 -0.063891
v -0.013491 0.193000 -0.067826
v 0.000000 0.226000 -0.046729
v 0.009116 0.226000 -0.045831
v 0.017882 0.226000 -0.043172
v 0.025961 0.226000 -0.038853
v 0.033042 0.226000 -0.033042
v 0.038854 0.226000 -0.025961
v 0.043172 0.226000 -0.017882
v 0.045831 0.226000 -0.009116
v 0.046729 0.226000 0.000000
v 0.045831 0.226000 0.009116
v 0.043172 0.226000 0.017882
v 0.038854 0.226000 0.025961
v 0.033042 0.226000 0.033042
v 0.025961 0.226000 0.038853
v 0.017882 0.226000 0.043172
v 0.009116 0.226000 0.045831
v 0.000000 0.226000 0.046729
v -0.009116 0.226000 0.045831
v -0.017882 0.226000 0.043172
v -0.025961 0.226000 0.038853
v -0.033042 0.226000 0.033042
v -0.038853 0.226000 0.025961
v -0.043172 0.226000 0.017882
v -0.045831 0.226000 0.009116
v -0.046729 0.226000 0.000000
v -0.045831 0.226000 -0.009116
v -0.043172 0.226000 -0.017882
v -0.038853 0.226000 -0.025961
v -0.033042 0.226000 -0.033042
v -0.025961 0.226000 -0.038853
v -0.017882 0.226000 -0.043172
v -0.009116 0.226000 -0.045831
v -0.000000 0.255001 0.000000
vn -0.0000 0.1342 -0.9909
vn 0.1933 0.1342 -0.9719
vn 0.3792 0.1342 -0.9155
vn 0.5505 0.1342 -0.8239
vn 0.7007 0.1342 -0.7007
vn 0.8239 0.1342 -0.5505
vn 0.9155 0.1342 -0.3792
vn 0.9719 0.1342 -0.1933
vn 0.9909 0.1342 -0.0000
vn 0.9719 0.1342 0.1933
vn 0.9155 0.1342 0.3792
vn 0.8239 0.1342 0.5505
vn 0.7007 0.1342 0.7007
vn 0.5505 0.1342 0.8239
vn 0.3792 0.1342 0.9155
vn 0.1933 0.1342 0.9719
vn -0.0000 0.1342 0.9909
vn -0.1933 0.1342 0.9719
vn -0.3792 0.1342 0.9155
vn -0.5505 0.1342 0.8239
vn -0.7007 0.1342 0.7007
vn -0.8239 0.1342 0.5505
vn -0.9155 0.1342 0.3792
vn -0.9719 0.1342 0.1933
vn -0.9909 0.1342 -0.0000
vn -0.9719 0.1342 -0.1933
vn -0.9155 0.1342 -0.3792
vn -0.8239 0.1342 -0.5505
vn -0.7007 0.1342 -0.7007
vn -0.5505 0.1342 -0.8239
vn -0.3792 0.1342 -0.9155
vn 0.8581 0.4844 0.1707
vn 0.8749 0.4844 -0.0000
vn -0.1933 0.1342 -0.9719
vn -0.0000 -1.0000 -0.0000
vn -0.5150 0.8572 -0.0000
vn -0.5051 0.8572 0.1005
vn -0.0000 1.0000 -0.0000
vn -0.3348 0.4844 0.8083
vn -0.1707 0.4844 0.8581
vn -0.7274 0.4844 -0.4861
vn -0.8083 0.4844 -0.3348
vn 0.7274 0.4844 -0.4861
vn 0.6186 0.4844 -0.6186
vn 0.3348 0.4844 0.8083
vn 0.4861 0.4844 0.7274
vn -0.8581 0.4844 0.1707
vn -0.8083 0.4844 0.3348
vn 0.1707 0.4844 -0.8581
vn -0.0000 0.4844 -0.8749
vn -0.1707 0.4844 -0.8581
vn 0.8083 0.4844 0.3348
vn -0.4861 0.4844 0.7274
vn -0.6186 0.4844 -0.6186
vn 0.8083 0.4844 -0.3348
vn 0.1707 0.4844 0.8581
vn -0.8749 0.4844 -0.0000
vn 0.3348 0.4844 -0.8083
vn 0.7274 0.4844 0.4861
vn -0.6186 0.4844 0.6186
vn -0.4861 0.4844 -0.7274
vn 0.8581 0.4844 -0.1707
vn -0.0000 0.4844 0.8749
vn -0.8581 0.4844 -0.1707
vn 0.4861 0.4844 -0.7274
vn 0.6186 0.4844 0.6186
vn -0.7274 0.4844 0.4861
vn -0.3348 0.4844 -0.8083
vn 0.4282 0.8572 0.2861
vn 0.4758 0.8572 0.1971
vn -0.5051 0.8572 -0.1005
vn 0.3642 0.8572 0.3642
vn -0.4758 0.8572 -0.1971
vn 0.2861 0.8572 0.4282
vn -0.4282 0.8572 -0.2861
vn 0.1971 0.8572 0.4758
vn 0.1005 0.8572 -0.5051
vn -0.0000 0.8572 -0.5150
vn -0.3642 0.8572 -0.3642
vn 0.1005 0.8572 0.5051
vn 0.1971 0.8572 -0.4758
vn -0.2861 0.8572 -0.4282
vn -0.0000 0.8572 0.5150
vn 0.2861 0.8572 -0.4282
vn -0.1971 0.8572 -0.4758
vn -0.1005 0.8572 0.5051
vn 0.3642 0.8572 -0.3642
vn -0.1005 0.8572 -0.5051
vn -0.1971 0.8572 0.4758
vn 0.4282 0.8572 -0.2861
vn -0.2861 0.8572 0.4282
vn 0.4758 0.8572 -0.1971
vn -0.3642 0.8572 0.3642
vn 0.5051 0.8572 -0.1005
vn -0.4282 0.8572 0.2861
vn 0.5150 0.8572 -0.0000
vn -0.4758 0.8572 0.1971
vn 0.5051 0.8572 0.1005
vn -0.0000 -0.1392 -0.9903
vn 0.1932 -0.1392 -0.9712
vn 0.4595 -0.5621 -0.6877
vn 0.5848 -0.5621 -0.5848
vn -0.5502 -0.1392 0.8234
vn -0.7002 -0.1392 0.7002
vn 0.3790 -0.1392 0.9149
vn 0.1932 -0.1392 0.9712
vn 0.3790 -0.1392 -0.9149
vn -0.8234 -0.1392 0.5502
vn -0.0000 -0.1392 0.9903
vn 0.5502 -0.1392 -0.8234
vn -0.9149 -0.1392 0.3790
vn 0.7002 -0.1392 -0.7002
vn -0.9712 -0.1392 0.1932
vn 0.8234 -0.1392 -0.5502
vn -0.9903 -0.1392 -0.0000
vn 0.9149 -0.1392 -0.3790
vn -0.9712 -0.1392 -0.1932
vn 0.9712 -0.1392 -0.1932
vn -0.9149 -0.1392 -0.3790
vn 0.9903 -0.1392 -0.0000
vn -0.8234 -0.1392 -0.5502
vn 0.9712 -0.1392 0.1932
vn -0.7002 -0.1392 -0.7002
vn 0.9149 -0.1392 0.3790
vn -0.5502 -0.1392 -0.8234
vn 0.8234 -0.1392 0.5502
vn -0.3790 -0.1392 -0.9149
vn -0.1932 -0.1392 0.9712
vn 0.7002 -0.1392 0.7002
vn -0.1932 -0.1392 -0.9712
vn -0.3790 -0.1392 0.9149
vn 0.5502 -0.1392 0.8234
vn 0.4872 -0.8497 -0.2018
vn 0.5172 -0.8497 -0.1029
vn -0.7641 -0.5621 0.3165
vn -0.8112 -0.5621 0.1614
vn 0.6877 -0.5621 -0.4595
vn -0.8271 -0.5621 -0.0000
vn 0.7641 -0.5621 -0.3165
vn -0.8112 -0.5621 -0.1614
vn 0.8112 -0.5621 -0.1614
vn -0.7641 -0.5621 -0.3165
vn 0.8271 -0.5621 -0.0000
vn -0.6877 -0.5621 -0.4595
vn 0.8112 -0.5621 0.1614
vn -0.5848 -0.5621 -0.5848
vn 0.7641 -0.5621 0.3165
vn -0.4595 -0.5621 -0.6877
vn 0.6877 -0.5621 0.4595
vn -0.3165 -0.5621 -0.7641
vn -0.0000 -0.5621 0.8271
vn -0.1614 -0.5621 0.8112
vn 0.5848 -0.5621 0.5848
vn -0.1614 -0.5621 -0.8112
vn -0.3165 -0.5621 0.7641
vn 0.4595 -0.5621 0.6877
vn -0.0000 -0.5621 -0.8271
vn -0.4595 -0.5621 0.6877
vn 0.3165 -0.5621 0.7641
vn 0.1614 -0.5621 -0.8112
vn -0.5848 -0.5621 0.5848
vn 0.1614 -0.5621 0.8112
vn 0.3165 -0.5621 -0.7641
vn -0.6877 -0.5621 0.4595
vn -0.5172 -0.8497 -0.1029
vn -0.4872 -0.8497 -0.2018
vn 0.5273 -0.8497 -0.0000
vn -0.4384 -0.8497 -0.2930
vn 0.5172 -0.8497 0.1029
vn -0.3729 -0.8497 -0.3729
vn 0.4872 -0.8497 0.2018
vn -0.2930 -0.8497 -0.4384
vn 0.4385 -0.8497 0.2930
vn -0.2018 -0.8497 -0.4872
vn -0.0000 -0.8497 0.5273
vn -0.1029 -0.8497 0.5172
vn 0.3729 -0.8497 0.3729
vn -0.1029 -0.8497 -0.5172
vn -0.2018 -0.8497 0.4872
vn 0.2930 -0.8497 0.4385
vn -0.0000 -0.8497 -0.5273
vn -0.2930 -0.8497 0.4384
vn 0.2018 -0.8497 0.4872
vn 0.1029 -0.8497 -0.5172
vn -0.3729 -0.8497 0.3729
vn 0.1029 -0.8497 0.5172
vn 0.2018 -0.8497 -0.4872
vn -0.4384 -0.8497 0.2930
vn 0.2930 -0.8497 -0.4385
vn -0.4872 -0.8497 0.2018
vn 0.3729 -0.8497 -0.3729
vn -0.5172 -0.8497 0.1029
vn 0.4385 -0.8497 -0.2930
vn -0.5273 -0.8497 -0.0000
vt 1.000000 0.500000
vt 1.000000 1.000000
vt 0.968750 1.000000
vt 0.968750 0.500000
vt 0.937500 1.000000
vt 0.937500 0.500000
vt 0.906250 1.000000
vt 0.906250 0.500000
vt 0.875000 1.000000
vt 0.875000 0.500000
vt 0.843750 1.000000
vt 0.843750 0.500000
vt 0.812500 1.000000
vt 0.812500 0.500000
vt 0.781250 1.000000
vt 0.781250 0.500000
vt 0.750000 1.000000
vt 0.750000 0.500000
vt 0.718750 1.000000
vt 0.718750 0.500000
vt 0.687500 1.000000
vt 0.687500 0.500000
vt 0.656250 1.000000
vt 0.656250 0.500000
vt 0.625000 1.000000
vt 0.625000 0.500000
vt 0.593750 1.000000
vt 0.593750 0.500000
vt 0.562500 1.000000
vt 0.562500 0.500000
vt 0.531250 1.000000
vt 0.531250 0.500000
vt 0.500000 1.000000
vt 0.500000 0.500000
vt 0.468750 1.000000
vt 0.468750 0.500000
vt 0.437500 1.000000
vt 0.437500 0.500000
vt 0.406250 1.000000
vt 0.406250 0.500000
vt 0.375000 1.000000
vt 0.375000 0.500000
vt 0.343750 1.000000
vt 0.343750 0.500000
vt 0.312500 1.000000
vt 0.312500 0.500000
vt 0.281250 1.000000
vt 0.281250 0.500000
vt 0.250000 1.000000
vt 0.250000 0.500000
vt 0.218750 1.000000
vt 0.218750 0.500000
vt 0.187500 1.000000
vt 0.187500 0.500000
vt 0.156250 1.000000
vt 0.156250 0.500000
vt 0.125000 1.000000
vt 0.125000 0.500000
vt 0.093750 1.000000
vt 0.093750 0.500000
vt 0.062500 1.000000
vt 0.062500 0.500000
vt 0.031250 1.000000
vt 0.031250 0.500000
vt 0.000000 1.000000
vt 0.000000 0.500000
s 1
f 1/1/1 2/2/1 4/3/2 3/4/2
f 3/4/2 4/3/2 6/5/3 5/6/3
f 5/6/3 6/5/3 8/7/4 7/8/4
f 7/8/4 8/7/4 10/9/5 9/10/5
f 9/10/5 10/9/5 12/11/6 11/12/6
f 11/12/6 12/11/6 14/13/7 13/14/7
f 13/14/7 14/13/7 16/15/8 15/16/8
f 15/16/8 16/15/8 18/17/9 17/18/9
f 17/18/9 18/17/9 20/19/10 19/20/10
f 19/20/10 20/19/10 22/21/11 21/22/11
f 21/22/11 22/21/11 24/23/12 23/24/12
f 23/24/12 24/23/12 26/25/13 25/26/13
f 25/26/13 26/25/13 28/27/14 27/28/14
f 27/28/14 28/27/14 30/29/15 29/30/15
f 29/30/15 30/29/15 32/31/16 31/32/16
f 31/32/16 32/31/16 34/33/17 33/34/17
f 33/34/17 34/33/17 36/35/18 35/36/18
f 35/36/18 36/35/18 38/37/19 37/38/19
f 37/38/19 38/37/19 40/39/20 39/40/20
f 39/40/20 40/39/20 42/41/21 41/42/21
f 41/42/21 42/41/21 44/43/22 43/44/22
f 43/44/22 44/43/22 46/45/23 45/46/23
f 45/46/23 46/45/23 48/47/24 47/48/24
f 47/48/24 48/47/24 50/49/25 49/50/25
f 49/50/25 50/49/25 52/51/26 51/52/26
f 51/52/26 52/51/26 54/53/27 53/54/27
f 53/54/27 54/53/27 56/55/28 55/56/28
f 55/56/28 56/55/28 58/57/29 57/58/29
f 57/58/29 58/57/29 60/59/30 59/60/30
f 59/60/30 60/59/30 62/61/31 61/62/31
f 20/19/32 18/17/33 73/17/33 74/19/32
f 61/62/31 62/61/31 64/63/34 63/64/34
f 63/64/34 64/63/34 2/65/1 1/66/1
f 5/6/35 7/8/35 101/8/35 100/6/35
f 89/49/36 88/47/37 97/49/38
f 38/37/39 36/35/40 82/35/40 83/37/39
f 56/55/41 54/53/42 91/53/42 92/55/41
f 12/11/43 10/9/44 69/9/44 70/11/43
f 30/29/45 28/27/46 78/27/46 79/29/45
f 48/47/47 46/45/48 87/45/48 88/47/47
f 4/3/49 2/2/50 65/2/50 66/3/49
f 2/65/50 64/63/51 96/63/51 65/65/50
f 22/21/52 20/19/32 74/19/32 75/21/52
f 40/39/53 38/37/39 83/37/39 84/39/53
f 58/57/54 56/55/41 92/55/41 93/57/54
f 14/13/55 12/11/43 70/11/43 71/13/55
f 32/31/56 30/29/45 79/29/45 80/31/56
f 50/49/57 48/47/47 88/47/47 89/49/57
f 6/5/58 4/3/49 66/3/49 67/5/58
f 24/23/59 22/21/52 75/21/52 76/23/59
f 42/41/60 40/39/53 84/39/53 85/41/60
f 60/59/61 58/57/54 93/57/54 94/59/61
f 16/15/62 14/13/55 71/13/55 72/15/62
f 34/33/63 32/31/56 80/31/56 81/33/63
f 52/51/64 50/49/57 89/49/57 90/51/64
f 8/7/65 6/5/58 67/5/58 68/7/65
f 26/25/66 24/23/59 76/23/59 77/25/66
f 44/43/67 42/41/60 85/41/60 86/43/67
f 62/61/68 60/59/61 94/59/61 95/61/68
f 18/17/33 16/15/62 72/15/62 73/17/33
f 36/35/40 34/33/63 81/33/63 82/35/40
f 54/53/42 52/51/64 90/51/64 91/53/42
f 10/9/44 8/7/65 68/7/65 69/9/44
f 28/27/46 26/25/66 77/25/66 78/27/46
f 46/45/48 44/43/67 86/43/67 87/45/48
f 64/63/51 62/61/68 95/61/68 96/63/51
f 76/23/69 75/21/70 97/23/38
f 90/51/71 89/49/36 97/51/38
f 77/25/72 76/23/69 97/25/38
f 91/53/73 90/51/71 97/53/38
f 78/27/74 77/25/72 97/27/38
f 92/55/75 91/53/73 97/55/38
f 79/29/76 78/27/74 97/29/38
f 66/3/77 65/2/78 97/3/38
f 93/57/79 92/55/75 97/57/38
f 80/31/80 79/29/76 97/31/38
f 67/5/81 66/3/77 97/5/38
f 94/59/82 93/57/79 97/59/38
f 81/33/83 80/31/80 97/33/38
f 68/7/84 67/5/81 97/7/38
f 95/61/85 94/59/82 97/61/38
f 82/35/86 81/33/83 97/35/38
f 69/9/87 68/7/84 97/9/38
f 96/63/88 95/61/85 97/63/38
f 83/37/89 82/35/86 97/37/38
f 70/11/90 69/9/87 97/11/38
f 65/65/78 96/63/88 97/65/38
f 84/39/91 83/37/89 97/39/38
f 71/13/92 70/11/90 97/13/38
f 85/41/93 84/39/91 97/41/38
f 72/15/94 71/13/92 97/15/38
f 86/43/95 85/41/93 97/43/38
f 73/17/96 72/15/94 97/17/38
f 87/45/97 86/43/95 97/45/38
f 74/19/98 73/17/96 97/19/38
f 88/47/37 87/45/97 97/47/38
f 75/21/70 74/19/98 97/21/38
f 114/34/99 115/36/100 147/36/100 146/34/99
f 23/24/35 25/26/35 110/26/35 109/24/35
f 41/42/35 43/44/35 119/44/35 118/42/35
f 59/60/35 61/62/35 128/62/35 127/60/35
f 15/16/35 17/18/35 106/18/35 105/16/35
f 33/34/35 35/36/35 115/36/35 114/34/35
f 51/52/35 53/54/35 124/54/35 123/52/35
f 7/8/35 9/10/35 102/10/35 101/8/35
f 25/26/35 27/28/35 111/28/35 110/26/35
f 43/44/35 45/46/35 120/46/35 119/44/35
f 61/62/35 63/64/35 129/64/35 128/62/35
f 17/18/35 19/20/35 107/20/35 106/18/35
f 35/36/35 37/38/35 116/38/35 115/36/35
f 53/54/35 55/56/35 125/56/35 124/54/35
f 9/10/35 11/12/35 103/12/35 102/10/35
f 27/28/35 29/30/35 112/30/35 111/28/35
f 45/46/35 47/48/35 121/48/35 120/46/35
f 1/1/35 3/4/35 99/4/35 98/1/35
f 63/64/35 1/66/35 98/66/35 129/64/35
f 19/20/35 21/22/35 108/22/35 107/20/35
f 37/38/35 39/40/35 117/40/35 116/38/35
f 55/56/35 57/58/35 126/58/35 125/56/35
f 11/12/35 13/14/35 104/14/35 103/12/35
f 29/30/35 31/32/35 113/32/35 112/30/35
f 47/48/35 49/50/35 122/50/35 121/48/35
f 3/4/35 5/6/35 100/6/35 99/4/35
f 21/22/35 23/24/35 109/24/35 108/22/35
f 39/40/35 41/42/35 118/42/35 117/40/35
f 57/58/35 59/60/35 127/60/35 126/58/35
f 13/14/35 15/16/35 105/16/35 104/14/35
f 31/32/35 33/34/35 114/34/35 113/32/35
f 49/50/35 51/52/35 123/52/35 122/50/35
f 149/40/101 150/42/102 182/42/102 181/40/101
f 101/8/103 102/10/104 134/10/104 133/8/103
f 128/62/105 129/64/106 161/64/106 160/62/105
f 115/36/100 116/38/107 148/38/107 147/36/100
f 102/10/104 103/12/108 135/12/108 134/10/104
f 129/64/106 98/66/109 130/66/109 161/64/106
f 116/38/107 117/40/110 149/40/110 148/38/107
f 103/12/108 104/14/111 136/14/111 135/12/108
f 117/40/110 118/42/112 150/42/112 149/40/110
f 104/14/111 105/16/113 137/16/113 136/14/111
f 118/42/112 119/44/114 151/44/114 150/42/112
f 105/16/113 106/18/115 138/18/115 137/16/113
f 119/44/114 120/46/116 152/46/116 151/44/114
f 106/18/115 107/20/117 139/20/117 138/18/115
f 120/46/116 121/48/118 153/48/118 152/46/116
f 107/20/117 108/22/119 140/22/119 139/20/117
f 121/48/118 122/50/120 154/50/120 153/48/118
f 108/22/119 109/24/121 141/24/121 140/22/119
f 122/50/120 123/52/122 155/52/122 154/50/120
f 109/24/121 110/26/123 142/26/123 141/24/121
f 123/52/122 124/54/124 156/54/124 155/52/122
f 110/26/123 111/28/125 143/28/125 142/26/123
f 124/54/124 125/56/126 157/56/126 156/54/124
f 111/28/125 112/30/127 144/30/127 143/28/125
f 98/1/109 99/4/128 131/4/128 130/1/109
f 125/56/126 126/58/129 158/58/129 157/56/126
f 112/30/127 113/32/130 145/32/130 144/30/127
f 99/4/128 100/6/131 132/6/131 131/4/128
f 126/58/129 127/60/132 159/60/132 158/58/129
f 113/32/130 114/34/99 146/34/99 145/32/130
f 100/6/131 101/8/103 133/8/103 132/6/131
f 127/60/132 128/62/105 160/62/105 159/60/132
f 184/46/133 185/48/134 194/46/35
f 136/14/135 137/16/136 169/16/136 168/14/135
f 150/42/102 151/44/137 183/44/137 182/42/102
f 137/16/136 138/18/138 170/18/138 169/16/136
f 151/44/137 152/46/139 184/46/139 183/44/137
f 138/18/138 139/20/140 171/20/140 170/18/138
f 152/46/139 153/48/141 185/48/141 184/46/139
f 139/20/140 140/22/142 172/22/142 171/20/140
f 153/48/141 154/50/143 186/50/143 185/48/141
f 140/22/142 141/24/144 173/24/144 172/22/142
f 154/50/143 155/52/145 187/52/145 186/50/143
f 141/24/144 142/26/146 174/26/146 173/24/144
f 155/52/145 156/54/147 188/54/147 187/52/145
f 142/26/146 143/28/148 175/28/148 174/26/146
f 156/54/147 157/56/149 189/56/149 188/54/147
f 143/28/148 144/30/150 176/30/150 175/28/148
f 130/1/151 131/4/152 163/4/152 162/1/151
f 157/56/149 158/58/153 190/58/153 189/56/149
f 144/30/150 145/32/154 177/32/154 176/30/150
f 131/4/152 132/6/155 164/6/155 163/4/152
f 158/58/153 159/60/156 191/60/156 190/58/153
f 145/32/154 146/34/157 178/34/157 177/32/154
f 132/6/155 133/8/158 165/8/158 164/6/155
f 159/60/156 160/62/159 192/62/159 191/60/156
f 146/34/157 147/36/160 179/36/160 178/34/157
f 133/8/158 134/10/161 166/10/161 165/8/158
f 160/62/159 161/64/162 193/64/162 192/62/159
f 147/36/160 148/38/163 180/38/163 179/36/160
f 134/10/161 135/12/164 167/12/164 166/10/161
f 161/64/162 130/66/151 162/66/151 193/64/162
f 148/38/163 149/40/101 181/40/101 180/38/163
f 135/12/164 136/14/135 168/14/135 167/12/164
f 171/20/165 172/22/166 194/20/35
f 185/48/134 186/50/167 194/48/35
f 172/22/166 173/24/168 194/22/35
f 186/50/167 187/52/169 194/50/35
f 173/24/168 174/26/170 194/24/35
f 187/52/169 188/54/171 194/52/35
f 174/26/170 175/28/172 194/26/35
f 188/54/171 189/56/173 194/54/35
f 175/28/172 176/30/174 194/28/35
f 162/1/175 163/4/176 194/1/35
f 189/56/173 190/58/177 194/56/35
f 176/30/174 177/32/178 194/30/35
f 163/4/176 164/6/179 194/4/35
f 190/58/177 191/60/180 194/58/35
f 177/32/178 178/34/181 194/32/35
f 164/6/179 165/8/182 194/6/35
f 191/60/180 192/62/183 194/60/35
f 178/34/181 179/36/184 194/34/35
f 165/8/182 166/10/185 194/8/35
f 192/62/183 193/64/186 194/62/35
f 179/36/184 180/38/187 194/36/35
f 166/10/185 167/12/188 194/10/35
f 193/64/186 162/66/175 194/64/35
f 180/38/187 181/40/189 194/38/35
f 167/12/188 168/14/190 194/12/35
f 181/40/189 182/42/191 194/40/35
f 168/14/190 169/16/192 194/14/35
f 182/42/191 183/44/193 194/42/35
f 169/16/192 170/18/194 194/16/35
f 183/44/193 184/46/133 194/44/35
f 170/18/194 171/20/165 194/18/35
