# Blender 4.5.1 LTS
# www.blender.org
o CART
v 0.000000 0.020000 -0.100000
v 0.019509 0.020000 -0.098079
v 0.038268 0.020000 -0.092388
v 0.055557 0.020000 -0.083147
v 0.070711 0.020000 -0.070711
v 0.083147 0.020000 -0.055557
v 0.092388 0.020000 -0.038268
v 0.098079 0.020000 -0.019509
v 0.100000 0.020000 0.000000
v 0.098079 0.020000 0.019509
v 0.092388 0.020000 0.038268
v 0.083147 0.020000 0.055557
v 0.070711 0.020000 0.070711
v 0.055557 0.020000 0.083147
v 0.038268 0.020000 0.092388
v 0.019509 0.020000 0.098079
v 0.000000 0.020000 0.100000
v -0.019509 0.020000 0.098079
v -0.038268 0.020000 0.092388
v -0.055557 0.020000 0.083147
v -0.070711 0.020000 0.070711
v -0.083147 0.020000 0.055557
v -0.092388 0.020000 0.038268
v -0.098079 0.020000 0.019509
v -0.100000 0.020000 0.000000
v -0.098079 0.020000 -0.019509
v -0.092388 0.020000 -0.038268
v -0.083147 0.020000 -0.055557
v -0.070711 0.020000 -0.070711
v -0.055557 0.020000 -0.083147
v -0.038268 0.020000 -0.092388
v -0.019509 0.020000 -0.098079
v 0.000000 0.400000 -0.094267
v 0.000000 0.396770 -0.100000
v 0.000000 0.399054 -0.099049
v 0.018391 0.400000 -0.092456
v 0.019509 0.396770 -0.098079
v 0.019324 0.399054 -0.097146
v 0.036075 0.400000 -0.087092
v 0.038268 0.396770 -0.092388
v 0.037905 0.399054 -0.091510
v 0.052372 0.400000 -0.078381
v 0.055557 0.396770 -0.083147
v 0.055029 0.399054 -0.082357
v 0.066657 0.400000 -0.066657
v 0.070711 0.396770 -0.070711
v 0.070038 0.399054 -0.070038
v 0.078381 0.400000 -0.052372
v 0.083147 0.396770 -0.055557
v 0.082357 0.399054 -0.055029
v 0.087092 0.400000 -0.036075
v 0.092388 0.396770 -0.038268
v 0.091510 0.399054 -0.037905
v 0.092456 0.400000 -0.018391
v 0.098079 0.396770 -0.019509
v 0.097146 0.399054 -0.019324
v 0.094267 0.400000 0.000000
v 0.100000 0.396770 0.000000
v 0.099049 0.399054 0.000000
v 0.092456 0.400000 0.018391
v 0.098079 0.396770 0.019509
v 0.097146 0.399054 0.019324
v 0.087092 0.400000 0.036075
v 0.092388 0.396770 0.038268
v 0.091510 0.399054 0.037905
v 0.078381 0.400000 0.052372
v 0.083147 0.396770 0.055557
v 0.082357 0.399054 0.055029
v 0.066657 0.400000 0.066657
v 0.070711 0.396770 0.070711
v 0.070038 0.399054 0.070038
v 0.052372 0.400000 0.078381
v 0.055557 0.396770 0.083147
v 0.055029 0.399054 0.082357
v 0.036075 0.400000 0.087092
v 0.038268 0.396770 0.092388
v 0.037905 0.399054 0.091510
v 0.018391 0.400000 0.092456
v 0.019509 0.396770 0.098079
v 0.019324 0.399054 0.097146
v -0.000000 0.400000 0.094267
v 0.000000 0.396770 0.100000
v -0.000000 0.399054 0.099049
v -0.018391 0.400000 0.092456
v -0.019509 0.396770 0.098079
v -0.019324 0.399054 0.097146
v -0.036075 0.400000 0.087092
v -0.038268 0.396770 0.092388
v -0.037905 0.399054 0.091510
v -0.052372 0.400000 0.078381
v -0.055557 0.396770 0.083147
v -0.055029 0.399054 0.082357
v -0.066657 0.400000 0.066657
v -0.070711 0.396770 0.070711
v -0.070038 0.399054 0.070038
v -0.078381 0.400000 0.052372
v -0.083147 0.396770 0.055557
v -0.082357 0.399054 0.055029
v -0.087092 0.400000 0.036075
v -0.092388 0.396770 0.038268
v -0.091510 0.399054 0.037905
v -0.092456 0.400000 0.018391
v -0.098079 0.396770 0.019509
v -0.097146 0.399054 0.019324
v -0.094267 0.400000 -0.000000
v -0.100000 0.396770 0.000000
v -0.099049 0.399054 -0.000000
v -0.092456 0.400000 -0.018391
v -0.098079 0.396770 -0.019509
v -0.097146 0.399054 -0.019324
v -0.087092 0.400000 -0.036075
v -0.092388 0.396770 -0.038268
v -0.091510 0.399054 -0.037905
v -0.078381 0.400000 -0.052372
v -0.083147 0.396770 -0.055557
v -0.082357 0.399054 -0.055029
v -0.066657 0.400000 -0.066657
v -0.070711 0.396770 -0.070711
v -0.070038 0.399054 -0.070038
v -0.052372 0.400000 -0.078381
v -0.055557 0.396770 -0.083147
v -0.055029 0.399054 -0.082357
v -0.036075 0.400000 -0.087092
v -0.038268 0.396770 -0.092388
v -0.037905 0.399054 -0.091510
v -0.018391 0.400000 -0.092456
v -0.019509 0.396770 -0.098079
v -0.019324 0.399054 -0.097146
v 0.000000 0.400000 -0.096754
v 0.018876 0.400000 -0.094895
v 0.037026 0.400000 -0.089389
v 0.053754 0.400000 -0.080448
v 0.068416 0.400000 -0.068416
v 0.080448 0.400000 -0.053754
v 0.089389 0.400000 -0.037026
v 0.094895 0.400000 -0.018876
v 0.096754 0.400000 0.000000
v 0.094895 0.400000 0.018876
v 0.089389 0.400000 0.037026
v 0.080448 0.400000 0.053754
v 0.068416 0.400000 0.068416
v 0.053754 0.400000 0.080448
v 0.037026 0.400000 0.089389
v 0.018876 0.400000 0.094895
v -0.000000 0.400000 0.096754
v -0.018876 0.400000 0.094895
v -0.037026 0.400000 0.089389
v -0.053754 0.400000 0.080448
v -0.068416 0.400000 0.068416
v -0.080448 0.400000 0.053754
v -0.089389 0.400000 0.037026
v -0.094895 0.400000 0.018876
v -0.096754 0.400000 -0.000000
v -0.094895 0.400000 -0.018876
v -0.089389 0.400000 -0.037026
v -0.080448 0.400000 -0.053754
v -0.068416 0.400000 -0.068416
v -0.053754 0.400000 -0.080448
v -0.037026 0.400000 -0.089389
v -0.018876 0.400000 -0.094895
v -0.000000 0.397007 0.000000
v -0.000000 0.020000 -0.102191
v 0.019937 0.020000 -0.100228
v 0.039107 0.020000 -0.094413
v 0.056774 0.020000 -0.084969
v 0.072260 0.020000 -0.072260
v 0.084969 0.020000 -0.056775
v 0.094413 0.020000 -0.039107
v 0.100228 0.020000 -0.019937
v 0.102191 0.020000 -0.000000
v 0.100228 0.020000 0.019937
v 0.094413 0.020000 0.039107
v 0.084969 0.020000 0.056775
v 0.072260 0.020000 0.072260
v 0.056774 0.020000 0.084969
v 0.039107 0.020000 0.094413
v 0.019937 0.020000 0.100228
v -0.000000 0.020000 0.102191
v -0.019937 0.020000 0.100228
v -0.039107 0.020000 0.094413
v -0.056775 0.020000 0.084969
v -0.072260 0.020000 0.072260
v -0.084969 0.020000 0.056775
v -0.094413 0.020000 0.039107
v -0.100228 0.020000 0.019937
v -0.102191 0.020000 -0.000000
v -0.100228 0.020000 -0.019937
v -0.094413 0.020000 -0.039107
v -0.084969 0.020000 -0.056775
v -0.072260 0.020000 -0.072260
v -0.056775 0.020000 -0.084969
v -0.039107 0.020000 -0.094413
v -0.019937 0.020000 -0.100228
v -0.000000 0.000000 0.000000
v 0.000000 0.397007 -0.094267
v 0.018391 0.397007 -0.092456
v 0.036075 0.397007 -0.087092
v 0.052372 0.397007 -0.078381
v 0.066657 0.397007 -0.066657
v 0.078381 0.397007 -0.052372
v 0.087092 0.397007 -0.036075
v 0.092456 0.397007 -0.018391
v 0.094267 0.397007 0.000000
v 0.092456 0.397007 0.018391
v 0.087092 0.397007 0.036075
v 0.078381 0.397007 0.052372
v 0.066657 0.397007 0.066657
v 0.052372 0.397007 0.078381
v 0.036075 0.397007 0.087092
v 0.018391 0.397007 0.092456
v 0.000000 0.397007 0.094267
v -0.018391 0.397007 0.092456
v -0.036075 0.397007 0.087092
v -0.052372 0.397007 0.078381
v -0.066657 0.397007 0.066657
v -0.078381 0.397007 0.052372
v -0.087092 0.397007 0.036075
v -0.092456 0.397007 0.018391
v -0.094267 0.397007 -0.000000
v -0.092456 0.397007 -0.018391
v -0.087092 0.397007 -0.036075
v -0.078381 0.397007 -0.052372
v -0.066657 0.397007 -0.066657
v -0.052372 0.397007 -0.078381
v -0.036075 0.397007 -0.087092
v -0.018391 0.397007 -0.092456
v -0.000000 0.000000 -0.102672
v 0.020030 0.000000 -0.100699
v 0.039291 0.000000 -0.094857
v 0.057042 0.000000 -0.085369
v 0.072600 0.000000 -0.072600
v 0.085369 0.000000 -0.057042
v 0.094857 0.000000 -0.039291
v 0.100699 0.000000 -0.020030
v 0.102672 0.000000 -0.000000
v 0.100699 0.000000 0.020030
v 0.094857 0.000000 0.039291
v 0.085369 0.000000 0.057042
v 0.072600 0.000000 0.072600
v 0.057042 0.000000 0.085369
v 0.039291 0.000000 0.094857
v 0.020030 0.000000 0.100699
v -0.000000 0.000000 0.102672
v -0.020030 0.000000 0.100699
v -0.039291 0.000000 0.094857
v -0.057042 0.000000 0.085369
v -0.072600 0.000000 0.072600
v -0.085369 0.000000 0.057042
v -0.094857 0.000000 0.039291
v -0.100699 0.000000 0.020030
v -0.102672 0.000000 -0.000000
v -0.100699 0.000000 -0.020030
v -0.094857 0.000000 -0.039291
v -0.085369 0.000000 -0.057042
v -0.072600 0.000000 -0.072600
v -0.057042 0.000000 -0.085369
v -0.039291 0.000000 -0.094857
v -0.020030 0.000000 -0.100699
vn -0.0000 1.0000 -0.0000
vn 0.1914 0.1936 -0.9622
vn -0.0000 0.1936 -0.9811
vn -0.0000 0.3843 -0.9232
vn 0.1801 0.3843 -0.9055
vn 0.0744 0.9245 -0.3738
vn -0.0000 0.9245 -0.3811
vn -0.0000 0.9786 -0.2059
vn 0.0402 0.9786 -0.2019
vn 0.3754 0.1936 -0.9064
vn 0.3533 0.3843 -0.8529
vn 0.1458 0.9245 -0.3521
vn 0.0788 0.9786 -0.1902
vn 0.5451 0.1936 -0.8157
vn 0.5129 0.3843 -0.7676
vn 0.2117 0.9245 -0.3169
vn 0.1144 0.9786 -0.1712
vn 0.6937 0.1936 -0.6937
vn 0.6528 0.3843 -0.6528
vn 0.2695 0.9245 -0.2695
vn 0.1456 0.9786 -0.1456
vn 0.8157 0.1936 -0.5451
vn 0.7676 0.3843 -0.5129
vn 0.3169 0.9245 -0.2117
vn 0.1712 0.9786 -0.1144
vn 0.9064 0.1936 -0.3754
vn 0.8529 0.3843 -0.3533
vn 0.3521 0.9245 -0.1458
vn 0.1902 0.9786 -0.0788
vn 0.9622 0.1936 -0.1914
vn 0.9055 0.3843 -0.1801
vn 0.3738 0.9245 -0.0743
vn 0.2019 0.9786 -0.0402
vn 0.9811 0.1936 -0.0000
vn 0.9232 0.3843 -0.0000
vn 0.3811 0.9245 -0.0000
vn 0.2059 0.9786 -0.0000
vn 0.9622 0.1936 0.1914
vn 0.9055 0.3843 0.1801
vn 0.3738 0.9245 0.0743
vn 0.2019 0.9786 0.0402
vn 0.9064 0.1936 0.3754
vn 0.8529 0.3843 0.3533
vn 0.3521 0.9245 0.1458
vn 0.1902 0.9786 0.0788
vn 0.8157 0.1936 0.5451
vn 0.7676 0.3843 0.5129
vn 0.3169 0.9245 0.2117
vn 0.1712 0.9786 0.1144
vn 0.6937 0.1936 0.6937
vn 0.6528 0.3843 0.6528
vn 0.2695 0.9245 0.2695
vn 0.1456 0.9786 0.1456
vn 0.5451 0.1936 0.8157
vn 0.5129 0.3843 0.7676
vn 0.2117 0.9245 0.3169
vn 0.1144 0.9786 0.1712
vn 0.3754 0.1936 0.9064
vn 0.3533 0.3843 0.8529
vn 0.1458 0.9245 0.3521
vn 0.0788 0.9786 0.1902
vn 0.1914 0.1936 0.9622
vn 0.1801 0.3843 0.9055
vn 0.0744 0.9245 0.3738
vn 0.0402 0.9786 0.2019
vn -0.0000 0.1936 0.9811
vn -0.0000 0.3843 0.9232
vn -0.0000 0.9245 0.3811
vn -0.0000 0.9786 0.2059
vn -0.1914 0.1936 0.9622
vn -0.1801 0.3843 0.9055
vn -0.0744 0.9245 0.3738
vn -0.0402 0.9786 0.2019
vn -0.3754 0.1936 0.9064
vn -0.3533 0.3843 0.8529
vn -0.1458 0.9245 0.3521
vn -0.0788 0.9786 0.1902
vn -0.5451 0.1936 0.8157
vn -0.5129 0.3843 0.7676
vn -0.2117 0.9245 0.3169
vn -0.1144 0.9786 0.1712
vn -0.6937 0.1936 0.6937
vn -0.6528 0.3843 0.6528
vn -0.2695 0.9245 0.2695
vn -0.1456 0.9786 0.1456
vn -0.8157 0.1936 0.5451
vn -0.7676 0.3843 0.5129
vn -0.3169 0.9245 0.2117
vn -0.1712 0.9786 0.1144
vn -0.9064 0.1936 0.3754
vn -0.8529 0.3843 0.3533
vn -0.3521 0.9245 0.1458
vn -0.1902 0.9786 0.0788
vn -0.9622 0.1936 0.1914
vn -0.9055 0.3843 0.1801
vn -0.3738 0.9245 0.0743
vn -0.2019 0.9786 0.0402
vn -0.9811 0.1936 -0.0000
vn -0.9232 0.3843 -0.0000
vn -0.3811 0.9245 -0.0000
vn -0.2059 0.9786 -0.0000
vn -0.9622 0.1936 -0.1914
vn -0.9055 0.3843 -0.1801
vn -0.3738 0.9245 -0.0743
vn -0.2019 0.9786 -0.0402
vn -0.9064 0.1936 -0.3754
vn -0.8529 0.3843 -0.3533
vn -0.3521 0.9245 -0.1458
vn -0.1902 0.9786 -0.0788
vn -0.8157 0.1936 -0.5451
vn -0.7676 0.3843 -0.5129
vn -0.3169 0.9245 -0.2117
vn -0.1712 0.9786 -0.1144
vn -0.6937 0.1936 -0.6937
vn -0.6528 0.3843 -0.6528
vn -0.2695 0.9245 -0.2695
vn -0.1456 0.9786 -0.1456
vn -0.5451 0.1936 -0.8157
vn -0.5129 0.3843 -0.7676
vn -0.2117 0.9245 -0.3169
vn -0.1144 0.9786 -0.1712
vn -0.3754 0.1936 -0.9064
vn -0.3533 0.3843 -0.8529
vn -0.1458 0.9245 -0.3521
vn -0.0788 0.9786 -0.1902
vn -0.1914 0.1936 -0.9622
vn -0.1801 0.3843 -0.9055
vn -0.0744 0.9245 -0.3738
vn -0.0402 0.9786 -0.2019
vn 0.9239 -0.0000 -0.3827
vn 0.8315 -0.0000 -0.5556
vn -0.0000 -0.0000 -1.0000
vn 0.1951 -0.0000 -0.9808
vn -0.1951 -0.0000 -0.9808
vn 0.3827 -0.0000 -0.9239
vn 0.5556 -0.0000 -0.8315
vn 0.7071 -0.0000 -0.7071
vn 0.9808 -0.0000 -0.1951
vn 1.0000 -0.0000 -0.0000
vn 0.9808 -0.0000 0.1951
vn 0.9239 -0.0000 0.3827
vn 0.8315 -0.0000 0.5556
vn 0.7071 -0.0000 0.7071
vn 0.5556 -0.0000 0.8315
vn 0.3827 -0.0000 0.9239
vn 0.1951 -0.0000 0.9808
vn -0.0000 -0.0000 1.0000
vn -0.1951 -0.0000 0.9808
vn -0.3827 -0.0000 0.9239
vn -0.5556 -0.0000 0.8315
vn -0.7071 -0.0000 0.7071
vn -0.8315 -0.0000 0.5556
vn -0.9239 -0.0000 0.3827
vn -0.9808 -0.0000 0.1951
vn -1.0000 -0.0000 -0.0000
vn -0.9808 -0.0000 -0.1951
vn -0.9239 -0.0000 -0.3827
vn -0.8315 -0.0000 -0.5556
vn -0.7071 -0.0000 -0.7071
vn -0.5556 -0.0000 -0.8315
vn -0.3827 -0.0000 -0.9239
vn -0.0000 0.0240 -0.9997
vn 0.1950 0.0240 -0.9805
vn -0.8312 0.0240 -0.5554
vn -0.7069 0.0240 -0.7069
vn 0.3826 0.0240 0.9236
vn 0.1950 0.0240 0.9805
vn 0.3826 0.0240 -0.9236
vn -0.5554 0.0240 -0.8312
vn -0.0000 0.0240 0.9997
vn 0.5554 0.0240 -0.8312
vn -0.3826 0.0240 -0.9236
vn -0.1950 0.0240 0.9805
vn 0.7069 0.0240 -0.7069
vn -0.1950 0.0240 -0.9805
vn -0.3826 0.0240 0.9236
vn 0.8312 0.0240 -0.5554
vn -0.5554 0.0240 0.8312
vn 0.9236 0.0240 -0.3826
vn -0.7069 0.0240 0.7069
vn 0.9805 0.0240 -0.1950
vn -0.8312 0.0240 0.5554
vn 0.9997 0.0240 -0.0000
vn -0.9236 0.0240 0.3826
vn 0.9805 0.0240 0.1950
vn -0.9805 0.0240 0.1950
vn 0.9236 0.0240 0.3826
vn -0.9997 0.0240 -0.0000
vn 0.8312 0.0240 0.5554
vn -0.9805 0.0240 -0.1950
vn 0.7069 0.0240 0.7069
vn -0.9236 0.0240 -0.3826
vn 0.5554 0.0240 0.8312
vn -0.0000 -1.0000 -0.0000
vt 0.468750 0.500000
vt 0.437500 0.500000
vt 0.968750 0.995750
vt 1.000000 0.995750
vt 0.999851 1.000000
vt 0.968750 1.000000
vt 0.296817 0.485367
vt 0.250000 0.489978
vt 0.250000 0.482210
vt 0.295302 0.477749
vt 0.937500 0.995750
vt 0.937500 1.000000
vt 0.341836 0.471711
vt 0.338863 0.464534
vt 0.906250 0.995750
vt 0.906250 1.000000
vt 0.383325 0.449535
vt 0.379009 0.443076
vt 0.875000 0.995750
vt 0.875000 1.000000
vt 0.419690 0.419690
vt 0.414198 0.414198
vt 0.843750 0.995750
vt 0.843750 1.000000
vt 0.449534 0.383325
vt 0.443076 0.379009
vt 0.812500 0.995750
vt 0.812500 1.000000
vt 0.471711 0.341836
vt 0.464534 0.338863
vt 0.781250 0.995750
vt 0.781250 1.000000
vt 0.485367 0.296817
vt 0.477749 0.295302
vt 0.750000 0.995750
vt 0.750000 1.000000
vt 0.489978 0.250000
vt 0.482210 0.250000
vt 0.718750 0.995750
vt 0.718750 1.000000
vt 0.485367 0.203183
vt 0.477749 0.204698
vt 0.687500 0.995750
vt 0.687500 1.000000
vt 0.471711 0.158164
vt 0.464535 0.161137
vt 0.656250 0.995750
vt 0.656250 1.000000
vt 0.449535 0.116675
vt 0.443076 0.120991
vt 0.625000 0.995750
vt 0.625000 1.000000
vt 0.419690 0.080310
vt 0.414198 0.085802
vt 0.593750 0.995750
vt 0.593750 1.000000
vt 0.383325 0.050466
vt 0.379009 0.056924
vt 0.562500 0.995750
vt 0.562500 1.000000
vt 0.341836 0.028289
vt 0.338863 0.035466
vt 0.531250 0.995750
vt 0.531250 1.000000
vt 0.296817 0.014633
vt 0.295302 0.022251
vt 0.500000 0.995750
vt 0.500000 1.000000
vt 0.250000 0.010022
vt 0.250000 0.017790
vt 0.468750 0.995750
vt 0.468750 1.000000
vt 0.203183 0.014633
vt 0.204698 0.022251
vt 0.437500 0.995750
vt 0.437500 1.000000
vt 0.158164 0.028289
vt 0.161137 0.035466
vt 0.406250 0.995750
vt 0.406250 1.000000
vt 0.116675 0.050466
vt 0.120991 0.056924
vt 0.375000 0.995750
vt 0.375000 1.000000
vt 0.080310 0.080310
vt 0.085802 0.085802
vt 0.343750 0.995750
vt 0.343750 1.000000
vt 0.050466 0.116675
vt 0.056924 0.120991
vt 0.312500 0.995750
vt 0.312500 1.000000
vt 0.028289 0.158164
vt 0.035466 0.161137
vt 0.281250 0.995750
vt 0.281250 1.000000
vt 0.014633 0.203183
vt 0.022251 0.204698
vt 0.250000 0.995750
vt 0.250000 1.000000
vt 0.010022 0.250000
vt 0.017790 0.250000
vt 0.218750 0.995750
vt 0.218750 1.000000
vt 0.014633 0.296817
vt 0.022251 0.295302
vt 0.187500 0.995750
vt 0.187500 1.000000
vt 0.028289 0.341836
vt 0.035466 0.338863
vt 0.156250 0.995750
vt 0.156250 1.000000
vt 0.050466 0.383325
vt 0.056924 0.379009
vt 0.125000 0.995750
vt 0.125000 1.000000
vt 0.080310 0.419690
vt 0.085802 0.414198
vt 0.093750 0.995750
vt 0.093750 1.000000
vt 0.116675 0.449534
vt 0.120991 0.443076
vt 0.062500 0.995750
vt 0.062500 1.000000
vt 0.158164 0.471711
vt 0.161137 0.464535
vt 0.031250 0.995750
vt 0.031250 1.000000
vt 0.203183 0.485367
vt 0.204698 0.477748
vt 0.000000 0.995750
vt 0.000149 1.000000
vt 0.040980 0.163421
vt 0.061887 0.124307
vt 1.000000 0.500000
vt 0.968750 0.500000
vt 0.031250 0.500000
vt 0.000000 0.500000
vt 0.937500 0.500000
vt 0.906250 0.500000
vt 0.875000 0.500000
vt 0.843750 0.500000
vt 0.812500 0.500000
vt 0.781250 0.500000
vt 0.750000 0.500000
vt 0.718750 0.500000
vt 0.687500 0.500000
vt 0.656250 0.500000
vt 0.625000 0.500000
vt 0.593750 0.500000
vt 0.562500 0.500000
vt 0.531250 0.500000
vt 0.500000 0.500000
vt 0.406250 0.500000
vt 0.375000 0.500000
vt 0.343750 0.500000
vt 0.312500 0.500000
vt 0.281250 0.500000
vt 0.250000 0.500000
vt 0.218750 0.500000
vt 0.187500 0.500000
vt 0.156250 0.500000
vt 0.125000 0.500000
vt 0.093750 0.500000
vt 0.062500 0.500000
vt 0.250000 0.476242
vt 0.294138 0.471895
vt 0.336579 0.459020
vt 0.375693 0.438113
vt 0.409977 0.409977
vt 0.438113 0.375693
vt 0.459020 0.336579
vt 0.471895 0.294138
vt 0.476242 0.250000
vt 0.471895 0.205862
vt 0.459020 0.163421
vt 0.438113 0.124307
vt 0.409977 0.090023
vt 0.375693 0.061887
vt 0.336579 0.040980
vt 0.294138 0.028105
vt 0.250000 0.023758
vt 0.205862 0.028105
vt 0.163421 0.040980
vt 0.124307 0.061887
vt 0.090023 0.090023
vt 0.028105 0.205862
vt 0.023758 0.250000
vt 0.028105 0.294138
vt 0.040980 0.336579
vt 0.061887 0.375693
vt 0.090023 0.409977
vt 0.124307 0.438113
vt 0.163421 0.459020
vt 0.205862 0.471895
vt 0.278407 0.392809
vt 0.305722 0.384524
vt 0.330895 0.371068
vt 0.352960 0.352960
vt 0.371068 0.330895
vt 0.384524 0.305721
vt 0.392809 0.278407
vt 0.395607 0.250000
vt 0.392809 0.221593
vt 0.384524 0.194279
vt 0.371068 0.169105
vt 0.352960 0.147040
vt 0.330895 0.128932
vt 0.305721 0.115477
vt 0.278407 0.107191
vt 0.250000 0.104393
vt 0.221594 0.107191
vt 0.194279 0.115476
vt 0.169105 0.128932
vt 0.147040 0.147040
vt 0.128932 0.169105
vt 0.115477 0.194279
vt 0.107191 0.221594
vt 0.104393 0.250000
vt 0.107191 0.278407
vt 0.115477 0.305721
vt 0.128932 0.330895
vt 0.147040 0.352960
vt 0.169105 0.371068
vt 0.194279 0.384524
vt 0.221594 0.392810
vt 0.250000 0.395607
vt 0.750000 0.411464
vt 0.750000 0.490000
vt 0.796822 0.485388
vt 0.781500 0.408361
vt 0.841844 0.471731
vt 0.811790 0.399173
vt 0.883337 0.449553
vt 0.839705 0.384252
vt 0.919706 0.419706
vt 0.864172 0.364172
vt 0.949553 0.383337
vt 0.884252 0.339705
vt 0.971731 0.341844
vt 0.899173 0.311790
vt 0.985388 0.296822
vt 0.908361 0.281500
vt 0.990000 0.250000
vt 0.911464 0.250000
vt 0.985388 0.203178
vt 0.908361 0.218500
vt 0.971731 0.158156
vt 0.899173 0.188210
vt 0.949553 0.116663
vt 0.884252 0.160295
vt 0.919706 0.080294
vt 0.864172 0.135828
vt 0.883337 0.050447
vt 0.839705 0.115748
vt 0.841844 0.028269
vt 0.811790 0.100827
vt 0.796822 0.014612
vt 0.781500 0.091639
vt 0.750000 0.010000
vt 0.750000 0.088536
vt 0.703178 0.014612
vt 0.718500 0.091639
vt 0.658156 0.028269
vt 0.688210 0.100827
vt 0.616663 0.050447
vt 0.660296 0.115748
vt 0.580294 0.080294
vt 0.635828 0.135828
vt 0.550447 0.116663
vt 0.615748 0.160295
vt 0.528269 0.158156
vt 0.600827 0.188210
vt 0.514612 0.203178
vt 0.591639 0.218500
vt 0.510000 0.250000
vt 0.588536 0.250000
vt 0.514612 0.296822
vt 0.591639 0.281500
vt 0.528269 0.341844
vt 0.600827 0.311790
vt 0.550447 0.383337
vt 0.615748 0.339705
vt 0.580294 0.419706
vt 0.635828 0.364172
vt 0.616663 0.449553
vt 0.660295 0.384252
vt 0.658156 0.471731
vt 0.688210 0.399173
vt 0.703178 0.485388
vt 0.718500 0.408361
s 1
f 18/1/1 19/2/1 180/2/1 179/1/1
f 37/3/2 34/4/3 35/5/4 38/6/5
f 38/7/6 35/8/7 129/9/8 130/10/9
f 40/11/10 37/3/2 38/6/5 41/12/11
f 41/13/12 38/7/6 130/10/9 131/14/13
f 43/15/14 40/11/10 41/12/11 44/16/15
f 44/17/16 41/13/12 131/14/13 132/18/17
f 46/19/18 43/15/14 44/16/15 47/20/19
f 47/21/20 44/17/16 132/18/17 133/22/21
f 49/23/22 46/19/18 47/20/19 50/24/23
f 50/25/24 47/21/20 133/22/21 134/26/25
f 52/27/26 49/23/22 50/24/23 53/28/27
f 53/29/28 50/25/24 134/26/25 135/30/29
f 55/31/30 52/27/26 53/28/27 56/32/31
f 56/33/32 53/29/28 135/30/29 136/34/33
f 58/35/34 55/31/30 56/32/31 59/36/35
f 59/37/36 56/33/32 136/34/33 137/38/37
f 61/39/38 58/35/34 59/36/35 62/40/39
f 62/41/40 59/37/36 137/38/37 138/42/41
f 64/43/42 61/39/38 62/40/39 65/44/43
f 65/45/44 62/41/40 138/42/41 139/46/45
f 67/47/46 64/43/42 65/44/43 68/48/47
f 68/49/48 65/45/44 139/46/45 140/50/49
f 70/51/50 67/47/46 68/48/47 71/52/51
f 71/53/52 68/49/48 140/50/49 141/54/53
f 73/55/54 70/51/50 71/52/51 74/56/55
f 74/57/56 71/53/52 141/54/53 142/58/57
f 76/59/58 73/55/54 74/56/55 77/60/59
f 77/61/60 74/57/56 142/58/57 143/62/61
f 79/63/62 76/59/58 77/60/59 80/64/63
f 80/65/64 77/61/60 143/62/61 144/66/65
f 82/67/66 79/63/62 80/64/63 83/68/67
f 83/69/68 80/65/64 144/66/65 145/70/69
f 85/71/70 82/67/66 83/68/67 86/72/71
f 86/73/72 83/69/68 145/70/69 146/74/73
f 88/75/74 85/71/70 86/72/71 89/76/75
f 89/77/76 86/73/72 146/74/73 147/78/77
f 91/79/78 88/75/74 89/76/75 92/80/79
f 92/81/80 89/77/76 147/78/77 148/82/81
f 94/83/82 91/79/78 92/80/79 95/84/83
f 95/85/84 92/81/80 148/82/81 149/86/85
f 97/87/86 94/83/82 95/84/83 98/88/87
f 98/89/88 95/85/84 149/86/85 150/90/89
f 100/91/90 97/87/86 98/88/87 101/92/91
f 101/93/92 98/89/88 150/90/89 151/94/93
f 103/95/94 100/91/90 101/92/91 104/96/95
f 104/97/96 101/93/92 151/94/93 152/98/97
f 106/99/98 103/95/94 104/96/95 107/100/99
f 107/101/100 104/97/96 152/98/97 153/102/101
f 109/103/102 106/99/98 107/100/99 110/104/103
f 110/105/104 107/101/100 153/102/101 154/106/105
f 112/107/106 109/103/102 110/104/103 113/108/107
f 113/109/108 110/105/104 154/106/105 155/110/109
f 115/111/110 112/107/106 113/108/107 116/112/111
f 116/113/112 113/109/108 155/110/109 156/114/113
f 118/115/114 115/111/110 116/112/111 119/116/115
f 119/117/116 116/113/112 156/114/113 157/118/117
f 121/119/118 118/115/114 119/116/115 122/120/119
f 122/121/120 119/117/116 157/118/117 158/122/121
f 124/123/122 121/119/118 122/120/119 125/124/123
f 125/125/124 122/121/120 158/122/121 159/126/125
f 127/127/126 124/123/122 125/124/123 128/128/127
f 128/129/128 125/125/124 159/126/125 160/130/129
f 34/131/3 127/127/126 128/128/127 35/132/4
f 35/8/7 128/129/128 160/130/129 129/9/8
f 99/133/130 96/134/131 216/134/131 217/133/130
f 1/135/132 34/4/3 37/3/2 2/136/133
f 32/137/134 127/127/126 34/131/3 1/138/132
f 2/136/133 37/3/2 40/11/10 3/139/135
f 3/139/135 40/11/10 43/15/14 4/140/136
f 4/140/136 43/15/14 46/19/18 5/141/137
f 5/141/137 46/19/18 49/23/22 6/142/131
f 6/142/131 49/23/22 52/27/26 7/143/130
f 7/143/130 52/27/26 55/31/30 8/144/138
f 8/144/138 55/31/30 58/35/34 9/145/139
f 9/145/139 58/35/34 61/39/38 10/146/140
f 10/146/140 61/39/38 64/43/42 11/147/141
f 11/147/141 64/43/42 67/47/46 12/148/142
f 12/148/142 67/47/46 70/51/50 13/149/143
f 13/149/143 70/51/50 73/55/54 14/150/144
f 14/150/144 73/55/54 76/59/58 15/151/145
f 15/151/145 76/59/58 79/63/62 16/152/146
f 16/152/146 79/63/62 82/67/66 17/153/147
f 17/153/147 82/67/66 85/71/70 18/1/148
f 18/1/148 85/71/70 88/75/74 19/2/149
f 19/2/149 88/75/74 91/79/78 20/154/150
f 20/154/150 91/79/78 94/83/82 21/155/151
f 21/155/151 94/83/82 97/87/86 22/156/152
f 22/156/152 97/87/86 100/91/90 23/157/153
f 23/157/153 100/91/90 103/95/94 24/158/154
f 24/158/154 103/95/94 106/99/98 25/159/155
f 25/159/155 106/99/98 109/103/102 26/160/156
f 26/160/156 109/103/102 112/107/106 27/161/157
f 27/161/157 112/107/106 115/111/110 28/162/158
f 28/162/158 115/111/110 118/115/114 29/163/159
f 29/163/159 118/115/114 121/119/118 30/164/160
f 30/164/160 121/119/118 124/123/122 31/165/161
f 31/165/161 124/123/122 127/127/126 32/137/134
f 33/166/1 36/167/1 130/10/9 129/9/8
f 36/167/1 39/168/1 131/14/13 130/10/9
f 39/168/1 42/169/1 132/18/17 131/14/13
f 42/169/1 45/170/1 133/22/21 132/18/17
f 45/170/1 48/171/1 134/26/25 133/22/21
f 48/171/1 51/172/1 135/30/29 134/26/25
f 51/172/1 54/173/1 136/34/33 135/30/29
f 54/173/1 57/174/1 137/38/37 136/34/33
f 57/174/1 60/175/1 138/42/41 137/38/37
f 60/175/1 63/176/1 139/46/45 138/42/41
f 63/176/1 66/177/1 140/50/49 139/46/45
f 66/177/1 69/178/1 141/54/53 140/50/49
f 69/178/1 72/179/1 142/58/57 141/54/53
f 72/179/1 75/180/1 143/62/61 142/58/57
f 75/180/1 78/181/1 144/66/65 143/62/61
f 78/181/1 81/182/1 145/70/69 144/66/65
f 81/182/1 84/183/1 146/74/73 145/70/69
f 84/183/1 87/184/1 147/78/77 146/74/73
f 87/184/1 90/185/1 148/82/81 147/78/77
f 90/185/1 93/186/1 149/86/85 148/82/81
f 93/186/1 96/134/1 150/90/89 149/86/85
f 96/134/1 99/133/1 151/94/93 150/90/89
f 99/133/1 102/187/1 152/98/97 151/94/93
f 102/187/1 105/188/1 153/102/101 152/98/97
f 105/188/1 108/189/1 154/106/105 153/102/101
f 108/189/1 111/190/1 155/110/109 154/106/105
f 111/190/1 114/191/1 156/114/113 155/110/109
f 114/191/1 117/192/1 157/118/117 156/114/113
f 117/192/1 120/193/1 158/122/121 157/118/117
f 120/193/1 123/194/1 159/126/125 158/122/121
f 123/194/1 126/195/1 160/130/129 159/126/125
f 126/195/1 33/166/1 129/9/8 160/130/129
f 60/175/156 57/174/155 203/174/155 204/175/156
f 102/187/138 99/133/130 217/133/130 218/187/138
f 63/176/157 60/175/156 204/175/156 205/176/157
f 105/188/139 102/187/138 218/187/138 219/188/139
f 66/177/158 63/176/157 205/176/157 206/177/158
f 108/189/140 105/188/139 219/188/139 220/189/140
f 69/178/159 66/177/158 206/177/158 207/178/159
f 111/190/141 108/189/140 220/189/140 221/190/141
f 72/179/160 69/178/159 207/178/159 208/179/160
f 114/191/142 111/190/141 221/190/141 222/191/142
f 75/180/161 72/179/160 208/179/160 209/180/161
f 36/167/148 33/166/147 195/166/147 196/167/148
f 117/192/143 114/191/142 222/191/142 223/192/143
f 78/181/134 75/180/161 209/180/161 210/181/134
f 39/168/149 36/167/148 196/167/148 197/168/149
f 120/193/144 117/192/143 223/192/143 224/193/144
f 81/182/132 78/181/134 210/181/134 211/182/132
f 42/169/150 39/168/149 197/168/149 198/169/150
f 123/194/145 120/193/144 224/193/144 225/194/145
f 84/183/133 81/182/132 211/182/132 212/183/133
f 45/170/151 42/169/150 198/169/150 199/170/151
f 126/195/146 123/194/145 225/194/145 226/195/146
f 87/184/135 84/183/133 212/183/133 213/184/135
f 48/171/152 45/170/151 199/170/151 200/171/152
f 33/166/147 126/195/146 226/195/146 195/166/147
f 90/185/136 87/184/135 213/184/135 214/185/136
f 51/172/153 48/171/152 200/171/152 201/172/153
f 93/186/137 90/185/136 214/185/136 215/186/137
f 54/173/154 51/172/153 201/172/153 202/173/154
f 96/134/131 93/186/137 215/186/137 216/134/131
f 57/174/155 54/173/154 202/173/154 203/174/155
f 162/135/162 163/136/163 228/136/163 227/135/162
f 5/141/1 6/142/1 167/142/1 166/141/1
f 32/137/1 1/138/1 162/138/1 193/137/1
f 19/2/1 20/154/1 181/154/1 180/2/1
f 6/142/1 7/143/1 168/143/1 167/142/1
f 20/154/1 21/155/1 182/155/1 181/154/1
f 7/143/1 8/144/1 169/144/1 168/143/1
f 21/155/1 22/156/1 183/156/1 182/155/1
f 8/144/1 9/145/1 170/145/1 169/144/1
f 22/156/1 23/157/1 184/157/1 183/156/1
f 9/145/1 10/146/1 171/146/1 170/145/1
f 23/157/1 24/158/1 185/158/1 184/157/1
f 10/146/1 11/147/1 172/147/1 171/146/1
f 24/158/1 25/159/1 186/159/1 185/158/1
f 11/147/1 12/148/1 173/148/1 172/147/1
f 25/159/1 26/160/1 187/160/1 186/159/1
f 12/148/1 13/149/1 174/149/1 173/148/1
f 26/160/1 27/161/1 188/161/1 187/160/1
f 13/149/1 14/150/1 175/150/1 174/149/1
f 27/161/1 28/162/1 189/162/1 188/161/1
f 14/150/1 15/151/1 176/151/1 175/150/1
f 1/135/1 2/136/1 163/136/1 162/135/1
f 28/162/1 29/163/1 190/163/1 189/162/1
f 15/151/1 16/152/1 177/152/1 176/151/1
f 2/136/1 3/139/1 164/139/1 163/136/1
f 29/163/1 30/164/1 191/164/1 190/163/1
f 16/152/1 17/153/1 178/153/1 177/152/1
f 3/139/1 4/140/1 165/140/1 164/139/1
f 30/164/1 31/165/1 192/165/1 191/164/1
f 17/153/1 18/1/1 179/1/1 178/153/1
f 4/140/1 5/141/1 166/141/1 165/140/1
f 31/165/1 32/137/1 193/137/1 192/165/1
f 189/162/164 190/163/165 255/163/165 254/162/164
f 176/151/166 177/152/167 242/152/167 241/151/166
f 163/136/163 164/139/168 229/139/168 228/136/163
f 190/163/165 191/164/169 256/164/169 255/163/165
f 177/152/167 178/153/170 243/153/170 242/152/167
f 164/139/168 165/140/171 230/140/171 229/139/168
f 191/164/169 192/165/172 257/165/172 256/164/169
f 178/153/170 179/1/173 244/1/173 243/153/170
f 165/140/171 166/141/174 231/141/174 230/140/171
f 192/165/172 193/137/175 258/137/175 257/165/172
f 179/1/173 180/2/176 245/2/176 244/1/173
f 166/141/174 167/142/177 232/142/177 231/141/174
f 193/137/175 162/138/162 227/138/162 258/137/175
f 180/2/176 181/154/178 246/154/178 245/2/176
f 167/142/177 168/143/179 233/143/179 232/142/177
f 181/154/178 182/155/180 247/155/180 246/154/178
f 168/143/179 169/144/181 234/144/181 233/143/179
f 182/155/180 183/156/182 248/156/182 247/155/180
f 169/144/181 170/145/183 235/145/183 234/144/181
f 183/156/182 184/157/184 249/157/184 248/156/182
f 170/145/183 171/146/185 236/146/185 235/145/183
f 184/157/184 185/158/186 250/158/186 249/157/184
f 171/146/185 172/147/187 237/147/187 236/146/185
f 185/158/186 186/159/188 251/159/188 250/158/186
f 172/147/187 173/148/189 238/148/189 237/147/187
f 186/159/188 187/160/190 252/160/190 251/159/188
f 173/148/189 174/149/191 239/149/191 238/148/189
f 187/160/190 188/161/192 253/161/192 252/160/190
f 174/149/191 175/150/193 240/150/193 239/149/191
f 188/161/192 189/162/164 254/162/164 253/161/192
f 175/150/193 176/151/166 241/151/166 240/150/193
f 161/196/1 196/167/1 195/166/1
f 161/197/1 197/168/1 196/167/1
f 161/198/1 198/169/1 197/168/1
f 161/199/1 199/170/1 198/169/1
f 161/200/1 200/171/1 199/170/1
f 161/201/1 201/172/1 200/171/1
f 161/202/1 202/173/1 201/172/1
f 161/203/1 203/174/1 202/173/1
f 161/204/1 204/175/1 203/174/1
f 161/205/1 205/176/1 204/175/1
f 161/206/1 206/177/1 205/176/1
f 161/207/1 207/178/1 206/177/1
f 161/208/1 208/179/1 207/178/1
f 161/209/1 209/180/1 208/179/1
f 161/210/1 210/181/1 209/180/1
f 161/211/1 211/182/1 210/181/1
f 161/212/1 212/183/1 211/182/1
f 161/213/1 213/184/1 212/183/1
f 161/214/1 214/185/1 213/184/1
f 161/215/1 215/186/1 214/185/1
f 161/216/1 216/134/1 215/186/1
f 161/217/1 217/133/1 216/134/1
f 161/218/1 218/187/1 217/133/1
f 161/219/1 219/188/1 218/187/1
f 161/220/1 220/189/1 219/188/1
f 161/221/1 221/190/1 220/189/1
f 161/222/1 222/191/1 221/190/1
f 161/223/1 223/192/1 222/191/1
f 161/224/1 224/193/1 223/192/1
f 161/225/1 225/194/1 224/193/1
f 161/226/1 226/195/1 225/194/1
f 161/227/1 195/166/1 226/195/1
f 194/228/194 227/229/194 228/230/194
f 194/231/194 228/230/194 229/232/194
f 194/233/194 229/232/194 230/234/194
f 194/235/194 230/234/194 231/236/194
f 194/237/194 231/236/194 232/238/194
f 194/239/194 232/238/194 233/240/194
f 194/241/194 233/240/194 234/242/194
f 194/243/194 234/242/194 235/244/194
f 194/245/194 235/244/194 236/246/194
f 194/247/194 236/246/194 237/248/194
f 194/249/194 237/248/194 238/250/194
f 194/251/194 238/250/194 239/252/194
f 194/253/194 239/252/194 240/254/194
f 194/255/194 240/254/194 241/256/194
f 194/257/194 241/256/194 242/258/194
f 194/259/194 242/258/194 243/260/194
f 194/261/194 243/260/194 244/262/194
f 194/263/194 244/262/194 245/264/194
f 194/265/194 245/264/194 246/266/194
f 194/267/194 246/266/194 247/268/194
f 194/269/194 247/268/194 248/270/194
f 194/271/194 248/270/194 249/272/194
f 194/273/194 249/272/194 250/274/194
f 194/275/194 250/274/194 251/276/194
f 194/277/194 251/276/194 252/278/194
f 194/279/194 252/278/194 253/280/194
f 194/281/194 253/280/194 254/282/194
f 194/283/194 254/282/194 255/284/194
f 194/285/194 255/284/194 256/286/194
f 194/287/194 256/286/194 257/288/194
f 194/289/194 257/288/194 258/290/194
f 194/291/194 258/290/194 227/229/194
