# Blender 4.5.1 LTS
# www.blender.org
o Case-Cannon-2L2W
v 0.000000 1.500000 -0.100717
v 0.019649 1.500000 -0.098782
v 0.038543 1.500000 -0.093051
v 0.055956 1.500000 -0.083743
v 0.071218 1.500000 -0.071218
v 0.083743 1.500000 -0.055956
v 0.093051 1.500000 -0.038543
v 0.098782 1.500000 -0.019649
v 0.100717 1.500000 -0.000000
v 0.098782 1.500000 0.019649
v 0.093051 1.500000 0.038543
v 0.083743 1.500000 0.055956
v 0.071218 1.500000 0.071218
v 0.055956 1.500000 0.083743
v 0.038543 1.500000 0.093051
v 0.019649 1.500000 0.098782
v 0.000000 1.500000 0.100717
v -0.019649 1.500000 0.098782
v -0.038543 1.500000 0.093051
v -0.055956 1.500000 0.083743
v -0.071218 1.500000 0.071218
v -0.083743 1.500000 0.055956
v -0.093051 1.500000 0.038543
v -0.098782 1.500000 0.019649
v -0.100717 1.500000 -0.000000
v -0.098782 1.500000 -0.019649
v -0.093051 1.500000 -0.038543
v -0.083743 1.500000 -0.055956
v -0.071218 1.500000 -0.071218
v -0.055956 1.500000 -0.083743
v -0.038543 1.500000 -0.093051
v -0.019649 1.500000 -0.098782
v 0.000000 0.020000 -0.150000
v 0.029264 0.020000 -0.147118
v 0.057403 0.020000 -0.138582
v 0.083336 0.020000 -0.124720
v 0.106066 0.020000 -0.106066
v 0.124720 0.020000 -0.083336
v 0.138582 0.020000 -0.057403
v 0.147118 0.020000 -0.029264
v 0.150000 0.020000 0.000000
v 0.147118 0.020000 0.029264
v 0.138582 0.020000 0.057403
v 0.124720 0.020000 0.083336
v 0.106066 0.020000 0.106066
v 0.083336 0.020000 0.124720
v 0.057403 0.020000 0.138582
v 0.029264 0.020000 0.147118
v 0.000000 0.020000 0.150000
v -0.029264 0.020000 0.147118
v -0.057403 0.020000 0.138582
v -0.083336 0.020000 0.124720
v -0.106066 0.020000 0.106066
v -0.124720 0.020000 0.083336
v -0.138582 0.020000 0.057403
v -0.147118 0.020000 0.029264
v -0.150000 0.020000 0.000000
v -0.147118 0.020000 -0.029264
v -0.138582 0.020000 -0.057403
v -0.124720 0.020000 -0.083336
v -0.106066 0.020000 -0.106066
v -0.083336 0.020000 -0.124720
v -0.057403 0.020000 -0.138582
v -0.029264 0.020000 -0.147118
v 0.000000 0.000000 -0.100309
v 0.019569 0.000000 -0.098381
v 0.032190 0.020000 -0.161830
v 0.038386 0.000000 -0.092673
v 0.063143 0.020000 -0.152440
v 0.055729 0.000000 -0.083404
v 0.091669 0.020000 -0.137192
v 0.070929 0.000000 -0.070929
v 0.116673 0.020000 -0.116673
v 0.083404 0.000000 -0.055729
v 0.137192 0.020000 -0.091669
v 0.092673 0.000000 -0.038386
v 0.152440 0.020000 -0.063143
v 0.098381 0.000000 -0.019569
v 0.161830 0.020000 -0.032190
v 0.100309 0.000000 0.000000
v 0.165000 0.020000 0.000000
v 0.098381 0.000000 0.019569
v 0.161830 0.020000 0.032190
v 0.092673 0.000000 0.038386
v 0.152440 0.020000 0.063143
v 0.083404 0.000000 0.055729
v 0.137192 0.020000 0.091669
v 0.070929 0.000000 0.070929
v 0.116673 0.020000 0.116673
v 0.055729 0.000000 0.083404
v 0.091669 0.020000 0.137192
v 0.038386 0.000000 0.092673
v 0.063143 0.020000 0.152440
v 0.019569 0.000000 0.098381
v 0.032190 0.020000 0.161830
v 0.000000 0.000000 0.100309
v 0.000000 0.020000 0.165000
v -0.019569 0.000000 0.098381
v -0.032190 0.020000 0.161830
v -0.038386 0.000000 0.092673
v -0.063143 0.020000 0.152440
v -0.055729 0.000000 0.083404
v -0.091669 0.020000 0.137192
v -0.070929 0.000000 0.070929
v -0.116673 0.020000 0.116673
v -0.083404 0.000000 0.055729
v -0.137192 0.020000 0.091669
v -0.092673 0.000000 0.038386
v -0.152440 0.020000 0.063143
v -0.098381 0.000000 0.019569
v -0.161830 0.020000 0.032190
v -0.100309 0.000000 0.000000
v -0.165000 0.020000 0.000000
v -0.098381 0.000000 -0.019569
v -0.161830 0.020000 -0.032190
v -0.092673 0.000000 -0.038386
v -0.152440 0.020000 -0.063143
v -0.083404 0.000000 -0.055729
v -0.137192 0.020000 -0.091669
v -0.070929 0.000000 -0.070929
v -0.116673 0.020000 -0.116673
v -0.055729 0.000000 -0.083404
v -0.091669 0.020000 -0.137192
v -0.038386 0.000000 -0.092673
v -0.063143 0.020000 -0.152440
v -0.019569 0.000000 -0.098381
v -0.032190 0.020000 -0.161830
v 0.000000 0.020000 -0.165000
v 0.020475 1.500000 -0.102933
v 0.000000 1.500000 -0.104949
v 0.040162 1.500000 -0.096961
v 0.058307 1.500000 -0.087262
v 0.074210 1.500000 -0.074210
v 0.087262 1.500000 -0.058307
v 0.096961 1.500000 -0.040162
v 0.102933 1.500000 -0.020475
v 0.104949 1.500000 0.000000
v 0.102933 1.500000 0.020475
v 0.096961 1.500000 0.040162
v 0.087262 1.500000 0.058307
v 0.074210 1.500000 0.074210
v 0.058307 1.500000 0.087262
v 0.040162 1.500000 0.096961
v 0.020475 1.500000 0.102933
v 0.000000 1.500000 0.104949
v -0.020475 1.500000 0.102933
v -0.040162 1.500000 0.096961
v -0.058307 1.500000 0.087262
v -0.074210 1.500000 0.074210
v -0.087262 1.500000 0.058307
v -0.096961 1.500000 0.040162
v -0.102933 1.500000 0.020475
v -0.104949 1.500000 0.000000
v -0.102933 1.500000 -0.020475
v -0.096961 1.500000 -0.040162
v -0.087262 1.500000 -0.058307
v -0.074210 1.500000 -0.074210
v -0.058307 1.500000 -0.087262
v -0.040162 1.500000 -0.096961
v -0.020475 1.500000 -0.102933
v -0.000000 0.060000 -0.100717
v 0.019649 0.060000 -0.098782
v 0.038543 0.060000 -0.093051
v 0.055955 0.060000 -0.083743
v 0.071218 0.060000 -0.071218
v 0.083743 0.060000 -0.055956
v 0.093051 0.060000 -0.038543
v 0.098782 0.060000 -0.019649
v 0.100717 0.060000 -0.000000
v 0.098782 0.060000 0.019649
v 0.093051 0.060000 0.038543
v 0.083743 0.060000 0.055956
v 0.071218 0.060000 0.071218
v 0.055955 0.060000 0.083743
v 0.038543 0.060000 0.093051
v 0.019649 0.060000 0.098782
v -0.000000 0.060000 0.100717
v -0.019649 0.060000 0.098782
v -0.038543 0.060000 0.093051
v -0.055956 0.060000 0.083743
v -0.071218 0.060000 0.071218
v -0.083744 0.060000 0.055956
v -0.093051 0.060000 0.038543
v -0.098782 0.060000 0.019649
v -0.100717 0.060000 -0.000000
v -0.098782 0.060000 -0.019649
v -0.093051 0.060000 -0.038543
v -0.083744 0.060000 -0.055956
v -0.071218 0.060000 -0.071218
v -0.055956 0.060000 -0.083743
v -0.038543 0.060000 -0.093051
v -0.019649 0.060000 -0.098782
v 0.000000 1.010001 -0.150000
v 0.029264 1.010001 -0.147118
v 0.057403 1.010001 -0.138582
v 0.083336 1.010001 -0.124720
v 0.106066 1.010001 -0.106066
v 0.124720 1.010001 -0.083336
v 0.138582 1.010001 -0.057403
v 0.147118 1.010001 -0.029264
v 0.150000 1.010001 0.000000
v 0.147118 1.010001 0.029264
v 0.138582 1.010001 0.057403
v 0.124720 1.010001 0.083336
v 0.106066 1.010001 0.106066
v 0.083336 1.010001 0.124720
v 0.057403 1.010001 0.138582
v 0.029264 1.010001 0.147118
v 0.000000 1.010001 0.150000
v -0.029264 1.010001 0.147118
v -0.057403 1.010001 0.138582
v -0.083336 1.010001 0.124720
v -0.106066 1.010001 0.106066
v -0.124720 1.010001 0.083336
v -0.138582 1.010001 0.057403
v -0.147118 1.010001 0.029264
v -0.150000 1.010001 0.000000
v -0.147118 1.010001 -0.029264
v -0.138582 1.010001 -0.057403
v -0.124720 1.010001 -0.083336
v -0.106066 1.010001 -0.106066
v -0.083336 1.010001 -0.124720
v -0.057403 1.010001 -0.138582
v -0.029264 1.010001 -0.147118
v 0.029264 0.990001 -0.147118
v 0.057403 0.990001 -0.138582
v 0.083336 0.990001 -0.124720
v 0.106066 0.990001 -0.106066
v 0.124720 0.990001 -0.083336
v 0.138582 0.990001 -0.057403
v 0.147118 0.990001 -0.029264
v 0.150000 0.990001 0.000000
v 0.147118 0.990001 0.029264
v 0.138582 0.990001 0.057403
v 0.124720 0.990001 0.083336
v 0.106066 0.990001 0.106066
v 0.083336 0.990001 0.124720
v 0.057403 0.990001 0.138582
v 0.029264 0.990001 0.147118
v 0.000000 0.990001 0.150000
v -0.029264 0.990001 0.147118
v -0.057403 0.990001 0.138582
v -0.083336 0.990001 0.124720
v -0.106066 0.990001 0.106066
v -0.124720 0.990001 0.083336
v -0.138582 0.990001 0.057403
v -0.147118 0.990001 0.029264
v -0.150000 0.990001 0.000000
v -0.147118 0.990001 -0.029264
v -0.138582 0.990001 -0.057403
v -0.124720 0.990001 -0.083336
v -0.106066 0.990001 -0.106066
v -0.083336 0.990001 -0.124720
v -0.057403 0.990001 -0.138582
v -0.029264 0.990001 -0.147118
v 0.000000 0.990001 -0.150000
v 0.000000 1.427500 -0.105780
v 0.020637 1.427500 -0.103747
v 0.040480 1.427500 -0.097728
v 0.058768 1.427500 -0.087953
v 0.074798 1.427500 -0.074798
v 0.087953 1.427500 -0.058768
v 0.097728 1.427500 -0.040480
v 0.103747 1.427500 -0.020637
v 0.105780 1.427500 0.000000
v 0.103747 1.427500 0.020637
v 0.097728 1.427500 0.040480
v 0.087953 1.427500 0.058768
v 0.074798 1.427500 0.074798
v 0.058768 1.427500 0.087953
v 0.040480 1.427500 0.097728
v 0.020637 1.427500 0.103747
v 0.000000 1.427500 0.105780
v -0.020637 1.427500 0.103747
v -0.040480 1.427500 0.097728
v -0.058768 1.427500 0.087953
v -0.074798 1.427500 0.074798
v -0.087953 1.427500 0.058768
v -0.097728 1.427500 0.040480
v -0.103747 1.427500 0.020637
v -0.105780 1.427500 0.000000
v -0.103747 1.427500 -0.020637
v -0.097728 1.427500 -0.040480
v -0.087953 1.427500 -0.058768
v -0.074798 1.427500 -0.074798
v -0.058768 1.427500 -0.087953
v -0.040480 1.427500 -0.097728
v -0.020637 1.427500 -0.103747
v 0.000000 0.000000 -0.165000
v 0.032190 0.000000 -0.161830
v 0.063143 0.000000 -0.152440
v 0.091669 0.000000 -0.137192
v 0.116673 0.000000 -0.116673
v 0.137192 0.000000 -0.091669
v 0.152440 0.000000 -0.063143
v 0.161830 0.000000 -0.032190
v 0.165000 0.000000 0.000000
v 0.161830 0.000000 0.032190
v 0.152440 0.000000 0.063143
v 0.137192 0.000000 0.091669
v 0.116673 0.000000 0.116673
v 0.091669 0.000000 0.137192
v 0.063143 0.000000 0.152440
v 0.032190 0.000000 0.161830
v 0.000000 0.000000 0.165000
v -0.032190 0.000000 0.161830
v -0.063143 0.000000 0.152440
v -0.091669 0.000000 0.137192
v -0.116673 0.000000 0.116673
v -0.137192 0.000000 0.091669
v -0.152440 0.000000 0.063143
v -0.161830 0.000000 0.032190
v -0.165000 0.000000 0.000000
v -0.161830 0.000000 -0.032190
v -0.152440 0.000000 -0.063143
v -0.137192 0.000000 -0.091669
v -0.116673 0.000000 -0.116673
v -0.091669 0.000000 -0.137192
v -0.063143 0.000000 -0.152440
v -0.032190 0.000000 -0.161830
v 0.000000 0.010000 -0.090477
v 0.075229 0.010000 -0.050266
v 0.063977 0.010000 0.063977
v 0.050266 0.010000 0.075229
v 0.000000 0.010000 0.090477
v -0.050266 0.010000 0.075229
v -0.063977 0.010000 0.063977
v -0.083590 0.010000 -0.034624
v -0.063977 0.010000 -0.063977
v -0.050266 0.010000 -0.075229
v 0.000000 0.010000 -0.100309
v 0.019569 0.010000 -0.098381
v 0.038386 0.010000 -0.092673
v 0.055729 0.010000 -0.083404
v 0.070929 0.010000 -0.070929
v 0.083404 0.010000 -0.055729
v 0.092673 0.010000 -0.038386
v 0.098381 0.010000 -0.019569
v 0.100309 0.010000 0.000000
v 0.098381 0.010000 0.019569
v 0.092673 0.010000 0.038386
v 0.083404 0.010000 0.055729
v 0.070929 0.010000 0.070929
v 0.055729 0.010000 0.083404
v 0.038386 0.010000 0.092673
v 0.019569 0.010000 0.098381
v 0.000000 0.010000 0.100309
v -0.019569 0.010000 0.098381
v -0.038386 0.010000 0.092673
v -0.055729 0.010000 0.083404
v -0.070929 0.010000 0.070929
v -0.083404 0.010000 0.055729
v -0.092673 0.010000 0.038386
v -0.098381 0.010000 0.019569
v -0.100309 0.010000 0.000000
v -0.098381 0.010000 -0.019569
v -0.092673 0.010000 -0.038386
v -0.083404 0.010000 -0.055729
v -0.070929 0.010000 -0.070929
v -0.055729 0.010000 -0.083404
v -0.038386 0.010000 -0.092673
v -0.019569 0.010000 -0.098381
v 0.017651 0.010000 -0.088738
v 0.034624 0.010000 -0.083590
v 0.050266 0.010000 -0.075229
v 0.063977 0.010000 -0.063977
v 0.083590 0.010000 -0.034624
v 0.088738 0.010000 -0.017651
v 0.090477 0.010000 -0.000000
v 0.088738 0.010000 0.017651
v 0.083590 0.010000 0.034624
v 0.075229 0.010000 0.050266
v 0.034624 0.010000 0.083590
v 0.017651 0.010000 0.088738
v -0.017651 0.010000 0.088738
v -0.034624 0.010000 0.083590
v -0.000000 0.000000 0.000000
v -0.075229 0.010000 0.050266
v -0.083590 0.010000 0.034624
v -0.088738 0.010000 0.017651
v -0.090477 0.010000 -0.000000
v -0.088738 0.010000 -0.017651
v -0.075229 0.010000 -0.050266
v -0.034624 0.010000 -0.083590
v -0.017651 0.010000 -0.088738
v 0.015691 0.000000 -0.078883
v 0.000000 0.000000 -0.080428
v 0.030779 0.000000 -0.074306
v 0.044684 0.000000 -0.066874
v 0.056871 0.000000 -0.056871
v 0.066874 0.000000 -0.044684
v 0.074306 0.000000 -0.030779
v 0.078883 0.000000 -0.015691
v 0.080428 0.000000 0.000000
v 0.078883 0.000000 0.015691
v 0.074306 0.000000 0.030779
v 0.066874 0.000000 0.044684
v 0.056871 0.000000 0.056871
v 0.044684 0.000000 0.066874
v 0.030779 0.000000 0.074306
v 0.015691 0.000000 0.078883
v 0.000000 0.000000 0.080428
v -0.015691 0.000000 0.078883
v -0.030779 0.000000 0.074306
v -0.044684 0.000000 0.066874
v -0.056871 0.000000 0.056871
v -0.066874 0.000000 0.044684
v -0.074306 0.000000 0.030779
v -0.078883 0.000000 0.015691
v -0.080428 0.000000 0.000000
v -0.078883 0.000000 -0.015691
v -0.074306 0.000000 -0.030779
v -0.066874 0.000000 -0.044684
v -0.056871 0.000000 -0.056871
v -0.044684 0.000000 -0.066874
v -0.030779 0.000000 -0.074306
v -0.015691 0.000000 -0.078883
vn -0.0000 0.0115 -0.9999
vn 0.1951 0.0115 -0.9807
vn 0.3827 0.0115 -0.9238
vn 0.5555 0.0115 -0.8314
vn 0.7071 0.0115 -0.7071
vn 0.8314 0.0115 -0.5555
vn 0.9238 0.0115 -0.3827
vn 0.9807 0.0115 -0.1951
vn 0.9999 0.0115 -0.0000
vn 0.9807 0.0115 0.1951
vn 0.9238 0.0115 0.3827
vn 0.8314 0.0115 0.5555
vn 0.7071 0.0115 0.7071
vn 0.5555 0.0115 0.8314
vn 0.3827 0.0115 0.9238
vn 0.1951 0.0115 0.9807
vn -0.0000 0.0115 0.9999
vn -0.1951 0.0115 0.9807
vn -0.3827 0.0115 0.9238
vn -0.5555 0.0115 0.8314
vn -0.7071 0.0115 0.7071
vn -0.8314 0.0115 0.5555
vn -0.9238 0.0115 0.3827
vn -0.9807 0.0115 0.1951
vn -0.9999 0.0115 -0.0000
vn -0.9807 0.0115 -0.1951
vn -0.9238 0.0115 -0.3827
vn -0.8314 0.0115 -0.5555
vn -0.7071 0.0115 -0.7071
vn -0.5555 0.0115 -0.8314
vn -0.3827 0.0115 -0.9238
vn 1.0000 -0.0000 -0.0000
vn 0.9808 -0.0000 -0.1951
vn -0.1951 0.0115 -0.9807
vn -0.0000 1.0000 -0.0000
vn -0.1951 -0.0000 -0.9808
vn -0.0000 -0.0000 -1.0000
vn -0.3827 -0.0000 -0.9239
vn -0.5556 -0.0000 -0.8315
vn -0.7071 -0.0000 -0.7071
vn -0.8315 -0.0000 -0.5556
vn -0.9239 -0.0000 -0.3827
vn -0.9808 -0.0000 -0.1951
vn -1.0000 -0.0000 -0.0000
vn -0.9808 -0.0000 0.1951
vn -0.9239 -0.0000 0.3827
vn -0.8315 -0.0000 0.5556
vn -0.7071 -0.0000 0.7071
vn -0.5556 -0.0000 0.8315
vn -0.3827 -0.0000 0.9239
vn -0.1951 -0.0000 0.9808
vn -0.0000 -0.0000 1.0000
vn 0.1951 -0.0000 0.9808
vn 0.3827 -0.0000 0.9239
vn 0.5556 -0.0000 0.8315
vn 0.7071 -0.0000 0.7071
vn 0.8315 -0.0000 0.5556
vn 0.9239 -0.0000 0.3827
vn 0.9808 -0.0000 0.1951
vn 0.9239 -0.0000 -0.3827
vn 0.8315 -0.0000 -0.5556
vn 0.7071 -0.0000 -0.7071
vn 0.5556 -0.0000 -0.8315
vn 0.3827 -0.0000 -0.9239
vn 0.1951 -0.0000 -0.9808
vn -0.1940 0.1053 -0.9753
vn -0.0000 0.1053 -0.9944
vn -0.3806 0.1053 -0.9187
vn -0.5525 0.1053 -0.8268
vn -0.7032 0.1053 -0.7032
vn -0.8268 0.1053 -0.5525
vn -0.9187 0.1053 -0.3806
vn -0.9753 0.1053 -0.1940
vn -0.9944 0.1053 -0.0000
vn -0.9753 0.1053 0.1940
vn -0.9187 0.1053 0.3806
vn -0.8268 0.1053 0.5525
vn -0.7032 0.1053 0.7032
vn -0.5525 0.1053 0.8268
vn -0.3806 0.1053 0.9187
vn -0.1940 0.1053 0.9753
vn -0.0000 0.1053 0.9944
vn 0.1940 0.1053 0.9753
vn 0.3806 0.1053 0.9187
vn 0.5525 0.1053 0.8268
vn 0.7032 0.1053 0.7032
vn 0.8268 0.1053 0.5525
vn 0.9187 0.1053 0.3806
vn 0.9753 0.1053 0.1940
vn 0.9944 0.1053 -0.0000
vn 0.9753 0.1053 -0.1940
vn 0.9187 0.1053 -0.3806
vn 0.8268 0.1053 -0.5525
vn 0.7032 0.1053 -0.7032
vn 0.5525 0.1053 -0.8268
vn 0.3806 0.1053 -0.9187
vn 0.1940 0.1053 -0.9753
vn -0.0000 -1.0000 -0.0000
vn -0.0000 -0.7088 -0.7054
vn 0.1376 -0.7088 -0.6918
vn 0.2699 -0.7088 -0.6517
vn 0.3919 -0.7088 -0.5865
vn 0.4988 -0.7088 -0.4988
vn 0.5865 -0.7088 -0.3919
vn 0.6517 -0.7088 -0.2699
vn 0.6918 -0.7088 -0.1376
vn 0.7054 -0.7088 -0.0000
vn 0.6918 -0.7088 0.1376
vn 0.6517 -0.7088 0.2699
vn 0.5865 -0.7088 0.3919
vn 0.4988 -0.7088 0.4988
vn 0.3919 -0.7088 0.5865
vn 0.2699 -0.7088 0.6517
vn 0.1376 -0.7088 0.6918
vn -0.0000 -0.7088 0.7054
vn -0.1376 -0.7088 0.6918
vn -0.2699 -0.7088 0.6517
vn -0.3919 -0.7088 0.5865
vn -0.4988 -0.7088 0.4988
vn -0.5865 -0.7088 0.3919
vn -0.6517 -0.7088 0.2699
vn -0.6918 -0.7088 0.1376
vn -0.7054 -0.7088 -0.0000
vn -0.6918 -0.7088 -0.1376
vn -0.6517 -0.7088 -0.2699
vn -0.5865 -0.7088 -0.3919
vn -0.4988 -0.7088 -0.4988
vn -0.3919 -0.7088 -0.5865
vn -0.2699 -0.7088 -0.6517
vn -0.1376 -0.7088 -0.6918
vt 1.000000 0.987500
vt 1.000000 1.000000
vt 0.968750 1.000000
vt 0.968750 0.987500
vt 0.937500 1.000000
vt 0.937500 0.987500
vt 0.906250 1.000000
vt 0.906250 0.987500
vt 0.875000 1.000000
vt 0.875000 0.987500
vt 0.843750 1.000000
vt 0.843750 0.987500
vt 0.812500 1.000000
vt 0.812500 0.987500
vt 0.781250 1.000000
vt 0.781250 0.987500
vt 0.750000 1.000000
vt 0.750000 0.987500
vt 0.718750 1.000000
vt 0.718750 0.987500
vt 0.687500 1.000000
vt 0.687500 0.987500
vt 0.656250 1.000000
vt 0.656250 0.987500
vt 0.625000 1.000000
vt 0.625000 0.987500
vt 0.593750 1.000000
vt 0.593750 0.987500
vt 0.562500 1.000000
vt 0.562500 0.987500
vt 0.531250 1.000000
vt 0.531250 0.987500
vt 0.500000 1.000000
vt 0.500000 0.987500
vt 0.468750 1.000000
vt 0.468750 0.987500
vt 0.437500 1.000000
vt 0.437500 0.987500
vt 0.406250 1.000000
vt 0.406250 0.987500
vt 0.375000 1.000000
vt 0.375000 0.987500
vt 0.343750 1.000000
vt 0.343750 0.987500
vt 0.312500 1.000000
vt 0.312500 0.987500
vt 0.281250 1.000000
vt 0.281250 0.987500
vt 0.250000 1.000000
vt 0.250000 0.987500
vt 0.218750 1.000000
vt 0.218750 0.987500
vt 0.187500 1.000000
vt 0.187500 0.987500
vt 0.156250 1.000000
vt 0.156250 0.987500
vt 0.125000 1.000000
vt 0.125000 0.987500
vt 0.093750 1.000000
vt 0.093750 0.987500
vt 0.062500 1.000000
vt 0.062500 0.987500
vt 0.127163 0.250000
vt 0.129523 0.226036
vt 0.031250 1.000000
vt 0.031250 0.987500
vt 0.000000 1.000000
vt 0.000000 0.987500
vt 0.156250 0.510000
vt 0.125000 0.510000
vt 0.968750 0.510000
vt 0.937500 0.510000
vt 0.093750 0.510000
vt 0.906250 0.510000
vt 0.062500 0.510000
vt 0.875000 0.510000
vt 0.031250 0.510000
vt 0.843750 0.510000
vt 0.000000 0.510000
vt 0.812500 0.510000
vt 0.781250 0.510000
vt 0.750000 0.510000
vt 0.718750 0.510000
vt 0.687500 0.510000
vt 0.656250 0.510000
vt 0.625000 0.510000
vt 0.593750 0.510000
vt 0.562500 0.510000
vt 0.031250 0.500000
vt 0.000000 0.500000
vt 0.062500 0.500000
vt 0.093750 0.500000
vt 0.125000 0.500000
vt 0.156250 0.500000
vt 0.187500 0.500000
vt 0.187500 0.510000
vt 0.218750 0.500000
vt 0.218750 0.510000
vt 0.250000 0.500000
vt 0.250000 0.510000
vt 0.281250 0.500000
vt 0.281250 0.510000
vt 0.312500 0.500000
vt 0.312500 0.510000
vt 0.343750 0.500000
vt 0.343750 0.510000
vt 0.375000 0.500000
vt 0.375000 0.510000
vt 0.406250 0.500000
vt 0.406250 0.510000
vt 0.437500 0.500000
vt 0.437500 0.510000
vt 0.468750 0.500000
vt 0.468750 0.510000
vt 0.500000 0.500000
vt 0.500000 0.510000
vt 0.531250 0.500000
vt 0.531250 0.510000
vt 0.562500 0.500000
vt 0.593750 0.500000
vt 0.625000 0.500000
vt 0.656250 0.500000
vt 0.687500 0.500000
vt 0.718750 0.500000
vt 0.750000 0.500000
vt 0.781250 0.500000
vt 0.812500 0.500000
vt 0.843750 0.500000
vt 0.875000 0.500000
vt 0.906250 0.500000
vt 0.937500 0.500000
vt 0.968750 0.500000
vt 1.000000 0.500000
vt 1.000000 0.510000
vt 0.472965 0.500000
vt 0.450198 0.500000
vt 0.250000 0.372837
vt 0.273964 0.370477
vt 0.296822 0.485388
vt 0.250000 0.490000
vt 0.297008 0.363487
vt 0.341844 0.471731
vt 0.318245 0.352135
vt 0.383337 0.449553
vt 0.336859 0.336859
vt 0.419706 0.419706
vt 0.352135 0.318245
vt 0.449553 0.383337
vt 0.363487 0.297008
vt 0.471731 0.341844
vt 0.370477 0.273964
vt 0.485388 0.296822
vt 0.372837 0.250000
vt 0.490000 0.250000
vt 0.370477 0.226036
vt 0.485388 0.203178
vt 0.363487 0.202992
vt 0.471731 0.158156
vt 0.352135 0.181755
vt 0.449553 0.116663
vt 0.336859 0.163141
vt 0.419706 0.080294
vt 0.318245 0.147865
vt 0.383337 0.050447
vt 0.297008 0.136513
vt 0.341844 0.028269
vt 0.273964 0.129523
vt 0.296822 0.014612
vt 0.250000 0.127163
vt 0.250000 0.010000
vt 0.226036 0.129523
vt 0.203178 0.014612
vt 0.202992 0.136513
vt 0.158156 0.028269
vt 0.181755 0.147865
vt 0.116663 0.050447
vt 0.163141 0.163141
vt 0.080294 0.080294
vt 0.147865 0.181755
vt 0.050447 0.116663
vt 0.136513 0.202992
vt 0.028269 0.158156
vt 0.014612 0.203178
vt 0.010000 0.250000
vt 0.129523 0.273964
vt 0.014612 0.296822
vt 0.136513 0.297008
vt 0.028269 0.341844
vt 0.147865 0.318245
vt 0.050447 0.383337
vt 0.163141 0.336859
vt 0.080294 0.419706
vt 0.181755 0.352135
vt 0.116663 0.449553
vt 0.202992 0.363487
vt 0.158156 0.471731
vt 0.226036 0.370477
vt 0.203178 0.485388
vt 0.031250 0.940000
vt 0.031250 0.950000
vt 0.000000 0.950000
vt 0.000000 0.940000
vt 0.062500 0.940000
vt 0.062500 0.950000
vt 0.093750 0.940000
vt 0.093750 0.950000
vt 0.125000 0.940000
vt 0.125000 0.950000
vt 0.156250 0.940000
vt 0.156250 0.950000
vt 0.187500 0.940000
vt 0.187500 0.950000
vt 0.218750 0.940000
vt 0.218750 0.950000
vt 0.250000 0.940000
vt 0.250000 0.950000
vt 0.281250 0.940000
vt 0.281250 0.950000
vt 0.312500 0.940000
vt 0.312500 0.950000
vt 0.343750 0.940000
vt 0.343750 0.950000
vt 0.375000 0.940000
vt 0.375000 0.950000
vt 0.406250 0.940000
vt 0.406250 0.950000
vt 0.437500 0.940000
vt 0.437500 0.950000
vt 0.468750 0.940000
vt 0.468750 0.950000
vt 0.500000 0.940000
vt 0.500000 0.950000
vt 0.531250 0.940000
vt 0.531250 0.950000
vt 0.562500 0.940000
vt 0.562500 0.950000
vt 0.593750 0.940000
vt 0.593750 0.950000
vt 0.625000 0.940000
vt 0.625000 0.950000
vt 0.656250 0.940000
vt 0.656250 0.950000
vt 0.687500 0.940000
vt 0.687500 0.950000
vt 0.718750 0.940000
vt 0.718750 0.950000
vt 0.750000 0.940000
vt 0.750000 0.950000
vt 0.781250 0.940000
vt 0.781250 0.950000
vt 0.812500 0.940000
vt 0.812500 0.950000
vt 0.843750 0.940000
vt 0.843750 0.950000
vt 0.875000 0.940000
vt 0.875000 0.950000
vt 0.906250 0.940000
vt 0.906250 0.950000
vt 0.937500 0.940000
vt 0.937500 0.950000
vt 0.968750 0.940000
vt 0.968750 0.950000
vt 1.000000 0.940000
vt 1.000000 0.950000
vt 0.538214 0.500000
vt 0.430536 0.500000
vt 0.624859 0.500000
vt 0.673315 0.500000
vt 0.693357 0.500000
vt 0.696813 0.500000
vt 0.690806 0.500000
vt 0.679149 0.500000
vt 0.663917 0.500000
vt 0.646308 0.500000
vt 0.627051 0.500000
vt 0.606624 0.500000
vt 0.585351 0.500000
vt 0.563468 0.500000
vt 0.541153 0.500000
vt 0.518552 0.500000
vt 0.495785 0.500000
vt 0.427597 0.500000
vt 0.405282 0.500000
vt 0.383399 0.500000
vt 0.362126 0.500000
vt 0.341698 0.500000
vt 0.322442 0.500000
vt 0.304833 0.500000
vt 0.289601 0.500000
vt 0.277944 0.500000
vt 0.271937 0.500000
vt 0.275393 0.500000
vt 0.295435 0.500000
vt 0.343891 0.500000
vt 0.527477 0.500000
vt 0.441274 0.500000
vt 0.600271 0.500000
vt 0.645754 0.500000
vt 0.667483 0.500000
vt 0.673638 0.500000
vt 0.670323 0.500000
vt 0.661162 0.500000
vt 0.648234 0.500000
vt 0.632767 0.500000
vt 0.615529 0.500000
vt 0.597020 0.500000
vt 0.577587 0.500000
vt 0.557486 0.500000
vt 0.536910 0.500000
vt 0.516017 0.500000
vt 0.494942 0.500000
vt 0.473808 0.500000
vt 0.452733 0.500000
vt 0.431840 0.500000
vt 0.411264 0.500000
vt 0.391162 0.500000
vt 0.371730 0.500000
vt 0.353221 0.500000
vt 0.335982 0.500000
vt 0.320516 0.500000
vt 0.307588 0.500000
vt 0.298427 0.500000
vt 0.295112 0.500000
vt 0.301267 0.500000
vt 0.322996 0.500000
vt 0.368479 0.500000
vt 0.441274 0.500000
vt 0.527477 0.500000
vt 0.518652 0.500000
vt 0.450098 0.500000
vt 0.600271 0.500000
vt 0.578642 0.500000
vt 0.619576 0.500000
vt 0.667484 0.500000
vt 0.641683 0.500000
vt 0.649945 0.500000
vt 0.649108 0.500000
vt 0.642393 0.500000
vt 0.631788 0.500000
vt 0.618521 0.500000
vt 0.615529 0.500000
vt 0.603374 0.500000
vt 0.586868 0.500000
vt 0.577588 0.500000
vt 0.569369 0.500000
vt 0.551147 0.500000
vt 0.532410 0.500000
vt 0.516017 0.500000
vt 0.513328 0.500000
vt 0.494048 0.500000
vt 0.473808 0.500000
vt 0.474702 0.500000
vt 0.452733 0.500000
vt 0.455422 0.500000
vt 0.431840 0.500000
vt 0.436340 0.500000
vt 0.411264 0.500000
vt 0.417603 0.500000
vt 0.391162 0.500000
vt 0.399380 0.500000
vt 0.381882 0.500000
vt 0.365376 0.500000
vt 0.335982 0.500000
vt 0.350229 0.500000
vt 0.320516 0.500000
vt 0.336962 0.500000
vt 0.326357 0.500000
vt 0.298427 0.500000
vt 0.319642 0.500000
vt 0.318805 0.500000
vt 0.301267 0.500000
vt 0.327067 0.500000
vt 0.349173 0.500000
vt 0.368479 0.500000
vt 0.390108 0.500000
vt 0.462364 0.500000
vt 0.506387 0.500000
vt 0.546661 0.500000
vt 0.577627 0.500000
vt 0.597637 0.500000
vt 0.607933 0.500000
vt 0.610741 0.500000
vt 0.608117 0.500000
vt 0.601613 0.500000
vt 0.592319 0.500000
vt 0.580990 0.500000
vt 0.568160 0.500000
vt 0.554218 0.500000
vt 0.539457 0.500000
vt 0.524110 0.500000
vt 0.508368 0.500000
vt 0.492398 0.500000
vt 0.476353 0.500000
vt 0.460382 0.500000
vt 0.444640 0.500000
vt 0.429293 0.500000
vt 0.414532 0.500000
vt 0.400590 0.500000
vt 0.387760 0.500000
vt 0.376432 0.500000
vt 0.367137 0.500000
vt 0.360633 0.500000
vt 0.358009 0.500000
vt 0.360817 0.500000
vt 0.371113 0.500000
vt 0.391123 0.500000
vt 0.422089 0.500000
s 1
f 257/1/1 130/2/1 129/3/2 258/4/2
f 258/4/2 129/3/2 131/5/3 259/6/3
f 259/6/3 131/5/3 132/7/4 260/8/4
f 260/8/4 132/7/4 133/9/5 261/10/5
f 261/10/5 133/9/5 134/11/6 262/12/6
f 262/12/6 134/11/6 135/13/7 263/14/7
f 263/14/7 135/13/7 136/15/8 264/16/8
f 264/16/8 136/15/8 137/17/9 265/18/9
f 265/18/9 137/17/9 138/19/10 266/20/10
f 266/20/10 138/19/10 139/21/11 267/22/11
f 267/22/11 139/21/11 140/23/12 268/24/12
f 268/24/12 140/23/12 141/25/13 269/26/13
f 269/26/13 141/25/13 142/27/14 270/28/14
f 270/28/14 142/27/14 143/29/15 271/30/15
f 271/30/15 143/29/15 144/31/16 272/32/16
f 272/32/16 144/31/16 145/33/17 273/34/17
f 273/34/17 145/33/17 146/35/18 274/36/18
f 274/36/18 146/35/18 147/37/19 275/38/19
f 275/38/19 147/37/19 148/39/20 276/40/20
f 276/40/20 148/39/20 149/41/21 277/42/21
f 277/42/21 149/41/21 150/43/22 278/44/22
f 278/44/22 150/43/22 151/45/23 279/46/23
f 279/46/23 151/45/23 152/47/24 280/48/24
f 280/48/24 152/47/24 153/49/25 281/50/25
f 281/50/25 153/49/25 154/51/26 282/52/26
f 282/52/26 154/51/26 155/53/27 283/54/27
f 283/54/27 155/53/27 156/55/28 284/56/28
f 284/56/28 156/55/28 157/57/29 285/58/29
f 285/58/29 157/57/29 158/59/30 286/60/30
f 286/60/30 158/59/30 159/61/31 287/62/31
f 25/63/32 24/64/33 184/64/33 185/63/32
f 287/62/31 159/61/31 160/65/34 288/66/34
f 288/66/34 160/65/34 130/67/1 257/68/1
f 60/69/35 61/70/35 121/70/35 119/69/35
f 34/71/35 35/72/35 69/72/35 67/71/35
f 61/70/35 62/73/35 123/73/35 121/70/35
f 35/72/35 36/74/35 71/74/35 69/72/35
f 62/73/35 63/75/35 125/75/35 123/73/35
f 36/74/35 37/76/35 73/76/35 71/74/35
f 63/75/35 64/77/35 127/77/35 125/75/35
f 37/76/35 38/78/35 75/78/35 73/76/35
f 64/77/35 33/79/35 128/79/35 127/77/35
f 38/78/35 39/80/35 77/80/35 75/78/35
f 39/80/35 40/81/35 79/81/35 77/80/35
f 40/81/35 41/82/35 81/82/35 79/81/35
f 41/82/35 42/83/35 83/83/35 81/82/35
f 42/83/35 43/84/35 85/84/35 83/83/35
f 43/84/35 44/85/35 87/85/35 85/84/35
f 44/85/35 45/86/35 89/86/35 87/85/35
f 45/86/35 46/87/35 91/87/35 89/86/35
f 46/87/35 47/88/35 93/88/35 91/87/35
f 320/89/36 127/77/36 128/79/37 289/90/37
f 319/91/38 125/75/38 127/77/36 320/89/36
f 318/92/39 123/73/39 125/75/38 319/91/38
f 317/93/40 121/70/40 123/73/39 318/92/39
f 316/94/41 119/69/41 121/70/40 317/93/40
f 315/95/42 117/96/42 119/69/41 316/94/41
f 314/97/43 115/98/43 117/96/42 315/95/42
f 313/99/44 113/100/44 115/98/43 314/97/43
f 312/101/45 111/102/45 113/100/44 313/99/44
f 311/103/46 109/104/46 111/102/45 312/101/45
f 310/105/47 107/106/47 109/104/46 311/103/46
f 309/107/48 105/108/48 107/106/47 310/105/47
f 308/109/49 103/110/49 105/108/48 309/107/48
f 307/111/50 101/112/50 103/110/49 308/109/49
f 306/113/51 99/114/51 101/112/50 307/111/50
f 305/115/52 97/116/52 99/114/51 306/113/51
f 304/117/53 95/118/53 97/116/52 305/115/52
f 303/119/54 93/88/54 95/118/53 304/117/53
f 302/120/55 91/87/55 93/88/54 303/119/54
f 301/121/56 89/86/56 91/87/55 302/120/55
f 300/122/57 87/85/57 89/86/56 301/121/56
f 299/123/58 85/84/58 87/85/57 300/122/57
f 298/124/59 83/83/59 85/84/58 299/123/58
f 297/125/32 81/82/32 83/83/59 298/124/59
f 296/126/33 79/81/33 81/82/32 297/125/32
f 295/127/60 77/80/60 79/81/33 296/126/33
f 294/128/61 75/78/61 77/80/60 295/127/60
f 293/129/62 73/76/62 75/78/61 294/128/61
f 292/130/63 71/74/63 73/76/62 293/129/62
f 291/131/64 69/72/64 71/74/63 292/130/63
f 290/132/65 67/71/65 69/72/64 291/131/64
f 289/133/37 128/134/37 67/71/65 290/132/65
f 33/134/35 34/71/35 67/71/35 128/134/35
f 59/96/35 60/69/35 119/69/35 117/96/35
f 58/98/35 59/96/35 117/96/35 115/98/35
f 57/100/35 58/98/35 115/98/35 113/100/35
f 56/102/35 57/100/35 113/100/35 111/102/35
f 55/104/35 56/102/35 111/102/35 109/104/35
f 54/106/35 55/104/35 109/104/35 107/106/35
f 53/108/35 54/106/35 107/106/35 105/108/35
f 52/110/35 53/108/35 105/108/35 103/110/35
f 51/112/35 52/110/35 103/110/35 101/112/35
f 50/114/35 51/112/35 101/112/35 99/114/35
f 98/135/65 100/136/64 349/136/64 348/135/65
f 49/116/35 50/114/35 99/114/35 97/116/35
f 48/118/35 49/116/35 97/116/35 95/118/35
f 47/88/35 48/118/35 95/118/35 93/88/35
f 1/137/35 2/138/35 129/139/35 130/140/35
f 2/138/35 3/141/35 131/142/35 129/139/35
f 3/141/35 4/143/35 132/144/35 131/142/35
f 4/143/35 5/145/35 133/146/35 132/144/35
f 5/145/35 6/147/35 134/148/35 133/146/35
f 6/147/35 7/149/35 135/150/35 134/148/35
f 7/149/35 8/151/35 136/152/35 135/150/35
f 8/151/35 9/153/35 137/154/35 136/152/35
f 9/153/35 10/155/35 138/156/35 137/154/35
f 10/155/35 11/157/35 139/158/35 138/156/35
f 11/157/35 12/159/35 140/160/35 139/158/35
f 12/159/35 13/161/35 141/162/35 140/160/35
f 13/161/35 14/163/35 142/164/35 141/162/35
f 14/163/35 15/165/35 143/166/35 142/164/35
f 15/165/35 16/167/35 144/168/35 143/166/35
f 16/167/35 17/169/35 145/170/35 144/168/35
f 17/169/35 18/171/35 146/172/35 145/170/35
f 18/171/35 19/173/35 147/174/35 146/172/35
f 19/173/35 20/175/35 148/176/35 147/174/35
f 20/175/35 21/177/35 149/178/35 148/176/35
f 21/177/35 22/179/35 150/180/35 149/178/35
f 22/179/35 23/181/35 151/182/35 150/180/35
f 23/181/35 24/64/35 152/183/35 151/182/35
f 24/64/35 25/63/35 153/184/35 152/183/35
f 25/63/35 26/185/35 154/186/35 153/184/35
f 26/185/35 27/187/35 155/188/35 154/186/35
f 27/187/35 28/189/35 156/190/35 155/188/35
f 28/189/35 29/191/35 157/192/35 156/190/35
f 29/191/35 30/193/35 158/194/35 157/192/35
f 30/193/35 31/195/35 159/196/35 158/194/35
f 31/195/35 32/197/35 160/198/35 159/196/35
f 32/197/35 1/137/35 130/140/35 160/198/35
f 162/138/35 161/137/35 192/197/35 191/195/35 190/193/35 189/191/35 188/189/35 187/187/35 186/185/35 185/63/35 184/64/35 183/181/35 182/179/35 181/177/35 180/175/35 179/173/35 178/171/35 177/169/35 176/167/35 175/165/35 174/163/35 173/161/35 172/159/35 171/157/35 170/155/35 169/153/35 168/151/35 167/149/35 166/147/35 165/145/35 164/143/35 163/141/35
f 12/159/41 11/157/42 171/157/42 172/159/41
f 26/185/59 25/63/32 185/63/32 186/185/59
f 13/161/40 12/159/41 172/159/41 173/161/40
f 27/187/58 26/185/59 186/185/59 187/187/58
f 14/163/39 13/161/40 173/161/40 174/163/39
f 28/189/57 27/187/58 187/187/58 188/189/57
f 15/165/38 14/163/39 174/163/39 175/165/38
f 2/138/51 1/137/52 161/137/52 162/138/51
f 29/191/56 28/189/57 188/189/57 189/191/56
f 16/167/36 15/165/38 175/165/38 176/167/36
f 3/141/50 2/138/51 162/138/51 163/141/50
f 30/193/55 29/191/56 189/191/56 190/193/55
f 17/169/37 16/167/36 176/167/36 177/169/37
f 4/143/49 3/141/50 163/141/50 164/143/49
f 31/195/54 30/193/55 190/193/55 191/195/54
f 18/171/65 17/169/37 177/169/37 178/171/65
f 5/145/48 4/143/49 164/143/49 165/145/48
f 32/197/53 31/195/54 191/195/54 192/197/53
f 19/173/64 18/171/65 178/171/65 179/173/64
f 6/147/47 5/145/48 165/145/48 166/147/47
f 1/137/52 32/197/53 192/197/53 161/137/52
f 20/175/63 19/173/64 179/173/64 180/175/63
f 7/149/46 6/147/47 166/147/47 167/149/46
f 21/177/62 20/175/63 180/175/63 181/177/62
f 8/151/45 7/149/46 167/149/46 168/151/45
f 22/179/61 21/177/62 181/177/62 182/179/61
f 9/153/44 8/151/45 168/151/45 169/153/44
f 23/181/60 22/179/61 182/179/61 183/181/60
f 10/155/43 9/153/44 169/153/44 170/155/43
f 24/64/33 23/181/60 183/181/60 184/64/33
f 11/157/42 10/155/43 170/155/43 171/157/42
f 255/199/36 224/200/36 193/201/37 256/202/37
f 254/203/38 223/204/38 224/200/36 255/199/36
f 253/205/39 222/206/39 223/204/38 254/203/38
f 252/207/40 221/208/40 222/206/39 253/205/39
f 251/209/41 220/210/41 221/208/40 252/207/40
f 250/211/42 219/212/42 220/210/41 251/209/41
f 249/213/43 218/214/43 219/212/42 250/211/42
f 248/215/44 217/216/44 218/214/43 249/213/43
f 247/217/45 216/218/45 217/216/44 248/215/44
f 246/219/46 215/220/46 216/218/45 247/217/45
f 245/221/47 214/222/47 215/220/46 246/219/46
f 244/223/48 213/224/48 214/222/47 245/221/47
f 243/225/49 212/226/49 213/224/48 244/223/48
f 242/227/50 211/228/50 212/226/49 243/225/49
f 241/229/51 210/230/51 211/228/50 242/227/50
f 240/231/52 209/232/52 210/230/51 241/229/51
f 239/233/53 208/234/53 209/232/52 240/231/52
f 238/235/54 207/236/54 208/234/53 239/233/53
f 237/237/55 206/238/55 207/236/54 238/235/54
f 236/239/56 205/240/56 206/238/55 237/237/55
f 235/241/57 204/242/57 205/240/56 236/239/56
f 234/243/58 203/244/58 204/242/57 235/241/57
f 233/245/59 202/246/59 203/244/58 234/243/58
f 232/247/32 201/248/32 202/246/59 233/245/59
f 231/249/33 200/250/33 201/248/32 232/247/32
f 230/251/60 199/252/60 200/250/33 231/249/33
f 229/253/61 198/254/61 199/252/60 230/251/60
f 228/255/62 197/256/62 198/254/61 229/253/61
f 227/257/63 196/258/63 197/256/62 228/255/62
f 226/259/64 195/260/64 196/258/63 227/257/63
f 225/261/65 194/262/65 195/260/64 226/259/64
f 256/263/37 193/264/37 194/262/65 225/261/65
f 33/134/37 256/263/37 225/261/65 34/71/65
f 34/71/65 225/261/65 226/259/64 35/72/64
f 35/72/64 226/259/64 227/257/63 36/74/63
f 36/74/63 227/257/63 228/255/62 37/76/62
f 37/76/62 228/255/62 229/253/61 38/78/61
f 38/78/61 229/253/61 230/251/60 39/80/60
f 39/80/60 230/251/60 231/249/33 40/81/33
f 40/81/33 231/249/33 232/247/32 41/82/32
f 41/82/32 232/247/32 233/245/59 42/83/59
f 42/83/59 233/245/59 234/243/58 43/84/58
f 43/84/58 234/243/58 235/241/57 44/85/57
f 44/85/57 235/241/57 236/239/56 45/86/56
f 45/86/56 236/239/56 237/237/55 46/87/55
f 46/87/55 237/237/55 238/235/54 47/88/54
f 47/88/54 238/235/54 239/233/53 48/118/53
f 48/118/53 239/233/53 240/231/52 49/116/52
f 49/116/52 240/231/52 241/229/51 50/114/51
f 50/114/51 241/229/51 242/227/50 51/112/50
f 51/112/50 242/227/50 243/225/49 52/110/49
f 52/110/49 243/225/49 244/223/48 53/108/48
f 53/108/48 244/223/48 245/221/47 54/106/47
f 54/106/47 245/221/47 246/219/46 55/104/46
f 55/104/46 246/219/46 247/217/45 56/102/45
f 56/102/45 247/217/45 248/215/44 57/100/44
f 57/100/44 248/215/44 249/213/43 58/98/43
f 58/98/43 249/213/43 250/211/42 59/96/42
f 59/96/42 250/211/42 251/209/41 60/69/41
f 60/69/41 251/209/41 252/207/40 61/70/40
f 61/70/40 252/207/40 253/205/39 62/73/39
f 62/73/39 253/205/39 254/203/38 63/75/38
f 63/75/38 254/203/38 255/199/36 64/77/36
f 64/77/36 255/199/36 256/202/37 33/79/37
f 224/200/66 288/66/66 257/68/67 193/201/67
f 223/204/68 287/62/68 288/66/66 224/200/66
f 222/206/69 286/60/69 287/62/68 223/204/68
f 221/208/70 285/58/70 286/60/69 222/206/69
f 220/210/71 284/56/71 285/58/70 221/208/70
f 219/212/72 283/54/72 284/56/71 220/210/71
f 218/214/73 282/52/73 283/54/72 219/212/72
f 217/216/74 281/50/74 282/52/73 218/214/73
f 216/218/75 280/48/75 281/50/74 217/216/74
f 215/220/76 279/46/76 280/48/75 216/218/75
f 214/222/77 278/44/77 279/46/76 215/220/76
f 213/224/78 277/42/78 278/44/77 214/222/77
f 212/226/79 276/40/79 277/42/78 213/224/78
f 211/228/80 275/38/80 276/40/79 212/226/79
f 210/230/81 274/36/81 275/38/80 211/228/80
f 209/232/82 273/34/82 274/36/81 210/230/81
f 208/234/83 272/32/83 273/34/82 209/232/82
f 207/236/84 271/30/84 272/32/83 208/234/83
f 206/238/85 270/28/85 271/30/84 207/236/84
f 205/240/86 269/26/86 270/28/85 206/238/85
f 204/242/87 268/24/87 269/26/86 205/240/86
f 203/244/88 267/22/88 268/24/87 204/242/87
f 202/246/89 266/20/89 267/22/88 203/244/88
f 201/248/90 265/18/90 266/20/89 202/246/89
f 200/250/91 264/16/91 265/18/90 201/248/90
f 199/252/92 263/14/92 264/16/91 200/250/91
f 198/254/93 262/12/93 263/14/92 199/252/92
f 197/256/94 261/10/94 262/12/93 198/254/93
f 196/258/95 260/8/95 261/10/94 197/256/94
f 195/260/96 259/6/96 260/8/95 196/258/95
f 194/262/97 258/4/97 259/6/96 195/260/96
f 193/264/67 257/1/67 258/4/97 194/262/97
f 66/265/98 65/266/98 289/90/98 290/132/98
f 68/267/98 66/265/98 290/132/98 291/131/98
f 70/268/98 68/267/98 291/131/98 292/130/98
f 72/269/98 70/268/98 292/130/98 293/129/98
f 74/270/98 72/269/98 293/129/98 294/128/98
f 76/271/98 74/270/98 294/128/98 295/127/98
f 78/272/98 76/271/98 295/127/98 296/126/98
f 80/273/98 78/272/98 296/126/98 297/125/98
f 82/274/98 80/273/98 297/125/98 298/124/98
f 84/275/98 82/274/98 298/124/98 299/123/98
f 86/276/98 84/275/98 299/123/98 300/122/98
f 88/277/98 86/276/98 300/122/98 301/121/98
f 90/278/98 88/277/98 301/121/98 302/120/98
f 92/279/98 90/278/98 302/120/98 303/119/98
f 94/280/98 92/279/98 303/119/98 304/117/98
f 96/281/98 94/280/98 304/117/98 305/115/98
f 98/135/98 96/281/98 305/115/98 306/113/98
f 100/136/98 98/135/98 306/113/98 307/111/98
f 102/282/98 100/136/98 307/111/98 308/109/98
f 104/283/98 102/282/98 308/109/98 309/107/98
f 106/284/98 104/283/98 309/107/98 310/105/98
f 108/285/98 106/284/98 310/105/98 311/103/98
f 110/286/98 108/285/98 311/103/98 312/101/98
f 112/287/98 110/286/98 312/101/98 313/99/98
f 114/288/98 112/287/98 313/99/98 314/97/98
f 116/289/98 114/288/98 314/97/98 315/95/98
f 118/290/98 116/289/98 315/95/98 316/94/98
f 120/291/98 118/290/98 316/94/98 317/93/98
f 122/292/98 120/291/98 317/93/98 318/92/98
f 124/293/98 122/292/98 318/92/98 319/91/98
f 126/294/98 124/293/98 319/91/98 320/89/98
f 65/266/98 126/294/98 320/89/98 289/90/98
f 72/269/48 74/270/47 336/270/47 335/269/48
f 126/294/53 65/266/52 331/266/52 362/294/53
f 100/136/64 102/282/63 350/282/63 349/136/64
f 74/270/47 76/271/46 337/271/46 336/270/47
f 102/282/63 104/283/62 351/283/62 350/282/63
f 76/271/46 78/272/45 338/272/45 337/271/46
f 104/283/62 106/284/61 352/284/61 351/283/62
f 78/272/45 80/273/44 339/273/44 338/272/45
f 106/284/61 108/285/60 353/285/60 352/284/61
f 80/273/44 82/274/43 340/274/43 339/273/44
f 108/285/60 110/286/33 354/286/33 353/285/60
f 82/274/43 84/275/42 341/275/42 340/274/43
f 110/286/33 112/287/32 355/287/32 354/286/33
f 84/275/42 86/276/41 342/276/41 341/275/42
f 112/287/32 114/288/59 356/288/59 355/287/32
f 86/276/41 88/277/40 343/277/40 342/276/41
f 114/288/59 116/289/58 357/289/58 356/288/59
f 88/277/40 90/278/39 344/278/39 343/277/40
f 116/289/58 118/290/57 358/290/57 357/289/58
f 90/278/39 92/279/38 345/279/38 344/278/39
f 65/266/52 66/265/51 332/265/51 331/266/52
f 118/290/57 120/291/56 359/291/56 358/290/57
f 92/279/38 94/280/36 346/280/36 345/279/38
f 66/265/51 68/267/50 333/267/50 332/265/51
f 120/291/56 122/292/55 360/292/55 359/291/56
f 94/280/36 96/281/37 347/281/37 346/280/36
f 68/267/50 70/268/49 334/268/49 333/267/50
f 122/292/55 124/293/54 361/293/54 360/292/55
f 96/281/37 98/135/65 348/135/65 347/281/37
f 70/268/49 72/269/48 335/269/48 334/268/49
f 124/293/54 126/294/53 362/294/53 361/293/54
f 363/295/98 321/296/98 331/266/98 332/265/98
f 364/297/98 363/295/98 332/265/98 333/267/98
f 365/298/98 364/297/98 333/267/98 334/268/98
f 366/299/98 365/298/98 334/268/98 335/269/98
f 322/300/98 366/299/98 335/269/98 336/270/98
f 367/301/98 322/300/98 336/270/98 337/271/98
f 368/302/98 367/301/98 337/271/98 338/272/98
f 369/303/98 368/302/98 338/272/98 339/273/98
f 370/304/98 369/303/98 339/273/98 340/274/98
f 371/305/98 370/304/98 340/274/98 341/275/98
f 372/306/98 371/305/98 341/275/98 342/276/98
f 323/307/98 372/306/98 342/276/98 343/277/98
f 324/308/98 323/307/98 343/277/98 344/278/98
f 373/309/98 324/308/98 344/278/98 345/279/98
f 374/310/98 373/309/98 345/279/98 346/280/98
f 325/311/98 374/310/98 346/280/98 347/281/98
f 375/312/98 325/311/98 347/281/98 348/135/98
f 376/313/98 375/312/98 348/135/98 349/136/98
f 326/314/98 376/313/98 349/136/98 350/282/98
f 327/315/98 326/314/98 350/282/98 351/283/98
f 378/316/98 327/315/98 351/283/98 352/284/98
f 379/317/98 378/316/98 352/284/98 353/285/98
f 380/318/98 379/317/98 353/285/98 354/286/98
f 381/319/98 380/318/98 354/286/98 355/287/98
f 382/320/98 381/319/98 355/287/98 356/288/98
f 328/321/98 382/320/98 356/288/98 357/289/98
f 383/322/98 328/321/98 357/289/98 358/290/98
f 329/323/98 383/322/98 358/290/98 359/291/98
f 330/324/98 329/323/98 359/291/98 360/292/98
f 384/325/98 330/324/98 360/292/98 361/293/98
f 385/326/98 384/325/98 361/293/98 362/294/98
f 321/296/98 385/326/98 362/294/98 331/266/98
f 321/327/99 363/328/100 386/329/100 387/330/99
f 363/328/100 364/331/101 388/332/101 386/329/100
f 364/331/101 365/298/102 389/333/102 388/332/101
f 365/298/102 366/334/103 390/335/103 389/333/102
f 366/334/103 322/300/104 391/336/104 390/335/103
f 322/300/104 367/301/105 392/337/105 391/336/104
f 367/301/105 368/302/106 393/338/106 392/337/105
f 368/302/106 369/303/107 394/339/107 393/338/106
f 369/303/107 370/304/108 395/340/108 394/339/107
f 370/304/108 371/341/109 396/342/109 395/340/108
f 371/341/109 372/306/110 397/343/110 396/342/109
f 372/306/110 323/344/111 398/345/111 397/343/110
f 323/344/111 324/308/112 399/346/112 398/345/111
f 324/308/112 373/309/113 400/347/113 399/346/112
f 373/309/113 374/348/114 401/349/114 400/347/113
f 374/348/114 325/311/115 402/350/115 401/349/114
f 325/311/115 375/351/116 403/352/116 402/350/115
f 375/351/116 376/353/117 404/354/117 403/352/116
f 376/353/117 326/355/118 405/356/118 404/354/117
f 326/355/118 327/357/119 406/358/119 405/356/118
f 327/357/119 378/359/120 407/360/120 406/358/119
f 378/359/120 379/317/121 408/361/121 407/360/120
f 379/317/121 380/318/122 409/362/122 408/361/121
f 380/318/122 381/363/123 410/364/123 409/362/122
f 381/363/123 382/365/124 411/366/124 410/364/123
f 382/365/124 328/321/125 412/367/125 411/366/124
f 328/321/125 383/368/126 413/369/126 412/367/125
f 383/368/126 329/323/127 414/370/127 413/369/126
f 329/323/127 330/371/128 415/372/128 414/370/127
f 330/371/128 384/325/129 416/373/129 415/372/128
f 384/325/129 385/374/130 417/375/130 416/373/129
f 385/374/130 321/327/99 387/330/99 417/375/130
f 377/376/98 387/330/98 386/329/98
f 377/377/98 386/329/98 388/332/98
f 377/378/98 388/332/98 389/333/98
f 377/379/98 389/333/98 390/335/98
f 377/380/98 390/335/98 391/336/98
f 377/381/98 391/336/98 392/337/98
f 377/382/98 392/337/98 393/338/98
f 377/383/98 393/338/98 394/339/98
f 377/384/98 394/339/98 395/340/98
f 377/385/98 395/340/98 396/342/98
f 377/386/98 396/342/98 397/343/98
f 377/387/98 397/343/98 398/345/98
f 377/388/98 398/345/98 399/346/98
f 377/389/98 399/346/98 400/347/98
f 377/390/98 400/347/98 401/349/98
f 377/391/98 401/349/98 402/350/98
f 377/392/98 402/350/98 403/352/98
f 377/393/98 403/352/98 404/354/98
f 377/394/98 404/354/98 405/356/98
f 377/395/98 405/356/98 406/358/98
f 377/396/98 406/358/98 407/360/98
f 377/397/98 407/360/98 408/361/98
f 377/398/98 408/361/98 409/362/98
f 377/399/98 409/362/98 410/364/98
f 377/400/98 410/364/98 411/366/98
f 377/401/98 411/366/98 412/367/98
f 377/402/98 412/367/98 413/369/98
f 377/403/98 413/369/98 414/370/98
f 377/404/98 414/370/98 415/372/98
f 377/405/98 415/372/98 416/373/98
f 377/406/98 416/373/98 417/375/98
f 377/407/98 417/375/98 387/330/98
