# Blender 4.5.1 LTS
# www.blender.org
o Case-Cannon-1L3W
v -0.000000 1.000000 -0.100751
v 0.019656 1.000000 -0.098815
v 0.038556 1.000000 -0.093082
v 0.055974 1.000000 -0.083771
v 0.071242 1.000000 -0.071242
v 0.083771 1.000000 -0.055974
v 0.093082 1.000000 -0.038556
v 0.098815 1.000000 -0.019656
v 0.100751 1.000000 -0.000000
v 0.098815 1.000000 0.019656
v 0.093082 1.000000 0.038556
v 0.083771 1.000000 0.055974
v 0.071242 1.000000 0.071242
v 0.055974 1.000000 0.083771
v 0.038556 1.000000 0.093082
v 0.019656 1.000000 0.098815
v -0.000000 1.000000 0.100751
v -0.019656 1.000000 0.098815
v -0.038556 1.000000 0.093082
v -0.055974 1.000000 0.083771
v -0.071242 1.000000 0.071242
v -0.083771 1.000000 0.055974
v -0.093082 1.000000 0.038556
v -0.098815 1.000000 0.019656
v -0.100751 1.000000 -0.000000
v -0.098815 1.000000 -0.019656
v -0.093082 1.000000 -0.038556
v -0.083771 1.000000 -0.055974
v -0.071242 1.000000 -0.071242
v -0.055974 1.000000 -0.083771
v -0.038556 1.000000 -0.093082
v -0.019656 1.000000 -0.098815
v 0.000000 0.020000 -0.175000
v 0.034141 0.020000 -0.171637
v 0.066970 0.020000 -0.161679
v 0.097225 0.020000 -0.145507
v 0.123744 0.020000 -0.123744
v 0.145507 0.020000 -0.097225
v 0.161679 0.020000 -0.066970
v 0.171637 0.020000 -0.034141
v 0.175000 0.020000 0.000000
v 0.171637 0.020000 0.034141
v 0.161679 0.020000 0.066970
v 0.145507 0.020000 0.097225
v 0.123744 0.020000 0.123744
v 0.097225 0.020000 0.145507
v 0.066970 0.020000 0.161679
v 0.034141 0.020000 0.171637
v 0.000000 0.020000 0.175000
v -0.034141 0.020000 0.171637
v -0.066970 0.020000 0.161679
v -0.097225 0.020000 0.145507
v -0.123744 0.020000 0.123744
v -0.145507 0.020000 0.097225
v -0.161679 0.020000 0.066970
v -0.171637 0.020000 0.034141
v -0.175000 0.020000 0.000000
v -0.171637 0.020000 -0.034141
v -0.161679 0.020000 -0.066970
v -0.145507 0.020000 -0.097225
v -0.123744 0.020000 -0.123744
v -0.097225 0.020000 -0.145507
v -0.066970 0.020000 -0.161679
v -0.034141 0.020000 -0.171637
v 0.000000 0.000000 -0.115507
v 0.022534 0.000000 -0.113288
v 0.037067 0.020000 -0.186349
v 0.044203 0.000000 -0.106715
v 0.072710 0.020000 -0.175537
v 0.064172 0.000000 -0.096041
v 0.105558 0.020000 -0.157979
v 0.081676 0.000000 -0.081676
v 0.134350 0.020000 -0.134350
v 0.096041 0.000000 -0.064172
v 0.157979 0.020000 -0.105558
v 0.106715 0.000000 -0.044203
v 0.175537 0.020000 -0.072710
v 0.113288 0.000000 -0.022534
v 0.186349 0.020000 -0.037067
v 0.115507 0.000000 0.000000
v 0.190000 0.020000 0.000000
v 0.113288 0.000000 0.022534
v 0.186349 0.020000 0.037067
v 0.106715 0.000000 0.044203
v 0.175537 0.020000 0.072710
v 0.096041 0.000000 0.064172
v 0.157979 0.020000 0.105558
v 0.081676 0.000000 0.081676
v 0.134350 0.020000 0.134350
v 0.064172 0.000000 0.096041
v 0.105558 0.020000 0.157979
v 0.044203 0.000000 0.106715
v 0.072710 0.020000 0.175537
v 0.022534 0.000000 0.113288
v 0.037067 0.020000 0.186349
v 0.000000 0.000000 0.115507
v 0.000000 0.020000 0.190000
v -0.022534 0.000000 0.113288
v -0.037067 0.020000 0.186349
v -0.044203 0.000000 0.106715
v -0.072710 0.020000 0.175537
v -0.064172 0.000000 0.096041
v -0.105558 0.020000 0.157979
v -0.081676 0.000000 0.081676
v -0.134350 0.020000 0.134350
v -0.096041 0.000000 0.064172
v -0.157979 0.020000 0.105558
v -0.106715 0.000000 0.044203
v -0.175537 0.020000 0.072710
v -0.113288 0.000000 0.022534
v -0.186349 0.020000 0.037067
v -0.115507 0.000000 0.000000
v -0.190000 0.020000 0.000000
v -0.113288 0.000000 -0.022534
v -0.186349 0.020000 -0.037067
v -0.106715 0.000000 -0.044203
v -0.175537 0.020000 -0.072710
v -0.096041 0.000000 -0.064172
v -0.157979 0.020000 -0.105558
v -0.081676 0.000000 -0.081676
v -0.134350 0.020000 -0.134350
v -0.064172 0.000000 -0.096041
v -0.105558 0.020000 -0.157979
v -0.044203 0.000000 -0.106715
v -0.072710 0.020000 -0.175537
v -0.022534 0.000000 -0.113288
v -0.037067 0.020000 -0.186349
v 0.000000 0.020000 -0.190000
v 0.020606 1.000000 -0.103592
v -0.000000 1.000000 -0.105622
v 0.040420 1.000000 -0.097582
v 0.058680 1.000000 -0.087821
v 0.074686 1.000000 -0.074686
v 0.087821 1.000000 -0.058680
v 0.097582 1.000000 -0.040420
v 0.103592 1.000000 -0.020606
v 0.105622 1.000000 0.000000
v 0.103592 1.000000 0.020606
v 0.097582 1.000000 0.040420
v 0.087821 1.000000 0.058680
v 0.074686 1.000000 0.074686
v 0.058680 1.000000 0.087821
v 0.040420 1.000000 0.097582
v 0.020606 1.000000 0.103592
v -0.000000 1.000000 0.105622
v -0.020606 1.000000 0.103592
v -0.040420 1.000000 0.097582
v -0.058680 1.000000 0.087821
v -0.074686 1.000000 0.074686
v -0.087821 1.000000 0.058680
v -0.097582 1.000000 0.040420
v -0.103592 1.000000 0.020606
v -0.105622 1.000000 0.000000
v -0.103592 1.000000 -0.020606
v -0.097582 1.000000 -0.040420
v -0.087821 1.000000 -0.058680
v -0.074686 1.000000 -0.074686
v -0.058680 1.000000 -0.087821
v -0.040420 1.000000 -0.097582
v -0.020606 1.000000 -0.103592
v -0.000000 0.060000 -0.100751
v 0.019656 0.060000 -0.098815
v 0.038556 0.060000 -0.093082
v 0.055974 0.060000 -0.083771
v 0.071242 0.060000 -0.071242
v 0.083771 0.060000 -0.055974
v 0.093082 0.060000 -0.038556
v 0.098815 0.060000 -0.019656
v 0.100751 0.060000 -0.000000
v 0.098815 0.060000 0.019656
v 0.093082 0.060000 0.038556
v 0.083771 0.060000 0.055974
v 0.071242 0.060000 0.071242
v 0.055974 0.060000 0.083771
v 0.038556 0.060000 0.093082
v 0.019656 0.060000 0.098815
v -0.000000 0.060000 0.100751
v -0.019656 0.060000 0.098815
v -0.038556 0.060000 0.093082
v -0.055974 0.060000 0.083771
v -0.071242 0.060000 0.071242
v -0.083771 0.060000 0.055974
v -0.093082 0.060000 0.038556
v -0.098815 0.060000 0.019656
v -0.100751 0.060000 -0.000000
v -0.098815 0.060000 -0.019656
v -0.093082 0.060000 -0.038556
v -0.083771 0.060000 -0.055974
v -0.071242 0.060000 -0.071242
v -0.055974 0.060000 -0.083771
v -0.038556 0.060000 -0.093082
v -0.019656 0.060000 -0.098815
v 0.000000 0.810000 -0.175000
v 0.034141 0.810000 -0.171637
v 0.066970 0.810000 -0.161679
v 0.097225 0.810000 -0.145507
v 0.123744 0.810000 -0.123744
v 0.145507 0.810000 -0.097225
v 0.161679 0.810000 -0.066970
v 0.171637 0.810000 -0.034141
v 0.175000 0.810000 0.000000
v 0.171637 0.810000 0.034141
v 0.161679 0.810000 0.066970
v 0.145507 0.810000 0.097225
v 0.123744 0.810000 0.123744
v 0.097225 0.810000 0.145507
v 0.066970 0.810000 0.161679
v 0.034141 0.810000 0.171637
v 0.000000 0.810000 0.175000
v -0.034141 0.810000 0.171637
v -0.066970 0.810000 0.161679
v -0.097225 0.810000 0.145507
v -0.123744 0.810000 0.123744
v -0.145507 0.810000 0.097225
v -0.161679 0.810000 0.066970
v -0.171637 0.810000 0.034141
v -0.175000 0.810000 0.000000
v -0.171637 0.810000 -0.034141
v -0.161679 0.810000 -0.066970
v -0.145507 0.810000 -0.097225
v -0.123744 0.810000 -0.123744
v -0.097225 0.810000 -0.145507
v -0.066970 0.810000 -0.161679
v -0.034141 0.810000 -0.171637
v 0.034141 0.790000 -0.171637
v 0.066970 0.790000 -0.161679
v 0.097225 0.790000 -0.145507
v 0.123744 0.790000 -0.123744
v 0.145507 0.790000 -0.097225
v 0.161679 0.790000 -0.066970
v 0.171637 0.790000 -0.034141
v 0.175000 0.790000 0.000000
v 0.171637 0.790000 0.034141
v 0.161679 0.790000 0.066970
v 0.145507 0.790000 0.097225
v 0.123744 0.790000 0.123744
v 0.097225 0.790000 0.145507
v 0.066970 0.790000 0.161679
v 0.034141 0.790000 0.171637
v 0.000000 0.790000 0.175000
v -0.034141 0.790000 0.171637
v -0.066970 0.790000 0.161679
v -0.097225 0.790000 0.145507
v -0.123744 0.790000 0.123744
v -0.145507 0.790000 0.097225
v -0.161679 0.790000 0.066970
v -0.171637 0.790000 0.034141
v -0.175000 0.790000 0.000000
v -0.171637 0.790000 -0.034141
v -0.161679 0.790000 -0.066970
v -0.145507 0.790000 -0.097225
v -0.123744 0.790000 -0.123744
v -0.097225 0.790000 -0.145507
v -0.066970 0.790000 -0.161679
v -0.034141 0.790000 -0.171637
v 0.000000 0.790000 -0.175000
v 0.000000 0.927500 -0.106004
v 0.020680 0.927500 -0.103967
v 0.040566 0.927500 -0.097935
v 0.058893 0.927500 -0.088139
v 0.074956 0.927500 -0.074956
v 0.088139 0.927500 -0.058893
v 0.097935 0.927500 -0.040566
v 0.103967 0.927500 -0.020680
v 0.106004 0.927500 -0.000000
v 0.103967 0.927500 0.020680
v 0.097935 0.927500 0.040566
v 0.088139 0.927500 0.058893
v 0.074956 0.927500 0.074956
v 0.058893 0.927500 0.088139
v 0.040566 0.927500 0.097935
v 0.020680 0.927500 0.103967
v 0.000000 0.927500 0.106004
v -0.020680 0.927500 0.103967
v -0.040566 0.927500 0.097935
v -0.058893 0.927500 0.088139
v -0.074956 0.927500 0.074956
v -0.088139 0.927500 0.058893
v -0.097935 0.927500 0.040566
v -0.103967 0.927500 0.020680
v -0.106004 0.927500 -0.000000
v -0.103967 0.927500 -0.020680
v -0.097935 0.927500 -0.040566
v -0.088139 0.927500 -0.058893
v -0.074956 0.927500 -0.074956
v -0.058893 0.927500 -0.088139
v -0.040566 0.927500 -0.097935
v -0.020680 0.927500 -0.103967
v 0.000000 0.000000 -0.190000
v 0.037067 0.000000 -0.186349
v 0.072710 0.000000 -0.175537
v 0.105558 0.000000 -0.157979
v 0.134350 0.000000 -0.134350
v 0.157979 0.000000 -0.105558
v 0.175537 0.000000 -0.072710
v 0.186349 0.000000 -0.037067
v 0.190000 0.000000 0.000000
v 0.186349 0.000000 0.037067
v 0.175537 0.000000 0.072710
v 0.157979 0.000000 0.105558
v 0.134350 0.000000 0.134350
v 0.105558 0.000000 0.157979
v 0.072710 0.000000 0.175537
v 0.037067 0.000000 0.186349
v 0.000000 0.000000 0.190000
v -0.037067 0.000000 0.186349
v -0.072710 0.000000 0.175537
v -0.105558 0.000000 0.157979
v -0.134350 0.000000 0.134350
v -0.157979 0.000000 0.105558
v -0.175537 0.000000 0.072710
v -0.186349 0.000000 0.037067
v -0.190000 0.000000 0.000000
v -0.186349 0.000000 -0.037067
v -0.175537 0.000000 -0.072710
v -0.157979 0.000000 -0.105558
v -0.134350 0.000000 -0.134350
v -0.105558 0.000000 -0.157979
v -0.072710 0.000000 -0.175537
v -0.037067 0.000000 -0.186349
v 0.096255 0.010000 -0.039870
v 0.104185 0.010000 0.000000
v 0.073670 0.010000 0.073670
v 0.000000 0.010000 0.104185
v -0.057882 0.010000 0.086627
v -0.086627 0.010000 0.057882
v -0.102183 0.010000 0.020326
v -0.104185 0.010000 0.000000
v -0.096255 0.010000 -0.039870
v 0.000000 0.010000 -0.115507
v 0.022534 0.010000 -0.113288
v 0.044203 0.010000 -0.106715
v 0.064172 0.010000 -0.096041
v 0.081676 0.010000 -0.081676
v 0.096041 0.010000 -0.064172
v 0.106715 0.010000 -0.044203
v 0.113288 0.010000 -0.022534
v 0.115507 0.010000 0.000000
v 0.113288 0.010000 0.022534
v 0.106715 0.010000 0.044203
v 0.096041 0.010000 0.064172
v 0.081676 0.010000 0.081676
v 0.064172 0.010000 0.096041
v 0.044203 0.010000 0.106715
v 0.022534 0.010000 0.113288
v 0.000000 0.010000 0.115507
v -0.022534 0.010000 0.113288
v -0.044203 0.010000 0.106715
v -0.064172 0.010000 0.096041
v -0.081676 0.010000 0.081676
v -0.096041 0.010000 0.064172
v -0.106715 0.010000 0.044203
v -0.113288 0.010000 0.022534
v -0.115507 0.010000 0.000000
v -0.113288 0.010000 -0.022534
v -0.106715 0.010000 -0.044203
v -0.096041 0.010000 -0.064172
v -0.081676 0.010000 -0.081676
v -0.064172 0.010000 -0.096041
v -0.044203 0.010000 -0.106715
v -0.022534 0.010000 -0.113288
v 0.000000 0.010000 -0.104185
v 0.020326 0.010000 -0.102183
v 0.039870 0.010000 -0.096255
v 0.057882 0.010000 -0.086627
v 0.073670 0.010000 -0.073670
v 0.086627 0.010000 -0.057882
v 0.102183 0.010000 -0.020326
v 0.102183 0.010000 0.020326
v 0.096255 0.010000 0.039870
v 0.086627 0.010000 0.057882
v 0.057882 0.010000 0.086627
v 0.039870 0.010000 0.096255
v 0.020326 0.010000 0.102183
v -0.000000 0.000000 0.000000
v -0.020326 0.010000 0.102183
v -0.039870 0.010000 0.096255
v -0.073670 0.010000 0.073670
v -0.096255 0.010000 0.039870
v -0.102183 0.010000 -0.020326
v -0.086627 0.010000 -0.057882
v -0.073670 0.010000 -0.073670
v -0.057882 0.010000 -0.086627
v -0.039870 0.010000 -0.096255
v -0.020326 0.010000 -0.102183
v 0.018365 0.000000 -0.092328
v 0.000000 0.000000 -0.094137
v 0.036025 0.000000 -0.086971
v 0.052300 0.000000 -0.078272
v 0.066565 0.000000 -0.066565
v 0.078272 0.000000 -0.052300
v 0.086971 0.000000 -0.036025
v 0.092328 0.000000 -0.018365
v 0.094137 0.000000 0.000000
v 0.092328 0.000000 0.018365
v 0.086971 0.000000 0.036025
v 0.078272 0.000000 0.052300
v 0.066565 0.000000 0.066565
v 0.052300 0.000000 0.078272
v 0.036025 0.000000 0.086971
v 0.018365 0.000000 0.092328
v 0.000000 0.000000 0.094137
v -0.018365 0.000000 0.092328
v -0.036025 0.000000 0.086971
v -0.052300 0.000000 0.078272
v -0.066565 0.000000 0.066565
v -0.078272 0.000000 0.052300
v -0.086971 0.000000 0.036025
v -0.092328 0.000000 0.018365
v -0.094137 0.000000 0.000000
v -0.092328 0.000000 -0.018365
v -0.086971 0.000000 -0.036025
v -0.078272 0.000000 -0.052300
v -0.066565 0.000000 -0.066565
v -0.052300 0.000000 -0.078272
v -0.036025 0.000000 -0.086971
v -0.018365 0.000000 -0.092328
vn -0.0000 0.0053 -1.0000
vn 0.1951 0.0053 -0.9808
vn 0.3827 0.0053 -0.9239
vn 0.5556 0.0053 -0.8315
vn 0.7071 0.0053 -0.7071
vn 0.8315 0.0053 -0.5556
vn 0.9239 0.0053 -0.3827
vn 0.9808 0.0053 -0.1951
vn 1.0000 0.0053 -0.0000
vn 0.9808 0.0053 0.1951
vn 0.9239 0.0053 0.3827
vn 0.8315 0.0053 0.5556
vn 0.7071 0.0053 0.7071
vn 0.5556 0.0053 0.8315
vn 0.3827 0.0053 0.9239
vn 0.1951 0.0053 0.9808
vn -0.0000 0.0053 1.0000
vn -0.1951 0.0053 0.9808
vn -0.3827 0.0053 0.9239
vn -0.5556 0.0053 0.8315
vn -0.7071 0.0053 0.7071
vn -0.8315 0.0053 0.5556
vn -0.9239 0.0053 0.3827
vn -0.9808 0.0053 0.1951
vn -1.0000 0.0053 -0.0000
vn -0.9808 0.0053 -0.1951
vn -0.9239 0.0053 -0.3827
vn -0.8315 0.0053 -0.5556
vn -0.7071 0.0053 -0.7071
vn -0.5556 0.0053 -0.8315
vn -0.3827 0.0053 -0.9239
vn -0.8315 -0.0000 0.5556
vn -0.7071 -0.0000 0.7071
vn -0.1951 0.0053 -0.9808
vn -0.0000 1.0000 -0.0000
vn -0.1951 -0.0000 -0.9808
vn -0.0000 -0.0000 -1.0000
vn -0.3827 -0.0000 -0.9239
vn -0.5556 -0.0000 -0.8315
vn -0.7071 -0.0000 -0.7071
vn -0.8315 -0.0000 -0.5556
vn -0.9239 -0.0000 -0.3827
vn -0.9808 -0.0000 -0.1951
vn -1.0000 -0.0000 -0.0000
vn -0.9808 -0.0000 0.1951
vn -0.9239 -0.0000 0.3827
vn -0.5556 -0.0000 0.8315
vn -0.3827 -0.0000 0.9239
vn -0.1951 -0.0000 0.9808
vn -0.0000 -0.0000 1.0000
vn 0.1951 -0.0000 0.9808
vn 0.3827 -0.0000 0.9239
vn 0.5556 -0.0000 0.8315
vn 0.7071 -0.0000 0.7071
vn 0.8315 -0.0000 0.5556
vn 0.9239 -0.0000 0.3827
vn 0.9808 -0.0000 0.1951
vn 1.0000 -0.0000 -0.0000
vn 0.9808 -0.0000 -0.1951
vn 0.9239 -0.0000 -0.3827
vn 0.8315 -0.0000 -0.5556
vn 0.7071 -0.0000 -0.7071
vn 0.5556 -0.0000 -0.8315
vn 0.3827 -0.0000 -0.9239
vn 0.1951 -0.0000 -0.9808
vn -0.1682 0.5064 -0.8458
vn -0.0000 0.5064 -0.8623
vn -0.3300 0.5064 -0.7967
vn -0.4791 0.5064 -0.7170
vn -0.6098 0.5064 -0.6098
vn -0.7170 0.5064 -0.4791
vn -0.7967 0.5064 -0.3300
vn -0.8458 0.5064 -0.1682
vn -0.8623 0.5064 -0.0000
vn -0.8458 0.5064 0.1682
vn -0.7967 0.5064 0.3300
vn -0.7170 0.5064 0.4791
vn -0.6098 0.5064 0.6098
vn -0.4791 0.5064 0.7170
vn -0.3300 0.5064 0.7967
vn -0.1682 0.5064 0.8458
vn -0.0000 0.5064 0.8623
vn 0.1682 0.5064 0.8458
vn 0.3300 0.5064 0.7967
vn 0.4791 0.5064 0.7170
vn 0.6098 0.5064 0.6098
vn 0.7170 0.5064 0.4791
vn 0.7967 0.5064 0.3300
vn 0.8458 0.5064 0.1682
vn 0.8623 0.5064 -0.0000
vn 0.8458 0.5064 -0.1682
vn 0.7967 0.5064 -0.3300
vn 0.7170 0.5064 -0.4791
vn 0.6098 0.5064 -0.6098
vn 0.4791 0.5064 -0.7170
vn 0.3300 0.5064 -0.7967
vn 0.1682 0.5064 -0.8458
vn -0.0000 -1.0000 -0.0000
vn -0.0000 -0.7088 -0.7054
vn 0.1376 -0.7088 -0.6918
vn 0.2699 -0.7088 -0.6517
vn 0.3919 -0.7088 -0.5865
vn 0.4988 -0.7088 -0.4988
vn 0.5865 -0.7088 -0.3919
vn 0.6517 -0.7088 -0.2699
vn 0.6918 -0.7088 -0.1376
vn 0.7054 -0.7088 -0.0000
vn 0.6918 -0.7088 0.1376
vn 0.6517 -0.7088 0.2699
vn 0.5865 -0.7088 0.3919
vn 0.4988 -0.7088 0.4988
vn 0.3919 -0.7088 0.5865
vn 0.2699 -0.7088 0.6517
vn 0.1376 -0.7088 0.6918
vn -0.0000 -0.7088 0.7054
vn -0.1376 -0.7088 0.6918
vn -0.2699 -0.7088 0.6517
vn -0.3919 -0.7088 0.5865
vn -0.4988 -0.7088 0.4988
vn -0.5865 -0.7088 0.3919
vn -0.6517 -0.7088 0.2699
vn -0.6918 -0.7088 0.1376
vn -0.7054 -0.7088 -0.0000
vn -0.6918 -0.7088 -0.1376
vn -0.6517 -0.7088 -0.2699
vn -0.5865 -0.7088 -0.3919
vn -0.4988 -0.7088 -0.4988
vn -0.3919 -0.7088 -0.5865
vn -0.2699 -0.7088 -0.6517
vn -0.1376 -0.7088 -0.6918
vt 1.000000 0.987500
vt 1.000000 1.000000
vt 0.968750 1.000000
vt 0.968750 0.987500
vt 0.937500 1.000000
vt 0.937500 0.987500
vt 0.906250 1.000000
vt 0.906250 0.987500
vt 0.875000 1.000000
vt 0.875000 0.987500
vt 0.843750 1.000000
vt 0.843750 0.987500
vt 0.812500 1.000000
vt 0.812500 0.987500
vt 0.781250 1.000000
vt 0.781250 0.987500
vt 0.750000 1.000000
vt 0.750000 0.987500
vt 0.718750 1.000000
vt 0.718750 0.987500
vt 0.687500 1.000000
vt 0.687500 0.987500
vt 0.656250 1.000000
vt 0.656250 0.987500
vt 0.625000 1.000000
vt 0.625000 0.987500
vt 0.593750 1.000000
vt 0.593750 0.987500
vt 0.562500 1.000000
vt 0.562500 0.987500
vt 0.531250 1.000000
vt 0.531250 0.987500
vt 0.500000 1.000000
vt 0.500000 0.987500
vt 0.468750 1.000000
vt 0.468750 0.987500
vt 0.437500 1.000000
vt 0.437500 0.987500
vt 0.406250 1.000000
vt 0.406250 0.987500
vt 0.375000 1.000000
vt 0.375000 0.987500
vt 0.343750 1.000000
vt 0.343750 0.987500
vt 0.312500 1.000000
vt 0.312500 0.987500
vt 0.281250 1.000000
vt 0.281250 0.987500
vt 0.250000 1.000000
vt 0.250000 0.987500
vt 0.218750 1.000000
vt 0.218750 0.987500
vt 0.187500 1.000000
vt 0.187500 0.987500
vt 0.156250 1.000000
vt 0.156250 0.987500
vt 0.125000 1.000000
vt 0.125000 0.987500
vt 0.093750 1.000000
vt 0.093750 0.987500
vt 0.062500 1.000000
vt 0.062500 0.987500
vt 0.366052 0.327543
vt 0.348694 0.348694
vt 0.031250 1.000000
vt 0.031250 0.987500
vt 0.000000 1.000000
vt 0.000000 0.987500
vt 0.750000 0.510000
vt 0.718750 0.510000
vt 0.687500 0.510000
vt 0.656250 0.510000
vt 0.625000 0.510000
vt 0.593750 0.510000
vt 0.562500 0.510000
vt 0.531250 0.510000
vt 0.500000 0.510000
vt 0.468750 0.510000
vt 0.437500 0.510000
vt 0.406250 0.510000
vt 0.375000 0.510000
vt 0.343750 0.510000
vt 0.312500 0.510000
vt 0.031250 0.500000
vt 0.031250 0.510000
vt 0.000000 0.510000
vt 0.000000 0.500000
vt 0.062500 0.500000
vt 0.062500 0.510000
vt 0.093750 0.500000
vt 0.093750 0.510000
vt 0.125000 0.500000
vt 0.125000 0.510000
vt 0.156250 0.500000
vt 0.156250 0.510000
vt 0.187500 0.500000
vt 0.187500 0.510000
vt 0.218750 0.500000
vt 0.218750 0.510000
vt 0.250000 0.500000
vt 0.250000 0.510000
vt 0.281250 0.500000
vt 0.281250 0.510000
vt 0.312500 0.500000
vt 0.343750 0.500000
vt 0.375000 0.500000
vt 0.406250 0.500000
vt 0.437500 0.500000
vt 0.468750 0.500000
vt 0.500000 0.500000
vt 0.531250 0.500000
vt 0.562500 0.500000
vt 0.593750 0.500000
vt 0.625000 0.500000
vt 0.656250 0.500000
vt 0.687500 0.500000
vt 0.718750 0.500000
vt 0.750000 0.500000
vt 0.781250 0.500000
vt 0.781250 0.510000
vt 0.812500 0.500000
vt 0.812500 0.510000
vt 0.843750 0.500000
vt 0.843750 0.510000
vt 0.875000 0.500000
vt 0.875000 0.510000
vt 0.906250 0.500000
vt 0.906250 0.510000
vt 0.937500 0.500000
vt 0.937500 0.510000
vt 0.968750 0.500000
vt 0.968750 0.510000
vt 1.000000 0.500000
vt 1.000000 0.510000
vt 0.341698 0.500000
vt 0.322442 0.500000
vt 0.250000 0.389575
vt 0.277230 0.386893
vt 0.296822 0.485388
vt 0.250000 0.490000
vt 0.303413 0.378950
vt 0.341844 0.471731
vt 0.327543 0.366052
vt 0.383337 0.449553
vt 0.419706 0.419706
vt 0.449553 0.383337
vt 0.378950 0.303413
vt 0.471731 0.341844
vt 0.386893 0.277230
vt 0.485388 0.296822
vt 0.389575 0.250000
vt 0.490000 0.250000
vt 0.386893 0.222770
vt 0.485388 0.203178
vt 0.378950 0.196587
vt 0.471731 0.158156
vt 0.366052 0.172457
vt 0.449553 0.116663
vt 0.348694 0.151306
vt 0.419706 0.080294
vt 0.327544 0.133948
vt 0.383337 0.050447
vt 0.303413 0.121050
vt 0.341844 0.028269
vt 0.277230 0.113107
vt 0.296822 0.014612
vt 0.250000 0.110425
vt 0.250000 0.010000
vt 0.222770 0.113107
vt 0.203178 0.014612
vt 0.196587 0.121050
vt 0.158156 0.028269
vt 0.172457 0.133948
vt 0.116663 0.050447
vt 0.151306 0.151306
vt 0.080294 0.080294
vt 0.133948 0.172457
vt 0.050447 0.116663
vt 0.121050 0.196587
vt 0.028269 0.158156
vt 0.113107 0.222770
vt 0.014612 0.203178
vt 0.110425 0.250000
vt 0.010000 0.250000
vt 0.113107 0.277230
vt 0.014612 0.296822
vt 0.121050 0.303413
vt 0.028269 0.341844
vt 0.133948 0.327544
vt 0.050447 0.383337
vt 0.151306 0.348694
vt 0.080294 0.419706
vt 0.172457 0.366052
vt 0.116663 0.449553
vt 0.196587 0.378950
vt 0.158156 0.471731
vt 0.222770 0.386893
vt 0.203178 0.485388
vt 0.031250 0.940000
vt 0.031250 0.950000
vt 0.000000 0.950000
vt 0.000000 0.940000
vt 0.062500 0.940000
vt 0.062500 0.950000
vt 0.093750 0.940000
vt 0.093750 0.950000
vt 0.125000 0.940000
vt 0.125000 0.950000
vt 0.156250 0.940000
vt 0.156250 0.950000
vt 0.187500 0.940000
vt 0.187500 0.950000
vt 0.218750 0.940000
vt 0.218750 0.950000
vt 0.250000 0.940000
vt 0.250000 0.950000
vt 0.281250 0.940000
vt 0.281250 0.950000
vt 0.312500 0.940000
vt 0.312500 0.950000
vt 0.343750 0.940000
vt 0.343750 0.950000
vt 0.375000 0.940000
vt 0.375000 0.950000
vt 0.406250 0.940000
vt 0.406250 0.950000
vt 0.437500 0.940000
vt 0.437500 0.950000
vt 0.468750 0.940000
vt 0.468750 0.950000
vt 0.500000 0.940000
vt 0.500000 0.950000
vt 0.531250 0.940000
vt 0.531250 0.950000
vt 0.562500 0.940000
vt 0.562500 0.950000
vt 0.593750 0.940000
vt 0.593750 0.950000
vt 0.625000 0.940000
vt 0.625000 0.950000
vt 0.656250 0.940000
vt 0.656250 0.950000
vt 0.687500 0.940000
vt 0.687500 0.950000
vt 0.718750 0.940000
vt 0.718750 0.950000
vt 0.750000 0.940000
vt 0.750000 0.950000
vt 0.781250 0.940000
vt 0.781250 0.950000
vt 0.812500 0.940000
vt 0.812500 0.950000
vt 0.843750 0.940000
vt 0.843750 0.950000
vt 0.875000 0.940000
vt 0.875000 0.950000
vt 0.906250 0.940000
vt 0.906250 0.950000
vt 0.937500 0.940000
vt 0.937500 0.950000
vt 0.968750 0.940000
vt 0.968750 0.950000
vt 1.000000 0.940000
vt 1.000000 0.950000
vt 0.538214 0.500000
vt 0.430536 0.500000
vt 0.624859 0.500000
vt 0.673315 0.500000
vt 0.693357 0.500000
vt 0.696813 0.500000
vt 0.690806 0.500000
vt 0.679149 0.500000
vt 0.663917 0.500000
vt 0.646308 0.500000
vt 0.627052 0.500000
vt 0.606624 0.500000
vt 0.585351 0.500000
vt 0.563468 0.500000
vt 0.541154 0.500000
vt 0.518552 0.500000
vt 0.495785 0.500000
vt 0.472965 0.500000
vt 0.450198 0.500000
vt 0.427596 0.500000
vt 0.405282 0.500000
vt 0.383399 0.500000
vt 0.362126 0.500000
vt 0.304833 0.500000
vt 0.289601 0.500000
vt 0.277944 0.500000
vt 0.271937 0.500000
vt 0.275393 0.500000
vt 0.295435 0.500000
vt 0.343891 0.500000
vt 0.527476 0.500000
vt 0.441274 0.500000
vt 0.600271 0.500000
vt 0.645754 0.500000
vt 0.667484 0.500000
vt 0.673638 0.500000
vt 0.670323 0.500000
vt 0.661162 0.500000
vt 0.648234 0.500000
vt 0.632768 0.500000
vt 0.615529 0.500000
vt 0.597020 0.500000
vt 0.577588 0.500000
vt 0.557486 0.500000
vt 0.536910 0.500000
vt 0.516017 0.500000
vt 0.494942 0.500000
vt 0.473808 0.500000
vt 0.452733 0.500000
vt 0.431840 0.500000
vt 0.411264 0.500000
vt 0.391162 0.500000
vt 0.371730 0.500000
vt 0.353221 0.500000
vt 0.335982 0.500000
vt 0.320516 0.500000
vt 0.307588 0.500000
vt 0.298427 0.500000
vt 0.295112 0.500000
vt 0.301267 0.500000
vt 0.322996 0.500000
vt 0.368479 0.500000
vt 0.441274 0.500000
vt 0.527477 0.500000
vt 0.519751 0.500000
vt 0.449000 0.500000
vt 0.600271 0.500000
vt 0.581398 0.500000
vt 0.645754 0.500000
vt 0.623003 0.500000
vt 0.645112 0.500000
vt 0.653105 0.500000
vt 0.670323 0.500000
vt 0.651929 0.500000
vt 0.661162 0.500000
vt 0.644876 0.500000
vt 0.648234 0.500000
vt 0.633953 0.500000
vt 0.632768 0.500000
vt 0.620389 0.500000
vt 0.615529 0.500000
vt 0.604961 0.500000
vt 0.597020 0.500000
vt 0.588190 0.500000
vt 0.570437 0.500000
vt 0.557486 0.500000
vt 0.551970 0.500000
vt 0.536911 0.500000
vt 0.532993 0.500000
vt 0.513677 0.500000
vt 0.494942 0.500000
vt 0.494164 0.500000
vt 0.473808 0.500000
vt 0.474587 0.500000
vt 0.452733 0.500000
vt 0.455074 0.500000
vt 0.431840 0.500000
vt 0.435757 0.500000
vt 0.416780 0.500000
vt 0.398313 0.500000
vt 0.371730 0.500000
vt 0.380560 0.500000
vt 0.353221 0.500000
vt 0.363788 0.500000
vt 0.348361 0.500000
vt 0.334797 0.500000
vt 0.307588 0.500000
vt 0.323874 0.500000
vt 0.298427 0.500000
vt 0.316821 0.500000
vt 0.295112 0.500000
vt 0.315645 0.500000
vt 0.301267 0.500000
vt 0.323638 0.500000
vt 0.322996 0.500000
vt 0.345747 0.500000
vt 0.368479 0.500000
vt 0.387352 0.500000
vt 0.461769 0.500000
vt 0.506981 0.500000
vt 0.548260 0.500000
vt 0.579823 0.500000
vt 0.600045 0.500000
vt 0.610306 0.500000
vt 0.612957 0.500000
vt 0.610127 0.500000
vt 0.603401 0.500000
vt 0.593882 0.500000
vt 0.582332 0.500000
vt 0.569286 0.500000
vt 0.555133 0.500000
vt 0.540165 0.500000
vt 0.524613 0.500000
vt 0.508668 0.500000
vt 0.492498 0.500000
vt 0.476253 0.500000
vt 0.460081 0.500000
vt 0.444137 0.500000
vt 0.428585 0.500000
vt 0.413617 0.500000
vt 0.399464 0.500000
vt 0.386418 0.500000
vt 0.374868 0.500000
vt 0.365349 0.500000
vt 0.358623 0.500000
vt 0.355792 0.500000
vt 0.358444 0.500000
vt 0.368705 0.500000
vt 0.388927 0.500000
vt 0.420490 0.500000
s 1
f 257/1/1 130/2/1 129/3/2 258/4/2
f 258/4/2 129/3/2 131/5/3 259/6/3
f 259/6/3 131/5/3 132/7/4 260/8/4
f 260/8/4 132/7/4 133/9/5 261/10/5
f 261/10/5 133/9/5 134/11/6 262/12/6
f 262/12/6 134/11/6 135/13/7 263/14/7
f 263/14/7 135/13/7 136/15/8 264/16/8
f 264/16/8 136/15/8 137/17/9 265/18/9
f 265/18/9 137/17/9 138/19/10 266/20/10
f 266/20/10 138/19/10 139/21/11 267/22/11
f 267/22/11 139/21/11 140/23/12 268/24/12
f 268/24/12 140/23/12 141/25/13 269/26/13
f 269/26/13 141/25/13 142/27/14 270/28/14
f 270/28/14 142/27/14 143/29/15 271/30/15
f 271/30/15 143/29/15 144/31/16 272/32/16
f 272/32/16 144/31/16 145/33/17 273/34/17
f 273/34/17 145/33/17 146/35/18 274/36/18
f 274/36/18 146/35/18 147/37/19 275/38/19
f 275/38/19 147/37/19 148/39/20 276/40/20
f 276/40/20 148/39/20 149/41/21 277/42/21
f 277/42/21 149/41/21 150/43/22 278/44/22
f 278/44/22 150/43/22 151/45/23 279/46/23
f 279/46/23 151/45/23 152/47/24 280/48/24
f 280/48/24 152/47/24 153/49/25 281/50/25
f 281/50/25 153/49/25 154/51/26 282/52/26
f 282/52/26 154/51/26 155/53/27 283/54/27
f 283/54/27 155/53/27 156/55/28 284/56/28
f 284/56/28 156/55/28 157/57/29 285/58/29
f 285/58/29 157/57/29 158/59/30 286/60/30
f 286/60/30 158/59/30 159/61/31 287/62/31
f 6/63/32 5/64/33 165/64/33 166/63/32
f 287/62/31 159/61/31 160/65/34 288/66/34
f 288/66/34 160/65/34 130/67/1 257/68/1
f 41/69/35 42/70/35 83/70/35 81/69/35
f 42/70/35 43/71/35 85/71/35 83/70/35
f 43/71/35 44/72/35 87/72/35 85/71/35
f 44/72/35 45/73/35 89/73/35 87/72/35
f 45/73/35 46/74/35 91/74/35 89/73/35
f 46/74/35 47/75/35 93/75/35 91/74/35
f 47/75/35 48/76/35 95/76/35 93/75/35
f 48/76/35 49/77/35 97/77/35 95/76/35
f 49/77/35 50/78/35 99/78/35 97/77/35
f 50/78/35 51/79/35 101/79/35 99/78/35
f 51/79/35 52/80/35 103/80/35 101/79/35
f 52/80/35 53/81/35 105/81/35 103/80/35
f 53/81/35 54/82/35 107/82/35 105/81/35
f 54/82/35 55/83/35 109/83/35 107/82/35
f 320/84/36 127/85/36 128/86/37 289/87/37
f 319/88/38 125/89/38 127/85/36 320/84/36
f 318/90/39 123/91/39 125/89/38 319/88/38
f 317/92/40 121/93/40 123/91/39 318/90/39
f 316/94/41 119/95/41 121/93/40 317/92/40
f 315/96/42 117/97/42 119/95/41 316/94/41
f 314/98/43 115/99/43 117/97/42 315/96/42
f 313/100/44 113/101/44 115/99/43 314/98/43
f 312/102/45 111/103/45 113/101/44 313/100/44
f 311/104/46 109/83/46 111/103/45 312/102/45
f 310/105/32 107/82/32 109/83/46 311/104/46
f 309/106/33 105/81/33 107/82/32 310/105/32
f 308/107/47 103/80/47 105/81/33 309/106/33
f 307/108/48 101/79/48 103/80/47 308/107/47
f 306/109/49 99/78/49 101/79/48 307/108/48
f 305/110/50 97/77/50 99/78/49 306/109/49
f 304/111/51 95/76/51 97/77/50 305/110/50
f 303/112/52 93/75/52 95/76/51 304/111/51
f 302/113/53 91/74/53 93/75/52 303/112/52
f 301/114/54 89/73/54 91/74/53 302/113/53
f 300/115/55 87/72/55 89/73/54 301/114/54
f 299/116/56 85/71/56 87/72/55 300/115/55
f 298/117/57 83/70/57 85/71/56 299/116/56
f 297/118/58 81/69/58 83/70/57 298/117/57
f 296/119/59 79/120/59 81/69/58 297/118/58
f 295/121/60 77/122/60 79/120/59 296/119/59
f 294/123/61 75/124/61 77/122/60 295/121/60
f 293/125/62 73/126/62 75/124/61 294/123/61
f 292/127/63 71/128/63 73/126/62 293/125/62
f 291/129/64 69/130/64 71/128/63 292/127/63
f 290/131/65 67/132/65 69/130/64 291/129/64
f 289/133/37 128/134/37 67/132/65 290/131/65
f 40/120/35 41/69/35 81/69/35 79/120/35
f 39/122/35 40/120/35 79/120/35 77/122/35
f 38/124/35 39/122/35 77/122/35 75/124/35
f 64/85/35 33/86/35 128/86/35 127/85/35
f 37/126/35 38/124/35 75/124/35 73/126/35
f 63/89/35 64/85/35 127/85/35 125/89/35
f 36/128/35 37/126/35 73/126/35 71/128/35
f 62/91/35 63/89/35 125/89/35 123/91/35
f 35/130/35 36/128/35 71/128/35 69/130/35
f 61/93/35 62/91/35 123/91/35 121/93/35
f 34/132/35 35/130/35 69/130/35 67/132/35
f 60/95/35 61/93/35 121/93/35 119/95/35
f 33/134/35 34/132/35 67/132/35 128/134/35
f 59/97/35 60/95/35 119/95/35 117/97/35
f 58/99/35 59/97/35 117/97/35 115/99/35
f 110/135/59 112/136/58 354/136/58 353/135/59
f 57/101/35 58/99/35 115/99/35 113/101/35
f 56/103/35 57/101/35 113/101/35 111/103/35
f 55/83/35 56/103/35 111/103/35 109/83/35
f 1/137/35 2/138/35 129/139/35 130/140/35
f 2/138/35 3/141/35 131/142/35 129/139/35
f 3/141/35 4/143/35 132/144/35 131/142/35
f 4/143/35 5/64/35 133/145/35 132/144/35
f 5/64/35 6/63/35 134/146/35 133/145/35
f 6/63/35 7/147/35 135/148/35 134/146/35
f 7/147/35 8/149/35 136/150/35 135/148/35
f 8/149/35 9/151/35 137/152/35 136/150/35
f 9/151/35 10/153/35 138/154/35 137/152/35
f 10/153/35 11/155/35 139/156/35 138/154/35
f 11/155/35 12/157/35 140/158/35 139/156/35
f 12/157/35 13/159/35 141/160/35 140/158/35
f 13/159/35 14/161/35 142/162/35 141/160/35
f 14/161/35 15/163/35 143/164/35 142/162/35
f 15/163/35 16/165/35 144/166/35 143/164/35
f 16/165/35 17/167/35 145/168/35 144/166/35
f 17/167/35 18/169/35 146/170/35 145/168/35
f 18/169/35 19/171/35 147/172/35 146/170/35
f 19/171/35 20/173/35 148/174/35 147/172/35
f 20/173/35 21/175/35 149/176/35 148/174/35
f 21/175/35 22/177/35 150/178/35 149/176/35
f 22/177/35 23/179/35 151/180/35 150/178/35
f 23/179/35 24/181/35 152/182/35 151/180/35
f 24/181/35 25/183/35 153/184/35 152/182/35
f 25/183/35 26/185/35 154/186/35 153/184/35
f 26/185/35 27/187/35 155/188/35 154/186/35
f 27/187/35 28/189/35 156/190/35 155/188/35
f 28/189/35 29/191/35 157/192/35 156/190/35
f 29/191/35 30/193/35 158/194/35 157/192/35
f 30/193/35 31/195/35 159/196/35 158/194/35
f 31/195/35 32/197/35 160/198/35 159/196/35
f 32/197/35 1/137/35 130/140/35 160/198/35
f 162/138/35 161/137/35 192/197/35 191/195/35 190/193/35 189/191/35 188/189/35 187/187/35 186/185/35 185/183/35 184/181/35 183/179/35 182/177/35 181/175/35 180/173/35 179/171/35 178/169/35 177/167/35 176/165/35 175/163/35 174/161/35 173/159/35 172/157/35 171/155/35 170/153/35 169/151/35 168/149/35 167/147/35 166/63/35 165/64/35 164/143/35 163/141/35
f 1/137/50 32/197/51 192/197/51 161/137/50
f 20/173/63 19/171/64 179/171/64 180/173/63
f 7/147/46 6/63/32 166/63/32 167/147/46
f 21/175/62 20/173/63 180/173/63 181/175/62
f 8/149/45 7/147/46 167/147/46 168/149/45
f 22/177/61 21/175/62 181/175/62 182/177/61
f 9/151/44 8/149/45 168/149/45 169/151/44
f 23/179/60 22/177/61 182/177/61 183/179/60
f 10/153/43 9/151/44 169/151/44 170/153/43
f 24/181/59 23/179/60 183/179/60 184/181/59
f 11/155/42 10/153/43 170/153/43 171/155/42
f 25/183/58 24/181/59 184/181/59 185/183/58
f 12/157/41 11/155/42 171/155/42 172/157/41
f 26/185/57 25/183/58 185/183/58 186/185/57
f 13/159/40 12/157/41 172/157/41 173/159/40
f 27/187/56 26/185/57 186/185/57 187/187/56
f 14/161/39 13/159/40 173/159/40 174/161/39
f 28/189/55 27/187/56 187/187/56 188/189/55
f 15/163/38 14/161/39 174/161/39 175/163/38
f 2/138/49 1/137/50 161/137/50 162/138/49
f 29/191/54 28/189/55 188/189/55 189/191/54
f 16/165/36 15/163/38 175/163/38 176/165/36
f 3/141/48 2/138/49 162/138/49 163/141/48
f 30/193/53 29/191/54 189/191/54 190/193/53
f 17/167/37 16/165/36 176/165/36 177/167/37
f 4/143/47 3/141/48 163/141/48 164/143/47
f 31/195/52 30/193/53 190/193/53 191/195/52
f 18/169/65 17/167/37 177/167/37 178/169/65
f 5/64/33 4/143/47 164/143/47 165/64/33
f 32/197/51 31/195/52 191/195/52 192/197/51
f 19/171/64 18/169/65 178/169/65 179/171/64
f 255/199/36 224/200/36 193/201/37 256/202/37
f 254/203/38 223/204/38 224/200/36 255/199/36
f 253/205/39 222/206/39 223/204/38 254/203/38
f 252/207/40 221/208/40 222/206/39 253/205/39
f 251/209/41 220/210/41 221/208/40 252/207/40
f 250/211/42 219/212/42 220/210/41 251/209/41
f 249/213/43 218/214/43 219/212/42 250/211/42
f 248/215/44 217/216/44 218/214/43 249/213/43
f 247/217/45 216/218/45 217/216/44 248/215/44
f 246/219/46 215/220/46 216/218/45 247/217/45
f 245/221/32 214/222/32 215/220/46 246/219/46
f 244/223/33 213/224/33 214/222/32 245/221/32
f 243/225/47 212/226/47 213/224/33 244/223/33
f 242/227/48 211/228/48 212/226/47 243/225/47
f 241/229/49 210/230/49 211/228/48 242/227/48
f 240/231/50 209/232/50 210/230/49 241/229/49
f 239/233/51 208/234/51 209/232/50 240/231/50
f 238/235/52 207/236/52 208/234/51 239/233/51
f 237/237/53 206/238/53 207/236/52 238/235/52
f 236/239/54 205/240/54 206/238/53 237/237/53
f 235/241/55 204/242/55 205/240/54 236/239/54
f 234/243/56 203/244/56 204/242/55 235/241/55
f 233/245/57 202/246/57 203/244/56 234/243/56
f 232/247/58 201/248/58 202/246/57 233/245/57
f 231/249/59 200/250/59 201/248/58 232/247/58
f 230/251/60 199/252/60 200/250/59 231/249/59
f 229/253/61 198/254/61 199/252/60 230/251/60
f 228/255/62 197/256/62 198/254/61 229/253/61
f 227/257/63 196/258/63 197/256/62 228/255/62
f 226/259/64 195/260/64 196/258/63 227/257/63
f 225/261/65 194/262/65 195/260/64 226/259/64
f 256/263/37 193/264/37 194/262/65 225/261/65
f 33/134/37 256/263/37 225/261/65 34/132/65
f 34/132/65 225/261/65 226/259/64 35/130/64
f 35/130/64 226/259/64 227/257/63 36/128/63
f 36/128/63 227/257/63 228/255/62 37/126/62
f 37/126/62 228/255/62 229/253/61 38/124/61
f 38/124/61 229/253/61 230/251/60 39/122/60
f 39/122/60 230/251/60 231/249/59 40/120/59
f 40/120/59 231/249/59 232/247/58 41/69/58
f 41/69/58 232/247/58 233/245/57 42/70/57
f 42/70/57 233/245/57 234/243/56 43/71/56
f 43/71/56 234/243/56 235/241/55 44/72/55
f 44/72/55 235/241/55 236/239/54 45/73/54
f 45/73/54 236/239/54 237/237/53 46/74/53
f 46/74/53 237/237/53 238/235/52 47/75/52
f 47/75/52 238/235/52 239/233/51 48/76/51
f 48/76/51 239/233/51 240/231/50 49/77/50
f 49/77/50 240/231/50 241/229/49 50/78/49
f 50/78/49 241/229/49 242/227/48 51/79/48
f 51/79/48 242/227/48 243/225/47 52/80/47
f 52/80/47 243/225/47 244/223/33 53/81/33
f 53/81/33 244/223/33 245/221/32 54/82/32
f 54/82/32 245/221/32 246/219/46 55/83/46
f 55/83/46 246/219/46 247/217/45 56/103/45
f 56/103/45 247/217/45 248/215/44 57/101/44
f 57/101/44 248/215/44 249/213/43 58/99/43
f 58/99/43 249/213/43 250/211/42 59/97/42
f 59/97/42 250/211/42 251/209/41 60/95/41
f 60/95/41 251/209/41 252/207/40 61/93/40
f 61/93/40 252/207/40 253/205/39 62/91/39
f 62/91/39 253/205/39 254/203/38 63/89/38
f 63/89/38 254/203/38 255/199/36 64/85/36
f 64/85/36 255/199/36 256/202/37 33/86/37
f 224/200/66 288/66/66 257/68/67 193/201/67
f 223/204/68 287/62/68 288/66/66 224/200/66
f 222/206/69 286/60/69 287/62/68 223/204/68
f 221/208/70 285/58/70 286/60/69 222/206/69
f 220/210/71 284/56/71 285/58/70 221/208/70
f 219/212/72 283/54/72 284/56/71 220/210/71
f 218/214/73 282/52/73 283/54/72 219/212/72
f 217/216/74 281/50/74 282/52/73 218/214/73
f 216/218/75 280/48/75 281/50/74 217/216/74
f 215/220/76 279/46/76 280/48/75 216/218/75
f 214/222/77 278/44/77 279/46/76 215/220/76
f 213/224/78 277/42/78 278/44/77 214/222/77
f 212/226/79 276/40/79 277/42/78 213/224/78
f 211/228/80 275/38/80 276/40/79 212/226/79
f 210/230/81 274/36/81 275/38/80 211/228/80
f 209/232/82 273/34/82 274/36/81 210/230/81
f 208/234/83 272/32/83 273/34/82 209/232/82
f 207/236/84 271/30/84 272/32/83 208/234/83
f 206/238/85 270/28/85 271/30/84 207/236/84
f 205/240/86 269/26/86 270/28/85 206/238/85
f 204/242/87 268/24/87 269/26/86 205/240/86
f 203/244/88 267/22/88 268/24/87 204/242/87
f 202/246/89 266/20/89 267/22/88 203/244/88
f 201/248/90 265/18/90 266/20/89 202/246/89
f 200/250/91 264/16/91 265/18/90 201/248/90
f 199/252/92 263/14/92 264/16/91 200/250/91
f 198/254/93 262/12/93 263/14/92 199/252/92
f 197/256/94 261/10/94 262/12/93 198/254/93
f 196/258/95 260/8/95 261/10/94 197/256/94
f 195/260/96 259/6/96 260/8/95 196/258/95
f 194/262/97 258/4/97 259/6/96 195/260/96
f 193/264/67 257/1/67 258/4/97 194/262/97
f 66/265/98 65/266/98 289/87/98 290/131/98
f 68/267/98 66/265/98 290/131/98 291/129/98
f 70/268/98 68/267/98 291/129/98 292/127/98
f 72/269/98 70/268/98 292/127/98 293/125/98
f 74/270/98 72/269/98 293/125/98 294/123/98
f 76/271/98 74/270/98 294/123/98 295/121/98
f 78/272/98 76/271/98 295/121/98 296/119/98
f 80/273/98 78/272/98 296/119/98 297/118/98
f 82/274/98 80/273/98 297/118/98 298/117/98
f 84/275/98 82/274/98 298/117/98 299/116/98
f 86/276/98 84/275/98 299/116/98 300/115/98
f 88/277/98 86/276/98 300/115/98 301/114/98
f 90/278/98 88/277/98 301/114/98 302/113/98
f 92/279/98 90/278/98 302/113/98 303/112/98
f 94/280/98 92/279/98 303/112/98 304/111/98
f 96/281/98 94/280/98 304/111/98 305/110/98
f 98/282/98 96/281/98 305/110/98 306/109/98
f 100/283/98 98/282/98 306/109/98 307/108/98
f 102/284/98 100/283/98 307/108/98 308/107/98
f 104/285/98 102/284/98 308/107/98 309/106/98
f 106/286/98 104/285/98 309/106/98 310/105/98
f 108/287/98 106/286/98 310/105/98 311/104/98
f 110/135/98 108/287/98 311/104/98 312/102/98
f 112/136/98 110/135/98 312/102/98 313/100/98
f 114/288/98 112/136/98 313/100/98 314/98/98
f 116/289/98 114/288/98 314/98/98 315/96/98
f 118/290/98 116/289/98 315/96/98 316/94/98
f 120/291/98 118/290/98 316/94/98 317/92/98
f 122/292/98 120/291/98 317/92/98 318/90/98
f 124/293/98 122/292/98 318/90/98 319/88/98
f 126/294/98 124/293/98 319/88/98 320/84/98
f 65/266/98 126/294/98 320/84/98 289/87/98
f 84/275/42 86/276/41 341/276/41 340/275/42
f 112/136/58 114/288/57 355/288/57 354/136/58
f 86/276/41 88/277/40 342/277/40 341/276/41
f 114/288/57 116/289/56 356/289/56 355/288/57
f 88/277/40 90/278/39 343/278/39 342/277/40
f 116/289/56 118/290/55 357/290/55 356/289/56
f 90/278/39 92/279/38 344/279/38 343/278/39
f 65/266/50 66/265/49 331/265/49 330/266/50
f 118/290/55 120/291/54 358/291/54 357/290/55
f 92/279/38 94/280/36 345/280/36 344/279/38
f 66/265/49 68/267/48 332/267/48 331/265/49
f 120/291/54 122/292/53 359/292/53 358/291/54
f 94/280/36 96/281/37 346/281/37 345/280/36
f 68/267/48 70/268/47 333/268/47 332/267/48
f 122/292/53 124/293/52 360/293/52 359/292/53
f 96/281/37 98/282/65 347/282/65 346/281/37
f 70/268/47 72/269/33 334/269/33 333/268/47
f 124/293/52 126/294/51 361/294/51 360/293/52
f 98/282/65 100/283/64 348/283/64 347/282/65
f 72/269/33 74/270/32 335/270/32 334/269/33
f 126/294/51 65/266/50 330/266/50 361/294/51
f 100/283/64 102/284/63 349/284/63 348/283/64
f 74/270/32 76/271/46 336/271/46 335/270/32
f 102/284/63 104/285/62 350/285/62 349/284/63
f 76/271/46 78/272/45 337/272/45 336/271/46
f 104/285/62 106/286/61 351/286/61 350/285/62
f 78/272/45 80/273/44 338/273/44 337/272/45
f 106/286/61 108/287/60 352/287/60 351/286/61
f 80/273/44 82/274/43 339/274/43 338/273/44
f 108/287/60 110/135/59 353/135/59 352/287/60
f 82/274/43 84/275/42 340/275/42 339/274/43
f 363/295/98 362/296/98 330/266/98 331/265/98
f 364/297/98 363/295/98 331/265/98 332/267/98
f 365/298/98 364/297/98 332/267/98 333/268/98
f 366/299/98 365/298/98 333/268/98 334/269/98
f 367/300/98 366/299/98 334/269/98 335/270/98
f 321/301/98 367/300/98 335/270/98 336/271/98
f 368/302/98 321/301/98 336/271/98 337/272/98
f 322/303/98 368/302/98 337/272/98 338/273/98
f 369/304/98 322/303/98 338/273/98 339/274/98
f 370/305/98 369/304/98 339/274/98 340/275/98
f 371/306/98 370/305/98 340/275/98 341/276/98
f 323/307/98 371/306/98 341/276/98 342/277/98
f 372/308/98 323/307/98 342/277/98 343/278/98
f 373/309/98 372/308/98 343/278/98 344/279/98
f 374/310/98 373/309/98 344/279/98 345/280/98
f 324/311/98 374/310/98 345/280/98 346/281/98
f 376/312/98 324/311/98 346/281/98 347/282/98
f 377/313/98 376/312/98 347/282/98 348/283/98
f 325/314/98 377/313/98 348/283/98 349/284/98
f 378/315/98 325/314/98 349/284/98 350/285/98
f 326/316/98 378/315/98 350/285/98 351/286/98
f 379/317/98 326/316/98 351/286/98 352/287/98
f 327/318/98 379/317/98 352/287/98 353/135/98
f 328/319/98 327/318/98 353/135/98 354/136/98
f 380/320/98 328/319/98 354/136/98 355/288/98
f 329/321/98 380/320/98 355/288/98 356/289/98
f 381/322/98 329/321/98 356/289/98 357/290/98
f 382/323/98 381/322/98 357/290/98 358/291/98
f 383/324/98 382/323/98 358/291/98 359/292/98
f 384/325/98 383/324/98 359/292/98 360/293/98
f 385/326/98 384/325/98 360/293/98 361/294/98
f 362/296/98 385/326/98 361/294/98 330/266/98
f 362/327/99 363/328/100 386/329/100 387/330/99
f 363/328/100 364/331/101 388/332/101 386/329/100
f 364/331/101 365/333/102 389/334/102 388/332/101
f 365/333/102 366/299/103 390/335/103 389/334/102
f 366/299/103 367/300/104 391/336/104 390/335/103
f 367/300/104 321/337/105 392/338/105 391/336/104
f 321/337/105 368/339/106 393/340/106 392/338/105
f 368/339/106 322/341/107 394/342/107 393/340/106
f 322/341/107 369/343/108 395/344/108 394/342/107
f 369/343/108 370/345/109 396/346/109 395/344/108
f 370/345/109 371/347/110 397/348/110 396/346/109
f 371/347/110 323/307/111 398/349/111 397/348/110
f 323/307/111 372/350/112 399/351/112 398/349/111
f 372/350/112 373/352/113 400/353/113 399/351/112
f 373/352/113 374/310/114 401/354/114 400/353/113
f 374/310/114 324/355/115 402/356/115 401/354/114
f 324/355/115 376/357/116 403/358/116 402/356/115
f 376/357/116 377/359/117 404/360/117 403/358/116
f 377/359/117 325/361/118 405/362/118 404/360/117
f 325/361/118 378/315/119 406/363/119 405/362/118
f 378/315/119 326/316/120 407/364/120 406/363/119
f 326/316/120 379/365/121 408/366/121 407/364/120
f 379/365/121 327/367/122 409/368/122 408/366/121
f 327/367/122 328/319/123 410/369/123 409/368/122
f 328/319/123 380/320/124 411/370/124 410/369/123
f 380/320/124 329/371/125 412/372/125 411/370/124
f 329/371/125 381/373/126 413/374/126 412/372/125
f 381/373/126 382/375/127 414/376/127 413/374/126
f 382/375/127 383/377/128 415/378/128 414/376/127
f 383/377/128 384/379/129 416/380/129 415/378/128
f 384/379/129 385/381/130 417/382/130 416/380/129
f 385/381/130 362/327/99 387/330/99 417/382/130
f 375/383/98 387/330/98 386/329/98
f 375/384/98 386/329/98 388/332/98
f 375/385/98 388/332/98 389/334/98
f 375/386/98 389/334/98 390/335/98
f 375/387/98 390/335/98 391/336/98
f 375/388/98 391/336/98 392/338/98
f 375/389/98 392/338/98 393/340/98
f 375/390/98 393/340/98 394/342/98
f 375/391/98 394/342/98 395/344/98
f 375/392/98 395/344/98 396/346/98
f 375/393/98 396/346/98 397/348/98
f 375/394/98 397/348/98 398/349/98
f 375/395/98 398/349/98 399/351/98
f 375/396/98 399/351/98 400/353/98
f 375/397/98 400/353/98 401/354/98
f 375/398/98 401/354/98 402/356/98
f 375/399/98 402/356/98 403/358/98
f 375/400/98 403/358/98 404/360/98
f 375/401/98 404/360/98 405/362/98
f 375/402/98 405/362/98 406/363/98
f 375/403/98 406/363/98 407/364/98
f 375/404/98 407/364/98 408/366/98
f 375/405/98 408/366/98 409/368/98
f 375/406/98 409/368/98 410/369/98
f 375/407/98 410/369/98 411/370/98
f 375/408/98 411/370/98 412/372/98
f 375/409/98 412/372/98 413/374/98
f 375/410/98 413/374/98 414/376/98
f 375/411/98 414/376/98 415/378/98
f 375/412/98 415/378/98 416/380/98
f 375/413/98 416/380/98 417/382/98
f 375/414/98 417/382/98 387/330/98
