# Blender 4.5.1 LTS
# www.blender.org
o Case-Cannon-1L1W
v 0.000001 1.000000 -0.100492
v 0.019606 1.000000 -0.098561
v 0.038457 1.000000 -0.092842
v 0.055831 1.000000 -0.083556
v 0.071059 1.000000 -0.071058
v 0.083556 1.000000 -0.055830
v 0.092843 1.000000 -0.038456
v 0.098561 1.000000 -0.019605
v 0.100492 1.000000 0.000000
v 0.098561 1.000000 0.019605
v 0.092843 1.000000 0.038456
v 0.083556 1.000000 0.055830
v 0.071059 1.000000 0.071058
v 0.055831 1.000000 0.083556
v 0.038457 1.000000 0.092842
v 0.019606 1.000000 0.098561
v 0.000001 1.000000 0.100492
v -0.019604 1.000000 0.098561
v -0.038456 1.000000 0.092842
v -0.055830 1.000000 0.083556
v -0.071058 1.000000 0.071058
v -0.083555 1.000000 0.055830
v -0.092842 1.000000 0.038456
v -0.098560 1.000000 0.019605
v -0.100491 1.000000 0.000000
v -0.098560 1.000000 -0.019605
v -0.092842 1.000000 -0.038456
v -0.083555 1.000000 -0.055830
v -0.071058 1.000000 -0.071058
v -0.055830 1.000000 -0.083556
v -0.038456 1.000000 -0.092842
v -0.019604 1.000000 -0.098561
v 0.000000 0.020000 -0.125000
v 0.024386 0.020000 -0.122598
v 0.047835 0.020000 -0.115485
v 0.069446 0.020000 -0.103934
v 0.088388 0.020000 -0.088388
v 0.103934 0.020000 -0.069446
v 0.115485 0.020000 -0.047835
v 0.122598 0.020000 -0.024386
v 0.125000 0.020000 0.000000
v 0.122598 0.020000 0.024386
v 0.115485 0.020000 0.047835
v 0.103934 0.020000 0.069446
v 0.088388 0.020000 0.088388
v 0.069446 0.020000 0.103934
v 0.047835 0.020000 0.115485
v 0.024386 0.020000 0.122598
v 0.000000 0.020000 0.125000
v -0.024386 0.020000 0.122598
v -0.047835 0.020000 0.115485
v -0.069446 0.020000 0.103934
v -0.088388 0.020000 0.088388
v -0.103934 0.020000 0.069446
v -0.115485 0.020000 0.047835
v -0.122598 0.020000 0.024386
v -0.125000 0.020000 0.000000
v -0.122598 0.020000 -0.024386
v -0.115485 0.020000 -0.047835
v -0.103934 0.020000 -0.069446
v -0.088388 0.020000 -0.088388
v -0.069446 0.020000 -0.103934
v -0.047835 0.020000 -0.115485
v -0.024386 0.020000 -0.122598
v 0.000000 0.000000 -0.085490
v 0.016678 0.000000 -0.083848
v 0.027435 0.020000 -0.137923
v 0.032716 0.000000 -0.078983
v 0.053815 0.020000 -0.129921
v 0.047496 0.000000 -0.071083
v 0.078127 0.020000 -0.116925
v 0.060451 0.000000 -0.060451
v 0.099437 0.020000 -0.099437
v 0.071083 0.000000 -0.047496
v 0.116925 0.020000 -0.078127
v 0.078983 0.000000 -0.032716
v 0.129921 0.020000 -0.053815
v 0.083848 0.000000 -0.016678
v 0.137923 0.020000 -0.027435
v 0.085490 0.000000 0.000000
v 0.140625 0.020000 0.000000
v 0.083848 0.000000 0.016678
v 0.137923 0.020000 0.027435
v 0.078983 0.000000 0.032716
v 0.129921 0.020000 0.053815
v 0.071083 0.000000 0.047496
v 0.116925 0.020000 0.078127
v 0.060451 0.000000 0.060451
v 0.099437 0.020000 0.099437
v 0.047496 0.000000 0.071083
v 0.078127 0.020000 0.116925
v 0.032716 0.000000 0.078983
v 0.053815 0.020000 0.129921
v 0.016678 0.000000 0.083848
v 0.027435 0.020000 0.137923
v 0.000000 0.000000 0.085490
v 0.000000 0.020000 0.140625
v -0.016678 0.000000 0.083848
v -0.027435 0.020000 0.137923
v -0.032716 0.000000 0.078983
v -0.053815 0.020000 0.129921
v -0.047496 0.000000 0.071083
v -0.078127 0.020000 0.116925
v -0.060451 0.000000 0.060451
v -0.099437 0.020000 0.099437
v -0.071083 0.000000 0.047496
v -0.116925 0.020000 0.078127
v -0.078983 0.000000 0.032716
v -0.129921 0.020000 0.053815
v -0.083848 0.000000 0.016678
v -0.137923 0.020000 0.027435
v -0.085490 0.000000 0.000000
v -0.140625 0.020000 0.000000
v -0.083848 0.000000 -0.016678
v -0.137923 0.020000 -0.027435
v -0.078983 0.000000 -0.032716
v -0.129921 0.020000 -0.053815
v -0.071083 0.000000 -0.047496
v -0.116925 0.020000 -0.078127
v -0.060451 0.000000 -0.060451
v -0.099437 0.020000 -0.099437
v -0.047496 0.000000 -0.071083
v -0.078127 0.020000 -0.116925
v -0.032716 0.000000 -0.078983
v -0.053815 0.020000 -0.129921
v -0.016678 0.000000 -0.083848
v -0.027435 0.020000 -0.137923
v 0.000000 0.020000 -0.140625
v 0.020449 1.000000 -0.102803
v 0.000000 1.000000 -0.104817
v 0.040112 1.000000 -0.096838
v 0.058233 1.000000 -0.087152
v 0.074117 1.000000 -0.074117
v 0.087152 1.000000 -0.058233
v 0.096838 1.000000 -0.040112
v 0.102803 1.000000 -0.020449
v 0.104817 1.000000 0.000000
v 0.102803 1.000000 0.020449
v 0.096838 1.000000 0.040112
v 0.087152 1.000000 0.058233
v 0.074117 1.000000 0.074117
v 0.058233 1.000000 0.087152
v 0.040112 1.000000 0.096838
v 0.020449 1.000000 0.102803
v 0.000000 1.000000 0.104817
v -0.020449 1.000000 0.102803
v -0.040112 1.000000 0.096838
v -0.058233 1.000000 0.087152
v -0.074117 1.000000 0.074117
v -0.087152 1.000000 0.058233
v -0.096838 1.000000 0.040112
v -0.102803 1.000000 0.020449
v -0.104817 1.000000 0.000000
v -0.102803 1.000000 -0.020449
v -0.096838 1.000000 -0.040112
v -0.087152 1.000000 -0.058233
v -0.074117 1.000000 -0.074117
v -0.058233 1.000000 -0.087152
v -0.040112 1.000000 -0.096838
v -0.020449 1.000000 -0.102803
v -0.000002 0.060000 -0.100492
v 0.019603 0.060000 -0.098561
v 0.038455 0.060000 -0.092842
v 0.055828 0.060000 -0.083556
v 0.071057 0.060000 -0.071058
v 0.083554 0.060000 -0.055830
v 0.092841 0.060000 -0.038456
v 0.098559 0.060000 -0.019605
v 0.100490 0.060000 0.000000
v 0.098559 0.060000 0.019605
v 0.092841 0.060000 0.038456
v 0.083554 0.060000 0.055830
v 0.071057 0.060000 0.071058
v 0.055828 0.060000 0.083556
v 0.038455 0.060000 0.092842
v 0.019603 0.060000 0.098561
v -0.000002 0.060000 0.100492
v -0.019607 0.060000 0.098561
v -0.038458 0.060000 0.092842
v -0.055832 0.060000 0.083556
v -0.071060 0.060000 0.071058
v -0.083557 0.060000 0.055830
v -0.092844 0.060000 0.038456
v -0.098562 0.060000 0.019605
v -0.100493 0.060000 0.000000
v -0.098562 0.060000 -0.019605
v -0.092844 0.060000 -0.038456
v -0.083557 0.060000 -0.055830
v -0.071060 0.060000 -0.071058
v -0.055832 0.060000 -0.083556
v -0.038458 0.060000 -0.092842
v -0.019607 0.060000 -0.098561
v 0.000000 0.109999 -0.125000
v 0.024386 0.109999 -0.122598
v 0.047835 0.109999 -0.115485
v 0.069446 0.109999 -0.103934
v 0.088388 0.109999 -0.088388
v 0.103934 0.109999 -0.069446
v 0.115485 0.109999 -0.047835
v 0.122598 0.109999 -0.024386
v 0.125000 0.109999 0.000000
v 0.122598 0.109999 0.024386
v 0.115485 0.109999 0.047835
v 0.103934 0.109999 0.069446
v 0.088388 0.109999 0.088388
v 0.069446 0.109999 0.103934
v 0.047835 0.109999 0.115485
v 0.024386 0.109999 0.122598
v 0.000000 0.109999 0.125000
v -0.024386 0.109999 0.122598
v -0.047835 0.109999 0.115485
v -0.069446 0.109999 0.103934
v -0.088388 0.109999 0.088388
v -0.103934 0.109999 0.069446
v -0.115485 0.109999 0.047835
v -0.122598 0.109999 0.024386
v -0.125000 0.109999 0.000000
v -0.122598 0.109999 -0.024386
v -0.115485 0.109999 -0.047835
v -0.103934 0.109999 -0.069446
v -0.088388 0.109999 -0.088388
v -0.069446 0.109999 -0.103934
v -0.047835 0.109999 -0.115485
v -0.024386 0.109999 -0.122598
v 0.024386 0.089999 -0.122598
v 0.047835 0.089999 -0.115485
v 0.069446 0.089999 -0.103934
v 0.088388 0.089999 -0.088388
v 0.103934 0.089999 -0.069446
v 0.115485 0.089999 -0.047835
v 0.122598 0.089999 -0.024386
v 0.125000 0.089999 0.000000
v 0.122598 0.089999 0.024386
v 0.115485 0.089999 0.047835
v 0.103934 0.089999 0.069446
v 0.088388 0.089999 0.088388
v 0.069446 0.089999 0.103934
v 0.047835 0.089999 0.115485
v 0.024386 0.089999 0.122598
v 0.000000 0.089999 0.125000
v -0.024386 0.089999 0.122598
v -0.047835 0.089999 0.115485
v -0.069446 0.089999 0.103934
v -0.088388 0.089999 0.088388
v -0.103934 0.089999 0.069446
v -0.115485 0.089999 0.047835
v -0.122598 0.089999 0.024386
v -0.125000 0.089999 0.000000
v -0.122598 0.089999 -0.024386
v -0.115485 0.089999 -0.047835
v -0.103934 0.089999 -0.069446
v -0.088388 0.089999 -0.088388
v -0.069446 0.089999 -0.103934
v -0.047835 0.089999 -0.115485
v -0.024386 0.089999 -0.122598
v 0.000000 0.089999 -0.125000
v 0.000000 0.927500 -0.105314
v 0.020546 0.927500 -0.103290
v 0.040302 0.927500 -0.097297
v 0.058509 0.927500 -0.087565
v 0.074468 0.927500 -0.074468
v 0.087565 0.927500 -0.058509
v 0.097297 0.927500 -0.040302
v 0.103290 0.927500 -0.020546
v 0.105314 0.927500 -0.000000
v 0.103290 0.927500 0.020546
v 0.097297 0.927500 0.040302
v 0.087565 0.927500 0.058509
v 0.074468 0.927500 0.074468
v 0.058509 0.927500 0.087565
v 0.040302 0.927500 0.097297
v 0.020546 0.927500 0.103290
v 0.000000 0.927500 0.105314
v -0.020546 0.927500 0.103290
v -0.040302 0.927500 0.097297
v -0.058509 0.927500 0.087565
v -0.074468 0.927500 0.074468
v -0.087565 0.927500 0.058509
v -0.097297 0.927500 0.040302
v -0.103290 0.927500 0.020546
v -0.105314 0.927500 -0.000000
v -0.103290 0.927500 -0.020546
v -0.097297 0.927500 -0.040302
v -0.087565 0.927500 -0.058509
v -0.074468 0.927500 -0.074468
v -0.058509 0.927500 -0.087565
v -0.040302 0.927500 -0.097297
v -0.020546 0.927500 -0.103290
v 0.000000 0.000000 -0.140625
v 0.027435 0.000000 -0.137923
v 0.053815 0.000000 -0.129921
v 0.078127 0.000000 -0.116925
v 0.099437 0.000000 -0.099437
v 0.116925 0.000000 -0.078127
v 0.129921 0.000000 -0.053815
v 0.137923 0.000000 -0.027435
v 0.140625 0.000000 0.000000
v 0.137923 0.000000 0.027435
v 0.129921 0.000000 0.053815
v 0.116925 0.000000 0.078127
v 0.099437 0.000000 0.099437
v 0.078127 0.000000 0.116925
v 0.053815 0.000000 0.129921
v 0.027435 0.000000 0.137923
v 0.000000 0.000000 0.140625
v -0.027435 0.000000 0.137923
v -0.053815 0.000000 0.129921
v -0.078127 0.000000 0.116925
v -0.099437 0.000000 0.099437
v -0.116925 0.000000 0.078127
v -0.129921 0.000000 0.053815
v -0.137923 0.000000 0.027435
v -0.140625 0.000000 0.000000
v -0.137923 0.000000 -0.027435
v -0.129921 0.000000 -0.053815
v -0.116925 0.000000 -0.078127
v -0.099437 0.000000 -0.099437
v -0.078127 0.000000 -0.116925
v -0.053815 0.000000 -0.129921
v -0.027435 0.000000 -0.137923
v 0.042840 0.010000 -0.064115
v 0.064115 0.010000 -0.042840
v 0.075629 0.010000 -0.015044
v 0.077111 0.010000 0.000000
v 0.064115 0.010000 0.042840
v 0.042840 0.010000 0.064115
v -0.042840 0.010000 0.064115
v -0.054526 0.010000 0.054526
v -0.077111 0.010000 0.000000
v -0.042840 0.010000 -0.064115
v -0.015044 0.010000 -0.075629
v 0.000000 0.010000 -0.085490
v 0.016678 0.010000 -0.083848
v 0.032716 0.010000 -0.078983
v 0.047496 0.010000 -0.071083
v 0.060451 0.010000 -0.060451
v 0.071083 0.010000 -0.047496
v 0.078983 0.010000 -0.032716
v 0.083848 0.010000 -0.016678
v 0.085490 0.010000 0.000000
v 0.083848 0.010000 0.016678
v 0.078983 0.010000 0.032716
v 0.071083 0.010000 0.047496
v 0.060451 0.010000 0.060451
v 0.047496 0.010000 0.071083
v 0.032716 0.010000 0.078983
v 0.016678 0.010000 0.083848
v 0.000000 0.010000 0.085490
v -0.016678 0.010000 0.083848
v -0.032716 0.010000 0.078983
v -0.047496 0.010000 0.071083
v -0.060451 0.010000 0.060451
v -0.071083 0.010000 0.047496
v -0.078983 0.010000 0.032716
v -0.083848 0.010000 0.016678
v -0.085490 0.010000 0.000000
v -0.083848 0.010000 -0.016678
v -0.078983 0.010000 -0.032716
v -0.071083 0.010000 -0.047496
v -0.060451 0.010000 -0.060451
v -0.047496 0.010000 -0.071083
v -0.032716 0.010000 -0.078983
v -0.016678 0.010000 -0.083848
v -0.000000 0.010000 -0.077111
v 0.015044 0.010000 -0.075629
v 0.029509 0.010000 -0.071241
v -0.000000 0.000000 0.000000
v 0.054526 0.010000 -0.054526
v 0.071241 0.010000 -0.029509
v 0.075629 0.010000 0.015044
v 0.071241 0.010000 0.029509
v 0.054526 0.010000 0.054526
v 0.029509 0.010000 0.071241
v 0.015044 0.010000 0.075629
v -0.000000 0.010000 0.077111
v -0.015044 0.010000 0.075629
v -0.029509 0.010000 0.071241
v -0.064115 0.010000 0.042840
v -0.071241 0.010000 0.029509
v -0.075629 0.010000 0.015044
v -0.075629 0.010000 -0.015044
v -0.071241 0.010000 -0.029509
v -0.064115 0.010000 -0.042840
v -0.054526 0.010000 -0.054526
v -0.029509 0.010000 -0.071241
v 0.013002 0.000000 -0.065363
v 0.000000 0.000000 -0.066644
v 0.025503 0.000000 -0.061571
v 0.037025 0.000000 -0.055412
v 0.047124 0.000000 -0.047124
v 0.055412 0.000000 -0.037025
v 0.061571 0.000000 -0.025503
v 0.065363 0.000000 -0.013002
v 0.066644 0.000000 0.000000
v 0.065363 0.000000 0.013002
v 0.061571 0.000000 0.025503
v 0.055412 0.000000 0.037025
v 0.047124 0.000000 0.047124
v 0.037025 0.000000 0.055412
v 0.025503 0.000000 0.061571
v 0.013002 0.000000 0.065363
v 0.000000 0.000000 0.066644
v -0.013002 0.000000 0.065363
v -0.025503 0.000000 0.061571
v -0.037025 0.000000 0.055412
v -0.047124 0.000000 0.047124
v -0.055412 0.000000 0.037025
v -0.061571 0.000000 0.025503
v -0.065363 0.000000 0.013002
v -0.066644 0.000000 0.000000
v -0.065363 0.000000 -0.013002
v -0.061571 0.000000 -0.025503
v -0.055412 0.000000 -0.037025
v -0.047124 0.000000 -0.047124
v -0.037025 0.000000 -0.055412
v -0.025503 0.000000 -0.061571
v -0.013002 0.000000 -0.065363
vn -0.0000 0.0069 -1.0000
vn 0.1951 0.0069 -0.9808
vn 0.3827 0.0069 -0.9239
vn 0.5556 0.0069 -0.8315
vn 0.7071 0.0069 -0.7071
vn 0.8315 0.0069 -0.5556
vn 0.9239 0.0069 -0.3827
vn 0.9808 0.0069 -0.1951
vn 1.0000 0.0069 -0.0000
vn 0.9808 0.0069 0.1951
vn 0.9239 0.0069 0.3827
vn 0.8315 0.0069 0.5556
vn 0.8314 0.0069 0.5556
vn 0.7071 0.0069 0.7071
vn 0.5556 0.0069 0.8314
vn 0.3827 0.0069 0.9239
vn 0.1951 0.0069 0.9808
vn -0.0000 0.0069 1.0000
vn -0.1951 0.0069 0.9808
vn -0.3827 0.0069 0.9239
vn -0.5556 0.0069 0.8315
vn -0.5556 0.0069 0.8314
vn -0.7071 0.0069 0.7071
vn -0.8315 0.0069 0.5556
vn -0.9239 0.0069 0.3827
vn -0.9808 0.0069 0.1951
vn -1.0000 0.0069 -0.0000
vn -0.9808 0.0069 -0.1951
vn -0.9239 0.0069 -0.3827
vn -0.8315 0.0069 -0.5556
vn -0.7071 0.0069 -0.7071
vn -0.5556 0.0069 -0.8314
vn -0.3827 0.0069 -0.9239
vn 0.5556 -0.0000 -0.8315
vn 0.3827 -0.0000 -0.9239
vn -0.1951 0.0069 -0.9808
vn -0.0000 1.0000 -0.0000
vn -0.1951 -0.0000 -0.9808
vn -0.0000 -0.0000 -1.0000
vn -0.3827 -0.0000 -0.9239
vn -0.5556 -0.0000 -0.8315
vn -0.7071 -0.0000 -0.7071
vn -0.8315 -0.0000 -0.5556
vn -0.9239 -0.0000 -0.3827
vn -0.9808 -0.0000 -0.1951
vn -1.0000 -0.0000 -0.0000
vn -0.9808 -0.0000 0.1951
vn -0.9239 -0.0000 0.3827
vn -0.8315 -0.0000 0.5556
vn -0.7071 -0.0000 0.7071
vn -0.5556 -0.0000 0.8315
vn -0.3827 -0.0000 0.9239
vn -0.1951 -0.0000 0.9808
vn -0.0000 -0.0000 1.0000
vn 0.1951 -0.0000 0.9808
vn 0.3827 -0.0000 0.9239
vn 0.5556 -0.0000 0.8315
vn 0.7071 -0.0000 0.7071
vn 0.8315 -0.0000 0.5556
vn 0.9239 -0.0000 0.3827
vn 0.9808 -0.0000 0.1951
vn 1.0000 -0.0000 -0.0000
vn 0.9808 -0.0000 -0.1951
vn 0.9239 -0.0000 -0.3827
vn 0.8315 -0.0000 -0.5556
vn 0.7071 -0.0000 -0.7071
vn 0.1951 -0.0000 -0.9808
vn -0.1950 0.0241 -0.9805
vn -0.0000 0.0241 -0.9997
vn -0.3826 0.0241 -0.9236
vn -0.5554 0.0241 -0.8312
vn -0.7069 0.0241 -0.7069
vn -0.8312 0.0241 -0.5554
vn -0.9236 0.0241 -0.3826
vn -0.9805 0.0241 -0.1950
vn -0.9997 0.0241 -0.0000
vn -0.9805 0.0241 0.1950
vn -0.9236 0.0241 0.3826
vn -0.8312 0.0241 0.5554
vn -0.7069 0.0241 0.7069
vn -0.5554 0.0241 0.8312
vn -0.3826 0.0241 0.9236
vn -0.1950 0.0241 0.9805
vn -0.0000 0.0241 0.9997
vn 0.1950 0.0241 0.9805
vn 0.3826 0.0241 0.9236
vn 0.5554 0.0241 0.8312
vn 0.7069 0.0241 0.7069
vn 0.8312 0.0241 0.5554
vn 0.9236 0.0241 0.3826
vn 0.9805 0.0241 0.1950
vn 0.9997 0.0241 -0.0000
vn 0.9805 0.0241 -0.1950
vn 0.9236 0.0241 -0.3826
vn 0.8312 0.0241 -0.5554
vn 0.7069 0.0241 -0.7069
vn 0.5554 0.0241 -0.8312
vn 0.3826 0.0241 -0.9236
vn 0.1950 0.0241 -0.9805
vn -0.0000 -1.0000 -0.0000
vn -0.0000 -0.7231 -0.6908
vn 0.1348 -0.7231 -0.6775
vn 0.2644 -0.7231 -0.6382
vn 0.3838 -0.7231 -0.5744
vn 0.4885 -0.7231 -0.4885
vn 0.5744 -0.7231 -0.3838
vn 0.6382 -0.7231 -0.2644
vn 0.6775 -0.7231 -0.1348
vn 0.6908 -0.7231 -0.0000
vn 0.6775 -0.7231 0.1348
vn 0.6382 -0.7231 0.2644
vn 0.5744 -0.7231 0.3838
vn 0.4885 -0.7231 0.4885
vn 0.3838 -0.7231 0.5744
vn 0.2644 -0.7231 0.6382
vn 0.1348 -0.7231 0.6775
vn -0.0000 -0.7231 0.6908
vn -0.1348 -0.7231 0.6775
vn -0.2644 -0.7231 0.6382
vn -0.3838 -0.7231 0.5744
vn -0.4885 -0.7231 0.4885
vn -0.5744 -0.7231 0.3838
vn -0.6382 -0.7231 0.2644
vn -0.6775 -0.7231 0.1348
vn -0.6908 -0.7231 -0.0000
vn -0.6775 -0.7231 -0.1348
vn -0.6382 -0.7231 -0.2644
vn -0.5744 -0.7231 -0.3838
vn -0.4885 -0.7231 -0.4885
vn -0.3838 -0.7231 -0.5744
vn -0.2644 -0.7231 -0.6382
vn -0.1348 -0.7231 -0.6775
vt 1.000000 0.987500
vt 1.000000 1.000000
vt 0.968750 1.000000
vt 0.968750 0.987500
vt 0.937500 1.000000
vt 0.937500 0.987500
vt 0.906250 1.000000
vt 0.906250 0.987500
vt 0.875000 1.000000
vt 0.875000 0.987500
vt 0.843750 1.000000
vt 0.843750 0.987500
vt 0.812500 1.000000
vt 0.812500 0.987500
vt 0.781250 1.000000
vt 0.781250 0.987500
vt 0.750000 1.000000
vt 0.750000 0.987500
vt 0.718750 1.000000
vt 0.718750 0.987500
vt 0.687500 1.000000
vt 0.687500 0.987500
vt 0.656250 1.000000
vt 0.656250 0.987500
vt 0.625000 1.000000
vt 0.625000 0.987500
vt 0.593750 1.000000
vt 0.593750 0.987500
vt 0.562500 1.000000
vt 0.562500 0.987500
vt 0.531250 1.000000
vt 0.531250 0.987500
vt 0.500000 1.000000
vt 0.500000 0.987500
vt 0.468750 1.000000
vt 0.468750 0.987500
vt 0.437500 1.000000
vt 0.437500 0.987500
vt 0.406250 1.000000
vt 0.406250 0.987500
vt 0.375000 1.000000
vt 0.375000 0.987500
vt 0.343750 1.000000
vt 0.343750 0.987500
vt 0.312500 1.000000
vt 0.312500 0.987500
vt 0.281250 1.000000
vt 0.281250 0.987500
vt 0.250000 1.000000
vt 0.250000 0.987500
vt 0.218750 1.000000
vt 0.218750 0.987500
vt 0.187500 1.000000
vt 0.187500 0.987500
vt 0.156250 1.000000
vt 0.156250 0.987500
vt 0.125000 1.000000
vt 0.125000 0.987500
vt 0.093750 1.000000
vt 0.093750 0.987500
vt 0.062500 1.000000
vt 0.062500 0.987500
vt 0.198028 0.172219
vt 0.214201 0.163574
vt 0.031250 1.000000
vt 0.031250 0.987500
vt 0.000000 1.000000
vt 0.000000 0.987500
vt 0.281250 0.510000
vt 0.250000 0.510000
vt 0.218750 0.510000
vt 0.187500 0.510000
vt 0.156250 0.510000
vt 1.000000 0.510000
vt 0.968750 0.510000
vt 0.125000 0.510000
vt 0.937500 0.510000
vt 0.093750 0.510000
vt 0.906250 0.510000
vt 0.062500 0.510000
vt 0.875000 0.510000
vt 0.031250 0.510000
vt 0.843750 0.510000
vt 0.000000 0.510000
vt 0.812500 0.510000
vt 0.781250 0.510000
vt 0.750000 0.510000
vt 0.718750 0.510000
vt 0.031250 0.500000
vt 0.000000 0.500000
vt 0.062500 0.500000
vt 0.093750 0.500000
vt 0.125000 0.500000
vt 0.156250 0.500000
vt 0.187500 0.500000
vt 0.218750 0.500000
vt 0.250000 0.500000
vt 0.281250 0.500000
vt 0.312500 0.500000
vt 0.312500 0.510000
vt 0.343750 0.500000
vt 0.343750 0.510000
vt 0.375000 0.500000
vt 0.375000 0.510000
vt 0.406250 0.500000
vt 0.406250 0.510000
vt 0.437500 0.500000
vt 0.437500 0.510000
vt 0.468750 0.500000
vt 0.468750 0.510000
vt 0.500000 0.500000
vt 0.500000 0.510000
vt 0.531250 0.500000
vt 0.531250 0.510000
vt 0.562500 0.500000
vt 0.562500 0.510000
vt 0.593750 0.500000
vt 0.593750 0.510000
vt 0.625000 0.500000
vt 0.625000 0.510000
vt 0.656250 0.500000
vt 0.656250 0.510000
vt 0.687500 0.500000
vt 0.687500 0.510000
vt 0.718750 0.500000
vt 0.750000 0.500000
vt 0.781250 0.500000
vt 0.812500 0.500000
vt 0.843750 0.500000
vt 0.875000 0.500000
vt 0.906250 0.500000
vt 0.937500 0.500000
vt 0.968750 0.500000
vt 1.000000 0.500000
vt 0.275393 0.500000
vt 0.295435 0.500000
vt 0.250000 0.343546
vt 0.268250 0.341749
vt 0.296822 0.485388
vt 0.250000 0.490000
vt 0.285799 0.336426
vt 0.341844 0.471731
vt 0.301971 0.327781
vt 0.383337 0.449553
vt 0.316147 0.316147
vt 0.419706 0.419706
vt 0.327781 0.301972
vt 0.449553 0.383337
vt 0.336426 0.285799
vt 0.471731 0.341844
vt 0.341749 0.268250
vt 0.485388 0.296822
vt 0.343546 0.250000
vt 0.490000 0.250000
vt 0.341749 0.231750
vt 0.485388 0.203178
vt 0.336426 0.214201
vt 0.471731 0.158156
vt 0.327781 0.198028
vt 0.449553 0.116663
vt 0.316147 0.183853
vt 0.419706 0.080294
vt 0.301971 0.172219
vt 0.383337 0.050447
vt 0.285799 0.163574
vt 0.341844 0.028269
vt 0.268250 0.158251
vt 0.296822 0.014612
vt 0.250000 0.156454
vt 0.250000 0.010000
vt 0.231750 0.158251
vt 0.203178 0.014612
vt 0.158156 0.028269
vt 0.116663 0.050447
vt 0.183853 0.183853
vt 0.080294 0.080294
vt 0.172219 0.198028
vt 0.050447 0.116663
vt 0.163574 0.214201
vt 0.028269 0.158156
vt 0.158251 0.231750
vt 0.014612 0.203178
vt 0.156454 0.250000
vt 0.010000 0.250000
vt 0.158251 0.268250
vt 0.014612 0.296822
vt 0.163574 0.285799
vt 0.028269 0.341844
vt 0.172219 0.301971
vt 0.050447 0.383337
vt 0.183853 0.316147
vt 0.080294 0.419706
vt 0.198028 0.327781
vt 0.116663 0.449553
vt 0.214201 0.336426
vt 0.158156 0.471731
vt 0.231750 0.341749
vt 0.203178 0.485388
vt 0.031250 0.940000
vt 0.031250 0.950000
vt 0.000000 0.950000
vt 0.000000 0.940000
vt 0.062500 0.940000
vt 0.062500 0.950000
vt 0.093750 0.940000
vt 0.093750 0.950000
vt 0.125000 0.940000
vt 0.125000 0.950000
vt 0.156250 0.940000
vt 0.156250 0.950000
vt 0.187500 0.940000
vt 0.187500 0.950000
vt 0.218750 0.940000
vt 0.218750 0.950000
vt 0.250000 0.940000
vt 0.250000 0.950000
vt 0.281250 0.940000
vt 0.281250 0.950000
vt 0.312500 0.940000
vt 0.312500 0.950000
vt 0.343750 0.940000
vt 0.343750 0.950000
vt 0.375000 0.940000
vt 0.375000 0.950000
vt 0.406250 0.940000
vt 0.406250 0.950000
vt 0.437500 0.940000
vt 0.437500 0.950000
vt 0.468750 0.940000
vt 0.468750 0.950000
vt 0.500000 0.940000
vt 0.500000 0.950000
vt 0.531250 0.940000
vt 0.531250 0.950000
vt 0.562500 0.940000
vt 0.562500 0.950000
vt 0.593750 0.940000
vt 0.593750 0.950000
vt 0.625000 0.940000
vt 0.625000 0.950000
vt 0.656250 0.940000
vt 0.656250 0.950000
vt 0.687500 0.940000
vt 0.687500 0.950000
vt 0.718750 0.940000
vt 0.718750 0.950000
vt 0.750000 0.940000
vt 0.750000 0.950000
vt 0.781250 0.940000
vt 0.781250 0.950000
vt 0.812500 0.940000
vt 0.812500 0.950000
vt 0.843750 0.940000
vt 0.843750 0.950000
vt 0.875000 0.940000
vt 0.875000 0.950000
vt 0.906250 0.940000
vt 0.906250 0.950000
vt 0.937500 0.940000
vt 0.937500 0.950000
vt 0.968750 0.940000
vt 0.968750 0.950000
vt 1.000000 0.940000
vt 1.000000 0.950000
vt 0.538214 0.500000
vt 0.430536 0.500000
vt 0.624859 0.500000
vt 0.673315 0.500000
vt 0.693357 0.500000
vt 0.696813 0.500000
vt 0.690806 0.500000
vt 0.679149 0.500000
vt 0.663917 0.500000
vt 0.646308 0.500000
vt 0.627051 0.500000
vt 0.606624 0.500000
vt 0.585351 0.500000
vt 0.563468 0.500000
vt 0.541153 0.500000
vt 0.518552 0.500000
vt 0.495785 0.500000
vt 0.472965 0.500000
vt 0.450198 0.500000
vt 0.427596 0.500000
vt 0.405282 0.500000
vt 0.383399 0.500000
vt 0.362126 0.500000
vt 0.341698 0.500000
vt 0.322442 0.500000
vt 0.304833 0.500000
vt 0.289601 0.500000
vt 0.277944 0.500000
vt 0.271937 0.500000
vt 0.343891 0.500000
vt 0.527476 0.500000
vt 0.441273 0.500000
vt 0.600270 0.500000
vt 0.645754 0.500000
vt 0.667483 0.500000
vt 0.673638 0.500000
vt 0.670323 0.500000
vt 0.661161 0.500000
vt 0.648233 0.500000
vt 0.632767 0.500000
vt 0.615529 0.500000
vt 0.597019 0.500000
vt 0.577588 0.500000
vt 0.557486 0.500000
vt 0.536910 0.500000
vt 0.516017 0.500000
vt 0.494942 0.500000
vt 0.473808 0.500000
vt 0.452733 0.500000
vt 0.431840 0.500000
vt 0.411264 0.500000
vt 0.391162 0.500000
vt 0.371730 0.500000
vt 0.353221 0.500000
vt 0.335982 0.500000
vt 0.320516 0.500000
vt 0.307588 0.500000
vt 0.298427 0.500000
vt 0.295112 0.500000
vt 0.301267 0.500000
vt 0.322996 0.500000
vt 0.368479 0.500000
vt 0.441273 0.500000
vt 0.527476 0.500000
vt 0.516845 0.500000
vt 0.451905 0.500000
vt 0.574068 0.500000
vt 0.613831 0.500000
vt 0.667483 0.500000
vt 0.635891 0.500000
vt 0.673638 0.500000
vt 0.644591 0.500000
vt 0.644326 0.500000
vt 0.661161 0.500000
vt 0.638185 0.500000
vt 0.628123 0.500000
vt 0.632767 0.500000
vt 0.615364 0.500000
vt 0.615529 0.500000
vt 0.600692 0.500000
vt 0.597019 0.500000
vt 0.584636 0.500000
vt 0.567568 0.500000
vt 0.557486 0.500000
vt 0.549761 0.500000
vt 0.536910 0.500000
vt 0.531427 0.500000
vt 0.516017 0.500000
vt 0.512741 0.500000
vt 0.494942 0.500000
vt 0.493852 0.500000
vt 0.473808 0.500000
vt 0.474897 0.500000
vt 0.456008 0.500000
vt 0.437322 0.500000
vt 0.418989 0.500000
vt 0.391162 0.500000
vt 0.401182 0.500000
vt 0.371730 0.500000
vt 0.384113 0.500000
vt 0.353221 0.500000
vt 0.368057 0.500000
vt 0.353386 0.500000
vt 0.340626 0.500000
vt 0.307588 0.500000
vt 0.330565 0.500000
vt 0.324424 0.500000
vt 0.324158 0.500000
vt 0.332859 0.500000
vt 0.354919 0.500000
vt 0.368479 0.500000
vt 0.394682 0.500000
vt 0.463353 0.500000
vt 0.505396 0.500000
vt 0.543988 0.500000
vt 0.573940 0.500000
vt 0.593578 0.500000
vt 0.603920 0.500000
vt 0.606988 0.500000
vt 0.604714 0.500000
vt 0.598588 0.500000
vt 0.589675 0.500000
vt 0.578721 0.500000
vt 0.566258 0.500000
vt 0.552674 0.500000
vt 0.538265 0.500000
vt 0.523262 0.500000
vt 0.507861 0.500000
vt 0.492229 0.500000
vt 0.476521 0.500000
vt 0.460889 0.500000
vt 0.445488 0.500000
vt 0.430485 0.500000
vt 0.416075 0.500000
vt 0.402491 0.500000
vt 0.390029 0.500000
vt 0.379075 0.500000
vt 0.370162 0.500000
vt 0.364036 0.500000
vt 0.361761 0.500000
vt 0.364829 0.500000
vt 0.375172 0.500000
vt 0.394809 0.500000
vt 0.424761 0.500000
s 1
f 257/1/1 130/2/1 129/3/2 258/4/2
f 258/4/2 129/3/2 131/5/3 259/6/3
f 259/6/3 131/5/3 132/7/4 260/8/4
f 260/8/4 132/7/4 133/9/5 261/10/5
f 261/10/5 133/9/5 134/11/6 262/12/6
f 262/12/6 134/11/6 135/13/7 263/14/7
f 263/14/7 135/13/7 136/15/8 264/16/8
f 264/16/8 136/15/8 137/17/9 265/18/9
f 265/18/9 137/17/9 138/19/10 266/20/10
f 266/20/10 138/19/10 139/21/11 267/22/11
f 267/22/11 139/21/11 140/23/12 268/24/13
f 268/24/13 140/23/12 141/25/14 269/26/14
f 269/26/14 141/25/14 142/27/15 270/28/15
f 270/28/15 142/27/15 143/29/16 271/30/16
f 271/30/16 143/29/16 144/31/17 272/32/17
f 272/32/17 144/31/17 145/33/18 273/34/18
f 273/34/18 145/33/18 146/35/19 274/36/19
f 274/36/19 146/35/19 147/37/20 275/38/20
f 275/38/20 147/37/20 148/39/21 276/40/22
f 276/40/22 148/39/21 149/41/23 277/42/23
f 277/42/23 149/41/23 150/43/24 278/44/24
f 278/44/24 150/43/24 151/45/25 279/46/25
f 279/46/25 151/45/25 152/47/26 280/48/26
f 280/48/26 152/47/26 153/49/27 281/50/27
f 281/50/27 153/49/27 154/51/28 282/52/28
f 282/52/28 154/51/28 155/53/29 283/54/29
f 283/54/29 155/53/29 156/55/30 284/56/30
f 284/56/30 156/55/30 157/57/31 285/58/31
f 285/58/31 157/57/31 158/59/32 286/60/32
f 286/60/32 158/59/32 159/61/33 287/62/33
f 20/63/34 19/64/35 179/64/35 180/63/34
f 287/62/33 159/61/33 160/65/36 288/66/36
f 288/66/36 160/65/36 130/67/1 257/68/1
f 56/69/37 57/70/37 113/70/37 111/69/37
f 57/70/37 58/71/37 115/71/37 113/70/37
f 58/71/37 59/72/37 117/72/37 115/71/37
f 59/72/37 60/73/37 119/73/37 117/72/37
f 33/74/37 34/75/37 67/75/37 128/74/37
f 60/73/37 61/76/37 121/76/37 119/73/37
f 34/75/37 35/77/37 69/77/37 67/75/37
f 61/76/37 62/78/37 123/78/37 121/76/37
f 35/77/37 36/79/37 71/79/37 69/77/37
f 62/78/37 63/80/37 125/80/37 123/78/37
f 36/79/37 37/81/37 73/81/37 71/79/37
f 63/80/37 64/82/37 127/82/37 125/80/37
f 37/81/37 38/83/37 75/83/37 73/81/37
f 64/82/37 33/84/37 128/84/37 127/82/37
f 38/83/37 39/85/37 77/85/37 75/83/37
f 39/85/37 40/86/37 79/86/37 77/85/37
f 40/86/37 41/87/37 81/87/37 79/86/37
f 41/87/37 42/88/37 83/88/37 81/87/37
f 320/89/38 127/82/38 128/84/39 289/90/39
f 319/91/40 125/80/40 127/82/38 320/89/38
f 318/92/41 123/78/41 125/80/40 319/91/40
f 317/93/42 121/76/42 123/78/41 318/92/41
f 316/94/43 119/73/43 121/76/42 317/93/42
f 315/95/44 117/72/44 119/73/43 316/94/43
f 314/96/45 115/71/45 117/72/44 315/95/44
f 313/97/46 113/70/46 115/71/45 314/96/45
f 312/98/47 111/69/47 113/70/46 313/97/46
f 311/99/48 109/100/48 111/69/47 312/98/47
f 310/101/49 107/102/49 109/100/48 311/99/48
f 309/103/50 105/104/50 107/102/49 310/101/49
f 308/105/51 103/106/51 105/104/50 309/103/50
f 307/107/52 101/108/52 103/106/51 308/105/51
f 306/109/53 99/110/53 101/108/52 307/107/52
f 305/111/54 97/112/54 99/110/53 306/109/53
f 304/113/55 95/114/55 97/112/54 305/111/54
f 303/115/56 93/116/56 95/114/55 304/113/55
f 302/117/57 91/118/57 93/116/56 303/115/56
f 301/119/58 89/120/58 91/118/57 302/117/57
f 300/121/59 87/122/59 89/120/58 301/119/58
f 299/123/60 85/124/60 87/122/59 300/121/59
f 298/125/61 83/88/61 85/124/60 299/123/60
f 297/126/62 81/87/62 83/88/61 298/125/61
f 296/127/63 79/86/63 81/87/62 297/126/62
f 295/128/64 77/85/64 79/86/63 296/127/63
f 294/129/65 75/83/65 77/85/64 295/128/64
f 293/130/66 73/81/66 75/83/65 294/129/65
f 292/131/34 71/79/34 73/81/66 293/130/66
f 291/132/35 69/77/35 71/79/34 292/131/34
f 290/133/67 67/75/67 69/77/35 291/132/35
f 289/134/39 128/74/39 67/75/67 290/133/67
f 55/100/37 56/69/37 111/69/37 109/100/37
f 54/102/37 55/100/37 109/100/37 107/102/37
f 53/104/37 54/102/37 107/102/37 105/104/37
f 52/106/37 53/104/37 105/104/37 103/106/37
f 51/108/37 52/106/37 103/106/37 101/108/37
f 50/110/37 51/108/37 101/108/37 99/110/37
f 49/112/37 50/110/37 99/110/37 97/112/37
f 48/114/37 49/112/37 97/112/37 95/114/37
f 47/116/37 48/114/37 95/114/37 93/116/37
f 46/118/37 47/116/37 93/116/37 91/118/37
f 45/120/37 46/118/37 91/118/37 89/120/37
f 122/135/57 124/136/56 362/136/56 361/135/57
f 44/122/37 45/120/37 89/120/37 87/122/37
f 43/124/37 44/122/37 87/122/37 85/124/37
f 42/88/37 43/124/37 85/124/37 83/88/37
f 1/137/37 2/138/37 129/139/37 130/140/37
f 2/138/37 3/141/37 131/142/37 129/139/37
f 3/141/37 4/143/37 132/144/37 131/142/37
f 4/143/37 5/145/37 133/146/37 132/144/37
f 5/145/37 6/147/37 134/148/37 133/146/37
f 6/147/37 7/149/37 135/150/37 134/148/37
f 7/149/37 8/151/37 136/152/37 135/150/37
f 8/151/37 9/153/37 137/154/37 136/152/37
f 9/153/37 10/155/37 138/156/37 137/154/37
f 10/155/37 11/157/37 139/158/37 138/156/37
f 11/157/37 12/159/37 140/160/37 139/158/37
f 12/159/37 13/161/37 141/162/37 140/160/37
f 13/161/37 14/163/37 142/164/37 141/162/37
f 14/163/37 15/165/37 143/166/37 142/164/37
f 15/165/37 16/167/37 144/168/37 143/166/37
f 16/167/37 17/169/37 145/170/37 144/168/37
f 17/169/37 18/171/37 146/172/37 145/170/37
f 18/171/37 19/64/37 147/173/37 146/172/37
f 19/64/37 20/63/37 148/174/37 147/173/37
f 20/63/37 21/175/37 149/176/37 148/174/37
f 21/175/37 22/177/37 150/178/37 149/176/37
f 22/177/37 23/179/37 151/180/37 150/178/37
f 23/179/37 24/181/37 152/182/37 151/180/37
f 24/181/37 25/183/37 153/184/37 152/182/37
f 25/183/37 26/185/37 154/186/37 153/184/37
f 26/185/37 27/187/37 155/188/37 154/186/37
f 27/187/37 28/189/37 156/190/37 155/188/37
f 28/189/37 29/191/37 157/192/37 156/190/37
f 29/191/37 30/193/37 158/194/37 157/192/37
f 30/193/37 31/195/37 159/196/37 158/194/37
f 31/195/37 32/197/37 160/198/37 159/196/37
f 32/197/37 1/137/37 130/140/37 160/198/37
f 162/138/37 161/137/37 192/197/37 191/195/37 190/193/37 189/191/37 188/189/37 187/187/37 186/185/37 185/183/37 184/181/37 183/179/37 182/177/37 181/175/37 180/63/37 179/64/37 178/171/37 177/169/37 176/167/37 175/165/37 174/163/37 173/161/37 172/159/37 171/157/37 170/155/37 169/153/37 168/151/37 167/149/37 166/147/37 165/145/37 164/143/37 163/141/37
f 7/149/48 6/147/49 166/147/49 167/149/48
f 21/175/66 20/63/34 180/63/34 181/175/66
f 8/151/47 7/149/48 167/149/48 168/151/47
f 22/177/65 21/175/66 181/175/66 182/177/65
f 9/153/46 8/151/47 168/151/47 169/153/46
f 23/179/64 22/177/65 182/177/65 183/179/64
f 10/155/45 9/153/46 169/153/46 170/155/45
f 24/181/63 23/179/64 183/179/64 184/181/63
f 11/157/44 10/155/45 170/155/45 171/157/44
f 25/183/62 24/181/63 184/181/63 185/183/62
f 12/159/43 11/157/44 171/157/44 172/159/43
f 26/185/61 25/183/62 185/183/62 186/185/61
f 13/161/42 12/159/43 172/159/43 173/161/42
f 27/187/60 26/185/61 186/185/61 187/187/60
f 14/163/41 13/161/42 173/161/42 174/163/41
f 28/189/59 27/187/60 187/187/60 188/189/59
f 15/165/40 14/163/41 174/163/41 175/165/40
f 2/138/53 1/137/54 161/137/54 162/138/53
f 29/191/58 28/189/59 188/189/59 189/191/58
f 16/167/38 15/165/40 175/165/40 176/167/38
f 3/141/52 2/138/53 162/138/53 163/141/52
f 30/193/57 29/191/58 189/191/58 190/193/57
f 17/169/39 16/167/38 176/167/38 177/169/39
f 4/143/51 3/141/52 163/141/52 164/143/51
f 31/195/56 30/193/57 190/193/57 191/195/56
f 18/171/67 17/169/39 177/169/39 178/171/67
f 5/145/50 4/143/51 164/143/51 165/145/50
f 32/197/55 31/195/56 191/195/56 192/197/55
f 19/64/35 18/171/67 178/171/67 179/64/35
f 6/147/49 5/145/50 165/145/50 166/147/49
f 1/137/54 32/197/55 192/197/55 161/137/54
f 255/199/38 224/200/38 193/201/39 256/202/39
f 254/203/40 223/204/40 224/200/38 255/199/38
f 253/205/41 222/206/41 223/204/40 254/203/40
f 252/207/42 221/208/42 222/206/41 253/205/41
f 251/209/43 220/210/43 221/208/42 252/207/42
f 250/211/44 219/212/44 220/210/43 251/209/43
f 249/213/45 218/214/45 219/212/44 250/211/44
f 248/215/46 217/216/46 218/214/45 249/213/45
f 247/217/47 216/218/47 217/216/46 248/215/46
f 246/219/48 215/220/48 216/218/47 247/217/47
f 245/221/49 214/222/49 215/220/48 246/219/48
f 244/223/50 213/224/50 214/222/49 245/221/49
f 243/225/51 212/226/51 213/224/50 244/223/50
f 242/227/52 211/228/52 212/226/51 243/225/51
f 241/229/53 210/230/53 211/228/52 242/227/52
f 240/231/54 209/232/54 210/230/53 241/229/53
f 239/233/55 208/234/55 209/232/54 240/231/54
f 238/235/56 207/236/56 208/234/55 239/233/55
f 237/237/57 206/238/57 207/236/56 238/235/56
f 236/239/58 205/240/58 206/238/57 237/237/57
f 235/241/59 204/242/59 205/240/58 236/239/58
f 234/243/60 203/244/60 204/242/59 235/241/59
f 233/245/61 202/246/61 203/244/60 234/243/60
f 232/247/62 201/248/62 202/246/61 233/245/61
f 231/249/63 200/250/63 201/248/62 232/247/62
f 230/251/64 199/252/64 200/250/63 231/249/63
f 229/253/65 198/254/65 199/252/64 230/251/64
f 228/255/66 197/256/66 198/254/65 229/253/65
f 227/257/34 196/258/34 197/256/66 228/255/66
f 226/259/35 195/260/35 196/258/34 227/257/34
f 225/261/67 194/262/67 195/260/35 226/259/35
f 256/263/39 193/264/39 194/262/67 225/261/67
f 33/74/39 256/263/39 225/261/67 34/75/67
f 34/75/67 225/261/67 226/259/35 35/77/35
f 35/77/35 226/259/35 227/257/34 36/79/34
f 36/79/34 227/257/34 228/255/66 37/81/66
f 37/81/66 228/255/66 229/253/65 38/83/65
f 38/83/65 229/253/65 230/251/64 39/85/64
f 39/85/64 230/251/64 231/249/63 40/86/63
f 40/86/63 231/249/63 232/247/62 41/87/62
f 41/87/62 232/247/62 233/245/61 42/88/61
f 42/88/61 233/245/61 234/243/60 43/124/60
f 43/124/60 234/243/60 235/241/59 44/122/59
f 44/122/59 235/241/59 236/239/58 45/120/58
f 45/120/58 236/239/58 237/237/57 46/118/57
f 46/118/57 237/237/57 238/235/56 47/116/56
f 47/116/56 238/235/56 239/233/55 48/114/55
f 48/114/55 239/233/55 240/231/54 49/112/54
f 49/112/54 240/231/54 241/229/53 50/110/53
f 50/110/53 241/229/53 242/227/52 51/108/52
f 51/108/52 242/227/52 243/225/51 52/106/51
f 52/106/51 243/225/51 244/223/50 53/104/50
f 53/104/50 244/223/50 245/221/49 54/102/49
f 54/102/49 245/221/49 246/219/48 55/100/48
f 55/100/48 246/219/48 247/217/47 56/69/47
f 56/69/47 247/217/47 248/215/46 57/70/46
f 57/70/46 248/215/46 249/213/45 58/71/45
f 58/71/45 249/213/45 250/211/44 59/72/44
f 59/72/44 250/211/44 251/209/43 60/73/43
f 60/73/43 251/209/43 252/207/42 61/76/42
f 61/76/42 252/207/42 253/205/41 62/78/41
f 62/78/41 253/205/41 254/203/40 63/80/40
f 63/80/40 254/203/40 255/199/38 64/82/38
f 64/82/38 255/199/38 256/202/39 33/84/39
f 224/200/68 288/66/68 257/68/69 193/201/69
f 223/204/70 287/62/70 288/66/68 224/200/68
f 222/206/71 286/60/71 287/62/70 223/204/70
f 221/208/72 285/58/72 286/60/71 222/206/71
f 220/210/73 284/56/73 285/58/72 221/208/72
f 219/212/74 283/54/74 284/56/73 220/210/73
f 218/214/75 282/52/75 283/54/74 219/212/74
f 217/216/76 281/50/76 282/52/75 218/214/75
f 216/218/77 280/48/77 281/50/76 217/216/76
f 215/220/78 279/46/78 280/48/77 216/218/77
f 214/222/79 278/44/79 279/46/78 215/220/78
f 213/224/80 277/42/80 278/44/79 214/222/79
f 212/226/81 276/40/81 277/42/80 213/224/80
f 211/228/82 275/38/82 276/40/81 212/226/81
f 210/230/83 274/36/83 275/38/82 211/228/82
f 209/232/84 273/34/84 274/36/83 210/230/83
f 208/234/85 272/32/85 273/34/84 209/232/84
f 207/236/86 271/30/86 272/32/85 208/234/85
f 206/238/87 270/28/87 271/30/86 207/236/86
f 205/240/88 269/26/88 270/28/87 206/238/87
f 204/242/89 268/24/89 269/26/88 205/240/88
f 203/244/90 267/22/90 268/24/89 204/242/89
f 202/246/91 266/20/91 267/22/90 203/244/90
f 201/248/92 265/18/92 266/20/91 202/246/91
f 200/250/93 264/16/93 265/18/92 201/248/92
f 199/252/94 263/14/94 264/16/93 200/250/93
f 198/254/95 262/12/95 263/14/94 199/252/94
f 197/256/96 261/10/96 262/12/95 198/254/95
f 196/258/97 260/8/97 261/10/96 197/256/96
f 195/260/98 259/6/98 260/8/97 196/258/97
f 194/262/99 258/4/99 259/6/98 195/260/98
f 193/264/69 257/1/69 258/4/99 194/262/99
f 66/265/100 65/266/100 289/90/100 290/133/100
f 68/267/100 66/265/100 290/133/100 291/132/100
f 70/268/100 68/267/100 291/132/100 292/131/100
f 72/269/100 70/268/100 292/131/100 293/130/100
f 74/270/100 72/269/100 293/130/100 294/129/100
f 76/271/100 74/270/100 294/129/100 295/128/100
f 78/272/100 76/271/100 295/128/100 296/127/100
f 80/273/100 78/272/100 296/127/100 297/126/100
f 82/274/100 80/273/100 297/126/100 298/125/100
f 84/275/100 82/274/100 298/125/100 299/123/100
f 86/276/100 84/275/100 299/123/100 300/121/100
f 88/277/100 86/276/100 300/121/100 301/119/100
f 90/278/100 88/277/100 301/119/100 302/117/100
f 92/279/100 90/278/100 302/117/100 303/115/100
f 94/280/100 92/279/100 303/115/100 304/113/100
f 96/281/100 94/280/100 304/113/100 305/111/100
f 98/282/100 96/281/100 305/111/100 306/109/100
f 100/283/100 98/282/100 306/109/100 307/107/100
f 102/284/100 100/283/100 307/107/100 308/105/100
f 104/285/100 102/284/100 308/105/100 309/103/100
f 106/286/100 104/285/100 309/103/100 310/101/100
f 108/287/100 106/286/100 310/101/100 311/99/100
f 110/288/100 108/287/100 311/99/100 312/98/100
f 112/289/100 110/288/100 312/98/100 313/97/100
f 114/290/100 112/289/100 313/97/100 314/96/100
f 116/291/100 114/290/100 314/96/100 315/95/100
f 118/292/100 116/291/100 315/95/100 316/94/100
f 120/293/100 118/292/100 316/94/100 317/93/100
f 122/135/100 120/293/100 317/93/100 318/92/100
f 124/136/100 122/135/100 318/92/100 319/91/100
f 126/294/100 124/136/100 319/91/100 320/89/100
f 65/266/100 126/294/100 320/89/100 289/90/100
f 96/281/39 98/282/67 349/282/67 348/281/39
f 70/268/51 72/269/50 336/269/50 335/268/51
f 124/136/56 126/294/55 363/294/55 362/136/56
f 98/282/67 100/283/35 350/283/35 349/282/67
f 72/269/50 74/270/49 337/270/49 336/269/50
f 126/294/55 65/266/54 332/266/54 363/294/55
f 100/283/35 102/284/34 351/284/34 350/283/35
f 74/270/49 76/271/48 338/271/48 337/270/49
f 102/284/34 104/285/66 352/285/66 351/284/34
f 76/271/48 78/272/47 339/272/47 338/271/48
f 104/285/66 106/286/65 353/286/65 352/285/66
f 78/272/47 80/273/46 340/273/46 339/272/47
f 106/286/65 108/287/64 354/287/64 353/286/65
f 80/273/46 82/274/45 341/274/45 340/273/46
f 108/287/64 110/288/63 355/288/63 354/287/64
f 82/274/45 84/275/44 342/275/44 341/274/45
f 110/288/63 112/289/62 356/289/62 355/288/63
f 84/275/44 86/276/43 343/276/43 342/275/44
f 112/289/62 114/290/61 357/290/61 356/289/62
f 86/276/43 88/277/42 344/277/42 343/276/43
f 114/290/61 116/291/60 358/291/60 357/290/61
f 88/277/42 90/278/41 345/278/41 344/277/42
f 116/291/60 118/292/59 359/292/59 358/291/60
f 90/278/41 92/279/40 346/279/40 345/278/41
f 65/266/54 66/265/53 333/265/53 332/266/54
f 118/292/59 120/293/58 360/293/58 359/292/59
f 92/279/40 94/280/38 347/280/38 346/279/40
f 66/265/53 68/267/52 334/267/52 333/265/53
f 120/293/58 122/135/57 361/135/57 360/293/58
f 94/280/38 96/281/39 348/281/39 347/280/38
f 68/267/52 70/268/51 335/268/51 334/267/52
f 365/295/100 364/296/100 332/266/100 333/265/100
f 366/297/100 365/295/100 333/265/100 334/267/100
f 321/298/100 366/297/100 334/267/100 335/268/100
f 368/299/100 321/298/100 335/268/100 336/269/100
f 322/300/100 368/299/100 336/269/100 337/270/100
f 369/301/100 322/300/100 337/270/100 338/271/100
f 323/302/100 369/301/100 338/271/100 339/272/100
f 324/303/100 323/302/100 339/272/100 340/273/100
f 370/304/100 324/303/100 340/273/100 341/274/100
f 371/305/100 370/304/100 341/274/100 342/275/100
f 325/306/100 371/305/100 342/275/100 343/276/100
f 372/307/100 325/306/100 343/276/100 344/277/100
f 326/308/100 372/307/100 344/277/100 345/278/100
f 373/309/100 326/308/100 345/278/100 346/279/100
f 374/310/100 373/309/100 346/279/100 347/280/100
f 375/311/100 374/310/100 347/280/100 348/281/100
f 376/312/100 375/311/100 348/281/100 349/282/100
f 377/313/100 376/312/100 349/282/100 350/283/100
f 327/314/100 377/313/100 350/283/100 351/284/100
f 328/315/100 327/314/100 351/284/100 352/285/100
f 378/316/100 328/315/100 352/285/100 353/286/100
f 379/317/100 378/316/100 353/286/100 354/287/100
f 380/318/100 379/317/100 354/287/100 355/288/100
f 329/319/100 380/318/100 355/288/100 356/289/100
f 381/320/100 329/319/100 356/289/100 357/290/100
f 382/321/100 381/320/100 357/290/100 358/291/100
f 383/322/100 382/321/100 358/291/100 359/292/100
f 384/323/100 383/322/100 359/292/100 360/293/100
f 330/324/100 384/323/100 360/293/100 361/135/100
f 385/325/100 330/324/100 361/135/100 362/136/100
f 331/326/100 385/325/100 362/136/100 363/294/100
f 364/296/100 331/326/100 363/294/100 332/266/100
f 364/327/101 365/328/102 386/329/102 387/330/101
f 365/328/102 366/297/103 388/331/103 386/329/102
f 366/297/103 321/298/104 389/332/104 388/331/103
f 321/298/104 368/333/105 390/334/105 389/332/104
f 368/333/105 322/335/106 391/336/106 390/334/105
f 322/335/106 369/301/107 392/337/107 391/336/106
f 369/301/107 323/338/108 393/339/108 392/337/107
f 323/338/108 324/303/109 394/340/109 393/339/108
f 324/303/109 370/341/110 395/342/110 394/340/109
f 370/341/110 371/343/111 396/344/111 395/342/110
f 371/343/111 325/345/112 397/346/112 396/344/111
f 325/345/112 372/307/113 398/347/113 397/346/112
f 372/307/113 326/348/114 399/349/114 398/347/113
f 326/348/114 373/350/115 400/351/115 399/349/114
f 373/350/115 374/352/116 401/353/116 400/351/115
f 374/352/116 375/354/117 402/355/117 401/353/116
f 375/354/117 376/356/118 403/357/118 402/355/117
f 376/356/118 377/313/119 404/358/119 403/357/118
f 377/313/119 327/314/120 405/359/120 404/358/119
f 327/314/120 328/315/121 406/360/121 405/359/120
f 328/315/121 378/361/122 407/362/122 406/360/121
f 378/361/122 379/363/123 408/364/123 407/362/122
f 379/363/123 380/365/124 409/366/124 408/364/123
f 380/365/124 329/319/125 410/367/125 409/366/124
f 329/319/125 381/320/126 411/368/126 410/367/125
f 381/320/126 382/369/127 412/370/127 411/368/126
f 382/369/127 383/322/128 413/371/128 412/370/127
f 383/322/128 384/323/129 414/372/129 413/371/128
f 384/323/129 330/324/130 415/373/130 414/372/129
f 330/324/130 385/325/131 416/374/131 415/373/130
f 385/325/131 331/375/132 417/376/132 416/374/131
f 331/375/132 364/327/101 387/330/101 417/376/132
f 367/377/100 387/330/100 386/329/100
f 367/378/100 386/329/100 388/331/100
f 367/379/100 388/331/100 389/332/100
f 367/380/100 389/332/100 390/334/100
f 367/381/100 390/334/100 391/336/100
f 367/382/100 391/336/100 392/337/100
f 367/383/100 392/337/100 393/339/100
f 367/384/100 393/339/100 394/340/100
f 367/385/100 394/340/100 395/342/100
f 367/386/100 395/342/100 396/344/100
f 367/387/100 396/344/100 397/346/100
f 367/388/100 397/346/100 398/347/100
f 367/389/100 398/347/100 399/349/100
f 367/390/100 399/349/100 400/351/100
f 367/391/100 400/351/100 401/353/100
f 367/392/100 401/353/100 402/355/100
f 367/393/100 402/355/100 403/357/100
f 367/394/100 403/357/100 404/358/100
f 367/395/100 404/358/100 405/359/100
f 367/396/100 405/359/100 406/360/100
f 367/397/100 406/360/100 407/362/100
f 367/398/100 407/362/100 408/364/100
f 367/399/100 408/364/100 409/366/100
f 367/400/100 409/366/100 410/367/100
f 367/401/100 410/367/100 411/368/100
f 367/402/100 411/368/100 412/370/100
f 367/403/100 412/370/100 413/371/100
f 367/404/100 413/371/100 414/372/100
f 367/405/100 414/372/100 415/373/100
f 367/406/100 415/373/100 416/374/100
f 367/407/100 416/374/100 417/376/100
f 367/408/100 417/376/100 387/330/100
