# Blender 4.5.1 LTS
# www.blender.org
o Case-Cannon-2L1W
v 0.000001 1.500000 -0.100492
v 0.019606 1.500000 -0.098561
v 0.038457 1.500000 -0.092842
v 0.055831 1.500000 -0.083556
v 0.071059 1.500000 -0.071058
v 0.083556 1.500000 -0.055830
v 0.092843 1.500000 -0.038456
v 0.098561 1.500000 -0.019605
v 0.100492 1.500000 0.000000
v 0.098561 1.500000 0.019605
v 0.092843 1.500000 0.038456
v 0.083556 1.500000 0.055830
v 0.071059 1.500000 0.071058
v 0.055831 1.500000 0.083556
v 0.038457 1.500000 0.092842
v 0.019606 1.500000 0.098561
v 0.000001 1.500000 0.100492
v -0.019604 1.500000 0.098561
v -0.038456 1.500000 0.092842
v -0.055830 1.500000 0.083556
v -0.071058 1.500000 0.071058
v -0.083555 1.500000 0.055830
v -0.092842 1.500000 0.038456
v -0.098560 1.500000 0.019605
v -0.100491 1.500000 0.000000
v -0.098560 1.500000 -0.019605
v -0.092842 1.500000 -0.038456
v -0.083555 1.500000 -0.055830
v -0.071058 1.500000 -0.071058
v -0.055830 1.500000 -0.083556
v -0.038456 1.500000 -0.092842
v -0.019604 1.500000 -0.098561
v 0.000000 0.020000 -0.125000
v 0.024386 0.020000 -0.122598
v 0.047835 0.020000 -0.115485
v 0.069446 0.020000 -0.103934
v 0.088388 0.020000 -0.088388
v 0.103934 0.020000 -0.069446
v 0.115485 0.020000 -0.047835
v 0.122598 0.020000 -0.024386
v 0.125000 0.020000 0.000000
v 0.122598 0.020000 0.024386
v 0.115485 0.020000 0.047835
v 0.103934 0.020000 0.069446
v 0.088388 0.020000 0.088388
v 0.069446 0.020000 0.103934
v 0.047835 0.020000 0.115485
v 0.024386 0.020000 0.122598
v 0.000000 0.020000 0.125000
v -0.024386 0.020000 0.122598
v -0.047835 0.020000 0.115485
v -0.069446 0.020000 0.103934
v -0.088388 0.020000 0.088388
v -0.103934 0.020000 0.069446
v -0.115485 0.020000 0.047835
v -0.122598 0.020000 0.024386
v -0.125000 0.020000 0.000000
v -0.122598 0.020000 -0.024386
v -0.115485 0.020000 -0.047835
v -0.103934 0.020000 -0.069446
v -0.088388 0.020000 -0.088388
v -0.069446 0.020000 -0.103934
v -0.047835 0.020000 -0.115485
v -0.024386 0.020000 -0.122598
v 0.000000 0.000000 -0.085490
v 0.016678 0.000000 -0.083848
v 0.027435 0.020000 -0.137923
v 0.032716 0.000000 -0.078983
v 0.053815 0.020000 -0.129921
v 0.047496 0.000000 -0.071083
v 0.078127 0.020000 -0.116925
v 0.060451 0.000000 -0.060451
v 0.099437 0.020000 -0.099437
v 0.071083 0.000000 -0.047496
v 0.116925 0.020000 -0.078127
v 0.078983 0.000000 -0.032716
v 0.129921 0.020000 -0.053815
v 0.083848 0.000000 -0.016678
v 0.137923 0.020000 -0.027435
v 0.085490 0.000000 0.000000
v 0.140625 0.020000 0.000000
v 0.083848 0.000000 0.016678
v 0.137923 0.020000 0.027435
v 0.078983 0.000000 0.032716
v 0.129921 0.020000 0.053815
v 0.071083 0.000000 0.047496
v 0.116925 0.020000 0.078127
v 0.060451 0.000000 0.060451
v 0.099437 0.020000 0.099437
v 0.047496 0.000000 0.071083
v 0.078127 0.020000 0.116925
v 0.032716 0.000000 0.078983
v 0.053815 0.020000 0.129921
v 0.016678 0.000000 0.083848
v 0.027435 0.020000 0.137923
v 0.000000 0.000000 0.085490
v 0.000000 0.020000 0.140625
v -0.016678 0.000000 0.083848
v -0.027435 0.020000 0.137923
v -0.032716 0.000000 0.078983
v -0.053815 0.020000 0.129921
v -0.047496 0.000000 0.071083
v -0.078127 0.020000 0.116925
v -0.060451 0.000000 0.060451
v -0.099437 0.020000 0.099437
v -0.071083 0.000000 0.047496
v -0.116925 0.020000 0.078127
v -0.078983 0.000000 0.032716
v -0.129921 0.020000 0.053815
v -0.083848 0.000000 0.016678
v -0.137923 0.020000 0.027435
v -0.085490 0.000000 0.000000
v -0.140625 0.020000 0.000000
v -0.083848 0.000000 -0.016678
v -0.137923 0.020000 -0.027435
v -0.078983 0.000000 -0.032716
v -0.129921 0.020000 -0.053815
v -0.071083 0.000000 -0.047496
v -0.116925 0.020000 -0.078127
v -0.060451 0.000000 -0.060451
v -0.099437 0.020000 -0.099437
v -0.047496 0.000000 -0.071083
v -0.078127 0.020000 -0.116925
v -0.032716 0.000000 -0.078983
v -0.053815 0.020000 -0.129921
v -0.016678 0.000000 -0.083848
v -0.027435 0.020000 -0.137923
v 0.000000 0.020000 -0.140625
v 0.020449 1.500000 -0.102803
v 0.000000 1.500000 -0.104817
v 0.040112 1.500000 -0.096838
v 0.058233 1.500000 -0.087152
v 0.074117 1.500000 -0.074117
v 0.087152 1.500000 -0.058233
v 0.096838 1.500000 -0.040112
v 0.102803 1.500000 -0.020449
v 0.104817 1.500000 0.000000
v 0.102803 1.500000 0.020449
v 0.096838 1.500000 0.040112
v 0.087152 1.500000 0.058233
v 0.074117 1.500000 0.074117
v 0.058233 1.500000 0.087152
v 0.040112 1.500000 0.096838
v 0.020449 1.500000 0.102803
v 0.000000 1.500000 0.104817
v -0.020449 1.500000 0.102803
v -0.040112 1.500000 0.096838
v -0.058233 1.500000 0.087152
v -0.074117 1.500000 0.074117
v -0.087152 1.500000 0.058233
v -0.096838 1.500000 0.040112
v -0.102803 1.500000 0.020449
v -0.104817 1.500000 0.000000
v -0.102803 1.500000 -0.020449
v -0.096838 1.500000 -0.040112
v -0.087152 1.500000 -0.058233
v -0.074117 1.500000 -0.074117
v -0.058233 1.500000 -0.087152
v -0.040112 1.500000 -0.096838
v -0.020449 1.500000 -0.102803
v -0.000002 0.060000 -0.100492
v 0.019603 0.060000 -0.098561
v 0.038455 0.060000 -0.092842
v 0.055828 0.060000 -0.083556
v 0.071057 0.060000 -0.071058
v 0.083554 0.060000 -0.055830
v 0.092841 0.060000 -0.038456
v 0.098559 0.060000 -0.019605
v 0.100490 0.060000 0.000000
v 0.098559 0.060000 0.019605
v 0.092841 0.060000 0.038456
v 0.083554 0.060000 0.055830
v 0.071057 0.060000 0.071058
v 0.055828 0.060000 0.083556
v 0.038455 0.060000 0.092842
v 0.019603 0.060000 0.098561
v -0.000002 0.060000 0.100492
v -0.019607 0.060000 0.098561
v -0.038458 0.060000 0.092842
v -0.055832 0.060000 0.083556
v -0.071060 0.060000 0.071058
v -0.083557 0.060000 0.055830
v -0.092844 0.060000 0.038456
v -0.098562 0.060000 0.019605
v -0.100493 0.060000 0.000000
v -0.098562 0.060000 -0.019605
v -0.092844 0.060000 -0.038456
v -0.083557 0.060000 -0.055830
v -0.071060 0.060000 -0.071058
v -0.055832 0.060000 -0.083556
v -0.038458 0.060000 -0.092842
v -0.019607 0.060000 -0.098561
v 0.000000 0.810001 -0.125000
v 0.024386 0.810001 -0.122598
v 0.047835 0.810001 -0.115485
v 0.069446 0.810001 -0.103934
v 0.088388 0.810001 -0.088388
v 0.103934 0.810001 -0.069446
v 0.115485 0.810001 -0.047835
v 0.122598 0.810001 -0.024386
v 0.125000 0.810001 0.000000
v 0.122598 0.810001 0.024386
v 0.115485 0.810001 0.047835
v 0.103934 0.810001 0.069446
v 0.088388 0.810001 0.088388
v 0.069446 0.810001 0.103934
v 0.047835 0.810001 0.115485
v 0.024386 0.810001 0.122598
v 0.000000 0.810001 0.125000
v -0.024386 0.810001 0.122598
v -0.047835 0.810001 0.115485
v -0.069446 0.810001 0.103934
v -0.088388 0.810001 0.088388
v -0.103934 0.810001 0.069446
v -0.115485 0.810001 0.047835
v -0.122598 0.810001 0.024386
v -0.125000 0.810001 0.000000
v -0.122598 0.810001 -0.024386
v -0.115485 0.810001 -0.047835
v -0.103934 0.810001 -0.069446
v -0.088388 0.810001 -0.088388
v -0.069446 0.810001 -0.103934
v -0.047835 0.810001 -0.115485
v -0.024386 0.810001 -0.122598
v 0.024386 0.790001 -0.122598
v 0.047835 0.790001 -0.115485
v 0.069446 0.790001 -0.103934
v 0.088388 0.790001 -0.088388
v 0.103934 0.790001 -0.069446
v 0.115485 0.790001 -0.047835
v 0.122598 0.790001 -0.024386
v 0.125000 0.790001 0.000000
v 0.122598 0.790001 0.024386
v 0.115485 0.790001 0.047835
v 0.103934 0.790001 0.069446
v 0.088388 0.790001 0.088388
v 0.069446 0.790001 0.103934
v 0.047835 0.790001 0.115485
v 0.024386 0.790001 0.122598
v 0.000000 0.790001 0.125000
v -0.024386 0.790001 0.122598
v -0.047835 0.790001 0.115485
v -0.069446 0.790001 0.103934
v -0.088388 0.790001 0.088388
v -0.103934 0.790001 0.069446
v -0.115485 0.790001 0.047835
v -0.122598 0.790001 0.024386
v -0.125000 0.790001 0.000000
v -0.122598 0.790001 -0.024386
v -0.115485 0.790001 -0.047835
v -0.103934 0.790001 -0.069446
v -0.088388 0.790001 -0.088388
v -0.069446 0.790001 -0.103934
v -0.047835 0.790001 -0.115485
v -0.024386 0.790001 -0.122598
v 0.000000 0.790001 -0.125000
v 0.000000 1.427500 -0.105314
v 0.020546 1.427500 -0.103290
v 0.040302 1.427500 -0.097297
v 0.058509 1.427500 -0.087565
v 0.074468 1.427500 -0.074468
v 0.087565 1.427500 -0.058509
v 0.097297 1.427500 -0.040302
v 0.103290 1.427500 -0.020546
v 0.105314 1.427500 -0.000000
v 0.103290 1.427500 0.020546
v 0.097297 1.427500 0.040302
v 0.087565 1.427500 0.058509
v 0.074468 1.427500 0.074468
v 0.058509 1.427500 0.087565
v 0.040302 1.427500 0.097297
v 0.020546 1.427500 0.103290
v 0.000000 1.427500 0.105314
v -0.020546 1.427500 0.103290
v -0.040302 1.427500 0.097297
v -0.058509 1.427500 0.087565
v -0.074468 1.427500 0.074468
v -0.087565 1.427500 0.058509
v -0.097297 1.427500 0.040302
v -0.103290 1.427500 0.020546
v -0.105314 1.427500 -0.000000
v -0.103290 1.427500 -0.020546
v -0.097297 1.427500 -0.040302
v -0.087565 1.427500 -0.058509
v -0.074468 1.427500 -0.074468
v -0.058509 1.427500 -0.087565
v -0.040302 1.427500 -0.097297
v -0.020546 1.427500 -0.103290
v 0.000000 0.000000 -0.140625
v 0.027435 0.000000 -0.137923
v 0.053815 0.000000 -0.129921
v 0.078127 0.000000 -0.116925
v 0.099437 0.000000 -0.099437
v 0.116925 0.000000 -0.078127
v 0.129921 0.000000 -0.053815
v 0.137923 0.000000 -0.027435
v 0.140625 0.000000 0.000000
v 0.137923 0.000000 0.027435
v 0.129921 0.000000 0.053815
v 0.116925 0.000000 0.078127
v 0.099437 0.000000 0.099437
v 0.078127 0.000000 0.116925
v 0.053815 0.000000 0.129921
v 0.027435 0.000000 0.137923
v 0.000000 0.000000 0.140625
v -0.027435 0.000000 0.137923
v -0.053815 0.000000 0.129921
v -0.078127 0.000000 0.116925
v -0.099437 0.000000 0.099437
v -0.116925 0.000000 0.078127
v -0.129921 0.000000 0.053815
v -0.137923 0.000000 0.027435
v -0.140625 0.000000 0.000000
v -0.137923 0.000000 -0.027435
v -0.129921 0.000000 -0.053815
v -0.116925 0.000000 -0.078127
v -0.099437 0.000000 -0.099437
v -0.078127 0.000000 -0.116925
v -0.053815 0.000000 -0.129921
v -0.027435 0.000000 -0.137923
v 0.042840 0.010000 -0.064115
v 0.064115 0.010000 -0.042840
v 0.075629 0.010000 -0.015044
v 0.077111 0.010000 0.000000
v 0.064115 0.010000 0.042840
v 0.042840 0.010000 0.064115
v -0.042840 0.010000 0.064115
v -0.054526 0.010000 0.054526
v -0.077111 0.010000 0.000000
v -0.042840 0.010000 -0.064115
v -0.015044 0.010000 -0.075629
v 0.000000 0.010000 -0.085490
v 0.016678 0.010000 -0.083848
v 0.032716 0.010000 -0.078983
v 0.047496 0.010000 -0.071083
v 0.060451 0.010000 -0.060451
v 0.071083 0.010000 -0.047496
v 0.078983 0.010000 -0.032716
v 0.083848 0.010000 -0.016678
v 0.085490 0.010000 0.000000
v 0.083848 0.010000 0.016678
v 0.078983 0.010000 0.032716
v 0.071083 0.010000 0.047496
v 0.060451 0.010000 0.060451
v 0.047496 0.010000 0.071083
v 0.032716 0.010000 0.078983
v 0.016678 0.010000 0.083848
v 0.000000 0.010000 0.085490
v -0.016678 0.010000 0.083848
v -0.032716 0.010000 0.078983
v -0.047496 0.010000 0.071083
v -0.060451 0.010000 0.060451
v -0.071083 0.010000 0.047496
v -0.078983 0.010000 0.032716
v -0.083848 0.010000 0.016678
v -0.085490 0.010000 0.000000
v -0.083848 0.010000 -0.016678
v -0.078983 0.010000 -0.032716
v -0.071083 0.010000 -0.047496
v -0.060451 0.010000 -0.060451
v -0.047496 0.010000 -0.071083
v -0.032716 0.010000 -0.078983
v -0.016678 0.010000 -0.083848
v -0.000000 0.010000 -0.077111
v 0.015044 0.010000 -0.075629
v 0.029509 0.010000 -0.071241
v -0.000000 0.000000 0.000000
v 0.054526 0.010000 -0.054526
v 0.071241 0.010000 -0.029509
v 0.075629 0.010000 0.015044
v 0.071241 0.010000 0.029509
v 0.054526 0.010000 0.054526
v 0.029509 0.010000 0.071241
v 0.015044 0.010000 0.075629
v -0.000000 0.010000 0.077111
v -0.015044 0.010000 0.075629
v -0.029509 0.010000 0.071241
v -0.064115 0.010000 0.042840
v -0.071241 0.010000 0.029509
v -0.075629 0.010000 0.015044
v -0.075629 0.010000 -0.015044
v -0.071241 0.010000 -0.029509
v -0.064115 0.010000 -0.042840
v -0.054526 0.010000 -0.054526
v -0.029509 0.010000 -0.071241
v 0.013002 0.000000 -0.065363
v 0.000000 0.000000 -0.066644
v 0.025503 0.000000 -0.061571
v 0.037025 0.000000 -0.055412
v 0.047124 0.000000 -0.047124
v 0.055412 0.000000 -0.037025
v 0.061571 0.000000 -0.025503
v 0.065363 0.000000 -0.013002
v 0.066644 0.000000 0.000000
v 0.065363 0.000000 0.013002
v 0.061571 0.000000 0.025503
v 0.055412 0.000000 0.037025
v 0.047124 0.000000 0.047124
v 0.037025 0.000000 0.055412
v 0.025503 0.000000 0.061571
v 0.013002 0.000000 0.065363
v 0.000000 0.000000 0.066644
v -0.013002 0.000000 0.065363
v -0.025503 0.000000 0.061571
v -0.037025 0.000000 0.055412
v -0.047124 0.000000 0.047124
v -0.055412 0.000000 0.037025
v -0.061571 0.000000 0.025503
v -0.065363 0.000000 0.013002
v -0.066644 0.000000 0.000000
v -0.065363 0.000000 -0.013002
v -0.061571 0.000000 -0.025503
v -0.055412 0.000000 -0.037025
v -0.047124 0.000000 -0.047124
v -0.037025 0.000000 -0.055412
v -0.025503 0.000000 -0.061571
v -0.013002 0.000000 -0.065363
vn -0.0000 0.0069 -1.0000
vn 0.1951 0.0069 -0.9808
vn 0.3827 0.0069 -0.9239
vn 0.5556 0.0069 -0.8315
vn 0.7071 0.0069 -0.7071
vn 0.8315 0.0069 -0.5556
vn 0.9239 0.0069 -0.3827
vn 0.9808 0.0069 -0.1951
vn 1.0000 0.0069 -0.0000
vn 0.9808 0.0069 0.1951
vn 0.9239 0.0069 0.3827
vn 0.8314 0.0069 0.5556
vn 0.7071 0.0069 0.7071
vn 0.5556 0.0069 0.8315
vn 0.3827 0.0069 0.9239
vn 0.1951 0.0069 0.9808
vn -0.0000 0.0069 1.0000
vn -0.1951 0.0069 0.9808
vn -0.3827 0.0069 0.9239
vn -0.5556 0.0069 0.8315
vn -0.5556 0.0069 0.8314
vn -0.7071 0.0069 0.7071
vn -0.8315 0.0069 0.5556
vn -0.9239 0.0069 0.3827
vn -0.9808 0.0069 0.1951
vn -1.0000 0.0069 -0.0000
vn -0.9808 0.0069 -0.1951
vn -0.9239 0.0069 -0.3827
vn -0.8315 0.0069 -0.5556
vn -0.7071 0.0069 -0.7071
vn -0.5556 0.0069 -0.8315
vn -0.3827 0.0069 -0.9239
vn 0.5556 -0.0000 -0.8315
vn 0.3827 -0.0000 -0.9239
vn -0.1951 0.0069 -0.9808
vn -0.0000 1.0000 -0.0000
vn -0.1951 -0.0000 -0.9808
vn -0.0000 -0.0000 -1.0000
vn -0.3827 -0.0000 -0.9239
vn -0.5556 -0.0000 -0.8315
vn -0.7071 -0.0000 -0.7071
vn -0.8315 -0.0000 -0.5556
vn -0.9239 -0.0000 -0.3827
vn -0.9808 -0.0000 -0.1951
vn -1.0000 -0.0000 -0.0000
vn -0.9808 -0.0000 0.1951
vn -0.9239 -0.0000 0.3827
vn -0.8315 -0.0000 0.5556
vn -0.7071 -0.0000 0.7071
vn -0.5556 -0.0000 0.8315
vn -0.3827 -0.0000 0.9239
vn -0.1951 -0.0000 0.9808
vn -0.0000 -0.0000 1.0000
vn 0.1951 -0.0000 0.9808
vn 0.3827 -0.0000 0.9239
vn 0.5556 -0.0000 0.8315
vn 0.7071 -0.0000 0.7071
vn 0.8315 -0.0000 0.5556
vn 0.9239 -0.0000 0.3827
vn 0.9808 -0.0000 0.1951
vn 1.0000 -0.0000 -0.0000
vn 0.9808 -0.0000 -0.1951
vn 0.9239 -0.0000 -0.3827
vn 0.8315 -0.0000 -0.5556
vn 0.7071 -0.0000 -0.7071
vn 0.1951 -0.0000 -0.9808
vn -0.1950 0.0319 -0.9803
vn -0.0000 0.0319 -0.9995
vn -0.3825 0.0319 -0.9234
vn -0.5553 0.0319 -0.8310
vn -0.7067 0.0319 -0.7067
vn -0.8310 0.0319 -0.5553
vn -0.9234 0.0319 -0.3825
vn -0.9803 0.0319 -0.1950
vn -0.9995 0.0319 -0.0000
vn -0.9803 0.0319 0.1950
vn -0.9234 0.0319 0.3825
vn -0.8310 0.0319 0.5553
vn -0.7067 0.0319 0.7067
vn -0.5553 0.0319 0.8310
vn -0.3825 0.0319 0.9234
vn -0.1950 0.0319 0.9803
vn -0.0000 0.0319 0.9995
vn 0.1950 0.0319 0.9803
vn 0.3825 0.0319 0.9234
vn 0.5553 0.0319 0.8310
vn 0.7067 0.0319 0.7067
vn 0.8310 0.0319 0.5553
vn 0.9234 0.0319 0.3825
vn 0.9803 0.0319 0.1950
vn 0.9995 0.0319 -0.0000
vn 0.9803 0.0319 -0.1950
vn 0.9234 0.0319 -0.3825
vn 0.8310 0.0319 -0.5553
vn 0.7067 0.0319 -0.7067
vn 0.5553 0.0319 -0.8310
vn 0.3825 0.0319 -0.9234
vn 0.1950 0.0319 -0.9803
vn -0.0000 -1.0000 -0.0000
vn -0.0000 -0.7231 -0.6908
vn 0.1348 -0.7231 -0.6775
vn 0.2644 -0.7231 -0.6382
vn 0.3838 -0.7231 -0.5744
vn 0.4885 -0.7231 -0.4885
vn 0.5744 -0.7231 -0.3838
vn 0.6382 -0.7231 -0.2644
vn 0.6775 -0.7231 -0.1348
vn 0.6908 -0.7231 -0.0000
vn 0.6775 -0.7231 0.1348
vn 0.6382 -0.7231 0.2644
vn 0.5744 -0.7231 0.3838
vn 0.4885 -0.7231 0.4885
vn 0.3838 -0.7231 0.5744
vn 0.2644 -0.7231 0.6382
vn 0.1348 -0.7231 0.6775
vn -0.0000 -0.7231 0.6908
vn -0.1348 -0.7231 0.6775
vn -0.2644 -0.7231 0.6382
vn -0.3838 -0.7231 0.5744
vn -0.4885 -0.7231 0.4885
vn -0.5744 -0.7231 0.3838
vn -0.6382 -0.7231 0.2644
vn -0.6775 -0.7231 0.1348
vn -0.6908 -0.7231 -0.0000
vn -0.6775 -0.7231 -0.1348
vn -0.6382 -0.7231 -0.2644
vn -0.5744 -0.7231 -0.3838
vn -0.4885 -0.7231 -0.4885
vn -0.3838 -0.7231 -0.5744
vn -0.2644 -0.7231 -0.6382
vn -0.1348 -0.7231 -0.6775
vt 1.000000 0.987500
vt 1.000000 1.000000
vt 0.968750 1.000000
vt 0.968750 0.987500
vt 0.937500 1.000000
vt 0.937500 0.987500
vt 0.906250 1.000000
vt 0.906250 0.987500
vt 0.875000 1.000000
vt 0.875000 0.987500
vt 0.843750 1.000000
vt 0.843750 0.987500
vt 0.812500 1.000000
vt 0.812500 0.987500
vt 0.781250 1.000000
vt 0.781250 0.987500
vt 0.750000 1.000000
vt 0.750000 0.987500
vt 0.718750 1.000000
vt 0.718750 0.987500
vt 0.687500 1.000000
vt 0.687500 0.987500
vt 0.656250 1.000000
vt 0.656250 0.987500
vt 0.625000 1.000000
vt 0.625000 0.987500
vt 0.593750 1.000000
vt 0.593750 0.987500
vt 0.562500 1.000000
vt 0.562500 0.987500
vt 0.531250 1.000000
vt 0.531250 0.987500
vt 0.500000 1.000000
vt 0.500000 0.987500
vt 0.468750 1.000000
vt 0.468750 0.987500
vt 0.437500 1.000000
vt 0.437500 0.987500
vt 0.406250 1.000000
vt 0.406250 0.987500
vt 0.375000 1.000000
vt 0.375000 0.987500
vt 0.343750 1.000000
vt 0.343750 0.987500
vt 0.312500 1.000000
vt 0.312500 0.987500
vt 0.281250 1.000000
vt 0.281250 0.987500
vt 0.250000 1.000000
vt 0.250000 0.987500
vt 0.218750 1.000000
vt 0.218750 0.987500
vt 0.187500 1.000000
vt 0.187500 0.987500
vt 0.156250 1.000000
vt 0.156250 0.987500
vt 0.125000 1.000000
vt 0.125000 0.987500
vt 0.093750 1.000000
vt 0.093750 0.987500
vt 0.062500 1.000000
vt 0.062500 0.987500
vt 0.198028 0.172219
vt 0.214201 0.163574
vt 0.031250 1.000000
vt 0.031250 0.987500
vt 0.000000 1.000000
vt 0.000000 0.987500
vt 0.281250 0.510000
vt 0.250000 0.510000
vt 0.218750 0.510000
vt 0.187500 0.510000
vt 0.156250 0.510000
vt 1.000000 0.510000
vt 0.968750 0.510000
vt 0.125000 0.510000
vt 0.937500 0.510000
vt 0.093750 0.510000
vt 0.906250 0.510000
vt 0.062500 0.510000
vt 0.875000 0.510000
vt 0.031250 0.510000
vt 0.843750 0.510000
vt 0.000000 0.510000
vt 0.812500 0.510000
vt 0.781250 0.510000
vt 0.750000 0.510000
vt 0.718750 0.510000
vt 0.031250 0.500000
vt 0.000000 0.500000
vt 0.062500 0.500000
vt 0.093750 0.500000
vt 0.125000 0.500000
vt 0.156250 0.500000
vt 0.187500 0.500000
vt 0.218750 0.500000
vt 0.250000 0.500000
vt 0.281250 0.500000
vt 0.312500 0.500000
vt 0.312500 0.510000
vt 0.343750 0.500000
vt 0.343750 0.510000
vt 0.375000 0.500000
vt 0.375000 0.510000
vt 0.406250 0.500000
vt 0.406250 0.510000
vt 0.437500 0.500000
vt 0.437500 0.510000
vt 0.468750 0.500000
vt 0.468750 0.510000
vt 0.500000 0.500000
vt 0.500000 0.510000
vt 0.531250 0.500000
vt 0.531250 0.510000
vt 0.562500 0.500000
vt 0.562500 0.510000
vt 0.593750 0.500000
vt 0.593750 0.510000
vt 0.625000 0.500000
vt 0.625000 0.510000
vt 0.656250 0.500000
vt 0.656250 0.510000
vt 0.687500 0.500000
vt 0.687500 0.510000
vt 0.718750 0.500000
vt 0.750000 0.500000
vt 0.781250 0.500000
vt 0.812500 0.500000
vt 0.843750 0.500000
vt 0.875000 0.500000
vt 0.906250 0.500000
vt 0.937500 0.500000
vt 0.968750 0.500000
vt 1.000000 0.500000
vt 0.304833 0.500000
vt 0.289601 0.500000
vt 0.250000 0.343546
vt 0.268250 0.341749
vt 0.296822 0.485388
vt 0.250000 0.490000
vt 0.285799 0.336426
vt 0.341844 0.471731
vt 0.301971 0.327781
vt 0.383337 0.449553
vt 0.316147 0.316147
vt 0.419706 0.419706
vt 0.327781 0.301972
vt 0.449553 0.383337
vt 0.336426 0.285799
vt 0.471731 0.341844
vt 0.341749 0.268250
vt 0.485388 0.296822
vt 0.343546 0.250000
vt 0.490000 0.250000
vt 0.341749 0.231750
vt 0.485388 0.203178
vt 0.336426 0.214201
vt 0.471731 0.158156
vt 0.327781 0.198028
vt 0.449553 0.116663
vt 0.316147 0.183853
vt 0.419706 0.080294
vt 0.301971 0.172219
vt 0.383337 0.050447
vt 0.285799 0.163574
vt 0.341844 0.028269
vt 0.268250 0.158251
vt 0.296822 0.014612
vt 0.250000 0.156454
vt 0.250000 0.010000
vt 0.231750 0.158251
vt 0.203178 0.014612
vt 0.158156 0.028269
vt 0.116663 0.050447
vt 0.183853 0.183853
vt 0.080294 0.080294
vt 0.172219 0.198028
vt 0.050447 0.116663
vt 0.163574 0.214201
vt 0.028269 0.158156
vt 0.158251 0.231750
vt 0.014612 0.203178
vt 0.156454 0.250000
vt 0.010000 0.250000
vt 0.158251 0.268250
vt 0.014612 0.296822
vt 0.163574 0.285799
vt 0.028269 0.341844
vt 0.172219 0.301971
vt 0.050447 0.383337
vt 0.183853 0.316147
vt 0.080294 0.419706
vt 0.198028 0.327781
vt 0.116663 0.449553
vt 0.214201 0.336426
vt 0.158156 0.471731
vt 0.231750 0.341749
vt 0.203178 0.485388
vt 0.031250 0.940000
vt 0.031250 0.950000
vt 0.000000 0.950000
vt 0.000000 0.940000
vt 0.062500 0.940000
vt 0.062500 0.950000
vt 0.093750 0.940000
vt 0.093750 0.950000
vt 0.125000 0.940000
vt 0.125000 0.950000
vt 0.156250 0.940000
vt 0.156250 0.950000
vt 0.187500 0.940000
vt 0.187500 0.950000
vt 0.218750 0.940000
vt 0.218750 0.950000
vt 0.250000 0.940000
vt 0.250000 0.950000
vt 0.281250 0.940000
vt 0.281250 0.950000
vt 0.312500 0.940000
vt 0.312500 0.950000
vt 0.343750 0.940000
vt 0.343750 0.950000
vt 0.375000 0.940000
vt 0.375000 0.950000
vt 0.406250 0.940000
vt 0.406250 0.950000
vt 0.437500 0.940000
vt 0.437500 0.950000
vt 0.468750 0.940000
vt 0.468750 0.950000
vt 0.500000 0.940000
vt 0.500000 0.950000
vt 0.531250 0.940000
vt 0.531250 0.950000
vt 0.562500 0.940000
vt 0.562500 0.950000
vt 0.593750 0.940000
vt 0.593750 0.950000
vt 0.625000 0.940000
vt 0.625000 0.950000
vt 0.656250 0.940000
vt 0.656250 0.950000
vt 0.687500 0.940000
vt 0.687500 0.950000
vt 0.718750 0.940000
vt 0.718750 0.950000
vt 0.750000 0.940000
vt 0.750000 0.950000
vt 0.781250 0.940000
vt 0.781250 0.950000
vt 0.812500 0.940000
vt 0.812500 0.950000
vt 0.843750 0.940000
vt 0.843750 0.950000
vt 0.875000 0.940000
vt 0.875000 0.950000
vt 0.906250 0.940000
vt 0.906250 0.950000
vt 0.937500 0.940000
vt 0.937500 0.950000
vt 0.968750 0.940000
vt 0.968750 0.950000
vt 1.000000 0.940000
vt 1.000000 0.950000
vt 0.538214 0.500000
vt 0.430536 0.500000
vt 0.624859 0.500000
vt 0.673315 0.500000
vt 0.693357 0.500000
vt 0.696813 0.500000
vt 0.690806 0.500000
vt 0.679149 0.500000
vt 0.663917 0.500000
vt 0.646308 0.500000
vt 0.627051 0.500000
vt 0.606624 0.500000
vt 0.585351 0.500000
vt 0.563468 0.500000
vt 0.541153 0.500000
vt 0.518552 0.500000
vt 0.495785 0.500000
vt 0.472965 0.500000
vt 0.450198 0.500000
vt 0.427596 0.500000
vt 0.405282 0.500000
vt 0.383399 0.500000
vt 0.362126 0.500000
vt 0.341698 0.500000
vt 0.322442 0.500000
vt 0.277944 0.500000
vt 0.271937 0.500000
vt 0.275393 0.500000
vt 0.295435 0.500000
vt 0.343891 0.500000
vt 0.527476 0.500000
vt 0.441273 0.500000
vt 0.600270 0.500000
vt 0.645754 0.500000
vt 0.667483 0.500000
vt 0.673638 0.500000
vt 0.670323 0.500000
vt 0.661161 0.500000
vt 0.648233 0.500000
vt 0.632767 0.500000
vt 0.615529 0.500000
vt 0.597019 0.500000
vt 0.577588 0.500000
vt 0.557486 0.500000
vt 0.536910 0.500000
vt 0.516017 0.500000
vt 0.494942 0.500000
vt 0.473808 0.500000
vt 0.452733 0.500000
vt 0.431840 0.500000
vt 0.411264 0.500000
vt 0.391162 0.500000
vt 0.371730 0.500000
vt 0.353221 0.500000
vt 0.335982 0.500000
vt 0.320516 0.500000
vt 0.307588 0.500000
vt 0.298427 0.500000
vt 0.295112 0.500000
vt 0.301267 0.500000
vt 0.322996 0.500000
vt 0.368479 0.500000
vt 0.441273 0.500000
vt 0.527476 0.500000
vt 0.516845 0.500000
vt 0.451905 0.500000
vt 0.574068 0.500000
vt 0.613831 0.500000
vt 0.667483 0.500000
vt 0.635891 0.500000
vt 0.673638 0.500000
vt 0.644591 0.500000
vt 0.644326 0.500000
vt 0.661161 0.500000
vt 0.638185 0.500000
vt 0.628123 0.500000
vt 0.632767 0.500000
vt 0.615364 0.500000
vt 0.615529 0.500000
vt 0.600692 0.500000
vt 0.597019 0.500000
vt 0.584636 0.500000
vt 0.567568 0.500000
vt 0.557486 0.500000
vt 0.549761 0.500000
vt 0.536910 0.500000
vt 0.531427 0.500000
vt 0.516017 0.500000
vt 0.512741 0.500000
vt 0.494942 0.500000
vt 0.493852 0.500000
vt 0.473808 0.500000
vt 0.474897 0.500000
vt 0.456008 0.500000
vt 0.437322 0.500000
vt 0.418989 0.500000
vt 0.391162 0.500000
vt 0.401182 0.500000
vt 0.371730 0.500000
vt 0.384113 0.500000
vt 0.353221 0.500000
vt 0.368057 0.500000
vt 0.353386 0.500000
vt 0.340626 0.500000
vt 0.307588 0.500000
vt 0.330565 0.500000
vt 0.324424 0.500000
vt 0.324158 0.500000
vt 0.332859 0.500000
vt 0.354919 0.500000
vt 0.368479 0.500000
vt 0.394682 0.500000
vt 0.463353 0.500000
vt 0.505396 0.500000
vt 0.543988 0.500000
vt 0.573940 0.500000
vt 0.593578 0.500000
vt 0.603920 0.500000
vt 0.606988 0.500000
vt 0.604714 0.500000
vt 0.598588 0.500000
vt 0.589675 0.500000
vt 0.578721 0.500000
vt 0.566258 0.500000
vt 0.552674 0.500000
vt 0.538265 0.500000
vt 0.523262 0.500000
vt 0.507861 0.500000
vt 0.492229 0.500000
vt 0.476521 0.500000
vt 0.460889 0.500000
vt 0.445488 0.500000
vt 0.430485 0.500000
vt 0.416075 0.500000
vt 0.402491 0.500000
vt 0.390029 0.500000
vt 0.379075 0.500000
vt 0.370162 0.500000
vt 0.364036 0.500000
vt 0.361761 0.500000
vt 0.364829 0.500000
vt 0.375172 0.500000
vt 0.394809 0.500000
vt 0.424761 0.500000
s 1
f 257/1/1 130/2/1 129/3/2 258/4/2
f 258/4/2 129/3/2 131/5/3 259/6/3
f 259/6/3 131/5/3 132/7/4 260/8/4
f 260/8/4 132/7/4 133/9/5 261/10/5
f 261/10/5 133/9/5 134/11/6 262/12/6
f 262/12/6 134/11/6 135/13/7 263/14/7
f 263/14/7 135/13/7 136/15/8 264/16/8
f 264/16/8 136/15/8 137/17/9 265/18/9
f 265/18/9 137/17/9 138/19/10 266/20/10
f 266/20/10 138/19/10 139/21/11 267/22/11
f 267/22/11 139/21/11 140/23/12 268/24/12
f 268/24/12 140/23/12 141/25/13 269/26/13
f 269/26/13 141/25/13 142/27/14 270/28/14
f 270/28/14 142/27/14 143/29/15 271/30/15
f 271/30/15 143/29/15 144/31/16 272/32/16
f 272/32/16 144/31/16 145/33/17 273/34/17
f 273/34/17 145/33/17 146/35/18 274/36/18
f 274/36/18 146/35/18 147/37/19 275/38/19
f 275/38/19 147/37/19 148/39/20 276/40/21
f 276/40/21 148/39/20 149/41/22 277/42/22
f 277/42/22 149/41/22 150/43/23 278/44/23
f 278/44/23 150/43/23 151/45/24 279/46/24
f 279/46/24 151/45/24 152/47/25 280/48/25
f 280/48/25 152/47/25 153/49/26 281/50/26
f 281/50/26 153/49/26 154/51/27 282/52/27
f 282/52/27 154/51/27 155/53/28 283/54/28
f 283/54/28 155/53/28 156/55/29 284/56/29
f 284/56/29 156/55/29 157/57/30 285/58/30
f 285/58/30 157/57/30 158/59/31 286/60/31
f 286/60/31 158/59/31 159/61/32 287/62/32
f 20/63/33 19/64/34 179/64/34 180/63/33
f 287/62/32 159/61/32 160/65/35 288/66/35
f 288/66/35 160/65/35 130/67/1 257/68/1
f 56/69/36 57/70/36 113/70/36 111/69/36
f 57/70/36 58/71/36 115/71/36 113/70/36
f 58/71/36 59/72/36 117/72/36 115/71/36
f 59/72/36 60/73/36 119/73/36 117/72/36
f 33/74/36 34/75/36 67/75/36 128/74/36
f 60/73/36 61/76/36 121/76/36 119/73/36
f 34/75/36 35/77/36 69/77/36 67/75/36
f 61/76/36 62/78/36 123/78/36 121/76/36
f 35/77/36 36/79/36 71/79/36 69/77/36
f 62/78/36 63/80/36 125/80/36 123/78/36
f 36/79/36 37/81/36 73/81/36 71/79/36
f 63/80/36 64/82/36 127/82/36 125/80/36
f 37/81/36 38/83/36 75/83/36 73/81/36
f 64/82/36 33/84/36 128/84/36 127/82/36
f 38/83/36 39/85/36 77/85/36 75/83/36
f 39/85/36 40/86/36 79/86/36 77/85/36
f 40/86/36 41/87/36 81/87/36 79/86/36
f 41/87/36 42/88/36 83/88/36 81/87/36
f 320/89/37 127/82/37 128/84/38 289/90/38
f 319/91/39 125/80/39 127/82/37 320/89/37
f 318/92/40 123/78/40 125/80/39 319/91/39
f 317/93/41 121/76/41 123/78/40 318/92/40
f 316/94/42 119/73/42 121/76/41 317/93/41
f 315/95/43 117/72/43 119/73/42 316/94/42
f 314/96/44 115/71/44 117/72/43 315/95/43
f 313/97/45 113/70/45 115/71/44 314/96/44
f 312/98/46 111/69/46 113/70/45 313/97/45
f 311/99/47 109/100/47 111/69/46 312/98/46
f 310/101/48 107/102/48 109/100/47 311/99/47
f 309/103/49 105/104/49 107/102/48 310/101/48
f 308/105/50 103/106/50 105/104/49 309/103/49
f 307/107/51 101/108/51 103/106/50 308/105/50
f 306/109/52 99/110/52 101/108/51 307/107/51
f 305/111/53 97/112/53 99/110/52 306/109/52
f 304/113/54 95/114/54 97/112/53 305/111/53
f 303/115/55 93/116/55 95/114/54 304/113/54
f 302/117/56 91/118/56 93/116/55 303/115/55
f 301/119/57 89/120/57 91/118/56 302/117/56
f 300/121/58 87/122/58 89/120/57 301/119/57
f 299/123/59 85/124/59 87/122/58 300/121/58
f 298/125/60 83/88/60 85/124/59 299/123/59
f 297/126/61 81/87/61 83/88/60 298/125/60
f 296/127/62 79/86/62 81/87/61 297/126/61
f 295/128/63 77/85/63 79/86/62 296/127/62
f 294/129/64 75/83/64 77/85/63 295/128/63
f 293/130/65 73/81/65 75/83/64 294/129/64
f 292/131/33 71/79/33 73/81/65 293/130/65
f 291/132/34 69/77/34 71/79/33 292/131/33
f 290/133/66 67/75/66 69/77/34 291/132/34
f 289/134/38 128/74/38 67/75/66 290/133/66
f 55/100/36 56/69/36 111/69/36 109/100/36
f 54/102/36 55/100/36 109/100/36 107/102/36
f 53/104/36 54/102/36 107/102/36 105/104/36
f 52/106/36 53/104/36 105/104/36 103/106/36
f 51/108/36 52/106/36 103/106/36 101/108/36
f 50/110/36 51/108/36 101/108/36 99/110/36
f 49/112/36 50/110/36 99/110/36 97/112/36
f 48/114/36 49/112/36 97/112/36 95/114/36
f 47/116/36 48/114/36 95/114/36 93/116/36
f 46/118/36 47/116/36 93/116/36 91/118/36
f 45/120/36 46/118/36 91/118/36 89/120/36
f 114/135/60 116/136/59 358/136/59 357/135/60
f 44/122/36 45/120/36 89/120/36 87/122/36
f 43/124/36 44/122/36 87/122/36 85/124/36
f 42/88/36 43/124/36 85/124/36 83/88/36
f 1/137/36 2/138/36 129/139/36 130/140/36
f 2/138/36 3/141/36 131/142/36 129/139/36
f 3/141/36 4/143/36 132/144/36 131/142/36
f 4/143/36 5/145/36 133/146/36 132/144/36
f 5/145/36 6/147/36 134/148/36 133/146/36
f 6/147/36 7/149/36 135/150/36 134/148/36
f 7/149/36 8/151/36 136/152/36 135/150/36
f 8/151/36 9/153/36 137/154/36 136/152/36
f 9/153/36 10/155/36 138/156/36 137/154/36
f 10/155/36 11/157/36 139/158/36 138/156/36
f 11/157/36 12/159/36 140/160/36 139/158/36
f 12/159/36 13/161/36 141/162/36 140/160/36
f 13/161/36 14/163/36 142/164/36 141/162/36
f 14/163/36 15/165/36 143/166/36 142/164/36
f 15/165/36 16/167/36 144/168/36 143/166/36
f 16/167/36 17/169/36 145/170/36 144/168/36
f 17/169/36 18/171/36 146/172/36 145/170/36
f 18/171/36 19/64/36 147/173/36 146/172/36
f 19/64/36 20/63/36 148/174/36 147/173/36
f 20/63/36 21/175/36 149/176/36 148/174/36
f 21/175/36 22/177/36 150/178/36 149/176/36
f 22/177/36 23/179/36 151/180/36 150/178/36
f 23/179/36 24/181/36 152/182/36 151/180/36
f 24/181/36 25/183/36 153/184/36 152/182/36
f 25/183/36 26/185/36 154/186/36 153/184/36
f 26/185/36 27/187/36 155/188/36 154/186/36
f 27/187/36 28/189/36 156/190/36 155/188/36
f 28/189/36 29/191/36 157/192/36 156/190/36
f 29/191/36 30/193/36 158/194/36 157/192/36
f 30/193/36 31/195/36 159/196/36 158/194/36
f 31/195/36 32/197/36 160/198/36 159/196/36
f 32/197/36 1/137/36 130/140/36 160/198/36
f 162/138/36 161/137/36 192/197/36 191/195/36 190/193/36 189/191/36 188/189/36 187/187/36 186/185/36 185/183/36 184/181/36 183/179/36 182/177/36 181/175/36 180/63/36 179/64/36 178/171/36 177/169/36 176/167/36 175/165/36 174/163/36 173/161/36 172/159/36 171/157/36 170/155/36 169/153/36 168/151/36 167/149/36 166/147/36 165/145/36 164/143/36 163/141/36
f 7/149/47 6/147/48 166/147/48 167/149/47
f 21/175/65 20/63/33 180/63/33 181/175/65
f 8/151/46 7/149/47 167/149/47 168/151/46
f 22/177/64 21/175/65 181/175/65 182/177/64
f 9/153/45 8/151/46 168/151/46 169/153/45
f 23/179/63 22/177/64 182/177/64 183/179/63
f 10/155/44 9/153/45 169/153/45 170/155/44
f 24/181/62 23/179/63 183/179/63 184/181/62
f 11/157/43 10/155/44 170/155/44 171/157/43
f 25/183/61 24/181/62 184/181/62 185/183/61
f 12/159/42 11/157/43 171/157/43 172/159/42
f 26/185/60 25/183/61 185/183/61 186/185/60
f 13/161/41 12/159/42 172/159/42 173/161/41
f 27/187/59 26/185/60 186/185/60 187/187/59
f 14/163/40 13/161/41 173/161/41 174/163/40
f 28/189/58 27/187/59 187/187/59 188/189/58
f 15/165/39 14/163/40 174/163/40 175/165/39
f 2/138/52 1/137/53 161/137/53 162/138/52
f 29/191/57 28/189/58 188/189/58 189/191/57
f 16/167/37 15/165/39 175/165/39 176/167/37
f 3/141/51 2/138/52 162/138/52 163/141/51
f 30/193/56 29/191/57 189/191/57 190/193/56
f 17/169/38 16/167/37 176/167/37 177/169/38
f 4/143/50 3/141/51 163/141/51 164/143/50
f 31/195/55 30/193/56 190/193/56 191/195/55
f 18/171/66 17/169/38 177/169/38 178/171/66
f 5/145/49 4/143/50 164/143/50 165/145/49
f 32/197/54 31/195/55 191/195/55 192/197/54
f 19/64/34 18/171/66 178/171/66 179/64/34
f 6/147/48 5/145/49 165/145/49 166/147/48
f 1/137/53 32/197/54 192/197/54 161/137/53
f 255/199/37 224/200/37 193/201/38 256/202/38
f 254/203/39 223/204/39 224/200/37 255/199/37
f 253/205/40 222/206/40 223/204/39 254/203/39
f 252/207/41 221/208/41 222/206/40 253/205/40
f 251/209/42 220/210/42 221/208/41 252/207/41
f 250/211/43 219/212/43 220/210/42 251/209/42
f 249/213/44 218/214/44 219/212/43 250/211/43
f 248/215/45 217/216/45 218/214/44 249/213/44
f 247/217/46 216/218/46 217/216/45 248/215/45
f 246/219/47 215/220/47 216/218/46 247/217/46
f 245/221/48 214/222/48 215/220/47 246/219/47
f 244/223/49 213/224/49 214/222/48 245/221/48
f 243/225/50 212/226/50 213/224/49 244/223/49
f 242/227/51 211/228/51 212/226/50 243/225/50
f 241/229/52 210/230/52 211/228/51 242/227/51
f 240/231/53 209/232/53 210/230/52 241/229/52
f 239/233/54 208/234/54 209/232/53 240/231/53
f 238/235/55 207/236/55 208/234/54 239/233/54
f 237/237/56 206/238/56 207/236/55 238/235/55
f 236/239/57 205/240/57 206/238/56 237/237/56
f 235/241/58 204/242/58 205/240/57 236/239/57
f 234/243/59 203/244/59 204/242/58 235/241/58
f 233/245/60 202/246/60 203/244/59 234/243/59
f 232/247/61 201/248/61 202/246/60 233/245/60
f 231/249/62 200/250/62 201/248/61 232/247/61
f 230/251/63 199/252/63 200/250/62 231/249/62
f 229/253/64 198/254/64 199/252/63 230/251/63
f 228/255/65 197/256/65 198/254/64 229/253/64
f 227/257/33 196/258/33 197/256/65 228/255/65
f 226/259/34 195/260/34 196/258/33 227/257/33
f 225/261/66 194/262/66 195/260/34 226/259/34
f 256/263/38 193/264/38 194/262/66 225/261/66
f 33/74/38 256/263/38 225/261/66 34/75/66
f 34/75/66 225/261/66 226/259/34 35/77/34
f 35/77/34 226/259/34 227/257/33 36/79/33
f 36/79/33 227/257/33 228/255/65 37/81/65
f 37/81/65 228/255/65 229/253/64 38/83/64
f 38/83/64 229/253/64 230/251/63 39/85/63
f 39/85/63 230/251/63 231/249/62 40/86/62
f 40/86/62 231/249/62 232/247/61 41/87/61
f 41/87/61 232/247/61 233/245/60 42/88/60
f 42/88/60 233/245/60 234/243/59 43/124/59
f 43/124/59 234/243/59 235/241/58 44/122/58
f 44/122/58 235/241/58 236/239/57 45/120/57
f 45/120/57 236/239/57 237/237/56 46/118/56
f 46/118/56 237/237/56 238/235/55 47/116/55
f 47/116/55 238/235/55 239/233/54 48/114/54
f 48/114/54 239/233/54 240/231/53 49/112/53
f 49/112/53 240/231/53 241/229/52 50/110/52
f 50/110/52 241/229/52 242/227/51 51/108/51
f 51/108/51 242/227/51 243/225/50 52/106/50
f 52/106/50 243/225/50 244/223/49 53/104/49
f 53/104/49 244/223/49 245/221/48 54/102/48
f 54/102/48 245/221/48 246/219/47 55/100/47
f 55/100/47 246/219/47 247/217/46 56/69/46
f 56/69/46 247/217/46 248/215/45 57/70/45
f 57/70/45 248/215/45 249/213/44 58/71/44
f 58/71/44 249/213/44 250/211/43 59/72/43
f 59/72/43 250/211/43 251/209/42 60/73/42
f 60/73/42 251/209/42 252/207/41 61/76/41
f 61/76/41 252/207/41 253/205/40 62/78/40
f 62/78/40 253/205/40 254/203/39 63/80/39
f 63/80/39 254/203/39 255/199/37 64/82/37
f 64/82/37 255/199/37 256/202/38 33/84/38
f 224/200/67 288/66/67 257/68/68 193/201/68
f 223/204/69 287/62/69 288/66/67 224/200/67
f 222/206/70 286/60/70 287/62/69 223/204/69
f 221/208/71 285/58/71 286/60/70 222/206/70
f 220/210/72 284/56/72 285/58/71 221/208/71
f 219/212/73 283/54/73 284/56/72 220/210/72
f 218/214/74 282/52/74 283/54/73 219/212/73
f 217/216/75 281/50/75 282/52/74 218/214/74
f 216/218/76 280/48/76 281/50/75 217/216/75
f 215/220/77 279/46/77 280/48/76 216/218/76
f 214/222/78 278/44/78 279/46/77 215/220/77
f 213/224/79 277/42/79 278/44/78 214/222/78
f 212/226/80 276/40/80 277/42/79 213/224/79
f 211/228/81 275/38/81 276/40/80 212/226/80
f 210/230/82 274/36/82 275/38/81 211/228/81
f 209/232/83 273/34/83 274/36/82 210/230/82
f 208/234/84 272/32/84 273/34/83 209/232/83
f 207/236/85 271/30/85 272/32/84 208/234/84
f 206/238/86 270/28/86 271/30/85 207/236/85
f 205/240/87 269/26/87 270/28/86 206/238/86
f 204/242/88 268/24/88 269/26/87 205/240/87
f 203/244/89 267/22/89 268/24/88 204/242/88
f 202/246/90 266/20/90 267/22/89 203/244/89
f 201/248/91 265/18/91 266/20/90 202/246/90
f 200/250/92 264/16/92 265/18/91 201/248/91
f 199/252/93 263/14/93 264/16/92 200/250/92
f 198/254/94 262/12/94 263/14/93 199/252/93
f 197/256/95 261/10/95 262/12/94 198/254/94
f 196/258/96 260/8/96 261/10/95 197/256/95
f 195/260/97 259/6/97 260/8/96 196/258/96
f 194/262/98 258/4/98 259/6/97 195/260/97
f 193/264/68 257/1/68 258/4/98 194/262/98
f 66/265/99 65/266/99 289/90/99 290/133/99
f 68/267/99 66/265/99 290/133/99 291/132/99
f 70/268/99 68/267/99 291/132/99 292/131/99
f 72/269/99 70/268/99 292/131/99 293/130/99
f 74/270/99 72/269/99 293/130/99 294/129/99
f 76/271/99 74/270/99 294/129/99 295/128/99
f 78/272/99 76/271/99 295/128/99 296/127/99
f 80/273/99 78/272/99 296/127/99 297/126/99
f 82/274/99 80/273/99 297/126/99 298/125/99
f 84/275/99 82/274/99 298/125/99 299/123/99
f 86/276/99 84/275/99 299/123/99 300/121/99
f 88/277/99 86/276/99 300/121/99 301/119/99
f 90/278/99 88/277/99 301/119/99 302/117/99
f 92/279/99 90/278/99 302/117/99 303/115/99
f 94/280/99 92/279/99 303/115/99 304/113/99
f 96/281/99 94/280/99 304/113/99 305/111/99
f 98/282/99 96/281/99 305/111/99 306/109/99
f 100/283/99 98/282/99 306/109/99 307/107/99
f 102/284/99 100/283/99 307/107/99 308/105/99
f 104/285/99 102/284/99 308/105/99 309/103/99
f 106/286/99 104/285/99 309/103/99 310/101/99
f 108/287/99 106/286/99 310/101/99 311/99/99
f 110/288/99 108/287/99 311/99/99 312/98/99
f 112/289/99 110/288/99 312/98/99 313/97/99
f 114/135/99 112/289/99 313/97/99 314/96/99
f 116/136/99 114/135/99 314/96/99 315/95/99
f 118/290/99 116/136/99 315/95/99 316/94/99
f 120/291/99 118/290/99 316/94/99 317/93/99
f 122/292/99 120/291/99 317/93/99 318/92/99
f 124/293/99 122/292/99 318/92/99 319/91/99
f 126/294/99 124/293/99 319/91/99 320/89/99
f 65/266/99 126/294/99 320/89/99 289/90/99
f 88/277/41 90/278/40 345/278/40 344/277/41
f 116/136/59 118/290/58 359/290/58 358/136/59
f 90/278/40 92/279/39 346/279/39 345/278/40
f 65/266/53 66/265/52 333/265/52 332/266/53
f 118/290/58 120/291/57 360/291/57 359/290/58
f 92/279/39 94/280/37 347/280/37 346/279/39
f 66/265/52 68/267/51 334/267/51 333/265/52
f 120/291/57 122/292/56 361/292/56 360/291/57
f 94/280/37 96/281/38 348/281/38 347/280/37
f 68/267/51 70/268/50 335/268/50 334/267/51
f 122/292/56 124/293/55 362/293/55 361/292/56
f 96/281/38 98/282/66 349/282/66 348/281/38
f 70/268/50 72/269/49 336/269/49 335/268/50
f 124/293/55 126/294/54 363/294/54 362/293/55
f 98/282/66 100/283/34 350/283/34 349/282/66
f 72/269/49 74/270/48 337/270/48 336/269/49
f 126/294/54 65/266/53 332/266/53 363/294/54
f 100/283/34 102/284/33 351/284/33 350/283/34
f 74/270/48 76/271/47 338/271/47 337/270/48
f 102/284/33 104/285/65 352/285/65 351/284/33
f 76/271/47 78/272/46 339/272/46 338/271/47
f 104/285/65 106/286/64 353/286/64 352/285/65
f 78/272/46 80/273/45 340/273/45 339/272/46
f 106/286/64 108/287/63 354/287/63 353/286/64
f 80/273/45 82/274/44 341/274/44 340/273/45
f 108/287/63 110/288/62 355/288/62 354/287/63
f 82/274/44 84/275/43 342/275/43 341/274/44
f 110/288/62 112/289/61 356/289/61 355/288/62
f 84/275/43 86/276/42 343/276/42 342/275/43
f 112/289/61 114/135/60 357/135/60 356/289/61
f 86/276/42 88/277/41 344/277/41 343/276/42
f 365/295/99 364/296/99 332/266/99 333/265/99
f 366/297/99 365/295/99 333/265/99 334/267/99
f 321/298/99 366/297/99 334/267/99 335/268/99
f 368/299/99 321/298/99 335/268/99 336/269/99
f 322/300/99 368/299/99 336/269/99 337/270/99
f 369/301/99 322/300/99 337/270/99 338/271/99
f 323/302/99 369/301/99 338/271/99 339/272/99
f 324/303/99 323/302/99 339/272/99 340/273/99
f 370/304/99 324/303/99 340/273/99 341/274/99
f 371/305/99 370/304/99 341/274/99 342/275/99
f 325/306/99 371/305/99 342/275/99 343/276/99
f 372/307/99 325/306/99 343/276/99 344/277/99
f 326/308/99 372/307/99 344/277/99 345/278/99
f 373/309/99 326/308/99 345/278/99 346/279/99
f 374/310/99 373/309/99 346/279/99 347/280/99
f 375/311/99 374/310/99 347/280/99 348/281/99
f 376/312/99 375/311/99 348/281/99 349/282/99
f 377/313/99 376/312/99 349/282/99 350/283/99
f 327/314/99 377/313/99 350/283/99 351/284/99
f 328/315/99 327/314/99 351/284/99 352/285/99
f 378/316/99 328/315/99 352/285/99 353/286/99
f 379/317/99 378/316/99 353/286/99 354/287/99
f 380/318/99 379/317/99 354/287/99 355/288/99
f 329/319/99 380/318/99 355/288/99 356/289/99
f 381/320/99 329/319/99 356/289/99 357/135/99
f 382/321/99 381/320/99 357/135/99 358/136/99
f 383/322/99 382/321/99 358/136/99 359/290/99
f 384/323/99 383/322/99 359/290/99 360/291/99
f 330/324/99 384/323/99 360/291/99 361/292/99
f 385/325/99 330/324/99 361/292/99 362/293/99
f 331/326/99 385/325/99 362/293/99 363/294/99
f 364/296/99 331/326/99 363/294/99 332/266/99
f 364/327/100 365/328/101 386/329/101 387/330/100
f 365/328/101 366/297/102 388/331/102 386/329/101
f 366/297/102 321/298/103 389/332/103 388/331/102
f 321/298/103 368/333/104 390/334/104 389/332/103
f 368/333/104 322/335/105 391/336/105 390/334/104
f 322/335/105 369/301/106 392/337/106 391/336/105
f 369/301/106 323/338/107 393/339/107 392/337/106
f 323/338/107 324/303/108 394/340/108 393/339/107
f 324/303/108 370/341/109 395/342/109 394/340/108
f 370/341/109 371/343/110 396/344/110 395/342/109
f 371/343/110 325/345/111 397/346/111 396/344/110
f 325/345/111 372/307/112 398/347/112 397/346/111
f 372/307/112 326/348/113 399/349/113 398/347/112
f 326/348/113 373/350/114 400/351/114 399/349/113
f 373/350/114 374/352/115 401/353/115 400/351/114
f 374/352/115 375/354/116 402/355/116 401/353/115
f 375/354/116 376/356/117 403/357/117 402/355/116
f 376/356/117 377/313/118 404/358/118 403/357/117
f 377/313/118 327/314/119 405/359/119 404/358/118
f 327/314/119 328/315/120 406/360/120 405/359/119
f 328/315/120 378/361/121 407/362/121 406/360/120
f 378/361/121 379/363/122 408/364/122 407/362/121
f 379/363/122 380/365/123 409/366/123 408/364/122
f 380/365/123 329/319/124 410/367/124 409/366/123
f 329/319/124 381/320/125 411/368/125 410/367/124
f 381/320/125 382/369/126 412/370/126 411/368/125
f 382/369/126 383/322/127 413/371/127 412/370/126
f 383/322/127 384/323/128 414/372/128 413/371/127
f 384/323/128 330/324/129 415/373/129 414/372/128
f 330/324/129 385/325/130 416/374/130 415/373/129
f 385/325/130 331/375/131 417/376/131 416/374/130
f 331/375/131 364/327/100 387/330/100 417/376/131
f 367/377/99 387/330/99 386/329/99
f 367/378/99 386/329/99 388/331/99
f 367/379/99 388/331/99 389/332/99
f 367/380/99 389/332/99 390/334/99
f 367/381/99 390/334/99 391/336/99
f 367/382/99 391/336/99 392/337/99
f 367/383/99 392/337/99 393/339/99
f 367/384/99 393/339/99 394/340/99
f 367/385/99 394/340/99 395/342/99
f 367/386/99 395/342/99 396/344/99
f 367/387/99 396/344/99 397/346/99
f 367/388/99 397/346/99 398/347/99
f 367/389/99 398/347/99 399/349/99
f 367/390/99 399/349/99 400/351/99
f 367/391/99 400/351/99 401/353/99
f 367/392/99 401/353/99 402/355/99
f 367/393/99 402/355/99 403/357/99
f 367/394/99 403/357/99 404/358/99
f 367/395/99 404/358/99 405/359/99
f 367/396/99 405/359/99 406/360/99
f 367/397/99 406/360/99 407/362/99
f 367/398/99 407/362/99 408/364/99
f 367/399/99 408/364/99 409/366/99
f 367/400/99 409/366/99 410/367/99
f 367/401/99 410/367/99 411/368/99
f 367/402/99 411/368/99 412/370/99
f 367/403/99 412/370/99 413/371/99
f 367/404/99 413/371/99 414/372/99
f 367/405/99 414/372/99 415/373/99
f 367/406/99 415/373/99 416/374/99
f 367/407/99 416/374/99 417/376/99
f 367/408/99 417/376/99 387/330/99
