# Blender 4.5.1 LTS
# www.blender.org
o Case-Cannon-3L1W
v 0.000001 2.000000 -0.100492
v 0.019606 2.000000 -0.098561
v 0.038457 2.000000 -0.092842
v 0.055831 2.000000 -0.083556
v 0.071059 2.000000 -0.071058
v 0.083556 2.000000 -0.055830
v 0.092843 2.000000 -0.038456
v 0.098561 2.000000 -0.019605
v 0.100492 2.000000 0.000000
v 0.098561 2.000000 0.019605
v 0.092843 2.000000 0.038456
v 0.083556 2.000000 0.055830
v 0.071059 2.000000 0.071058
v 0.055831 2.000000 0.083556
v 0.038457 2.000000 0.092842
v 0.019606 2.000000 0.098561
v 0.000001 2.000000 0.100492
v -0.019604 2.000000 0.098561
v -0.038456 2.000000 0.092842
v -0.055830 2.000000 0.083556
v -0.071058 2.000000 0.071058
v -0.083555 2.000000 0.055830
v -0.092842 2.000000 0.038456
v -0.098560 2.000000 0.019605
v -0.100491 2.000000 0.000000
v -0.098560 2.000000 -0.019605
v -0.092842 2.000000 -0.038456
v -0.083555 2.000000 -0.055830
v -0.071058 2.000000 -0.071058
v -0.055830 2.000000 -0.083556
v -0.038456 2.000000 -0.092842
v -0.019604 2.000000 -0.098561
v 0.000000 0.020000 -0.125000
v 0.024386 0.020000 -0.122598
v 0.047835 0.020000 -0.115485
v 0.069446 0.020000 -0.103934
v 0.088388 0.020000 -0.088388
v 0.103934 0.020000 -0.069446
v 0.115485 0.020000 -0.047835
v 0.122598 0.020000 -0.024386
v 0.125000 0.020000 0.000000
v 0.122598 0.020000 0.024386
v 0.115485 0.020000 0.047835
v 0.103934 0.020000 0.069446
v 0.088388 0.020000 0.088388
v 0.069446 0.020000 0.103934
v 0.047835 0.020000 0.115485
v 0.024386 0.020000 0.122598
v 0.000000 0.020000 0.125000
v -0.024386 0.020000 0.122598
v -0.047835 0.020000 0.115485
v -0.069446 0.020000 0.103934
v -0.088388 0.020000 0.088388
v -0.103934 0.020000 0.069446
v -0.115485 0.020000 0.047835
v -0.122598 0.020000 0.024386
v -0.125000 0.020000 0.000000
v -0.122598 0.020000 -0.024386
v -0.115485 0.020000 -0.047835
v -0.103934 0.020000 -0.069446
v -0.088388 0.020000 -0.088388
v -0.069446 0.020000 -0.103934
v -0.047835 0.020000 -0.115485
v -0.024386 0.020000 -0.122598
v 0.000000 0.000000 -0.085490
v 0.016678 0.000000 -0.083848
v 0.027435 0.020000 -0.137923
v 0.032716 0.000000 -0.078983
v 0.053815 0.020000 -0.129921
v 0.047496 0.000000 -0.071083
v 0.078127 0.020000 -0.116925
v 0.060451 0.000000 -0.060451
v 0.099437 0.020000 -0.099437
v 0.071083 0.000000 -0.047496
v 0.116925 0.020000 -0.078127
v 0.078983 0.000000 -0.032716
v 0.129921 0.020000 -0.053815
v 0.083848 0.000000 -0.016678
v 0.137923 0.020000 -0.027435
v 0.085490 0.000000 0.000000
v 0.140625 0.020000 0.000000
v 0.083848 0.000000 0.016678
v 0.137923 0.020000 0.027435
v 0.078983 0.000000 0.032716
v 0.129921 0.020000 0.053815
v 0.071083 0.000000 0.047496
v 0.116925 0.020000 0.078127
v 0.060451 0.000000 0.060451
v 0.099437 0.020000 0.099437
v 0.047496 0.000000 0.071083
v 0.078127 0.020000 0.116925
v 0.032716 0.000000 0.078983
v 0.053815 0.020000 0.129921
v 0.016678 0.000000 0.083848
v 0.027435 0.020000 0.137923
v 0.000000 0.000000 0.085490
v 0.000000 0.020000 0.140625
v -0.016678 0.000000 0.083848
v -0.027435 0.020000 0.137923
v -0.032716 0.000000 0.078983
v -0.053815 0.020000 0.129921
v -0.047496 0.000000 0.071083
v -0.078127 0.020000 0.116925
v -0.060451 0.000000 0.060451
v -0.099437 0.020000 0.099437
v -0.071083 0.000000 0.047496
v -0.116925 0.020000 0.078127
v -0.078983 0.000000 0.032716
v -0.129921 0.020000 0.053815
v -0.083848 0.000000 0.016678
v -0.137923 0.020000 0.027435
v -0.085490 0.000000 0.000000
v -0.140625 0.020000 0.000000
v -0.083848 0.000000 -0.016678
v -0.137923 0.020000 -0.027435
v -0.078983 0.000000 -0.032716
v -0.129921 0.020000 -0.053815
v -0.071083 0.000000 -0.047496
v -0.116925 0.020000 -0.078127
v -0.060451 0.000000 -0.060451
v -0.099437 0.020000 -0.099437
v -0.047496 0.000000 -0.071083
v -0.078127 0.020000 -0.116925
v -0.032716 0.000000 -0.078983
v -0.053815 0.020000 -0.129921
v -0.016678 0.000000 -0.083848
v -0.027435 0.020000 -0.137923
v 0.000000 0.020000 -0.140625
v 0.020449 2.000000 -0.102803
v 0.000000 2.000000 -0.104817
v 0.040112 2.000000 -0.096838
v 0.058233 2.000000 -0.087152
v 0.074117 2.000000 -0.074117
v 0.087152 2.000000 -0.058233
v 0.096838 2.000000 -0.040112
v 0.102803 2.000000 -0.020449
v 0.104817 2.000000 0.000000
v 0.102803 2.000000 0.020449
v 0.096838 2.000000 0.040112
v 0.087152 2.000000 0.058233
v 0.074117 2.000000 0.074117
v 0.058233 2.000000 0.087152
v 0.040112 2.000000 0.096838
v 0.020449 2.000000 0.102803
v 0.000000 2.000000 0.104817
v -0.020449 2.000000 0.102803
v -0.040112 2.000000 0.096838
v -0.058233 2.000000 0.087152
v -0.074117 2.000000 0.074117
v -0.087152 2.000000 0.058233
v -0.096838 2.000000 0.040112
v -0.102803 2.000000 0.020449
v -0.104817 2.000000 0.000000
v -0.102803 2.000000 -0.020449
v -0.096838 2.000000 -0.040112
v -0.087152 2.000000 -0.058233
v -0.074117 2.000000 -0.074117
v -0.058233 2.000000 -0.087152
v -0.040112 2.000000 -0.096838
v -0.020449 2.000000 -0.102803
v -0.000002 0.060000 -0.100492
v 0.019603 0.060000 -0.098561
v 0.038455 0.060000 -0.092842
v 0.055828 0.060000 -0.083556
v 0.071057 0.060000 -0.071058
v 0.083554 0.060000 -0.055830
v 0.092841 0.060000 -0.038456
v 0.098559 0.060000 -0.019605
v 0.100490 0.060000 0.000000
v 0.098559 0.060000 0.019605
v 0.092841 0.060000 0.038456
v 0.083554 0.060000 0.055830
v 0.071057 0.060000 0.071058
v 0.055828 0.060000 0.083556
v 0.038455 0.060000 0.092842
v 0.019603 0.060000 0.098561
v -0.000002 0.060000 0.100492
v -0.019607 0.060000 0.098561
v -0.038458 0.060000 0.092842
v -0.055832 0.060000 0.083556
v -0.071060 0.060000 0.071058
v -0.083557 0.060000 0.055830
v -0.092844 0.060000 0.038456
v -0.098562 0.060000 0.019605
v -0.100493 0.060000 0.000000
v -0.098562 0.060000 -0.019605
v -0.092844 0.060000 -0.038456
v -0.083557 0.060000 -0.055830
v -0.071060 0.060000 -0.071058
v -0.055832 0.060000 -0.083556
v -0.038458 0.060000 -0.092842
v -0.019607 0.060000 -0.098561
v 0.000000 1.310002 -0.125000
v 0.024386 1.310002 -0.122598
v 0.047835 1.310002 -0.115485
v 0.069446 1.310002 -0.103934
v 0.088388 1.310002 -0.088388
v 0.103934 1.310002 -0.069446
v 0.115485 1.310002 -0.047835
v 0.122598 1.310002 -0.024386
v 0.125000 1.310002 0.000000
v 0.122598 1.310002 0.024386
v 0.115485 1.310002 0.047835
v 0.103934 1.310002 0.069446
v 0.088388 1.310002 0.088388
v 0.069446 1.310002 0.103934
v 0.047835 1.310002 0.115485
v 0.024386 1.310002 0.122598
v 0.000000 1.310002 0.125000
v -0.024386 1.310002 0.122598
v -0.047835 1.310002 0.115485
v -0.069446 1.310002 0.103934
v -0.088388 1.310002 0.088388
v -0.103934 1.310002 0.069446
v -0.115485 1.310002 0.047835
v -0.122598 1.310002 0.024386
v -0.125000 1.310002 0.000000
v -0.122598 1.310002 -0.024386
v -0.115485 1.310002 -0.047835
v -0.103934 1.310002 -0.069446
v -0.088388 1.310002 -0.088388
v -0.069446 1.310002 -0.103934
v -0.047835 1.310002 -0.115485
v -0.024386 1.310002 -0.122598
v 0.024386 1.290002 -0.122598
v 0.047835 1.290002 -0.115485
v 0.069446 1.290002 -0.103934
v 0.088388 1.290002 -0.088388
v 0.103934 1.290002 -0.069446
v 0.115485 1.290002 -0.047835
v 0.122598 1.290002 -0.024386
v 0.125000 1.290002 0.000000
v 0.122598 1.290002 0.024386
v 0.115485 1.290002 0.047835
v 0.103934 1.290002 0.069446
v 0.088388 1.290002 0.088388
v 0.069446 1.290002 0.103934
v 0.047835 1.290002 0.115485
v 0.024386 1.290002 0.122598
v 0.000000 1.290002 0.125000
v -0.024386 1.290002 0.122598
v -0.047835 1.290002 0.115485
v -0.069446 1.290002 0.103934
v -0.088388 1.290002 0.088388
v -0.103934 1.290002 0.069446
v -0.115485 1.290002 0.047835
v -0.122598 1.290002 0.024386
v -0.125000 1.290002 0.000000
v -0.122598 1.290002 -0.024386
v -0.115485 1.290002 -0.047835
v -0.103934 1.290002 -0.069446
v -0.088388 1.290002 -0.088388
v -0.069446 1.290002 -0.103934
v -0.047835 1.290002 -0.115485
v -0.024386 1.290002 -0.122598
v 0.000000 1.290002 -0.125000
v 0.000000 1.927500 -0.105314
v 0.020546 1.927500 -0.103290
v 0.040302 1.927500 -0.097297
v 0.058509 1.927500 -0.087565
v 0.074468 1.927500 -0.074468
v 0.087565 1.927500 -0.058509
v 0.097297 1.927500 -0.040302
v 0.103290 1.927500 -0.020546
v 0.105314 1.927500 -0.000000
v 0.103290 1.927500 0.020546
v 0.097297 1.927500 0.040302
v 0.087565 1.927500 0.058509
v 0.074468 1.927500 0.074468
v 0.058509 1.927500 0.087565
v 0.040302 1.927500 0.097297
v 0.020546 1.927500 0.103290
v 0.000000 1.927500 0.105314
v -0.020546 1.927500 0.103290
v -0.040302 1.927500 0.097297
v -0.058509 1.927500 0.087565
v -0.074468 1.927500 0.074468
v -0.087565 1.927500 0.058509
v -0.097297 1.927500 0.040302
v -0.103290 1.927500 0.020546
v -0.105314 1.927500 -0.000000
v -0.103290 1.927500 -0.020546
v -0.097297 1.927500 -0.040302
v -0.087565 1.927500 -0.058509
v -0.074468 1.927500 -0.074468
v -0.058509 1.927500 -0.087565
v -0.040302 1.927500 -0.097297
v -0.020546 1.927500 -0.103290
v 0.000000 0.000000 -0.140625
v 0.027435 0.000000 -0.137923
v 0.053815 0.000000 -0.129921
v 0.078127 0.000000 -0.116925
v 0.099437 0.000000 -0.099437
v 0.116925 0.000000 -0.078127
v 0.129921 0.000000 -0.053815
v 0.137923 0.000000 -0.027435
v 0.140625 0.000000 0.000000
v 0.137923 0.000000 0.027435
v 0.129921 0.000000 0.053815
v 0.116925 0.000000 0.078127
v 0.099437 0.000000 0.099437
v 0.078127 0.000000 0.116925
v 0.053815 0.000000 0.129921
v 0.027435 0.000000 0.137923
v 0.000000 0.000000 0.140625
v -0.027435 0.000000 0.137923
v -0.053815 0.000000 0.129921
v -0.078127 0.000000 0.116925
v -0.099437 0.000000 0.099437
v -0.116925 0.000000 0.078127
v -0.129921 0.000000 0.053815
v -0.137923 0.000000 0.027435
v -0.140625 0.000000 0.000000
v -0.137923 0.000000 -0.027435
v -0.129921 0.000000 -0.053815
v -0.116925 0.000000 -0.078127
v -0.099437 0.000000 -0.099437
v -0.078127 0.000000 -0.116925
v -0.053815 0.000000 -0.129921
v -0.027435 0.000000 -0.137923
v 0.042840 0.010000 -0.064115
v 0.064115 0.010000 -0.042840
v 0.075629 0.010000 -0.015044
v 0.077111 0.010000 0.000000
v 0.064115 0.010000 0.042840
v 0.042840 0.010000 0.064115
v -0.042840 0.010000 0.064115
v -0.054526 0.010000 0.054526
v -0.077111 0.010000 0.000000
v -0.042840 0.010000 -0.064115
v -0.015044 0.010000 -0.075629
v 0.000000 0.010000 -0.085490
v 0.016678 0.010000 -0.083848
v 0.032716 0.010000 -0.078983
v 0.047496 0.010000 -0.071083
v 0.060451 0.010000 -0.060451
v 0.071083 0.010000 -0.047496
v 0.078983 0.010000 -0.032716
v 0.083848 0.010000 -0.016678
v 0.085490 0.010000 0.000000
v 0.083848 0.010000 0.016678
v 0.078983 0.010000 0.032716
v 0.071083 0.010000 0.047496
v 0.060451 0.010000 0.060451
v 0.047496 0.010000 0.071083
v 0.032716 0.010000 0.078983
v 0.016678 0.010000 0.083848
v 0.000000 0.010000 0.085490
v -0.016678 0.010000 0.083848
v -0.032716 0.010000 0.078983
v -0.047496 0.010000 0.071083
v -0.060451 0.010000 0.060451
v -0.071083 0.010000 0.047496
v -0.078983 0.010000 0.032716
v -0.083848 0.010000 0.016678
v -0.085490 0.010000 0.000000
v -0.083848 0.010000 -0.016678
v -0.078983 0.010000 -0.032716
v -0.071083 0.010000 -0.047496
v -0.060451 0.010000 -0.060451
v -0.047496 0.010000 -0.071083
v -0.032716 0.010000 -0.078983
v -0.016678 0.010000 -0.083848
v -0.000000 0.010000 -0.077111
v 0.015044 0.010000 -0.075629
v 0.029509 0.010000 -0.071241
v -0.000000 0.000000 0.000000
v 0.054526 0.010000 -0.054526
v 0.071241 0.010000 -0.029509
v 0.075629 0.010000 0.015044
v 0.071241 0.010000 0.029509
v 0.054526 0.010000 0.054526
v 0.029509 0.010000 0.071241
v 0.015044 0.010000 0.075629
v -0.000000 0.010000 0.077111
v -0.015044 0.010000 0.075629
v -0.029509 0.010000 0.071241
v -0.064115 0.010000 0.042840
v -0.071241 0.010000 0.029509
v -0.075629 0.010000 0.015044
v -0.075629 0.010000 -0.015044
v -0.071241 0.010000 -0.029509
v -0.064115 0.010000 -0.042840
v -0.054526 0.010000 -0.054526
v -0.029509 0.010000 -0.071241
v 0.013002 0.000000 -0.065363
v 0.000000 0.000000 -0.066644
v 0.025503 0.000000 -0.061571
v 0.037025 0.000000 -0.055412
v 0.047124 0.000000 -0.047124
v 0.055412 0.000000 -0.037025
v 0.061571 0.000000 -0.025503
v 0.065363 0.000000 -0.013002
v 0.066644 0.000000 0.000000
v 0.065363 0.000000 0.013002
v 0.061571 0.000000 0.025503
v 0.055412 0.000000 0.037025
v 0.047124 0.000000 0.047124
v 0.037025 0.000000 0.055412
v 0.025503 0.000000 0.061571
v 0.013002 0.000000 0.065363
v 0.000000 0.000000 0.066644
v -0.013002 0.000000 0.065363
v -0.025503 0.000000 0.061571
v -0.037025 0.000000 0.055412
v -0.047124 0.000000 0.047124
v -0.055412 0.000000 0.037025
v -0.061571 0.000000 0.025503
v -0.065363 0.000000 0.013002
v -0.066644 0.000000 0.000000
v -0.065363 0.000000 -0.013002
v -0.061571 0.000000 -0.025503
v -0.055412 0.000000 -0.037025
v -0.047124 0.000000 -0.047124
v -0.037025 0.000000 -0.055412
v -0.025503 0.000000 -0.061571
v -0.013002 0.000000 -0.065363
vn -0.0000 0.0069 -1.0000
vn 0.1951 0.0069 -0.9808
vn 0.3827 0.0069 -0.9239
vn 0.5556 0.0069 -0.8314
vn 0.7071 0.0069 -0.7071
vn 0.8314 0.0069 -0.5556
vn 0.9239 0.0069 -0.3827
vn 0.9808 0.0069 -0.1951
vn 1.0000 0.0069 -0.0000
vn 0.9808 0.0069 0.1951
vn 0.9239 0.0069 0.3827
vn 0.8314 0.0069 0.5556
vn 0.7071 0.0069 0.7071
vn 0.5556 0.0069 0.8315
vn 0.3827 0.0069 0.9239
vn 0.1951 0.0069 0.9808
vn -0.0000 0.0069 1.0000
vn -0.1951 0.0069 0.9808
vn -0.3827 0.0069 0.9239
vn -0.5556 0.0069 0.8314
vn -0.7071 0.0069 0.7071
vn -0.8314 0.0069 0.5556
vn -0.9239 0.0069 0.3827
vn -0.9808 0.0069 0.1951
vn -1.0000 0.0069 -0.0000
vn -0.9808 0.0069 -0.1951
vn -0.9239 0.0069 -0.3827
vn -0.8315 0.0069 -0.5556
vn -0.7071 0.0069 -0.7071
vn -0.5556 0.0069 -0.8315
vn -0.3827 0.0069 -0.9239
vn 0.5556 -0.0000 -0.8315
vn 0.3827 -0.0000 -0.9239
vn -0.1951 0.0069 -0.9808
vn -0.0000 1.0000 -0.0000
vn -0.1951 -0.0000 -0.9808
vn -0.0000 -0.0000 -1.0000
vn -0.3827 -0.0000 -0.9239
vn -0.5556 -0.0000 -0.8315
vn -0.7071 -0.0000 -0.7071
vn -0.8315 -0.0000 -0.5556
vn -0.9239 -0.0000 -0.3827
vn -0.9808 -0.0000 -0.1951
vn -1.0000 -0.0000 -0.0000
vn -0.9808 -0.0000 0.1951
vn -0.9239 -0.0000 0.3827
vn -0.8315 -0.0000 0.5556
vn -0.7071 -0.0000 0.7071
vn -0.5556 -0.0000 0.8315
vn -0.3827 -0.0000 0.9239
vn -0.1951 -0.0000 0.9808
vn -0.0000 -0.0000 1.0000
vn 0.1951 -0.0000 0.9808
vn 0.3827 -0.0000 0.9239
vn 0.5556 -0.0000 0.8315
vn 0.7071 -0.0000 0.7071
vn 0.8315 -0.0000 0.5556
vn 0.9239 -0.0000 0.3827
vn 0.9808 -0.0000 0.1951
vn 1.0000 -0.0000 -0.0000
vn 0.9808 -0.0000 -0.1951
vn 0.9239 -0.0000 -0.3827
vn 0.8315 -0.0000 -0.5556
vn 0.7071 -0.0000 -0.7071
vn 0.1951 -0.0000 -0.9808
vn -0.1950 0.0319 -0.9803
vn -0.0000 0.0319 -0.9995
vn -0.3825 0.0319 -0.9234
vn -0.5553 0.0319 -0.8310
vn -0.7067 0.0319 -0.7067
vn -0.8310 0.0319 -0.5553
vn -0.9234 0.0319 -0.3825
vn -0.9803 0.0319 -0.1950
vn -0.9995 0.0319 -0.0000
vn -0.9803 0.0319 0.1950
vn -0.9234 0.0319 0.3825
vn -0.8310 0.0319 0.5553
vn -0.7067 0.0319 0.7067
vn -0.5553 0.0319 0.8310
vn -0.3825 0.0319 0.9234
vn -0.1950 0.0319 0.9803
vn -0.0000 0.0319 0.9995
vn 0.1950 0.0319 0.9803
vn 0.3825 0.0319 0.9234
vn 0.5553 0.0319 0.8310
vn 0.7067 0.0319 0.7067
vn 0.8310 0.0319 0.5553
vn 0.9234 0.0319 0.3825
vn 0.9803 0.0319 0.1950
vn 0.9995 0.0319 -0.0000
vn 0.9803 0.0319 -0.1950
vn 0.9234 0.0319 -0.3825
vn 0.8310 0.0319 -0.5553
vn 0.7067 0.0319 -0.7067
vn 0.5553 0.0319 -0.8310
vn 0.3825 0.0319 -0.9234
vn 0.1950 0.0319 -0.9803
vn -0.0000 -1.0000 -0.0000
vn -0.0000 -0.7231 -0.6908
vn 0.1348 -0.7231 -0.6775
vn 0.2644 -0.7231 -0.6382
vn 0.3838 -0.7231 -0.5744
vn 0.4885 -0.7231 -0.4885
vn 0.5744 -0.7231 -0.3838
vn 0.6382 -0.7231 -0.2644
vn 0.6775 -0.7231 -0.1348
vn 0.6908 -0.7231 -0.0000
vn 0.6775 -0.7231 0.1348
vn 0.6382 -0.7231 0.2644
vn 0.5744 -0.7231 0.3838
vn 0.4885 -0.7231 0.4885
vn 0.3838 -0.7231 0.5744
vn 0.2644 -0.7231 0.6382
vn 0.1348 -0.7231 0.6775
vn -0.0000 -0.7231 0.6908
vn -0.1348 -0.7231 0.6775
vn -0.2644 -0.7231 0.6382
vn -0.3838 -0.7231 0.5744
vn -0.4885 -0.7231 0.4885
vn -0.5744 -0.7231 0.3838
vn -0.6382 -0.7231 0.2644
vn -0.6775 -0.7231 0.1348
vn -0.6908 -0.7231 -0.0000
vn -0.6775 -0.7231 -0.1348
vn -0.6382 -0.7231 -0.2644
vn -0.5744 -0.7231 -0.3838
vn -0.4885 -0.7231 -0.4885
vn -0.3838 -0.7231 -0.5744
vn -0.2644 -0.7231 -0.6382
vn -0.1348 -0.7231 -0.6775
vt 1.000000 0.987500
vt 1.000000 1.000000
vt 0.968750 1.000000
vt 0.968750 0.987500
vt 0.937500 1.000000
vt 0.937500 0.987500
vt 0.906250 1.000000
vt 0.906250 0.987500
vt 0.875000 1.000000
vt 0.875000 0.987500
vt 0.843750 1.000000
vt 0.843750 0.987500
vt 0.812500 1.000000
vt 0.812500 0.987500
vt 0.781250 1.000000
vt 0.781250 0.987500
vt 0.750000 1.000000
vt 0.750000 0.987500
vt 0.718750 1.000000
vt 0.718750 0.987500
vt 0.687500 1.000000
vt 0.687500 0.987500
vt 0.656250 1.000000
vt 0.656250 0.987500
vt 0.625000 1.000000
vt 0.625000 0.987500
vt 0.593750 1.000000
vt 0.593750 0.987500
vt 0.562500 1.000000
vt 0.562500 0.987500
vt 0.531250 1.000000
vt 0.531250 0.987500
vt 0.500000 1.000000
vt 0.500000 0.987500
vt 0.468750 1.000000
vt 0.468750 0.987500
vt 0.437500 1.000000
vt 0.437500 0.987500
vt 0.406250 1.000000
vt 0.406250 0.987500
vt 0.375000 1.000000
vt 0.375000 0.987500
vt 0.343750 1.000000
vt 0.343750 0.987500
vt 0.312500 1.000000
vt 0.312500 0.987500
vt 0.281250 1.000000
vt 0.281250 0.987500
vt 0.250000 1.000000
vt 0.250000 0.987500
vt 0.218750 1.000000
vt 0.218750 0.987500
vt 0.187500 1.000000
vt 0.187500 0.987500
vt 0.156250 1.000000
vt 0.156250 0.987500
vt 0.125000 1.000000
vt 0.125000 0.987500
vt 0.093750 1.000000
vt 0.093750 0.987500
vt 0.062500 1.000000
vt 0.062500 0.987500
vt 0.198028 0.172219
vt 0.214201 0.163574
vt 0.031250 1.000000
vt 0.031250 0.987500
vt 0.000000 1.000000
vt 0.000000 0.987500
vt 0.281250 0.510000
vt 0.250000 0.510000
vt 0.218750 0.510000
vt 0.187500 0.510000
vt 0.156250 0.510000
vt 1.000000 0.510000
vt 0.968750 0.510000
vt 0.125000 0.510000
vt 0.937500 0.510000
vt 0.093750 0.510000
vt 0.906250 0.510000
vt 0.062500 0.510000
vt 0.875000 0.510000
vt 0.031250 0.510000
vt 0.843750 0.510000
vt 0.000000 0.510000
vt 0.812500 0.510000
vt 0.781250 0.510000
vt 0.750000 0.510000
vt 0.718750 0.510000
vt 0.031250 0.500000
vt 0.000000 0.500000
vt 0.062500 0.500000
vt 0.093750 0.500000
vt 0.125000 0.500000
vt 0.156250 0.500000
vt 0.187500 0.500000
vt 0.218750 0.500000
vt 0.250000 0.500000
vt 0.281250 0.500000
vt 0.312500 0.500000
vt 0.312500 0.510000
vt 0.343750 0.500000
vt 0.343750 0.510000
vt 0.375000 0.500000
vt 0.375000 0.510000
vt 0.406250 0.500000
vt 0.406250 0.510000
vt 0.437500 0.500000
vt 0.437500 0.510000
vt 0.468750 0.500000
vt 0.468750 0.510000
vt 0.500000 0.500000
vt 0.500000 0.510000
vt 0.531250 0.500000
vt 0.531250 0.510000
vt 0.562500 0.500000
vt 0.562500 0.510000
vt 0.593750 0.500000
vt 0.593750 0.510000
vt 0.625000 0.500000
vt 0.625000 0.510000
vt 0.656250 0.500000
vt 0.656250 0.510000
vt 0.687500 0.500000
vt 0.687500 0.510000
vt 0.718750 0.500000
vt 0.750000 0.500000
vt 0.781250 0.500000
vt 0.812500 0.500000
vt 0.843750 0.500000
vt 0.875000 0.500000
vt 0.906250 0.500000
vt 0.937500 0.500000
vt 0.968750 0.500000
vt 1.000000 0.500000
vt 0.627051 0.500000
vt 0.606624 0.500000
vt 0.250000 0.343546
vt 0.268250 0.341749
vt 0.296822 0.485388
vt 0.250000 0.490000
vt 0.285799 0.336426
vt 0.341844 0.471731
vt 0.301971 0.327781
vt 0.383337 0.449553
vt 0.316147 0.316147
vt 0.419706 0.419706
vt 0.327781 0.301972
vt 0.449553 0.383337
vt 0.336426 0.285799
vt 0.471731 0.341844
vt 0.341749 0.268250
vt 0.485388 0.296822
vt 0.343546 0.250000
vt 0.490000 0.250000
vt 0.341749 0.231750
vt 0.485388 0.203178
vt 0.336426 0.214201
vt 0.471731 0.158156
vt 0.327781 0.198028
vt 0.449553 0.116663
vt 0.316147 0.183853
vt 0.419706 0.080294
vt 0.301971 0.172219
vt 0.383337 0.050447
vt 0.285799 0.163574
vt 0.341844 0.028269
vt 0.268250 0.158251
vt 0.296822 0.014612
vt 0.250000 0.156454
vt 0.250000 0.010000
vt 0.231750 0.158251
vt 0.203178 0.014612
vt 0.158156 0.028269
vt 0.116663 0.050447
vt 0.183853 0.183853
vt 0.080294 0.080294
vt 0.172219 0.198028
vt 0.050447 0.116663
vt 0.163574 0.214201
vt 0.028269 0.158156
vt 0.158251 0.231750
vt 0.014612 0.203178
vt 0.156454 0.250000
vt 0.010000 0.250000
vt 0.158251 0.268250
vt 0.014612 0.296822
vt 0.163574 0.285799
vt 0.028269 0.341844
vt 0.172219 0.301971
vt 0.050447 0.383337
vt 0.183853 0.316147
vt 0.080294 0.419706
vt 0.198028 0.327781
vt 0.116663 0.449553
vt 0.214201 0.336426
vt 0.158156 0.471731
vt 0.231750 0.341749
vt 0.203178 0.485388
vt 0.031250 0.940000
vt 0.031250 0.950000
vt 0.000000 0.950000
vt 0.000000 0.940000
vt 0.062500 0.940000
vt 0.062500 0.950000
vt 0.093750 0.940000
vt 0.093750 0.950000
vt 0.125000 0.940000
vt 0.125000 0.950000
vt 0.156250 0.940000
vt 0.156250 0.950000
vt 0.187500 0.940000
vt 0.187500 0.950000
vt 0.218750 0.940000
vt 0.218750 0.950000
vt 0.250000 0.940000
vt 0.250000 0.950000
vt 0.281250 0.940000
vt 0.281250 0.950000
vt 0.312500 0.940000
vt 0.312500 0.950000
vt 0.343750 0.940000
vt 0.343750 0.950000
vt 0.375000 0.940000
vt 0.375000 0.950000
vt 0.406250 0.940000
vt 0.406250 0.950000
vt 0.437500 0.940000
vt 0.437500 0.950000
vt 0.468750 0.940000
vt 0.468750 0.950000
vt 0.500000 0.940000
vt 0.500000 0.950000
vt 0.531250 0.940000
vt 0.531250 0.950000
vt 0.562500 0.940000
vt 0.562500 0.950000
vt 0.593750 0.940000
vt 0.593750 0.950000
vt 0.625000 0.940000
vt 0.625000 0.950000
vt 0.656250 0.940000
vt 0.656250 0.950000
vt 0.687500 0.940000
vt 0.687500 0.950000
vt 0.718750 0.940000
vt 0.718750 0.950000
vt 0.750000 0.940000
vt 0.750000 0.950000
vt 0.781250 0.940000
vt 0.781250 0.950000
vt 0.812500 0.940000
vt 0.812500 0.950000
vt 0.843750 0.940000
vt 0.843750 0.950000
vt 0.875000 0.940000
vt 0.875000 0.950000
vt 0.906250 0.940000
vt 0.906250 0.950000
vt 0.937500 0.940000
vt 0.937500 0.950000
vt 0.968750 0.940000
vt 0.968750 0.950000
vt 1.000000 0.940000
vt 1.000000 0.950000
vt 0.538214 0.500000
vt 0.430536 0.500000
vt 0.624859 0.500000
vt 0.673315 0.500000
vt 0.693357 0.500000
vt 0.696813 0.500000
vt 0.690806 0.500000
vt 0.679149 0.500000
vt 0.663917 0.500000
vt 0.646308 0.500000
vt 0.585351 0.500000
vt 0.563468 0.500000
vt 0.541153 0.500000
vt 0.518552 0.500000
vt 0.495785 0.500000
vt 0.472965 0.500000
vt 0.450198 0.500000
vt 0.427596 0.500000
vt 0.405282 0.500000
vt 0.383399 0.500000
vt 0.362126 0.500000
vt 0.341698 0.500000
vt 0.322442 0.500000
vt 0.304833 0.500000
vt 0.289601 0.500000
vt 0.277944 0.500000
vt 0.271937 0.500000
vt 0.275393 0.500000
vt 0.295435 0.500000
vt 0.343891 0.500000
vt 0.527476 0.500000
vt 0.441273 0.500000
vt 0.600270 0.500000
vt 0.645754 0.500000
vt 0.667483 0.500000
vt 0.673638 0.500000
vt 0.670323 0.500000
vt 0.661161 0.500000
vt 0.648233 0.500000
vt 0.632767 0.500000
vt 0.615529 0.500000
vt 0.597019 0.500000
vt 0.577588 0.500000
vt 0.557486 0.500000
vt 0.536910 0.500000
vt 0.516017 0.500000
vt 0.494942 0.500000
vt 0.473808 0.500000
vt 0.452733 0.500000
vt 0.431840 0.500000
vt 0.411264 0.500000
vt 0.391162 0.500000
vt 0.371730 0.500000
vt 0.353221 0.500000
vt 0.335982 0.500000
vt 0.320516 0.500000
vt 0.307588 0.500000
vt 0.298427 0.500000
vt 0.295112 0.500000
vt 0.301267 0.500000
vt 0.322996 0.500000
vt 0.368479 0.500000
vt 0.441273 0.500000
vt 0.516845 0.500000
vt 0.451905 0.500000
vt 0.574068 0.500000
vt 0.613831 0.500000
vt 0.667483 0.500000
vt 0.635891 0.500000
vt 0.673638 0.500000
vt 0.644591 0.500000
vt 0.644326 0.500000
vt 0.661161 0.500000
vt 0.638185 0.500000
vt 0.628123 0.500000
vt 0.632767 0.500000
vt 0.615364 0.500000
vt 0.615529 0.500000
vt 0.600692 0.500000
vt 0.597019 0.500000
vt 0.584636 0.500000
vt 0.567568 0.500000
vt 0.557486 0.500000
vt 0.549761 0.500000
vt 0.536910 0.500000
vt 0.531427 0.500000
vt 0.516017 0.500000
vt 0.512741 0.500000
vt 0.494942 0.500000
vt 0.493852 0.500000
vt 0.473808 0.500000
vt 0.474897 0.500000
vt 0.456008 0.500000
vt 0.437322 0.500000
vt 0.418989 0.500000
vt 0.391162 0.500000
vt 0.401182 0.500000
vt 0.371730 0.500000
vt 0.384113 0.500000
vt 0.353221 0.500000
vt 0.368057 0.500000
vt 0.353386 0.500000
vt 0.340626 0.500000
vt 0.307588 0.500000
vt 0.330565 0.500000
vt 0.324424 0.500000
vt 0.324158 0.500000
vt 0.332859 0.500000
vt 0.354919 0.500000
vt 0.368479 0.500000
vt 0.394682 0.500000
vt 0.463353 0.500000
vt 0.505396 0.500000
vt 0.543988 0.500000
vt 0.573940 0.500000
vt 0.593578 0.500000
vt 0.603920 0.500000
vt 0.606988 0.500000
vt 0.604714 0.500000
vt 0.598588 0.500000
vt 0.589675 0.500000
vt 0.578721 0.500000
vt 0.566258 0.500000
vt 0.552674 0.500000
vt 0.538265 0.500000
vt 0.523262 0.500000
vt 0.507861 0.500000
vt 0.492229 0.500000
vt 0.476521 0.500000
vt 0.460889 0.500000
vt 0.445488 0.500000
vt 0.430485 0.500000
vt 0.416075 0.500000
vt 0.402491 0.500000
vt 0.390029 0.500000
vt 0.379075 0.500000
vt 0.370162 0.500000
vt 0.364036 0.500000
vt 0.361761 0.500000
vt 0.364829 0.500000
vt 0.375172 0.500000
vt 0.394809 0.500000
vt 0.424761 0.500000
s 1
f 257/1/1 130/2/1 129/3/2 258/4/2
f 258/4/2 129/3/2 131/5/3 259/6/3
f 259/6/3 131/5/3 132/7/4 260/8/4
f 260/8/4 132/7/4 133/9/5 261/10/5
f 261/10/5 133/9/5 134/11/6 262/12/6
f 262/12/6 134/11/6 135/13/7 263/14/7
f 263/14/7 135/13/7 136/15/8 264/16/8
f 264/16/8 136/15/8 137/17/9 265/18/9
f 265/18/9 137/17/9 138/19/10 266/20/10
f 266/20/10 138/19/10 139/21/11 267/22/11
f 267/22/11 139/21/11 140/23/12 268/24/12
f 268/24/12 140/23/12 141/25/13 269/26/13
f 269/26/13 141/25/13 142/27/14 270/28/14
f 270/28/14 142/27/14 143/29/15 271/30/15
f 271/30/15 143/29/15 144/31/16 272/32/16
f 272/32/16 144/31/16 145/33/17 273/34/17
f 273/34/17 145/33/17 146/35/18 274/36/18
f 274/36/18 146/35/18 147/37/19 275/38/19
f 275/38/19 147/37/19 148/39/20 276/40/20
f 276/40/20 148/39/20 149/41/21 277/42/21
f 277/42/21 149/41/21 150/43/22 278/44/22
f 278/44/22 150/43/22 151/45/23 279/46/23
f 279/46/23 151/45/23 152/47/24 280/48/24
f 280/48/24 152/47/24 153/49/25 281/50/25
f 281/50/25 153/49/25 154/51/26 282/52/26
f 282/52/26 154/51/26 155/53/27 283/54/27
f 283/54/27 155/53/27 156/55/28 284/56/28
f 284/56/28 156/55/28 157/57/29 285/58/29
f 285/58/29 157/57/29 158/59/30 286/60/30
f 286/60/30 158/59/30 159/61/31 287/62/31
f 20/63/32 19/64/33 179/64/33 180/63/32
f 287/62/31 159/61/31 160/65/34 288/66/34
f 288/66/34 160/65/34 130/67/1 257/68/1
f 56/69/35 57/70/35 113/70/35 111/69/35
f 57/70/35 58/71/35 115/71/35 113/70/35
f 58/71/35 59/72/35 117/72/35 115/71/35
f 59/72/35 60/73/35 119/73/35 117/72/35
f 33/74/35 34/75/35 67/75/35 128/74/35
f 60/73/35 61/76/35 121/76/35 119/73/35
f 34/75/35 35/77/35 69/77/35 67/75/35
f 61/76/35 62/78/35 123/78/35 121/76/35
f 35/77/35 36/79/35 71/79/35 69/77/35
f 62/78/35 63/80/35 125/80/35 123/78/35
f 36/79/35 37/81/35 73/81/35 71/79/35
f 63/80/35 64/82/35 127/82/35 125/80/35
f 37/81/35 38/83/35 75/83/35 73/81/35
f 64/82/35 33/84/35 128/84/35 127/82/35
f 38/83/35 39/85/35 77/85/35 75/83/35
f 39/85/35 40/86/35 79/86/35 77/85/35
f 40/86/35 41/87/35 81/87/35 79/86/35
f 41/87/35 42/88/35 83/88/35 81/87/35
f 320/89/36 127/82/36 128/84/37 289/90/37
f 319/91/38 125/80/38 127/82/36 320/89/36
f 318/92/39 123/78/39 125/80/38 319/91/38
f 317/93/40 121/76/40 123/78/39 318/92/39
f 316/94/41 119/73/41 121/76/40 317/93/40
f 315/95/42 117/72/42 119/73/41 316/94/41
f 314/96/43 115/71/43 117/72/42 315/95/42
f 313/97/44 113/70/44 115/71/43 314/96/43
f 312/98/45 111/69/45 113/70/44 313/97/44
f 311/99/46 109/100/46 111/69/45 312/98/45
f 310/101/47 107/102/47 109/100/46 311/99/46
f 309/103/48 105/104/48 107/102/47 310/101/47
f 308/105/49 103/106/49 105/104/48 309/103/48
f 307/107/50 101/108/50 103/106/49 308/105/49
f 306/109/51 99/110/51 101/108/50 307/107/50
f 305/111/52 97/112/52 99/110/51 306/109/51
f 304/113/53 95/114/53 97/112/52 305/111/52
f 303/115/54 93/116/54 95/114/53 304/113/53
f 302/117/55 91/118/55 93/116/54 303/115/54
f 301/119/56 89/120/56 91/118/55 302/117/55
f 300/121/57 87/122/57 89/120/56 301/119/56
f 299/123/58 85/124/58 87/122/57 300/121/57
f 298/125/59 83/88/59 85/124/58 299/123/58
f 297/126/60 81/87/60 83/88/59 298/125/59
f 296/127/61 79/86/61 81/87/60 297/126/60
f 295/128/62 77/85/62 79/86/61 296/127/61
f 294/129/63 75/83/63 77/85/62 295/128/62
f 293/130/64 73/81/64 75/83/63 294/129/63
f 292/131/32 71/79/32 73/81/64 293/130/64
f 291/132/33 69/77/33 71/79/32 292/131/32
f 290/133/65 67/75/65 69/77/33 291/132/33
f 289/134/37 128/74/37 67/75/65 290/133/65
f 55/100/35 56/69/35 111/69/35 109/100/35
f 54/102/35 55/100/35 109/100/35 107/102/35
f 53/104/35 54/102/35 107/102/35 105/104/35
f 52/106/35 53/104/35 105/104/35 103/106/35
f 51/108/35 52/106/35 103/106/35 101/108/35
f 50/110/35 51/108/35 101/108/35 99/110/35
f 49/112/35 50/110/35 99/110/35 97/112/35
f 48/114/35 49/112/35 97/112/35 95/114/35
f 47/116/35 48/114/35 95/114/35 93/116/35
f 46/118/35 47/116/35 93/116/35 91/118/35
f 45/120/35 46/118/35 91/118/35 89/120/35
f 84/135/42 86/136/41 343/136/41 342/135/42
f 44/122/35 45/120/35 89/120/35 87/122/35
f 43/124/35 44/122/35 87/122/35 85/124/35
f 42/88/35 43/124/35 85/124/35 83/88/35
f 1/137/35 2/138/35 129/139/35 130/140/35
f 2/138/35 3/141/35 131/142/35 129/139/35
f 3/141/35 4/143/35 132/144/35 131/142/35
f 4/143/35 5/145/35 133/146/35 132/144/35
f 5/145/35 6/147/35 134/148/35 133/146/35
f 6/147/35 7/149/35 135/150/35 134/148/35
f 7/149/35 8/151/35 136/152/35 135/150/35
f 8/151/35 9/153/35 137/154/35 136/152/35
f 9/153/35 10/155/35 138/156/35 137/154/35
f 10/155/35 11/157/35 139/158/35 138/156/35
f 11/157/35 12/159/35 140/160/35 139/158/35
f 12/159/35 13/161/35 141/162/35 140/160/35
f 13/161/35 14/163/35 142/164/35 141/162/35
f 14/163/35 15/165/35 143/166/35 142/164/35
f 15/165/35 16/167/35 144/168/35 143/166/35
f 16/167/35 17/169/35 145/170/35 144/168/35
f 17/169/35 18/171/35 146/172/35 145/170/35
f 18/171/35 19/64/35 147/173/35 146/172/35
f 19/64/35 20/63/35 148/174/35 147/173/35
f 20/63/35 21/175/35 149/176/35 148/174/35
f 21/175/35 22/177/35 150/178/35 149/176/35
f 22/177/35 23/179/35 151/180/35 150/178/35
f 23/179/35 24/181/35 152/182/35 151/180/35
f 24/181/35 25/183/35 153/184/35 152/182/35
f 25/183/35 26/185/35 154/186/35 153/184/35
f 26/185/35 27/187/35 155/188/35 154/186/35
f 27/187/35 28/189/35 156/190/35 155/188/35
f 28/189/35 29/191/35 157/192/35 156/190/35
f 29/191/35 30/193/35 158/194/35 157/192/35
f 30/193/35 31/195/35 159/196/35 158/194/35
f 31/195/35 32/197/35 160/198/35 159/196/35
f 32/197/35 1/137/35 130/140/35 160/198/35
f 162/138/35 161/137/35 192/197/35 191/195/35 190/193/35 189/191/35 188/189/35 187/187/35 186/185/35 185/183/35 184/181/35 183/179/35 182/177/35 181/175/35 180/63/35 179/64/35 178/171/35 177/169/35 176/167/35 175/165/35 174/163/35 173/161/35 172/159/35 171/157/35 170/155/35 169/153/35 168/151/35 167/149/35 166/147/35 165/145/35 164/143/35 163/141/35
f 7/149/46 6/147/47 166/147/47 167/149/46
f 21/175/64 20/63/32 180/63/32 181/175/64
f 8/151/45 7/149/46 167/149/46 168/151/45
f 22/177/63 21/175/64 181/175/64 182/177/63
f 9/153/44 8/151/45 168/151/45 169/153/44
f 23/179/62 22/177/63 182/177/63 183/179/62
f 10/155/43 9/153/44 169/153/44 170/155/43
f 24/181/61 23/179/62 183/179/62 184/181/61
f 11/157/42 10/155/43 170/155/43 171/157/42
f 25/183/60 24/181/61 184/181/61 185/183/60
f 12/159/41 11/157/42 171/157/42 172/159/41
f 26/185/59 25/183/60 185/183/60 186/185/59
f 13/161/40 12/159/41 172/159/41 173/161/40
f 27/187/58 26/185/59 186/185/59 187/187/58
f 14/163/39 13/161/40 173/161/40 174/163/39
f 28/189/57 27/187/58 187/187/58 188/189/57
f 15/165/38 14/163/39 174/163/39 175/165/38
f 2/138/51 1/137/52 161/137/52 162/138/51
f 29/191/56 28/189/57 188/189/57 189/191/56
f 16/167/36 15/165/38 175/165/38 176/167/36
f 3/141/50 2/138/51 162/138/51 163/141/50
f 30/193/55 29/191/56 189/191/56 190/193/55
f 17/169/37 16/167/36 176/167/36 177/169/37
f 4/143/49 3/141/50 163/141/50 164/143/49
f 31/195/54 30/193/55 190/193/55 191/195/54
f 18/171/65 17/169/37 177/169/37 178/171/65
f 5/145/48 4/143/49 164/143/49 165/145/48
f 32/197/53 31/195/54 191/195/54 192/197/53
f 19/64/33 18/171/65 178/171/65 179/64/33
f 6/147/47 5/145/48 165/145/48 166/147/47
f 1/137/52 32/197/53 192/197/53 161/137/52
f 255/199/36 224/200/36 193/201/37 256/202/37
f 254/203/38 223/204/38 224/200/36 255/199/36
f 253/205/39 222/206/39 223/204/38 254/203/38
f 252/207/40 221/208/40 222/206/39 253/205/39
f 251/209/41 220/210/41 221/208/40 252/207/40
f 250/211/42 219/212/42 220/210/41 251/209/41
f 249/213/43 218/214/43 219/212/42 250/211/42
f 248/215/44 217/216/44 218/214/43 249/213/43
f 247/217/45 216/218/45 217/216/44 248/215/44
f 246/219/46 215/220/46 216/218/45 247/217/45
f 245/221/47 214/222/47 215/220/46 246/219/46
f 244/223/48 213/224/48 214/222/47 245/221/47
f 243/225/49 212/226/49 213/224/48 244/223/48
f 242/227/50 211/228/50 212/226/49 243/225/49
f 241/229/51 210/230/51 211/228/50 242/227/50
f 240/231/52 209/232/52 210/230/51 241/229/51
f 239/233/53 208/234/53 209/232/52 240/231/52
f 238/235/54 207/236/54 208/234/53 239/233/53
f 237/237/55 206/238/55 207/236/54 238/235/54
f 236/239/56 205/240/56 206/238/55 237/237/55
f 235/241/57 204/242/57 205/240/56 236/239/56
f 234/243/58 203/244/58 204/242/57 235/241/57
f 233/245/59 202/246/59 203/244/58 234/243/58
f 232/247/60 201/248/60 202/246/59 233/245/59
f 231/249/61 200/250/61 201/248/60 232/247/60
f 230/251/62 199/252/62 200/250/61 231/249/61
f 229/253/63 198/254/63 199/252/62 230/251/62
f 228/255/64 197/256/64 198/254/63 229/253/63
f 227/257/32 196/258/32 197/256/64 228/255/64
f 226/259/33 195/260/33 196/258/32 227/257/32
f 225/261/65 194/262/65 195/260/33 226/259/33
f 256/263/37 193/264/37 194/262/65 225/261/65
f 33/74/37 256/263/37 225/261/65 34/75/65
f 34/75/65 225/261/65 226/259/33 35/77/33
f 35/77/33 226/259/33 227/257/32 36/79/32
f 36/79/32 227/257/32 228/255/64 37/81/64
f 37/81/64 228/255/64 229/253/63 38/83/63
f 38/83/63 229/253/63 230/251/62 39/85/62
f 39/85/62 230/251/62 231/249/61 40/86/61
f 40/86/61 231/249/61 232/247/60 41/87/60
f 41/87/60 232/247/60 233/245/59 42/88/59
f 42/88/59 233/245/59 234/243/58 43/124/58
f 43/124/58 234/243/58 235/241/57 44/122/57
f 44/122/57 235/241/57 236/239/56 45/120/56
f 45/120/56 236/239/56 237/237/55 46/118/55
f 46/118/55 237/237/55 238/235/54 47/116/54
f 47/116/54 238/235/54 239/233/53 48/114/53
f 48/114/53 239/233/53 240/231/52 49/112/52
f 49/112/52 240/231/52 241/229/51 50/110/51
f 50/110/51 241/229/51 242/227/50 51/108/50
f 51/108/50 242/227/50 243/225/49 52/106/49
f 52/106/49 243/225/49 244/223/48 53/104/48
f 53/104/48 244/223/48 245/221/47 54/102/47
f 54/102/47 245/221/47 246/219/46 55/100/46
f 55/100/46 246/219/46 247/217/45 56/69/45
f 56/69/45 247/217/45 248/215/44 57/70/44
f 57/70/44 248/215/44 249/213/43 58/71/43
f 58/71/43 249/213/43 250/211/42 59/72/42
f 59/72/42 250/211/42 251/209/41 60/73/41
f 60/73/41 251/209/41 252/207/40 61/76/40
f 61/76/40 252/207/40 253/205/39 62/78/39
f 62/78/39 253/205/39 254/203/38 63/80/38
f 63/80/38 254/203/38 255/199/36 64/82/36
f 64/82/36 255/199/36 256/202/37 33/84/37
f 224/200/66 288/66/66 257/68/67 193/201/67
f 223/204/68 287/62/68 288/66/66 224/200/66
f 222/206/69 286/60/69 287/62/68 223/204/68
f 221/208/70 285/58/70 286/60/69 222/206/69
f 220/210/71 284/56/71 285/58/70 221/208/70
f 219/212/72 283/54/72 284/56/71 220/210/71
f 218/214/73 282/52/73 283/54/72 219/212/72
f 217/216/74 281/50/74 282/52/73 218/214/73
f 216/218/75 280/48/75 281/50/74 217/216/74
f 215/220/76 279/46/76 280/48/75 216/218/75
f 214/222/77 278/44/77 279/46/76 215/220/76
f 213/224/78 277/42/78 278/44/77 214/222/77
f 212/226/79 276/40/79 277/42/78 213/224/78
f 211/228/80 275/38/80 276/40/79 212/226/79
f 210/230/81 274/36/81 275/38/80 211/228/80
f 209/232/82 273/34/82 274/36/81 210/230/81
f 208/234/83 272/32/83 273/34/82 209/232/82
f 207/236/84 271/30/84 272/32/83 208/234/83
f 206/238/85 270/28/85 271/30/84 207/236/84
f 205/240/86 269/26/86 270/28/85 206/238/85
f 204/242/87 268/24/87 269/26/86 205/240/86
f 203/244/88 267/22/88 268/24/87 204/242/87
f 202/246/89 266/20/89 267/22/88 203/244/88
f 201/248/90 265/18/90 266/20/89 202/246/89
f 200/250/91 264/16/91 265/18/90 201/248/90
f 199/252/92 263/14/92 264/16/91 200/250/91
f 198/254/93 262/12/93 263/14/92 199/252/92
f 197/256/94 261/10/94 262/12/93 198/254/93
f 196/258/95 260/8/95 261/10/94 197/256/94
f 195/260/96 259/6/96 260/8/95 196/258/95
f 194/262/97 258/4/97 259/6/96 195/260/96
f 193/264/67 257/1/67 258/4/97 194/262/97
f 66/265/98 65/266/98 289/90/98 290/133/98
f 68/267/98 66/265/98 290/133/98 291/132/98
f 70/268/98 68/267/98 291/132/98 292/131/98
f 72/269/98 70/268/98 292/131/98 293/130/98
f 74/270/98 72/269/98 293/130/98 294/129/98
f 76/271/98 74/270/98 294/129/98 295/128/98
f 78/272/98 76/271/98 295/128/98 296/127/98
f 80/273/98 78/272/98 296/127/98 297/126/98
f 82/274/98 80/273/98 297/126/98 298/125/98
f 84/135/98 82/274/98 298/125/98 299/123/98
f 86/136/98 84/135/98 299/123/98 300/121/98
f 88/275/98 86/136/98 300/121/98 301/119/98
f 90/276/98 88/275/98 301/119/98 302/117/98
f 92/277/98 90/276/98 302/117/98 303/115/98
f 94/278/98 92/277/98 303/115/98 304/113/98
f 96/279/98 94/278/98 304/113/98 305/111/98
f 98/280/98 96/279/98 305/111/98 306/109/98
f 100/281/98 98/280/98 306/109/98 307/107/98
f 102/282/98 100/281/98 307/107/98 308/105/98
f 104/283/98 102/282/98 308/105/98 309/103/98
f 106/284/98 104/283/98 309/103/98 310/101/98
f 108/285/98 106/284/98 310/101/98 311/99/98
f 110/286/98 108/285/98 311/99/98 312/98/98
f 112/287/98 110/286/98 312/98/98 313/97/98
f 114/288/98 112/287/98 313/97/98 314/96/98
f 116/289/98 114/288/98 314/96/98 315/95/98
f 118/290/98 116/289/98 315/95/98 316/94/98
f 120/291/98 118/290/98 316/94/98 317/93/98
f 122/292/98 120/291/98 317/93/98 318/92/98
f 124/293/98 122/292/98 318/92/98 319/91/98
f 126/294/98 124/293/98 319/91/98 320/89/98
f 65/266/98 126/294/98 320/89/98 289/90/98
f 112/287/60 114/288/59 357/288/59 356/287/60
f 86/136/41 88/275/40 344/275/40 343/136/41
f 114/288/59 116/289/58 358/289/58 357/288/59
f 88/275/40 90/276/39 345/276/39 344/275/40
f 116/289/58 118/290/57 359/290/57 358/289/58
f 90/276/39 92/277/38 346/277/38 345/276/39
f 65/266/52 66/265/51 333/265/51 332/266/52
f 118/290/57 120/291/56 360/291/56 359/290/57
f 92/277/38 94/278/36 347/278/36 346/277/38
f 66/265/51 68/267/50 334/267/50 333/265/51
f 120/291/56 122/292/55 361/292/55 360/291/56
f 94/278/36 96/279/37 348/279/37 347/278/36
f 68/267/50 70/268/49 335/268/49 334/267/50
f 122/292/55 124/293/54 362/293/54 361/292/55
f 96/279/37 98/280/65 349/280/65 348/279/37
f 70/268/49 72/269/48 336/269/48 335/268/49
f 124/293/54 126/294/53 363/294/53 362/293/54
f 98/280/65 100/281/33 350/281/33 349/280/65
f 72/269/48 74/270/47 337/270/47 336/269/48
f 126/294/53 65/266/52 332/266/52 363/294/53
f 100/281/33 102/282/32 351/282/32 350/281/33
f 74/270/47 76/271/46 338/271/46 337/270/47
f 102/282/32 104/283/64 352/283/64 351/282/32
f 76/271/46 78/272/45 339/272/45 338/271/46
f 104/283/64 106/284/63 353/284/63 352/283/64
f 78/272/45 80/273/44 340/273/44 339/272/45
f 106/284/63 108/285/62 354/285/62 353/284/63
f 80/273/44 82/274/43 341/274/43 340/273/44
f 108/285/62 110/286/61 355/286/61 354/285/62
f 82/274/43 84/135/42 342/135/42 341/274/43
f 110/286/61 112/287/60 356/287/60 355/286/61
f 365/295/98 364/296/98 332/266/98 333/265/98
f 366/297/98 365/295/98 333/265/98 334/267/98
f 321/298/98 366/297/98 334/267/98 335/268/98
f 368/299/98 321/298/98 335/268/98 336/269/98
f 322/300/98 368/299/98 336/269/98 337/270/98
f 369/301/98 322/300/98 337/270/98 338/271/98
f 323/302/98 369/301/98 338/271/98 339/272/98
f 324/303/98 323/302/98 339/272/98 340/273/98
f 370/304/98 324/303/98 340/273/98 341/274/98
f 371/305/98 370/304/98 341/274/98 342/135/98
f 325/306/98 371/305/98 342/135/98 343/136/98
f 372/307/98 325/306/98 343/136/98 344/275/98
f 326/308/98 372/307/98 344/275/98 345/276/98
f 373/309/98 326/308/98 345/276/98 346/277/98
f 374/310/98 373/309/98 346/277/98 347/278/98
f 375/311/98 374/310/98 347/278/98 348/279/98
f 376/312/98 375/311/98 348/279/98 349/280/98
f 377/313/98 376/312/98 349/280/98 350/281/98
f 327/314/98 377/313/98 350/281/98 351/282/98
f 328/315/98 327/314/98 351/282/98 352/283/98
f 378/316/98 328/315/98 352/283/98 353/284/98
f 379/317/98 378/316/98 353/284/98 354/285/98
f 380/318/98 379/317/98 354/285/98 355/286/98
f 329/319/98 380/318/98 355/286/98 356/287/98
f 381/320/98 329/319/98 356/287/98 357/288/98
f 382/321/98 381/320/98 357/288/98 358/289/98
f 383/322/98 382/321/98 358/289/98 359/290/98
f 384/323/98 383/322/98 359/290/98 360/291/98
f 330/324/98 384/323/98 360/291/98 361/292/98
f 385/325/98 330/324/98 361/292/98 362/293/98
f 331/326/98 385/325/98 362/293/98 363/294/98
f 364/296/98 331/326/98 363/294/98 332/266/98
f 364/327/99 365/295/100 386/328/100 387/329/99
f 365/295/100 366/297/101 388/330/101 386/328/100
f 366/297/101 321/298/102 389/331/102 388/330/101
f 321/298/102 368/332/103 390/333/103 389/331/102
f 368/332/103 322/334/104 391/335/104 390/333/103
f 322/334/104 369/301/105 392/336/105 391/335/104
f 369/301/105 323/337/106 393/338/106 392/336/105
f 323/337/106 324/303/107 394/339/107 393/338/106
f 324/303/107 370/340/108 395/341/108 394/339/107
f 370/340/108 371/342/109 396/343/109 395/341/108
f 371/342/109 325/344/110 397/345/110 396/343/109
f 325/344/110 372/307/111 398/346/111 397/345/110
f 372/307/111 326/347/112 399/348/112 398/346/111
f 326/347/112 373/349/113 400/350/113 399/348/112
f 373/349/113 374/351/114 401/352/114 400/350/113
f 374/351/114 375/353/115 402/354/115 401/352/114
f 375/353/115 376/355/116 403/356/116 402/354/115
f 376/355/116 377/313/117 404/357/117 403/356/116
f 377/313/117 327/314/118 405/358/118 404/357/117
f 327/314/118 328/315/119 406/359/119 405/358/118
f 328/315/119 378/360/120 407/361/120 406/359/119
f 378/360/120 379/362/121 408/363/121 407/361/120
f 379/362/121 380/364/122 409/365/122 408/363/121
f 380/364/122 329/319/123 410/366/123 409/365/122
f 329/319/123 381/320/124 411/367/124 410/366/123
f 381/320/124 382/368/125 412/369/125 411/367/124
f 382/368/125 383/322/126 413/370/126 412/369/125
f 383/322/126 384/323/127 414/371/127 413/370/126
f 384/323/127 330/324/128 415/372/128 414/371/127
f 330/324/128 385/325/129 416/373/129 415/372/128
f 385/325/129 331/374/130 417/375/130 416/373/129
f 331/374/130 364/327/99 387/329/99 417/375/130
f 367/376/98 387/329/98 386/328/98
f 367/377/98 386/328/98 388/330/98
f 367/378/98 388/330/98 389/331/98
f 367/379/98 389/331/98 390/333/98
f 367/380/98 390/333/98 391/335/98
f 367/381/98 391/335/98 392/336/98
f 367/382/98 392/336/98 393/338/98
f 367/383/98 393/338/98 394/339/98
f 367/384/98 394/339/98 395/341/98
f 367/385/98 395/341/98 396/343/98
f 367/386/98 396/343/98 397/345/98
f 367/387/98 397/345/98 398/346/98
f 367/388/98 398/346/98 399/348/98
f 367/389/98 399/348/98 400/350/98
f 367/390/98 400/350/98 401/352/98
f 367/391/98 401/352/98 402/354/98
f 367/392/98 402/354/98 403/356/98
f 367/393/98 403/356/98 404/357/98
f 367/394/98 404/357/98 405/358/98
f 367/395/98 405/358/98 406/359/98
f 367/396/98 406/359/98 407/361/98
f 367/397/98 407/361/98 408/363/98
f 367/398/98 408/363/98 409/365/98
f 367/399/98 409/365/98 410/366/98
f 367/400/98 410/366/98 411/367/98
f 367/401/98 411/367/98 412/369/98
f 367/402/98 412/369/98 413/370/98
f 367/403/98 413/370/98 414/371/98
f 367/404/98 414/371/98 415/372/98
f 367/405/98 415/372/98 416/373/98
f 367/406/98 416/373/98 417/375/98
f 367/407/98 417/375/98 387/329/98
