# Blender 4.5.1 LTS
# www.blender.org
o HE
v 0.000000 0.092000 -0.100000
v 0.000000 0.404000 -0.100000
v 0.019509 0.092000 -0.098079
v 0.019509 0.404000 -0.098079
v 0.038268 0.092000 -0.092388
v 0.038268 0.404000 -0.092388
v 0.055557 0.092000 -0.083147
v 0.055557 0.404000 -0.083147
v 0.070711 0.092000 -0.070711
v 0.070711 0.404000 -0.070711
v 0.083147 0.092000 -0.055557
v 0.083147 0.404000 -0.055557
v 0.092388 0.092000 -0.038268
v 0.092388 0.404000 -0.038268
v 0.098079 0.092000 -0.019509
v 0.098079 0.404000 -0.019509
v 0.100000 0.092000 0.000000
v 0.100000 0.404000 0.000000
v 0.098079 0.092000 0.019509
v 0.098079 0.404000 0.019509
v 0.092388 0.092000 0.038268
v 0.092388 0.404000 0.038268
v 0.083147 0.092000 0.055557
v 0.083147 0.404000 0.055557
v 0.070711 0.092000 0.070711
v 0.070711 0.404000 0.070711
v 0.055557 0.092000 0.083147
v 0.055557 0.404000 0.083147
v 0.038268 0.092000 0.092388
v 0.038268 0.404000 0.092388
v 0.019509 0.092000 0.098079
v 0.019509 0.404000 0.098079
v 0.000000 0.092000 0.100000
v 0.000000 0.404000 0.100000
v -0.019509 0.092000 0.098079
v -0.019509 0.404000 0.098079
v -0.038268 0.092000 0.092388
v -0.038268 0.404000 0.092388
v -0.055557 0.092000 0.083147
v -0.055557 0.404000 0.083147
v -0.070711 0.092000 0.070711
v -0.070711 0.404000 0.070711
v -0.083147 0.092000 0.055557
v -0.083147 0.404000 0.055557
v -0.092388 0.092000 0.038268
v -0.092388 0.404000 0.038268
v -0.098079 0.092000 0.019509
v -0.098079 0.404000 0.019509
v -0.100000 0.092000 0.000000
v -0.100000 0.404000 0.000000
v -0.098079 0.092000 -0.019509
v -0.098079 0.404000 -0.019509
v -0.092388 0.092000 -0.038268
v -0.092388 0.404000 -0.038268
v -0.083147 0.092000 -0.055557
v -0.083147 0.404000 -0.055557
v -0.070711 0.092000 -0.070711
v -0.070711 0.404000 -0.070711
v -0.055557 0.092000 -0.083147
v -0.055557 0.404000 -0.083147
v -0.038268 0.092000 -0.092388
v -0.038268 0.404000 -0.092388
v -0.019509 0.092000 -0.098079
v -0.019509 0.404000 -0.098079
v -0.000000 0.649000 -0.044367
v 0.008656 0.649000 -0.043514
v 0.016978 0.649000 -0.040990
v 0.024649 0.649000 -0.036890
v 0.031372 0.649000 -0.031372
v 0.036890 0.649000 -0.024649
v 0.040990 0.649000 -0.016978
v 0.043514 0.649000 -0.008656
v 0.044367 0.649000 0.000000
v 0.043514 0.649000 0.008656
v 0.040990 0.649000 0.016978
v 0.036890 0.649000 0.024649
v 0.031372 0.649000 0.031372
v 0.024649 0.649000 0.036890
v 0.016978 0.649000 0.040990
v 0.008656 0.649000 0.043514
v -0.000000 0.649000 0.044367
v -0.008656 0.649000 0.043514
v -0.016978 0.649000 0.040990
v -0.024649 0.649000 0.036890
v -0.031372 0.649000 0.031372
v -0.036890 0.649000 0.024649
v -0.040990 0.649000 0.016978
v -0.043514 0.649000 0.008656
v -0.044367 0.649000 0.000000
v -0.043514 0.649000 -0.008656
v -0.040990 0.649000 -0.016978
v -0.036890 0.649000 -0.024649
v -0.031372 0.649000 -0.031372
v -0.024649 0.649000 -0.036890
v -0.016978 0.649000 -0.040990
v -0.008656 0.649000 -0.043514
v 0.068022 0.431222 -0.068022
v 0.064112 0.458444 -0.064112
v 0.060572 0.485667 -0.060572
v 0.056919 0.512889 -0.056919
v 0.052724 0.540111 -0.052724
v 0.048347 0.567333 -0.048347
v 0.043354 0.594556 -0.043354
v 0.037946 0.621778 -0.037946
v 0.044620 0.621778 -0.029814
v 0.050979 0.594556 -0.034063
v 0.056851 0.567333 -0.037986
v 0.061997 0.540111 -0.041425
v 0.066930 0.512889 -0.044721
v 0.071225 0.485667 -0.047591
v 0.075388 0.458444 -0.050373
v 0.079986 0.431222 -0.053445
v 0.053445 0.431222 0.079986
v 0.050373 0.458444 0.075388
v 0.047591 0.485667 0.071225
v 0.044721 0.512889 0.066930
v 0.041425 0.540111 0.061997
v 0.037986 0.567333 0.056851
v 0.034063 0.594556 0.050979
v 0.029814 0.621778 0.044620
v 0.020536 0.621778 0.049579
v 0.023463 0.594556 0.056645
v 0.026165 0.567333 0.063169
v 0.028534 0.540111 0.068887
v 0.030804 0.512889 0.074368
v 0.032781 0.485667 0.079141
v 0.034697 0.458444 0.083767
v 0.036813 0.431222 0.088875
v -0.088875 0.431222 0.036813
v -0.083767 0.458444 0.034697
v -0.079141 0.485667 0.032781
v -0.074368 0.512889 0.030804
v -0.068887 0.540111 0.028534
v -0.063169 0.567333 0.026165
v -0.056645 0.594556 0.023463
v -0.049579 0.621778 0.020536
v -0.052633 0.621778 0.010469
v -0.060134 0.594556 0.011961
v -0.067060 0.567333 0.013339
v -0.073130 0.540111 0.014546
v -0.078949 0.512889 0.015704
v -0.084015 0.485667 0.016712
v -0.088927 0.458444 0.017689
v -0.094349 0.431222 0.018767
v -0.000000 0.431222 -0.096198
v -0.000000 0.458444 -0.090669
v -0.000000 0.485667 -0.085661
v -0.000000 0.512889 -0.080496
v -0.000000 0.540111 -0.074563
v -0.000000 0.567333 -0.068374
v -0.000000 0.594556 -0.061312
v -0.000000 0.621778 -0.053664
v 0.010469 0.621778 -0.052633
v 0.011961 0.594556 -0.060134
v 0.013339 0.567333 -0.067060
v 0.014546 0.540111 -0.073130
v 0.015704 0.512889 -0.078949
v 0.016712 0.485667 -0.084015
v 0.017689 0.458444 -0.088927
v 0.018767 0.431222 -0.094349
v -0.018767 0.431222 -0.094349
v -0.017689 0.458444 -0.088927
v -0.016712 0.485667 -0.084015
v -0.015704 0.512889 -0.078949
v -0.014547 0.540111 -0.073130
v -0.013339 0.567333 -0.067060
v -0.011961 0.594556 -0.060134
v -0.010469 0.621778 -0.052633
v 0.094349 0.431222 0.018767
v 0.088927 0.458444 0.017689
v 0.084015 0.485667 0.016712
v 0.078949 0.512889 0.015704
v 0.073130 0.540111 0.014546
v 0.067060 0.567333 0.013339
v 0.060134 0.594556 0.011961
v 0.052633 0.621778 0.010469
v 0.049579 0.621778 0.020536
v 0.056645 0.594556 0.023463
v 0.063169 0.567333 0.026165
v 0.068887 0.540111 0.028534
v 0.074368 0.512889 0.030804
v 0.079141 0.485667 0.032781
v 0.083767 0.458444 0.034697
v 0.088875 0.431222 0.036813
v -0.036813 0.431222 0.088875
v -0.034697 0.458444 0.083767
v -0.032781 0.485667 0.079141
v -0.030804 0.512889 0.074368
v -0.028534 0.540111 0.068887
v -0.026166 0.567333 0.063169
v -0.023463 0.594556 0.056645
v -0.020536 0.621778 0.049579
v -0.029814 0.621778 0.044620
v -0.034063 0.594556 0.050979
v -0.037986 0.567333 0.056851
v -0.041425 0.540111 0.061997
v -0.044721 0.512889 0.066930
v -0.047591 0.485667 0.071225
v -0.050373 0.458444 0.075388
v -0.053445 0.431222 0.079986
v -0.079986 0.431222 -0.053445
v -0.075388 0.458444 -0.050373
v -0.071225 0.485667 -0.047591
v -0.066930 0.512889 -0.044721
v -0.061997 0.540111 -0.041425
v -0.056851 0.567333 -0.037986
v -0.050979 0.594556 -0.034063
v -0.044620 0.621778 -0.029814
v -0.037946 0.621778 -0.037946
v -0.043354 0.594556 -0.043354
v -0.048348 0.567333 -0.048347
v -0.052724 0.540111 -0.052724
v -0.056919 0.512889 -0.056919
v -0.060572 0.485667 -0.060572
v -0.064112 0.458444 -0.064112
v -0.068022 0.431222 -0.068022
v 0.049579 0.621778 -0.020536
v 0.056645 0.594556 -0.023463
v 0.063169 0.567333 -0.026165
v 0.068887 0.540111 -0.028534
v 0.074368 0.512889 -0.030804
v 0.079141 0.485667 -0.032781
v 0.083767 0.458444 -0.034697
v 0.088875 0.431222 -0.036813
v 0.010469 0.621778 0.052633
v 0.011961 0.594556 0.060134
v 0.013339 0.567333 0.067060
v 0.014546 0.540111 0.073130
v 0.015704 0.512889 0.078949
v 0.016712 0.485667 0.084015
v 0.017689 0.458444 0.088927
v 0.018767 0.431222 0.094349
v -0.053664 0.621778 0.000000
v -0.061312 0.594556 0.000000
v -0.068374 0.567333 0.000000
v -0.074563 0.540111 0.000000
v -0.080496 0.512889 0.000000
v -0.085661 0.485667 0.000000
v -0.090669 0.458444 0.000000
v -0.096198 0.431222 0.000000
v 0.020536 0.621778 -0.049579
v 0.023463 0.594556 -0.056645
v 0.026165 0.567333 -0.063169
v 0.028534 0.540111 -0.068887
v 0.030804 0.512889 -0.074368
v 0.032781 0.485667 -0.079141
v 0.034697 0.458444 -0.083767
v 0.036813 0.431222 -0.088875
v 0.044620 0.621778 0.029814
v 0.050979 0.594556 0.034063
v 0.056851 0.567333 0.037986
v 0.061997 0.540111 0.041425
v 0.066930 0.512889 0.044721
v 0.071225 0.485667 0.047591
v 0.075388 0.458444 0.050373
v 0.079986 0.431222 0.053445
v -0.037946 0.621778 0.037946
v -0.043354 0.594556 0.043354
v -0.048348 0.567333 0.048347
v -0.052724 0.540111 0.052724
v -0.056919 0.512889 0.056919
v -0.060572 0.485667 0.060572
v -0.064112 0.458444 0.064112
v -0.068022 0.431222 0.068022
v -0.029814 0.621778 -0.044620
v -0.034063 0.594556 -0.050979
v -0.037986 0.567333 -0.056851
v -0.041425 0.540111 -0.061997
v -0.044721 0.512889 -0.066930
v -0.047591 0.485667 -0.071225
v -0.050373 0.458444 -0.075388
v -0.053445 0.431222 -0.079986
v 0.052633 0.621778 -0.010469
v 0.060134 0.594556 -0.011961
v 0.067060 0.567333 -0.013339
v 0.073130 0.540111 -0.014546
v 0.078949 0.512889 -0.015704
v 0.084015 0.485667 -0.016712
v 0.088927 0.458444 -0.017689
v 0.094349 0.431222 -0.018767
v -0.000000 0.621778 0.053664
v -0.000000 0.594556 0.061312
v -0.000000 0.567333 0.068374
v -0.000000 0.540111 0.074563
v -0.000000 0.512889 0.080496
v -0.000000 0.485667 0.085661
v -0.000000 0.458444 0.090669
v -0.000000 0.431222 0.096198
v -0.052633 0.621778 -0.010469
v -0.060134 0.594556 -0.011961
v -0.067060 0.567333 -0.013339
v -0.073130 0.540111 -0.014546
v -0.078949 0.512889 -0.015704
v -0.084015 0.485667 -0.016712
v -0.088927 0.458444 -0.017689
v -0.094349 0.431222 -0.018767
v 0.029814 0.621778 -0.044620
v 0.034063 0.594556 -0.050979
v 0.037986 0.567333 -0.056851
v 0.041425 0.540111 -0.061997
v 0.044721 0.512889 -0.066930
v 0.047591 0.485667 -0.071225
v 0.050373 0.458444 -0.075388
v 0.053445 0.431222 -0.079986
v 0.037946 0.621778 0.037946
v 0.043354 0.594556 0.043354
v 0.048347 0.567333 0.048347
v 0.052724 0.540111 0.052724
v 0.056919 0.512889 0.056919
v 0.060572 0.485667 0.060572
v 0.064112 0.458444 0.064112
v 0.068022 0.431222 0.068022
v -0.044620 0.621778 0.029814
v -0.050979 0.594556 0.034063
v -0.056851 0.567333 0.037986
v -0.061997 0.540111 0.041425
v -0.066930 0.512889 0.044721
v -0.071225 0.485667 0.047591
v -0.075388 0.458444 0.050373
v -0.079986 0.431222 0.053445
v -0.020536 0.621778 -0.049579
v -0.023463 0.594556 -0.056645
v -0.026166 0.567333 -0.063169
v -0.028534 0.540111 -0.068887
v -0.030804 0.512889 -0.074368
v -0.032781 0.485667 -0.079141
v -0.034697 0.458444 -0.083767
v -0.036813 0.431222 -0.088875
v 0.053664 0.621778 0.000000
v 0.061312 0.594556 0.000000
v 0.068374 0.567333 0.000000
v 0.074563 0.540111 0.000000
v 0.080496 0.512889 0.000000
v 0.085661 0.485667 0.000000
v 0.090669 0.458444 0.000000
v 0.096198 0.431222 0.000000
v -0.010469 0.621778 0.052633
v -0.011961 0.594556 0.060134
v -0.013339 0.567333 0.067060
v -0.014547 0.540111 0.073130
v -0.015704 0.512889 0.078949
v -0.016712 0.485667 0.084015
v -0.017689 0.458444 0.088927
v -0.018767 0.431222 0.094349
v -0.049579 0.621778 -0.020536
v -0.056645 0.594556 -0.023463
v -0.063169 0.567333 -0.026165
v -0.068887 0.540111 -0.028534
v -0.074368 0.512889 -0.030804
v -0.079141 0.485667 -0.032781
v -0.083767 0.458444 -0.034697
v -0.088875 0.431222 -0.036813
v 0.008324 0.653000 -0.041847
v -0.000000 0.653000 -0.042667
v 0.016328 0.653000 -0.039419
v 0.023704 0.653000 -0.035476
v 0.030170 0.653000 -0.030170
v 0.035476 0.653000 -0.023704
v 0.039419 0.653000 -0.016328
v 0.041847 0.653000 -0.008324
v 0.042667 0.653000 0.000000
v 0.041847 0.653000 0.008324
v 0.039419 0.653000 0.016328
v 0.035476 0.653000 0.023704
v 0.030170 0.653000 0.030170
v 0.023704 0.653000 0.035476
v 0.016328 0.653000 0.039419
v 0.008324 0.653000 0.041847
v -0.000000 0.653000 0.042667
v -0.008324 0.653000 0.041847
v -0.016328 0.653000 0.039419
v -0.023704 0.653000 0.035476
v -0.030170 0.653000 0.030170
v -0.035476 0.653000 0.023704
v -0.039419 0.653000 0.016328
v -0.041847 0.653000 0.008324
v -0.042667 0.653000 0.000000
v -0.041847 0.653000 -0.008324
v -0.039419 0.653000 -0.016328
v -0.035476 0.653000 -0.023704
v -0.030170 0.653000 -0.030170
v -0.023704 0.653000 -0.035476
v -0.016328 0.653000 -0.039419
v -0.008324 0.653000 -0.041847
v 0.008228 0.653000 -0.041363
v -0.000000 0.653000 -0.042173
v 0.016139 0.653000 -0.038963
v 0.023430 0.653000 -0.035066
v 0.029821 0.653000 -0.029821
v 0.035066 0.653000 -0.023430
v 0.038963 0.653000 -0.016139
v 0.041363 0.653000 -0.008228
v 0.042173 0.653000 0.000000
v 0.041363 0.653000 0.008228
v 0.038963 0.653000 0.016139
v 0.035066 0.653000 0.023430
v 0.029821 0.653000 0.029821
v 0.023430 0.653000 0.035066
v 0.016139 0.653000 0.038963
v 0.008228 0.653000 0.041363
v -0.000000 0.653000 0.042173
v -0.008228 0.653000 0.041363
v -0.016139 0.653000 0.038963
v -0.023430 0.653000 0.035066
v -0.029821 0.653000 0.029821
v -0.035066 0.653000 0.023430
v -0.038963 0.653000 0.016139
v -0.041363 0.653000 0.008228
v -0.042173 0.653000 0.000000
v -0.041363 0.653000 -0.008228
v -0.038963 0.653000 -0.016139
v -0.035066 0.653000 -0.023430
v -0.029821 0.653000 -0.029821
v -0.023430 0.653000 -0.035066
v -0.016139 0.653000 -0.038963
v -0.008228 0.653000 -0.041363
v 0.006896 0.667000 -0.034671
v -0.000000 0.667000 -0.035350
v 0.013528 0.667000 -0.032659
v 0.019639 0.667000 -0.029392
v 0.024996 0.667000 -0.024996
v 0.029392 0.667000 -0.019639
v 0.032659 0.667000 -0.013528
v 0.034671 0.667000 -0.006896
v 0.035350 0.667000 0.000000
v 0.034671 0.667000 0.006896
v 0.032659 0.667000 0.013528
v 0.029392 0.667000 0.019639
v 0.024996 0.667000 0.024996
v 0.019639 0.667000 0.029392
v 0.013528 0.667000 0.032659
v 0.006896 0.667000 0.034671
v -0.000000 0.667000 0.035350
v -0.006896 0.667000 0.034671
v -0.013528 0.667000 0.032659
v -0.019639 0.667000 0.029392
v -0.024996 0.667000 0.024996
v -0.029392 0.667000 0.019639
v -0.032659 0.667000 0.013528
v -0.034671 0.667000 0.006896
v -0.035350 0.667000 0.000000
v -0.034671 0.667000 -0.006896
v -0.032659 0.667000 -0.013528
v -0.029392 0.667000 -0.019639
v -0.024996 0.667000 -0.024996
v -0.019639 0.667000 -0.029392
v -0.013528 0.667000 -0.032659
v -0.006896 0.667000 -0.034671
v 0.008228 0.667000 -0.041363
v -0.000000 0.667000 -0.042173
v 0.016139 0.667000 -0.038963
v 0.023430 0.667000 -0.035066
v 0.029821 0.667000 -0.029821
v 0.035066 0.667000 -0.023430
v 0.038963 0.667000 -0.016139
v 0.041363 0.667000 -0.008228
v 0.042173 0.667000 0.000000
v 0.041363 0.667000 0.008228
v 0.038963 0.667000 0.016139
v 0.035066 0.667000 0.023430
v 0.029821 0.667000 0.029821
v 0.023430 0.667000 0.035066
v 0.016139 0.667000 0.038963
v 0.008228 0.667000 0.041363
v -0.000000 0.667000 0.042173
v -0.008228 0.667000 0.041363
v -0.016139 0.667000 0.038963
v -0.023430 0.667000 0.035066
v -0.029821 0.667000 0.029821
v -0.035066 0.667000 0.023430
v -0.038963 0.667000 0.016139
v -0.041363 0.667000 0.008228
v -0.042173 0.667000 0.000000
v -0.041363 0.667000 -0.008228
v -0.038963 0.667000 -0.016139
v -0.035066 0.667000 -0.023430
v -0.029821 0.667000 -0.029821
v -0.023430 0.667000 -0.035066
v -0.016139 0.667000 -0.038963
v -0.008228 0.667000 -0.041363
v 0.006896 0.670000 -0.034671
v -0.000000 0.670000 -0.035350
v 0.013528 0.670000 -0.032659
v 0.019639 0.670000 -0.029392
v 0.024996 0.670000 -0.024996
v 0.029392 0.670000 -0.019639
v 0.032659 0.670000 -0.013528
v 0.034671 0.670000 -0.006896
v 0.035350 0.670000 0.000000
v 0.034671 0.670000 0.006896
v 0.032659 0.670000 0.013528
v 0.029392 0.670000 0.019639
v 0.024996 0.670000 0.024996
v 0.019639 0.670000 0.029392
v 0.013528 0.670000 0.032659
v 0.006896 0.670000 0.034671
v -0.000000 0.670000 0.035350
v -0.006896 0.670000 0.034671
v -0.013528 0.670000 0.032659
v -0.019639 0.670000 0.029392
v -0.024996 0.670000 0.024996
v -0.029392 0.670000 0.019639
v -0.032659 0.670000 0.013528
v -0.034671 0.670000 0.006896
v -0.035350 0.670000 0.000000
v -0.034671 0.670000 -0.006896
v -0.032659 0.670000 -0.013528
v -0.029392 0.670000 -0.019639
v -0.024996 0.670000 -0.024996
v -0.019639 0.670000 -0.029392
v -0.013528 0.670000 -0.032659
v -0.006896 0.670000 -0.034671
v -0.000000 0.700000 0.000000
v -0.000000 0.000000 0.000000
v 0.095258 0.076667 0.018948
v 0.091464 0.061333 0.018193
v 0.087673 0.046000 0.017439
v 0.084307 0.030667 0.016770
v 0.080362 0.015333 0.015985
v 0.081936 0.015333 0.000000
v 0.085959 0.030667 0.000000
v 0.089391 0.046000 0.000000
v 0.093256 0.061333 0.000000
v 0.097125 0.076667 0.000000
v -0.037168 0.076667 0.089732
v -0.035687 0.061333 0.086157
v -0.034208 0.046000 0.082586
v -0.032895 0.030667 0.079415
v -0.031356 0.015333 0.075699
v -0.015985 0.015333 0.080362
v -0.016770 0.030667 0.084307
v -0.017439 0.046000 0.087673
v -0.018193 0.061333 0.091464
v -0.018948 0.076667 0.095258
v -0.080756 0.076667 -0.053960
v -0.077539 0.061333 -0.051810
v -0.074326 0.046000 -0.049663
v -0.071472 0.030667 -0.047756
v -0.068128 0.015333 -0.045521
v -0.075699 0.015333 -0.031356
v -0.079415 0.030667 -0.032895
v -0.082586 0.046000 -0.034208
v -0.086157 0.061333 -0.035687
v -0.089732 0.076667 -0.037168
v 0.080756 0.076667 -0.053960
v 0.077539 0.061333 -0.051810
v 0.074326 0.046000 -0.049663
v 0.071472 0.030667 -0.047756
v 0.068128 0.015333 -0.045521
v 0.057938 0.015333 -0.057938
v 0.060782 0.030667 -0.060782
v 0.063209 0.046000 -0.063209
v 0.065942 0.061333 -0.065942
v 0.068678 0.076667 -0.068678
v 0.037168 0.076667 0.089732
v 0.035687 0.061333 0.086157
v 0.034208 0.046000 0.082586
v 0.032895 0.030667 0.079415
v 0.031356 0.015333 0.075699
v 0.045521 0.015333 0.068128
v 0.047756 0.030667 0.071472
v 0.049663 0.046000 0.074326
v 0.051810 0.061333 0.077539
v 0.053960 0.076667 0.080756
v -0.095258 0.076667 0.018948
v -0.091464 0.061333 0.018193
v -0.087673 0.046000 0.017439
v -0.084307 0.030667 0.016770
v -0.080362 0.015333 0.015985
v -0.075699 0.015333 0.031356
v -0.079415 0.030667 0.032895
v -0.082586 0.046000 0.034208
v -0.086157 0.061333 0.035687
v -0.089732 0.076667 0.037168
v 0.018948 0.076667 -0.095258
v 0.018193 0.061333 -0.091464
v 0.017439 0.046000 -0.087673
v 0.016770 0.030667 -0.084307
v 0.015985 0.015333 -0.080362
v -0.000000 0.015333 -0.081936
v -0.000000 0.030667 -0.085959
v -0.000000 0.046000 -0.089391
v -0.000000 0.061333 -0.093256
v -0.000000 0.076667 -0.097125
v -0.015985 0.015333 -0.080362
v -0.016770 0.030667 -0.084307
v -0.017439 0.046000 -0.087673
v -0.018193 0.061333 -0.091464
v -0.018948 0.076667 -0.095258
v 0.089732 0.076667 0.037168
v 0.086157 0.061333 0.035687
v 0.082586 0.046000 0.034208
v 0.079415 0.030667 0.032895
v 0.075699 0.015333 0.031356
v -0.053960 0.076667 0.080756
v -0.051810 0.061333 0.077539
v -0.049663 0.046000 0.074326
v -0.047756 0.030667 0.071472
v -0.045521 0.015333 0.068128
v -0.068678 0.076667 -0.068678
v -0.065942 0.061333 -0.065942
v -0.063209 0.046000 -0.063209
v -0.060782 0.030667 -0.060782
v -0.057938 0.015333 -0.057938
v 0.089732 0.076667 -0.037168
v 0.086157 0.061333 -0.035687
v 0.082586 0.046000 -0.034208
v 0.079415 0.030667 -0.032895
v 0.075699 0.015333 -0.031356
v 0.018948 0.076667 0.095258
v 0.018193 0.061333 0.091464
v 0.017439 0.046000 0.087673
v 0.016770 0.030667 0.084307
v 0.015985 0.015333 0.080362
v -0.097125 0.076667 0.000000
v -0.093256 0.061333 0.000000
v -0.089391 0.046000 0.000000
v -0.085959 0.030667 0.000000
v -0.081937 0.015333 0.000000
v 0.037168 0.076667 -0.089732
v 0.035687 0.061333 -0.086157
v 0.034208 0.046000 -0.082586
v 0.032895 0.030667 -0.079415
v 0.031356 0.015333 -0.075699
v 0.080756 0.076667 0.053960
v 0.077539 0.061333 0.051810
v 0.074326 0.046000 0.049663
v 0.071472 0.030667 0.047756
v 0.068128 0.015333 0.045521
v -0.068678 0.076667 0.068678
v -0.065942 0.061333 0.065942
v -0.063209 0.046000 0.063209
v -0.060782 0.030667 0.060782
v -0.057938 0.015333 0.057938
v -0.053960 0.076667 -0.080756
v -0.051810 0.061333 -0.077539
v -0.049663 0.046000 -0.074326
v -0.047756 0.030667 -0.071472
v -0.045521 0.015333 -0.068128
v 0.095258 0.076667 -0.018948
v 0.091464 0.061333 -0.018193
v 0.087673 0.046000 -0.017439
v 0.084307 0.030667 -0.016770
v 0.080362 0.015333 -0.015985
v -0.000000 0.076667 0.097125
v -0.000000 0.061333 0.093256
v -0.000000 0.046000 0.089391
v -0.000000 0.030667 0.085959
v -0.000000 0.015333 0.081936
v -0.095258 0.076667 -0.018948
v -0.091464 0.061333 -0.018193
v -0.087673 0.046000 -0.017439
v -0.084307 0.030667 -0.016770
v -0.080362 0.015333 -0.015985
v 0.053960 0.076667 -0.080756
v 0.051810 0.061333 -0.077539
v 0.049663 0.046000 -0.074326
v 0.047756 0.030667 -0.071472
v 0.045521 0.015333 -0.068128
v 0.068678 0.076667 0.068678
v 0.065942 0.061333 0.065942
v 0.063209 0.046000 0.063209
v 0.060782 0.030667 0.060782
v 0.057938 0.015333 0.057938
v -0.080756 0.076667 0.053960
v -0.077539 0.061333 0.051810
v -0.074326 0.046000 0.049663
v -0.071472 0.030667 0.047756
v -0.068128 0.015333 0.045521
v -0.037168 0.076667 -0.089732
v -0.035687 0.061333 -0.086157
v -0.034208 0.046000 -0.082586
v -0.032895 0.030667 -0.079415
v -0.031356 0.015333 -0.075699
v -0.000000 0.000000 -0.077445
v 0.015109 0.000000 -0.075957
v 0.029637 0.000000 -0.071549
v 0.043026 0.000000 -0.064393
v 0.054762 0.000000 -0.054762
v 0.064393 0.000000 -0.043026
v 0.071549 0.000000 -0.029637
v 0.075957 0.000000 -0.015109
v 0.077445 0.000000 0.000000
v 0.075957 0.000000 0.015109
v 0.071549 0.000000 0.029637
v 0.064393 0.000000 0.043026
v 0.054762 0.000000 0.054762
v 0.043026 0.000000 0.064393
v 0.029637 0.000000 0.071549
v 0.015109 0.000000 0.075957
v -0.000000 0.000000 0.077445
v -0.015109 0.000000 0.075957
v -0.029637 0.000000 0.071549
v -0.043026 0.000000 0.064393
v -0.054762 0.000000 0.054762
v -0.064393 0.000000 0.043026
v -0.071549 0.000000 0.029637
v -0.075957 0.000000 0.015109
v -0.077445 0.000000 0.000000
v -0.075957 0.000000 -0.015109
v -0.071549 0.000000 -0.029637
v -0.064393 0.000000 -0.043026
v -0.054762 0.000000 -0.054762
v -0.043026 0.000000 -0.064393
v -0.029637 0.000000 -0.071549
v -0.015109 0.000000 -0.075957
v 0.004570 0.700000 -0.022975
v -0.000000 0.700000 -0.023425
v 0.008964 0.700000 -0.021642
v 0.013014 0.700000 -0.019477
v 0.016564 0.700000 -0.016564
v 0.019477 0.700000 -0.013014
v 0.021642 0.700000 -0.008964
v 0.022975 0.700000 -0.004570
v 0.023425 0.700000 0.000000
v 0.022975 0.700000 0.004570
v 0.021642 0.700000 0.008964
v 0.019477 0.700000 0.013014
v 0.016564 0.700000 0.016564
v 0.013014 0.700000 0.019477
v 0.008964 0.700000 0.021642
v 0.004570 0.700000 0.022975
v -0.000000 0.700000 0.023425
v -0.004570 0.700000 0.022975
v -0.008965 0.700000 0.021642
v -0.013014 0.700000 0.019477
v -0.016564 0.700000 0.016564
v -0.019477 0.700000 0.013014
v -0.021642 0.700000 0.008964
v -0.022975 0.700000 0.004570
v -0.023425 0.700000 0.000000
v -0.022975 0.700000 -0.004570
v -0.021642 0.700000 -0.008964
v -0.019477 0.700000 -0.013014
v -0.016564 0.700000 -0.016564
v -0.013014 0.700000 -0.019477
v -0.008965 0.700000 -0.021642
v -0.004570 0.700000 -0.022975
vn -0.0000 -0.0000 -1.0000
vn 0.1951 -0.0000 -0.9808
vn 0.3827 -0.0000 -0.9239
vn 0.5556 -0.0000 -0.8315
vn 0.7071 -0.0000 -0.7071
vn 0.8315 -0.0000 -0.5556
vn 0.9239 -0.0000 -0.3827
vn 0.9808 -0.0000 -0.1951
vn 1.0000 -0.0000 -0.0000
vn 0.9808 -0.0000 0.1951
vn 0.9239 -0.0000 0.3827
vn 0.8315 -0.0000 0.5556
vn 0.7071 -0.0000 0.7071
vn 0.5556 -0.0000 0.8315
vn 0.3827 -0.0000 0.9239
vn 0.1951 -0.0000 0.9808
vn -0.0000 -0.0000 1.0000
vn -0.1951 -0.0000 0.9808
vn -0.3827 -0.0000 0.9239
vn -0.5556 -0.0000 0.8315
vn -0.7071 -0.0000 0.7071
vn -0.8315 -0.0000 0.5556
vn -0.9239 -0.0000 0.3827
vn -0.9808 -0.0000 0.1951
vn -1.0000 -0.0000 -0.0000
vn -0.9808 -0.0000 -0.1951
vn -0.9239 -0.0000 -0.3827
vn -0.8315 -0.0000 -0.5556
vn -0.7071 -0.0000 -0.7071
vn -0.5556 -0.0000 -0.8315
vn -0.3827 -0.0000 -0.9239
vn 0.7941 0.2965 -0.5306
vn 0.6753 0.2965 -0.6753
vn 0.6692 0.3232 -0.6692
vn 0.7868 0.3232 -0.5258
vn -0.1951 -0.0000 -0.9808
vn 0.9636 -0.2672 -0.0000
vn 0.9451 -0.2672 0.1880
vn 0.9412 -0.2811 0.1872
vn 0.9597 -0.2811 -0.0000
vn -0.8503 0.3912 -0.3522
vn -0.9026 0.3912 -0.1795
vn 0.3655 0.2965 0.8823
vn 0.5306 0.2965 0.7941
vn 0.5258 0.3232 0.7868
vn 0.3621 0.3232 0.8743
vn -0.9367 0.2965 0.1863
vn -0.8823 0.2965 0.3655
vn -0.8743 0.3232 0.3621
vn -0.9281 0.3232 0.1846
vn 0.1863 0.2965 -0.9367
vn -0.0000 0.2965 -0.9550
vn -0.0000 0.3232 -0.9463
vn 0.1846 0.3232 -0.9282
vn -0.1863 0.2965 -0.9367
vn -0.1846 0.3232 -0.9281
vn 0.8823 0.2965 0.3655
vn 0.9367 0.2965 0.1863
vn 0.9282 0.3232 0.1846
vn 0.8743 0.3232 0.3621
vn -0.5306 0.2965 0.7941
vn -0.3655 0.2965 0.8823
vn -0.3621 0.3232 0.8743
vn -0.5258 0.3232 0.7868
vn -0.6753 0.2965 -0.6753
vn -0.7941 0.2965 -0.5306
vn -0.7868 0.3232 -0.5258
vn -0.6692 0.3232 -0.6692
vn 0.8823 0.2965 -0.3655
vn 0.8743 0.3232 -0.3621
vn 0.1863 0.2965 0.9367
vn 0.1846 0.3232 0.9281
vn -0.9550 0.2965 -0.0000
vn -0.9463 0.3232 -0.0000
vn 0.3655 0.2965 -0.8823
vn 0.3621 0.3232 -0.8743
vn 0.7941 0.2965 0.5306
vn 0.7868 0.3232 0.5258
vn -0.6753 0.2965 0.6753
vn -0.6692 0.3232 0.6692
vn -0.5306 0.2965 -0.7941
vn -0.5258 0.3232 -0.7868
vn 0.9367 0.2965 -0.1863
vn 0.9282 0.3232 -0.1846
vn -0.0000 0.2965 0.9550
vn -0.0000 0.3232 0.9463
vn -0.9367 0.2965 -0.1863
vn -0.9281 0.3232 -0.1846
vn 0.5306 0.2965 -0.7941
vn 0.5258 0.3232 -0.7868
vn 0.6753 0.2965 0.6753
vn 0.6692 0.3232 0.6692
vn -0.7941 0.2965 0.5306
vn -0.7868 0.3232 0.5258
vn -0.3655 0.2965 -0.8823
vn -0.3621 0.3232 -0.8743
vn 0.9550 0.2965 -0.0000
vn 0.9463 0.3232 -0.0000
vn -0.1863 0.2965 0.9367
vn -0.1846 0.3232 0.9281
vn -0.8823 0.2965 -0.3655
vn -0.8743 0.3232 -0.3621
vn -0.8235 0.1383 -0.5502
vn -0.9150 0.1383 -0.3790
vn -0.9107 0.1684 -0.3772
vn -0.8196 0.1684 -0.5476
vn -0.9070 0.1901 -0.3757
vn -0.8163 0.1901 -0.5454
vn -0.9082 0.1836 -0.3762
vn -0.8173 0.1836 -0.5461
vn -0.9053 0.1995 -0.3750
vn -0.8147 0.1995 -0.5444
vn -0.9018 0.2173 -0.3735
vn -0.8116 0.2173 -0.5423
vn -0.8977 0.2362 -0.3719
vn -0.8079 0.2362 -0.5398
vn -0.8919 0.2606 -0.3695
vn -0.8027 0.2606 -0.5364
vn -0.3790 0.1383 0.9150
vn -0.1932 0.1383 0.9714
vn -0.1923 0.1684 0.9668
vn -0.3772 0.1684 0.9107
vn -0.1915 0.1901 0.9629
vn -0.3757 0.1901 0.9070
vn -0.1918 0.1836 0.9641
vn -0.3762 0.1836 0.9082
vn -0.1912 0.1995 0.9611
vn -0.3750 0.1995 0.9053
vn -0.1904 0.2173 0.9574
vn -0.3735 0.2173 0.9018
vn -0.1896 0.2362 0.9530
vn -0.3719 0.2362 0.8977
vn -0.1883 0.2606 0.9469
vn -0.3695 0.2606 0.8919
vn 0.9714 0.1383 0.1932
vn 0.9904 0.1383 -0.0000
vn 0.9857 0.1684 -0.0000
vn 0.9668 0.1684 0.1923
vn 0.9818 0.1901 -0.0000
vn 0.9629 0.1901 0.1915
vn 0.9830 0.1836 -0.0000
vn 0.9641 0.1836 0.1918
vn 0.9799 0.1995 -0.0000
vn 0.9611 0.1995 0.1912
vn 0.9761 0.2173 -0.0000
vn 0.9574 0.2173 0.1904
vn 0.9717 0.2362 -0.0000
vn 0.9530 0.2362 0.1896
vn 0.9654 0.2606 -0.0000
vn 0.9469 0.2606 0.1883
vn -0.1932 0.1383 -0.9714
vn -0.3790 0.1383 -0.9150
vn -0.3772 0.1684 -0.9107
vn -0.1923 0.1684 -0.9668
vn -0.3757 0.1901 -0.9070
vn -0.1915 0.1901 -0.9629
vn -0.3762 0.1836 -0.9082
vn -0.1918 0.1836 -0.9641
vn -0.3750 0.1995 -0.9053
vn -0.1912 0.1995 -0.9611
vn -0.3735 0.2173 -0.9018
vn -0.1904 0.2173 -0.9574
vn -0.3719 0.2362 -0.8977
vn -0.1896 0.2362 -0.9530
vn -0.3695 0.2606 -0.8919
vn -0.1883 0.2606 -0.9469
vn -0.9150 0.1383 0.3790
vn -0.8235 0.1383 0.5502
vn -0.8196 0.1684 0.5476
vn -0.9107 0.1684 0.3772
vn -0.8163 0.1901 0.5454
vn -0.9070 0.1901 0.3757
vn -0.8173 0.1836 0.5461
vn -0.9082 0.1836 0.3762
vn -0.8147 0.1995 0.5444
vn -0.9053 0.1995 0.3750
vn -0.8116 0.2173 0.5423
vn -0.9018 0.2173 0.3735
vn -0.8079 0.2362 0.5398
vn -0.8977 0.2362 0.3719
vn -0.8027 0.2606 0.5364
vn -0.8919 0.2606 0.3695
vn 0.5502 0.1383 0.8235
vn 0.7003 0.1383 0.7003
vn 0.6970 0.1684 0.6970
vn 0.5476 0.1684 0.8196
vn 0.6942 0.1901 0.6942
vn 0.5454 0.1901 0.8163
vn 0.6951 0.1836 0.6951
vn 0.5461 0.1836 0.8173
vn 0.6929 0.1995 0.6929
vn 0.5444 0.1995 0.8147
vn 0.6902 0.2173 0.6902
vn 0.5423 0.2173 0.8116
vn 0.6871 0.2362 0.6871
vn 0.5398 0.2362 0.8079
vn 0.6827 0.2606 0.6827
vn 0.5364 0.2606 0.8027
vn 0.7003 0.1383 -0.7003
vn 0.5502 0.1383 -0.8235
vn 0.5476 0.1684 -0.8196
vn 0.6970 0.1684 -0.6970
vn 0.5454 0.1901 -0.8163
vn 0.6942 0.1901 -0.6942
vn 0.5461 0.1836 -0.8173
vn 0.6951 0.1836 -0.6951
vn 0.5444 0.1995 -0.8147
vn 0.6929 0.1995 -0.6929
vn 0.5423 0.2173 -0.8116
vn 0.6902 0.2173 -0.6902
vn 0.5398 0.2362 -0.8079
vn 0.6871 0.2362 -0.6871
vn 0.5364 0.2606 -0.8027
vn 0.6827 0.2606 -0.6827
vn -0.9714 0.1383 -0.1932
vn -0.9668 0.1684 -0.1923
vn -0.9629 0.1901 -0.1915
vn -0.9641 0.1836 -0.1918
vn -0.9611 0.1995 -0.1912
vn -0.9574 0.2173 -0.1904
vn -0.9530 0.2362 -0.1896
vn -0.9469 0.2606 -0.1883
vn -0.0000 0.1383 0.9904
vn -0.0000 0.1684 0.9857
vn -0.0000 0.1901 0.9818
vn -0.0000 0.1836 0.9830
vn -0.0000 0.1995 0.9799
vn -0.0000 0.2173 0.9761
vn -0.0000 0.2362 0.9717
vn -0.0000 0.2606 0.9654
vn 0.9714 0.1383 -0.1932
vn 0.9668 0.1684 -0.1923
vn 0.9629 0.1901 -0.1915
vn 0.9641 0.1836 -0.1918
vn 0.9611 0.1995 -0.1912
vn 0.9574 0.2173 -0.1904
vn 0.9530 0.2362 -0.1896
vn 0.9469 0.2606 -0.1883
vn -0.5502 0.1383 -0.8235
vn -0.5476 0.1684 -0.8196
vn -0.5454 0.1901 -0.8163
vn -0.5461 0.1836 -0.8173
vn -0.5444 0.1995 -0.8147
vn -0.5423 0.2173 -0.8116
vn -0.5398 0.2362 -0.8079
vn -0.5364 0.2606 -0.8027
vn -0.7003 0.1383 0.7003
vn -0.6970 0.1684 0.6970
vn -0.6942 0.1901 0.6942
vn -0.6951 0.1836 0.6951
vn -0.6929 0.1995 0.6929
vn -0.6902 0.2173 0.6902
vn -0.6871 0.2362 0.6871
vn -0.6827 0.2606 0.6827
vn 0.8235 0.1383 0.5502
vn 0.8196 0.1684 0.5476
vn 0.8163 0.1901 0.5454
vn 0.8173 0.1836 0.5461
vn 0.8147 0.1995 0.5444
vn 0.8116 0.2173 0.5423
vn 0.8079 0.2362 0.5398
vn 0.8027 0.2606 0.5364
vn 0.3790 0.1383 -0.9150
vn 0.3772 0.1684 -0.9107
vn 0.3757 0.1901 -0.9070
vn 0.3762 0.1836 -0.9082
vn 0.3750 0.1995 -0.9053
vn 0.3735 0.2173 -0.9018
vn 0.3719 0.2362 -0.8977
vn 0.3695 0.2606 -0.8919
vn -0.9904 0.1383 -0.0000
vn -0.9857 0.1684 -0.0000
vn -0.9818 0.1901 -0.0000
vn -0.9830 0.1836 -0.0000
vn -0.9799 0.1995 -0.0000
vn -0.9761 0.2173 -0.0000
vn -0.9717 0.2362 -0.0000
vn -0.9654 0.2606 -0.0000
vn 0.1932 0.1383 0.9714
vn 0.1923 0.1684 0.9668
vn 0.1915 0.1901 0.9629
vn 0.1918 0.1836 0.9641
vn 0.1912 0.1995 0.9611
vn 0.1904 0.2173 0.9574
vn 0.1896 0.2362 0.9530
vn 0.1883 0.2606 0.9469
vn 0.9150 0.1383 -0.3790
vn 0.9107 0.1684 -0.3772
vn 0.9070 0.1901 -0.3757
vn 0.9082 0.1836 -0.3762
vn 0.9053 0.1995 -0.3750
vn 0.9018 0.2173 -0.3735
vn 0.8977 0.2362 -0.3719
vn 0.8919 0.2606 -0.3695
vn -0.7003 0.1383 -0.7003
vn -0.6970 0.1684 -0.6970
vn -0.6942 0.1901 -0.6942
vn -0.6951 0.1836 -0.6951
vn -0.6929 0.1995 -0.6929
vn -0.6902 0.2173 -0.6902
vn -0.6871 0.2362 -0.6871
vn -0.6827 0.2606 -0.6827
vn -0.5502 0.1383 0.8235
vn -0.5476 0.1684 0.8196
vn -0.5454 0.1901 0.8163
vn -0.5461 0.1836 0.8173
vn -0.5444 0.1995 0.8147
vn -0.5423 0.2173 0.8116
vn -0.5398 0.2362 0.8079
vn -0.5364 0.2606 0.8027
vn 0.9150 0.1383 0.3790
vn 0.9107 0.1684 0.3772
vn 0.9070 0.1901 0.3757
vn 0.9082 0.1836 0.3762
vn 0.9053 0.1995 0.3750
vn 0.9018 0.2173 0.3735
vn 0.8977 0.2362 0.3719
vn 0.8919 0.2606 0.3695
vn 0.1932 0.1383 -0.9714
vn 0.1923 0.1684 -0.9668
vn 0.1915 0.1901 -0.9629
vn 0.1918 0.1836 -0.9641
vn 0.1912 0.1995 -0.9611
vn 0.1904 0.2173 -0.9574
vn 0.1896 0.2362 -0.9530
vn 0.1883 0.2606 -0.9469
vn -0.9714 0.1383 0.1932
vn -0.9668 0.1684 0.1923
vn -0.9629 0.1901 0.1915
vn -0.9641 0.1836 0.1918
vn -0.9611 0.1995 0.1912
vn -0.9574 0.2173 0.1904
vn -0.9530 0.2362 0.1896
vn -0.9469 0.2606 0.1883
vn 0.3790 0.1383 0.9150
vn 0.3772 0.1684 0.9107
vn 0.3757 0.1901 0.9070
vn 0.3762 0.1836 0.9082
vn 0.3750 0.1995 0.9053
vn 0.3735 0.2173 0.9018
vn 0.3719 0.2362 0.8977
vn 0.3695 0.2606 0.8919
vn 0.8235 0.1383 -0.5502
vn 0.8196 0.1684 -0.5476
vn 0.8163 0.1901 -0.5454
vn 0.8173 0.1836 -0.5461
vn 0.8147 0.1995 -0.5444
vn 0.8116 0.2173 -0.5423
vn 0.8079 0.2362 -0.5398
vn 0.8027 0.2606 -0.5364
vn -0.0000 0.1383 -0.9904
vn -0.0000 0.1684 -0.9857
vn -0.0000 0.1901 -0.9818
vn -0.0000 0.1836 -0.9830
vn -0.0000 0.1995 -0.9799
vn -0.0000 0.2173 -0.9761
vn -0.0000 0.2362 -0.9717
vn -0.0000 0.2606 -0.9654
vn -0.0000 1.0000 -0.0000
vn -0.0001 1.0000 -0.0000
vn 0.5113 0.3912 0.7652
vn 0.6508 0.3912 0.6508
vn -0.7652 0.3912 -0.5113
vn 0.3522 0.3912 0.8503
vn 0.1795 0.3912 -0.9026
vn -0.0000 0.3912 -0.9203
vn -0.6508 0.3912 -0.6508
vn 0.1795 0.3912 0.9026
vn 0.3522 0.3912 -0.8503
vn -0.5113 0.3912 -0.7652
vn -0.0000 0.3912 0.9203
vn 0.5113 0.3912 -0.7652
vn -0.3522 0.3912 -0.8503
vn -0.1795 0.3912 0.9026
vn 0.6508 0.3912 -0.6508
vn -0.1795 0.3912 -0.9026
vn -0.3522 0.3912 0.8503
vn 0.7652 0.3912 -0.5113
vn -0.5113 0.3912 0.7652
vn 0.8503 0.3912 -0.3522
vn -0.6508 0.3912 0.6508
vn 0.9026 0.3912 -0.1795
vn -0.7652 0.3912 0.5113
vn 0.9203 0.3912 -0.0000
vn -0.8503 0.3912 0.3522
vn 0.9026 0.3912 0.1795
vn -0.9026 0.3912 0.1795
vn 0.8503 0.3912 0.3522
vn -0.9203 0.3912 -0.0000
vn 0.7652 0.3912 0.5113
vn 0.0001 1.0000 -0.0000
vn 0.9114 0.3694 0.1813
vn 0.9293 0.3694 -0.0000
vn -0.9114 0.3694 0.1813
vn -0.8585 0.3694 0.3556
vn 0.8585 0.3694 0.3556
vn -0.9293 0.3694 -0.0000
vn 0.7727 0.3694 0.5163
vn -0.9114 0.3694 -0.1813
vn 0.6571 0.3694 0.6571
vn -0.8585 0.3694 -0.3556
vn 0.5163 0.3694 0.7727
vn -0.7727 0.3694 -0.5163
vn 0.3556 0.3694 0.8585
vn 0.1813 0.3694 -0.9114
vn -0.0000 0.3694 -0.9293
vn -0.6571 0.3694 -0.6571
vn 0.1813 0.3694 0.9114
vn 0.3556 0.3694 -0.8585
vn -0.5163 0.3694 -0.7727
vn -0.0000 0.3694 0.9293
vn 0.5163 0.3694 -0.7727
vn -0.3556 0.3694 -0.8585
vn -0.1813 0.3694 0.9114
vn 0.6571 0.3694 -0.6571
vn -0.1813 0.3694 -0.9114
vn -0.3556 0.3694 0.8585
vn 0.7727 0.3694 -0.5163
vn -0.5163 0.3694 0.7727
vn 0.8585 0.3694 -0.3556
vn -0.6571 0.3694 0.6571
vn 0.9114 0.3694 -0.1813
vn -0.7727 0.3694 0.5163
vn -0.1880 -0.2672 0.9451
vn -0.3688 -0.2672 0.8903
vn -0.3672 -0.2811 0.8866
vn -0.1872 -0.2811 0.9412
vn -0.8903 -0.2672 -0.3688
vn -0.8012 -0.2672 -0.5354
vn -0.7979 -0.2811 -0.5332
vn -0.8866 -0.2811 -0.3672
vn 0.6814 -0.2672 -0.6814
vn 0.8012 -0.2672 -0.5354
vn 0.7979 -0.2811 -0.5332
vn 0.6786 -0.2811 -0.6786
vn 0.5354 -0.2672 0.8012
vn 0.3688 -0.2672 0.8903
vn 0.3672 -0.2811 0.8866
vn 0.5332 -0.2811 0.7979
vn -0.8903 -0.2672 0.3688
vn -0.9451 -0.2672 0.1880
vn -0.9412 -0.2811 0.1872
vn -0.8866 -0.2811 0.3672
vn -0.0000 -0.2672 -0.9636
vn 0.1880 -0.2672 -0.9451
vn 0.1872 -0.2811 -0.9412
vn -0.0000 -0.2811 -0.9597
vn -0.1880 -0.2672 -0.9451
vn -0.1872 -0.2811 -0.9412
vn 0.8903 -0.2672 0.3688
vn 0.8866 -0.2811 0.3672
vn -0.5354 -0.2672 0.8012
vn -0.5332 -0.2811 0.7979
vn -0.6814 -0.2672 -0.6814
vn -0.6786 -0.2811 -0.6786
vn 0.8903 -0.2672 -0.3688
vn 0.8866 -0.2811 -0.3672
vn 0.1880 -0.2672 0.9451
vn 0.1872 -0.2811 0.9412
vn -0.9636 -0.2672 -0.0000
vn -0.9597 -0.2811 -0.0000
vn 0.3688 -0.2672 -0.8903
vn 0.3672 -0.2811 -0.8866
vn 0.8012 -0.2672 0.5354
vn 0.7979 -0.2811 0.5332
vn -0.6814 -0.2672 0.6814
vn -0.6786 -0.2811 0.6786
vn -0.5354 -0.2672 -0.8012
vn -0.5332 -0.2811 -0.7979
vn 0.9451 -0.2672 -0.1880
vn 0.9412 -0.2811 -0.1872
vn -0.0000 -0.2672 0.9636
vn -0.0000 -0.2811 0.9597
vn -0.9451 -0.2672 -0.1880
vn -0.9412 -0.2811 -0.1872
vn 0.5354 -0.2672 -0.8012
vn 0.5332 -0.2811 -0.7979
vn 0.6814 -0.2672 0.6814
vn 0.6786 -0.2811 0.6786
vn -0.8012 -0.2672 0.5354
vn -0.7979 -0.2811 0.5332
vn -0.3688 -0.2672 -0.8903
vn -0.3672 -0.2811 -0.8866
vn -0.3761 -0.1843 -0.9081
vn -0.1917 -0.1843 -0.9640
vn -0.1906 -0.2142 -0.9580
vn -0.3738 -0.2142 -0.9024
vn -0.1892 -0.2445 -0.9510
vn -0.3711 -0.2445 -0.8958
vn -0.1898 -0.2316 -0.9541
vn -0.3723 -0.2316 -0.8988
vn -0.1896 -0.2359 -0.9531
vn -0.3719 -0.2359 -0.8978
vn -0.8172 -0.1843 0.5461
vn -0.9081 -0.1843 0.3761
vn -0.9024 -0.2142 0.3738
vn -0.8122 -0.2142 0.5427
vn -0.8958 -0.2445 0.3711
vn -0.8062 -0.2445 0.5387
vn -0.8988 -0.2316 0.3723
vn -0.8089 -0.2316 0.5405
vn -0.8978 -0.2359 0.3719
vn -0.8080 -0.2359 0.5399
vn 0.6950 -0.1843 0.6950
vn 0.5461 -0.1843 0.8172
vn 0.5427 -0.2142 0.8122
vn 0.6907 -0.2142 0.6907
vn 0.5387 -0.2445 0.8062
vn 0.6856 -0.2445 0.6856
vn 0.5405 -0.2316 0.8089
vn 0.6879 -0.2316 0.6879
vn 0.5399 -0.2359 0.8080
vn 0.6872 -0.2359 0.6872
vn 0.5461 -0.1843 -0.8172
vn 0.6950 -0.1843 -0.6950
vn 0.6907 -0.2142 -0.6907
vn 0.5427 -0.2142 -0.8122
vn 0.6856 -0.2445 -0.6856
vn 0.5387 -0.2445 -0.8062
vn 0.6879 -0.2316 -0.6879
vn 0.5405 -0.2316 -0.8089
vn 0.6872 -0.2359 -0.6872
vn 0.5399 -0.2359 -0.8080
vn -0.9640 -0.1843 -0.1917
vn -0.9081 -0.1843 -0.3761
vn -0.9024 -0.2142 -0.3738
vn -0.9580 -0.2142 -0.1906
vn -0.8958 -0.2445 -0.3711
vn -0.9510 -0.2445 -0.1892
vn -0.8988 -0.2316 -0.3723
vn -0.9541 -0.2316 -0.1898
vn -0.8978 -0.2359 -0.3719
vn -0.9531 -0.2359 -0.1896
vn -0.0000 -0.1843 0.9829
vn -0.1917 -0.1843 0.9640
vn -0.1906 -0.2142 0.9580
vn -0.0000 -0.2142 0.9768
vn -0.1892 -0.2445 0.9510
vn -0.0000 -0.2445 0.9696
vn -0.1898 -0.2316 0.9541
vn -0.0000 -0.2316 0.9728
vn -0.1896 -0.2359 0.9531
vn -0.0000 -0.2359 0.9718
vn 0.9640 -0.1843 -0.1917
vn 0.9829 -0.1843 -0.0000
vn 0.9768 -0.2142 -0.0000
vn 0.9580 -0.2142 -0.1906
vn 0.9696 -0.2445 -0.0000
vn 0.9510 -0.2445 -0.1892
vn 0.9728 -0.2316 -0.0000
vn 0.9541 -0.2316 -0.1898
vn 0.9718 -0.2359 -0.0000
vn 0.9531 -0.2359 -0.1896
vn -0.5461 -0.1843 -0.8172
vn -0.5427 -0.2142 -0.8122
vn -0.5387 -0.2445 -0.8062
vn -0.5405 -0.2316 -0.8089
vn -0.5399 -0.2359 -0.8080
vn -0.6950 -0.1843 0.6950
vn -0.6907 -0.2142 0.6907
vn -0.6856 -0.2445 0.6856
vn -0.6879 -0.2316 0.6879
vn -0.6872 -0.2359 0.6872
vn 0.8172 -0.1843 0.5461
vn 0.8122 -0.2142 0.5427
vn 0.8062 -0.2445 0.5387
vn 0.8089 -0.2316 0.5405
vn 0.8080 -0.2359 0.5399
vn 0.3761 -0.1843 -0.9081
vn 0.3738 -0.2142 -0.9024
vn 0.3711 -0.2445 -0.8958
vn 0.3723 -0.2316 -0.8988
vn 0.3719 -0.2359 -0.8978
vn -0.9829 -0.1843 -0.0000
vn -0.9768 -0.2142 -0.0000
vn -0.9696 -0.2445 -0.0000
vn -0.9728 -0.2316 -0.0000
vn -0.9718 -0.2359 -0.0000
vn 0.1917 -0.1843 0.9640
vn 0.1906 -0.2142 0.9580
vn 0.1892 -0.2445 0.9510
vn 0.1898 -0.2316 0.9541
vn 0.1896 -0.2359 0.9531
vn 0.9081 -0.1843 -0.3761
vn 0.9024 -0.2142 -0.3738
vn 0.8958 -0.2445 -0.3711
vn 0.8988 -0.2316 -0.3723
vn 0.8978 -0.2359 -0.3719
vn -0.6950 -0.1843 -0.6950
vn -0.6907 -0.2142 -0.6907
vn -0.6856 -0.2445 -0.6856
vn -0.6879 -0.2316 -0.6879
vn -0.6872 -0.2359 -0.6872
vn -0.5461 -0.1843 0.8172
vn -0.5427 -0.2142 0.8122
vn -0.5387 -0.2445 0.8062
vn -0.5405 -0.2316 0.8089
vn -0.5399 -0.2359 0.8080
vn 0.9081 -0.1843 0.3761
vn 0.9024 -0.2142 0.3738
vn 0.8958 -0.2445 0.3711
vn 0.8988 -0.2316 0.3723
vn 0.8978 -0.2359 0.3719
vn 0.1917 -0.1843 -0.9640
vn 0.1906 -0.2142 -0.9580
vn 0.1892 -0.2445 -0.9510
vn 0.1898 -0.2316 -0.9541
vn 0.1896 -0.2359 -0.9531
vn -0.9640 -0.1843 0.1917
vn -0.9580 -0.2142 0.1906
vn -0.9510 -0.2445 0.1892
vn -0.9541 -0.2316 0.1898
vn -0.9531 -0.2359 0.1896
vn 0.3761 -0.1843 0.9081
vn 0.3738 -0.2142 0.9024
vn 0.3711 -0.2445 0.8958
vn 0.3723 -0.2316 0.8988
vn 0.3719 -0.2359 0.8978
vn 0.8172 -0.1843 -0.5461
vn 0.8122 -0.2142 -0.5427
vn 0.8062 -0.2445 -0.5387
vn 0.8089 -0.2316 -0.5405
vn 0.8080 -0.2359 -0.5399
vn -0.8172 -0.1843 -0.5461
vn -0.8122 -0.2142 -0.5427
vn -0.8062 -0.2445 -0.5387
vn -0.8089 -0.2316 -0.5405
vn -0.8080 -0.2359 -0.5399
vn -0.3761 -0.1843 0.9081
vn -0.3738 -0.2142 0.9024
vn -0.3711 -0.2445 0.8958
vn -0.3723 -0.2316 0.8988
vn -0.3719 -0.2359 0.8978
vn 0.9640 -0.1843 0.1917
vn 0.9580 -0.2142 0.1906
vn 0.9510 -0.2445 0.1892
vn 0.9541 -0.2316 0.1898
vn 0.9531 -0.2359 0.1896
vn -0.0000 -0.1843 -0.9829
vn -0.0000 -0.2142 -0.9768
vn -0.0000 -0.2445 -0.9696
vn -0.0000 -0.2316 -0.9728
vn -0.0000 -0.2359 -0.9718
vn -0.0000 -1.0000 -0.0000
vt 1.000000 0.500000
vt 1.000000 1.000000
vt 0.968750 1.000000
vt 0.968750 0.500000
vt 0.937500 1.000000
vt 0.937500 0.500000
vt 0.906250 1.000000
vt 0.906250 0.500000
vt 0.875000 1.000000
vt 0.875000 0.500000
vt 0.843750 1.000000
vt 0.843750 0.500000
vt 0.812500 1.000000
vt 0.812500 0.500000
vt 0.781250 1.000000
vt 0.781250 0.500000
vt 0.750000 1.000000
vt 0.750000 0.500000
vt 0.718750 1.000000
vt 0.718750 0.500000
vt 0.687500 1.000000
vt 0.687500 0.500000
vt 0.656250 1.000000
vt 0.656250 0.500000
vt 0.625000 1.000000
vt 0.625000 0.500000
vt 0.593750 1.000000
vt 0.593750 0.500000
vt 0.562500 1.000000
vt 0.562500 0.500000
vt 0.531250 1.000000
vt 0.531250 0.500000
vt 0.500000 1.000000
vt 0.500000 0.500000
vt 0.468750 1.000000
vt 0.468750 0.500000
vt 0.437500 1.000000
vt 0.437500 0.500000
vt 0.406250 1.000000
vt 0.406250 0.500000
vt 0.375000 1.000000
vt 0.375000 0.500000
vt 0.343750 1.000000
vt 0.343750 0.500000
vt 0.312500 1.000000
vt 0.312500 0.500000
vt 0.281250 1.000000
vt 0.281250 0.500000
vt 0.250000 1.000000
vt 0.250000 0.500000
vt 0.218750 1.000000
vt 0.218750 0.500000
vt 0.187500 1.000000
vt 0.187500 0.500000
vt 0.156250 1.000000
vt 0.156250 0.500000
vt 0.125000 1.000000
vt 0.125000 0.500000
vt 0.093750 1.000000
vt 0.093750 0.500000
vt 0.062500 1.000000
vt 0.062500 0.500000
vt 0.031250 1.000000
vt 0.031250 0.500000
vt 0.000000 1.000000
vt 0.000000 0.500000
vt 0.781250 1.000000
vt 0.468750 1.000000
vt 0.718750 1.000000
vt 0.343750 1.000000
vt 0.656250 1.000000
vt 0.937500 1.000000
vt 0.812500 1.000000
vt 0.406250 1.000000
vt 0.687500 1.000000
vt 0.968750 1.000000
vt 0.843750 1.000000
vt 0.435856 0.326984
vt 0.417265 0.361763
vt 0.250000 0.451169
vt 0.289246 0.447303
vt 0.296822 0.485388
vt 0.250000 0.490000
vt 0.326984 0.435855
vt 0.341844 0.471731
vt 0.361763 0.417266
vt 0.383337 0.449553
vt 0.392248 0.392248
vt 0.419706 0.419706
vt 0.449553 0.383337
vt 0.471731 0.341844
vt 0.447303 0.289246
vt 0.485388 0.296822
vt 0.451169 0.250000
vt 0.490000 0.250000
vt 0.447303 0.210754
vt 0.485388 0.203178
vt 0.435855 0.173016
vt 0.471731 0.158156
vt 0.417266 0.138237
vt 0.449553 0.116663
vt 0.392248 0.107752
vt 0.419706 0.080294
vt 0.361763 0.082734
vt 0.383337 0.050447
vt 0.326984 0.064145
vt 0.341844 0.028269
vt 0.289246 0.052697
vt 0.296822 0.014612
vt 0.250000 0.048831
vt 0.250000 0.010000
vt 0.210754 0.052697
vt 0.203178 0.014612
vt 0.173016 0.064145
vt 0.158156 0.028269
vt 0.138237 0.082734
vt 0.116663 0.050447
vt 0.107752 0.107752
vt 0.080294 0.080294
vt 0.082734 0.138237
vt 0.050447 0.116663
vt 0.064145 0.173016
vt 0.028269 0.158156
vt 0.052697 0.210754
vt 0.014612 0.203178
vt 0.048831 0.250000
vt 0.010000 0.250000
vt 0.052697 0.289246
vt 0.014612 0.296822
vt 0.064145 0.326984
vt 0.028269 0.341844
vt 0.082734 0.361763
vt 0.050447 0.383337
vt 0.107752 0.392248
vt 0.080294 0.419706
vt 0.138237 0.417266
vt 0.116663 0.449553
vt 0.173016 0.435855
vt 0.158156 0.471731
vt 0.210754 0.447303
vt 0.203178 0.485388
vt 0.343750 0.500000
vt 0.468750 0.500000
vt 0.656250 0.500000
vt 0.937500 0.500000
vt 0.812500 0.500000
vt 0.406250 0.500000
vt 0.687500 0.500000
vt 0.968750 0.500000
vt 0.843750 0.500000
vt 0.750000 0.391989
vt 0.750000 0.490000
vt 0.796822 0.485388
vt 0.777700 0.389260
vt 0.841844 0.471731
vt 0.804337 0.381180
vt 0.883337 0.449553
vt 0.828885 0.368059
vt 0.919706 0.419706
vt 0.850401 0.350401
vt 0.949553 0.383337
vt 0.868059 0.328884
vt 0.971731 0.341844
vt 0.881180 0.304337
vt 0.985388 0.296822
vt 0.889260 0.277701
vt 0.990000 0.250000
vt 0.891988 0.250000
vt 0.985388 0.203178
vt 0.889260 0.222299
vt 0.971731 0.158156
vt 0.881180 0.195663
vt 0.949553 0.116663
vt 0.868059 0.171115
vt 0.919706 0.080294
vt 0.850401 0.149599
vt 0.883337 0.050447
vt 0.828885 0.131941
vt 0.841844 0.028269
vt 0.804337 0.118820
vt 0.796822 0.014612
vt 0.777701 0.110740
vt 0.750000 0.010000
vt 0.750000 0.108011
vt 0.703178 0.014612
vt 0.722299 0.110740
vt 0.658156 0.028269
vt 0.695663 0.118820
vt 0.616663 0.050447
vt 0.671115 0.131941
vt 0.580294 0.080294
vt 0.649599 0.149599
vt 0.550447 0.116663
vt 0.631941 0.171115
vt 0.528269 0.158156
vt 0.618820 0.195663
vt 0.514612 0.203178
vt 0.610740 0.222299
vt 0.510000 0.250000
vt 0.608011 0.250000
vt 0.514612 0.296822
vt 0.610740 0.277701
vt 0.528269 0.341844
vt 0.618820 0.304337
vt 0.550447 0.383337
vt 0.631941 0.328885
vt 0.580294 0.419706
vt 0.649599 0.350401
vt 0.616663 0.449553
vt 0.671115 0.368059
vt 0.658156 0.471731
vt 0.695663 0.381180
vt 0.703178 0.485388
vt 0.722300 0.389260
vt 0.259764 0.299087
vt 0.269153 0.296239
vt 0.277806 0.291614
vt 0.285390 0.285390
vt 0.291614 0.277806
vt 0.296239 0.269153
vt 0.299087 0.259764
vt 0.300049 0.250000
vt 0.299087 0.240236
vt 0.296239 0.230847
vt 0.291614 0.222194
vt 0.285390 0.214610
vt 0.277806 0.208386
vt 0.269153 0.203761
vt 0.259764 0.200913
vt 0.250000 0.199951
vt 0.240236 0.200913
vt 0.230847 0.203761
vt 0.222194 0.208386
vt 0.214610 0.214610
vt 0.208386 0.222194
vt 0.203761 0.230847
vt 0.200913 0.240236
vt 0.199951 0.250000
vt 0.200913 0.259764
vt 0.203761 0.269153
vt 0.208386 0.277806
vt 0.214610 0.285390
vt 0.222194 0.291614
vt 0.230847 0.296239
vt 0.240236 0.299087
vt 0.250000 0.300049
s 1
f 1/1/1 2/2/1 4/3/2 3/4/2
f 3/4/2 4/3/2 6/5/3 5/6/3
f 5/6/3 6/5/3 8/7/4 7/8/4
f 7/8/4 8/7/4 10/9/5 9/10/5
f 9/10/5 10/9/5 12/11/6 11/12/6
f 11/12/6 12/11/6 14/13/7 13/14/7
f 13/14/7 14/13/7 16/15/8 15/16/8
f 15/16/8 16/15/8 18/17/9 17/18/9
f 17/18/9 18/17/9 20/19/10 19/20/10
f 19/20/10 20/19/10 22/21/11 21/22/11
f 21/22/11 22/21/11 24/23/12 23/24/12
f 23/24/12 24/23/12 26/25/13 25/26/13
f 25/26/13 26/25/13 28/27/14 27/28/14
f 27/28/14 28/27/14 30/29/15 29/30/15
f 29/30/15 30/29/15 32/31/16 31/32/16
f 31/32/16 32/31/16 34/33/17 33/34/17
f 33/34/17 34/33/17 36/35/18 35/36/18
f 35/36/18 36/35/18 38/37/19 37/38/19
f 37/38/19 38/37/19 40/39/20 39/40/20
f 39/40/20 40/39/20 42/41/21 41/42/21
f 41/42/21 42/41/21 44/43/22 43/44/22
f 43/44/22 44/43/22 46/45/23 45/46/23
f 45/46/23 46/45/23 48/47/24 47/48/24
f 47/48/24 48/47/24 50/49/25 49/50/25
f 49/50/25 50/49/25 52/51/26 51/52/26
f 51/52/26 52/51/26 54/53/27 53/54/27
f 53/54/27 54/53/27 56/55/28 55/56/28
f 55/56/28 56/55/28 58/57/29 57/58/29
f 57/58/29 58/57/29 60/59/30 59/60/30
f 59/60/30 60/59/30 62/61/31 61/62/31
f 105/11/32 104/9/33 69/9/34 70/11/35
f 61/62/31 62/61/31 64/63/36 63/64/36
f 63/64/36 64/63/36 2/65/1 1/66/1
f 520/18/37 519/20/38 684/20/39 683/18/40
f 91/53/41 90/51/42 378/51/42 379/53/41
f 121/29/43 120/27/44 78/27/45 79/29/46
f 137/47/47 136/45/48 87/45/49 88/47/50
f 153/3/51 152/2/52 65/2/53 66/3/54
f 152/65/52 168/63/55 96/63/56 65/65/53
f 177/21/57 176/19/58 74/19/59 75/21/60
f 193/39/61 192/37/62 83/37/63 84/39/64
f 209/57/65 208/55/66 92/55/67 93/57/68
f 217/13/69 105/11/32 70/11/35 71/13/70
f 225/31/71 121/29/43 79/29/46 80/31/72
f 233/49/73 137/47/47 88/47/50 89/49/74
f 241/5/75 153/3/51 66/3/54 67/5/76
f 249/23/77 177/21/57 75/21/60 76/23/78
f 257/41/79 193/39/61 84/39/64 85/41/80
f 265/59/81 209/57/65 93/57/68 94/59/82
f 273/67/83 217/13/69 71/13/70 72/15/84
f 281/33/85 225/31/71 80/31/72 81/33/86
f 289/51/87 233/49/73 89/49/74 90/51/88
f 297/7/89 241/5/75 67/5/76 68/7/90
f 305/25/91 249/23/77 76/23/78 77/25/92
f 313/43/93 257/41/79 85/41/80 86/43/94
f 321/61/95 265/59/81 94/59/82 95/61/96
f 329/17/97 273/67/83 72/15/84 73/17/98
f 337/35/99 281/33/85 81/33/86 82/35/100
f 345/53/101 289/51/87 90/51/88 91/53/102
f 104/9/33 297/7/89 68/7/90 69/9/34
f 120/27/44 305/25/91 77/25/92 78/27/45
f 136/45/48 313/43/93 86/43/94 87/45/49
f 168/63/55 321/61/95 95/61/96 96/63/56
f 176/19/58 329/17/97 73/17/98 74/19/59
f 192/37/62 337/35/99 82/35/100 83/37/63
f 208/55/66 345/53/101 91/53/102 92/55/67
f 56/55/103 54/53/104 352/53/105 201/55/106
f 201/55/106 352/53/105 351/53/107 202/55/108
f 202/55/108 351/53/107 350/53/109 203/55/110
f 203/55/110 350/53/109 349/53/111 204/55/112
f 204/55/112 349/53/111 348/53/113 205/55/114
f 205/55/114 348/53/113 347/53/115 206/55/116
f 206/55/116 347/53/115 346/53/117 207/55/118
f 207/55/118 346/53/117 345/53/101 208/55/66
f 38/37/119 36/35/120 344/35/121 185/37/122
f 185/37/122 344/35/121 343/35/123 186/37/124
f 186/37/124 343/35/123 342/68/125 187/37/126
f 187/37/126 342/68/125 341/68/127 188/37/128
f 188/37/128 341/68/127 340/68/129 189/37/130
f 189/37/130 340/68/129 339/68/131 190/37/132
f 190/37/132 339/68/131 338/35/133 191/37/134
f 191/37/134 338/35/133 337/35/99 192/37/62
f 20/19/135 18/17/136 336/17/137 169/19/138
f 169/19/138 336/17/137 335/17/139 170/19/140
f 170/19/140 335/17/139 334/17/141 171/69/142
f 171/69/142 334/17/141 333/17/143 172/69/144
f 172/69/144 333/17/143 332/17/145 173/69/146
f 173/69/146 332/17/145 331/17/147 174/69/148
f 174/69/148 331/17/147 330/17/149 175/19/150
f 175/19/150 330/17/149 329/17/97 176/19/58
f 64/63/151 62/61/152 328/61/153 161/63/154
f 161/63/154 328/61/153 327/61/155 162/63/156
f 162/63/156 327/61/155 326/61/157 163/63/158
f 163/63/158 326/61/157 325/61/159 164/63/160
f 164/63/160 325/61/159 324/61/161 165/63/162
f 165/63/162 324/61/161 323/61/163 166/63/164
f 166/63/164 323/61/163 322/61/165 167/63/166
f 167/63/166 322/61/165 321/61/95 168/63/55
f 46/45/167 44/43/168 320/43/169 129/45/170
f 129/45/170 320/43/169 319/70/171 130/45/172
f 130/45/172 319/70/171 318/70/173 131/45/174
f 131/45/174 318/70/173 317/70/175 132/45/176
f 132/45/176 317/70/175 316/70/177 133/45/178
f 133/45/178 316/70/177 315/43/179 134/45/180
f 134/45/180 315/43/179 314/43/181 135/45/182
f 135/45/182 314/43/181 313/43/93 136/45/48
f 28/27/183 26/25/184 312/25/185 113/27/186
f 113/27/186 312/25/185 311/25/187 114/27/188
f 114/27/188 311/25/187 310/25/189 115/27/190
f 115/27/190 310/25/189 309/25/191 116/27/192
f 116/27/192 309/25/191 308/25/193 117/27/194
f 117/27/194 308/25/193 307/25/195 118/27/196
f 118/27/196 307/25/195 306/25/197 119/27/198
f 119/27/198 306/25/197 305/25/91 120/27/44
f 10/9/199 8/7/200 304/7/201 97/9/202
f 97/9/202 304/7/201 303/7/203 98/9/204
f 98/9/204 303/7/203 302/7/205 99/9/206
f 99/9/206 302/7/205 301/7/207 100/9/208
f 100/9/208 301/7/207 300/7/209 101/9/210
f 101/9/210 300/7/209 299/7/211 102/9/212
f 102/9/212 299/7/211 298/7/213 103/9/214
f 103/9/214 298/7/213 297/7/89 104/9/33
f 54/53/104 52/51/215 296/51/216 352/53/105
f 352/53/105 296/51/216 295/51/217 351/53/107
f 351/53/107 295/51/217 294/51/218 350/53/109
f 350/53/109 294/51/218 293/51/219 349/53/111
f 349/53/111 293/51/219 292/51/220 348/53/113
f 348/53/113 292/51/220 291/51/221 347/53/115
f 347/53/115 291/51/221 290/51/222 346/53/117
f 346/53/117 290/51/222 289/51/87 345/53/101
f 36/35/120 34/33/223 288/33/224 344/35/121
f 344/35/121 288/33/224 287/33/225 343/35/123
f 343/35/123 287/33/225 286/33/226 342/68/125
f 342/68/125 286/33/226 285/33/227 341/68/127
f 341/68/127 285/33/227 284/33/228 340/68/129
f 340/68/129 284/33/228 283/33/229 339/68/131
f 339/68/131 283/33/229 282/33/230 338/35/133
f 338/35/133 282/33/230 281/33/85 337/35/99
f 18/17/136 16/15/231 280/15/232 336/17/137
f 336/17/137 280/15/232 279/15/233 335/17/139
f 335/17/139 279/15/233 278/15/234 334/17/141
f 334/17/141 278/15/234 277/15/235 333/17/143
f 333/17/143 277/15/235 276/15/236 332/17/145
f 332/17/145 276/15/236 275/67/237 331/17/147
f 331/17/147 275/67/237 274/67/238 330/17/149
f 330/17/149 274/67/238 273/67/83 329/17/97
f 62/61/152 60/59/239 272/59/240 328/61/153
f 328/61/153 272/59/240 271/59/241 327/61/155
f 327/61/155 271/59/241 270/59/242 326/61/157
f 326/61/157 270/59/242 269/59/243 325/61/159
f 325/61/159 269/59/243 268/59/244 324/61/161
f 324/61/161 268/59/244 267/59/245 323/61/163
f 323/61/163 267/59/245 266/59/246 322/61/165
f 322/61/165 266/59/246 265/59/81 321/61/95
f 44/43/168 42/41/247 264/41/248 320/43/169
f 320/43/169 264/41/248 263/41/249 319/70/171
f 319/70/171 263/41/249 262/41/250 318/70/173
f 318/70/173 262/41/250 261/41/251 317/70/175
f 317/70/175 261/41/251 260/41/252 316/70/177
f 316/70/177 260/41/252 259/41/253 315/43/179
f 315/43/179 259/41/253 258/41/254 314/43/181
f 314/43/181 258/41/254 257/41/79 313/43/93
f 26/25/184 24/23/255 256/23/256 312/25/185
f 312/25/185 256/23/256 255/23/257 311/25/187
f 311/25/187 255/23/257 254/71/258 310/25/189
f 310/25/189 254/71/258 253/71/259 309/25/191
f 309/25/191 253/71/259 252/23/260 308/25/193
f 308/25/193 252/23/260 251/23/261 307/25/195
f 307/25/195 251/23/261 250/23/262 306/25/197
f 306/25/197 250/23/262 249/23/77 305/25/91
f 8/7/200 6/5/263 248/5/264 304/7/201
f 304/7/201 248/5/264 247/5/265 303/7/203
f 303/7/203 247/5/265 246/72/266 302/7/205
f 302/7/205 246/72/266 245/72/267 301/7/207
f 301/7/207 245/72/267 244/72/268 300/7/209
f 300/7/209 244/72/268 243/72/269 299/7/211
f 299/7/211 243/72/269 242/5/270 298/7/213
f 298/7/213 242/5/270 241/5/75 297/7/89
f 52/51/215 50/49/271 240/49/272 296/51/216
f 296/51/216 240/49/272 239/49/273 295/51/217
f 295/51/217 239/49/273 238/49/274 294/51/218
f 294/51/218 238/49/274 237/49/275 293/51/219
f 293/51/219 237/49/275 236/49/276 292/51/220
f 292/51/220 236/49/276 235/49/277 291/51/221
f 291/51/221 235/49/277 234/49/278 290/51/222
f 290/51/222 234/49/278 233/49/73 289/51/87
f 34/33/223 32/31/279 232/31/280 288/33/224
f 288/33/224 232/31/280 231/31/281 287/33/225
f 287/33/225 231/31/281 230/31/282 286/33/226
f 286/33/226 230/31/282 229/31/283 285/33/227
f 285/33/227 229/31/283 228/31/284 284/33/228
f 284/33/228 228/31/284 227/31/285 283/33/229
f 283/33/229 227/31/285 226/31/286 282/33/230
f 282/33/230 226/31/286 225/31/71 281/33/85
f 16/15/231 14/13/287 224/13/288 280/15/232
f 280/15/232 224/13/288 223/13/289 279/15/233
f 279/15/233 223/13/289 222/73/290 278/15/234
f 278/15/234 222/73/290 221/73/291 277/15/235
f 277/15/235 221/73/291 220/13/292 276/15/236
f 276/15/236 220/13/292 219/13/293 275/67/237
f 275/67/237 219/13/293 218/13/294 274/67/238
f 274/67/238 218/13/294 217/13/69 273/67/83
f 60/59/239 58/57/295 216/57/296 272/59/240
f 272/59/240 216/57/296 215/57/297 271/59/241
f 271/59/241 215/57/297 214/57/298 270/59/242
f 270/59/242 214/57/298 213/57/299 269/59/243
f 269/59/243 213/57/299 212/57/300 268/59/244
f 268/59/244 212/57/300 211/57/301 267/59/245
f 267/59/245 211/57/301 210/57/302 266/59/246
f 266/59/246 210/57/302 209/57/65 265/59/81
f 42/41/247 40/39/303 200/39/304 264/41/248
f 264/41/248 200/39/304 199/39/305 263/41/249
f 263/41/249 199/39/305 198/74/306 262/41/250
f 262/41/250 198/74/306 197/74/307 261/41/251
f 261/41/251 197/74/307 196/39/308 260/41/252
f 260/41/252 196/39/308 195/39/309 259/41/253
f 259/41/253 195/39/309 194/39/310 258/41/254
f 258/41/254 194/39/310 193/39/61 257/41/79
f 24/23/255 22/21/311 184/21/312 256/23/256
f 256/23/256 184/21/312 183/75/313 255/23/257
f 255/23/257 183/75/313 182/75/314 254/71/258
f 254/71/258 182/75/314 181/75/315 253/71/259
f 253/71/259 181/75/315 180/75/316 252/23/260
f 252/23/260 180/75/316 179/21/317 251/23/261
f 251/23/261 179/21/317 178/21/318 250/23/262
f 250/23/262 178/21/318 177/21/57 249/23/77
f 6/5/263 4/3/319 160/3/320 248/5/264
f 248/5/264 160/3/320 159/3/321 247/5/265
f 247/5/265 159/3/321 158/76/322 246/72/266
f 246/72/266 158/76/322 157/76/323 245/72/267
f 245/72/267 157/76/323 156/3/324 244/72/268
f 244/72/268 156/3/324 155/3/325 243/72/269
f 243/72/269 155/3/325 154/3/326 242/5/270
f 242/5/270 154/3/326 153/3/51 241/5/75
f 50/49/271 48/47/327 144/47/328 240/49/272
f 240/49/272 144/47/328 143/47/329 239/49/273
f 239/49/273 143/47/329 142/47/330 238/49/274
f 238/49/274 142/47/330 141/47/331 237/49/275
f 237/49/275 141/47/331 140/47/332 236/49/276
f 236/49/276 140/47/332 139/47/333 235/49/277
f 235/49/277 139/47/333 138/47/334 234/49/278
f 234/49/278 138/47/334 137/47/47 233/49/73
f 32/31/279 30/29/335 128/29/336 232/31/280
f 232/31/280 128/29/336 127/29/337 231/31/281
f 231/31/281 127/29/337 126/29/338 230/31/282
f 230/31/282 126/29/338 125/29/339 229/31/283
f 229/31/283 125/29/339 124/29/340 228/31/284
f 228/31/284 124/29/340 123/29/341 227/31/285
f 227/31/285 123/29/341 122/29/342 226/31/286
f 226/31/286 122/29/342 121/29/43 225/31/71
f 14/13/287 12/11/343 112/11/344 224/13/288
f 224/13/288 112/11/344 111/77/345 223/13/289
f 223/13/289 111/77/345 110/11/346 222/73/290
f 222/73/290 110/11/346 109/11/347 221/73/291
f 221/73/291 109/11/347 108/11/348 220/13/292
f 220/13/292 108/11/348 107/11/349 219/13/293
f 219/13/293 107/11/349 106/11/350 218/13/294
f 218/13/294 106/11/350 105/11/32 217/13/69
f 58/57/295 56/55/103 201/55/106 216/57/296
f 216/57/296 201/55/106 202/55/108 215/57/297
f 215/57/297 202/55/108 203/55/110 214/57/298
f 214/57/298 203/55/110 204/55/112 213/57/299
f 213/57/299 204/55/112 205/55/114 212/57/300
f 212/57/300 205/55/114 206/55/116 211/57/301
f 211/57/301 206/55/116 207/55/118 210/57/302
f 210/57/302 207/55/118 208/55/66 209/57/65
f 40/39/303 38/37/119 185/37/122 200/39/304
f 200/39/304 185/37/122 186/37/124 199/39/305
f 199/39/305 186/37/124 187/37/126 198/74/306
f 198/74/306 187/37/126 188/37/128 197/74/307
f 197/74/307 188/37/128 189/37/130 196/39/308
f 196/39/308 189/37/130 190/37/132 195/39/309
f 195/39/309 190/37/132 191/37/134 194/39/310
f 194/39/310 191/37/134 192/37/62 193/39/61
f 22/21/311 20/19/135 169/19/138 184/21/312
f 184/21/312 169/19/138 170/19/140 183/75/313
f 183/75/313 170/19/140 171/69/142 182/75/314
f 182/75/314 171/69/142 172/69/144 181/75/315
f 181/75/315 172/69/144 173/69/146 180/75/316
f 180/75/316 173/69/146 174/69/148 179/21/317
f 179/21/317 174/69/148 175/19/150 178/21/318
f 178/21/318 175/19/150 176/19/58 177/21/57
f 2/65/351 64/63/151 161/63/154 145/65/352
f 145/65/352 161/63/154 162/63/156 146/65/353
f 146/65/353 162/63/156 163/63/158 147/65/354
f 147/65/354 163/63/158 164/63/160 148/65/355
f 148/65/355 164/63/160 165/63/162 149/65/356
f 149/65/356 165/63/162 166/63/164 150/65/357
f 150/65/357 166/63/164 167/63/166 151/65/358
f 151/65/358 167/63/166 168/63/55 152/65/52
f 4/3/319 2/2/351 145/2/352 160/3/320
f 160/3/320 145/2/352 146/2/353 159/3/321
f 159/3/321 146/2/353 147/2/354 158/76/322
f 158/76/322 147/2/354 148/2/355 157/76/323
f 157/76/323 148/2/355 149/2/356 156/3/324
f 156/3/324 149/2/356 150/2/357 155/3/325
f 155/3/325 150/2/357 151/2/358 154/3/326
f 154/3/326 151/2/358 152/2/52 153/3/51
f 48/47/327 46/45/167 129/45/170 144/47/328
f 144/47/328 129/45/170 130/45/172 143/47/329
f 143/47/329 130/45/172 131/45/174 142/47/330
f 142/47/330 131/45/174 132/45/176 141/47/331
f 141/47/331 132/45/176 133/45/178 140/47/332
f 140/47/332 133/45/178 134/45/180 139/47/333
f 139/47/333 134/45/180 135/45/182 138/47/334
f 138/47/334 135/45/182 136/45/48 137/47/47
f 30/29/335 28/27/183 113/27/186 128/29/336
f 128/29/336 113/27/186 114/27/188 127/29/337
f 127/29/337 114/27/188 115/27/190 126/29/338
f 126/29/338 115/27/190 116/27/192 125/29/339
f 125/29/339 116/27/192 117/27/194 124/29/340
f 124/29/340 117/27/194 118/27/196 123/29/341
f 123/29/341 118/27/196 119/27/198 122/29/342
f 122/29/342 119/27/198 120/27/44 121/29/43
f 12/11/343 10/9/199 97/9/202 112/11/344
f 112/11/344 97/9/202 98/9/204 111/77/345
f 111/77/345 98/9/204 99/9/206 110/11/346
f 110/11/346 99/9/206 100/9/208 109/11/347
f 109/11/347 100/9/208 101/9/210 108/11/348
f 108/11/348 101/9/210 102/9/212 107/11/349
f 107/11/349 102/9/212 103/9/214 106/11/350
f 106/11/350 103/9/214 104/9/33 105/11/32
f 379/53/359 378/51/360 410/51/360 411/53/359
f 78/27/361 77/25/362 365/25/362 366/27/361
f 92/55/363 91/53/41 379/53/41 380/55/363
f 79/29/364 78/27/361 366/27/361 367/29/364
f 66/3/365 65/2/366 354/2/366 353/3/365
f 93/57/367 92/55/363 380/55/363 381/57/367
f 80/31/368 79/29/364 367/29/364 368/31/368
f 67/5/369 66/3/365 353/3/365 355/5/369
f 94/59/370 93/57/367 381/57/367 382/59/370
f 81/33/371 80/31/368 368/31/368 369/33/371
f 68/7/372 67/5/369 355/5/369 356/7/372
f 95/61/373 94/59/370 382/59/370 383/61/373
f 82/35/374 81/33/371 369/33/371 370/35/374
f 69/9/375 68/7/372 356/7/372 357/9/375
f 96/63/376 95/61/373 383/61/373 384/63/376
f 83/37/377 82/35/374 370/35/374 371/37/377
f 70/11/378 69/9/375 357/9/375 358/11/378
f 65/65/366 96/63/376 384/63/376 354/65/366
f 84/39/379 83/37/377 371/37/377 372/39/379
f 71/13/380 70/11/378 358/11/378 359/13/380
f 85/41/381 84/39/379 372/39/379 373/41/381
f 72/15/382 71/13/380 359/13/380 360/15/382
f 86/43/383 85/41/381 373/41/381 374/43/383
f 73/17/384 72/15/382 360/15/382 361/17/384
f 87/45/385 86/43/383 374/43/383 375/45/385
f 74/19/386 73/17/384 361/17/384 362/19/386
f 88/47/387 87/45/385 375/45/385 376/47/387
f 75/21/388 74/19/386 362/19/386 363/21/388
f 89/49/389 88/47/387 376/47/387 377/49/389
f 76/23/390 75/21/388 363/21/388 364/23/390
f 90/51/42 89/49/389 377/49/389 378/51/42
f 77/25/362 76/23/390 364/23/390 365/25/362
f 387/5/3 385/3/2 449/3/2 451/5/3
f 366/27/359 365/25/359 397/25/359 398/27/359
f 380/55/359 379/53/359 411/53/359 412/55/359
f 367/29/359 366/27/359 398/27/359 399/29/359
f 353/3/359 354/2/359 386/2/359 385/3/359
f 381/57/359 380/55/359 412/55/359 413/57/359
f 368/31/359 367/29/359 399/29/359 400/31/359
f 355/5/359 353/3/359 385/3/359 387/5/359
f 382/59/359 381/57/359 413/57/359 414/59/359
f 369/33/359 368/31/359 400/31/359 401/33/359
f 356/7/359 355/5/359 387/5/359 388/7/359
f 383/61/359 382/59/359 414/59/359 415/61/359
f 370/35/359 369/33/359 401/33/359 402/35/359
f 357/9/359 356/7/359 388/7/359 389/9/359
f 384/63/359 383/61/359 415/61/359 416/63/359
f 371/37/359 370/35/359 402/35/359 403/37/359
f 358/11/359 357/9/359 389/9/359 390/11/359
f 354/65/359 384/63/359 416/63/359 386/65/359
f 372/39/359 371/37/359 403/37/359 404/39/359
f 359/13/359 358/11/359 390/11/359 391/13/359
f 373/41/359 372/39/359 404/39/359 405/41/359
f 360/15/391 359/13/359 391/13/359 392/15/391
f 374/43/359 373/41/359 405/41/359 406/43/359
f 361/17/391 360/15/391 392/15/391 393/17/391
f 375/45/391 374/43/359 406/43/359 407/45/391
f 362/19/360 361/17/391 393/17/391 394/19/360
f 376/47/391 375/45/391 407/45/391 408/47/391
f 363/21/360 362/19/360 394/19/360 395/21/360
f 377/49/360 376/47/391 408/47/391 409/49/360
f 364/23/359 363/21/360 395/21/360 396/23/359
f 378/51/360 377/49/360 409/49/360 410/51/360
f 365/25/359 364/23/359 396/23/359 397/25/359
f 423/78/7 422/79/6 486/79/6 487/78/7
f 414/59/30 413/57/29 477/57/29 478/59/30
f 401/33/17 400/31/16 464/31/16 465/33/17
f 388/7/4 387/5/3 451/5/3 452/7/4
f 415/61/31 414/59/30 478/59/30 479/61/31
f 402/35/18 401/33/17 465/33/17 466/35/18
f 389/9/5 388/7/4 452/7/4 453/9/5
f 416/63/36 415/61/31 479/61/31 480/63/36
f 403/37/19 402/35/18 466/35/18 467/37/19
f 390/11/6 389/9/5 453/9/5 454/11/6
f 386/65/1 416/63/36 480/63/36 450/65/1
f 404/39/20 403/37/19 467/37/19 468/39/20
f 391/13/7 390/11/6 454/11/6 455/13/7
f 405/41/21 404/39/20 468/39/20 469/41/21
f 392/15/8 391/13/7 455/13/7 456/15/8
f 406/43/22 405/41/21 469/41/21 470/43/22
f 393/17/9 392/15/8 456/15/8 457/17/9
f 407/45/23 406/43/22 470/43/22 471/45/23
f 394/19/10 393/17/9 457/17/9 458/19/10
f 408/47/24 407/45/23 471/45/23 472/47/24
f 395/21/11 394/19/10 458/19/10 459/21/11
f 409/49/25 408/47/24 472/47/24 473/49/25
f 396/23/12 395/21/11 459/21/11 460/23/12
f 410/51/26 409/49/25 473/49/25 474/51/26
f 397/25/13 396/23/12 460/23/12 461/25/13
f 411/53/27 410/51/26 474/51/26 475/53/27
f 398/27/14 397/25/13 461/25/13 462/27/14
f 412/55/28 411/53/27 475/53/27 476/55/28
f 399/29/15 398/27/14 462/27/14 463/29/15
f 385/3/2 386/2/1 450/2/1 449/3/2
f 413/57/29 412/55/28 476/55/28 477/57/29
f 400/31/16 399/29/15 463/29/15 464/31/16
f 418/80/359 417/81/359 449/82/359 450/83/359
f 417/81/359 419/84/359 451/85/359 449/82/359
f 419/84/359 420/86/359 452/87/359 451/85/359
f 420/86/359 421/88/359 453/89/359 452/87/359
f 421/88/359 422/79/359 454/90/359 453/89/359
f 422/79/359 423/78/359 455/91/359 454/90/359
f 423/78/359 424/92/359 456/93/359 455/91/359
f 424/92/359 425/94/359 457/95/359 456/93/359
f 425/94/359 426/96/359 458/97/359 457/95/359
f 426/96/359 427/98/359 459/99/359 458/97/359
f 427/98/359 428/100/359 460/101/359 459/99/359
f 428/100/359 429/102/359 461/103/359 460/101/359
f 429/102/359 430/104/359 462/105/359 461/103/359
f 430/104/359 431/106/359 463/107/359 462/105/359
f 431/106/359 432/108/359 464/109/359 463/107/359
f 432/108/359 433/110/359 465/111/359 464/109/359
f 433/110/359 434/112/359 466/113/359 465/111/359
f 434/112/359 435/114/359 467/115/359 466/113/359
f 435/114/359 436/116/359 468/117/359 467/115/359
f 436/116/359 437/118/359 469/119/359 468/117/359
f 437/118/359 438/120/359 470/121/359 469/119/359
f 438/120/359 439/122/359 471/123/359 470/121/359
f 439/122/359 440/124/359 472/125/359 471/123/359
f 440/124/359 441/126/359 473/127/359 472/125/359
f 441/126/359 442/128/359 474/129/359 473/127/359
f 442/128/359 443/130/359 475/131/359 474/129/359
f 443/130/359 444/132/359 476/133/359 475/131/359
f 444/132/359 445/134/359 477/135/359 476/133/359
f 445/134/359 446/136/359 478/137/359 477/135/359
f 446/136/359 447/138/359 479/139/359 478/137/359
f 447/138/359 448/140/359 480/141/359 479/139/359
f 448/140/359 418/80/359 450/83/359 480/141/359
f 490/96/392 489/94/393 715/94/393 716/96/392
f 437/118/21 436/116/20 500/116/20 501/118/21
f 424/92/8 423/78/7 487/78/7 488/92/8
f 438/120/22 437/118/21 501/118/21 502/120/22
f 425/94/9 424/92/8 488/92/8 489/94/9
f 439/122/23 438/120/22 502/120/22 503/122/23
f 426/96/10 425/94/9 489/94/9 490/96/10
f 440/124/24 439/122/23 503/122/23 504/124/24
f 427/98/11 426/96/10 490/96/10 491/98/11
f 441/126/25 440/124/24 504/124/24 505/126/25
f 428/100/12 427/98/11 491/98/11 492/100/12
f 442/128/26 441/126/25 505/126/25 506/128/26
f 429/102/13 428/100/12 492/100/12 493/102/13
f 443/130/27 442/128/26 506/128/26 507/130/27
f 430/104/14 429/102/13 493/102/13 494/104/14
f 444/132/28 443/130/27 507/130/27 508/132/28
f 431/106/15 430/104/14 494/104/14 495/106/15
f 417/81/2 418/80/1 482/80/1 481/81/2
f 445/134/29 444/132/28 508/132/28 509/134/29
f 432/108/16 431/106/15 495/106/15 496/108/16
f 419/84/3 417/81/2 481/81/2 483/84/3
f 446/136/30 445/134/29 509/134/29 510/136/30
f 433/110/17 432/108/16 496/108/16 497/110/17
f 420/86/4 419/84/3 483/84/3 484/86/4
f 447/138/31 446/136/30 510/136/30 511/138/31
f 434/112/18 433/110/17 497/110/17 498/112/18
f 421/88/5 420/86/4 484/86/4 485/88/5
f 448/140/36 447/138/31 511/138/31 512/140/36
f 435/114/19 434/112/18 498/112/18 499/114/19
f 422/79/6 421/88/5 485/88/5 486/79/6
f 418/80/1 448/140/36 512/140/36 482/80/1
f 436/116/20 435/114/19 499/114/19 500/116/20
f 504/124/394 503/122/395 729/122/395 730/124/394
f 491/98/396 490/96/392 716/96/392 717/98/396
f 505/126/397 504/124/394 730/124/394 731/126/397
f 492/100/398 491/98/396 717/98/396 718/100/398
f 506/128/399 505/126/397 731/126/397 732/128/399
f 493/102/400 492/100/398 718/100/398 719/102/400
f 507/130/401 506/128/399 732/128/399 733/130/401
f 494/104/402 493/102/400 719/102/400 720/104/402
f 508/132/403 507/130/401 733/130/401 734/132/403
f 495/106/404 494/104/402 720/104/402 721/106/404
f 481/81/405 482/80/406 708/80/406 707/81/405
f 509/134/407 508/132/403 734/132/403 735/134/407
f 496/108/408 495/106/404 721/106/404 722/108/408
f 483/84/409 481/81/405 707/81/405 709/84/409
f 510/136/410 509/134/407 735/134/407 736/136/410
f 497/110/411 496/108/408 722/108/408 723/110/411
f 484/86/412 483/84/409 709/84/409 710/86/412
f 511/138/413 510/136/410 736/136/410 737/138/413
f 498/112/414 497/110/411 723/110/411 724/112/414
f 485/88/415 484/86/412 710/86/412 711/88/415
f 512/140/416 511/138/413 737/138/413 738/140/416
f 499/114/417 498/112/414 724/112/414 725/114/417
f 486/79/418 485/88/415 711/88/415 712/79/418
f 482/80/406 512/140/416 738/140/416 708/80/406
f 500/116/419 499/114/417 725/114/417 726/116/419
f 487/78/420 486/79/418 712/79/418 713/78/420
f 501/118/421 500/116/419 726/116/419 727/118/421
f 488/92/422 487/78/420 713/78/420 714/92/422
f 502/120/423 501/118/421 727/118/421 728/120/423
f 489/94/393 488/92/422 714/92/422 715/94/393
f 503/122/395 502/120/423 728/120/423 729/122/395
f 530/36/424 529/38/425 693/38/426 692/36/427
f 540/54/428 539/56/429 702/56/430 701/54/431
f 550/10/432 549/12/433 680/12/434 679/10/435
f 560/28/436 559/30/437 689/30/438 688/28/439
f 570/46/440 569/48/441 698/48/442 697/46/443
f 580/1/444 579/4/445 676/4/446 675/1/447
f 585/64/448 580/66/444 675/66/447 706/64/449
f 519/20/38 594/22/450 685/22/451 684/20/39
f 529/38/425 599/40/452 694/40/453 693/38/426
f 539/56/429 604/58/454 703/58/455 702/56/430
f 549/12/433 609/14/456 681/14/457 680/12/434
f 559/30/437 614/32/458 690/32/459 689/30/438
f 569/48/441 619/50/460 699/50/461 698/48/442
f 579/4/445 624/6/462 677/6/463 676/4/446
f 594/22/450 629/24/464 686/24/465 685/22/451
f 599/40/452 634/42/466 695/42/467 694/40/453
f 604/58/454 639/60/468 704/60/469 703/58/455
f 609/14/456 644/16/470 682/16/471 681/14/457
f 614/32/458 649/34/472 691/34/473 690/32/459
f 619/50/460 654/52/474 700/52/475 699/50/461
f 624/6/462 659/8/476 678/8/477 677/6/463
f 629/24/464 664/26/478 687/26/479 686/24/465
f 634/42/466 669/44/480 696/44/481 695/42/467
f 639/60/468 674/62/482 705/62/483 704/60/469
f 644/16/470 520/18/37 683/18/40 682/16/471
f 649/34/472 530/36/424 692/36/427 691/34/473
f 654/52/474 540/54/428 701/54/431 700/52/475
f 659/8/476 550/10/432 679/10/435 678/8/477
f 664/26/478 560/28/436 688/28/439 687/26/479
f 669/44/480 570/46/440 697/46/443 696/44/481
f 674/62/482 585/64/448 706/64/449 705/62/483
f 61/62/484 63/64/485 589/64/486 670/62/487
f 670/62/487 589/64/486 588/64/488 671/62/489
f 671/62/489 588/64/488 587/64/490 672/62/491
f 672/62/491 587/64/490 586/64/492 673/62/493
f 673/62/493 586/64/492 585/64/448 674/62/482
f 43/44/494 45/46/495 574/46/496 665/142/497
f 665/142/497 574/46/496 573/46/498 666/142/499
f 666/142/499 573/46/498 572/46/500 667/142/501
f 667/142/501 572/46/500 571/46/502 668/142/503
f 668/142/503 571/46/502 570/46/440 669/44/480
f 25/26/504 27/28/505 564/28/506 660/26/507
f 660/26/507 564/28/506 563/28/508 661/26/509
f 661/26/509 563/28/508 562/28/510 662/26/511
f 662/26/511 562/28/510 561/28/512 663/26/513
f 663/26/513 561/28/512 560/28/436 664/26/478
f 7/8/514 9/10/515 554/10/516 655/8/517
f 655/8/517 554/10/516 553/10/518 656/8/519
f 656/8/519 553/10/518 552/10/520 657/8/521
f 657/8/521 552/10/520 551/10/522 658/8/523
f 658/8/523 551/10/522 550/10/432 659/8/476
f 51/52/524 53/54/525 544/54/526 650/52/527
f 650/52/527 544/54/526 543/54/528 651/52/529
f 651/52/529 543/54/528 542/54/530 652/52/531
f 652/52/531 542/54/530 541/54/532 653/52/533
f 653/52/533 541/54/532 540/54/428 654/52/474
f 33/34/534 35/36/535 534/36/536 645/34/537
f 645/34/537 534/36/536 533/143/538 646/34/539
f 646/34/539 533/143/538 532/36/540 647/34/541
f 647/34/541 532/36/540 531/36/542 648/34/543
f 648/34/543 531/36/542 530/36/424 649/34/472
f 15/16/544 17/18/545 524/18/546 640/16/547
f 640/16/547 524/18/546 523/18/548 641/16/549
f 641/16/549 523/18/548 522/18/550 642/16/551
f 642/16/551 522/18/550 521/18/552 643/16/553
f 643/16/553 521/18/552 520/18/37 644/16/470
f 59/60/554 61/62/484 670/62/487 635/60/555
f 635/60/555 670/62/487 671/62/489 636/60/556
f 636/60/556 671/62/489 672/62/491 637/60/557
f 637/60/557 672/62/491 673/62/493 638/60/558
f 638/60/558 673/62/493 674/62/482 639/60/468
f 41/42/559 43/44/494 665/142/497 630/42/560
f 630/42/560 665/142/497 666/142/499 631/42/561
f 631/42/561 666/142/499 667/142/501 632/42/562
f 632/42/562 667/142/501 668/142/503 633/42/563
f 633/42/563 668/142/503 669/44/480 634/42/466
f 23/24/564 25/26/504 660/26/507 625/24/565
f 625/24/565 660/26/507 661/26/509 626/144/566
f 626/144/566 661/26/509 662/26/511 627/144/567
f 627/144/567 662/26/511 663/26/513 628/24/568
f 628/24/568 663/26/513 664/26/478 629/24/464
f 5/6/569 7/8/514 655/8/517 620/6/570
f 620/6/570 655/8/517 656/8/519 621/6/571
f 621/6/571 656/8/519 657/8/521 622/6/572
f 622/6/572 657/8/521 658/8/523 623/145/573
f 623/145/573 658/8/523 659/8/476 624/6/462
f 49/50/574 51/52/524 650/52/527 615/50/575
f 615/50/575 650/52/527 651/52/529 616/50/576
f 616/50/576 651/52/529 652/52/531 617/50/577
f 617/50/577 652/52/531 653/52/533 618/50/578
f 618/50/578 653/52/533 654/52/474 619/50/460
f 31/32/579 33/34/534 645/34/537 610/32/580
f 610/32/580 645/34/537 646/34/539 611/32/581
f 611/32/581 646/34/539 647/34/541 612/32/582
f 612/32/582 647/34/541 648/34/543 613/32/583
f 613/32/583 648/34/543 649/34/472 614/32/458
f 13/14/584 15/16/544 640/16/547 605/14/585
f 605/14/585 640/16/547 641/16/549 606/146/586
f 606/146/586 641/16/549 642/16/551 607/146/587
f 607/146/587 642/16/551 643/16/553 608/14/588
f 608/14/588 643/16/553 644/16/470 609/14/456
f 57/58/589 59/60/554 635/60/555 600/58/590
f 600/58/590 635/60/555 636/60/556 601/58/591
f 601/58/591 636/60/556 637/60/557 602/58/592
f 602/58/592 637/60/557 638/60/558 603/58/593
f 603/58/593 638/60/558 639/60/468 604/58/454
f 39/40/594 41/42/559 630/42/560 595/40/595
f 595/40/595 630/42/560 631/42/561 596/147/596
f 596/147/596 631/42/561 632/42/562 597/147/597
f 597/147/597 632/42/562 633/42/563 598/40/598
f 598/40/598 633/42/563 634/42/466 599/40/452
f 21/22/599 23/24/564 625/24/565 590/148/600
f 590/148/600 625/24/565 626/144/566 591/148/601
f 591/148/601 626/144/566 627/144/567 592/148/602
f 592/148/602 627/144/567 628/24/568 593/148/603
f 593/148/603 628/24/568 629/24/464 594/22/450
f 3/4/604 5/6/569 620/6/570 575/4/605
f 575/4/605 620/6/570 621/6/571 576/149/606
f 576/149/606 621/6/571 622/6/572 577/149/607
f 577/149/607 622/6/572 623/145/573 578/4/608
f 578/4/608 623/145/573 624/6/462 579/4/445
f 47/48/609 49/50/574 615/50/575 565/48/610
f 565/48/610 615/50/575 616/50/576 566/48/611
f 566/48/611 616/50/576 617/50/577 567/48/612
f 567/48/612 617/50/577 618/50/578 568/48/613
f 568/48/613 618/50/578 619/50/460 569/48/441
f 29/30/614 31/32/579 610/32/580 555/30/615
f 555/30/615 610/32/580 611/32/581 556/30/616
f 556/30/616 611/32/581 612/32/582 557/30/617
f 557/30/617 612/32/582 613/32/583 558/30/618
f 558/30/618 613/32/583 614/32/458 559/30/437
f 11/12/619 13/14/584 605/14/585 545/12/620
f 545/12/620 605/14/585 606/146/586 546/12/621
f 546/12/621 606/146/586 607/146/587 547/12/622
f 547/12/622 607/146/587 608/14/588 548/150/623
f 548/150/623 608/14/588 609/14/456 549/12/433
f 55/56/624 57/58/589 600/58/590 535/56/625
f 535/56/625 600/58/590 601/58/591 536/56/626
f 536/56/626 601/58/591 602/58/592 537/56/627
f 537/56/627 602/58/592 603/58/593 538/56/628
f 538/56/628 603/58/593 604/58/454 539/56/429
f 37/38/629 39/40/594 595/40/595 525/38/630
f 525/38/630 595/40/595 596/147/596 526/38/631
f 526/38/631 596/147/596 597/147/597 527/38/632
f 527/38/632 597/147/597 598/40/598 528/38/633
f 528/38/633 598/40/598 599/40/452 529/38/425
f 19/20/634 21/22/599 590/148/600 515/20/635
f 515/20/635 590/148/600 591/148/601 516/20/636
f 516/20/636 591/148/601 592/148/602 517/20/637
f 517/20/637 592/148/602 593/148/603 518/20/638
f 518/20/638 593/148/603 594/22/450 519/20/38
f 63/64/485 1/66/639 584/66/640 589/64/486
f 589/64/486 584/66/640 583/66/641 588/64/488
f 588/64/488 583/66/641 582/66/642 587/64/490
f 587/64/490 582/66/642 581/66/643 586/64/492
f 586/64/492 581/66/643 580/66/444 585/64/448
f 1/1/639 3/4/604 575/4/605 584/1/640
f 584/1/640 575/4/605 576/149/606 583/1/641
f 583/1/641 576/149/606 577/149/607 582/1/642
f 582/1/642 577/149/607 578/4/608 581/1/643
f 581/1/643 578/4/608 579/4/445 580/1/444
f 45/46/495 47/48/609 565/48/610 574/46/496
f 574/46/496 565/48/610 566/48/611 573/46/498
f 573/46/498 566/48/611 567/48/612 572/46/500
f 572/46/500 567/48/612 568/48/613 571/46/502
f 571/46/502 568/48/613 569/48/441 570/46/440
f 27/28/505 29/30/614 555/30/615 564/28/506
f 564/28/506 555/30/615 556/30/616 563/28/508
f 563/28/508 556/30/616 557/30/617 562/28/510
f 562/28/510 557/30/617 558/30/618 561/28/512
f 561/28/512 558/30/618 559/30/437 560/28/436
f 9/10/515 11/12/619 545/12/620 554/10/516
f 554/10/516 545/12/620 546/12/621 553/10/518
f 553/10/518 546/12/621 547/12/622 552/10/520
f 552/10/520 547/12/622 548/150/623 551/10/522
f 551/10/522 548/150/623 549/12/433 550/10/432
f 53/54/525 55/56/624 535/56/625 544/54/526
f 544/54/526 535/56/625 536/56/626 543/54/528
f 543/54/528 536/56/626 537/56/627 542/54/530
f 542/54/530 537/56/627 538/56/628 541/54/532
f 541/54/532 538/56/628 539/56/429 540/54/428
f 35/36/535 37/38/629 525/38/630 534/36/536
f 534/36/536 525/38/630 526/38/631 533/143/538
f 533/143/538 526/38/631 527/38/632 532/36/540
f 532/36/540 527/38/632 528/38/633 531/36/542
f 531/36/542 528/38/633 529/38/425 530/36/424
f 17/18/545 19/20/634 515/20/635 524/18/546
f 524/18/546 515/20/635 516/20/636 523/18/548
f 523/18/548 516/20/636 517/20/637 522/18/550
f 522/18/550 517/20/637 518/20/638 521/18/552
f 521/18/552 518/20/638 519/20/38 520/18/37
f 514/151/644 675/152/644 676/153/644
f 514/154/644 676/153/644 677/155/644
f 514/156/644 677/155/644 678/157/644
f 514/158/644 678/157/644 679/159/644
f 514/160/644 679/159/644 680/161/644
f 514/162/644 680/161/644 681/163/644
f 514/164/644 681/163/644 682/165/644
f 514/166/644 682/165/644 683/167/644
f 514/168/644 683/167/644 684/169/644
f 514/170/644 684/169/644 685/171/644
f 514/172/644 685/171/644 686/173/644
f 514/174/644 686/173/644 687/175/644
f 514/176/644 687/175/644 688/177/644
f 514/178/644 688/177/644 689/179/644
f 514/180/644 689/179/644 690/181/644
f 514/182/644 690/181/644 691/183/644
f 514/184/644 691/183/644 692/185/644
f 514/186/644 692/185/644 693/187/644
f 514/188/644 693/187/644 694/189/644
f 514/190/644 694/189/644 695/191/644
f 514/192/644 695/191/644 696/193/644
f 514/194/644 696/193/644 697/195/644
f 514/196/644 697/195/644 698/197/644
f 514/198/644 698/197/644 699/199/644
f 514/200/644 699/199/644 700/201/644
f 514/202/644 700/201/644 701/203/644
f 514/204/644 701/203/644 702/205/644
f 514/206/644 702/205/644 703/207/644
f 514/208/644 703/207/644 704/209/644
f 514/210/644 704/209/644 705/211/644
f 514/212/644 705/211/644 706/213/644
f 514/214/644 706/213/644 675/152/644
f 513/215/359 707/81/359 708/80/359
f 513/216/359 709/84/359 707/81/359
f 513/217/359 710/86/359 709/84/359
f 513/218/359 711/88/359 710/86/359
f 513/219/359 712/79/359 711/88/359
f 513/220/359 713/78/359 712/79/359
f 513/221/359 714/92/359 713/78/359
f 513/222/359 715/94/359 714/92/359
f 513/223/359 716/96/359 715/94/359
f 513/224/359 717/98/359 716/96/359
f 513/225/359 718/100/359 717/98/359
f 513/226/359 719/102/359 718/100/359
f 513/227/359 720/104/359 719/102/359
f 513/228/359 721/106/359 720/104/359
f 513/229/359 722/108/359 721/106/359
f 513/230/359 723/110/359 722/108/359
f 513/231/359 724/112/359 723/110/359
f 513/232/359 725/114/359 724/112/359
f 513/233/359 726/116/359 725/114/359
f 513/234/359 727/118/359 726/116/359
f 513/235/359 728/120/359 727/118/359
f 513/236/359 729/122/359 728/120/359
f 513/237/359 730/124/359 729/122/359
f 513/238/359 731/126/359 730/124/359
f 513/239/359 732/128/359 731/126/359
f 513/240/359 733/130/359 732/128/359
f 513/241/359 734/132/359 733/130/359
f 513/242/359 735/134/359 734/132/359
f 513/243/359 736/136/359 735/134/359
f 513/244/359 737/138/359 736/136/359
f 513/245/359 738/140/359 737/138/359
f 513/246/359 708/80/359 738/140/359
