# Blender 4.5.1 LTS
# www.blender.org
o HEAT
v 0.000000 0.040000 -0.100000
v 0.019509 0.040000 -0.098079
v 0.019509 0.409018 -0.098079
v 0.038268 0.040000 -0.092388
v 0.038268 0.409018 -0.092388
v 0.055557 0.040000 -0.083147
v 0.070711 0.040000 -0.070711
v 0.070711 0.409018 -0.070711
v 0.083147 0.040000 -0.055557
v 0.092388 0.040000 -0.038268
v 0.098079 0.040000 -0.019509
v 0.098079 0.409018 -0.019509
v 0.100000 0.040000 0.000000
v 0.100000 0.409018 0.000000
v 0.098079 0.040000 0.019509
v 0.092388 0.040000 0.038268
v 0.083147 0.040000 0.055557
v 0.083147 0.409018 0.055557
v 0.070711 0.040000 0.070711
v 0.055557 0.040000 0.083147
v 0.038268 0.040000 0.092388
v 0.019509 0.040000 0.098079
v 0.019509 0.409018 0.098079
v 0.000000 0.040000 0.100000
v -0.000000 0.409018 0.100000
v -0.019509 0.040000 0.098079
v -0.019509 0.409018 0.098079
v -0.038268 0.040000 0.092388
v -0.038268 0.409018 0.092388
v -0.055557 0.040000 0.083147
v -0.070711 0.040000 0.070711
v -0.083147 0.040000 0.055557
v -0.092388 0.040000 0.038268
v -0.098079 0.040000 0.019509
v -0.100000 0.040000 0.000000
v -0.098079 0.040000 -0.019509
v -0.098079 0.409018 -0.019509
v -0.092388 0.040000 -0.038268
v -0.092388 0.409018 -0.038268
v -0.083147 0.040000 -0.055557
v -0.083147 0.409018 -0.055557
v -0.070711 0.040000 -0.070711
v -0.055557 0.040000 -0.083147
v -0.055557 0.409018 -0.083147
v -0.038268 0.040000 -0.092388
v -0.038268 0.409018 -0.092388
v -0.019509 0.040000 -0.098079
v -0.019509 0.409018 -0.098079
v -0.000000 0.409018 -0.100000
v -0.000000 0.554000 -0.017304
v -0.000000 0.455147 -0.095106
v -0.000000 0.496761 -0.080902
v -0.000000 0.529786 -0.058778
v -0.000000 0.550989 -0.030902
v 0.006029 0.550989 -0.030308
v 0.011467 0.529786 -0.057649
v 0.015783 0.496761 -0.079347
v 0.018554 0.455147 -0.093278
v 0.011826 0.550989 -0.028549
v 0.022494 0.529786 -0.054304
v 0.030960 0.496761 -0.074743
v 0.036395 0.455147 -0.087866
v 0.055557 0.409018 -0.083147
v 0.017168 0.550989 -0.025694
v 0.032656 0.529786 -0.048873
v 0.044947 0.496761 -0.067267
v 0.052838 0.455147 -0.079077
v 0.021851 0.550989 -0.021851
v 0.041563 0.529786 -0.041563
v 0.057206 0.496761 -0.057206
v 0.067250 0.455147 -0.067250
v 0.083147 0.409018 -0.055557
v 0.025694 0.550989 -0.017168
v 0.048872 0.529786 -0.032656
v 0.067267 0.496761 -0.044947
v 0.079077 0.455147 -0.052838
v 0.092388 0.409018 -0.038268
v 0.028549 0.550989 -0.011826
v 0.054304 0.529786 -0.022494
v 0.074743 0.496761 -0.030960
v 0.087866 0.455147 -0.036395
v 0.030308 0.550989 -0.006029
v 0.057649 0.529786 -0.011467
v 0.079347 0.496761 -0.015783
v 0.093278 0.455147 -0.018554
v 0.030902 0.550989 0.000000
v 0.058778 0.529786 0.000000
v 0.080902 0.496761 0.000000
v 0.095106 0.455147 0.000000
v 0.098079 0.409018 0.019509
v 0.030308 0.550989 0.006029
v 0.057649 0.529786 0.011467
v 0.079347 0.496761 0.015783
v 0.093278 0.455147 0.018554
v 0.092388 0.409018 0.038268
v 0.028549 0.550989 0.011826
v 0.054304 0.529786 0.022494
v 0.074743 0.496761 0.030960
v 0.087866 0.455147 0.036395
v 0.025694 0.550989 0.017168
v 0.048872 0.529786 0.032656
v 0.067267 0.496761 0.044947
v 0.079077 0.455147 0.052838
v 0.070711 0.409018 0.070711
v 0.021851 0.550989 0.021851
v 0.041563 0.529786 0.041563
v 0.057206 0.496761 0.057206
v 0.067250 0.455147 0.067250
v 0.055557 0.409018 0.083147
v 0.017168 0.550989 0.025694
v 0.032656 0.529786 0.048873
v 0.044947 0.496761 0.067267
v 0.052838 0.455147 0.079077
v 0.038268 0.409018 0.092388
v 0.011826 0.550989 0.028549
v 0.022494 0.529786 0.054304
v 0.030960 0.496761 0.074743
v 0.036395 0.455147 0.087866
v 0.006029 0.550989 0.030308
v 0.011467 0.529786 0.057649
v 0.015783 0.496761 0.079347
v 0.018554 0.455147 0.093278
v -0.000000 0.550989 0.030902
v -0.000000 0.529786 0.058778
v -0.000000 0.496761 0.080902
v -0.000000 0.455147 0.095106
v -0.006029 0.550989 0.030308
v -0.011467 0.529786 0.057649
v -0.015783 0.496761 0.079347
v -0.018554 0.455147 0.093278
v -0.011826 0.550989 0.028549
v -0.022494 0.529786 0.054304
v -0.030960 0.496761 0.074743
v -0.036395 0.455147 0.087866
v -0.055557 0.409018 0.083147
v -0.017168 0.550989 0.025694
v -0.032656 0.529786 0.048873
v -0.044947 0.496761 0.067267
v -0.052838 0.455147 0.079077
v -0.070711 0.409018 0.070711
v -0.021851 0.550989 0.021851
v -0.041563 0.529786 0.041563
v -0.057206 0.496761 0.057206
v -0.067250 0.455147 0.067250
v -0.083147 0.409018 0.055557
v -0.025694 0.550989 0.017168
v -0.048873 0.529786 0.032656
v -0.067267 0.496761 0.044947
v -0.079077 0.455147 0.052838
v -0.092388 0.409018 0.038268
v -0.028549 0.550989 0.011826
v -0.054304 0.529786 0.022494
v -0.074743 0.496761 0.030960
v -0.087866 0.455147 0.036395
v -0.098079 0.409018 0.019509
v -0.030308 0.550989 0.006029
v -0.057649 0.529786 0.011467
v -0.079347 0.496761 0.015783
v -0.093278 0.455147 0.018554
v -0.100000 0.409018 0.000000
v -0.030902 0.550989 -0.000000
v -0.058778 0.529786 -0.000000
v -0.080902 0.496761 -0.000000
v -0.095106 0.455147 0.000000
v -0.030308 0.550989 -0.006029
v -0.057649 0.529786 -0.011467
v -0.079347 0.496761 -0.015783
v -0.093278 0.455147 -0.018554
v -0.028549 0.550989 -0.011826
v -0.054304 0.529786 -0.022494
v -0.074743 0.496761 -0.030960
v -0.087866 0.455147 -0.036395
v -0.025694 0.550989 -0.017168
v -0.048873 0.529786 -0.032656
v -0.067267 0.496761 -0.044947
v -0.079077 0.455147 -0.052838
v -0.070711 0.409018 -0.070711
v -0.021851 0.550989 -0.021851
v -0.041563 0.529786 -0.041563
v -0.057206 0.496761 -0.057206
v -0.067250 0.455147 -0.067250
v -0.017168 0.550989 -0.025694
v -0.032656 0.529786 -0.048873
v -0.044947 0.496761 -0.067267
v -0.052838 0.455147 -0.079077
v -0.011826 0.550989 -0.028549
v -0.022494 0.529786 -0.054304
v -0.030960 0.496761 -0.074743
v -0.036395 0.455147 -0.087866
v -0.006029 0.550989 -0.030308
v -0.011467 0.529786 -0.057649
v -0.015783 0.496761 -0.079347
v -0.018554 0.455147 -0.093278
v 0.003376 0.554000 -0.016971
v 0.006622 0.554000 -0.015986
v 0.009613 0.554000 -0.014387
v 0.012235 0.554000 -0.012236
v 0.014387 0.554000 -0.009613
v 0.015986 0.554000 -0.006622
v 0.016971 0.554000 -0.003376
v 0.017304 0.554000 0.000000
v 0.016971 0.554000 0.003376
v 0.015986 0.554000 0.006622
v 0.014387 0.554000 0.009613
v 0.012235 0.554000 0.012236
v 0.009613 0.554000 0.014387
v 0.006622 0.554000 0.015986
v 0.003376 0.554000 0.016971
v -0.000000 0.554000 0.017304
v -0.003376 0.554000 0.016971
v -0.006622 0.554000 0.015986
v -0.009614 0.554000 0.014387
v -0.012236 0.554000 0.012236
v -0.014388 0.554000 0.009613
v -0.015987 0.554000 0.006622
v -0.016971 0.554000 0.003376
v -0.017304 0.554000 -0.000000
v -0.016971 0.554000 -0.003376
v -0.015987 0.554000 -0.006622
v -0.014388 0.554000 -0.009613
v -0.012236 0.554000 -0.012236
v -0.009614 0.554000 -0.014387
v -0.006622 0.554000 -0.015986
v -0.003376 0.554000 -0.016971
v -0.000000 0.562000 -0.017304
v 0.003376 0.562000 -0.016971
v 0.006622 0.562000 -0.015986
v 0.009613 0.562000 -0.014387
v 0.012235 0.562000 -0.012236
v 0.014387 0.562000 -0.009613
v 0.015986 0.562000 -0.006622
v 0.016971 0.562000 -0.003376
v 0.017304 0.562000 0.000000
v 0.016971 0.562000 0.003376
v 0.015986 0.562000 0.006622
v 0.014387 0.562000 0.009613
v 0.012235 0.562000 0.012236
v 0.009613 0.562000 0.014387
v 0.006622 0.562000 0.015986
v 0.003376 0.562000 0.016971
v -0.000000 0.562000 0.017304
v -0.003376 0.562000 0.016971
v -0.006622 0.562000 0.015986
v -0.009614 0.562000 0.014387
v -0.012236 0.562000 0.012236
v -0.014388 0.562000 0.009613
v -0.015987 0.562000 0.006622
v -0.016971 0.562000 0.003376
v -0.017304 0.562000 -0.000000
v -0.016971 0.562000 -0.003376
v -0.015987 0.562000 -0.006622
v -0.014388 0.562000 -0.009613
v -0.012236 0.562000 -0.012236
v -0.009614 0.562000 -0.014387
v -0.006622 0.562000 -0.015986
v -0.003376 0.562000 -0.016971
v -0.000000 0.564000 -0.015425
v 0.003009 0.564000 -0.015129
v 0.005903 0.564000 -0.014251
v 0.008570 0.564000 -0.012826
v 0.010907 0.564000 -0.010907
v 0.012826 0.564000 -0.008570
v 0.014251 0.564000 -0.005903
v 0.015129 0.564000 -0.003009
v 0.015425 0.564000 0.000000
v 0.015129 0.564000 0.003009
v 0.014251 0.564000 0.005903
v 0.012826 0.564000 0.008570
v 0.010907 0.564000 0.010907
v 0.008570 0.564000 0.012826
v 0.005903 0.564000 0.014251
v 0.003009 0.564000 0.015129
v -0.000000 0.564000 0.015425
v -0.003009 0.564000 0.015129
v -0.005903 0.564000 0.014251
v -0.008570 0.564000 0.012826
v -0.010907 0.564000 0.010907
v -0.012826 0.564000 0.008570
v -0.014251 0.564000 0.005903
v -0.015129 0.564000 0.003009
v -0.015425 0.564000 -0.000000
v -0.015129 0.564000 -0.003009
v -0.014251 0.564000 -0.005903
v -0.012826 0.564000 -0.008570
v -0.010907 0.564000 -0.010907
v -0.008570 0.564000 -0.012826
v -0.005903 0.564000 -0.014251
v -0.003009 0.564000 -0.015129
v -0.000000 0.564000 -0.012187
v 0.002378 0.564000 -0.011953
v 0.004664 0.564000 -0.011260
v 0.006771 0.564000 -0.010133
v 0.008618 0.564000 -0.008618
v 0.010133 0.564000 -0.006771
v 0.011259 0.564000 -0.004664
v 0.011953 0.564000 -0.002378
v 0.012187 0.564000 0.000000
v 0.011953 0.564000 0.002378
v 0.011259 0.564000 0.004664
v 0.010133 0.564000 0.006771
v 0.008618 0.564000 0.008618
v 0.006771 0.564000 0.010133
v 0.004664 0.564000 0.011260
v 0.002378 0.564000 0.011953
v -0.000000 0.564000 0.012187
v -0.002378 0.564000 0.011953
v -0.004664 0.564000 0.011260
v -0.006771 0.564000 0.010133
v -0.008618 0.564000 0.008618
v -0.010133 0.564000 0.006771
v -0.011260 0.564000 0.004664
v -0.011953 0.564000 0.002378
v -0.012187 0.564000 -0.000000
v -0.011953 0.564000 -0.002378
v -0.011260 0.564000 -0.004664
v -0.010133 0.564000 -0.006771
v -0.008618 0.564000 -0.008618
v -0.006771 0.564000 -0.010133
v -0.004664 0.564000 -0.011260
v -0.002378 0.564000 -0.011953
v -0.007726 0.040000 -0.038844
v -0.015156 0.040000 -0.036590
v -0.022003 0.040000 -0.032930
v -0.028005 0.040000 -0.028005
v -0.032930 0.040000 -0.022003
v -0.036590 0.040000 -0.015156
v -0.038843 0.040000 -0.007726
v -0.039604 0.040000 -0.000000
v -0.038843 0.040000 0.007726
v -0.036590 0.040000 0.015156
v -0.032930 0.040000 0.022003
v -0.028005 0.040000 0.028005
v -0.022003 0.040000 0.032930
v -0.015156 0.040000 0.036590
v -0.007726 0.040000 0.038844
v 0.000000 0.040000 0.039605
v 0.007727 0.040000 0.038844
v 0.015156 0.040000 0.036590
v 0.022003 0.040000 0.032930
v 0.028005 0.040000 0.028005
v 0.032930 0.040000 0.022003
v 0.036590 0.040000 0.015156
v 0.038844 0.040000 0.007726
v 0.039605 0.040000 -0.000000
v 0.038844 0.040000 -0.007726
v 0.036590 0.040000 -0.015156
v 0.032930 0.040000 -0.022003
v 0.028005 0.040000 -0.028005
v 0.022003 0.040000 -0.032930
v 0.015156 0.040000 -0.036590
v 0.007727 0.040000 -0.038844
v 0.000000 0.040000 -0.039605
v -0.000000 0.577002 -0.012187
v 0.002378 0.577002 -0.011953
v 0.004664 0.577002 -0.011260
v 0.006771 0.577002 -0.010133
v 0.008618 0.577002 -0.008618
v 0.010133 0.577002 -0.006771
v 0.011259 0.577002 -0.004664
v 0.011953 0.577002 -0.002378
v 0.012187 0.577002 0.000000
v 0.011953 0.577002 0.002378
v 0.011259 0.577002 0.004664
v 0.010133 0.577002 0.006771
v 0.008618 0.577002 0.008618
v 0.006771 0.577002 0.010133
v 0.004664 0.577002 0.011260
v 0.002378 0.577002 0.011953
v -0.000000 0.577002 0.012187
v -0.002378 0.577002 0.011953
v -0.004664 0.577002 0.011260
v -0.006771 0.577002 0.010133
v -0.008618 0.577002 0.008618
v -0.010133 0.577002 0.006771
v -0.011260 0.577002 0.004664
v -0.011953 0.577002 0.002378
v -0.012187 0.577002 -0.000000
v -0.011953 0.577002 -0.002378
v -0.011260 0.577002 -0.004664
v -0.010133 0.577002 -0.006771
v -0.008618 0.577002 -0.008618
v -0.006771 0.577002 -0.010133
v -0.004664 0.577002 -0.011260
v -0.000000 0.580000 0.000000
v -0.002378 0.577002 -0.011953
v 0.000000 -0.000000 0.000000
v -0.001790 0.580000 -0.008998
v -0.000000 0.580000 -0.009175
v -0.003511 0.580000 -0.008476
v -0.005097 0.580000 -0.007629
v -0.006488 0.580000 -0.006488
v -0.007629 0.580000 -0.005097
v -0.008476 0.580000 -0.003511
v -0.008999 0.580000 -0.001790
v -0.009175 0.580000 -0.000000
v -0.008999 0.580000 0.001790
v -0.008476 0.580000 0.003511
v -0.007629 0.580000 0.005097
v -0.006488 0.580000 0.006488
v -0.005097 0.580000 0.007629
v -0.003511 0.580000 0.008476
v -0.001790 0.580000 0.008998
v -0.000000 0.580000 0.009175
v 0.001790 0.580000 0.008998
v 0.003511 0.580000 0.008476
v 0.005097 0.580000 0.007629
v 0.006487 0.580000 0.006488
v 0.007628 0.580000 0.005097
v 0.008476 0.580000 0.003511
v 0.008998 0.580000 0.001790
v 0.009175 0.580000 0.000000
v 0.008998 0.580000 -0.001790
v 0.008476 0.580000 -0.003511
v 0.007628 0.580000 -0.005097
v 0.006487 0.580000 -0.006488
v 0.005097 0.580000 -0.007629
v 0.003511 0.580000 -0.008476
v 0.001790 0.580000 -0.008998
v 0.015156 -0.000000 -0.036590
v 0.022003 -0.000000 -0.032930
v 0.028005 -0.000000 -0.028005
v 0.032930 -0.000000 -0.022003
v 0.036590 -0.000000 -0.015156
v 0.038844 -0.000000 -0.007726
v 0.039605 -0.000000 -0.000000
v 0.038844 -0.000000 0.007726
v 0.036590 -0.000000 0.015156
v 0.032930 -0.000000 0.022003
v 0.028005 -0.000000 0.028005
v 0.022003 -0.000000 0.032930
v 0.015156 -0.000000 0.036590
v 0.007727 -0.000000 0.038844
v 0.000000 -0.000000 0.039605
v -0.007726 -0.000000 0.038844
v -0.015156 -0.000000 0.036590
v -0.022003 -0.000000 0.032930
v -0.028005 -0.000000 0.028005
v -0.032930 -0.000000 0.022003
v -0.036590 -0.000000 0.015156
v -0.038843 -0.000000 0.007726
v -0.039604 -0.000000 -0.000000
v -0.038843 -0.000000 -0.007726
v -0.036590 -0.000000 -0.015156
v -0.032930 -0.000000 -0.022003
v -0.028005 -0.000000 -0.028005
v -0.022003 -0.000000 -0.032930
v -0.015156 -0.000000 -0.036590
v -0.007726 -0.000000 -0.038844
v 0.000000 -0.000000 -0.039605
v 0.007727 -0.000000 -0.038844
vn -0.0000 -0.0000 -1.0000
vn -0.0000 0.0527 -0.9986
vn 0.1948 0.0527 -0.9794
vn 0.1951 -0.0000 -0.9808
vn 0.3822 0.0527 -0.9226
vn 0.3827 -0.0000 -0.9239
vn 0.5548 0.0527 -0.8303
vn 0.5556 -0.0000 -0.8315
vn 0.7061 0.0527 -0.7061
vn 0.7071 -0.0000 -0.7071
vn 0.8303 0.0527 -0.5548
vn 0.8315 -0.0000 -0.5556
vn 0.9226 0.0527 -0.3822
vn 0.9239 -0.0000 -0.3827
vn 0.9794 0.0527 -0.1948
vn 0.9808 -0.0000 -0.1951
vn 0.9986 0.0527 -0.0000
vn 1.0000 -0.0000 -0.0000
vn 0.9794 0.0527 0.1948
vn 0.9808 -0.0000 0.1951
vn 0.9226 0.0527 0.3822
vn 0.9239 -0.0000 0.3827
vn 0.8303 0.0527 0.5548
vn 0.8315 -0.0000 0.5556
vn 0.7061 0.0527 0.7061
vn 0.7071 -0.0000 0.7071
vn 0.5548 0.0527 0.8303
vn 0.5556 -0.0000 0.8315
vn 0.3822 0.0527 0.9226
vn 0.3827 -0.0000 0.9239
vn 0.1948 0.0527 0.9794
vn 0.1951 -0.0000 0.9808
vn -0.0000 0.0527 0.9986
vn -0.0000 -0.0000 1.0000
vn -0.1948 0.0527 0.9794
vn -0.1951 -0.0000 0.9808
vn -0.3822 0.0527 0.9226
vn -0.3827 -0.0000 0.9239
vn -0.5548 0.0527 0.8303
vn -0.5556 -0.0000 0.8315
vn -0.7061 0.0527 0.7061
vn -0.7071 -0.0000 0.7071
vn -0.8303 0.0527 0.5548
vn -0.8315 -0.0000 0.5556
vn -0.9226 0.0527 0.3822
vn -0.9239 -0.0000 0.3827
vn -0.9794 0.0527 0.1948
vn -0.9808 -0.0000 0.1951
vn -0.9986 0.0527 -0.0000
vn -1.0000 -0.0000 -0.0000
vn -0.9794 0.0527 -0.1948
vn -0.9808 -0.0000 -0.1951
vn -0.9226 0.0527 -0.3822
vn -0.9239 -0.0000 -0.3827
vn -0.8303 0.0527 -0.5548
vn -0.8315 -0.0000 -0.5556
vn -0.7061 0.0527 -0.7061
vn -0.7071 -0.0000 -0.7071
vn -0.5548 0.0527 -0.8303
vn -0.5556 -0.0000 -0.8315
vn -0.3822 0.0527 -0.9226
vn -0.3827 -0.0000 -0.9239
vn -0.1948 0.0527 -0.9794
vn -0.1951 -0.0000 -0.9808
vn -0.0000 -1.0000 -0.0000
vn -0.0000 0.2142 -0.9768
vn 0.1906 0.2142 -0.9580
vn -0.0000 0.4404 -0.8978
vn 0.1752 0.4404 -0.8806
vn -0.0000 0.6805 -0.7328
vn 0.1430 0.6805 -0.7187
vn -0.0000 0.9021 -0.4315
vn 0.0842 0.9021 -0.4232
vn -0.4232 0.9021 0.0842
vn -0.3986 0.9021 0.1651
vn -0.1997 0.9764 0.0827
vn -0.2120 0.9764 0.0422
vn 0.3738 0.2142 -0.9024
vn 0.3436 0.4404 -0.8295
vn 0.2804 0.6805 -0.6770
vn 0.1651 0.9021 -0.3986
vn -0.3051 0.9021 0.3051
vn -0.2397 0.9021 0.3588
vn -0.1201 0.9764 0.1797
vn -0.1529 0.9764 0.1529
vn 0.5427 0.2142 -0.8122
vn 0.4988 0.4404 -0.7465
vn 0.4071 0.6805 -0.6093
vn 0.2397 0.9021 -0.3588
vn 0.2397 0.9021 0.3588
vn 0.3051 0.9021 0.3051
vn 0.1529 0.9764 0.1529
vn 0.1201 0.9764 0.1797
vn 0.6907 0.2142 -0.6907
vn 0.6349 0.4404 -0.6349
vn 0.5181 0.6805 -0.5181
vn 0.3051 0.9021 -0.3051
vn 0.4315 0.9021 -0.0000
vn 0.4232 0.9021 -0.0842
vn 0.2120 0.9764 -0.0422
vn 0.2162 0.9764 -0.0000
vn 0.8122 0.2142 -0.5427
vn 0.7465 0.4404 -0.4988
vn 0.6093 0.6805 -0.4071
vn 0.3588 0.9021 -0.2397
vn -0.1651 0.9021 -0.3986
vn -0.2397 0.9021 -0.3588
vn -0.1201 0.9764 -0.1797
vn -0.0827 0.9764 -0.1997
vn 0.9024 0.2142 -0.3738
vn 0.8295 0.4404 -0.3436
vn 0.6770 0.6805 -0.2804
vn 0.3986 0.9021 -0.1651
vn -0.0000 0.9764 -0.2162
vn 0.0422 0.9764 -0.2120
vn 0.9580 0.2142 -0.1906
vn 0.8806 0.4404 -0.1752
vn 0.7187 0.6805 -0.1430
vn 0.1797 0.9764 -0.1201
vn 0.1997 0.9764 -0.0827
vn 0.9768 0.2142 -0.0000
vn 0.8978 0.4404 -0.0000
vn 0.7328 0.6805 -0.0000
vn -0.3051 0.9021 -0.3051
vn -0.3588 0.9021 -0.2397
vn -0.1797 0.9764 -0.1201
vn -0.1529 0.9764 -0.1529
vn 0.9580 0.2142 0.1906
vn 0.8806 0.4404 0.1752
vn 0.7187 0.6805 0.1430
vn 0.4232 0.9021 0.0842
vn -0.1651 0.9021 0.3986
vn -0.0842 0.9021 0.4232
vn -0.0422 0.9764 0.2120
vn -0.0827 0.9764 0.1997
vn 0.9024 0.2142 0.3738
vn 0.8295 0.4404 0.3436
vn 0.6770 0.6805 0.2804
vn 0.3986 0.9021 0.1651
vn -0.3986 0.9021 -0.1651
vn -0.4232 0.9021 -0.0842
vn -0.2120 0.9764 -0.0422
vn -0.1997 0.9764 -0.0827
vn 0.8122 0.2142 0.5427
vn 0.7465 0.4404 0.4988
vn 0.6093 0.6805 0.4071
vn 0.3588 0.9021 0.2397
vn -0.0842 0.9021 -0.4232
vn -0.0422 0.9764 -0.2120
vn 0.6907 0.2142 0.6907
vn 0.6349 0.4404 0.6349
vn 0.5181 0.6805 0.5181
vn 0.1997 0.9764 0.0827
vn 0.1797 0.9764 0.1201
vn 0.5427 0.2142 0.8122
vn 0.4988 0.4404 0.7465
vn 0.4071 0.6805 0.6093
vn -0.0000 0.9021 0.4315
vn 0.0842 0.9021 0.4232
vn 0.0422 0.9764 0.2120
vn -0.0000 0.9764 0.2162
vn 0.3738 0.2142 0.9024
vn 0.3436 0.4404 0.8295
vn 0.2804 0.6805 0.6770
vn 0.1651 0.9021 0.3986
vn -0.4315 0.9021 -0.0000
vn -0.2162 0.9764 -0.0000
vn 0.1906 0.2142 0.9580
vn 0.1752 0.4404 0.8806
vn 0.1430 0.6805 0.7187
vn -0.3588 0.9021 0.2397
vn -0.1797 0.9764 0.1201
vn -0.0000 0.2142 0.9768
vn -0.0000 0.4404 0.8978
vn -0.0000 0.6805 0.7328
vn 0.0827 0.9764 0.1997
vn -0.1906 0.2142 0.9580
vn -0.1752 0.4404 0.8806
vn -0.1430 0.6805 0.7187
vn 0.1201 0.9764 -0.1797
vn 0.1529 0.9764 -0.1529
vn -0.3738 0.2142 0.9024
vn -0.3436 0.4404 0.8295
vn -0.2804 0.6805 0.6770
vn 0.2120 0.9764 0.0422
vn -0.5427 0.2142 0.8122
vn -0.4988 0.4404 0.7465
vn -0.4071 0.6805 0.6093
vn 0.0827 0.9764 -0.1997
vn -0.6907 0.2142 0.6907
vn -0.6349 0.4404 0.6349
vn -0.5181 0.6805 0.5181
vn -0.8122 0.2142 0.5427
vn -0.7465 0.4404 0.4988
vn -0.6093 0.6805 0.4071
vn -0.9024 0.2142 0.3738
vn -0.8295 0.4404 0.3436
vn -0.6770 0.6805 0.2804
vn -0.9580 0.2142 0.1906
vn -0.8806 0.4404 0.1752
vn -0.7187 0.6805 0.1430
vn -0.9768 0.2142 -0.0000
vn -0.8978 0.4404 -0.0000
vn -0.7328 0.6805 -0.0000
vn -0.9580 0.2142 -0.1906
vn -0.8806 0.4404 -0.1752
vn -0.7187 0.6805 -0.1430
vn -0.9024 0.2142 -0.3738
vn -0.8295 0.4404 -0.3436
vn -0.6770 0.6805 -0.2804
vn -0.8122 0.2142 -0.5427
vn -0.7465 0.4404 -0.4988
vn -0.6093 0.6805 -0.4071
vn -0.6907 0.2142 -0.6907
vn -0.6349 0.4404 -0.6349
vn -0.5181 0.6805 -0.5181
vn -0.5427 0.2142 -0.8122
vn -0.4988 0.4404 -0.7465
vn -0.4071 0.6805 -0.6093
vn -0.3738 0.2142 -0.9024
vn -0.3436 0.4404 -0.8295
vn -0.2804 0.6805 -0.6770
vn -0.1906 0.2142 -0.9580
vn -0.1752 0.4404 -0.8806
vn -0.1430 0.6805 -0.7187
vn -0.0000 0.6846 0.7289
vn 0.1422 0.6846 0.7149
vn -0.4050 0.6846 -0.6061
vn -0.5154 0.6846 -0.5154
vn 0.2789 0.6846 -0.6735
vn 0.1422 0.6846 -0.7149
vn 0.2790 0.6846 0.6735
vn -0.6061 0.6846 -0.4050
vn -0.0000 0.6846 -0.7289
vn 0.4050 0.6846 0.6061
vn -0.6735 0.6846 -0.2790
vn 0.5154 0.6846 0.5154
vn -0.7149 0.6846 -0.1422
vn 0.6061 0.6846 0.4050
vn -0.7289 0.6846 -0.0000
vn 0.6734 0.6846 0.2790
vn -0.7149 0.6846 0.1422
vn 0.7149 0.6846 0.1422
vn -0.6734 0.6846 0.2790
vn 0.7289 0.6846 -0.0000
vn -0.6061 0.6846 0.4050
vn 0.7149 0.6846 -0.1422
vn -0.5154 0.6846 0.5154
vn 0.6735 0.6846 -0.2790
vn -0.4050 0.6846 0.6061
vn 0.6061 0.6846 -0.4050
vn -0.2789 0.6846 0.6735
vn -0.1422 0.6846 -0.7149
vn 0.5154 0.6846 -0.5154
vn -0.1422 0.6846 0.7149
vn -0.2790 0.6846 -0.6735
vn 0.4050 0.6846 -0.6061
vn -0.0000 1.0000 -0.0000
vn -0.1376 0.7088 -0.6918
vn -0.0000 0.7088 -0.7054
vn -0.2699 0.7088 -0.6517
vn -0.3919 0.7088 -0.5865
vn -0.4988 0.7088 -0.4988
vn -0.5865 0.7088 -0.3919
vn -0.6517 0.7088 -0.2699
vn -0.6918 0.7088 -0.1376
vn -0.7054 0.7088 -0.0000
vn -0.6918 0.7088 0.1376
vn -0.6517 0.7088 0.2699
vn -0.5865 0.7088 0.3919
vn -0.4988 0.7088 0.4988
vn -0.3919 0.7088 0.5865
vn -0.2699 0.7088 0.6517
vn -0.1376 0.7088 0.6918
vn -0.0000 0.7088 0.7054
vn 0.1376 0.7088 0.6918
vn 0.2699 0.7088 0.6517
vn 0.3919 0.7088 0.5865
vn 0.4988 0.7088 0.4988
vn 0.5865 0.7088 0.3919
vn 0.6517 0.7088 0.2699
vn 0.6918 0.7088 0.1376
vn 0.7054 0.7088 -0.0000
vn 0.6918 0.7088 -0.1376
vn 0.6517 0.7088 -0.2699
vn 0.5865 0.7088 -0.3919
vn 0.4988 0.7088 -0.4988
vn 0.3919 0.7088 -0.5865
vn 0.2699 0.7088 -0.6517
vn 0.1376 0.7088 -0.6918
vt 1.000000 0.500000
vt 1.000000 1.000000
vt 0.968750 1.000000
vt 0.968750 0.500000
vt 0.937500 1.000000
vt 0.937500 0.500000
vt 0.906250 1.000000
vt 0.906250 0.500000
vt 0.875000 1.000000
vt 0.875000 0.500000
vt 0.843750 1.000000
vt 0.843750 0.500000
vt 0.812500 1.000000
vt 0.812500 0.500000
vt 0.781250 1.000000
vt 0.781250 0.500000
vt 0.750000 1.000000
vt 0.750000 0.500000
vt 0.718750 1.000000
vt 0.718750 0.500000
vt 0.687500 1.000000
vt 0.687500 0.500000
vt 0.656250 1.000000
vt 0.656250 0.500000
vt 0.625000 1.000000
vt 0.625000 0.500000
vt 0.593750 1.000000
vt 0.593750 0.500000
vt 0.562500 1.000000
vt 0.562500 0.500000
vt 0.531250 1.000000
vt 0.531250 0.500000
vt 0.500000 1.000000
vt 0.500000 0.500000
vt 0.468750 1.000000
vt 0.468750 0.500000
vt 0.437500 1.000000
vt 0.437500 0.500000
vt 0.406250 1.000000
vt 0.406250 0.500000
vt 0.375000 1.000000
vt 0.375000 0.500000
vt 0.343750 1.000000
vt 0.343750 0.500000
vt 0.312500 1.000000
vt 0.312500 0.500000
vt 0.281250 1.000000
vt 0.281250 0.500000
vt 0.250000 1.000000
vt 0.250000 0.500000
vt 0.218750 1.000000
vt 0.218750 0.500000
vt 0.187500 1.000000
vt 0.187500 0.500000
vt 0.156250 1.000000
vt 0.156250 0.500000
vt 0.125000 1.000000
vt 0.125000 0.500000
vt 0.093750 1.000000
vt 0.093750 0.500000
vt 0.062500 1.000000
vt 0.062500 0.500000
vt 0.031250 1.000000
vt 0.031250 0.500000
vt 0.000000 1.000000
vt 0.000000 0.500000
vt 0.968750 1.000000
vt 0.999235 1.000000
vt 0.968750 1.000000
vt 0.997016 1.000000
vt 0.968750 1.000000
vt 0.296736 0.484957
vt 0.250000 0.489560
vt 0.250000 0.391068
vt 0.277521 0.388358
vt 0.250000 0.324164
vt 0.264469 0.322739
vt 0.177261 0.235531
vt 0.181482 0.221619
vt 0.937500 1.000000
vt 0.937500 1.000000
vt 0.341675 0.471324
vt 0.303985 0.380330
vt 0.278381 0.318518
vt 0.197558 0.197558
vt 0.208797 0.188335
vt 0.906250 1.000000
vt 0.906250 1.000000
vt 0.383092 0.449187
vt 0.328373 0.367294
vt 0.291203 0.311665
vt 0.291203 0.188335
vt 0.302442 0.197558
vt 0.875000 1.000000
vt 0.875000 1.000000
vt 0.875000 1.000000
vt 0.419394 0.419394
vt 0.349750 0.349750
vt 0.302442 0.302442
vt 0.324164 0.250000
vt 0.322739 0.264469
vt 0.843750 1.000000
vt 0.449187 0.383092
vt 0.367294 0.328373
vt 0.311665 0.291203
vt 0.221619 0.318518
vt 0.208797 0.311665
vt 0.812500 1.000000
vt 0.471324 0.341676
vt 0.380330 0.303984
vt 0.318518 0.278381
vt 0.484957 0.296736
vt 0.388358 0.277521
vt 0.750000 1.000000
vt 0.489560 0.250000
vt 0.391068 0.250000
vt 0.197558 0.302442
vt 0.188335 0.291203
vt 0.718750 1.000000
vt 0.718750 1.000000
vt 0.484957 0.203264
vt 0.388358 0.222479
vt 0.322739 0.235531
vt 0.221619 0.181482
vt 0.235531 0.177261
vt 0.687500 1.000000
vt 0.471324 0.158324
vt 0.380330 0.196015
vt 0.318518 0.221619
vt 0.181482 0.278381
vt 0.177261 0.264469
vt 0.656250 1.000000
vt 0.449187 0.116908
vt 0.367294 0.171627
vt 0.311665 0.208797
vt 0.235531 0.322739
vt 0.419394 0.080606
vt 0.349750 0.150250
vt 0.593750 1.000000
vt 0.383092 0.050813
vt 0.328373 0.132706
vt 0.250000 0.175836
vt 0.264469 0.177261
vt 0.562500 1.000000
vt 0.341676 0.028676
vt 0.303985 0.119670
vt 0.278381 0.181482
vt 0.175836 0.250000
vt 0.531250 1.000000
vt 0.296736 0.015043
vt 0.277521 0.111642
vt 0.188335 0.208797
vt 0.500000 1.000000
vt 0.500000 1.000000
vt 0.250000 0.010440
vt 0.250000 0.108932
vt 0.468750 1.000000
vt 0.468750 1.000000
vt 0.203264 0.015043
vt 0.222479 0.111642
vt 0.437500 1.000000
vt 0.158324 0.028676
vt 0.196015 0.119670
vt 0.406250 1.000000
vt 0.406250 1.000000
vt 0.116908 0.050813
vt 0.171627 0.132706
vt 0.375000 1.000000
vt 0.080606 0.080606
vt 0.150250 0.150250
vt 0.343750 1.000000
vt 0.050813 0.116908
vt 0.132706 0.171627
vt 0.312500 1.000000
vt 0.312500 1.000000
vt 0.028676 0.158324
vt 0.119670 0.196015
vt 0.281250 1.000000
vt 0.015043 0.203264
vt 0.111642 0.222479
vt 0.010440 0.250000
vt 0.108932 0.250000
vt 0.218750 1.000000
vt 0.218750 1.000000
vt 0.218750 1.000000
vt 0.015043 0.296736
vt 0.111642 0.277521
vt 0.187500 1.000000
vt 0.187500 1.000000
vt 0.028676 0.341675
vt 0.119670 0.303985
vt 0.156250 1.000000
vt 0.156250 1.000000
vt 0.050813 0.383092
vt 0.132706 0.328373
vt 0.125000 1.000000
vt 0.125000 1.000000
vt 0.080606 0.419394
vt 0.150250 0.349750
vt 0.093750 1.000000
vt 0.093750 1.000000
vt 0.116908 0.449187
vt 0.171627 0.367294
vt 0.062500 1.000000
vt 0.062500 1.000000
vt 0.158325 0.471324
vt 0.196015 0.380330
vt 0.031250 1.000000
vt 0.031250 1.000000
vt 0.203264 0.484957
vt 0.222479 0.388358
vt 0.000765 1.000000
vt 0.002984 1.000000
vt 0.239108 0.304759
vt 0.250000 0.305832
vt 0.228634 0.301582
vt 0.218981 0.296422
vt 0.208797 0.311665
vt 0.210521 0.289479
vt 0.197558 0.302442
vt 0.203578 0.281019
vt 0.188335 0.291203
vt 0.198418 0.271366
vt 0.181482 0.278381
vt 0.195241 0.260892
vt 0.194168 0.250000
vt 0.195241 0.239108
vt 0.177261 0.235531
vt 0.198418 0.228634
vt 0.181482 0.221619
vt 0.203578 0.218981
vt 0.188335 0.208797
vt 0.210521 0.210521
vt 0.197558 0.197558
vt 0.218981 0.203578
vt 0.208797 0.188335
vt 0.228634 0.198418
vt 0.239108 0.195241
vt 0.250000 0.194168
vt 0.250000 0.175836
vt 0.260892 0.195241
vt 0.264469 0.177261
vt 0.271366 0.198418
vt 0.278381 0.181482
vt 0.281019 0.203578
vt 0.291203 0.188335
vt 0.289479 0.210521
vt 0.296423 0.218981
vt 0.301582 0.228634
vt 0.318518 0.221619
vt 0.304759 0.239108
vt 0.322739 0.235531
vt 0.305832 0.250000
vt 0.324164 0.250000
vt 0.304759 0.260892
vt 0.322739 0.264469
vt 0.301582 0.271366
vt 0.318518 0.278381
vt 0.296422 0.281019
vt 0.311665 0.291203
vt 0.289479 0.289479
vt 0.302442 0.302442
vt 0.281019 0.296422
vt 0.291203 0.311665
vt 0.271366 0.301582
vt 0.260892 0.304759
vt 0.250000 0.271156
vt 0.245873 0.270750
vt 0.241904 0.269546
vt 0.238246 0.267591
vt 0.235040 0.264960
vt 0.232409 0.261754
vt 0.230454 0.258096
vt 0.229250 0.254127
vt 0.228844 0.250000
vt 0.229250 0.245873
vt 0.230454 0.241904
vt 0.232409 0.238246
vt 0.235040 0.235040
vt 0.238246 0.232409
vt 0.241904 0.230454
vt 0.245873 0.229250
vt 0.250000 0.228844
vt 0.254127 0.229250
vt 0.258096 0.230454
vt 0.261754 0.232409
vt 0.264960 0.235040
vt 0.267591 0.238246
vt 0.269546 0.241904
vt 0.270750 0.245873
vt 0.271156 0.250000
vt 0.270750 0.254127
vt 0.269546 0.258096
vt 0.267591 0.261754
vt 0.264960 0.264960
vt 0.261754 0.267591
vt 0.258096 0.269546
vt 0.254127 0.270750
vt 0.776696 0.314449
vt 0.841844 0.471731
vt 0.883337 0.449553
vt 0.799327 0.299327
vt 0.919706 0.419706
vt 0.949553 0.383337
vt 0.814449 0.276696
vt 0.971731 0.341844
vt 0.985388 0.296822
vt 0.819759 0.250000
vt 0.990000 0.250000
vt 0.985388 0.203178
vt 0.814449 0.223304
vt 0.971731 0.158156
vt 0.949553 0.116663
vt 0.799327 0.200673
vt 0.919706 0.080294
vt 0.883337 0.050447
vt 0.776696 0.185551
vt 0.841844 0.028269
vt 0.796822 0.014612
vt 0.750000 0.180241
vt 0.750000 0.010000
vt 0.703178 0.014612
vt 0.723304 0.185551
vt 0.658156 0.028269
vt 0.616663 0.050447
vt 0.700673 0.200673
vt 0.580294 0.080294
vt 0.550447 0.116663
vt 0.685551 0.223304
vt 0.528269 0.158156
vt 0.514612 0.203178
vt 0.680241 0.250000
vt 0.510000 0.250000
vt 0.514612 0.296822
vt 0.685551 0.276696
vt 0.528269 0.341844
vt 0.550447 0.383337
vt 0.700673 0.299327
vt 0.580294 0.419706
vt 0.616663 0.449553
vt 0.723304 0.314449
vt 0.658156 0.471731
vt 0.703178 0.485388
vt 0.736391 0.181581
vt 0.763609 0.181581
vt 0.711244 0.191997
vt 0.691997 0.211244
vt 0.681581 0.236391
vt 0.681581 0.263609
vt 0.750000 0.319759
vt 0.750000 0.490000
vt 0.796822 0.485388
vt 0.691997 0.288756
vt 0.763610 0.318419
vt 0.711244 0.308003
vt 0.788756 0.308003
vt 0.736391 0.318419
vt 0.808003 0.288756
vt 0.818419 0.263609
vt 0.818419 0.236391
vt 0.808003 0.211244
vt 0.788756 0.191997
s 1
f 1/1/1 49/2/2 3/3/3 2/4/4
f 2/4/4 3/3/3 5/5/5 4/6/6
f 4/6/6 5/5/5 63/7/7 6/8/8
f 6/8/8 63/7/7 8/9/9 7/10/10
f 7/10/10 8/9/9 72/11/11 9/12/12
f 9/12/12 72/11/11 77/13/13 10/14/14
f 10/14/14 77/13/13 12/15/15 11/16/16
f 11/16/16 12/15/15 14/17/17 13/18/18
f 13/18/18 14/17/17 90/19/19 15/20/20
f 15/20/20 90/19/19 95/21/21 16/22/22
f 16/22/22 95/21/21 18/23/23 17/24/24
f 17/24/24 18/23/23 104/25/25 19/26/26
f 19/26/26 104/25/25 109/27/27 20/28/28
f 20/28/28 109/27/27 114/29/29 21/30/30
f 21/30/30 114/29/29 23/31/31 22/32/32
f 22/32/32 23/31/31 25/33/33 24/34/34
f 24/34/34 25/33/33 27/35/35 26/36/36
f 26/36/36 27/35/35 29/37/37 28/38/38
f 28/38/38 29/37/37 135/39/39 30/40/40
f 30/40/40 135/39/39 140/41/41 31/42/42
f 31/42/42 140/41/41 145/43/43 32/44/44
f 32/44/44 145/43/43 150/45/45 33/46/46
f 33/46/46 150/45/45 155/47/47 34/48/48
f 34/48/48 155/47/47 160/49/49 35/50/50
f 35/50/50 160/49/49 37/51/51 36/52/52
f 36/52/52 37/51/51 39/53/53 38/54/54
f 38/54/54 39/53/53 41/55/55 40/56/56
f 40/56/56 41/55/55 177/57/57 42/58/58
f 42/58/58 177/57/57 44/59/59 43/60/60
f 43/60/60 44/59/59 46/61/61 45/62/62
f 45/62/62 46/61/61 48/63/63 47/64/64
f 47/64/64 48/63/63 49/65/2 1/66/1
f 13/18/65 15/20/65 343/20/65 344/18/65
f 3/67/3 49/2/2 51/68/66 58/69/67
f 58/69/67 51/68/66 52/70/68 57/71/69
f 57/72/69 52/73/68 53/74/70 56/75/71
f 56/75/71 53/74/70 54/76/72 55/77/73
f 156/78/74 151/79/75 215/79/76 216/78/77
f 5/5/5 3/67/3 58/69/67 62/80/78
f 62/80/78 58/69/67 57/71/69 61/81/79
f 61/82/79 57/72/69 56/75/71 60/83/80
f 60/83/80 56/75/71 55/77/73 59/84/81
f 141/85/82 136/86/83 212/86/84 213/85/85
f 63/7/7 5/5/5 62/80/78 67/87/86
f 67/87/86 62/80/78 61/81/79 66/88/87
f 66/89/87 61/82/79 60/83/80 65/90/88
f 65/90/88 60/83/80 59/84/81 64/91/89
f 110/92/90 105/93/91 205/93/92 206/92/93
f 8/94/9 63/7/7 67/87/86 71/95/94
f 71/95/94 67/87/86 66/88/87 70/96/95
f 70/97/95 66/89/87 65/90/88 69/98/96
f 69/98/96 65/90/88 64/91/89 68/99/97
f 86/100/98 82/101/99 200/101/100 201/100/101
f 72/11/11 8/94/9 71/95/94 76/102/102
f 76/102/102 71/95/94 70/96/95 75/102/103
f 75/103/103 70/97/95 69/98/96 74/104/104
f 74/104/104 69/98/96 68/99/97 73/105/105
f 186/106/106 182/107/107 222/107/108 223/106/109
f 77/13/13 72/11/11 76/102/102 81/108/110
f 81/108/110 76/102/102 75/102/103 80/108/111
f 80/109/111 75/103/103 74/104/104 79/110/112
f 79/110/112 74/104/104 73/105/105 78/111/113
f 55/77/73 54/76/72 50/76/114 194/77/115
f 12/15/15 77/13/13 81/108/110 85/15/116
f 85/15/116 81/108/110 80/108/111 84/15/117
f 84/112/117 80/109/111 79/110/112 83/113/118
f 83/113/118 79/110/112 78/111/113 82/101/99
f 78/111/113 73/105/105 198/105/119 199/111/120
f 14/17/17 12/15/15 85/15/116 89/114/121
f 89/114/121 85/15/116 84/15/117 88/17/122
f 88/115/122 84/112/117 83/113/118 87/116/123
f 87/116/123 83/113/118 82/101/99 86/100/98
f 178/117/124 173/118/125 220/118/126 221/117/127
f 90/119/19 14/17/17 89/114/121 94/120/128
f 94/120/128 89/114/121 88/17/122 93/119/129
f 93/121/129 88/115/122 87/116/123 92/122/130
f 92/122/130 87/116/123 86/100/98 91/123/131
f 131/124/132 127/125/133 210/125/134 211/124/135
f 95/21/21 90/119/19 94/120/128 99/126/136
f 99/126/136 94/120/128 93/119/129 98/126/137
f 98/127/137 93/121/129 92/122/130 97/128/138
f 97/128/138 92/122/130 91/123/131 96/129/139
f 169/130/140 165/131/141 218/131/142 219/130/143
f 18/132/23 95/21/21 99/126/136 103/23/144
f 103/23/144 99/126/136 98/126/137 102/23/145
f 102/133/145 98/127/137 97/128/138 101/134/146
f 101/134/146 97/128/138 96/129/139 100/135/147
f 54/76/72 190/136/148 224/136/149 50/76/114
f 104/25/25 18/132/23 103/23/144 108/25/150
f 108/25/150 103/23/144 102/23/145 107/25/151
f 107/137/151 102/133/145 101/134/146 106/138/152
f 106/138/152 101/134/146 100/135/147 105/93/91
f 100/135/147 96/129/139 203/129/153 204/135/154
f 109/27/27 104/25/25 108/25/150 113/139/155
f 113/139/155 108/25/150 107/25/151 112/27/156
f 112/140/156 107/137/151 106/138/152 111/141/157
f 111/141/157 106/138/152 105/93/91 110/92/90
f 123/142/158 119/143/159 208/143/160 209/142/161
f 114/29/29 109/27/27 113/139/155 118/29/162
f 118/29/162 113/139/155 112/27/156 117/144/163
f 117/145/163 112/140/156 111/141/157 116/146/164
f 116/146/164 111/141/157 110/92/90 115/147/165
f 161/148/166 156/78/74 216/78/77 217/148/167
f 23/149/31 114/29/29 118/29/162 122/149/168
f 122/149/168 118/29/162 117/144/163 121/31/169
f 121/150/169 117/145/163 116/146/164 120/151/170
f 120/151/170 116/146/164 115/147/165 119/143/159
f 146/152/171 141/85/82 213/85/85 214/152/172
f 25/33/33 23/149/31 122/149/168 126/153/173
f 126/153/173 122/149/168 121/31/169 125/154/174
f 125/155/174 121/150/169 120/151/170 124/156/175
f 124/156/175 120/151/170 119/143/159 123/142/158
f 115/147/165 110/92/90 206/92/93 207/147/176
f 27/35/35 25/33/33 126/153/173 130/157/177
f 130/157/177 126/153/173 125/154/174 129/158/178
f 129/159/178 125/155/174 124/156/175 128/160/179
f 128/160/179 124/156/175 123/142/158 127/125/133
f 68/99/97 64/91/89 196/91/180 197/99/181
f 29/37/37 27/35/35 130/157/177 134/161/182
f 134/161/182 130/157/177 129/158/178 133/37/183
f 133/162/183 129/159/178 128/160/179 132/163/184
f 132/163/184 128/160/179 127/125/133 131/124/132
f 91/123/131 86/100/98 201/100/101 202/123/185
f 135/164/39 29/37/37 134/161/182 139/39/186
f 139/39/186 134/161/182 133/37/183 138/165/187
f 138/166/187 133/162/183 132/163/184 137/167/188
f 137/167/188 132/163/184 131/124/132 136/86/83
f 59/84/81 55/77/73 194/77/115 195/84/189
f 140/41/41 135/164/39 139/39/186 144/168/190
f 144/168/190 139/39/186 138/165/187 143/41/191
f 143/169/191 138/166/187 137/167/188 142/170/192
f 142/170/192 137/167/188 136/86/83 141/85/82
f 190/136/148 186/106/106 223/106/109 224/136/149
f 145/43/43 140/41/41 144/168/190 149/171/193
f 149/171/193 144/168/190 143/41/191 148/43/194
f 148/172/194 143/169/191 142/170/192 147/173/195
f 147/173/195 142/170/192 141/85/82 146/152/171
f 82/101/99 78/111/113 199/111/120 200/101/100
f 150/45/45 145/43/43 149/171/193 154/174/196
f 154/174/196 149/171/193 148/43/194 153/175/197
f 153/176/197 148/172/194 147/173/195 152/177/198
f 152/177/198 147/173/195 146/152/171 151/79/75
f 182/107/107 178/117/124 221/117/127 222/107/108
f 155/47/47 150/45/45 154/174/196 159/178/199
f 159/178/199 154/174/196 153/175/197 158/47/200
f 158/179/200 153/176/197 152/177/198 157/180/201
f 157/180/201 152/177/198 151/79/75 156/78/74
f 151/79/75 146/152/171 214/152/172 215/79/76
f 160/49/49 155/47/47 159/178/199 164/49/202
f 164/49/202 159/178/199 158/47/200 163/49/203
f 163/181/203 158/179/200 157/180/201 162/182/204
f 162/182/204 157/180/201 156/78/74 161/148/166
f 136/86/83 131/124/132 211/124/135 212/86/84
f 37/183/51 160/49/49 164/49/202 168/184/205
f 168/184/205 164/49/202 163/49/203 167/185/206
f 167/186/206 163/181/203 162/182/204 166/187/207
f 166/187/207 162/182/204 161/148/166 165/131/141
f 105/93/91 100/135/147 204/135/154 205/93/92
f 39/188/53 37/183/51 168/184/205 172/189/208
f 172/189/208 168/184/205 167/185/206 171/188/209
f 171/190/209 167/186/206 166/187/207 170/191/210
f 170/191/210 166/187/207 165/131/141 169/130/140
f 173/118/125 169/130/140 219/130/143 220/118/126
f 41/55/55 39/188/53 172/189/208 176/192/211
f 176/192/211 172/189/208 171/188/209 175/193/212
f 175/194/212 171/190/209 170/191/210 174/195/213
f 174/195/213 170/191/210 169/130/140 173/118/125
f 127/125/133 123/142/158 209/142/161 210/125/134
f 177/57/57 41/55/55 176/192/211 181/196/214
f 181/196/214 176/192/211 175/193/212 180/197/215
f 180/198/215 175/194/212 174/195/213 179/199/216
f 179/199/216 174/195/213 173/118/125 178/117/124
f 165/131/141 161/148/166 217/148/167 218/131/142
f 44/59/59 177/57/57 181/196/214 185/200/217
f 185/200/217 181/196/214 180/197/215 184/201/218
f 184/202/218 180/198/215 179/199/216 183/203/219
f 183/203/219 179/199/216 178/117/124 182/107/107
f 73/105/105 68/99/97 197/99/181 198/105/119
f 46/61/61 44/59/59 185/200/217 189/204/220
f 189/204/220 185/200/217 184/201/218 188/205/221
f 188/206/221 184/202/218 183/203/219 187/207/222
f 187/207/222 183/203/219 182/107/107 186/106/106
f 96/129/139 91/123/131 202/123/185 203/129/153
f 48/63/63 46/61/61 189/204/220 193/208/223
f 193/208/223 189/204/220 188/205/221 192/209/224
f 192/210/224 188/206/221 187/207/222 191/211/225
f 191/211/225 187/207/222 186/106/106 190/136/148
f 119/143/159 115/147/165 207/147/176 208/143/160
f 49/65/2 48/63/63 193/208/223 51/212/66
f 51/212/66 193/208/223 192/209/224 52/213/68
f 52/73/68 192/210/224 191/211/225 53/74/70
f 53/74/70 191/211/225 190/136/148 54/76/72
f 64/91/89 59/84/81 195/84/189 196/91/180
f 224/136/64 223/106/62 255/106/62 256/136/64
f 206/92/28 205/93/26 237/93/26 238/92/28
f 196/91/8 195/84/6 227/84/6 228/91/8
f 205/93/26 204/135/24 236/135/24 237/93/26
f 214/152/44 213/85/42 245/85/42 246/152/44
f 223/106/62 222/107/60 254/107/60 255/106/62
f 204/135/24 203/129/22 235/129/22 236/135/24
f 213/85/42 212/86/40 244/86/40 245/85/42
f 195/84/6 194/77/4 226/77/4 227/84/6
f 222/107/60 221/117/58 253/117/58 254/107/60
f 203/129/22 202/123/20 234/123/20 235/129/22
f 212/86/40 211/124/38 243/124/38 244/86/40
f 202/123/20 201/100/18 233/100/18 234/123/20
f 211/124/38 210/125/36 242/125/36 243/124/38
f 194/77/4 50/76/1 225/76/1 226/77/4
f 221/117/58 220/118/56 252/118/56 253/117/58
f 201/100/18 200/101/16 232/101/16 233/100/18
f 220/118/56 219/130/54 251/130/54 252/118/56
f 210/125/36 209/142/34 241/142/34 242/125/36
f 219/130/54 218/131/52 250/131/52 251/130/54
f 200/101/16 199/111/14 231/111/14 232/101/16
f 209/142/34 208/143/32 240/143/32 241/142/34
f 218/131/52 217/148/50 249/148/50 250/131/52
f 199/111/14 198/105/12 230/105/12 231/111/14
f 208/143/32 207/147/30 239/147/30 240/143/32
f 217/148/50 216/78/48 248/78/48 249/148/50
f 198/105/12 197/99/10 229/99/10 230/105/12
f 50/76/1 224/136/64 256/136/64 225/76/1
f 216/78/48 215/79/46 247/79/46 248/78/48
f 197/99/10 196/91/8 228/91/8 229/99/10
f 207/147/30 206/92/28 238/92/28 239/147/30
f 215/79/46 214/152/44 246/152/44 247/79/46
f 241/142/226 240/143/227 272/143/227 273/142/226
f 254/107/228 253/117/229 285/117/229 286/107/228
f 227/84/230 226/77/231 258/77/231 259/84/230
f 240/143/227 239/147/232 271/147/232 272/143/227
f 253/117/229 252/118/233 284/118/233 285/117/229
f 226/77/231 225/76/234 257/76/234 258/77/231
f 239/147/232 238/92/235 270/92/235 271/147/232
f 252/118/233 251/130/236 283/130/236 284/118/233
f 238/92/235 237/93/237 269/93/237 270/92/235
f 251/130/236 250/131/238 282/131/238 283/130/236
f 237/93/237 236/135/239 268/135/239 269/93/237
f 250/131/238 249/148/240 281/148/240 282/131/238
f 236/135/239 235/129/241 267/129/241 268/135/239
f 249/148/240 248/78/242 280/78/242 281/148/240
f 235/129/241 234/123/243 266/123/243 267/129/241
f 248/78/242 247/79/244 279/79/244 280/78/242
f 234/123/243 233/100/245 265/100/245 266/123/243
f 247/79/244 246/152/246 278/152/246 279/79/244
f 233/100/245 232/101/247 264/101/247 265/100/245
f 246/152/246 245/85/248 277/85/248 278/152/246
f 232/101/247 231/111/249 263/111/249 264/101/247
f 245/85/248 244/86/250 276/86/250 277/85/248
f 231/111/249 230/105/251 262/105/251 263/111/249
f 244/86/250 243/124/252 275/124/252 276/86/250
f 225/76/234 256/136/253 288/136/253 257/76/234
f 230/105/251 229/99/254 261/99/254 262/105/251
f 243/124/252 242/125/255 274/125/255 275/124/252
f 256/136/253 255/106/256 287/106/256 288/136/253
f 229/99/254 228/91/257 260/91/257 261/99/254
f 242/125/255 241/142/226 273/142/226 274/125/255
f 255/106/256 254/107/228 286/107/228 287/106/256
f 228/91/257 227/84/230 259/84/230 260/91/257
f 270/92/258 269/93/258 301/93/258 302/92/258
f 283/130/258 282/131/258 314/131/258 315/130/258
f 269/93/258 268/135/258 300/135/258 301/93/258
f 282/131/258 281/148/258 313/148/258 314/131/258
f 268/135/258 267/129/258 299/129/258 300/135/258
f 281/148/258 280/78/258 312/78/258 313/148/258
f 267/129/258 266/123/258 298/123/258 299/129/258
f 280/78/258 279/79/258 311/79/258 312/78/258
f 266/123/258 265/100/258 297/100/258 298/123/258
f 279/79/258 278/152/258 310/152/258 311/79/258
f 265/100/258 264/101/258 296/101/258 297/100/258
f 278/152/258 277/85/258 309/85/258 310/152/258
f 264/101/258 263/111/258 295/111/258 296/101/258
f 277/85/258 276/86/258 308/86/258 309/85/258
f 263/111/258 262/105/258 294/105/258 295/111/258
f 276/86/258 275/124/258 307/124/258 308/86/258
f 257/76/258 288/136/258 320/136/258 289/76/258
f 262/105/258 261/99/258 293/99/258 294/105/258
f 275/124/258 274/125/258 306/125/258 307/124/258
f 288/136/258 287/106/258 319/106/258 320/136/258
f 261/99/258 260/91/258 292/91/258 293/99/258
f 274/125/258 273/142/258 305/142/258 306/125/258
f 287/106/258 286/107/258 318/107/258 319/106/258
f 260/91/258 259/84/258 291/84/258 292/91/258
f 273/142/258 272/143/258 304/143/258 305/142/258
f 286/107/258 285/117/258 317/117/258 318/107/258
f 259/84/258 258/77/258 290/77/258 291/84/258
f 272/143/258 271/147/258 303/147/258 304/143/258
f 285/117/258 284/118/258 316/118/258 317/117/258
f 258/77/258 257/76/258 289/76/258 290/77/258
f 271/147/258 270/92/258 302/92/258 303/147/258
f 284/118/258 283/130/258 315/130/258 316/118/258
f 17/24/65 19/26/65 340/26/65 341/24/65
f 4/6/65 6/8/65 349/8/65 350/6/65
f 38/54/65 40/56/65 325/56/65 326/54/65
f 16/22/65 17/24/65 341/24/65 342/22/65
f 26/36/65 28/38/65 334/38/65 335/36/65
f 15/20/65 16/22/65 342/22/65 343/20/65
f 47/64/65 1/66/65 352/66/65 321/64/65
f 2/4/65 4/6/65 350/6/65 351/4/65
f 332/42/42 331/44/44 438/44/44 437/42/42
f 36/52/65 38/54/65 326/54/65 327/52/65
f 24/34/65 26/36/65 335/36/65 336/34/65
f 1/1/65 2/4/65 351/4/65 352/1/65
f 45/62/65 47/64/65 321/64/65 322/62/65
f 35/50/65 36/52/65 327/52/65 328/50/65
f 11/16/65 13/18/65 344/18/65 345/16/65
f 34/48/65 35/50/65 328/50/65 329/48/65
f 22/32/65 24/34/65 336/34/65 337/32/65
f 33/46/65 34/48/65 329/48/65 330/46/65
f 10/14/65 11/16/65 345/16/65 346/14/65
f 43/60/65 45/62/65 322/62/65 323/60/65
f 32/44/65 33/46/65 330/46/65 331/44/65
f 9/12/65 10/14/65 346/14/65 347/12/65
f 21/30/65 22/32/65 337/32/65 338/30/65
f 31/42/65 32/44/65 331/44/65 332/42/65
f 7/10/65 9/12/65 347/12/65 348/10/65
f 42/58/65 43/60/65 323/60/65 324/58/65
f 20/28/65 21/30/65 338/30/65 339/28/65
f 30/40/65 31/42/65 332/42/65 333/40/65
f 40/56/65 42/58/65 324/58/65 325/56/65
f 19/26/65 20/28/65 339/28/65 340/26/65
f 28/38/65 30/40/65 333/40/65 334/38/65
f 6/8/65 7/10/65 348/10/65 349/8/65
f 387/214/259 388/215/260 353/76/260 385/136/259
f 389/216/261 387/214/259 385/136/259 383/106/261
f 390/217/262 389/216/261 383/106/261 382/218/262
f 391/219/263 390/217/262 382/218/262 381/220/263
f 392/221/264 391/219/263 381/220/263 380/222/264
f 393/223/265 392/221/264 380/222/264 379/224/265
f 394/225/266 393/223/265 379/224/265 378/131/266
f 395/226/267 394/225/266 378/131/266 377/148/267
f 396/227/268 395/226/267 377/148/267 376/228/268
f 397/229/269 396/227/268 376/228/268 375/230/269
f 398/231/270 397/229/269 375/230/269 374/232/270
f 399/233/271 398/231/270 374/232/270 373/234/271
f 400/235/272 399/233/271 373/234/271 372/236/272
f 401/237/273 400/235/272 372/236/272 371/124/273
f 402/238/274 401/237/273 371/124/273 370/125/274
f 403/239/275 402/238/274 370/125/274 369/240/275
f 404/241/276 403/239/275 369/240/275 368/242/276
f 405/243/277 404/241/276 368/242/276 367/244/277
f 406/245/278 405/243/277 367/244/277 366/246/278
f 407/247/279 406/245/278 366/246/278 365/93/279
f 408/248/280 407/247/279 365/93/279 364/135/280
f 409/249/281 408/248/280 364/135/280 363/250/281
f 410/251/282 409/249/281 363/250/281 362/252/282
f 411/253/283 410/251/282 362/252/282 361/254/283
f 412/255/284 411/253/283 361/254/283 360/256/284
f 413/257/285 412/255/284 360/256/284 359/258/285
f 414/259/286 413/257/285 359/258/285 358/260/286
f 415/261/287 414/259/286 358/260/286 357/262/287
f 416/263/288 415/261/287 357/262/287 356/264/288
f 417/265/289 416/263/288 356/264/288 355/84/289
f 418/266/290 417/265/289 355/84/289 354/77/290
f 388/215/260 418/266/290 354/77/290 353/76/260
f 290/77/4 289/76/1 353/76/1 354/77/4
f 289/76/1 320/136/64 385/136/64 353/76/1
f 291/84/6 290/77/4 354/77/4 355/84/6
f 292/91/8 291/84/6 355/84/6 356/264/8
f 293/99/10 292/91/8 356/264/8 357/262/10
f 294/105/12 293/99/10 357/262/10 358/260/12
f 295/111/14 294/105/12 358/260/12 359/258/14
f 296/101/16 295/111/14 359/258/14 360/256/16
f 297/100/18 296/101/16 360/256/16 361/254/18
f 298/123/20 297/100/18 361/254/18 362/252/20
f 299/129/22 298/123/20 362/252/20 363/250/22
f 300/135/24 299/129/22 363/250/22 364/135/24
f 301/93/26 300/135/24 364/135/24 365/93/26
f 302/92/28 301/93/26 365/93/26 366/246/28
f 303/147/30 302/92/28 366/246/28 367/244/30
f 304/143/32 303/147/30 367/244/30 368/242/32
f 305/142/34 304/143/32 368/242/32 369/240/34
f 306/125/36 305/142/34 369/240/34 370/125/36
f 307/124/38 306/125/36 370/125/36 371/124/38
f 308/86/40 307/124/38 371/124/38 372/236/40
f 309/85/42 308/86/40 372/236/40 373/234/42
f 310/152/44 309/85/42 373/234/42 374/232/44
f 311/79/46 310/152/44 374/232/44 375/230/46
f 312/78/48 311/79/46 375/230/46 376/228/48
f 313/148/50 312/78/48 376/228/48 377/148/50
f 314/131/52 313/148/50 377/148/50 378/131/52
f 315/130/54 314/131/52 378/131/52 379/224/54
f 316/118/56 315/130/54 379/224/54 380/222/56
f 317/117/58 316/118/56 380/222/56 381/220/58
f 318/107/60 317/117/58 381/220/58 382/218/60
f 319/106/62 318/107/60 382/218/60 383/106/62
f 320/136/64 319/106/62 383/106/62 385/136/64
f 333/40/40 332/42/42 437/42/42 436/40/40
f 349/8/8 348/10/10 421/10/10 420/8/8
f 330/46/46 329/48/48 440/48/48 439/46/46
f 328/50/50 327/52/52 442/52/52 441/50/50
f 331/44/44 330/46/46 439/46/46 438/44/44
f 321/64/64 352/66/1 449/66/1 448/64/64
f 326/54/54 325/56/56 444/56/56 443/54/54
f 347/12/12 346/14/14 423/14/14 422/12/12
f 324/58/58 323/60/60 446/60/60 445/58/58
f 329/48/48 328/50/50 441/50/50 440/48/48
f 350/6/6 349/8/8 420/8/8 419/6/6
f 322/62/62 321/64/64 448/64/64 447/62/62
f 348/10/10 347/12/12 422/12/12 421/10/10
f 327/52/52 326/54/54 443/54/54 442/52/52
f 346/14/14 345/16/16 424/16/16 423/14/14
f 345/16/16 344/18/18 425/18/18 424/16/16
f 352/1/1 351/4/4 450/4/4 449/1/1
f 344/18/18 343/20/20 426/20/20 425/18/18
f 342/22/22 341/24/24 428/24/24 427/22/22
f 343/20/20 342/22/22 427/22/22 426/20/20
f 340/26/26 339/28/28 430/28/28 429/26/26
f 325/56/56 324/58/58 445/58/58 444/56/56
f 338/30/30 337/32/32 432/32/32 431/30/30
f 335/36/36 334/38/38 435/38/38 434/36/36
f 341/24/24 340/26/26 429/26/26 428/24/24
f 351/4/4 350/6/6 419/6/6 450/4/4
f 336/34/34 335/36/36 434/36/36 433/34/34
f 337/32/32 336/34/34 433/34/34 432/32/32
f 334/38/38 333/40/40 436/40/40 435/38/38
f 339/28/28 338/30/30 431/30/30 430/28/28
f 323/60/60 322/62/62 447/62/62 446/60/60
f 384/267/258 388/215/258 387/214/258
f 384/268/258 387/214/258 389/216/258
f 384/269/258 389/216/258 390/217/258
f 384/270/258 390/217/258 391/219/258
f 384/271/258 391/219/258 392/221/258
f 384/272/258 392/221/258 393/223/258
f 384/273/258 393/223/258 394/225/258
f 384/274/258 394/225/258 395/226/258
f 384/275/258 395/226/258 396/227/258
f 384/276/258 396/227/258 397/229/258
f 384/277/258 397/229/258 398/231/258
f 384/278/258 398/231/258 399/233/258
f 384/279/258 399/233/258 400/235/258
f 384/280/258 400/235/258 401/237/258
f 384/281/258 401/237/258 402/238/258
f 384/282/258 402/238/258 403/239/258
f 384/283/258 403/239/258 404/241/258
f 384/284/258 404/241/258 405/243/258
f 384/285/258 405/243/258 406/245/258
f 384/286/258 406/245/258 407/247/258
f 384/287/258 407/247/258 408/248/258
f 384/288/258 408/248/258 409/249/258
f 384/289/258 409/249/258 410/251/258
f 384/290/258 410/251/258 411/253/258
f 384/291/258 411/253/258 412/255/258
f 384/292/258 412/255/258 413/257/258
f 384/293/258 413/257/258 414/259/258
f 384/294/258 414/259/258 415/261/258
f 384/295/258 415/261/258 416/263/258
f 384/296/258 416/263/258 417/265/258
f 384/297/258 417/265/258 418/266/258
f 384/298/258 418/266/258 388/215/258
f 386/299/65 419/300/65 420/301/65
f 386/302/65 421/303/65 422/304/65
f 386/305/65 423/306/65 424/307/65
f 386/308/65 425/309/65 426/310/65
f 386/311/65 427/312/65 428/313/65
f 386/314/65 429/315/65 430/316/65
f 386/317/65 431/318/65 432/319/65
f 386/320/65 433/321/65 434/322/65
f 386/323/65 435/324/65 436/325/65
f 386/326/65 437/327/65 438/328/65
f 386/329/65 439/330/65 440/331/65
f 386/332/65 441/333/65 442/334/65
f 386/335/65 443/336/65 444/337/65
f 386/338/65 445/339/65 446/340/65
f 386/341/65 447/342/65 448/343/65
f 386/344/65 434/322/65 435/324/65
f 386/345/65 432/319/65 433/321/65
f 386/346/65 436/325/65 437/327/65
f 386/347/65 438/328/65 439/330/65
f 386/348/65 440/331/65 441/333/65
f 386/349/65 442/334/65 443/336/65
f 386/350/65 449/351/65 450/352/65
f 386/353/65 444/337/65 445/339/65
f 386/354/65 450/352/65 419/300/65
f 386/355/65 446/340/65 447/342/65
f 386/356/65 420/301/65 421/303/65
f 386/357/65 448/343/65 449/351/65
f 386/358/65 422/304/65 423/306/65
f 386/359/65 424/307/65 425/309/65
f 386/360/65 426/310/65 427/312/65
f 386/361/65 428/313/65 429/315/65
f 386/362/65 430/316/65 431/318/65
