# Blender 4.5.1 LTS
# www.blender.org
o HESH
v -0.000000 0.040000 -0.036998
v 0.000000 0.410000 -0.100000
v 0.007218 0.040000 -0.036287
v 0.019509 0.410000 -0.098079
v 0.014159 0.040000 -0.034182
v 0.038268 0.410000 -0.092388
v 0.020555 0.040000 -0.030763
v 0.055557 0.410000 -0.083147
v 0.026162 0.040000 -0.026162
v 0.070711 0.410000 -0.070711
v 0.030763 0.040000 -0.020555
v 0.083147 0.410000 -0.055557
v 0.034182 0.040000 -0.014159
v 0.092388 0.410000 -0.038268
v 0.036287 0.040000 -0.007218
v 0.098079 0.410000 -0.019509
v 0.036998 0.040000 -0.000000
v 0.100000 0.410000 0.000000
v 0.036287 0.040000 0.007218
v 0.098079 0.410000 0.019509
v 0.034182 0.040000 0.014159
v 0.092388 0.410000 0.038268
v 0.030763 0.040000 0.020555
v 0.083147 0.410000 0.055557
v 0.026162 0.040000 0.026162
v 0.070711 0.410000 0.070711
v 0.020555 0.040000 0.030763
v 0.055557 0.410000 0.083147
v 0.014159 0.040000 0.034182
v 0.038268 0.410000 0.092388
v 0.007218 0.040000 0.036287
v 0.019509 0.410000 0.098079
v -0.000000 0.040000 0.036998
v 0.000000 0.410000 0.100000
v -0.007218 0.040000 0.036287
v -0.019509 0.410000 0.098079
v -0.014159 0.040000 0.034182
v -0.038268 0.410000 0.092388
v -0.020555 0.040000 0.030763
v -0.055557 0.410000 0.083147
v -0.026162 0.040000 0.026162
v -0.070711 0.410000 0.070711
v -0.030763 0.040000 0.020555
v -0.083147 0.410000 0.055557
v -0.034182 0.040000 0.014159
v -0.092388 0.410000 0.038268
v -0.036287 0.040000 0.007218
v -0.098079 0.410000 0.019509
v -0.036998 0.040000 -0.000000
v -0.100000 0.410000 0.000000
v -0.036287 0.040000 -0.007218
v -0.098079 0.410000 -0.019509
v -0.034182 0.040000 -0.014159
v -0.092388 0.410000 -0.038268
v -0.030763 0.040000 -0.020555
v -0.083147 0.410000 -0.055557
v -0.026162 0.040000 -0.026162
v -0.070711 0.410000 -0.070711
v -0.020555 0.040000 -0.030763
v -0.055557 0.410000 -0.083147
v -0.014159 0.040000 -0.034182
v -0.038268 0.410000 -0.092388
v -0.007218 0.040000 -0.036287
v -0.019509 0.410000 -0.098079
v 0.000723 0.610000 0.000144
v 0.087779 0.450000 0.017460
v 0.075939 0.490000 0.015105
v 0.061828 0.530000 0.012298
v 0.043675 0.570000 0.008688
v 0.041141 0.570000 0.017041
v 0.058241 0.530000 0.024124
v 0.071533 0.490000 0.029630
v 0.082686 0.450000 0.034249
v -0.034249 0.450000 0.082686
v -0.029630 0.490000 0.071533
v -0.024124 0.530000 0.058240
v -0.017041 0.570000 0.041141
v -0.024740 0.570000 0.037026
v -0.035023 0.530000 0.052415
v -0.043016 0.490000 0.064378
v -0.049723 0.450000 0.074415
v -0.074415 0.450000 -0.049723
v -0.064378 0.490000 -0.043016
v -0.052415 0.530000 -0.035023
v -0.037026 0.570000 -0.024740
v -0.031488 0.570000 -0.031488
v -0.044575 0.530000 -0.044575
v -0.054749 0.490000 -0.054749
v -0.063285 0.450000 -0.063285
v 0.074415 0.450000 -0.049723
v 0.064378 0.490000 -0.043016
v 0.052415 0.530000 -0.035023
v 0.037026 0.570000 -0.024740
v 0.041141 0.570000 -0.017041
v 0.058241 0.530000 -0.024124
v 0.071533 0.490000 -0.029630
v 0.082686 0.450000 -0.034249
v 0.034249 0.450000 0.082686
v 0.029630 0.490000 0.071533
v 0.024124 0.530000 0.058240
v 0.017041 0.570000 0.041141
v 0.008687 0.570000 0.043675
v 0.012298 0.530000 0.061828
v 0.015105 0.490000 0.075938
v 0.017460 0.450000 0.087779
v -0.087779 0.450000 0.017460
v -0.075938 0.490000 0.015105
v -0.061828 0.530000 0.012298
v -0.043675 0.570000 0.008688
v -0.044531 0.570000 0.000000
v -0.063039 0.530000 0.000000
v -0.077426 0.490000 0.000000
v -0.089498 0.450000 0.000000
v 0.017460 0.450000 -0.087779
v 0.015105 0.490000 -0.075938
v 0.012298 0.530000 -0.061828
v 0.008687 0.570000 -0.043675
v 0.017041 0.570000 -0.041141
v 0.024124 0.530000 -0.058240
v 0.029630 0.490000 -0.071532
v 0.034249 0.450000 -0.082686
v 0.037026 0.570000 0.024740
v 0.052415 0.530000 0.035023
v 0.064378 0.490000 0.043016
v 0.074415 0.450000 0.049723
v -0.031488 0.570000 0.031488
v -0.044575 0.530000 0.044575
v -0.054749 0.490000 0.054749
v -0.063285 0.450000 0.063285
v -0.024740 0.570000 -0.037026
v -0.035023 0.530000 -0.052415
v -0.043016 0.490000 -0.064378
v -0.049723 0.450000 -0.074415
v 0.043675 0.570000 -0.008688
v 0.061828 0.530000 -0.012298
v 0.075939 0.490000 -0.015105
v 0.087779 0.450000 -0.017460
v -0.000000 0.570000 0.044531
v 0.000000 0.530000 0.063039
v 0.000000 0.490000 0.077426
v -0.000000 0.450000 0.089498
v -0.043675 0.570000 -0.008688
v -0.061828 0.530000 -0.012298
v -0.075938 0.490000 -0.015105
v -0.087779 0.450000 -0.017460
v 0.024740 0.570000 -0.037026
v 0.035023 0.530000 -0.052415
v 0.043016 0.490000 -0.064378
v 0.049723 0.450000 -0.074415
v 0.031488 0.570000 0.031488
v 0.044575 0.530000 0.044575
v 0.054749 0.490000 0.054749
v 0.063285 0.450000 0.063285
v -0.037026 0.570000 0.024740
v -0.052415 0.530000 0.035023
v -0.064378 0.490000 0.043016
v -0.074415 0.450000 0.049723
v -0.017041 0.570000 -0.041141
v -0.024124 0.530000 -0.058240
v -0.029630 0.490000 -0.071532
v -0.034249 0.450000 -0.082686
v 0.044531 0.570000 0.000000
v 0.063039 0.530000 0.000000
v 0.077426 0.490000 0.000000
v 0.089498 0.450000 0.000000
v -0.008688 0.570000 0.043675
v -0.012298 0.530000 0.061828
v -0.015105 0.490000 0.075938
v -0.017460 0.450000 0.087779
v -0.041141 0.570000 -0.017041
v -0.058240 0.530000 -0.024124
v -0.071532 0.490000 -0.029630
v -0.082686 0.450000 -0.034249
v 0.031488 0.570000 -0.031488
v 0.044575 0.530000 -0.044575
v 0.054749 0.490000 -0.054749
v 0.063285 0.450000 -0.063285
v 0.024740 0.570000 0.037026
v 0.035023 0.530000 0.052415
v 0.043016 0.490000 0.064378
v 0.049723 0.450000 0.074415
v -0.041141 0.570000 0.017041
v -0.058240 0.530000 0.024124
v -0.071532 0.490000 0.029630
v -0.082686 0.450000 0.034249
v -0.008688 0.570000 -0.043675
v -0.012298 0.530000 -0.061828
v -0.015105 0.490000 -0.075938
v -0.017460 0.450000 -0.087779
v -0.000000 0.450000 -0.089498
v 0.000000 0.490000 -0.077426
v 0.000000 0.530000 -0.063039
v -0.000000 0.570000 -0.044531
v 0.034907 0.583333 0.006943
v 0.024918 0.596667 0.004957
v -0.013620 0.583333 0.032882
v -0.009722 0.596667 0.023472
v -0.029593 0.583333 -0.019773
v -0.021124 0.596667 -0.014115
v 0.029593 0.583333 -0.019773
v 0.021125 0.596667 -0.014115
v 0.013620 0.583333 0.032882
v 0.009723 0.596667 0.023472
v -0.034907 0.583333 0.006943
v -0.024918 0.596667 0.004957
v 0.006943 0.583333 -0.034907
v 0.004957 0.596667 -0.024918
v -0.000000 0.583333 -0.035591
v 0.000000 0.596667 -0.025406
v 0.023472 0.596667 0.009723
v 0.032882 0.583333 0.013620
v -0.014115 0.596667 0.021124
v -0.019773 0.583333 0.029593
v -0.017965 0.596667 -0.017965
v -0.025167 0.583333 -0.025167
v 0.023472 0.596667 -0.009723
v 0.032882 0.583333 -0.013620
v 0.004957 0.596667 0.024918
v 0.006943 0.583333 0.034907
v -0.025406 0.596667 0.000000
v -0.035591 0.583333 0.000000
v 0.009723 0.596667 -0.023472
v 0.013620 0.583333 -0.032882
v 0.021125 0.596667 0.014115
v 0.029593 0.583333 0.019773
v -0.017965 0.596667 0.017965
v -0.025167 0.583333 0.025167
v -0.014115 0.596667 -0.021124
v -0.019773 0.583333 -0.029593
v 0.024918 0.596667 -0.004957
v 0.034907 0.583333 -0.006943
v 0.000000 0.596667 0.025406
v -0.000000 0.583333 0.035591
v -0.024918 0.596667 -0.004957
v -0.034907 0.583333 -0.006943
v 0.014115 0.596667 -0.021124
v 0.019773 0.583333 -0.029593
v 0.017965 0.596667 0.017965
v 0.025167 0.583333 0.025167
v -0.021124 0.596667 0.014115
v -0.029593 0.583333 0.019773
v -0.009722 0.596667 -0.023472
v -0.013620 0.583333 -0.032882
v 0.025406 0.596667 0.000000
v 0.035591 0.583333 0.000000
v -0.004956 0.596667 0.024918
v -0.006943 0.583333 0.034907
v -0.023472 0.596667 -0.009723
v -0.032882 0.583333 -0.013620
v 0.017965 0.596667 -0.017965
v 0.025167 0.583333 -0.025167
v 0.014115 0.596667 0.021124
v 0.019773 0.583333 0.029593
v -0.023472 0.596667 0.009723
v -0.032882 0.583333 0.013620
v -0.004956 0.596667 -0.024918
v -0.006943 0.583333 -0.034907
v 0.017684 0.603333 0.003517
v -0.006900 0.603333 0.016658
v -0.014991 0.603333 -0.010017
v 0.014992 0.603333 -0.010017
v 0.006900 0.603333 0.016658
v -0.017684 0.603333 0.003517
v 0.003518 0.603333 -0.017684
v 0.000000 0.603333 -0.018030
v 0.016658 0.603334 0.006900
v -0.010017 0.603334 0.014991
v -0.012749 0.603334 -0.012749
v 0.016658 0.603334 -0.006900
v 0.003518 0.603334 0.017684
v -0.018030 0.603334 0.000000
v 0.006900 0.603334 -0.016658
v 0.014992 0.603334 0.010017
v -0.012749 0.603334 0.012749
v -0.010017 0.603334 -0.014991
v 0.017684 0.603334 -0.003517
v 0.000000 0.603334 0.018030
v -0.017684 0.603334 -0.003517
v 0.010017 0.603334 -0.014991
v 0.012749 0.603334 0.012749
v -0.014991 0.603334 0.010017
v -0.006900 0.603334 -0.016658
v 0.018030 0.603334 0.000000
v -0.003517 0.603334 0.017684
v -0.016658 0.603334 -0.006900
v 0.012749 0.603334 -0.012749
v 0.010017 0.603334 0.014991
v -0.016658 0.603334 0.006900
v -0.003517 0.603334 -0.017684
v 0.000000 0.040000 -0.100000
v 0.019509 0.040000 -0.098079
v 0.038268 0.040000 -0.092388
v 0.055557 0.040000 -0.083147
v 0.070711 0.040000 -0.070711
v 0.083147 0.040000 -0.055557
v 0.092388 0.040000 -0.038268
v 0.098079 0.040000 -0.019509
v 0.100000 0.040000 0.000000
v 0.098079 0.040000 0.019509
v 0.092388 0.040000 0.038268
v 0.083147 0.040000 0.055557
v 0.070711 0.040000 0.070711
v 0.055557 0.040000 0.083147
v 0.038268 0.040000 0.092388
v 0.019509 0.040000 0.098079
v 0.000000 0.040000 0.100000
v -0.019509 0.040000 0.098079
v -0.038268 0.040000 0.092388
v -0.055557 0.040000 0.083147
v -0.070711 0.040000 0.070711
v -0.083147 0.040000 0.055557
v -0.092388 0.040000 0.038268
v -0.098079 0.040000 0.019509
v -0.100000 0.040000 0.000000
v -0.098079 0.040000 -0.019509
v -0.092388 0.040000 -0.038268
v -0.083147 0.040000 -0.055557
v -0.070711 0.040000 -0.070711
v -0.055557 0.040000 -0.083147
v -0.038268 0.040000 -0.092388
v -0.019509 0.040000 -0.098079
v -0.000000 0.000000 0.000000
v -0.000282 0.610000 0.000681
v -0.000613 0.610000 -0.000409
v 0.000613 0.610000 -0.000409
v 0.000282 0.610000 0.000681
v -0.000723 0.610000 0.000144
v 0.000144 0.610000 -0.000723
v 0.000000 0.610000 -0.000737
v 0.000681 0.610000 0.000282
v -0.000409 0.610000 0.000613
v -0.000521 0.610000 -0.000521
v 0.000681 0.610000 -0.000282
v 0.000144 0.610000 0.000723
v -0.000737 0.610000 0.000000
v 0.000282 0.610000 -0.000681
v 0.000613 0.610000 0.000409
v -0.000521 0.610000 0.000521
v -0.000409 0.610000 -0.000613
v 0.000723 0.610000 -0.000144
v 0.000000 0.610000 0.000737
v -0.000723 0.610000 -0.000144
v 0.000409 0.610000 -0.000613
v 0.000521 0.610000 0.000521
v -0.000613 0.610000 0.000409
v -0.000282 0.610000 -0.000681
v 0.000737 0.610000 0.000000
v -0.000144 0.610000 0.000723
v -0.000681 0.610000 -0.000282
v 0.000521 0.610000 -0.000521
v 0.000409 0.610000 0.000613
v -0.000681 0.610000 0.000282
v -0.000144 0.610000 -0.000723
v 0.012785 0.606667 0.000000
v 0.012540 0.606667 0.002494
v 0.011812 0.606667 -0.004893
v 0.012540 0.606667 -0.002494
v -0.004893 0.606667 -0.011812
v -0.002494 0.606667 -0.012540
v -0.009041 0.606667 -0.009041
v -0.007103 0.606667 -0.010631
v -0.010631 0.606667 0.007103
v -0.011812 0.606667 0.004893
v -0.007103 0.606667 0.010631
v -0.009041 0.606667 0.009041
v 0.009041 0.606667 0.009041
v 0.007103 0.606667 0.010631
v 0.011812 0.606667 0.004893
v 0.010631 0.606667 0.007103
v 0.007103 0.606667 -0.010631
v 0.009041 0.606667 -0.009041
v 0.002494 0.606667 -0.012540
v 0.004893 0.606667 -0.011812
v -0.012540 0.606667 -0.002494
v -0.011812 0.606667 -0.004893
v -0.012540 0.606667 0.002494
v -0.012785 0.606667 0.000000
v 0.000000 0.606667 0.012785
v -0.002494 0.606667 0.012540
v 0.000000 0.606667 -0.012785
v 0.004893 0.606667 0.011812
v 0.002494 0.606667 0.012540
v 0.010631 0.606667 -0.007103
v -0.010631 0.606667 -0.007103
v -0.004893 0.606667 0.011812
v 0.007521 0.608701 0.000000
v 0.006948 0.608701 -0.002878
v -0.002878 0.608701 -0.006948
v -0.005318 0.608701 -0.005318
v -0.006253 0.608701 0.004178
v -0.004178 0.608701 0.006253
v 0.005318 0.608701 0.005318
v 0.006948 0.608701 0.002878
v 0.004178 0.608701 -0.006253
v 0.001467 0.608701 -0.007376
v -0.007376 0.608701 -0.001467
v -0.007376 0.608701 0.001467
v 0.000000 0.608701 0.007521
v 0.002878 0.608701 0.006948
v 0.006253 0.608701 -0.004178
v -0.006253 0.608701 -0.004178
v -0.002878 0.608701 0.006948
v 0.007376 0.608701 0.001467
v 0.007376 0.608701 -0.001467
v -0.001467 0.608701 -0.007376
v -0.004178 0.608701 -0.006253
v -0.006948 0.608701 0.002878
v -0.005318 0.608701 0.005318
v 0.004178 0.608701 0.006253
v 0.006253 0.608701 0.004178
v 0.005318 0.608701 -0.005318
v 0.002878 0.608701 -0.006948
v -0.006948 0.608701 -0.002878
v -0.007521 0.608701 0.000000
v -0.001467 0.608701 0.007376
v 0.000000 0.608701 -0.007521
v 0.001467 0.608701 0.007376
v -0.000000 0.000000 -0.036998
v 0.007218 0.000000 -0.036287
v 0.014159 0.000000 -0.034182
v 0.020555 0.000000 -0.030763
v 0.026162 0.000000 -0.026162
v 0.030763 0.000000 -0.020555
v 0.034182 0.000000 -0.014159
v 0.036287 0.000000 -0.007218
v 0.036998 0.000000 -0.000000
v 0.036287 0.000000 0.007218
v 0.034182 0.000000 0.014159
v 0.030763 0.000000 0.020555
v 0.026162 0.000000 0.026162
v 0.020555 0.000000 0.030763
v 0.014159 0.000000 0.034182
v 0.007218 0.000000 0.036287
v -0.000000 0.000000 0.036998
v -0.007218 0.000000 0.036287
v -0.014159 0.000000 0.034182
v -0.020555 0.000000 0.030763
v -0.026162 0.000000 0.026162
v -0.030763 0.000000 0.020555
v -0.034182 0.000000 0.014159
v -0.036287 0.000000 0.007218
v -0.036998 0.000000 -0.000000
v -0.036287 0.000000 -0.007218
v -0.034182 0.000000 -0.014159
v -0.030763 0.000000 -0.020555
v -0.026162 0.000000 -0.026162
v -0.020555 0.000000 -0.030763
v -0.014159 0.000000 -0.034182
v -0.007218 0.000000 -0.036287
vn -0.0000 -0.0000 -1.0000
vn 0.1951 -0.0000 -0.9808
vn 0.3827 -0.0000 -0.9239
vn 0.5556 -0.0000 -0.8315
vn 0.7071 -0.0000 -0.7071
vn 0.8315 -0.0000 -0.5556
vn 0.9239 -0.0000 -0.3827
vn 0.9808 -0.0000 -0.1951
vn 1.0000 -0.0000 -0.0000
vn 0.9808 -0.0000 0.1951
vn 0.9239 -0.0000 0.3827
vn 0.8315 -0.0000 0.5556
vn 0.7071 -0.0000 0.7071
vn 0.5556 -0.0000 0.8315
vn 0.3827 -0.0000 0.9239
vn 0.1951 -0.0000 0.9808
vn -0.0000 -0.0000 1.0000
vn -0.1951 -0.0000 0.9808
vn -0.3827 -0.0000 0.9239
vn -0.5556 -0.0000 0.8315
vn -0.7071 -0.0000 0.7071
vn -0.8315 -0.0000 0.5556
vn -0.9239 -0.0000 0.3827
vn -0.9808 -0.0000 0.1951
vn -1.0000 -0.0000 -0.0000
vn -0.9808 -0.0000 -0.1951
vn -0.9239 -0.0000 -0.3827
vn -0.8315 -0.0000 -0.5556
vn -0.7071 -0.0000 -0.7071
vn -0.5556 -0.0000 -0.8315
vn -0.3827 -0.0000 -0.9239
vn -0.2332 0.9598 -0.1559
vn -0.2592 0.9598 -0.1074
vn -0.0927 0.9950 -0.0384
vn -0.0834 0.9950 -0.0557
vn -0.1951 -0.0000 -0.9808
vn 0.2592 0.9598 0.1073
vn 0.2751 0.9598 0.0547
vn 0.0984 0.9950 0.0196
vn 0.0927 0.9950 0.0384
vn 0.1984 0.9598 0.1984
vn 0.2333 0.9598 0.1559
vn 0.0834 0.9950 0.0557
vn 0.0709 0.9950 0.0709
vn 0.1074 0.9598 0.2592
vn 0.1558 0.9598 0.2332
vn 0.0557 0.9950 0.0834
vn 0.0384 0.9950 0.0927
vn -0.1984 0.9598 -0.1984
vn -0.0710 0.9950 -0.0709
vn -0.1074 0.9598 0.2592
vn -0.0547 0.9598 0.2751
vn -0.0196 0.9950 0.0984
vn -0.0384 0.9950 0.0927
vn 0.2592 0.9598 -0.1074
vn 0.2332 0.9598 -0.1559
vn 0.0834 0.9950 -0.0557
vn 0.0927 0.9950 -0.0384
vn 0.2805 0.9598 -0.0000
vn 0.2751 0.9598 -0.0547
vn 0.0984 0.9950 -0.0196
vn 0.1003 0.9950 -0.0000
vn 0.0547 0.9598 0.2751
vn 0.0196 0.9950 0.0984
vn -0.0000 0.9598 -0.2805
vn -0.0547 0.9598 -0.2751
vn -0.0195 0.9950 -0.0984
vn -0.0000 0.9950 -0.1003
vn -0.0000 0.9598 0.2805
vn -0.0000 0.9950 0.1003
vn -0.2805 0.9598 -0.0000
vn -0.2751 0.9598 0.0547
vn -0.0984 0.9950 0.0196
vn -0.1003 0.9950 -0.0000
vn -0.2751 0.9598 -0.0547
vn -0.0984 0.9950 -0.0196
vn 0.1074 0.9598 -0.2592
vn 0.0547 0.9598 -0.2751
vn 0.0196 0.9950 -0.0984
vn 0.0384 0.9950 -0.0927
vn 0.1984 0.9598 -0.1984
vn 0.1559 0.9598 -0.2332
vn 0.0557 0.9950 -0.0834
vn 0.0709 0.9950 -0.0709
vn -0.1984 0.9598 0.1984
vn -0.1558 0.9598 0.2333
vn -0.0557 0.9950 0.0834
vn -0.0709 0.9950 0.0709
vn -0.2592 0.9598 0.1073
vn -0.2333 0.9598 0.1559
vn -0.0834 0.9950 0.0557
vn -0.0927 0.9950 0.0384
vn -0.1559 0.9598 -0.2332
vn -0.0557 0.9950 -0.0834
vn -0.1074 0.9598 -0.2592
vn -0.0384 0.9950 -0.0927
vn -0.0000 0.2539 -0.9672
vn -0.1887 0.2539 -0.9486
vn -0.1878 0.2712 -0.9440
vn -0.0000 0.2712 -0.9625
vn -0.1853 0.3133 -0.9314
vn -0.0000 0.3133 -0.9496
vn -0.1806 0.3786 -0.9078
vn -0.0000 0.3786 -0.9256
vn -0.1703 0.4878 -0.8562
vn -0.0000 0.4878 -0.8729
vn 0.1887 0.2539 -0.9486
vn 0.1878 0.2712 -0.9440
vn 0.1853 0.3133 -0.9314
vn 0.1806 0.3786 -0.9078
vn 0.1703 0.4878 -0.8562
vn -0.9486 0.2539 0.1887
vn -0.8936 0.2539 0.3701
vn -0.8893 0.2712 0.3683
vn -0.9440 0.2712 0.1878
vn -0.8774 0.3133 0.3634
vn -0.9314 0.3133 0.1853
vn -0.8551 0.3786 0.3542
vn -0.9078 0.3786 0.1806
vn -0.8065 0.4878 0.3341
vn -0.8562 0.4878 0.1703
vn 0.3701 0.2539 0.8936
vn 0.5374 0.2539 0.8042
vn 0.5348 0.2712 0.8003
vn 0.3683 0.2712 0.8893
vn 0.5276 0.3133 0.7896
vn 0.3634 0.3133 0.8774
vn 0.5142 0.3786 0.7696
vn 0.3542 0.3786 0.8551
vn 0.4850 0.4878 0.7258
vn 0.3341 0.4878 0.8065
vn 0.8042 0.2539 -0.5374
vn 0.6839 0.2539 -0.6839
vn 0.6806 0.2712 -0.6806
vn 0.8003 0.2712 -0.5348
vn 0.6715 0.3133 -0.6715
vn 0.7896 0.3133 -0.5276
vn 0.6545 0.3786 -0.6545
vn 0.7696 0.3786 -0.5142
vn 0.6173 0.4878 -0.6173
vn 0.7258 0.4878 -0.4850
vn -0.8042 0.2539 -0.5374
vn -0.8936 0.2539 -0.3701
vn -0.8893 0.2712 -0.3683
vn -0.8003 0.2712 -0.5348
vn -0.8774 0.3133 -0.3634
vn -0.7896 0.3133 -0.5276
vn -0.8551 0.3786 -0.3542
vn -0.7696 0.3786 -0.5142
vn -0.8065 0.4878 -0.3341
vn -0.7258 0.4878 -0.4850
vn -0.3701 0.2539 0.8936
vn -0.1887 0.2539 0.9486
vn -0.1878 0.2712 0.9440
vn -0.3683 0.2712 0.8893
vn -0.1853 0.3133 0.9314
vn -0.3634 0.3133 0.8774
vn -0.1806 0.3786 0.9078
vn -0.3542 0.3786 0.8551
vn -0.1703 0.4878 0.8562
vn -0.3341 0.4878 0.8065
vn 0.9486 0.2539 0.1887
vn 0.9672 0.2539 -0.0000
vn 0.9625 0.2712 -0.0000
vn 0.9440 0.2712 0.1878
vn 0.9497 0.3133 -0.0000
vn 0.9314 0.3133 0.1853
vn 0.9256 0.3786 -0.0000
vn 0.9078 0.3786 0.1806
vn 0.8729 0.4878 -0.0000
vn 0.8562 0.4878 0.1703
vn -0.3701 0.2539 -0.8936
vn -0.3683 0.2712 -0.8893
vn -0.3634 0.3133 -0.8774
vn -0.3542 0.3786 -0.8551
vn -0.3341 0.4878 -0.8065
vn -0.8042 0.2539 0.5374
vn -0.8003 0.2712 0.5348
vn -0.7896 0.3133 0.5276
vn -0.7696 0.3786 0.5142
vn -0.7258 0.4878 0.4850
vn 0.6839 0.2539 0.6839
vn 0.6806 0.2712 0.6806
vn 0.6715 0.3133 0.6715
vn 0.6545 0.3786 0.6545
vn 0.6173 0.4878 0.6173
vn 0.5374 0.2539 -0.8042
vn 0.5348 0.2712 -0.8003
vn 0.5276 0.3133 -0.7896
vn 0.5142 0.3786 -0.7696
vn 0.4850 0.4878 -0.7258
vn -0.9486 0.2539 -0.1887
vn -0.9440 0.2712 -0.1878
vn -0.9314 0.3133 -0.1853
vn -0.9078 0.3786 -0.1806
vn -0.8562 0.4878 -0.1703
vn -0.0000 0.2539 0.9672
vn -0.0000 0.2712 0.9625
vn -0.0000 0.3133 0.9496
vn -0.0000 0.3786 0.9256
vn -0.0000 0.4878 0.8729
vn 0.9486 0.2539 -0.1887
vn 0.9440 0.2712 -0.1878
vn 0.9314 0.3133 -0.1853
vn 0.9078 0.3786 -0.1806
vn 0.8562 0.4878 -0.1703
vn -0.5374 0.2539 -0.8042
vn -0.5348 0.2712 -0.8003
vn -0.5276 0.3133 -0.7896
vn -0.5142 0.3786 -0.7696
vn -0.4850 0.4878 -0.7258
vn -0.6839 0.2539 0.6839
vn -0.6806 0.2712 0.6806
vn -0.6715 0.3133 0.6715
vn -0.6545 0.3786 0.6545
vn -0.6173 0.4878 0.6173
vn 0.8042 0.2539 0.5374
vn 0.8003 0.2712 0.5348
vn 0.7896 0.3133 0.5276
vn 0.7696 0.3786 0.5142
vn 0.7258 0.4878 0.4850
vn 0.3701 0.2539 -0.8936
vn 0.3683 0.2712 -0.8893
vn 0.3634 0.3133 -0.8774
vn 0.3542 0.3786 -0.8551
vn 0.3341 0.4878 -0.8065
vn -0.9672 0.2539 -0.0000
vn -0.9625 0.2712 -0.0000
vn -0.9496 0.3133 -0.0000
vn -0.9256 0.3786 -0.0000
vn -0.8729 0.4878 -0.0000
vn 0.1887 0.2539 0.9486
vn 0.1878 0.2712 0.9440
vn 0.1853 0.3133 0.9314
vn 0.1806 0.3786 0.9078
vn 0.1703 0.4878 0.8562
vn 0.8936 0.2539 -0.3701
vn 0.8893 0.2712 -0.3683
vn 0.8774 0.3133 -0.3634
vn 0.8551 0.3786 -0.3542
vn 0.8065 0.4878 -0.3341
vn -0.6839 0.2539 -0.6839
vn -0.6806 0.2712 -0.6806
vn -0.6715 0.3133 -0.6715
vn -0.6545 0.3786 -0.6545
vn -0.6173 0.4878 -0.6173
vn -0.5374 0.2539 0.8042
vn -0.5348 0.2712 0.8003
vn -0.5276 0.3133 0.7896
vn -0.5142 0.3786 0.7696
vn -0.4850 0.4878 0.7258
vn 0.8936 0.2539 0.3701
vn 0.8893 0.2712 0.3683
vn 0.8774 0.3133 0.3634
vn 0.8551 0.3786 0.3542
vn 0.8065 0.4878 0.3341
vn -0.1587 0.5813 -0.7980
vn -0.0000 0.5813 -0.8137
vn -0.1440 0.6745 -0.7241
vn -0.0000 0.6745 -0.7383
vn 0.1587 0.5813 -0.7980
vn 0.1440 0.6745 -0.7241
vn -0.7517 0.5813 0.3114
vn -0.7980 0.5813 0.1587
vn -0.6821 0.6745 0.2825
vn -0.7241 0.6745 0.1440
vn 0.4521 0.5813 0.6765
vn 0.3114 0.5813 0.7517
vn 0.4102 0.6745 0.6139
vn 0.2825 0.6745 0.6821
vn 0.5754 0.5813 -0.5754
vn 0.6765 0.5813 -0.4521
vn 0.5221 0.6745 -0.5221
vn 0.6139 0.6745 -0.4102
vn -0.7517 0.5813 -0.3114
vn -0.6765 0.5813 -0.4521
vn -0.6821 0.6745 -0.2825
vn -0.6139 0.6745 -0.4102
vn -0.1587 0.5813 0.7980
vn -0.3114 0.5813 0.7517
vn -0.1440 0.6745 0.7241
vn -0.2825 0.6745 0.6821
vn 0.8137 0.5813 -0.0000
vn 0.7980 0.5813 0.1587
vn 0.7383 0.6745 -0.0000
vn 0.7241 0.6745 0.1440
vn -0.3114 0.5813 -0.7517
vn -0.2825 0.6745 -0.6821
vn -0.6765 0.5813 0.4521
vn -0.6139 0.6745 0.4102
vn 0.5754 0.5813 0.5754
vn 0.5221 0.6745 0.5221
vn 0.4521 0.5813 -0.6765
vn 0.4102 0.6745 -0.6139
vn -0.7980 0.5813 -0.1587
vn -0.7241 0.6745 -0.1440
vn -0.0000 0.5813 0.8137
vn -0.0000 0.6745 0.7383
vn 0.7980 0.5813 -0.1587
vn 0.7241 0.6745 -0.1440
vn -0.4521 0.5813 -0.6765
vn -0.4102 0.6745 -0.6139
vn -0.5754 0.5813 0.5754
vn -0.5221 0.6745 0.5221
vn 0.6765 0.5813 0.4521
vn 0.6139 0.6745 0.4102
vn 0.3114 0.5813 -0.7517
vn 0.2825 0.6745 -0.6821
vn -0.8137 0.5813 -0.0000
vn -0.7383 0.6745 -0.0000
vn 0.1587 0.5813 0.7980
vn 0.1440 0.6745 0.7241
vn 0.7517 0.5813 -0.3114
vn 0.6821 0.6745 -0.2825
vn -0.5754 0.5813 -0.5754
vn -0.5221 0.6745 -0.5221
vn -0.4521 0.5813 0.6765
vn -0.4102 0.6745 0.6139
vn 0.7517 0.5813 0.3114
vn 0.6821 0.6745 0.2825
vn -0.1188 0.7932 -0.5972
vn -0.0000 0.7932 -0.6089
vn 0.1188 0.7932 -0.5972
vn -0.5626 0.7932 0.2330
vn -0.5972 0.7932 0.1188
vn 0.3383 0.7932 0.5063
vn 0.2330 0.7932 0.5626
vn 0.4306 0.7932 -0.4306
vn 0.5063 0.7932 -0.3383
vn -0.5626 0.7932 -0.2330
vn -0.5063 0.7932 -0.3383
vn -0.1188 0.7932 0.5972
vn -0.2330 0.7932 0.5626
vn 0.6089 0.7932 -0.0000
vn 0.5972 0.7932 0.1188
vn -0.2330 0.7932 -0.5626
vn -0.5063 0.7932 0.3383
vn 0.4306 0.7932 0.4306
vn 0.3383 0.7932 -0.5063
vn -0.5972 0.7932 -0.1188
vn -0.0000 0.7932 0.6089
vn 0.5972 0.7932 -0.1188
vn -0.3383 0.7932 -0.5063
vn -0.4306 0.7932 0.4306
vn 0.5063 0.7932 0.3383
vn 0.2330 0.7932 -0.5626
vn -0.6089 0.7932 -0.0000
vn 0.1188 0.7932 0.5972
vn 0.5626 0.7932 -0.2330
vn -0.4306 0.7932 -0.4306
vn -0.3383 0.7932 0.5063
vn 0.5626 0.7932 0.2330
vn -0.0000 -1.0000 -0.0000
vn -0.0000 0.8902 -0.4555
vn 0.0889 0.8902 -0.4467
vn -0.2531 0.8902 -0.3787
vn -0.1743 0.8902 -0.4208
vn -0.4208 0.8902 0.1743
vn -0.4467 0.8902 0.0889
vn -0.3221 0.8902 0.3221
vn -0.3787 0.8902 0.2531
vn -0.1743 0.8902 0.4208
vn -0.2531 0.8902 0.3787
vn 0.3221 0.8902 -0.3221
vn 0.3787 0.8902 -0.2531
vn 0.1743 0.8902 -0.4208
vn 0.2531 0.8902 -0.3787
vn -0.4555 0.8902 -0.0000
vn -0.4467 0.8902 -0.0889
vn 0.4555 0.8902 -0.0000
vn 0.4467 0.8902 0.0889
vn 0.4208 0.8902 -0.1743
vn 0.4467 0.8902 -0.0889
vn -0.0889 0.8902 -0.4467
vn -0.3221 0.8902 -0.3221
vn 0.3221 0.8902 0.3221
vn 0.2530 0.8902 0.3787
vn 0.4208 0.8902 0.1743
vn 0.3787 0.8902 0.2531
vn -0.4208 0.8902 -0.1743
vn 0.0889 0.8902 0.4467
vn -0.0000 0.8902 0.4555
vn -0.0889 0.8902 0.4467
vn 0.1743 0.8902 0.4208
vn -0.3787 0.8902 -0.2531
vt 1.000000 0.500000
vt 1.000000 1.000000
vt 0.968750 1.000000
vt 0.968750 0.500000
vt 0.937500 1.000000
vt 0.937500 0.500000
vt 0.906250 1.000000
vt 0.906250 0.500000
vt 0.875000 1.000000
vt 0.875000 0.500000
vt 0.843750 1.000000
vt 0.843750 0.500000
vt 0.812500 1.000000
vt 0.812500 0.500000
vt 0.781250 1.000000
vt 0.781250 0.500000
vt 0.750000 1.000000
vt 0.750000 0.500000
vt 0.718750 1.000000
vt 0.718750 0.500000
vt 0.687500 1.000000
vt 0.687500 0.500000
vt 0.656250 1.000000
vt 0.656250 0.500000
vt 0.625000 1.000000
vt 0.625000 0.500000
vt 0.593750 1.000000
vt 0.593750 0.500000
vt 0.562500 1.000000
vt 0.562500 0.500000
vt 0.531250 1.000000
vt 0.531250 0.500000
vt 0.500000 1.000000
vt 0.500000 0.500000
vt 0.468750 1.000000
vt 0.468750 0.500000
vt 0.437500 1.000000
vt 0.437500 0.500000
vt 0.406250 1.000000
vt 0.406250 0.500000
vt 0.375000 1.000000
vt 0.375000 0.500000
vt 0.343750 1.000000
vt 0.343750 0.500000
vt 0.312500 1.000000
vt 0.312500 0.500000
vt 0.281250 1.000000
vt 0.281250 0.500000
vt 0.250000 1.000000
vt 0.250000 0.500000
vt 0.218750 1.000000
vt 0.218750 0.500000
vt 0.187500 1.000000
vt 0.187500 0.500000
vt 0.156250 1.000000
vt 0.156250 0.500000
vt 0.125000 1.000000
vt 0.125000 0.500000
vt 0.093750 1.000000
vt 0.093750 0.500000
vt 0.062500 1.000000
vt 0.062500 0.500000
vt 0.031250 1.000000
vt 0.031250 0.500000
vt 0.000000 1.000000
vt 0.000000 0.500000
vt 0.806811 0.287960
vt 0.813125 0.276147
vt 0.718750 1.000000
vt 0.562500 1.000000
vt 0.593750 1.000000
vt 0.437500 1.000000
vt 0.281250 1.000000
vt 0.906250 1.000000
vt 0.343750 1.000000
vt 0.093750 1.000000
vt 1.000000 1.000000
vt 0.968750 1.000000
vt 0.843750 1.000000
vt 0.468750 1.000000
vt 0.656250 1.000000
vt 0.937500 1.000000
vt 0.812500 1.000000
vt 0.406250 1.000000
vt 0.763330 0.317013
vt 0.750000 0.318326
vt 0.750000 0.490000
vt 0.796822 0.485388
vt 0.776147 0.313125
vt 0.841844 0.471731
vt 0.787960 0.306811
vt 0.883337 0.449553
vt 0.798314 0.298314
vt 0.919706 0.419706
vt 0.949553 0.383337
vt 0.971731 0.341844
vt 0.817013 0.263330
vt 0.985388 0.296822
vt 0.818326 0.250000
vt 0.990000 0.250000
vt 0.817013 0.236670
vt 0.985388 0.203178
vt 0.813125 0.223853
vt 0.971731 0.158156
vt 0.806811 0.212040
vt 0.949553 0.116663
vt 0.798314 0.201686
vt 0.919706 0.080294
vt 0.787960 0.193189
vt 0.883337 0.050447
vt 0.776147 0.186875
vt 0.841844 0.028269
vt 0.763330 0.182987
vt 0.796822 0.014612
vt 0.750000 0.181674
vt 0.750000 0.010000
vt 0.736670 0.182987
vt 0.703178 0.014612
vt 0.723853 0.186875
vt 0.658156 0.028269
vt 0.712040 0.193189
vt 0.616663 0.050447
vt 0.701686 0.201686
vt 0.580294 0.080294
vt 0.693189 0.212040
vt 0.550447 0.116663
vt 0.686875 0.223853
vt 0.528269 0.158156
vt 0.682987 0.236670
vt 0.514612 0.203178
vt 0.681674 0.250000
vt 0.510000 0.250000
vt 0.682987 0.263330
vt 0.514612 0.296822
vt 0.686875 0.276147
vt 0.528269 0.341844
vt 0.693189 0.287960
vt 0.550447 0.383337
vt 0.701686 0.298314
vt 0.580294 0.419706
vt 0.712040 0.306811
vt 0.616663 0.449553
vt 0.723853 0.313125
vt 0.658156 0.471731
vt 0.736670 0.317013
vt 0.703178 0.485388
vt 0.750000 0.279467
vt 0.755749 0.278901
vt 0.761276 0.277224
vt 0.766371 0.274501
vt 0.770836 0.270836
vt 0.774500 0.266371
vt 0.777224 0.261276
vt 0.778901 0.255749
vt 0.779467 0.250000
vt 0.778901 0.244251
vt 0.777224 0.238723
vt 0.774501 0.233629
vt 0.770836 0.229164
vt 0.766371 0.225499
vt 0.761276 0.222776
vt 0.755748 0.221099
vt 0.750000 0.220533
vt 0.744251 0.221099
vt 0.738724 0.222776
vt 0.733629 0.225499
vt 0.729164 0.229164
vt 0.725499 0.233629
vt 0.722776 0.238724
vt 0.721099 0.244251
vt 0.720533 0.250000
vt 0.721099 0.255749
vt 0.722776 0.261276
vt 0.725499 0.266371
vt 0.729164 0.270836
vt 0.733629 0.274501
vt 0.738724 0.277224
vt 0.744251 0.278901
s 1
f 290/1/1 2/2/1 4/3/2 291/4/2
f 291/4/2 4/3/2 6/5/3 292/6/3
f 292/6/3 6/5/3 8/7/4 293/8/4
f 293/8/4 8/7/4 10/9/5 294/10/5
f 294/10/5 10/9/5 12/11/6 295/12/6
f 295/12/6 12/11/6 14/13/7 296/14/7
f 296/14/7 14/13/7 16/15/8 297/16/8
f 297/16/8 16/15/8 18/17/9 298/18/9
f 298/18/9 18/17/9 20/19/10 299/20/10
f 299/20/10 20/19/10 22/21/11 300/22/11
f 300/22/11 22/21/11 24/23/12 301/24/12
f 301/24/12 24/23/12 26/25/13 302/26/13
f 302/26/13 26/25/13 28/27/14 303/28/14
f 303/28/14 28/27/14 30/29/15 304/30/15
f 304/30/15 30/29/15 32/31/16 305/32/16
f 305/32/16 32/31/16 34/33/17 306/34/17
f 306/34/17 34/33/17 36/35/18 307/36/18
f 307/36/18 36/35/18 38/37/19 308/38/19
f 308/38/19 38/37/19 40/39/20 309/40/20
f 309/40/20 40/39/20 42/41/21 310/42/21
f 310/42/21 42/41/21 44/43/22 311/44/22
f 311/44/22 44/43/22 46/45/23 312/46/23
f 312/46/23 46/45/23 48/47/24 313/48/24
f 313/48/24 48/47/24 50/49/25 314/50/25
f 314/50/25 50/49/25 52/51/26 315/52/26
f 315/52/26 52/51/26 54/53/27 316/54/27
f 316/54/27 54/53/27 56/55/28 317/56/28
f 317/56/28 56/55/28 58/57/29 318/58/29
f 318/58/29 58/57/29 60/59/30 319/60/30
f 319/60/30 60/59/30 62/61/31 320/62/31
f 401/55/32 413/53/33 349/53/34 324/55/35
f 320/62/31 62/61/31 64/63/36 321/64/36
f 321/64/36 64/63/36 2/65/1 290/66/1
f 11/67/6 13/68/7 424/68/7 423/67/6
f 393/21/37 403/69/38 65/19/39 330/21/40
f 392/25/41 410/23/42 337/23/43 344/25/44
f 399/70/45 409/71/46 351/27/47 326/29/48
f 389/57/49 401/55/32 324/55/35 332/57/50
f 402/72/51 415/35/52 348/35/53 323/37/54
f 387/13/55 400/11/56 325/11/57 333/13/58
f 386/17/59 404/15/60 340/15/61 347/17/62
f 417/31/63 399/70/45 326/29/48 334/31/64
f 416/65/65 405/63/66 353/63/67 329/65/68
f 415/35/52 398/33/69 341/33/70 348/35/53
f 414/49/71 397/73/72 327/47/73 335/49/74
f 398/33/69 417/31/63 334/31/64 341/33/70
f 413/53/33 396/51/75 342/51/76 349/53/34
f 412/5/77 395/3/78 328/3/79 336/5/80
f 411/9/81 394/74/82 343/7/83 350/9/84
f 410/23/42 393/21/37 330/21/40 337/23/43
f 409/71/46 392/25/41 344/25/44 351/27/47
f 408/41/85 391/39/86 331/39/87 338/41/88
f 407/45/89 390/75/90 345/43/91 352/45/92
f 406/76/93 389/57/49 332/57/50 339/59/94
f 405/63/66 388/61/95 346/61/96 353/63/67
f 404/15/60 387/13/55 333/13/58 340/15/61
f 403/69/38 386/17/59 347/17/62 65/19/39
f 396/51/75 414/49/71 335/49/74 342/51/76
f 394/74/82 412/5/77 336/5/80 343/7/83
f 400/11/56 411/9/81 350/9/84 325/11/57
f 391/39/86 402/72/51 323/37/54 331/39/87
f 390/75/90 408/41/85 338/41/88 345/43/91
f 397/73/72 407/45/89 352/45/92 327/47/73
f 388/61/95 406/76/93 339/59/94 346/61/96
f 395/3/78 416/77/65 329/2/68 328/3/79
f 2/65/97 64/63/98 189/63/99 190/65/100
f 190/65/100 189/63/99 188/63/101 191/65/102
f 191/65/102 188/63/101 187/63/103 192/65/104
f 192/65/104 187/63/103 186/63/105 193/65/106
f 4/3/107 2/2/97 190/2/100 114/78/108
f 114/78/108 190/2/100 191/2/102 115/78/109
f 115/78/109 191/2/102 192/2/104 116/3/110
f 116/3/110 192/2/104 193/2/106 117/3/111
f 48/47/112 46/45/113 185/45/114 106/47/115
f 106/47/115 185/45/114 184/45/116 107/47/117
f 107/47/117 184/45/116 183/45/118 108/47/119
f 108/47/119 183/45/118 182/45/120 109/47/121
f 30/29/122 28/27/123 181/27/124 98/29/125
f 98/29/125 181/27/124 180/27/126 99/29/127
f 99/29/127 180/27/126 179/27/128 100/29/129
f 100/29/129 179/27/128 178/27/130 101/29/131
f 12/11/132 10/9/133 177/9/134 90/11/135
f 90/11/135 177/9/134 176/9/136 91/11/137
f 91/11/137 176/9/136 175/9/138 92/79/139
f 92/79/139 175/9/138 174/9/140 93/11/141
f 56/55/142 54/53/143 173/53/144 82/55/145
f 82/55/145 173/53/144 172/53/146 83/55/147
f 83/55/147 172/53/146 171/53/148 84/55/149
f 84/55/149 171/53/148 170/53/150 85/55/151
f 38/37/152 36/35/153 169/35/154 74/37/155
f 74/37/155 169/35/154 168/80/156 75/37/157
f 75/37/157 168/80/156 167/35/158 76/37/159
f 76/37/159 167/35/158 166/35/160 77/37/161
f 20/19/162 18/17/163 165/17/164 66/19/165
f 66/19/165 165/17/164 164/17/166 67/19/167
f 67/19/167 164/17/166 163/17/168 68/19/169
f 68/19/169 163/17/168 162/17/170 69/19/171
f 64/63/98 62/61/172 161/61/173 189/63/99
f 189/63/99 161/61/173 160/61/174 188/63/101
f 188/63/101 160/61/174 159/61/175 187/63/103
f 187/63/103 159/61/175 158/61/176 186/63/105
f 46/45/113 44/43/177 157/43/178 185/45/114
f 185/45/114 157/43/178 156/43/179 184/45/116
f 184/45/116 156/43/179 155/43/180 183/45/118
f 183/45/118 155/43/180 154/43/181 182/45/120
f 28/27/123 26/25/182 153/25/183 181/27/124
f 181/27/124 153/25/183 152/25/184 180/27/126
f 180/27/126 152/25/184 151/25/185 179/27/128
f 179/27/128 151/25/185 150/25/186 178/27/130
f 10/9/133 8/7/187 149/7/188 177/9/134
f 177/9/134 149/7/188 148/7/189 176/9/136
f 176/9/136 148/7/189 147/7/190 175/9/138
f 175/9/138 147/7/190 146/7/191 174/9/140
f 54/53/143 52/51/192 145/51/193 173/53/144
f 173/53/144 145/51/193 144/51/194 172/53/146
f 172/53/146 144/51/194 143/51/195 171/53/148
f 171/53/148 143/51/195 142/51/196 170/53/150
f 36/35/153 34/33/197 141/33/198 169/35/154
f 169/35/154 141/33/198 140/33/199 168/80/156
f 168/80/156 140/33/199 139/33/200 167/35/158
f 167/35/158 139/33/200 138/33/201 166/35/160
f 18/17/163 16/15/202 137/15/203 165/17/164
f 165/17/164 137/15/203 136/15/204 164/17/166
f 164/17/166 136/15/204 135/15/205 163/17/168
f 163/17/168 135/15/205 134/15/206 162/17/170
f 62/61/172 60/59/207 133/59/208 161/61/173
f 161/61/173 133/59/208 132/59/209 160/61/174
f 160/61/174 132/59/209 131/59/210 159/61/175
f 159/61/175 131/59/210 130/59/211 158/61/176
f 44/43/177 42/41/212 129/41/213 157/43/178
f 157/43/178 129/41/213 128/41/214 156/43/179
f 156/43/179 128/41/214 127/41/215 155/43/180
f 155/43/180 127/41/215 126/41/216 154/43/181
f 26/25/182 24/23/217 125/23/218 153/25/183
f 153/25/183 125/23/218 124/23/219 152/25/184
f 152/25/184 124/23/219 123/81/220 151/25/185
f 151/25/185 123/81/220 122/81/221 150/25/186
f 8/7/187 6/5/222 121/5/223 149/7/188
f 149/7/188 121/5/223 120/82/224 148/7/189
f 148/7/189 120/82/224 119/5/225 147/7/190
f 147/7/190 119/5/225 118/5/226 146/7/191
f 52/51/192 50/49/227 113/49/228 145/51/193
f 145/51/193 113/49/228 112/49/229 144/51/194
f 144/51/194 112/49/229 111/49/230 143/51/195
f 143/51/195 111/49/230 110/49/231 142/51/196
f 34/33/197 32/31/232 105/31/233 141/33/198
f 141/33/198 105/31/233 104/31/234 140/33/199
f 140/33/199 104/31/234 103/31/235 139/33/200
f 139/33/200 103/31/235 102/31/236 138/33/201
f 16/15/202 14/13/237 97/13/238 137/15/203
f 137/15/203 97/13/238 96/13/239 136/15/204
f 136/15/204 96/13/239 95/83/240 135/15/205
f 135/15/205 95/83/240 94/83/241 134/15/206
f 60/59/207 58/57/242 89/57/243 133/59/208
f 133/59/208 89/57/243 88/57/244 132/59/209
f 132/59/209 88/57/244 87/57/245 131/59/210
f 131/59/210 87/57/245 86/57/246 130/59/211
f 42/41/212 40/39/247 81/39/248 129/41/213
f 129/41/213 81/39/248 80/39/249 128/41/214
f 128/41/214 80/39/249 79/84/250 127/41/215
f 127/41/215 79/84/250 78/84/251 126/41/216
f 24/23/217 22/21/252 73/21/253 125/23/218
f 125/23/218 73/21/253 72/21/254 124/23/219
f 124/23/219 72/21/254 71/21/255 123/81/220
f 123/81/220 71/21/255 70/21/256 122/81/221
f 6/5/222 4/3/107 114/78/108 121/5/223
f 121/5/223 114/78/108 115/78/109 120/82/224
f 120/82/224 115/78/109 116/3/110 119/5/225
f 119/5/225 116/3/110 117/3/111 118/5/226
f 50/49/227 48/47/112 106/47/115 113/49/228
f 113/49/228 106/47/115 107/47/117 112/49/229
f 112/49/229 107/47/117 108/47/119 111/49/230
f 111/49/230 108/47/119 109/47/121 110/49/231
f 32/31/232 30/29/122 98/29/125 105/31/233
f 105/31/233 98/29/125 99/29/127 104/31/234
f 104/31/234 99/29/127 100/29/129 103/31/235
f 103/31/235 100/29/129 101/29/131 102/31/236
f 14/13/237 12/11/132 90/11/135 97/13/238
f 97/13/238 90/11/135 91/11/137 96/13/239
f 96/13/239 91/11/137 92/79/139 95/83/240
f 95/83/240 92/79/139 93/11/141 94/83/241
f 58/57/242 56/55/142 82/55/145 89/57/243
f 89/57/243 82/55/145 83/55/147 88/57/244
f 88/57/244 83/55/147 84/55/149 87/57/245
f 87/57/245 84/55/149 85/55/151 86/57/246
f 40/39/247 38/37/152 74/37/155 81/39/248
f 81/39/248 74/37/155 75/37/157 80/39/249
f 80/39/249 75/37/157 76/37/159 79/84/250
f 79/84/250 76/37/159 77/37/161 78/84/251
f 22/21/252 20/19/162 66/19/165 73/21/253
f 73/21/253 66/19/165 67/19/167 72/21/254
f 72/21/254 67/19/167 68/19/169 71/21/255
f 71/21/255 68/19/169 69/19/171 70/21/256
f 193/65/106 186/63/105 257/63/257 208/65/258
f 208/65/258 257/63/257 256/63/259 209/65/260
f 117/3/111 193/2/106 208/2/258 206/3/261
f 206/3/261 208/2/258 209/2/260 207/3/262
f 109/47/121 182/45/120 255/45/263 204/47/264
f 204/47/264 255/45/263 254/45/265 205/47/266
f 101/29/131 178/27/130 253/27/267 202/29/268
f 202/29/268 253/27/267 252/27/269 203/29/270
f 93/11/141 174/9/140 251/9/271 200/79/272
f 200/79/272 251/9/271 250/9/273 201/11/274
f 85/55/151 170/53/150 249/53/275 198/55/276
f 198/55/276 249/53/275 248/53/277 199/55/278
f 77/37/161 166/35/160 247/35/279 196/37/280
f 196/37/280 247/35/279 246/80/281 197/37/282
f 69/19/171 162/17/170 245/17/283 194/19/284
f 194/19/284 245/17/283 244/17/285 195/19/286
f 186/63/105 158/61/176 243/61/287 257/63/257
f 257/63/257 243/61/287 242/61/288 256/63/259
f 182/45/120 154/43/181 241/43/289 255/45/263
f 255/45/263 241/43/289 240/43/290 254/45/265
f 178/27/130 150/25/186 239/25/291 253/27/267
f 253/27/267 239/25/291 238/25/292 252/27/269
f 174/9/140 146/7/191 237/7/293 251/9/271
f 251/9/271 237/7/293 236/7/294 250/9/273
f 170/53/150 142/51/196 235/51/295 249/53/275
f 249/53/275 235/51/295 234/51/296 248/53/277
f 166/35/160 138/33/201 233/33/297 247/35/279
f 247/35/279 233/33/297 232/33/298 246/80/281
f 162/17/170 134/15/206 231/15/299 245/17/283
f 245/17/283 231/15/299 230/15/300 244/17/285
f 158/61/176 130/59/211 229/59/301 243/61/287
f 243/61/287 229/59/301 228/59/302 242/61/288
f 154/43/181 126/41/216 227/41/303 241/43/289
f 241/43/289 227/41/303 226/41/304 240/43/290
f 150/25/186 122/81/221 225/23/305 239/25/291
f 239/25/291 225/23/305 224/23/306 238/25/292
f 146/7/191 118/5/226 223/5/307 237/7/293
f 237/7/293 223/5/307 222/82/308 236/7/294
f 142/51/196 110/49/231 221/49/309 235/51/295
f 235/51/295 221/49/309 220/49/310 234/51/296
f 138/33/201 102/31/236 219/31/311 233/33/297
f 233/33/297 219/31/311 218/31/312 232/33/298
f 134/15/206 94/83/241 217/13/313 231/15/299
f 231/15/299 217/13/313 216/13/314 230/15/300
f 130/59/211 86/57/246 215/57/315 229/59/301
f 229/59/301 215/57/315 214/57/316 228/59/302
f 126/41/216 78/84/251 213/39/317 227/41/303
f 227/41/303 213/39/317 212/39/318 226/41/304
f 122/81/221 70/21/256 211/21/319 225/23/305
f 225/23/305 211/21/319 210/21/320 224/23/306
f 118/5/226 117/3/111 206/3/261 223/5/307
f 223/5/307 206/3/261 207/3/262 222/82/308
f 110/49/231 109/47/121 204/47/264 221/49/309
f 221/49/309 204/47/264 205/47/266 220/49/310
f 102/31/236 101/29/131 202/29/268 219/31/311
f 219/31/311 202/29/268 203/29/270 218/31/312
f 94/83/241 93/11/141 200/79/272 217/13/313
f 217/13/313 200/79/272 201/11/274 216/13/314
f 86/57/246 85/55/151 198/55/276 215/57/315
f 215/57/315 198/55/276 199/55/278 214/57/316
f 78/84/251 77/37/161 196/37/280 213/39/317
f 213/39/317 196/37/280 197/37/282 212/39/318
f 70/21/256 69/19/171 194/19/284 211/21/319
f 211/21/319 194/19/284 195/19/286 210/21/320
f 209/65/260 256/63/259 289/63/321 265/65/322
f 207/3/262 209/2/260 265/2/322 264/3/323
f 205/47/266 254/45/265 288/45/324 263/47/325
f 203/29/270 252/27/269 287/27/326 262/29/327
f 201/11/274 250/9/273 286/9/328 261/11/329
f 199/55/278 248/53/277 285/53/330 260/55/331
f 197/37/282 246/80/281 284/35/332 259/37/333
f 195/19/286 244/17/285 283/17/334 258/19/335
f 256/63/259 242/61/288 282/61/336 289/63/321
f 254/45/265 240/43/290 281/43/337 288/45/324
f 252/27/269 238/25/292 280/25/338 287/27/326
f 250/9/273 236/7/294 279/7/339 286/9/328
f 248/53/277 234/51/296 278/51/340 285/53/330
f 246/80/281 232/33/298 277/33/341 284/35/332
f 244/17/285 230/15/300 276/15/342 283/17/334
f 242/61/288 228/59/302 275/59/343 282/61/336
f 240/43/290 226/41/304 274/41/344 281/43/337
f 238/25/292 224/23/306 273/23/345 280/25/338
f 236/7/294 222/82/308 272/5/346 279/7/339
f 234/51/296 220/49/310 271/49/347 278/51/340
f 232/33/298 218/31/312 270/31/348 277/33/341
f 230/15/300 216/13/314 269/13/349 276/15/342
f 228/59/302 214/57/316 268/57/350 275/59/343
f 226/41/304 212/39/318 267/39/351 274/41/344
f 224/23/306 210/21/320 266/21/352 273/23/345
f 222/82/308 207/3/262 264/3/323 272/5/346
f 220/49/310 205/47/266 263/47/325 271/49/347
f 218/31/312 203/29/270 262/29/327 270/31/348
f 216/13/314 201/11/274 261/11/329 269/13/349
f 214/57/316 199/55/278 260/55/331 268/57/350
f 212/39/318 197/37/282 259/37/333 267/39/351
f 210/21/320 195/19/286 258/19/335 266/21/352
f 3/85/353 1/86/353 290/87/353 291/88/353
f 5/89/353 3/85/353 291/88/353 292/90/353
f 7/91/353 5/89/353 292/90/353 293/92/353
f 9/93/353 7/91/353 293/92/353 294/94/353
f 11/67/353 9/93/353 294/94/353 295/95/353
f 13/68/353 11/67/353 295/95/353 296/96/353
f 15/97/353 13/68/353 296/96/353 297/98/353
f 17/99/353 15/97/353 297/98/353 298/100/353
f 19/101/353 17/99/353 298/100/353 299/102/353
f 21/103/353 19/101/353 299/102/353 300/104/353
f 23/105/353 21/103/353 300/104/353 301/106/353
f 25/107/353 23/105/353 301/106/353 302/108/353
f 27/109/353 25/107/353 302/108/353 303/110/353
f 29/111/353 27/109/353 303/110/353 304/112/353
f 31/113/353 29/111/353 304/112/353 305/114/353
f 33/115/353 31/113/353 305/114/353 306/116/353
f 35/117/353 33/115/353 306/116/353 307/118/353
f 37/119/353 35/117/353 307/118/353 308/120/353
f 39/121/353 37/119/353 308/120/353 309/122/353
f 41/123/353 39/121/353 309/122/353 310/124/353
f 43/125/353 41/123/353 310/124/353 311/126/353
f 45/127/353 43/125/353 311/126/353 312/128/353
f 47/129/353 45/127/353 312/128/353 313/130/353
f 49/131/353 47/129/353 313/130/353 314/132/353
f 51/133/353 49/131/353 314/132/353 315/134/353
f 53/135/353 51/133/353 315/134/353 316/136/353
f 55/137/353 53/135/353 316/136/353 317/138/353
f 57/139/353 55/137/353 317/138/353 318/140/353
f 59/141/353 57/139/353 318/140/353 319/142/353
f 61/143/353 59/141/353 319/142/353 320/144/353
f 63/145/353 61/143/353 320/144/353 321/146/353
f 1/86/353 63/145/353 321/146/353 290/87/353
f 39/121/20 41/123/21 438/123/21 437/121/20
f 13/68/7 15/97/8 425/97/8 424/68/7
f 41/123/21 43/125/22 439/125/22 438/123/21
f 15/97/8 17/99/9 426/99/9 425/97/8
f 43/125/22 45/127/23 440/127/23 439/125/22
f 17/99/9 19/101/10 427/101/10 426/99/9
f 45/127/23 47/129/24 441/129/24 440/127/23
f 19/101/10 21/103/11 428/103/11 427/101/10
f 47/129/24 49/131/25 442/131/25 441/129/24
f 21/103/11 23/105/12 429/105/12 428/103/11
f 49/131/25 51/133/26 443/133/26 442/131/25
f 23/105/12 25/107/13 430/107/13 429/105/12
f 51/133/26 53/135/27 444/135/27 443/133/26
f 25/107/13 27/109/14 431/109/14 430/107/13
f 53/135/27 55/137/28 445/137/28 444/135/27
f 27/109/14 29/111/15 432/111/15 431/109/14
f 1/86/1 3/85/2 419/85/2 418/86/1
f 55/137/28 57/139/29 446/139/29 445/137/28
f 29/111/15 31/113/16 433/113/16 432/111/15
f 3/85/2 5/89/3 420/89/3 419/85/2
f 57/139/29 59/141/30 447/141/30 446/139/29
f 31/113/16 33/115/17 434/115/17 433/113/16
f 5/89/3 7/91/4 421/91/4 420/89/3
f 59/141/30 61/143/31 448/143/31 447/141/30
f 33/115/17 35/117/18 435/117/18 434/115/17
f 7/91/4 9/93/5 422/93/5 421/91/4
f 61/143/31 63/145/36 449/145/36 448/143/31
f 35/117/18 37/119/19 436/119/19 435/117/18
f 9/93/5 11/67/6 423/67/6 422/93/5
f 63/145/36 1/86/1 418/86/1 449/145/36
f 37/119/19 39/121/20 437/121/20 436/119/19
f 264/3/323 265/2/322 380/2/354 372/3/355
f 282/61/336 275/59/343 361/59/356 358/61/357
f 263/47/325 288/45/324 363/45/358 376/47/359
f 281/43/337 274/41/344 365/41/360 362/43/361
f 267/39/351 259/37/333 385/37/362 364/39/363
f 261/11/329 286/9/328 371/9/364 383/11/365
f 279/7/339 272/5/346 373/5/366 370/7/367
f 278/51/340 271/49/347 377/49/368 374/51/369
f 258/19/335 283/17/334 354/17/370 355/19/371
f 276/15/342 269/13/349 356/13/372 357/15/373
f 289/63/321 282/61/336 358/61/357 359/63/374
f 275/59/343 268/57/350 360/57/375 361/59/356
f 288/45/324 281/43/337 362/43/361 363/45/358
f 274/41/344 267/39/351 364/39/363 365/41/360
f 287/27/326 280/25/338 366/25/376 367/27/377
f 273/23/345 266/21/352 368/21/378 369/23/379
f 286/9/328 279/7/339 370/7/367 371/9/364
f 272/5/346 264/3/323 372/3/355 373/5/366
f 285/53/330 278/51/340 374/51/369 375/53/380
f 277/33/341 270/31/348 382/31/381 378/33/382
f 271/49/347 263/47/325 376/47/359 377/49/368
f 284/35/332 277/33/341 378/33/382 379/35/383
f 265/65/322 289/63/321 359/63/374 380/65/354
f 270/31/348 262/29/327 381/29/384 382/31/381
f 283/17/334 276/15/342 357/15/373 354/17/370
f 269/13/349 261/11/329 383/11/365 356/13/372
f 259/37/333 284/35/332 379/35/383 385/37/362
f 268/57/350 260/55/331 384/55/385 360/57/375
f 262/29/327 287/27/326 367/27/377 381/29/384
f 280/25/338 273/23/345 369/23/379 366/25/376
f 266/21/352 258/19/335 355/19/371 368/21/378
f 260/55/331 285/53/330 375/53/380 384/55/385
f 372/3/355 380/2/354 416/77/65 395/3/78
f 358/61/357 361/59/356 406/76/93 388/61/95
f 376/47/359 363/45/358 407/45/89 397/73/72
f 362/43/361 365/41/360 408/41/85 390/75/90
f 364/39/363 385/37/362 402/72/51 391/39/86
f 383/11/365 371/9/364 411/9/81 400/11/56
f 370/7/367 373/5/366 412/5/77 394/74/82
f 374/51/369 377/49/368 414/49/71 396/51/75
f 355/19/371 354/17/370 386/17/59 403/69/38
f 357/15/373 356/13/372 387/13/55 404/15/60
f 359/63/374 358/61/357 388/61/95 405/63/66
f 361/59/356 360/57/375 389/57/49 406/76/93
f 363/45/358 362/43/361 390/75/90 407/45/89
f 365/41/360 364/39/363 391/39/86 408/41/85
f 367/27/377 366/25/376 392/25/41 409/71/46
f 369/23/379 368/21/378 393/21/37 410/23/42
f 371/9/364 370/7/367 394/74/82 411/9/81
f 373/5/366 372/3/355 395/3/78 412/5/77
f 375/53/380 374/51/369 396/51/75 413/53/33
f 378/33/382 382/31/381 417/31/63 398/33/69
f 377/49/368 376/47/359 397/73/72 414/49/71
f 379/35/383 378/33/382 398/33/69 415/35/52
f 380/65/354 359/63/374 405/63/66 416/65/65
f 382/31/381 381/29/384 399/70/45 417/31/63
f 354/17/370 357/15/373 404/15/60 386/17/59
f 356/13/372 383/11/365 400/11/56 387/13/55
f 385/37/362 379/35/383 415/35/52 402/72/51
f 360/57/375 384/55/385 401/55/32 389/57/49
f 381/29/384 367/27/377 409/71/46 399/70/45
f 366/25/376 369/23/379 410/23/42 392/25/41
f 368/21/378 355/19/371 403/69/38 393/21/37
f 384/55/385 375/53/380 413/53/33 401/55/32
f 65/19/39 347/17/62 340/15/61 333/13/58 325/11/57 350/9/84 343/7/83 336/5/80 328/3/79 329/2/68 353/63/67 346/61/96 339/59/94 332/57/50 324/55/35 349/53/34 342/51/76 335/49/74 327/47/73 352/45/92 345/43/91 338/41/88 331/39/87 323/37/54 348/35/53 341/33/70 334/31/64 326/29/48 351/27/47 344/25/44 337/23/43 330/21/40
f 322/147/353 418/86/353 419/85/353
f 322/148/353 419/85/353 420/89/353
f 322/149/353 420/89/353 421/91/353
f 322/150/353 421/91/353 422/93/353
f 322/151/353 422/93/353 423/67/353
f 322/152/353 423/67/353 424/68/353
f 322/153/353 424/68/353 425/97/353
f 322/154/353 425/97/353 426/99/353
f 322/155/353 426/99/353 427/101/353
f 322/156/353 427/101/353 428/103/353
f 322/157/353 428/103/353 429/105/353
f 322/158/353 429/105/353 430/107/353
f 322/159/353 430/107/353 431/109/353
f 322/160/353 431/109/353 432/111/353
f 322/161/353 432/111/353 433/113/353
f 322/162/353 433/113/353 434/115/353
f 322/163/353 434/115/353 435/117/353
f 322/164/353 435/117/353 436/119/353
f 322/165/353 436/119/353 437/121/353
f 322/166/353 437/121/353 438/123/353
f 322/167/353 438/123/353 439/125/353
f 322/168/353 439/125/353 440/127/353
f 322/169/353 440/127/353 441/129/353
f 322/170/353 441/129/353 442/131/353
f 322/171/353 442/131/353 443/133/353
f 322/172/353 443/133/353 444/135/353
f 322/173/353 444/135/353 445/137/353
f 322/174/353 445/137/353 446/139/353
f 322/175/353 446/139/353 447/141/353
f 322/176/353 447/141/353 448/143/353
f 322/177/353 448/143/353 449/145/353
f 322/178/353 449/145/353 418/86/353
