# Blender 4.5.1 LTS
# www.blender.org
o SHRAP
v 0.000000 0.400000 -0.100000
v 0.019509 0.400000 -0.098079
v 0.038268 0.400000 -0.092388
v 0.055557 0.400000 -0.083147
v 0.070711 0.400000 -0.070711
v 0.083147 0.400000 -0.055557
v 0.092388 0.400000 -0.038268
v 0.098079 0.400000 -0.019509
v 0.100000 0.400000 0.000000
v 0.098079 0.400000 0.019509
v 0.092388 0.400000 0.038268
v 0.083147 0.400000 0.055557
v 0.070711 0.400000 0.070711
v 0.055557 0.400000 0.083147
v 0.038268 0.400000 0.092388
v 0.019509 0.400000 0.098079
v 0.000000 0.400000 0.100000
v -0.019509 0.400000 0.098079
v -0.038268 0.400000 0.092388
v -0.055557 0.400000 0.083147
v -0.070711 0.400000 0.070711
v -0.083147 0.400000 0.055557
v -0.092388 0.400000 0.038268
v -0.098079 0.400000 0.019509
v -0.100000 0.400000 0.000000
v -0.098079 0.400000 -0.019509
v -0.092388 0.400000 -0.038268
v -0.083147 0.400000 -0.055557
v -0.070711 0.400000 -0.070711
v -0.055557 0.400000 -0.083147
v -0.038268 0.400000 -0.092388
v 0.000000 0.000000 0.000000
v -0.019509 0.400000 -0.098079
v -0.000001 0.623000 -0.011778
v 0.002297 0.623000 -0.011552
v 0.004507 0.623000 -0.010882
v 0.006543 0.623000 -0.009793
v 0.008328 0.623000 -0.008328
v 0.009793 0.623000 -0.006544
v 0.010881 0.623000 -0.004507
v 0.011551 0.623000 -0.002298
v 0.011778 0.623000 0.000000
v 0.011551 0.623000 0.002298
v 0.010881 0.623000 0.004507
v 0.009793 0.623000 0.006544
v 0.008328 0.623000 0.008328
v 0.006543 0.623000 0.009793
v 0.004507 0.623000 0.010882
v 0.002297 0.623000 0.011552
v -0.000001 0.623000 0.011778
v -0.002298 0.623000 0.011552
v -0.004508 0.623000 0.010882
v -0.006544 0.623000 0.009793
v -0.008329 0.623000 0.008328
v -0.009794 0.623000 0.006544
v -0.010882 0.623000 0.004507
v -0.011553 0.623000 0.002298
v -0.011779 0.623000 0.000000
v -0.011553 0.623000 -0.002298
v -0.010882 0.623000 -0.004507
v -0.009794 0.623000 -0.006544
v -0.008329 0.623000 -0.008328
v -0.006544 0.623000 -0.009793
v -0.004508 0.623000 -0.010882
v -0.002298 0.623000 -0.011552
v -0.000001 0.623000 -0.012523
v 0.002443 0.623000 -0.012283
v 0.004792 0.623000 -0.011570
v 0.006957 0.623000 -0.010413
v 0.008855 0.623000 -0.008855
v 0.010412 0.623000 -0.006958
v 0.011569 0.623000 -0.004793
v 0.012282 0.623000 -0.002443
v 0.012523 0.623000 0.000000
v 0.012282 0.623000 0.002443
v 0.011569 0.623000 0.004793
v 0.010412 0.623000 0.006958
v 0.008855 0.623000 0.008855
v 0.006957 0.623000 0.010413
v 0.004792 0.623000 0.011570
v 0.002443 0.623000 0.012283
v -0.000001 0.623000 0.012523
v -0.002444 0.623000 0.012283
v -0.004793 0.623000 0.011570
v -0.006958 0.623000 0.010413
v -0.008856 0.623000 0.008855
v -0.010413 0.623000 0.006958
v -0.011571 0.623000 0.004793
v -0.012283 0.623000 0.002443
v -0.012524 0.623000 0.000000
v -0.012283 0.623000 -0.002443
v -0.011571 0.623000 -0.004793
v -0.010413 0.623000 -0.006958
v -0.008856 0.623000 -0.008855
v -0.006958 0.623000 -0.010413
v -0.004793 0.623000 -0.011570
v -0.002444 0.623000 -0.012283
v -0.000001 0.628100 -0.006476
v 0.001263 0.628100 -0.006351
v 0.002478 0.628100 -0.005983
v 0.003597 0.628100 -0.005384
v 0.004579 0.628100 -0.004579
v 0.005384 0.628100 -0.003598
v 0.005982 0.628100 -0.002478
v 0.006351 0.628100 -0.001263
v 0.006475 0.628100 0.000000
v 0.006351 0.628100 0.001263
v 0.005982 0.628100 0.002478
v 0.005384 0.628100 0.003598
v 0.004579 0.628100 0.004579
v 0.003597 0.628100 0.005384
v 0.002478 0.628100 0.005983
v 0.001263 0.628100 0.006351
v -0.000001 0.628100 0.006476
v -0.001264 0.628100 0.006351
v -0.002479 0.628100 0.005983
v -0.003598 0.628100 0.005384
v -0.004580 0.628100 0.004579
v -0.005385 0.628100 0.003598
v -0.005983 0.628100 0.002478
v -0.006352 0.628100 0.001263
v -0.006476 0.628100 0.000000
v -0.006352 0.628100 -0.001263
v -0.005983 0.628100 -0.002478
v -0.005385 0.628100 -0.003598
v -0.004580 0.628100 -0.004579
v -0.003598 0.628100 -0.005384
v -0.002479 0.628100 -0.005983
v -0.001264 0.628100 -0.006351
v -0.000001 0.630000 0.000000
v 0.080744 0.431857 -0.033445
v 0.069100 0.463714 -0.028622
v 0.057456 0.495571 -0.023799
v 0.045813 0.527429 -0.018976
v 0.034169 0.559286 -0.014153
v 0.022525 0.591143 -0.009330
v 0.023912 0.591143 -0.004757
v 0.036273 0.559286 -0.007215
v 0.048634 0.527429 -0.009674
v 0.060995 0.495572 -0.012133
v 0.073356 0.463714 -0.014592
v 0.085717 0.431857 -0.017050
v 0.017050 0.431857 0.085718
v 0.014591 0.463714 0.073357
v 0.012133 0.495571 0.060996
v 0.009674 0.527429 0.048635
v 0.007215 0.559286 0.036274
v 0.004756 0.591143 0.023913
v -0.000001 0.591143 0.024381
v -0.000000 0.559286 0.036984
v -0.000000 0.527429 0.049588
v -0.000000 0.495572 0.062191
v -0.000000 0.463714 0.074794
v -0.000000 0.431857 0.087397
v -0.087397 0.431857 0.000000
v -0.074794 0.463714 0.000000
v -0.062191 0.495571 0.000000
v -0.049588 0.527429 0.000000
v -0.036985 0.559286 0.000000
v -0.024382 0.591143 0.000000
v -0.023913 0.591143 -0.004757
v -0.036274 0.559286 -0.007215
v -0.048635 0.527429 -0.009674
v -0.060996 0.495572 -0.012133
v -0.073357 0.463714 -0.014592
v -0.085718 0.431857 -0.017050
v 0.033445 0.431857 -0.080744
v 0.028622 0.463714 -0.069100
v 0.023799 0.495571 -0.057457
v 0.018976 0.527429 -0.045813
v 0.014153 0.559286 -0.034169
v 0.009330 0.591143 -0.022525
v 0.013545 0.591143 -0.020272
v 0.020547 0.559286 -0.030751
v 0.027549 0.527429 -0.041231
v 0.034551 0.495572 -0.051710
v 0.041553 0.463714 -0.062189
v 0.048555 0.431857 -0.072668
v 0.072668 0.431857 0.048555
v 0.062189 0.463714 0.041553
v 0.051709 0.495571 0.034551
v 0.041230 0.527429 0.027549
v 0.030751 0.559286 0.020547
v 0.020272 0.591143 0.013546
v 0.017240 0.591143 0.017240
v 0.026151 0.559286 0.026152
v 0.035063 0.527429 0.035064
v 0.043975 0.495572 0.043975
v 0.052887 0.463714 0.052887
v 0.061799 0.431857 0.061799
v -0.061799 0.431857 0.061799
v -0.052887 0.463714 0.052887
v -0.043976 0.495571 0.043975
v -0.035064 0.527429 0.035064
v -0.026152 0.559286 0.026152
v -0.017241 0.591143 0.017240
v -0.020273 0.591143 0.013546
v -0.030752 0.559286 0.020547
v -0.041231 0.527429 0.027549
v -0.051710 0.495572 0.034551
v -0.062189 0.463714 0.041553
v -0.072668 0.431857 0.048555
v -0.048555 0.431857 -0.072668
v -0.041553 0.463714 -0.062189
v -0.034552 0.495571 -0.051710
v -0.027550 0.527429 -0.041231
v -0.020548 0.559286 -0.030751
v -0.013546 0.591143 -0.020272
v -0.009331 0.591143 -0.022525
v -0.014154 0.559286 -0.034169
v -0.018977 0.527429 -0.045813
v -0.023800 0.495572 -0.057457
v -0.028623 0.463714 -0.069100
v -0.033445 0.431857 -0.080744
v 0.024381 0.591143 0.000000
v 0.036984 0.559286 0.000000
v 0.049587 0.527429 0.000000
v 0.062190 0.495572 0.000000
v 0.074794 0.463714 0.000000
v 0.087397 0.431857 0.000000
v -0.004757 0.591143 0.023913
v -0.007216 0.559286 0.036274
v -0.009674 0.527429 0.048635
v -0.012133 0.495572 0.060996
v -0.014592 0.463714 0.073357
v -0.017050 0.431857 0.085718
v -0.022526 0.591143 -0.009330
v -0.034170 0.559286 -0.014153
v -0.045813 0.527429 -0.018976
v -0.057457 0.495572 -0.023799
v -0.069101 0.463714 -0.028622
v -0.080744 0.431857 -0.033445
v 0.017240 0.591143 -0.017240
v 0.026151 0.559286 -0.026152
v 0.035063 0.527429 -0.035064
v 0.043975 0.495572 -0.043975
v 0.052887 0.463714 -0.052887
v 0.061799 0.431857 -0.061799
v 0.013545 0.591143 0.020272
v 0.020547 0.559286 0.030751
v 0.027549 0.527429 0.041231
v 0.034551 0.495572 0.051710
v 0.041553 0.463714 0.062189
v 0.048555 0.431857 0.072668
v -0.022526 0.591143 0.009330
v -0.034170 0.559286 0.014153
v -0.045813 0.527429 0.018976
v -0.057457 0.495572 0.023799
v -0.069101 0.463714 0.028622
v -0.080744 0.431857 0.033445
v -0.004757 0.591143 -0.023913
v -0.007216 0.559286 -0.036274
v -0.009674 0.527429 -0.048635
v -0.012133 0.495572 -0.060996
v -0.014592 0.463714 -0.073357
v -0.017050 0.431857 -0.085718
v 0.023912 0.591143 0.004757
v 0.036273 0.559286 0.007215
v 0.048634 0.527429 0.009674
v 0.060995 0.495572 0.012133
v 0.073356 0.463714 0.014592
v 0.085717 0.431857 0.017050
v -0.009331 0.591143 0.022525
v -0.014154 0.559286 0.034169
v -0.018977 0.527429 0.045813
v -0.023800 0.495572 0.057457
v -0.028623 0.463714 0.069100
v -0.033445 0.431857 0.080744
v -0.020273 0.591143 -0.013546
v -0.030752 0.559286 -0.020547
v -0.041231 0.527429 -0.027549
v -0.051710 0.495572 -0.034551
v -0.062189 0.463714 -0.041553
v -0.072668 0.431857 -0.048555
v 0.020272 0.591143 -0.013546
v 0.030751 0.559286 -0.020547
v 0.041230 0.527429 -0.027549
v 0.051709 0.495572 -0.034551
v 0.062189 0.463714 -0.041553
v 0.072668 0.431857 -0.048555
v 0.009330 0.591143 0.022525
v 0.014153 0.559286 0.034169
v 0.018976 0.527429 0.045813
v 0.023799 0.495572 0.057457
v 0.028622 0.463714 0.069100
v 0.033445 0.431857 0.080744
v -0.023913 0.591143 0.004757
v -0.036274 0.559286 0.007215
v -0.048635 0.527429 0.009674
v -0.060996 0.495572 0.012133
v -0.073357 0.463714 0.014592
v -0.085718 0.431857 0.017050
v -0.000000 0.431857 -0.087397
v -0.000000 0.463714 -0.074794
v -0.000000 0.495571 -0.062191
v -0.000000 0.527429 -0.049588
v -0.000000 0.559286 -0.036984
v -0.000001 0.591143 -0.024381
v 0.004756 0.591143 -0.023913
v 0.007215 0.559286 -0.036274
v 0.009674 0.527429 -0.048635
v 0.012133 0.495572 -0.060996
v 0.014591 0.463714 -0.073357
v 0.017050 0.431857 -0.085718
v 0.022525 0.591143 0.009330
v 0.034169 0.559286 0.014153
v 0.045813 0.527429 0.018976
v 0.057456 0.495572 0.023799
v 0.069100 0.463714 0.028622
v 0.080744 0.431857 0.033445
v -0.013546 0.591143 0.020272
v -0.020548 0.559286 0.030751
v -0.027550 0.527429 0.041231
v -0.034552 0.495572 0.051710
v -0.041553 0.463714 0.062189
v -0.048555 0.431857 0.072668
v -0.017241 0.591143 -0.017240
v -0.026152 0.559286 -0.026152
v -0.035064 0.527429 -0.035064
v -0.043976 0.495572 -0.043975
v -0.052887 0.463714 -0.052887
v -0.061799 0.431857 -0.061799
v 0.000000 0.000000 -0.100000
v 0.019509 0.000000 -0.098079
v 0.038268 0.000000 -0.092388
v 0.055557 0.000000 -0.083147
v 0.070711 0.000000 -0.070711
v 0.083147 0.000000 -0.055557
v 0.092388 0.000000 -0.038268
v 0.098079 0.000000 -0.019509
v 0.100000 0.000000 0.000000
v 0.098079 0.000000 0.019509
v 0.092388 0.000000 0.038268
v 0.083147 0.000000 0.055557
v 0.070711 0.000000 0.070711
v 0.055557 0.000000 0.083147
v 0.038268 0.000000 0.092388
v 0.019509 0.000000 0.098079
v 0.000000 0.000000 0.100000
v -0.019509 0.000000 0.098079
v -0.038268 0.000000 0.092388
v -0.055557 0.000000 0.083147
v -0.070711 0.000000 0.070711
v -0.083147 0.000000 0.055557
v -0.092388 0.000000 0.038268
v -0.098079 0.000000 0.019509
v -0.100000 0.000000 0.000000
v -0.098079 0.000000 -0.019509
v -0.092388 0.000000 -0.038268
v -0.083147 0.000000 -0.055557
v -0.070711 0.000000 -0.070711
v -0.055557 0.000000 -0.083147
v -0.038268 0.000000 -0.092388
v -0.019509 0.000000 -0.098079
vn -0.0000 -0.0000 -1.0000
vn 0.1951 -0.0000 -0.9808
vn 0.3827 -0.0000 -0.9239
vn 0.5556 -0.0000 -0.8315
vn 0.7071 -0.0000 -0.7071
vn 0.8315 -0.0000 -0.5556
vn 0.9239 -0.0000 -0.3827
vn 0.9808 -0.0000 -0.1951
vn 1.0000 -0.0000 -0.0000
vn 0.9808 -0.0000 0.1951
vn 0.9239 -0.0000 0.3827
vn 0.8315 -0.0000 0.5556
vn 0.7071 -0.0000 0.7071
vn 0.5556 -0.0000 0.8315
vn 0.3827 -0.0000 0.9239
vn 0.1951 -0.0000 0.9808
vn -0.0000 -0.0000 1.0000
vn -0.1951 -0.0000 0.9808
vn -0.3827 -0.0000 0.9239
vn -0.5556 -0.0000 0.8315
vn -0.7071 -0.0000 0.7071
vn -0.8315 -0.0000 0.5556
vn -0.9239 -0.0000 0.3827
vn -0.9808 -0.0000 0.1951
vn -1.0000 -0.0000 -0.0000
vn -0.9808 -0.0000 -0.1951
vn -0.9239 -0.0000 -0.3827
vn -0.8315 -0.0000 -0.5556
vn -0.7071 -0.0000 -0.7071
vn -0.5556 -0.0000 -0.8315
vn -0.3827 -0.0000 -0.9239
vn 0.9120 0.3679 -0.1814
vn 0.8591 0.3679 -0.3558
vn -0.1951 -0.0000 -0.9808
vn -0.0000 -1.0000 -0.0000
vn -0.0000 0.3679 0.9299
vn 0.1814 0.3679 0.9120
vn -0.9120 0.3679 -0.1814
vn -0.9299 0.3679 -0.0000
vn 0.5166 0.3679 -0.7732
vn 0.3558 0.3679 -0.8591
vn 0.6575 0.3679 0.6575
vn 0.7732 0.3679 0.5166
vn -0.7732 0.3679 0.5166
vn -0.6575 0.3679 0.6575
vn -0.3558 0.3679 -0.8591
vn -0.5166 0.3679 -0.7732
vn 0.9299 0.3679 -0.0000
vn -0.1814 0.3679 0.9120
vn -0.8591 0.3679 -0.3558
vn 0.6575 0.3679 -0.6575
vn 0.5166 0.3679 0.7732
vn -0.8591 0.3679 0.3558
vn -0.1814 0.3679 -0.9120
vn 0.9120 0.3679 0.1814
vn -0.3558 0.3679 0.8591
vn -0.7732 0.3679 -0.5166
vn 0.7732 0.3679 -0.5166
vn 0.3558 0.3679 0.8591
vn -0.9120 0.3679 0.1814
vn 0.1814 0.3679 -0.9120
vn -0.0000 0.3679 -0.9299
vn 0.8591 0.3679 0.3558
vn -0.5166 0.3679 0.7732
vn -0.6575 0.3679 -0.6575
vn -0.0000 0.7645 -0.6447
vn -0.1258 0.7645 -0.6323
vn -0.0943 0.8756 -0.4738
vn -0.0000 0.8756 -0.4831
vn 0.0001 -1.0000 -0.0000
vn -0.0001 -1.0000 -0.0000
vn -0.4463 0.8756 0.1849
vn -0.4017 0.8756 0.2684
vn -0.0000 1.0000 -0.0000
vn -0.3582 0.7645 0.5360
vn -0.2467 0.7645 0.5956
vn -0.1849 0.8756 0.4463
vn -0.2684 0.8756 0.4017
vn 0.5956 0.7645 -0.2467
vn 0.5360 0.7645 -0.3582
vn 0.4017 0.8756 -0.2684
vn 0.4463 0.8756 -0.1849
vn -0.4558 0.7645 0.4558
vn -0.3416 0.8756 0.3416
vn 0.6323 0.7645 -0.1258
vn 0.4738 0.8756 -0.0943
vn -0.5360 0.7645 0.3582
vn 0.6447 0.7645 -0.0000
vn 0.4831 0.8756 -0.0000
vn -0.5956 0.7645 0.2467
vn 0.6323 0.7645 0.1258
vn 0.4738 0.8756 0.0943
vn -0.6323 0.7645 0.1258
vn -0.4738 0.8756 0.0943
vn 0.5956 0.7645 0.2467
vn 0.4463 0.8756 0.1849
vn -0.6447 0.7645 -0.0000
vn -0.4831 0.8756 -0.0000
vn 0.5360 0.7645 0.3582
vn 0.4017 0.8756 0.2684
vn -0.6323 0.7645 -0.1258
vn -0.4738 0.8756 -0.0943
vn 0.4559 0.7645 0.4559
vn 0.3416 0.8756 0.3416
vn -0.5956 0.7645 -0.2467
vn -0.4463 0.8756 -0.1849
vn 0.3582 0.7645 0.5360
vn 0.2684 0.8756 0.4017
vn -0.5360 0.7645 -0.3582
vn -0.4017 0.8756 -0.2684
vn 0.2467 0.7645 0.5956
vn 0.1849 0.8756 0.4463
vn 0.1258 0.7645 -0.6323
vn 0.0943 0.8756 -0.4738
vn -0.4558 0.7645 -0.4558
vn -0.3416 0.8756 -0.3416
vn 0.1258 0.7645 0.6323
vn 0.0943 0.8756 0.4738
vn 0.2467 0.7645 -0.5956
vn 0.1849 0.8756 -0.4463
vn -0.3582 0.7645 -0.5360
vn -0.2684 0.8756 -0.4017
vn -0.0000 0.7645 0.6447
vn -0.0000 0.8756 0.4831
vn 0.3582 0.7645 -0.5360
vn 0.2684 0.8756 -0.4017
vn -0.2467 0.7645 -0.5956
vn -0.1849 0.8756 -0.4463
vn -0.1258 0.7645 0.6323
vn -0.0942 0.8756 0.4738
vn 0.4559 0.7645 -0.4559
vn 0.3416 0.8756 -0.3416
vn -0.3559 0.3679 0.8591
vn -0.3559 0.3679 -0.8591
vt 1.000000 0.500000
vt 1.000000 1.000000
vt 0.968750 1.000000
vt 0.968750 0.500000
vt 0.937500 1.000000
vt 0.937500 0.500000
vt 0.906250 1.000000
vt 0.906250 0.500000
vt 0.875000 1.000000
vt 0.875000 0.500000
vt 0.843750 1.000000
vt 0.843750 0.500000
vt 0.812500 1.000000
vt 0.812500 0.500000
vt 0.781250 1.000000
vt 0.781250 0.500000
vt 0.750000 1.000000
vt 0.750000 0.500000
vt 0.718750 1.000000
vt 0.718750 0.500000
vt 0.687500 1.000000
vt 0.687500 0.500000
vt 0.656250 1.000000
vt 0.656250 0.500000
vt 0.625000 1.000000
vt 0.625000 0.500000
vt 0.593750 1.000000
vt 0.593750 0.500000
vt 0.562500 1.000000
vt 0.562500 0.500000
vt 0.531250 1.000000
vt 0.531250 0.500000
vt 0.500000 1.000000
vt 0.500000 0.500000
vt 0.468750 1.000000
vt 0.468750 0.500000
vt 0.437500 1.000000
vt 0.437500 0.500000
vt 0.406250 1.000000
vt 0.406250 0.500000
vt 0.375000 1.000000
vt 0.375000 0.500000
vt 0.343750 1.000000
vt 0.343750 0.500000
vt 0.312500 1.000000
vt 0.312500 0.500000
vt 0.281250 1.000000
vt 0.281250 0.500000
vt 0.250000 1.000000
vt 0.250000 0.500000
vt 0.218750 1.000000
vt 0.218750 0.500000
vt 0.187500 1.000000
vt 0.187500 0.500000
vt 0.156250 1.000000
vt 0.156250 0.500000
vt 0.125000 1.000000
vt 0.125000 0.500000
vt 0.093750 1.000000
vt 0.093750 0.500000
vt 0.062500 1.000000
vt 0.062500 0.500000
vt 0.031250 1.000000
vt 0.031250 0.500000
vt 0.000000 1.000000
vt 0.000000 0.500000
vt 0.468750 1.000000
vt 0.718750 1.000000
vt 0.406250 1.000000
vt 0.687500 1.000000
vt 0.656250 1.000000
vt 0.937500 1.000000
vt 0.968750 1.000000
vt 0.843750 1.000000
vt 0.812500 1.000000
vt 0.343750 1.000000
vt 0.750000 0.414095
vt 0.750000 0.490000
vt 0.796822 0.485388
vt 0.782013 0.410942
vt 0.841844 0.471731
vt 0.812797 0.401604
vt 0.883337 0.449553
vt 0.841167 0.386440
vt 0.919706 0.419706
vt 0.866033 0.366033
vt 0.949553 0.383337
vt 0.886440 0.341167
vt 0.971731 0.341844
vt 0.901604 0.312797
vt 0.985388 0.296822
vt 0.910943 0.282013
vt 0.990000 0.250000
vt 0.914095 0.250000
vt 0.985388 0.203178
vt 0.910942 0.217987
vt 0.971731 0.158156
vt 0.901604 0.187203
vt 0.949553 0.116663
vt 0.886440 0.158833
vt 0.919706 0.080294
vt 0.866033 0.133967
vt 0.883337 0.050447
vt 0.841167 0.113560
vt 0.841844 0.028269
vt 0.812797 0.098396
vt 0.796822 0.014612
vt 0.782013 0.089058
vt 0.750000 0.010000
vt 0.750000 0.085905
vt 0.703178 0.014612
vt 0.717987 0.089058
vt 0.658156 0.028269
vt 0.687204 0.098396
vt 0.616663 0.050447
vt 0.658833 0.113560
vt 0.580294 0.080294
vt 0.633967 0.133967
vt 0.550447 0.116663
vt 0.613560 0.158833
vt 0.528269 0.158156
vt 0.598396 0.187203
vt 0.514612 0.203178
vt 0.589058 0.217987
vt 0.510000 0.250000
vt 0.585905 0.250000
vt 0.514612 0.296822
vt 0.589058 0.282013
vt 0.528269 0.341844
vt 0.598396 0.312797
vt 0.550447 0.383337
vt 0.613560 0.341167
vt 0.580294 0.419706
vt 0.633967 0.366033
vt 0.616663 0.449553
vt 0.658834 0.386440
vt 0.658156 0.471731
vt 0.687203 0.401604
vt 0.703178 0.485388
vt 0.717987 0.410942
s 1
f 323/1/1 1/2/1 2/3/2 324/4/2
f 324/4/2 2/3/2 3/5/3 325/6/3
f 325/6/3 3/5/3 4/7/4 326/8/4
f 326/8/4 4/7/4 5/9/5 327/10/5
f 327/10/5 5/9/5 6/11/6 328/12/6
f 328/12/6 6/11/6 7/13/7 329/14/7
f 329/14/7 7/13/7 8/15/8 330/16/8
f 330/16/8 8/15/8 9/17/9 331/18/9
f 331/18/9 9/17/9 10/19/10 332/20/10
f 332/20/10 10/19/10 11/21/11 333/22/11
f 333/22/11 11/21/11 12/23/12 334/24/12
f 334/24/12 12/23/12 13/25/13 335/26/13
f 335/26/13 13/25/13 14/27/14 336/28/14
f 336/28/14 14/27/14 15/29/15 337/30/15
f 337/30/15 15/29/15 16/31/16 338/32/16
f 338/32/16 16/31/16 17/33/17 339/34/17
f 339/34/17 17/33/17 18/35/18 340/36/18
f 340/36/18 18/35/18 19/37/19 341/38/19
f 341/38/19 19/37/19 20/39/20 342/40/20
f 342/40/20 20/39/20 21/41/21 343/42/21
f 343/42/21 21/41/21 22/43/22 344/44/22
f 344/44/22 22/43/22 23/45/23 345/46/23
f 345/46/23 23/45/23 24/47/24 346/48/24
f 346/48/24 24/47/24 25/49/25 347/50/25
f 347/50/25 25/49/25 26/51/26 348/52/26
f 348/52/26 26/51/26 27/53/27 349/54/27
f 349/54/27 27/53/27 28/55/28 350/56/28
f 350/56/28 28/55/28 29/57/29 351/58/29
f 351/58/29 29/57/29 30/59/30 352/60/30
f 352/60/30 30/59/30 31/61/31 353/62/31
f 137/15/32 136/13/33 40/13/33 41/15/32
f 353/62/31 31/61/31 33/63/34 354/64/34
f 354/64/34 33/63/34 1/65/1 323/66/1
f 63/59/35 62/57/35 94/57/35 95/59/35
f 149/33/36 148/31/37 49/31/37 50/33/36
f 161/51/38 160/49/39 58/49/39 59/51/38
f 173/7/40 172/5/41 36/5/41 37/7/40
f 185/25/42 184/23/43 45/23/43 46/25/42
f 197/43/44 196/41/45 54/41/45 55/43/44
f 209/61/46 208/59/47 63/59/47 64/61/46
f 215/17/48 137/15/32 41/15/32 42/17/48
f 221/67/49 149/33/36 50/33/36 51/35/49
f 227/53/50 161/51/38 59/51/38 60/53/50
f 233/9/51 173/7/40 37/7/40 38/9/51
f 239/27/52 185/25/42 46/25/42 47/27/52
f 245/45/53 197/43/44 55/43/44 56/45/53
f 251/63/54 209/61/46 64/61/46 65/63/54
f 257/68/55 215/17/48 42/17/48 43/19/55
f 263/37/56 221/67/49 51/35/49 52/37/56
f 269/55/57 227/53/50 60/53/50 61/55/57
f 275/11/58 233/9/51 38/9/51 39/11/58
f 281/29/59 239/27/52 47/27/52 48/29/59
f 287/47/60 245/45/53 56/45/53 57/47/60
f 299/3/61 298/2/62 34/2/62 35/3/61
f 298/65/62 251/63/54 65/63/54 34/65/62
f 305/21/63 257/68/55 43/19/55 44/21/63
f 311/39/64 263/37/56 52/37/56 53/39/64
f 317/57/65 269/55/57 61/55/57 62/57/65
f 136/13/33 275/11/58 39/11/58 40/13/33
f 148/31/37 281/29/59 48/29/59 49/31/37
f 160/49/39 287/47/60 57/47/60 58/49/39
f 172/5/41 299/3/61 35/3/61 36/5/41
f 184/23/43 305/21/63 44/21/63 45/23/43
f 196/41/45 311/39/64 53/39/64 54/41/45
f 208/59/47 317/57/65 62/57/65 63/59/47
f 66/65/66 97/63/67 129/63/68 98/65/69
f 50/33/35 49/31/35 81/31/35 82/33/35
f 37/7/35 36/5/35 68/5/35 69/7/35
f 64/61/35 63/59/35 95/59/35 96/61/35
f 51/35/35 50/33/35 82/33/35 83/35/35
f 38/9/35 37/7/35 69/7/35 70/9/35
f 65/63/35 64/61/35 96/61/35 97/63/35
f 52/37/35 51/35/35 83/35/35 84/37/35
f 39/11/35 38/9/35 70/9/35 71/11/35
f 34/65/35 65/63/35 97/63/35 66/65/35
f 53/39/35 52/37/35 84/37/35 85/39/35
f 40/13/35 39/11/35 71/11/35 72/13/35
f 54/41/35 53/39/35 85/39/35 86/41/35
f 41/15/35 40/13/35 72/13/35 73/15/35
f 55/43/35 54/41/35 86/41/35 87/43/35
f 42/17/70 41/15/35 73/15/35 74/17/70
f 56/45/35 55/43/35 87/43/35 88/45/35
f 43/19/35 42/17/70 74/17/70 75/19/35
f 57/47/35 56/45/35 88/45/35 89/47/35
f 44/21/35 43/19/35 75/19/35 76/21/35
f 58/49/71 57/47/35 89/47/35 90/49/71
f 45/23/35 44/21/35 76/21/35 77/23/35
f 59/51/35 58/49/71 90/49/71 91/51/35
f 46/25/35 45/23/35 77/23/35 78/25/35
f 60/53/35 59/51/35 91/51/35 92/53/35
f 47/27/35 46/25/35 78/25/35 79/27/35
f 61/55/35 60/53/35 92/53/35 93/55/35
f 48/29/35 47/27/35 79/27/35 80/29/35
f 35/3/35 34/2/35 66/2/35 67/3/35
f 62/57/35 61/55/35 93/55/35 94/57/35
f 49/31/35 48/29/35 80/29/35 81/31/35
f 36/5/35 35/3/35 67/3/35 68/5/35
f 120/45/72 119/43/73 130/45/74
f 85/39/75 84/37/76 116/37/77 117/39/78
f 72/13/79 71/11/80 103/11/81 104/13/82
f 86/41/83 85/39/75 117/39/78 118/41/84
f 73/15/85 72/13/79 104/13/82 105/15/86
f 87/43/87 86/41/83 118/41/84 119/43/73
f 74/17/88 73/15/85 105/15/86 106/17/89
f 88/45/90 87/43/87 119/43/73 120/45/72
f 75/19/91 74/17/88 106/17/89 107/19/92
f 89/47/93 88/45/90 120/45/72 121/47/94
f 76/21/95 75/19/91 107/19/92 108/21/96
f 90/49/97 89/47/93 121/47/94 122/49/98
f 77/23/99 76/21/95 108/21/96 109/23/100
f 91/51/101 90/49/97 122/49/98 123/51/102
f 78/25/103 77/23/99 109/23/100 110/25/104
f 92/53/105 91/51/101 123/51/102 124/53/106
f 79/27/107 78/25/103 110/25/104 111/27/108
f 93/55/109 92/53/105 124/53/106 125/55/110
f 80/29/111 79/27/107 111/27/108 112/29/112
f 67/3/113 66/2/66 98/2/69 99/3/114
f 94/57/115 93/55/109 125/55/110 126/57/116
f 81/31/117 80/29/111 112/29/112 113/31/118
f 68/5/119 67/3/113 99/3/114 100/5/120
f 95/59/121 94/57/115 126/57/116 127/59/122
f 82/33/123 81/31/117 113/31/118 114/33/124
f 69/7/125 68/5/119 100/5/120 101/7/126
f 96/61/127 95/59/121 127/59/122 128/61/128
f 83/35/129 82/33/123 114/33/124 115/35/130
f 70/9/131 69/7/125 101/7/126 102/9/132
f 97/63/67 96/61/127 128/61/128 129/63/68
f 84/37/76 83/35/129 115/35/130 116/37/77
f 71/11/80 70/9/131 102/9/132 103/11/81
f 107/19/92 106/17/89 130/19/74
f 121/47/94 120/45/72 130/47/74
f 108/21/96 107/19/92 130/21/74
f 122/49/98 121/47/94 130/49/74
f 109/23/100 108/21/96 130/23/74
f 123/51/102 122/49/98 130/51/74
f 110/25/104 109/23/100 130/25/74
f 124/53/106 123/51/102 130/53/74
f 111/27/108 110/25/104 130/27/74
f 125/55/110 124/53/106 130/55/74
f 112/29/112 111/27/108 130/29/74
f 99/3/114 98/2/69 130/3/74
f 126/57/116 125/55/110 130/57/74
f 113/31/118 112/29/112 130/31/74
f 100/5/120 99/3/114 130/5/74
f 127/59/122 126/57/116 130/59/74
f 114/33/124 113/31/118 130/33/74
f 101/7/126 100/5/120 130/7/74
f 128/61/128 127/59/122 130/61/74
f 115/35/130 114/33/124 130/35/74
f 102/9/132 101/7/126 130/9/74
f 129/63/68 128/61/128 130/63/74
f 116/37/77 115/35/130 130/37/74
f 103/11/81 102/9/132 130/11/74
f 98/65/69 129/63/68 130/65/74
f 117/39/78 116/37/77 130/39/74
f 104/13/82 103/11/81 130/13/74
f 118/41/84 117/39/78 130/41/74
f 105/15/86 104/13/82 130/15/74
f 119/43/73 118/41/84 130/43/74
f 106/17/89 105/15/86 130/17/74
f 30/59/47 29/57/65 322/57/65 203/59/47
f 203/59/47 322/57/65 321/57/65 204/59/47
f 204/59/47 321/57/65 320/57/65 205/59/47
f 205/59/47 320/57/65 319/57/65 206/59/47
f 206/59/47 319/57/65 318/57/65 207/59/47
f 207/59/47 318/57/65 317/57/65 208/59/47
f 21/41/45 20/39/64 316/39/64 191/41/45
f 191/41/45 316/39/64 315/39/64 192/41/45
f 192/41/45 315/39/64 314/69/64 193/41/45
f 193/41/45 314/69/64 313/69/64 194/41/45
f 194/41/45 313/69/64 312/39/64 195/41/45
f 195/41/45 312/39/64 311/39/64 196/41/45
f 12/23/43 11/21/63 310/21/63 179/23/43
f 179/23/43 310/21/63 309/70/63 180/23/43
f 180/23/43 309/70/63 308/70/63 181/71/43
f 181/71/43 308/70/63 307/70/63 182/71/43
f 182/71/43 307/70/63 306/70/63 183/23/43
f 183/23/43 306/70/63 305/21/63 184/23/43
f 3/5/41 2/3/61 304/3/61 167/72/41
f 167/72/41 304/3/61 303/3/61 168/72/41
f 168/72/41 303/3/61 302/73/61 169/72/41
f 169/72/41 302/73/61 301/73/61 170/72/41
f 170/72/41 301/73/61 300/3/61 171/5/41
f 171/5/41 300/3/61 299/3/61 172/5/41
f 25/49/39 24/47/60 292/47/60 155/49/39
f 155/49/39 292/47/60 291/47/60 156/49/39
f 156/49/39 291/47/60 290/47/60 157/49/39
f 157/49/39 290/47/60 289/47/60 158/49/39
f 158/49/39 289/47/60 288/47/60 159/49/39
f 159/49/39 288/47/60 287/47/60 160/49/39
f 16/31/37 15/29/59 286/29/59 143/31/37
f 143/31/37 286/29/59 285/29/59 144/31/37
f 144/31/37 285/29/59 284/29/59 145/31/37
f 145/31/37 284/29/59 283/29/59 146/31/37
f 146/31/37 283/29/59 282/29/59 147/31/37
f 147/31/37 282/29/59 281/29/59 148/31/37
f 7/13/33 6/11/58 280/11/58 131/13/33
f 131/13/33 280/11/58 279/74/58 132/13/33
f 132/13/33 279/74/58 278/11/58 133/75/33
f 133/75/33 278/11/58 277/11/58 134/75/33
f 134/75/33 277/11/58 276/11/58 135/13/33
f 135/13/33 276/11/58 275/11/58 136/13/33
f 29/57/65 28/55/57 274/55/57 322/57/65
f 322/57/65 274/55/57 273/55/57 321/57/65
f 321/57/65 273/55/57 272/55/57 320/57/65
f 320/57/65 272/55/57 271/55/57 319/57/65
f 319/57/65 271/55/57 270/55/57 318/57/65
f 318/57/65 270/55/57 269/55/57 317/57/65
f 20/39/64 19/37/56 268/37/56 316/39/64
f 316/39/64 268/37/56 267/37/56 315/39/64
f 315/39/64 267/37/56 266/37/56 314/69/64
f 314/69/64 266/37/56 265/37/56 313/69/64
f 313/69/64 265/37/56 264/37/133 312/39/64
f 312/39/64 264/37/133 263/37/56 311/39/64
f 11/21/63 10/19/55 262/19/55 310/21/63
f 310/21/63 262/19/55 261/19/55 309/70/63
f 309/70/63 261/19/55 260/68/55 308/70/63
f 308/70/63 260/68/55 259/68/55 307/70/63
f 307/70/63 259/68/55 258/68/55 306/70/63
f 306/70/63 258/68/55 257/68/55 305/21/63
f 1/65/62 33/63/54 256/63/54 293/65/62
f 293/65/62 256/63/54 255/63/54 294/65/62
f 294/65/62 255/63/54 254/63/54 295/65/62
f 295/65/62 254/63/54 253/63/54 296/65/62
f 296/65/62 253/63/54 252/63/54 297/65/62
f 297/65/62 252/63/54 251/63/54 298/65/62
f 2/3/61 1/2/62 293/2/62 304/3/61
f 304/3/61 293/2/62 294/2/62 303/3/61
f 303/3/61 294/2/62 295/2/62 302/73/61
f 302/73/61 295/2/62 296/2/62 301/73/61
f 301/73/61 296/2/62 297/2/62 300/3/61
f 300/3/61 297/2/62 298/2/62 299/3/61
f 24/47/60 23/45/53 250/45/53 292/47/60
f 292/47/60 250/45/53 249/45/53 291/47/60
f 291/47/60 249/45/53 248/45/53 290/47/60
f 290/47/60 248/45/53 247/45/53 289/47/60
f 289/47/60 247/45/53 246/45/53 288/47/60
f 288/47/60 246/45/53 245/45/53 287/47/60
f 15/29/59 14/27/52 244/27/52 286/29/59
f 286/29/59 244/27/52 243/27/52 285/29/59
f 285/29/59 243/27/52 242/27/52 284/29/59
f 284/29/59 242/27/52 241/27/52 283/29/59
f 283/29/59 241/27/52 240/27/52 282/29/59
f 282/29/59 240/27/52 239/27/52 281/29/59
f 6/11/58 5/9/51 238/9/51 280/11/58
f 280/11/58 238/9/51 237/9/51 279/74/58
f 279/74/58 237/9/51 236/9/51 278/11/58
f 278/11/58 236/9/51 235/9/51 277/11/58
f 277/11/58 235/9/51 234/9/51 276/11/58
f 276/11/58 234/9/51 233/9/51 275/11/58
f 28/55/57 27/53/50 232/53/50 274/55/57
f 274/55/57 232/53/50 231/53/50 273/55/57
f 273/55/57 231/53/50 230/53/50 272/55/57
f 272/55/57 230/53/50 229/53/50 271/55/57
f 271/55/57 229/53/50 228/53/50 270/55/57
f 270/55/57 228/53/50 227/53/50 269/55/57
f 19/37/56 18/35/49 226/35/49 268/37/56
f 268/37/56 226/35/49 225/35/49 267/37/56
f 267/37/56 225/35/49 224/67/49 266/37/56
f 266/37/56 224/67/49 223/67/49 265/37/56
f 265/37/56 223/67/49 222/67/49 264/37/133
f 264/37/133 222/67/49 221/67/49 263/37/56
f 10/19/55 9/17/48 220/17/48 262/19/55
f 262/19/55 220/17/48 219/17/48 261/19/55
f 261/19/55 219/17/48 218/17/48 260/68/55
f 260/68/55 218/17/48 217/17/48 259/68/55
f 259/68/55 217/17/48 216/17/48 258/68/55
f 258/68/55 216/17/48 215/17/48 257/68/55
f 33/63/54 31/61/46 214/61/46 256/63/54
f 256/63/54 214/61/46 213/61/46 255/63/54
f 255/63/54 213/61/46 212/61/46 254/63/54
f 254/63/54 212/61/46 211/61/134 253/63/54
f 253/63/54 211/61/134 210/61/134 252/63/54
f 252/63/54 210/61/134 209/61/46 251/63/54
f 23/45/53 22/43/44 202/43/44 250/45/53
f 250/45/53 202/43/44 201/76/44 249/45/53
f 249/45/53 201/76/44 200/76/44 248/45/53
f 248/45/53 200/76/44 199/76/44 247/45/53
f 247/45/53 199/76/44 198/76/44 246/45/53
f 246/45/53 198/76/44 197/43/44 245/45/53
f 14/27/52 13/25/42 190/25/42 244/27/52
f 244/27/52 190/25/42 189/25/42 243/27/52
f 243/27/52 189/25/42 188/25/42 242/27/52
f 242/27/52 188/25/42 187/25/42 241/27/52
f 241/27/52 187/25/42 186/25/42 240/27/52
f 240/27/52 186/25/42 185/25/42 239/27/52
f 5/9/51 4/7/40 178/7/40 238/9/51
f 238/9/51 178/7/40 177/7/40 237/9/51
f 237/9/51 177/7/40 176/7/40 236/9/51
f 236/9/51 176/7/40 175/7/40 235/9/51
f 235/9/51 175/7/40 174/7/40 234/9/51
f 234/9/51 174/7/40 173/7/40 233/9/51
f 27/53/50 26/51/38 166/51/38 232/53/50
f 232/53/50 166/51/38 165/51/38 231/53/50
f 231/53/50 165/51/38 164/51/38 230/53/50
f 230/53/50 164/51/38 163/51/38 229/53/50
f 229/53/50 163/51/38 162/51/38 228/53/50
f 228/53/50 162/51/38 161/51/38 227/53/50
f 18/35/49 17/33/36 154/33/36 226/35/49
f 226/35/49 154/33/36 153/33/36 225/35/49
f 225/35/49 153/33/36 152/33/36 224/67/49
f 224/67/49 152/33/36 151/33/36 223/67/49
f 223/67/49 151/33/36 150/33/36 222/67/49
f 222/67/49 150/33/36 149/33/36 221/67/49
f 9/17/48 8/15/32 142/15/32 220/17/48
f 220/17/48 142/15/32 141/15/32 219/17/48
f 219/17/48 141/15/32 140/15/32 218/17/48
f 218/17/48 140/15/32 139/15/32 217/17/48
f 217/17/48 139/15/32 138/15/32 216/17/48
f 216/17/48 138/15/32 137/15/32 215/17/48
f 31/61/46 30/59/47 203/59/47 214/61/46
f 214/61/46 203/59/47 204/59/47 213/61/46
f 213/61/46 204/59/47 205/59/47 212/61/46
f 212/61/46 205/59/47 206/59/47 211/61/134
f 211/61/134 206/59/47 207/59/47 210/61/134
f 210/61/134 207/59/47 208/59/47 209/61/46
f 22/43/44 21/41/45 191/41/45 202/43/44
f 202/43/44 191/41/45 192/41/45 201/76/44
f 201/76/44 192/41/45 193/41/45 200/76/44
f 200/76/44 193/41/45 194/41/45 199/76/44
f 199/76/44 194/41/45 195/41/45 198/76/44
f 198/76/44 195/41/45 196/41/45 197/43/44
f 13/25/42 12/23/43 179/23/43 190/25/42
f 190/25/42 179/23/43 180/23/43 189/25/42
f 189/25/42 180/23/43 181/71/43 188/25/42
f 188/25/42 181/71/43 182/71/43 187/25/42
f 187/25/42 182/71/43 183/23/43 186/25/42
f 186/25/42 183/23/43 184/23/43 185/25/42
f 4/7/40 3/5/41 167/72/41 178/7/40
f 178/7/40 167/72/41 168/72/41 177/7/40
f 177/7/40 168/72/41 169/72/41 176/7/40
f 176/7/40 169/72/41 170/72/41 175/7/40
f 175/7/40 170/72/41 171/5/41 174/7/40
f 174/7/40 171/5/41 172/5/41 173/7/40
f 26/51/38 25/49/39 155/49/39 166/51/38
f 166/51/38 155/49/39 156/49/39 165/51/38
f 165/51/38 156/49/39 157/49/39 164/51/38
f 164/51/38 157/49/39 158/49/39 163/51/38
f 163/51/38 158/49/39 159/49/39 162/51/38
f 162/51/38 159/49/39 160/49/39 161/51/38
f 17/33/36 16/31/37 143/31/37 154/33/36
f 154/33/36 143/31/37 144/31/37 153/33/36
f 153/33/36 144/31/37 145/31/37 152/33/36
f 152/33/36 145/31/37 146/31/37 151/33/36
f 151/33/36 146/31/37 147/31/37 150/33/36
f 150/33/36 147/31/37 148/31/37 149/33/36
f 8/15/32 7/13/33 131/13/33 142/15/32
f 142/15/32 131/13/33 132/13/33 141/15/32
f 141/15/32 132/13/33 133/75/33 140/15/32
f 140/15/32 133/75/33 134/75/33 139/15/32
f 139/15/32 134/75/33 135/13/33 138/15/32
f 138/15/32 135/13/33 136/13/33 137/15/32
f 32/77/35 323/78/35 324/79/35
f 32/80/35 324/79/35 325/81/35
f 32/82/35 325/81/35 326/83/35
f 32/84/35 326/83/35 327/85/35
f 32/86/35 327/85/35 328/87/35
f 32/88/35 328/87/35 329/89/35
f 32/90/35 329/89/35 330/91/35
f 32/92/35 330/91/35 331/93/35
f 32/94/35 331/93/35 332/95/35
f 32/96/35 332/95/35 333/97/35
f 32/98/35 333/97/35 334/99/35
f 32/100/35 334/99/35 335/101/35
f 32/102/35 335/101/35 336/103/35
f 32/104/35 336/103/35 337/105/35
f 32/106/35 337/105/35 338/107/35
f 32/108/35 338/107/35 339/109/35
f 32/110/35 339/109/35 340/111/35
f 32/112/35 340/111/35 341/113/35
f 32/114/35 341/113/35 342/115/35
f 32/116/35 342/115/35 343/117/35
f 32/118/35 343/117/35 344/119/35
f 32/120/35 344/119/35 345/121/35
f 32/122/35 345/121/35 346/123/35
f 32/124/35 346/123/35 347/125/35
f 32/126/35 347/125/35 348/127/35
f 32/128/35 348/127/35 349/129/35
f 32/130/35 349/129/35 350/131/35
f 32/132/35 350/131/35 351/133/35
f 32/134/35 351/133/35 352/135/35
f 32/136/35 352/135/35 353/137/35
f 32/138/35 353/137/35 354/139/35
f 32/140/35 354/139/35 323/78/35
