# Blender 4.5.1 LTS
# www.blender.org
o Cylinder
v 0.000000 1.000000 -0.126201
v 0.195090 0.980785 -0.126201
v 0.382683 0.923880 -0.126201
v 0.555570 0.831470 -0.126201
v 0.707107 0.707107 -0.126201
v 0.831470 0.555570 -0.126201
v 0.923879 0.382683 -0.126201
v 0.980785 0.195090 -0.126201
v 1.000000 -0.000000 -0.126201
v 0.980785 -0.195090 -0.126201
v 0.923879 -0.382683 -0.126201
v 0.831470 -0.555570 -0.126201
v 0.707107 -0.707107 -0.126201
v 0.555570 -0.831470 -0.126201
v 0.382683 -0.923880 -0.126201
v 0.195090 -0.980785 -0.126201
v 0.000000 -1.000000 -0.126201
v -0.195090 -0.980785 -0.126201
v -0.382683 -0.923880 -0.126201
v -0.555570 -0.831470 -0.126201
v -0.707107 -0.707107 -0.126201
v -0.831470 -0.555570 -0.126201
v -0.923879 -0.382683 -0.126201
v -0.980785 -0.195090 -0.126201
v -1.000000 -0.000000 -0.126201
v -0.980785 0.195090 -0.126201
v -0.923879 0.382683 -0.126201
v -0.831470 0.555570 -0.126201
v -0.707107 0.707107 -0.126201
v -0.555570 0.831470 -0.126201
v -0.382683 0.923880 -0.126201
v -0.195090 0.980785 -0.126201
v 0.000000 0.500000 -0.063603
v 0.097545 0.490393 -0.063603
v 0.191342 0.461940 -0.063603
v 0.277785 0.415735 -0.063603
v 0.353553 0.353553 -0.063603
v 0.415735 0.277785 -0.063603
v 0.461940 0.191342 -0.063603
v 0.490393 0.097545 -0.063603
v 0.500000 0.000000 -0.063603
v 0.490393 -0.097545 -0.063603
v 0.461940 -0.191342 -0.063603
v 0.415735 -0.277785 -0.063603
v 0.353553 -0.353553 -0.063603
v 0.277785 -0.415735 -0.063603
v 0.191342 -0.461940 -0.063603
v 0.097545 -0.490393 -0.063603
v 0.000000 -0.500000 -0.063603
v -0.097545 -0.490393 -0.063603
v -0.191342 -0.461940 -0.063603
v -0.277785 -0.415735 -0.063603
v -0.353553 -0.353553 -0.063603
v -0.415735 -0.277785 -0.063603
v -0.461940 -0.191342 -0.063603
v -0.490393 -0.097545 -0.063603
v -0.500000 0.000000 -0.063603
v -0.490393 0.097545 -0.063603
v -0.461940 0.191342 -0.063603
v -0.415735 0.277785 -0.063603
v -0.353553 0.353553 -0.063603
v -0.277785 0.415735 -0.063603
v -0.191342 0.461940 -0.063603
v -0.097545 0.490393 -0.063603
v 0.000000 0.043510 -0.000000
v 0.008488 0.042674 -0.000000
v 0.016650 0.040198 -0.000000
v 0.024173 0.036177 -0.000000
v 0.030766 0.030766 0.000000
v 0.036177 0.024173 0.000000
v 0.040198 0.016650 -0.000000
v 0.042674 0.008488 -0.000000
v 0.043510 0.000000 0.000000
v 0.042674 -0.008488 -0.000000
v 0.040198 -0.016650 -0.000000
v 0.036177 -0.024173 -0.000000
v 0.030766 -0.030766 -0.000000
v 0.024173 -0.036177 -0.000000
v 0.016650 -0.040198 -0.000000
v 0.008488 -0.042674 -0.000000
v 0.000000 -0.043510 -0.000000
v -0.008488 -0.042674 -0.000000
v -0.016650 -0.040198 -0.000000
v -0.024173 -0.036177 -0.000000
v -0.030766 -0.030766 -0.000000
v -0.036177 -0.024173 -0.000000
v -0.040198 -0.016650 -0.000000
v -0.042674 -0.008488 -0.000000
v -0.043510 0.000000 0.000000
v -0.042674 0.008488 -0.000000
v -0.040198 0.016650 -0.000000
v -0.036177 0.024173 0.000000
v -0.030766 0.030766 0.000000
v -0.024173 0.036177 -0.000000
v -0.016650 0.040198 -0.000000
v -0.008488 0.042674 -0.000000
vn -0.0000 0.1242 0.9923
vn 0.0242 0.1218 0.9923
vn 0.0475 0.1148 0.9923
vn 0.0690 0.1033 0.9923
vn 0.0878 0.0878 0.9923
vn 0.1033 0.0690 0.9923
vn 0.1148 0.0475 0.9923
vn 0.1218 0.0242 0.9923
vn 0.1242 -0.0000 0.9923
vn 0.1218 -0.0242 0.9923
vn 0.1148 -0.0475 0.9923
vn 0.1033 -0.0690 0.9923
vn 0.0878 -0.0878 0.9923
vn 0.0690 -0.1033 0.9923
vn 0.0475 -0.1148 0.9923
vn 0.0242 -0.1218 0.9923
vn -0.0000 -0.1242 0.9923
vn -0.0242 -0.1218 0.9923
vn -0.0475 -0.1148 0.9923
vn -0.0690 -0.1033 0.9923
vn -0.0878 -0.0878 0.9923
vn -0.1033 -0.0690 0.9923
vn -0.1148 -0.0475 0.9923
vn -0.1218 -0.0242 0.9923
vn -0.1242 -0.0000 0.9923
vn -0.1218 0.0242 0.9923
vn -0.1148 0.0475 0.9923
vn -0.1033 0.0690 0.9923
vn -0.0878 0.0878 0.9923
vn -0.0690 0.1033 0.9923
vn -0.0475 0.1148 0.9923
vn -0.0242 0.1218 0.9923
vn -0.0000 0.1307 0.9914
vn 0.0255 0.1282 0.9914
vn 0.0500 0.1207 0.9914
vn 0.0726 0.1087 0.9914
vn 0.0924 0.0924 0.9914
vn 0.1087 0.0726 0.9914
vn 0.1207 0.0500 0.9914
vn 0.1282 0.0255 0.9914
vn 0.1307 -0.0000 0.9914
vn 0.1282 -0.0255 0.9914
vn 0.1207 -0.0500 0.9914
vn 0.1087 -0.0726 0.9914
vn 0.0924 -0.0924 0.9914
vn 0.0726 -0.1087 0.9914
vn 0.0500 -0.1207 0.9914
vn 0.0255 -0.1282 0.9914
vn -0.0000 -0.1307 0.9914
vn -0.0255 -0.1282 0.9914
vn -0.0500 -0.1207 0.9914
vn -0.0726 -0.1087 0.9914
vn -0.0924 -0.0924 0.9914
vn -0.1087 -0.0726 0.9914
vn -0.1207 -0.0500 0.9914
vn -0.1282 -0.0255 0.9914
vn -0.1307 -0.0000 0.9914
vn -0.1282 0.0255 0.9914
vn -0.1207 0.0500 0.9914
vn -0.1087 0.0726 0.9914
vn -0.0924 0.0924 0.9914
vn -0.0726 0.1087 0.9914
vn -0.0500 0.1207 0.9914
vn -0.0255 0.1282 0.9914
vn -0.0000 0.1380 0.9904
vn 0.0269 0.1353 0.9904
vn 0.0528 0.1275 0.9904
vn 0.0767 0.1147 0.9904
vn 0.0976 0.0976 0.9904
vn 0.1147 0.0767 0.9904
vn 0.1275 0.0528 0.9904
vn 0.1353 0.0269 0.9904
vn 0.1380 -0.0000 0.9904
vn 0.1353 -0.0269 0.9904
vn 0.1275 -0.0528 0.9904
vn 0.1147 -0.0767 0.9904
vn 0.0976 -0.0976 0.9904
vn 0.0767 -0.1147 0.9904
vn 0.0528 -0.1275 0.9904
vn 0.0269 -0.1353 0.9904
vn -0.0000 -0.1380 0.9904
vn -0.0269 -0.1353 0.9904
vn -0.0528 -0.1275 0.9904
vn -0.0767 -0.1147 0.9904
vn -0.0976 -0.0976 0.9904
vn -0.1147 -0.0767 0.9904
vn -0.1275 -0.0528 0.9904
vn -0.1353 -0.0269 0.9904
vn -0.1380 -0.0000 0.9904
vn -0.1353 0.0269 0.9904
vn -0.1275 0.0528 0.9904
vn -0.1147 0.0767 0.9904
vn -0.0976 0.0976 0.9904
vn -0.0767 0.1147 0.9904
vn -0.0528 0.1275 0.9904
vn -0.0269 0.1353 0.9904
vt 0.402455 0.990393
vt 0.451227 0.745196
vt 0.500000 0.750000
vt 0.500000 1.000000
vt 0.308658 0.961940
vt 0.404329 0.730970
vt 0.222215 0.915735
vt 0.361107 0.707867
vt 0.146447 0.853553
vt 0.323223 0.676777
vt 0.084265 0.777785
vt 0.292133 0.638892
vt 0.038060 0.691342
vt 0.269030 0.595671
vt 0.009607 0.597545
vt 0.254804 0.548773
vt 0.000000 0.500000
vt 0.250000 0.500000
vt 0.009607 0.402455
vt 0.254804 0.451227
vt 0.038060 0.308658
vt 0.269030 0.404329
vt 0.084265 0.222215
vt 0.292133 0.361107
vt 0.146447 0.146447
vt 0.323223 0.323223
vt 0.222215 0.084265
vt 0.361107 0.292133
vt 0.308658 0.038060
vt 0.404329 0.269030
vt 0.402455 0.009607
vt 0.451227 0.254804
vt 0.500000 0.000000
vt 0.500000 0.250000
vt 0.597545 0.009607
vt 0.548773 0.254804
vt 0.691342 0.038060
vt 0.595671 0.269030
vt 0.777785 0.084265
vt 0.638893 0.292133
vt 0.853553 0.146447
vt 0.676777 0.323223
vt 0.915735 0.222215
vt 0.707868 0.361107
vt 0.961940 0.308658
vt 0.730970 0.404329
vt 0.990393 0.402455
vt 0.745196 0.451227
vt 1.000000 0.500000
vt 0.750000 0.500000
vt 0.990393 0.597545
vt 0.745196 0.548773
vt 0.961940 0.691342
vt 0.730970 0.595671
vt 0.915735 0.777785
vt 0.707868 0.638892
vt 0.853553 0.853553
vt 0.676777 0.676777
vt 0.777785 0.915735
vt 0.638893 0.707867
vt 0.691342 0.961940
vt 0.595671 0.730970
vt 0.597545 0.990393
vt 0.548773 0.745196
vt 0.491749 0.541479
vt 0.500000 0.542292
vt 0.483816 0.539073
vt 0.476504 0.535164
vt 0.470095 0.529905
vt 0.464836 0.523496
vt 0.460927 0.516184
vt 0.458521 0.508251
vt 0.457708 0.500000
vt 0.458521 0.491749
vt 0.460927 0.483816
vt 0.464836 0.476504
vt 0.470095 0.470095
vt 0.476504 0.464835
vt 0.483816 0.460927
vt 0.491749 0.458521
vt 0.500000 0.457708
vt 0.508251 0.458521
vt 0.516184 0.460927
vt 0.523496 0.464835
vt 0.529905 0.470095
vt 0.535164 0.476504
vt 0.539073 0.483816
vt 0.541479 0.491749
vt 0.542292 0.500000
vt 0.541479 0.508251
vt 0.539073 0.516184
vt 0.535164 0.523496
vt 0.529905 0.529905
vt 0.523496 0.535164
vt 0.516184 0.539073
vt 0.508251 0.541479
s 1
f 32/1/32 64/2/64 33/3/33 1/4/1
f 31/5/31 63/6/63 64/2/64 32/1/32
f 30/7/30 62/8/62 63/6/63 31/5/31
f 29/9/29 61/10/61 62/8/62 30/7/30
f 28/11/28 60/12/60 61/10/61 29/9/29
f 27/13/27 59/14/59 60/12/60 28/11/28
f 26/15/26 58/16/58 59/14/59 27/13/27
f 25/17/25 57/18/57 58/16/58 26/15/26
f 24/19/24 56/20/56 57/18/57 25/17/25
f 23/21/23 55/22/55 56/20/56 24/19/24
f 22/23/22 54/24/54 55/22/55 23/21/23
f 21/25/21 53/26/53 54/24/54 22/23/22
f 20/27/20 52/28/52 53/26/53 21/25/21
f 19/29/19 51/30/51 52/28/52 20/27/20
f 18/31/18 50/32/50 51/30/51 19/29/19
f 17/33/17 49/34/49 50/32/50 18/31/18
f 16/35/16 48/36/48 49/34/49 17/33/17
f 15/37/15 47/38/47 48/36/48 16/35/16
f 14/39/14 46/40/46 47/38/47 15/37/15
f 13/41/13 45/42/45 46/40/46 14/39/14
f 12/43/12 44/44/44 45/42/45 13/41/13
f 11/45/11 43/46/43 44/44/44 12/43/12
f 10/47/10 42/48/42 43/46/43 11/45/11
f 9/49/9 41/50/41 42/48/42 10/47/10
f 8/51/8 40/52/40 41/50/41 9/49/9
f 7/53/7 39/54/39 40/52/40 8/51/8
f 6/55/6 38/56/38 39/54/39 7/53/7
f 5/57/5 37/58/37 38/56/38 6/55/6
f 4/59/4 36/60/36 37/58/37 5/57/5
f 3/61/3 35/62/35 36/60/36 4/59/4
f 2/63/2 34/64/34 35/62/35 3/61/3
f 1/4/1 33/3/33 34/64/34 2/63/2
f 64/2/64 96/65/96 65/66/65 33/3/33
f 63/6/63 95/67/95 96/65/96 64/2/64
f 62/8/62 94/68/94 95/67/95 63/6/63
f 61/10/61 93/69/93 94/68/94 62/8/62
f 60/12/60 92/70/92 93/69/93 61/10/61
f 59/14/59 91/71/91 92/70/92 60/12/60
f 58/16/58 90/72/90 91/71/91 59/14/59
f 57/18/57 89/73/89 90/72/90 58/16/58
f 56/20/56 88/74/88 89/73/89 57/18/57
f 55/22/55 87/75/87 88/74/88 56/20/56
f 54/24/54 86/76/86 87/75/87 55/22/55
f 53/26/53 85/77/85 86/76/86 54/24/54
f 52/28/52 84/78/84 85/77/85 53/26/53
f 51/30/51 83/79/83 84/78/84 52/28/52
f 50/32/50 82/80/82 83/79/83 51/30/51
f 49/34/49 81/81/81 82/80/82 50/32/50
f 48/36/48 80/82/80 81/81/81 49/34/49
f 47/38/47 79/83/79 80/82/80 48/36/48
f 46/40/46 78/84/78 79/83/79 47/38/47
f 45/42/45 77/85/77 78/84/78 46/40/46
f 44/44/44 76/86/76 77/85/77 45/42/45
f 43/46/43 75/87/75 76/86/76 44/44/44
f 42/48/42 74/88/74 75/87/75 43/46/43
f 41/50/41 73/89/73 74/88/74 42/48/42
f 40/52/40 72/90/72 73/89/73 41/50/41
f 39/54/39 71/91/71 72/90/72 40/52/40
f 38/56/38 70/92/70 71/91/71 39/54/39
f 37/58/37 69/93/69 70/92/70 38/56/38
f 36/60/36 68/94/68 69/93/69 37/58/37
f 35/62/35 67/95/67 68/94/68 36/60/36
f 34/64/34 66/96/66 67/95/67 35/62/35
f 33/3/33 65/66/65 66/96/66 34/64/34
