# Blender 4.5.1 LTS
# www.blender.org
mtllib AuburnV12f.mtl
o Cylinder.003
v -0.012372 0.031385 0.012203
v -0.012396 0.050558 0.012110
v -0.012388 0.031622 0.008308
v -0.012431 0.050484 0.003307
v 0.013674 0.031333 0.011968
v 0.013679 0.050562 0.011875
v 0.013675 0.031283 0.007843
v 0.013682 0.050659 0.002705
v 0.021444 0.120017 0.008312
v 0.013686 0.120027 0.009453
v 0.013646 0.120012 0.011893
v 0.022196 0.120000 0.010553
v 0.022252 0.031386 0.010623
v 0.022227 0.050562 0.010535
v 0.020850 0.031327 0.006725
v 0.019001 0.050553 0.001912
v 0.029847 0.031387 0.006424
v 0.029757 0.050562 0.006372
v 0.027160 0.031329 0.003281
v 0.024045 0.050545 -0.000838
v 0.035463 0.031345 -0.000182
v 0.035356 0.050562 -0.000213
v 0.031777 0.031292 -0.002296
v 0.027407 0.050600 -0.004932
v 0.051413 0.031508 -0.027039
v 0.051338 0.050566 -0.027123
v 0.048167 0.031461 -0.028943
v 0.043823 0.050588 -0.031531
v 0.029794 0.119999 0.006352
v 0.028167 0.120015 0.004647
v 0.035395 0.120027 -0.000236
v 0.033162 0.120041 -0.001444
v 0.000027 0.119994 0.009774
v -0.012383 0.107497 0.008853
v -0.004711 0.119037 0.009794
v -0.008739 0.116326 0.009625
v -0.011437 0.112271 0.009295
v -0.012370 0.107572 0.012124
v 0.000003 0.119980 0.012016
v -0.011432 0.112306 0.012117
v -0.008758 0.116322 0.012094
v -0.004747 0.119020 0.012059
v 0.045026 0.119977 -0.016451
v 0.051335 0.107577 -0.027083
v 0.047451 0.119015 -0.020536
v 0.049496 0.116318 -0.023981
v 0.050858 0.112307 -0.026277
v 0.048561 0.107476 -0.028711
v 0.043088 0.119990 -0.017536
v 0.048465 0.112254 -0.027674
v 0.047387 0.116315 -0.025177
v 0.045496 0.119031 -0.021614
v -0.012390 0.020497 0.008260
v -0.002360 0.010453 0.008037
v -0.009451 0.013392 0.008176
v 0.003639 0.010454 0.007931
v 0.013665 0.020476 0.007796
v 0.010728 0.013391 0.007817
v -0.002358 0.010455 0.012069
v -0.012374 0.020478 0.012180
v -0.009443 0.013391 0.012139
v 0.013664 0.020477 0.011946
v 0.003641 0.010456 0.012015
v 0.010728 0.013392 0.011957
v -0.004000 0.016920 0.013934
v -0.004000 0.016920 0.011990
v 0.005000 0.016920 0.011990
v 0.005000 0.016920 0.013934
v 0.003316 0.015948 0.011990
v 0.003316 0.015948 0.013934
v 0.003316 0.014003 0.011990
v 0.003316 0.014003 0.013934
v 0.005000 0.013031 0.011990
v 0.005000 0.013031 0.013934
v 0.006684 0.014003 0.011990
v 0.006684 0.014003 0.013934
v 0.006684 0.015948 0.011990
v 0.006684 0.015948 0.013934
v -0.005684 0.015948 0.011990
v -0.005684 0.015948 0.013934
v -0.005684 0.014003 0.011990
v -0.005684 0.014003 0.013934
v -0.004000 0.013031 0.011990
v -0.004000 0.013031 0.013934
v -0.002316 0.014003 0.011990
v -0.002316 0.014003 0.013934
v -0.002316 0.015948 0.011990
v -0.002316 0.015948 0.013934
v -0.033667 -0.002065 0.012203
v -0.051910 0.003838 0.012110
v -0.033897 -0.002006 0.008308
v -0.051849 0.003781 0.003307
v -0.025569 0.022691 0.011968
v -0.043855 0.028637 0.011875
v -0.025521 0.022677 0.007843
v -0.043947 0.028670 0.002705
v -0.107511 0.057486 0.008312
v -0.109918 0.050110 0.009453
v -0.109916 0.050068 0.011893
v -0.107263 0.058196 0.010553
v -0.022968 0.030865 0.010623
v -0.041214 0.036768 0.010535
v -0.023346 0.029513 0.006725
v -0.042202 0.033696 0.001912
v -0.020623 0.038089 0.006425
v -0.038887 0.043929 0.006372
v -0.021398 0.035515 0.003281
v -0.040636 0.038491 -0.000838
v -0.018847 0.043417 -0.000182
v -0.037156 0.049253 -0.000213
v -0.019936 0.039895 -0.002295
v -0.039650 0.041705 -0.004932
v -0.014073 0.058637 -0.027039
v -0.032221 0.064454 -0.027123
v -0.015032 0.055535 -0.028943
v -0.034565 0.057315 -0.031531
v -0.104914 0.065422 0.006352
v -0.105432 0.063878 0.004647
v -0.103209 0.070757 -0.000236
v -0.103913 0.068637 -0.001444
v -0.114108 0.037109 0.009774
v -0.106057 0.021445 0.008853
v -0.114662 0.032308 0.009794
v -0.113328 0.027639 0.009625
v -0.110306 0.023820 0.009295
v -0.106125 0.021480 0.012124
v -0.114102 0.037083 0.012016
v -0.110337 0.023836 0.012117
v -0.113330 0.027620 0.012094
v -0.114657 0.032268 0.012059
v -0.100186 0.079900 -0.016451
v -0.086443 0.082070 -0.027083
v -0.098522 0.081910 -0.020536
v -0.095324 0.083021 -0.023981
v -0.091089 0.083078 -0.026277
v -0.087204 0.079400 -0.028711
v -0.100797 0.078062 -0.017536
v -0.091778 0.080785 -0.027674
v -0.095974 0.081014 -0.025177
v -0.099141 0.080056 -0.021614
v -0.023317 -0.005446 0.008260
v -0.010666 0.000990 0.008037
v -0.015652 -0.004847 0.008176
v -0.008812 0.006695 0.007931
v -0.015246 0.019328 0.007796
v -0.009415 0.014345 0.007817
v -0.010667 0.000992 0.012069
v -0.023294 -0.005436 0.012180
v -0.015648 -0.004839 0.012139
v -0.015247 0.019327 0.011946
v -0.008814 0.006697 0.012015
v -0.009416 0.014345 0.011957
v -0.017322 0.001428 0.013934
v -0.017322 0.001428 0.011990
v -0.014541 0.009987 0.011990
v -0.014541 0.009987 0.013934
v -0.014137 0.008086 0.011990
v -0.014137 0.008086 0.013934
v -0.012288 0.007485 0.011990
v -0.012288 0.007485 0.013934
v -0.010843 0.008786 0.011990
v -0.010843 0.008786 0.013934
v -0.011248 0.010688 0.011990
v -0.011248 0.010688 0.013934
v -0.013097 0.011288 0.011990
v -0.013097 0.011288 0.013934
v -0.016918 -0.000474 0.011990
v -0.016918 -0.000474 0.013934
v -0.015069 -0.001074 0.011990
v -0.015069 -0.001074 0.013934
v -0.013625 0.000226 0.011990
v -0.013625 0.000226 0.013934
v -0.014029 0.002128 0.011990
v -0.014029 0.002128 0.013934
v -0.015878 0.002729 0.011990
v -0.015878 0.002729 0.013934
v -0.008435 -0.032653 0.012203
v -0.019686 -0.048179 0.012110
v -0.008561 -0.032855 0.008308
v -0.019613 -0.048140 0.003307
v -0.029477 -0.017302 0.011969
v -0.040783 -0.032855 0.011875
v -0.029448 -0.017261 0.007843
v -0.040842 -0.032933 0.002705
v -0.087890 -0.084481 0.008312
v -0.081619 -0.089050 0.009454
v -0.081578 -0.089061 0.011893
v -0.088489 -0.084026 0.010553
v -0.036447 -0.012303 0.010623
v -0.047699 -0.027831 0.010535
v -0.035278 -0.013079 0.006725
v -0.045083 -0.029720 0.001912
v -0.042592 -0.007840 0.006425
v -0.053791 -0.023405 0.006372
v -0.040384 -0.009372 0.003281
v -0.049159 -0.026749 -0.000838
v -0.047111 -0.004504 -0.000182
v -0.058319 -0.020114 -0.000213
v -0.044098 -0.006628 -0.002295
v -0.051911 -0.024818 -0.004932
v -0.060111 0.004739 -0.027039
v -0.071252 -0.010723 -0.027123
v -0.057457 0.002869 -0.028943
v -0.065186 -0.015158 -0.031531
v -0.094635 -0.079559 0.006352
v -0.093327 -0.080529 0.004647
v -0.099182 -0.076289 -0.000236
v -0.097384 -0.077614 -0.001444
v -0.070549 -0.097052 0.009774
v -0.053163 -0.094236 0.008853
v -0.066154 -0.099063 0.009794
v -0.061301 -0.099237 0.009625
v -0.056735 -0.097542 0.009295
v -0.053218 -0.094289 0.012125
v -0.070522 -0.097054 0.012016
v -0.056760 -0.097567 0.012117
v -0.061284 -0.099244 0.012094
v -0.066115 -0.099070 0.012059
v -0.106944 -0.070588 -0.016451
v -0.104760 -0.056848 -0.027083
v -0.108341 -0.068384 -0.020536
v -0.108410 -0.065000 -0.023981
v -0.107155 -0.060955 -0.026277
v -0.102456 -0.058397 -0.028711
v -0.105384 -0.071737 -0.017536
v -0.105187 -0.062319 -0.027674
v -0.106701 -0.066238 -0.025177
v -0.106769 -0.069546 -0.021614
v -0.002021 -0.023855 0.008260
v -0.004232 -0.009834 0.008037
v -0.000222 -0.016380 0.008176
v -0.009086 -0.006308 0.007931
v -0.023088 -0.008523 0.007796
v -0.016547 -0.004517 0.007817
v -0.004235 -0.009835 0.012069
v -0.002023 -0.023830 0.012180
v -0.000229 -0.016374 0.012139
v -0.023087 -0.008525 0.011946
v -0.009088 -0.006309 0.012015
v -0.016547 -0.004519 0.011957
v -0.006706 -0.016030 0.013934
v -0.006706 -0.016030 0.011990
v -0.013987 -0.010740 0.011990
v -0.013987 -0.010740 0.013934
v -0.012054 -0.010943 0.011990
v -0.012054 -0.010943 0.013934
v -0.010911 -0.009370 0.011990
v -0.010911 -0.009370 0.013934
v -0.011702 -0.007594 0.011990
v -0.011702 -0.007594 0.013934
v -0.013635 -0.007391 0.011990
v -0.013635 -0.007391 0.013934
v -0.014778 -0.008964 0.011990
v -0.014778 -0.008964 0.013934
v -0.004772 -0.016233 0.011990
v -0.004772 -0.016233 0.013934
v -0.003630 -0.014660 0.011990
v -0.003630 -0.014660 0.013934
v -0.004420 -0.012884 0.011990
v -0.004420 -0.012884 0.013934
v -0.006354 -0.012681 0.011990
v -0.006354 -0.012681 0.013934
v -0.007497 -0.014254 0.011990
v -0.007497 -0.014254 0.013934
v 0.028454 -0.018109 0.012203
v 0.039743 -0.033607 0.012110
v 0.028606 -0.018291 0.008308
v 0.039728 -0.033526 0.003307
v 0.007351 -0.033377 0.011969
v 0.018650 -0.048936 0.011875
v 0.007321 -0.033337 0.007843
v 0.018705 -0.049016 0.002705
v 0.053192 -0.109690 0.008312
v 0.059475 -0.105139 0.009454
v 0.059498 -0.105103 0.011893
v 0.052574 -0.110119 0.010553
v 0.000443 -0.038461 0.010623
v 0.011734 -0.053961 0.010535
v 0.001543 -0.037590 0.006725
v 0.014339 -0.052057 0.001912
v -0.005701 -0.042927 0.006425
v 0.005642 -0.058387 0.006372
v -0.003561 -0.041300 0.003281
v 0.010254 -0.055016 -0.000838
v -0.010269 -0.046193 -0.000182
v 0.001113 -0.061677 -0.000213
v -0.007318 -0.043984 -0.002295
v 0.007567 -0.057036 -0.004932
v -0.023078 -0.055700 -0.027039
v -0.011814 -0.071074 -0.027123
v -0.020479 -0.053755 -0.028943
v -0.005722 -0.066676 -0.031531
v 0.046426 -0.114584 0.006352
v 0.047753 -0.113640 0.004648
v 0.041912 -0.117899 -0.000236
v 0.043727 -0.116598 -0.001444
v 0.070506 -0.097084 0.009774
v 0.073200 -0.079678 0.008853
v 0.073777 -0.093525 0.009794
v 0.075442 -0.088963 0.009626
v 0.075241 -0.084097 0.009295
v 0.073234 -0.079747 0.012125
v 0.070517 -0.097058 0.012016
v 0.075257 -0.084128 0.012117
v 0.075454 -0.088949 0.012094
v 0.073796 -0.093489 0.012059
v 0.034091 -0.123519 -0.016451
v 0.021698 -0.117196 -0.027083
v 0.031563 -0.124167 -0.020536
v 0.028324 -0.123186 -0.023981
v 0.024864 -0.120742 -0.026277
v 0.023883 -0.115483 -0.028711
v 0.035666 -0.122391 -0.017536
v 0.026769 -0.119292 -0.027673
v 0.030029 -0.121944 -0.025177
v 0.033154 -0.123030 -0.021614
v 0.022068 -0.009290 0.008260
v 0.008050 -0.007060 0.008037
v 0.015515 -0.005269 0.008176
v 0.003197 -0.010587 0.007931
v 0.000977 -0.024588 0.007796
v -0.000812 -0.017130 0.007817
v 0.008050 -0.007063 0.012069
v 0.022044 -0.009284 0.012180
v 0.015507 -0.005274 0.012139
v 0.000978 -0.024588 0.011946
v 0.003197 -0.010589 0.012015
v -0.000811 -0.017130 0.011957
v 0.013178 -0.011327 0.013934
v 0.013178 -0.011327 0.011990
v 0.005897 -0.016617 0.011990
v 0.005897 -0.016617 0.013934
v 0.006688 -0.014841 0.011990
v 0.006688 -0.014841 0.013934
v 0.005545 -0.013269 0.011990
v 0.005545 -0.013269 0.013934
v 0.003611 -0.013472 0.011990
v 0.003611 -0.013472 0.013934
v 0.002821 -0.015248 0.011990
v 0.002821 -0.015248 0.013934
v 0.003963 -0.016821 0.011990
v 0.003963 -0.016821 0.013934
v 0.013969 -0.009551 0.011990
v 0.013969 -0.009551 0.013934
v 0.012826 -0.007979 0.011990
v 0.012826 -0.007979 0.013934
v 0.010893 -0.008182 0.011990
v 0.010893 -0.008182 0.013934
v 0.010102 -0.009958 0.011990
v 0.010102 -0.009958 0.013934
v 0.011245 -0.011531 0.011990
v 0.011245 -0.011531 0.013934
v 0.026020 0.021469 0.012203
v 0.044248 0.027417 0.012110
v 0.026241 0.021557 0.008308
v 0.044166 0.027427 0.003307
v 0.034020 -0.003319 0.011969
v 0.052309 0.002619 0.011875
v 0.033973 -0.003335 0.007843
v 0.052403 0.002646 0.002705
v 0.120764 0.016696 0.008312
v 0.118377 0.024078 0.009454
v 0.118350 0.024111 0.011893
v 0.120981 0.015976 0.010553
v 0.036721 -0.011460 0.010623
v 0.054951 -0.005511 0.010535
v 0.036232 -0.010145 0.006725
v 0.053945 -0.002445 0.001912
v 0.039069 -0.018683 0.006425
v 0.057278 -0.012673 0.006372
v 0.038183 -0.016146 0.003281
v 0.055497 -0.007245 -0.000838
v 0.040764 -0.024038 -0.000182
v 0.059007 -0.017997 -0.000213
v 0.039575 -0.020548 -0.002295
v 0.056588 -0.010425 -0.004932
v 0.045848 -0.039157 -0.027039
v 0.063950 -0.033196 -0.027123
v 0.044801 -0.036084 -0.028943
v 0.061649 -0.026042 -0.031531
v 0.123328 0.008749 0.006352
v 0.122840 0.010302 0.004648
v 0.125085 0.003431 -0.000236
v 0.124409 0.005560 -0.001444
v 0.114125 0.037059 0.009774
v 0.098404 0.044999 0.008853
v 0.111751 0.041269 0.009794
v 0.107927 0.044262 0.009626
v 0.103237 0.045575 0.009295
v 0.098480 0.045010 0.012125
v 0.114104 0.037077 0.012016
v 0.103272 0.045581 0.012117
v 0.107917 0.044278 0.012094
v 0.111723 0.041298 0.012059
v 0.128014 -0.005743 -0.016451
v 0.118170 -0.015576 -0.027083
v 0.127848 -0.008347 -0.020536
v 0.125915 -0.011126 -0.023981
v 0.122522 -0.013661 -0.026277
v 0.117217 -0.012969 -0.028711
v 0.127427 -0.003897 -0.017536
v 0.121731 -0.011401 -0.027673
v 0.125260 -0.009120 -0.025177
v 0.127259 -0.006483 -0.021614
v 0.015660 0.018121 0.008260
v 0.009207 0.005478 0.008037
v 0.009811 0.013131 0.008176
v 0.011062 -0.000227 0.007931
v 0.023691 -0.006665 0.007796
v 0.016045 -0.006062 0.007818
v 0.009210 0.005477 0.012069
v 0.015647 0.018100 0.012180
v 0.009813 0.013122 0.012139
v 0.023692 -0.006664 0.011946
v 0.011064 -0.000228 0.012015
v 0.016046 -0.006061 0.011957
v 0.014850 0.009036 0.013934
v 0.014850 0.009036 0.011990
v 0.017632 0.000477 0.011990
v 0.017632 0.000477 0.013934
v 0.016187 0.001778 0.011990
v 0.016187 0.001778 0.013934
v 0.014338 0.001177 0.011990
v 0.014338 0.001177 0.013934
v 0.013934 -0.000725 0.011990
v 0.013934 -0.000725 0.013934
v 0.015378 -0.002026 0.011990
v 0.015378 -0.002026 0.013934
v 0.017227 -0.001425 0.011990
v 0.017227 -0.001425 0.013934
v 0.013406 0.010337 0.011990
v 0.013406 0.010337 0.013934
v 0.011557 0.009736 0.011990
v 0.011557 0.009736 0.013934
v 0.011152 0.007835 0.011990
v 0.011152 0.007835 0.013934
v 0.012597 0.006534 0.011990
v 0.012597 0.006534 0.013934
v 0.014446 0.007135 0.011990
v 0.014446 0.007135 0.013934
v 0.000000 0.023253 -0.027538
v -0.008908 0.021481 -0.027538
v -0.016460 0.016435 -0.027538
v -0.021506 0.008884 -0.027538
v -0.023278 -0.000025 -0.027538
v -0.021506 -0.008933 -0.027538
v -0.016460 -0.016484 -0.027538
v -0.008908 -0.021530 -0.027538
v 0.000000 -0.023302 -0.027538
v 0.008908 -0.021530 -0.027538
v 0.016460 -0.016484 -0.027538
v 0.021506 -0.008933 -0.027538
v 0.023278 -0.000025 -0.027538
v 0.021506 0.008884 -0.027538
v 0.016460 0.016435 -0.027538
v 0.008908 0.021481 -0.027538
v 0.000000 0.032161 -0.036538
v -0.012317 0.029711 -0.036538
v -0.022759 0.022734 -0.036538
v -0.029736 0.012292 -0.036538
v -0.032186 -0.000025 -0.036538
v -0.029736 -0.012341 -0.036538
v -0.022759 -0.022783 -0.036538
v -0.012317 -0.029760 -0.036538
v 0.000000 -0.032210 -0.036538
v 0.012317 -0.029760 -0.036538
v 0.022759 -0.022783 -0.036538
v 0.029736 -0.012341 -0.036538
v 0.032186 -0.000025 -0.036538
v 0.029736 0.012292 -0.036538
v 0.022759 0.022734 -0.036538
v 0.012317 0.029711 -0.036538
v 0.000000 0.037718 -0.036538
v -0.014443 0.034845 -0.036538
v -0.026688 0.026664 -0.036538
v -0.034870 0.014419 -0.036538
v -0.037743 -0.000025 -0.036538
v -0.034870 -0.014468 -0.036538
v -0.026688 -0.026713 -0.036538
v -0.014443 -0.034894 -0.036538
v 0.000000 -0.037767 -0.036538
v 0.014443 -0.034894 -0.036538
v 0.026688 -0.026713 -0.036538
v 0.034870 -0.014468 -0.036538
v 0.037743 -0.000025 -0.036538
v 0.034870 0.014419 -0.036538
v 0.026688 0.026664 -0.036538
v 0.014443 0.034845 -0.036538
v 0.000000 0.014437 -0.026538
v -0.005534 0.013336 -0.026538
v -0.010226 0.010201 -0.026538
v -0.013361 0.005510 -0.026538
v -0.014462 -0.000025 -0.026538
v -0.013361 -0.005559 -0.026538
v -0.010226 -0.010251 -0.026538
v -0.005534 -0.013385 -0.026538
v 0.000000 -0.014486 -0.026538
v 0.005534 -0.013385 -0.026538
v 0.010226 -0.010251 -0.026538
v 0.013361 -0.005559 -0.026538
v 0.014462 -0.000025 -0.026538
v 0.013361 0.005510 -0.026538
v 0.010226 0.010201 -0.026538
v 0.005534 0.013336 -0.026538
v 0.000000 0.020518 0.010739
v 0.000000 0.023253 0.008057
v -0.007861 0.018955 0.010739
v -0.008908 0.021481 0.008057
v -0.014526 0.014501 0.010739
v -0.016460 0.016435 0.008057
v -0.018979 0.007837 0.010739
v -0.021506 0.008884 0.008057
v -0.020543 -0.000025 0.010739
v -0.023278 -0.000025 0.008057
v -0.018979 -0.007886 0.010739
v -0.021506 -0.008933 0.008057
v -0.014526 -0.014550 0.010739
v -0.016460 -0.016484 0.008057
v -0.007861 -0.019004 0.010739
v -0.008908 -0.021530 0.008057
v 0.000000 -0.020567 0.010739
v 0.000000 -0.023302 0.008057
v 0.007861 -0.019004 0.010739
v 0.008908 -0.021530 0.008057
v 0.014526 -0.014550 0.010739
v 0.016460 -0.016484 0.008057
v 0.018979 -0.007886 0.010739
v 0.021506 -0.008933 0.008057
v 0.020543 -0.000025 0.010739
v 0.023278 -0.000025 0.008057
v 0.018979 0.007837 0.010739
v 0.021506 0.008884 0.008057
v 0.014526 0.014501 0.010739
v 0.016460 0.016435 0.008057
v 0.007861 0.018955 0.010739
v 0.008908 0.021481 0.008057
vn 0.0576 0.0025 0.9983
vn 0.3239 0.0048 0.9461
vn 0.3243 0.0023 0.9459
vn 0.0822 0.0023 0.9966
vn -0.0862 -0.0798 -0.9931
vn -0.3168 -0.0844 -0.9447
vn -0.3103 -0.2588 -0.9147
vn -0.0617 -0.1687 -0.9837
vn 0.8137 0.0026 0.5813
vn 0.8138 -0.0003 0.5812
vn 0.6334 -0.0001 0.7739
vn 0.6331 0.0025 0.7741
vn 1.0000 -0.0009 0.0002
vn 0.9807 -0.1956 0.0002
vn 0.9806 -0.1958 0.0002
vn 0.3242 -0.0001 0.9460
vn -0.0224 -0.0819 -0.9964
vn -0.0194 -0.1280 -0.9916
vn -1.0000 -0.0004 0.0040
vn -1.0000 -0.0003 0.0040
vn -1.0000 -0.0006 0.0040
vn -1.0000 -0.0005 0.0040
vn 0.0090 0.0023 1.0000
vn 0.0090 0.0014 1.0000
vn 0.0080 -0.9999 0.0121
vn 0.0076 -0.9999 0.0123
vn -0.0001 1.0000 0.0064
vn 0.0029 1.0000 0.0063
vn 0.0002 1.0000 0.0064
vn 0.0071 -0.9999 0.0125
vn 0.6335 0.0051 0.7737
vn -0.6357 -0.0844 -0.7673
vn -0.6141 -0.2593 -0.7454
vn 0.8138 0.0055 0.5811
vn -0.8105 -0.0806 -0.5801
vn -0.7866 -0.2548 -0.5624
vn 0.0822 -0.0002 0.9966
vn 0.0100 -0.9999 0.0075
vn 0.0104 -0.9999 0.0068
vn 0.0047 1.0000 0.0034
vn 0.0550 0.9947 -0.0867
vn 0.0532 0.9951 -0.0835
vn 0.0044 1.0000 0.0039
vn 0.0132 -0.9999 0.0018
vn 0.8598 0.0057 0.5106
vn 0.8598 0.0027 0.5106
vn -0.8482 -0.0810 -0.5235
vn -0.8228 -0.2555 -0.5077
vn -0.0236 0.0968 -0.9950
vn -0.0840 0.0965 -0.9918
vn 0.0032 1.0000 0.0064
vn -0.8104 0.0962 -0.5779
vn -0.8470 0.0965 -0.5228
vn -0.3158 0.0981 -0.9438
vn -0.0991 0.9951 0.0054
vn -0.1018 0.9948 0.0053
vn 0.0090 -0.0003 1.0000
vn -0.6345 0.0982 -0.7667
vn 0.8598 -0.0003 0.5106
vn -0.3853 0.9228 0.0008
vn -0.3885 0.9214 0.0007
vn -0.7127 0.7014 -0.0041
vn -0.7099 0.7043 -0.0041
vn -0.9286 0.3711 -0.0028
vn -0.9239 0.3826 -0.0030
vn -0.9959 0.0907 0.0019
vn -0.9951 0.0993 0.0017
vn 0.1937 0.9210 -0.3380
vn 0.1914 0.9230 -0.3338
vn 0.3497 0.7040 -0.6181
vn 0.3510 0.7014 -0.6203
vn 0.4591 0.3832 -0.8015
vn 0.4619 0.3704 -0.8059
vn 0.5008 0.0998 -0.8598
vn 0.5015 0.0902 -0.8604
vn 0.5060 -0.0018 -0.8625
vn 0.5060 -0.0005 -0.8625
vn 0.5060 -0.0006 -0.8625
vn -0.9808 -0.1951 0.0031
vn -0.9808 -0.1950 0.0031
vn 0.0090 -0.0021 1.0000
vn -0.0178 0.0044 -0.9998
vn -0.1962 -0.9806 0.0006
vn -0.3828 -0.9238 0.0007
vn -0.1929 -0.9812 0.0006
vn -0.9241 -0.3822 0.0020
vn 0.1971 -0.9804 0.0004
vn 0.3827 -0.9239 0.0003
vn 0.1942 -0.9810 0.0004
vn 0.9238 -0.3829 0.0003
vn -0.0000 -0.0000 1.0000
vn -0.5000 0.8660 -0.0000
vn 0.5000 -0.8660 -0.0000
vn -1.0000 -0.0000 -0.0000
vn -0.0000 -0.0000 -1.0000
vn -0.5000 -0.8660 -0.0000
vn 0.5000 0.8660 -0.0000
vn 1.0000 -0.0000 -0.0000
vn 0.0154 0.0556 0.9983
vn 0.0956 0.3096 0.9461
vn 0.0980 0.3092 0.9459
vn 0.0232 0.0789 0.9966
vn 0.0492 -0.1067 -0.9931
vn -0.0176 -0.3274 -0.9447
vn 0.1503 -0.3751 -0.9147
vn 0.1413 -0.1108 -0.9837
vn 0.2490 0.7747 0.5813
vn 0.2517 0.7739 0.5812
vn 0.1958 0.6023 0.7739
vn 0.1933 0.6028 0.7741
vn 0.3099 0.9508 0.0002
vn 0.4891 0.8722 0.0002
vn 0.4892 0.8722 0.0002
vn 0.1003 0.3083 0.9460
vn 0.0710 -0.0466 -0.9964
vn 0.1158 -0.0580 -0.9916
vn -0.3086 -0.9512 0.0040
vn -0.3087 -0.9512 0.0040
vn -0.3084 -0.9512 0.0040
vn -0.3085 -0.9512 0.0040
vn 0.0006 0.0093 1.0000
vn 0.0015 0.0090 1.0000
vn 0.9534 -0.3013 0.0121
vn 0.9533 -0.3018 0.0123
vn -0.9511 0.3089 0.0064
vn -0.9501 0.3118 0.0063
vn -0.9510 0.3092 0.0064
vn 0.9532 -0.3022 0.0125
vn 0.1909 0.6041 0.7737
vn -0.1162 -0.6307 -0.7673
vn 0.0569 -0.6642 -0.7454
vn 0.2462 0.7757 0.5811
vn -0.1738 -0.7957 -0.5801
vn -0.0007 -0.8269 -0.5624
vn 0.0256 0.0781 0.9966
vn 0.9541 -0.2995 0.0075
vn 0.9542 -0.2991 0.0068
vn -0.9496 0.3135 0.0034
vn -0.9290 0.3597 -0.0867
vn -0.9299 0.3581 -0.0835
vn -0.9497 0.3132 0.0039
vn 0.9551 -0.2964 0.0018
vn 0.2603 0.8194 0.5106
vn 0.2632 0.8185 0.5106
vn -0.1851 -0.8317 -0.5235
vn -0.0112 -0.8615 -0.5077
vn -0.0994 0.0075 -0.9950
vn -0.1177 -0.0501 -0.9918
vn -0.9500 0.3121 0.0064
vn -0.3419 -0.7410 -0.5779
vn -0.3535 -0.7757 -0.5228
vn -0.1908 -0.2700 -0.9438
vn -0.9770 0.2133 0.0053
vn -0.9776 0.2105 0.0053
vn 0.0030 0.0085 1.0000
vn -0.2894 -0.5731 -0.7667
vn 0.2660 0.8176 0.5106
vn -0.9967 -0.0813 0.0008
vn -0.9964 -0.0848 0.0007
vn -0.8873 -0.4611 -0.0041
vn -0.8892 -0.4576 -0.0041
vn -0.6399 -0.7685 -0.0028
vn -0.6494 -0.7604 -0.0030
vn -0.3940 -0.9191 0.0019
vn -0.4019 -0.9157 0.0017
vn -0.8160 0.4689 -0.3380
vn -0.8187 0.4673 -0.3338
vn -0.5615 0.5502 -0.6181
vn -0.5586 0.5506 -0.6203
vn -0.2226 0.5550 -0.8015
vn -0.2095 0.5537 -0.8059
vn 0.0598 0.5071 -0.8598
vn 0.0692 0.5048 -0.8604
vn 0.1581 0.4807 -0.8625
vn 0.1568 0.4811 -0.8625
vn 0.1569 0.4810 -0.8625
vn -0.1176 -0.9931 0.0031
vn 0.0048 0.0079 1.0000
vn -0.0097 -0.0156 -0.9998
vn 0.8719 -0.4896 0.0006
vn 0.7603 -0.6495 0.0007
vn 0.8736 -0.4867 0.0006
vn 0.0779 -0.9970 0.0020
vn 0.9933 -0.1155 0.0004
vn 0.9969 0.0785 0.0003
vn 0.9930 -0.1185 0.0004
vn 0.6496 0.7602 0.0003
vn -0.9781 -0.2079 -0.0000
vn 0.9781 0.2079 -0.0000
vn -0.3090 -0.9511 -0.0000
vn 0.6691 -0.7431 -0.0000
vn -0.6691 0.7431 -0.0000
vn 0.3090 0.9511 -0.0000
vn -0.0481 0.0319 0.9983
vn -0.2649 0.1865 0.9461
vn -0.2638 0.1887 0.9459
vn -0.0679 0.0465 0.9966
vn 0.1167 0.0139 -0.9931
vn 0.3060 -0.1179 -0.9447
vn 0.4032 0.0270 -0.9147
vn 0.1490 0.1002 -0.9837
vn -0.6598 0.4762 0.5813
vn -0.6582 0.4785 0.5812
vn -0.5123 0.3724 0.7739
vn -0.5136 0.3701 0.7741
vn -0.8085 0.5885 0.0002
vn -0.6784 0.7347 0.0002
vn -0.6783 0.7348 0.0002
vn -0.2622 0.1906 0.9460
vn 0.0663 0.0531 -0.9964
vn 0.0909 0.0922 -0.9916
vn 0.8092 -0.5875 0.0040
vn 0.8094 -0.5873 0.0040
vn 0.8093 -0.5873 0.0040
vn -0.0086 0.0034 1.0000
vn -0.0081 0.0042 1.0000
vn 0.5812 0.8137 0.0121
vn 0.5816 0.8134 0.0123
vn -0.5877 -0.8091 0.0064
vn -0.5901 -0.8073 0.0063
vn -0.5879 -0.8089 0.0064
vn 0.5820 0.8131 0.0125
vn -0.5155 0.3683 0.7737
vn 0.5639 -0.3054 -0.7673
vn 0.6492 -0.1512 -0.7454
vn -0.6616 0.4739 0.5811
vn 0.7031 -0.4112 -0.5801
vn 0.7862 -0.2562 -0.5624
vn -0.0664 0.0485 0.9966
vn 0.5797 0.8148 0.0075
vn 0.5794 0.8150 0.0068
vn -0.5916 -0.8063 0.0034
vn -0.6292 -0.7724 -0.0867
vn -0.6280 -0.7738 -0.0835
vn -0.5913 -0.8064 0.0039
vn 0.5770 0.8167 0.0018
vn -0.6989 0.5008 0.5106
vn -0.6971 0.5032 0.5106
vn 0.7338 -0.4330 -0.5235
vn 0.8158 -0.2769 -0.5077
vn -0.0378 -0.0922 -0.9950
vn 0.0113 -0.1275 -0.9918
vn -0.5904 -0.8071 0.0064
vn 0.5991 -0.5542 -0.5779
vn 0.6285 -0.5759 -0.5228
vn 0.1978 -0.2649 -0.9438
vn -0.5047 -0.8633 0.0054
vn -0.5023 -0.8647 0.0053
vn -0.0071 0.0055 1.0000
vn 0.4556 -0.4524 -0.7667
vn -0.6954 0.5056 0.5106
vn -0.2307 -0.9730 0.0008
vn -0.2273 -0.9738 0.0007
vn 0.1643 -0.9864 -0.0041
vn 0.1604 -0.9870 -0.0041
vn 0.5331 -0.8460 -0.0028
vn 0.5225 -0.8526 -0.0030
vn 0.7524 -0.6587 0.0019
vn 0.7466 -0.6652 0.0017
vn -0.6981 -0.6312 -0.3380
vn -0.6974 -0.6342 -0.3338
vn -0.6968 -0.3640 -0.6181
vn -0.6963 -0.3611 -0.6203
vn -0.5966 -0.0402 -0.8015
vn -0.5914 -0.0281 -0.8059
vn -0.4638 0.2136 -0.8598
vn -0.4587 0.2218 -0.8604
vn -0.4083 0.2989 -0.8625
vn -0.4090 0.2978 -0.8625
vn -0.4090 0.2979 -0.8625
vn 0.9081 -0.4187 0.0031
vn 0.9081 -0.4188 0.0031
vn -0.0060 0.0070 1.0000
vn 0.0118 -0.0140 -0.9998
vn 0.7351 0.6780 0.0006
vn 0.8527 0.5224 0.0007
vn 0.7328 0.6804 0.0006
vn 0.9722 -0.2339 0.0020
vn 0.4168 0.9090 0.0004
vn 0.2334 0.9724 0.0003
vn 0.4195 0.9078 0.0004
vn -0.5223 0.8528 0.0003
vn -0.1045 -0.9945 -0.0000
vn 0.1045 0.9945 -0.0000
vn 0.8090 -0.5878 -0.0000
vn 0.9135 0.4067 -0.0000
vn -0.9135 -0.4067 -0.0000
vn -0.8090 0.5878 -0.0000
vn -0.0452 -0.0359 0.9983
vn -0.2593 -0.1943 0.9461
vn -0.2610 -0.1925 0.9459
vn -0.0651 -0.0502 0.9966
vn 0.0229 0.1152 -0.9931
vn 0.2067 0.2545 -0.9447
vn 0.0989 0.3918 -0.9147
vn -0.0493 0.1727 -0.9837
vn -0.6568 -0.4804 0.5813
vn -0.6585 -0.4781 0.5812
vn -0.5125 -0.3722 0.7739
vn -0.5107 -0.3741 0.7741
vn -0.8096 -0.5870 0.0002
vn -0.9084 -0.4182 0.0002
vn -0.9084 -0.4180 0.0002
vn -0.2623 -0.1905 0.9460
vn -0.0300 0.0794 -0.9964
vn -0.0596 0.1149 -0.9916
vn 0.8088 0.5881 0.0040
vn 0.8086 0.5883 0.0040
vn 0.8087 0.5882 0.0040
vn -0.0059 -0.0072 1.0000
vn -0.0065 -0.0064 1.0000
vn -0.5942 0.8042 0.0121
vn -0.5938 0.8045 0.0123
vn 0.5879 -0.8089 0.0064
vn 0.5854 -0.8107 0.0063
vn 0.5876 -0.8091 0.0064
vn -0.5935 0.8048 0.0125
vn -0.5096 -0.3765 0.7737
vn 0.4647 0.4419 -0.7673
vn 0.3444 0.5707 -0.7454
vn -0.6551 -0.4828 0.5811
vn 0.6084 0.5416 -0.5801
vn 0.4866 0.6685 -0.5624
vn -0.0666 -0.0481 0.9966
vn -0.5958 0.8031 0.0075
vn -0.5961 0.8029 0.0068
vn 0.5840 -0.8117 0.0034
vn 0.5402 -0.8371 -0.0867
vn 0.5418 -0.8363 -0.0835
vn 0.5842 -0.8116 0.0039
vn -0.5984 0.8012 0.0018
vn -0.6922 -0.5099 0.5106
vn -0.6940 -0.5075 0.5106
vn 0.6386 0.5641 -0.5235
vn 0.5154 0.6904 -0.5077
vn 0.0760 -0.0644 -0.9950
vn 0.1247 -0.0287 -0.9918
vn 0.5852 -0.8109 0.0064
vn 0.7122 0.3985 -0.5779
vn 0.7419 0.4198 -0.5228
vn 0.3131 0.1063 -0.9438
vn 0.6650 -0.7468 0.0054
vn 0.6671 -0.7449 0.0053
vn -0.0074 -0.0051 1.0000
vn 0.5710 0.2935 -0.7667
vn -0.6958 -0.5051 0.5106
vn 0.8541 -0.5201 0.0008
vn 0.8559 -0.5171 0.0007
vn 0.9889 -0.1485 -0.0041
vn 0.9883 -0.1525 -0.0041
vn 0.9694 0.2456 -0.0028
vn 0.9724 0.2335 -0.0030
vn 0.8590 0.5120 0.0019
vn 0.8634 0.5045 0.0017
vn 0.3846 -0.8590 -0.3380
vn 0.3877 -0.8592 -0.3338
vn 0.1309 -0.7751 -0.6181
vn 0.1283 -0.7738 -0.6203
vn -0.1461 -0.5799 -0.8015
vn -0.1560 -0.5711 -0.8059
vn -0.3465 -0.3751 -0.8598
vn -0.3527 -0.3677 -0.8604
vn -0.4104 -0.2960 -0.8625
vn -0.4096 -0.2970 -0.8625
vn -0.4097 -0.2969 -0.8625
vn 0.6788 0.7343 0.0031
vn 0.6789 0.7342 0.0031
vn -0.0085 -0.0036 1.0000
vn 0.0170 0.0069 -0.9998
vn -0.4176 0.9086 0.0006
vn -0.2333 0.9724 0.0007
vn -0.4206 0.9072 0.0006
vn 0.5229 0.8524 0.0020
vn -0.7357 0.6773 0.0004
vn -0.8527 0.5224 0.0003
vn -0.7337 0.6795 0.0004
vn -0.9724 -0.2332 0.0003
vn 0.9135 -0.4067 -0.0000
vn -0.9135 0.4067 -0.0000
vn 0.8090 0.5878 -0.0000
vn -0.1045 0.9945 -0.0000
vn 0.1045 -0.9945 -0.0000
vn -0.8090 -0.5878 -0.0000
vn 0.0202 -0.0540 0.9983
vn 0.1046 -0.3066 0.9461
vn 0.1025 -0.3077 0.9459
vn 0.0276 -0.0775 0.9966
vn -0.1025 0.0573 -0.9931
vn -0.1782 0.2752 -0.9447
vn -0.3420 0.2151 -0.9147
vn -0.1795 0.0065 -0.9837
vn 0.2539 -0.7731 0.5813
vn 0.2512 -0.7740 0.5812
vn 0.1956 -0.6024 0.7739
vn 0.1980 -0.6013 0.7741
vn 0.3081 -0.9513 0.0002
vn 0.1170 -0.9931 0.0002
vn 0.1168 -0.9932 0.0002
vn 0.1001 -0.3083 0.9460
vn -0.0848 -0.0040 -0.9964
vn -0.1277 -0.0212 -0.9916
vn -0.3094 0.9509 0.0040
vn -0.3093 0.9509 0.0040
vn -0.3096 0.9509 0.0040
vn -0.3095 0.9509 0.0040
vn 0.0050 -0.0079 1.0000
vn 0.0041 -0.0081 1.0000
vn -0.9485 -0.3166 0.0121
vn -0.9486 -0.3162 0.0123
vn 0.9510 0.3091 0.0064
vn 0.9519 0.3062 0.0063
vn 0.9511 0.3088 0.0064
vn -0.9488 -0.3157 0.0125
vn 0.2006 -0.6010 0.7737
vn -0.2767 0.5785 -0.7673
vn -0.4364 0.5039 -0.7454
vn 0.2567 -0.7722 0.5811
vn -0.3271 0.7460 -0.5801
vn -0.4854 0.6694 -0.5624
vn 0.0252 -0.0782 0.9966
vn -0.9479 -0.3185 0.0075
vn -0.9478 -0.3189 0.0068
vn 0.9525 0.3046 0.0034
vn 0.9630 0.2551 -0.0867
vn 0.9628 0.2569 -0.0835
vn 0.9524 0.3048 0.0039
vn -0.9469 -0.3216 0.0018
vn 0.2711 -0.8159 0.5106
vn 0.2682 -0.8169 0.5106
vn -0.3391 0.7817 -0.5235
vn -0.4973 0.7035 -0.5077
vn 0.0848 0.0524 -0.9950
vn 0.0658 0.1098 -0.9918
vn 0.9520 0.3060 0.0064
vn 0.9520 0.3059 0.0064
vn -0.1590 0.8005 -0.5779
vn -0.1700 0.8353 -0.5228
vn -0.0043 0.3306 -0.9438
vn 0.9157 0.4017 0.0054
vn 0.9146 0.4043 0.0053
vn 0.0025 -0.0087 1.0000
vn -0.1027 0.6338 -0.7667
vn 0.2654 -0.8178 0.5106
vn 0.7586 0.6516 0.0008
vn 0.7563 0.6543 0.0007
vn 0.4468 0.8946 -0.0041
vn 0.4504 0.8928 -0.0041
vn 0.0660 0.9978 -0.0028
vn 0.0784 0.9969 -0.0030
vn -0.2215 0.9752 0.0019
vn -0.2130 0.9770 0.0017
vn 0.9358 0.1003 -0.3380
vn 0.9370 0.1032 -0.3338
vn 0.7776 -0.1151 -0.6181
vn 0.7755 -0.1171 -0.6203
vn 0.5063 -0.3182 -0.8015
vn 0.4950 -0.3249 -0.8059
vn 0.2497 -0.4454 -0.8598
vn 0.2408 -0.4491 -0.8604
vn 0.1547 -0.4818 -0.8625
vn 0.1559 -0.4814 -0.8625
vn 0.1558 -0.4814 -0.8625
vn -0.4886 0.8725 0.0031
vn -0.4885 0.8725 0.0031
vn 0.0008 -0.0092 1.0000
vn -0.0013 0.0183 -0.9998
vn -0.9932 -0.1164 0.0006
vn -0.9969 0.0786 0.0007
vn -0.9928 -0.1197 0.0006
vn -0.6491 0.7607 0.0020
vn -0.8715 -0.4904 0.0004
vn -0.7604 -0.6495 0.0003
vn -0.8729 -0.4878 0.0004
vn -0.0787 -0.9969 0.0003
vn 0.6691 0.7431 -0.0000
vn -0.6691 -0.7431 -0.0000
vn -0.3090 0.9511 -0.0000
vn -0.9781 0.2079 -0.0000
vn 0.9781 -0.2079 -0.0000
vn 0.3090 -0.9511 -0.0000
vn 0.3827 0.9239 -0.0000
vn -0.0000 1.0000 -0.0000
vn -0.7071 0.7071 -0.0000
vn -0.9239 0.3827 -0.0000
vn -0.9239 -0.3827 -0.0000
vn -0.7071 -0.7071 -0.0000
vn -0.3827 -0.9239 -0.0000
vn -0.0000 -1.0000 -0.0000
vn 0.3827 -0.9239 -0.0000
vn 0.7071 -0.7071 -0.0000
vn 0.9239 -0.3827 -0.0000
vn 0.9239 0.3827 -0.0000
vn 0.7071 0.7071 -0.0000
vn -0.3827 0.9239 -0.0000
vn -0.4881 -0.2022 0.8491
vn -0.3736 -0.3736 0.8491
vn 0.0857 -0.2068 -0.9746
vn 0.1084 -0.2617 -0.9591
vn 0.2003 -0.2003 -0.9591
vn 0.1583 -0.1583 -0.9746
vn 0.3736 -0.3736 0.8491
vn 0.4881 -0.2022 0.8491
vn 0.2022 0.4881 0.8491
vn -0.0000 0.5283 0.8491
vn -0.4881 0.2022 0.8491
vn -0.5283 -0.0000 0.8491
vn -0.0000 -0.5283 0.8491
vn 0.2022 -0.4881 0.8491
vn 0.4881 0.2022 0.8491
vn 0.3736 0.3736 0.8491
vn -0.2022 0.4881 0.8491
vn -0.3736 0.3736 0.8491
vn -0.2022 -0.4881 0.8491
vn 0.5283 -0.0000 0.8491
vn -0.0000 -0.2239 -0.9746
vn 0.2068 -0.0857 -0.9746
vn 0.2239 -0.0000 -0.9746
vn 0.2068 0.0857 -0.9746
vn 0.1583 0.1583 -0.9746
vn 0.0857 0.2068 -0.9746
vn -0.0000 0.2239 -0.9746
vn -0.0857 0.2068 -0.9746
vn -0.1583 0.1583 -0.9746
vn -0.2068 0.0857 -0.9746
vn -0.2239 -0.0000 -0.9746
vn -0.2068 -0.0857 -0.9746
vn -0.1583 -0.1583 -0.9746
vn -0.0857 -0.2068 -0.9746
vn -0.0000 -0.2832 -0.9591
vn -0.1084 -0.2617 -0.9591
vn -0.2003 -0.2003 -0.9591
vn -0.2617 -0.1084 -0.9591
vn -0.2832 -0.0000 -0.9591
vn -0.2617 0.1084 -0.9591
vn -0.2003 0.2003 -0.9591
vn -0.1084 0.2617 -0.9591
vn -0.0000 0.2832 -0.9591
vn 0.1084 0.2617 -0.9591
vn 0.2003 0.2003 -0.9591
vn 0.2617 0.1084 -0.9591
vn 0.2832 -0.0000 -0.9591
vn 0.2617 -0.1084 -0.9591
vn -0.2680 0.6469 0.7139
vn -0.0000 0.7002 0.7139
vn -0.4951 0.4951 0.7139
vn -0.6469 0.2680 0.7139
vn -0.7002 -0.0000 0.7139
vn -0.6469 -0.2680 0.7139
vn -0.4951 -0.4951 0.7139
vn -0.2680 -0.6469 0.7139
vn -0.0000 -0.7002 0.7139
vn 0.2680 -0.6469 0.7139
vn 0.4951 -0.4951 0.7139
vn 0.6469 -0.2680 0.7139
vn 0.7002 -0.0000 0.7139
vn 0.6469 0.2680 0.7139
vn 0.4951 0.4951 0.7139
vn 0.2680 0.6469 0.7139
vt 0.375000 0.500000
vt 0.125000 0.500000
vt 0.375000 0.750000
vt 0.625000 0.750000
vt 0.625000 0.750000
vt 0.625000 0.000000
vt 0.625000 0.095599
vt 0.383077 0.500000
vt 0.625000 0.500000
vt 0.375000 0.904228
vt 0.625000 0.845599
vt 0.625000 0.750000
vt 0.125000 0.750000
vt 0.375000 0.250000
vt 0.375000 0.301153
vt 0.375000 0.301153
vt 0.625000 0.095599
vt 0.375000 0.301153
vt 0.625000 0.095599
vt 0.267724 0.642724
vt 0.375000 0.509059
vt 0.375000 0.534859
vt 0.375000 0.573470
vt 0.375000 0.619014
vt 0.375000 0.750000
vt 0.375000 0.750000
vt 0.505985 0.301153
vt 0.505985 0.250000
vt 0.125000 0.630985
vt 0.125000 0.676530
vt 0.125000 0.715141
vt 0.125000 0.740941
vt 0.551530 0.303858
vt 0.551530 0.250000
vt 0.625000 0.301153
vt 0.625000 0.250000
vt 0.375000 0.801153
vt 0.375000 0.823086
vt 0.375000 0.836682
vt 0.375000 0.303858
vt 0.375000 0.301153
vt 0.375000 0.350661
vt 0.375000 0.381351
vt 0.375000 0.721820
vt 0.375000 0.653787
vt 0.375000 0.596213
vt 0.375000 0.528180
vt 0.625000 0.750000
vt 0.625000 0.721820
vt 0.625000 0.653787
vt 0.625000 0.596212
vt 0.625000 0.528180
vt 0.471212 0.000000
vt 0.375000 0.000000
vt 0.375000 0.095599
vt 0.471213 0.095599
vt 0.528787 0.095599
vt 0.528787 0.000000
vt 0.957846 0.370000
vt 0.957846 0.130000
vt 0.750000 0.010000
vt 0.542154 0.130000
vt 0.542154 0.370000
vt 0.750000 0.490000
vt 1.000000 0.500000
vt 0.833333 0.500000
vt 0.833333 1.000000
vt 1.000000 1.000000
vt 0.500000 0.500000
vt 0.333333 0.500000
vt 0.333333 1.000000
vt 0.500000 1.000000
vt 0.666667 0.500000
vt 0.666667 1.000000
vt 0.250000 0.490000
vt 0.042154 0.370000
vt 0.042154 0.130000
vt 0.250000 0.010000
vt 0.457846 0.130000
vt 0.457846 0.370000
vt 0.166667 0.500000
vt -0.000000 0.500000
vt -0.000000 1.000000
vt 0.166667 1.000000
vt 0.062500 0.500000
vt 0.000000 0.500000
vt 0.000000 0.964960
vt 0.062500 0.964960
vt 0.875000 0.500000
vt 0.812500 0.500000
vt 0.812500 0.964960
vt 0.875000 0.964960
vt 0.750000 0.500000
vt 0.750000 0.964960
vt 0.687500 0.500000
vt 0.687500 0.964960
vt 0.750000 0.964960
vt 0.625000 0.964960
vt 0.562500 0.500000
vt 0.562500 0.964960
vt 0.500000 0.500000
vt 0.500000 0.964960
vt 0.562500 0.964960
vt 0.437500 0.500000
vt 0.437500 0.964960
vt 0.375000 0.964960
vt 0.437500 0.964960
vt 0.312500 0.500000
vt 0.312500 0.964960
vt 0.375000 0.964960
vt 0.250000 0.500000
vt 0.250000 0.964960
vt 0.187500 0.500000
vt 0.187500 0.964960
vt 0.125000 0.964960
vt 0.187500 0.964960
vt 0.937500 0.500000
vt 0.937500 0.964960
vt 1.000000 0.964960
vt 0.875000 0.964960
vt 0.828322 0.439085
vt 0.894719 0.394719
vt 0.841844 0.471731
vt 0.750000 0.490000
vt 0.750000 0.454664
vt 0.919706 0.419706
vt 0.939085 0.328322
vt 0.971731 0.341844
vt 0.954664 0.250000
vt 0.990000 0.250000
vt 0.939085 0.171678
vt 0.971731 0.158156
vt 0.894719 0.105281
vt 0.919706 0.080294
vt 0.828322 0.060915
vt 0.841844 0.028269
vt 0.750000 0.045336
vt 0.671679 0.060915
vt 0.658156 0.028269
vt 0.605281 0.105281
vt 0.580294 0.080294
vt 0.560915 0.171678
vt 0.528269 0.158156
vt 0.545336 0.250000
vt 0.510000 0.250000
vt 0.560915 0.328321
vt 0.528269 0.341844
vt 0.605281 0.394719
vt 0.580294 0.419706
vt 0.671679 0.439085
vt 0.658156 0.471731
vt 0.341844 0.471731
vt 0.331053 0.445679
vt 0.250000 0.461801
vt 0.250000 0.490000
vt 0.419706 0.419706
vt 0.399766 0.399766
vt 0.471731 0.341844
vt 0.445679 0.331053
vt 0.490000 0.250000
vt 0.461801 0.250000
vt 0.471731 0.158156
vt 0.445679 0.168947
vt 0.419706 0.080294
vt 0.399766 0.100234
vt 0.341844 0.028269
vt 0.331053 0.054321
vt 0.250000 0.010000
vt 0.250000 0.038199
vt 0.158156 0.028269
vt 0.168947 0.054321
vt 0.080294 0.080294
vt 0.100234 0.100234
vt 0.028269 0.158156
vt 0.054321 0.168947
vt 0.010000 0.250000
vt 0.038199 0.250000
vt 0.028269 0.341844
vt 0.054321 0.331053
vt 0.080294 0.419706
vt 0.100234 0.399766
vt 0.158156 0.471731
vt 0.168947 0.445679
s 1
f 5/1/1 13/1/2 14/2/3 6/2/4
f 8/3/5 16/3/6 15/4/7 7/5/8
f 22/2/9 31/2/10 29/2/11 18/2/12
f 5/6/13 62/6/14 57/7/15 7/7/13
f 18/2/12 29/2/11 12/2/16 14/2/3
f 4/8/17 8/3/5 7/5/8 3/9/18
f 2/3/19 4/10/20 3/11/21 1/12/22
f 6/2/4 2/13/23 1/3/24 5/1/1
f 7/7/25 15/7/26 13/6/26 5/6/25
f 11/14/27 12/14/28 9/15/28 10/16/29
f 15/7/26 19/17/30 17/6/30 13/6/26
f 13/1/2 17/1/31 18/2/12 14/2/3
f 16/3/6 20/3/32 19/12/33 15/4/7
f 17/1/31 21/1/34 22/2/9 18/2/12
f 20/3/32 24/3/35 23/12/36 19/12/33
f 14/2/3 12/2/16 11/2/37 6/2/4
f 19/17/30 23/7/38 21/6/39 17/6/30
f 31/14/40 43/14/41 49/18/42 32/16/43
f 23/7/38 27/19/44 25/6/44 21/6/39
f 21/1/34 25/1/45 26/2/46 22/2/9
f 24/3/35 28/20/47 27/12/48 23/12/36
f 4/8/17 34/1/49 37/21/49 36/22/49 35/23/49 33/24/49 10/25/50 8/3/5
f 12/14/28 29/14/51 30/16/51 9/15/28
f 29/14/51 31/14/40 32/16/43 30/16/51
f 24/3/35 32/3/52 49/3/53 52/25/53 51/3/53 50/3/53 48/3/53 28/20/47
f 8/3/5 10/25/50 9/26/54 16/3/6
f 11/14/27 10/16/29 33/27/55 39/28/56
f 6/2/4 11/2/37 39/29/57 42/30/57 41/31/57 40/32/57 38/13/57 2/13/23
f 16/3/6 9/26/54 30/3/58 20/3/32
f 20/3/32 30/3/58 32/3/52 24/3/35
f 26/2/46 44/2/59 47/2/59 46/2/59 45/2/59 43/2/59 31/2/10 22/2/9
f 33/27/55 35/33/60 42/34/61 39/28/56
f 35/33/60 36/35/62 41/36/63 42/34/61
f 36/37/62 37/38/64 40/3/65 41/3/63
f 37/38/64 34/39/66 38/25/67 40/3/65
f 43/14/41 45/14/68 52/40/69 49/18/42
f 45/14/68 46/14/70 51/41/71 52/40/69
f 46/14/70 47/14/72 50/42/73 51/41/71
f 47/14/72 44/14/74 48/43/75 50/42/73
f 2/3/19 38/25/67 34/39/66 4/10/20
f 25/6/76 27/19/76 28/20/77 26/2/78
f 48/3/75 44/2/74 26/2/78 28/20/77
f 3/11/21 53/11/79 60/12/80 1/12/22
f 1/3/24 60/3/81 61/44/81 59/45/81 63/46/81 64/47/81 62/1/81 5/1/1
f 7/5/8 57/48/82 58/49/82 56/50/82 54/51/82 55/52/82 53/9/82 3/9/18
f 59/53/83 61/54/84 55/55/84 54/56/85
f 61/12/86 60/12/80 53/11/79 55/11/86
f 56/57/87 58/7/88 64/6/88 63/58/89
f 58/7/90 57/7/15 62/6/14 64/6/90
f 59/53/83 54/56/85 56/57/87 63/58/89
f 80/59/91 82/60/91 84/61/91 86/62/91 88/63/91 65/64/91
f 67/65/92 69/66/92 70/67/92 68/68/92
f 83/69/93 85/70/93 86/71/93 84/72/93
f 69/66/94 71/73/94 72/74/94 70/67/94
f 66/75/95 87/76/95 85/77/95 83/78/95 81/79/95 79/80/95
f 81/73/96 83/69/96 84/72/96 82/74/96
f 71/73/96 73/69/96 74/72/96 72/74/96
f 87/81/97 66/82/97 65/83/97 88/84/97
f 79/66/94 81/73/94 82/74/94 80/67/94
f 73/69/93 75/70/93 76/71/93 74/72/93
f 70/59/91 72/60/91 74/61/91 76/62/91 78/63/91 68/64/91
f 66/65/92 79/66/92 80/67/92 65/68/92
f 75/70/98 77/81/98 78/84/98 76/71/98
f 85/70/98 87/81/98 88/84/98 86/71/98
f 77/81/97 67/82/97 68/83/97 78/84/97
f 67/75/95 77/76/95 75/77/95 73/78/95 71/79/95 69/80/95
f 93/1/99 101/1/100 102/2/101 94/2/102
f 96/3/103 104/3/104 103/4/105 95/5/106
f 110/2/107 119/2/108 117/2/109 106/2/110
f 93/6/111 150/6/112 145/7/113 95/7/111
f 106/2/110 117/2/109 100/2/114 102/2/101
f 92/8/115 96/3/103 95/5/106 91/9/116
f 90/3/117 92/10/118 91/11/119 89/12/120
f 94/2/102 90/13/121 89/3/122 93/1/99
f 95/7/123 103/7/124 101/6/124 93/6/123
f 99/14/125 100/14/126 97/15/126 98/16/127
f 103/7/124 107/17/128 105/6/128 101/6/124
f 101/1/100 105/1/129 106/2/110 102/2/101
f 104/3/104 108/3/130 107/12/131 103/4/105
f 105/1/129 109/1/132 110/2/107 106/2/110
f 108/3/130 112/3/133 111/12/134 107/12/131
f 102/2/101 100/2/114 99/2/135 94/2/102
f 107/17/128 111/7/136 109/6/137 105/6/128
f 119/14/138 131/14/139 137/18/140 120/16/141
f 111/7/136 115/19/142 113/6/142 109/6/137
f 109/1/132 113/1/143 114/2/144 110/2/107
f 112/3/133 116/20/145 115/12/146 111/12/134
f 92/8/115 122/1/147 125/21/147 124/22/147 123/23/147 121/24/147 98/25/148 96/3/103
f 100/14/126 117/14/149 118/16/149 97/15/126
f 117/14/149 119/14/138 120/16/141 118/16/149
f 112/3/133 120/3/150 137/3/151 140/25/151 139/3/151 138/3/151 136/3/151 116/20/145
f 96/3/103 98/25/148 97/26/152 104/3/104
f 99/14/125 98/16/127 121/27/153 127/28/154
f 94/2/102 99/2/135 127/29/155 130/30/155 129/31/155 128/32/155 126/13/155 90/13/121
f 104/3/104 97/26/152 118/3/156 108/3/130
f 108/3/130 118/3/156 120/3/150 112/3/133
f 114/2/144 132/2/157 135/2/157 134/2/157 133/2/157 131/2/157 119/2/108 110/2/107
f 121/27/153 123/33/158 130/34/159 127/28/154
f 123/33/158 124/35/160 129/36/161 130/34/159
f 124/37/160 125/38/162 128/3/163 129/3/161
f 125/38/162 122/39/164 126/25/165 128/3/163
f 131/14/139 133/14/166 140/40/167 137/18/140
f 133/14/166 134/14/168 139/41/169 140/40/167
f 134/14/168 135/14/170 138/42/171 139/41/169
f 135/14/170 132/14/172 136/43/173 138/42/171
f 90/3/117 126/25/165 122/39/164 92/10/118
f 113/6/174 115/19/174 116/20/175 114/2/176
f 136/3/173 132/2/172 114/2/176 116/20/175
f 91/11/119 141/11/177 148/12/177 89/12/120
f 89/3/122 148/3/178 149/44/178 147/45/178 151/46/178 152/47/178 150/1/178 93/1/99
f 95/5/106 145/48/179 146/49/179 144/50/179 142/51/179 143/52/179 141/9/179 91/9/116
f 147/53/180 149/54/181 143/55/181 142/56/182
f 149/12/183 148/12/177 141/11/177 143/11/183
f 144/57/184 146/7/185 152/6/185 151/58/186
f 146/7/187 145/7/113 150/6/112 152/6/187
f 147/53/180 142/56/182 144/57/184 151/58/186
f 168/59/91 170/60/91 172/61/91 174/62/91 176/63/91 153/64/91
f 155/65/188 157/66/188 158/67/188 156/68/188
f 171/69/189 173/70/189 174/71/189 172/72/189
f 157/66/190 159/73/190 160/74/190 158/67/190
f 154/75/95 175/76/95 173/77/95 171/78/95 169/79/95 167/80/95
f 169/73/191 171/69/191 172/72/191 170/74/191
f 159/73/191 161/69/191 162/72/191 160/74/191
f 175/81/192 154/82/192 153/83/192 176/84/192
f 167/66/190 169/73/190 170/74/190 168/67/190
f 161/69/189 163/70/189 164/71/189 162/72/189
f 158/59/91 160/60/91 162/61/91 164/62/91 166/63/91 156/64/91
f 154/65/188 167/66/188 168/67/188 153/68/188
f 163/70/193 165/81/193 166/84/193 164/71/193
f 173/70/193 175/81/193 176/84/193 174/71/193
f 165/81/192 155/82/192 156/83/192 166/84/192
f 155/75/95 165/76/95 163/77/95 161/78/95 159/79/95 157/80/95
f 181/1/194 189/1/195 190/2/196 182/2/197
f 184/3/198 192/3/199 191/4/200 183/5/201
f 198/2/202 207/2/203 205/2/204 194/2/205
f 181/6/206 238/6/207 233/7/208 183/7/206
f 194/2/205 205/2/204 188/2/209 190/2/196
f 180/8/210 184/3/198 183/5/201 179/9/211
f 178/3/212 180/10/212 179/11/213 177/12/214
f 182/2/197 178/13/215 177/3/216 181/1/194
f 183/7/217 191/7/218 189/6/218 181/6/217
f 187/14/219 188/14/220 185/15/220 186/16/221
f 191/7/218 195/17/222 193/6/222 189/6/218
f 189/1/195 193/1/223 194/2/205 190/2/196
f 192/3/199 196/3/224 195/12/225 191/4/200
f 193/1/223 197/1/226 198/2/202 194/2/205
f 196/3/224 200/3/227 199/12/228 195/12/225
f 190/2/196 188/2/209 187/2/229 182/2/197
f 195/17/222 199/7/230 197/6/231 193/6/222
f 207/14/232 219/14/233 225/18/234 208/16/235
f 199/7/230 203/19/236 201/6/236 197/6/231
f 197/1/226 201/1/237 202/2/238 198/2/202
f 200/3/227 204/20/239 203/12/240 199/12/228
f 180/8/210 210/1/241 213/21/241 212/22/241 211/23/241 209/24/241 186/25/242 184/3/198
f 188/14/220 205/14/243 206/16/243 185/15/220
f 205/14/243 207/14/232 208/16/235 206/16/243
f 200/3/227 208/3/244 225/3/245 228/25/245 227/3/245 226/3/245 224/3/245 204/20/239
f 184/3/198 186/25/242 185/26/246 192/3/199
f 187/14/219 186/16/221 209/27/247 215/28/248
f 182/2/197 187/2/229 215/29/249 218/30/249 217/31/249 216/32/249 214/13/249 178/13/215
f 192/3/199 185/26/246 206/3/250 196/3/224
f 196/3/224 206/3/250 208/3/244 200/3/227
f 202/2/238 220/2/251 223/2/251 222/2/251 221/2/251 219/2/251 207/2/203 198/2/202
f 209/27/247 211/33/252 218/34/253 215/28/248
f 211/33/252 212/35/254 217/36/255 218/34/253
f 212/37/254 213/38/256 216/3/257 217/3/255
f 213/38/256 210/39/258 214/25/259 216/3/257
f 219/14/233 221/14/260 228/40/261 225/18/234
f 221/14/260 222/14/262 227/41/263 228/40/261
f 222/14/262 223/14/264 226/42/265 227/41/263
f 223/14/264 220/14/266 224/43/267 226/42/265
f 178/3/212 214/25/259 210/39/258 180/10/212
f 201/6/268 203/19/268 204/20/269 202/2/270
f 224/3/267 220/2/266 202/2/270 204/20/269
f 179/11/213 229/11/271 236/12/272 177/12/214
f 177/3/216 236/3/273 237/44/273 235/45/273 239/46/273 240/47/273 238/1/273 181/1/194
f 183/5/201 233/48/274 234/49/274 232/50/274 230/51/274 231/52/274 229/9/274 179/9/211
f 235/53/275 237/54/276 231/55/276 230/56/277
f 237/12/278 236/12/272 229/11/271 231/11/278
f 232/57/279 234/7/280 240/6/280 239/58/281
f 234/7/282 233/7/208 238/6/207 240/6/282
f 235/53/275 230/56/277 232/57/279 239/58/281
f 256/59/91 258/60/91 260/61/91 262/62/91 264/63/91 241/64/91
f 243/65/283 245/66/283 246/67/283 244/68/283
f 259/69/284 261/70/284 262/71/284 260/72/284
f 245/66/285 247/73/285 248/74/285 246/67/285
f 242/75/95 263/76/95 261/77/95 259/78/95 257/79/95 255/80/95
f 257/73/286 259/69/286 260/72/286 258/74/286
f 247/73/286 249/69/286 250/72/286 248/74/286
f 263/81/287 242/82/287 241/83/287 264/84/287
f 255/66/285 257/73/285 258/74/285 256/67/285
f 249/69/284 251/70/284 252/71/284 250/72/284
f 246/59/91 248/60/91 250/61/91 252/62/91 254/63/91 244/64/91
f 242/65/283 255/66/283 256/67/283 241/68/283
f 251/70/288 253/81/288 254/84/288 252/71/288
f 261/70/288 263/81/288 264/84/288 262/71/288
f 253/81/287 243/82/287 244/83/287 254/84/287
f 243/75/95 253/76/95 251/77/95 249/78/95 247/79/95 245/80/95
f 269/1/289 277/1/290 278/2/291 270/2/292
f 272/3/293 280/3/294 279/4/295 271/5/296
f 286/2/297 295/2/298 293/2/299 282/2/300
f 269/6/301 326/6/302 321/7/303 271/7/301
f 282/2/300 293/2/299 276/2/304 278/2/291
f 268/8/305 272/3/293 271/5/296 267/9/306
f 266/3/307 268/10/307 267/11/308 265/12/309
f 270/2/292 266/13/310 265/3/311 269/1/289
f 271/7/312 279/7/313 277/6/313 269/6/312
f 275/14/314 276/14/315 273/15/315 274/16/316
f 279/7/313 283/17/317 281/6/317 277/6/313
f 277/1/290 281/1/318 282/2/300 278/2/291
f 280/3/294 284/3/319 283/12/320 279/4/295
f 281/1/318 285/1/321 286/2/297 282/2/300
f 284/3/319 288/3/322 287/12/323 283/12/320
f 278/2/291 276/2/304 275/2/324 270/2/292
f 283/17/317 287/7/325 285/6/326 281/6/317
f 295/14/327 307/14/328 313/18/329 296/16/330
f 287/7/325 291/19/331 289/6/331 285/6/326
f 285/1/321 289/1/332 290/2/333 286/2/297
f 288/3/322 292/20/334 291/12/335 287/12/323
f 268/8/305 298/1/336 301/21/336 300/22/336 299/23/336 297/24/336 274/25/337 272/3/293
f 276/14/315 293/14/338 294/16/338 273/15/315
f 293/14/338 295/14/327 296/16/330 294/16/338
f 288/3/322 296/3/339 313/3/340 316/25/340 315/3/340 314/3/340 312/3/340 292/20/334
f 272/3/293 274/25/337 273/26/341 280/3/294
f 275/14/314 274/16/316 297/27/342 303/28/343
f 270/2/292 275/2/324 303/29/344 306/30/344 305/31/344 304/32/344 302/13/344 266/13/310
f 280/3/294 273/26/341 294/3/345 284/3/319
f 284/3/319 294/3/345 296/3/339 288/3/322
f 290/2/333 308/2/346 311/2/346 310/2/346 309/2/346 307/2/346 295/2/298 286/2/297
f 297/27/342 299/33/347 306/34/348 303/28/343
f 299/33/347 300/35/349 305/36/350 306/34/348
f 300/37/349 301/38/351 304/3/352 305/3/350
f 301/38/351 298/39/353 302/25/354 304/3/352
f 307/14/328 309/14/355 316/40/356 313/18/329
f 309/14/355 310/14/357 315/41/358 316/40/356
f 310/14/357 311/14/359 314/42/360 315/41/358
f 311/14/359 308/14/361 312/43/362 314/42/360
f 266/3/307 302/25/354 298/39/353 268/10/307
f 289/6/363 291/19/363 292/20/364 290/2/365
f 312/3/362 308/2/361 290/2/365 292/20/364
f 267/11/308 317/11/366 324/12/367 265/12/309
f 265/3/311 324/3/368 325/44/368 323/45/368 327/46/368 328/47/368 326/1/368 269/1/289
f 271/5/296 321/48/369 322/49/369 320/50/369 318/51/369 319/52/369 317/9/369 267/9/306
f 323/53/370 325/54/371 319/55/371 318/56/372
f 325/12/373 324/12/367 317/11/366 319/11/373
f 320/57/374 322/7/375 328/6/375 327/58/376
f 322/7/377 321/7/303 326/6/302 328/6/377
f 323/53/370 318/56/372 320/57/374 327/58/376
f 344/59/91 346/60/91 348/61/91 350/62/91 352/63/91 329/64/91
f 331/65/378 333/66/378 334/67/378 332/68/378
f 347/69/379 349/70/379 350/71/379 348/72/379
f 333/66/380 335/73/380 336/74/380 334/67/380
f 330/75/95 351/76/95 349/77/95 347/78/95 345/79/95 343/80/95
f 345/73/381 347/69/381 348/72/381 346/74/381
f 335/73/381 337/69/381 338/72/381 336/74/381
f 351/81/382 330/82/382 329/83/382 352/84/382
f 343/66/380 345/73/380 346/74/380 344/67/380
f 337/69/379 339/70/379 340/71/379 338/72/379
f 334/59/91 336/60/91 338/61/91 340/62/91 342/63/91 332/64/91
f 330/65/378 343/66/378 344/67/378 329/68/378
f 339/70/383 341/81/383 342/84/383 340/71/383
f 349/70/383 351/81/383 352/84/383 350/71/383
f 341/81/382 331/82/382 332/83/382 342/84/382
f 331/75/95 341/76/95 339/77/95 337/78/95 335/79/95 333/80/95
f 357/1/384 365/1/385 366/2/386 358/2/387
f 360/3/388 368/3/389 367/4/390 359/5/391
f 374/2/392 383/2/393 381/2/394 370/2/395
f 357/6/396 414/6/397 409/7/398 359/7/396
f 370/2/395 381/2/394 364/2/399 366/2/386
f 356/8/400 360/3/388 359/5/391 355/9/401
f 354/3/402 356/10/403 355/11/404 353/12/405
f 358/2/387 354/13/406 353/3/407 357/1/384
f 359/7/408 367/7/409 365/6/409 357/6/408
f 363/14/410 364/14/411 361/15/411 362/16/412
f 367/7/409 371/17/413 369/6/413 365/6/409
f 365/1/385 369/1/414 370/2/395 366/2/386
f 368/3/389 372/3/415 371/12/416 367/4/390
f 369/1/414 373/1/417 374/2/392 370/2/395
f 372/3/415 376/3/418 375/12/419 371/12/416
f 366/2/386 364/2/399 363/2/420 358/2/387
f 371/17/413 375/7/421 373/6/422 369/6/413
f 383/14/423 395/14/424 401/18/425 384/16/426
f 375/7/421 379/19/427 377/6/427 373/6/422
f 373/1/417 377/1/428 378/2/429 374/2/392
f 376/3/418 380/20/430 379/12/431 375/12/419
f 356/8/400 386/1/432 389/21/432 388/22/432 387/23/432 385/24/432 362/25/433 360/3/388
f 364/14/411 381/14/434 382/16/435 361/15/411
f 381/14/434 383/14/423 384/16/426 382/16/435
f 376/3/418 384/3/436 401/3/437 404/25/437 403/3/437 402/3/437 400/3/437 380/20/430
f 360/3/388 362/25/433 361/26/438 368/3/389
f 363/14/410 362/16/412 385/27/439 391/28/440
f 358/2/387 363/2/420 391/29/441 394/30/441 393/31/441 392/32/441 390/13/441 354/13/406
f 368/3/389 361/26/438 382/3/442 372/3/415
f 372/3/415 382/3/442 384/3/436 376/3/418
f 378/2/429 396/2/443 399/2/443 398/2/443 397/2/443 395/2/443 383/2/393 374/2/392
f 385/27/439 387/33/444 394/34/445 391/28/440
f 387/33/444 388/35/446 393/36/447 394/34/445
f 388/37/446 389/38/448 392/3/449 393/3/447
f 389/38/448 386/39/450 390/25/451 392/3/449
f 395/14/424 397/14/452 404/40/453 401/18/425
f 397/14/452 398/14/454 403/41/455 404/40/453
f 398/14/454 399/14/456 402/42/457 403/41/455
f 399/14/456 396/14/458 400/43/459 402/42/457
f 354/3/402 390/25/451 386/39/450 356/10/403
f 377/6/460 379/19/460 380/20/461 378/2/462
f 400/3/459 396/2/458 378/2/462 380/20/461
f 355/11/404 405/11/463 412/12/464 353/12/405
f 353/3/407 412/3/465 413/44/465 411/45/465 415/46/465 416/47/465 414/1/465 357/1/384
f 359/5/391 409/48/466 410/49/466 408/50/466 406/51/466 407/52/466 405/9/466 355/9/401
f 411/53/467 413/54/468 407/55/468 406/56/469
f 413/12/470 412/12/464 405/11/463 407/11/470
f 408/57/471 410/7/472 416/6/472 415/58/473
f 410/7/474 409/7/398 414/6/397 416/6/474
f 411/53/467 406/56/469 408/57/471 415/58/473
f 432/59/91 434/60/91 436/61/91 438/62/91 440/63/91 417/64/91
f 419/65/475 421/66/475 422/67/475 420/68/475
f 435/69/476 437/70/476 438/71/476 436/72/476
f 421/66/477 423/73/477 424/74/477 422/67/477
f 418/75/95 439/76/95 437/77/95 435/78/95 433/79/95 431/80/95
f 433/73/478 435/69/478 436/72/478 434/74/478
f 423/73/478 425/69/478 426/72/478 424/74/478
f 439/81/479 418/82/479 417/83/479 440/84/479
f 431/66/477 433/73/477 434/74/477 432/67/477
f 425/69/476 427/70/476 428/71/476 426/72/476
f 422/59/91 424/60/91 426/61/91 428/62/91 430/63/91 420/64/91
f 418/65/475 431/66/475 432/67/475 417/68/475
f 427/70/480 429/81/480 430/84/480 428/71/480
f 437/70/480 439/81/480 440/84/480 438/71/480
f 429/81/479 419/82/479 420/83/479 430/84/479
f 419/75/95 429/76/95 427/77/95 425/78/95 423/79/95 421/80/95
f 456/85/481 441/86/482 506/87/482 536/88/481
f 443/89/483 444/90/484 512/91/484 510/92/483
f 444/90/484 445/93/94 514/94/94 512/91/484
f 445/93/94 446/95/485 516/96/485 514/97/94
f 446/95/485 447/9/486 518/98/486 516/96/485
f 447/9/486 448/99/487 520/100/487 518/98/486
f 448/99/487 449/101/488 522/102/488 520/103/487
f 449/101/488 450/104/489 524/105/489 522/102/488
f 450/104/489 451/1/490 526/106/490 524/107/489
f 451/1/490 452/108/491 528/109/491 526/110/490
f 452/108/491 453/111/98 530/112/98 528/109/491
f 453/111/98 454/113/492 532/114/492 530/112/98
f 454/113/492 455/2/493 534/115/493 532/116/492
f 455/2/493 456/85/481 536/88/481 534/115/493
f 441/65/482 442/117/494 508/118/494 506/119/482
f 442/117/494 443/89/483 510/120/483 508/118/494
f 446/95/495 478/95/495 479/9/496 447/9/496
f 458/121/497 490/121/498 491/122/499 459/122/500
f 451/1/501 483/1/501 484/108/502 452/108/502
f 456/85/503 488/85/503 473/86/504 441/86/504
f 444/90/505 476/90/505 477/93/506 445/93/506
f 449/101/507 481/101/507 482/104/508 450/104/508
f 454/113/509 486/113/509 487/2/510 455/2/510
f 442/117/511 474/117/511 475/89/512 443/89/512
f 447/9/496 479/9/496 480/99/513 448/99/513
f 452/108/502 484/108/502 485/111/514 453/111/514
f 445/93/506 477/93/506 478/95/495 446/95/495
f 450/104/508 482/104/508 483/1/501 451/1/501
f 455/2/510 487/2/510 488/85/503 456/85/503
f 443/89/512 475/89/512 476/90/505 444/90/505
f 448/99/513 480/99/513 481/101/507 449/101/507
f 441/65/504 473/65/504 474/117/511 442/117/511
f 453/111/514 485/111/514 486/113/509 454/113/509
f 458/121/497 474/123/95 473/124/95 457/125/515
f 459/122/500 475/126/95 474/123/95 458/121/497
f 460/127/516 476/128/95 475/126/95 459/122/500
f 461/129/517 477/130/95 476/128/95 460/127/516
f 462/131/518 478/132/95 477/130/95 461/129/517
f 463/133/519 479/134/95 478/132/95 462/131/518
f 464/135/520 480/136/95 479/134/95 463/133/519
f 465/137/521 481/61/95 480/136/95 464/135/520
f 466/138/522 482/139/95 481/61/95 465/137/521
f 467/140/523 483/141/95 482/139/95 466/138/522
f 468/142/524 484/143/95 483/141/95 467/140/523
f 469/144/525 485/145/95 484/143/95 468/142/524
f 470/146/526 486/147/95 485/145/95 469/144/525
f 471/148/527 487/149/95 486/147/95 470/146/526
f 472/150/528 488/151/95 487/149/95 471/148/527
f 457/125/515 473/124/95 488/151/95 472/150/528
f 489/125/529 504/150/530 503/148/531 502/146/532 501/144/533 500/142/534 499/140/535 498/138/536 497/137/537 496/135/538 495/133/539 494/131/540 493/129/541 492/127/542 491/122/499 490/121/498
f 466/138/522 498/138/536 499/140/535 467/140/523
f 459/122/500 491/122/499 492/127/542 460/127/516
f 467/140/523 499/140/535 500/142/534 468/142/524
f 460/127/516 492/127/542 493/129/541 461/129/517
f 468/142/524 500/142/534 501/144/533 469/144/525
f 461/129/517 493/129/541 494/131/540 462/131/518
f 469/144/525 501/144/533 502/146/532 470/146/526
f 462/131/518 494/131/540 495/133/539 463/133/519
f 470/146/526 502/146/532 503/148/531 471/148/527
f 463/133/519 495/133/539 496/135/538 464/135/520
f 471/148/527 503/148/531 504/150/530 472/150/528
f 464/135/520 496/135/538 497/137/537 465/137/521
f 457/125/515 489/125/529 490/121/498 458/121/497
f 472/150/528 504/150/530 489/125/529 457/125/515
f 465/137/521 497/137/537 498/138/536 466/138/522
f 508/152/543 507/153/543 505/154/544 506/155/544
f 510/156/545 509/157/545 507/153/543 508/152/543
f 512/158/546 511/159/546 509/157/545 510/156/545
f 514/160/547 513/161/547 511/159/546 512/158/546
f 516/162/548 515/163/548 513/161/547 514/160/547
f 518/164/549 517/165/549 515/163/548 516/162/548
f 520/166/550 519/167/550 517/165/549 518/164/549
f 522/168/551 521/169/551 519/167/550 520/166/550
f 524/170/552 523/171/552 521/169/551 522/168/551
f 526/172/553 525/173/553 523/171/552 524/170/552
f 528/174/554 527/175/554 525/173/553 526/172/553
f 530/176/555 529/177/555 527/175/554 528/174/554
f 532/178/556 531/179/556 529/177/555 530/176/555
f 534/180/557 533/181/557 531/179/556 532/178/556
f 536/182/558 535/183/558 533/181/557 534/180/557
f 506/155/544 505/154/544 535/183/558 536/182/558
f 507/153/91 509/157/91 511/159/91 513/161/91 515/163/91 517/165/91 519/167/91 521/169/91 523/171/91 525/173/91 527/175/91 529/177/91 531/179/91 533/181/91 535/183/91 505/154/91
